<?xml version='1.0' encoding='utf-8'?>
<svg width="21.891319mm" height="100.09mm" viewBox="-15.561976 -90.733136 32.029551 146.443333" version="1.1" xmlns="http://www.w3.org/2000/svg">
  <g transform="scale(1,-1)" stroke-linecap="round">
    <g fill="none" stroke="rgb(0,0,0)" stroke-width="0.13168048745842065" id="Visible">
      <line x1="11.167695" y1="-45.911529" x2="11.167695" y2="-45.782015" />
      <path d="M 11.167695,-45.782015 Q 11.405432,-45.488321 11.579331,-45.181551" />
      <line x1="11.579331" y1="-46.157666" x2="11.579331" y2="-45.181551" />
      <path d="M 11.579331,-45.181551 C 11.636228,-45.079427 11.890574,-45.034771 12.138564,-45.037799 C 12.392047,-45.039818 12.629655,-45.075122 12.853908,-45.120917" />
      <line x1="12.853908" y1="-46.702088" x2="12.853908" y2="-45.120917" />
      <path d="M 13.997117,-49.276289 C 14.404109,-49.231418 14.809872,-49.159348 15.190815,-49.071906 C 15.574204,-48.983706 15.933568,-48.881223 16.310953,-48.755427" />
      <path d="M 12.853908,-45.120917 C 13.084029,-45.142437 13.370365,-45.1405 13.670686,-45.119107 C 13.971617,-45.097822 14.285004,-45.057829 14.587472,-45.005992 C 14.890645,-44.953583 15.183732,-44.890946 15.466734,-44.818081 C 15.750663,-44.745348 16.024821,-44.663993 16.310953,-44.568562" />
      <line x1="16.310953" y1="-48.755427" x2="16.310953" y2="-44.568562" />
      <path d="M 16.310953,-48.755427 Q 16.371507,-48.500541 16.401734,-48.244047" />
      <path d="M 16.310953,-44.568562 Q 16.371507,-44.313676 16.401734,-44.057182" />
      <line x1="16.401734" y1="-48.244047" x2="16.401734" y2="-44.057182" />
      <path d="M 16.401734,-44.057182 C 15.911678,-43.812347 15.427414,-43.614962 14.864269,-43.446775 C 14.585676,-43.364116 14.292204,-43.291932 14.004374,-43.239416 C 13.717181,-43.186859 13.436868,-43.154864 13.203472,-43.151796" />
      <path d="M 13.203472,-43.151796 C 12.967295,-43.173168 12.721702,-43.182841 12.472239,-43.158181 C 12.227811,-43.135088 11.993918,-43.064534 11.974002,-42.958336" />
      <path d="M 11.974002,-42.958336 Q 11.911249,-42.639012 11.78125,-42.325812" />
      <path d="M 11.78125,-42.325812 Q 11.774942,-42.309985 11.774955,-42.29383" />
      <path d="M 11.774955,-42.29383 C 11.773596,-42.193375 11.95917,-42.097375 12.168039,-42.038296 C 12.380992,-41.977374 12.60513,-41.945483 12.829605,-41.92494" />
      <line x1="12.829605" y1="-43.172379" x2="12.829605" y2="-41.92494" />
      <path d="M 12.829605,-41.92494 C 13.27212,-41.836072 13.8017,-41.605709 14.225795,-41.351601 C 14.658793,-41.092708 14.999855,-40.820171 15.318258,-40.50172" />
      <line x1="15.318258" y1="-43.594435" x2="15.318258" y2="-40.50172" />
      <path d="M 15.318258,-40.50172 Q 15.137558,-40.264432 14.929122,-40.03404" />
      <path d="M 14.929122,-40.03404 C 14.601848,-39.994464 14.294251,-39.966083 13.982521,-39.947588 C 13.671591,-39.928805 13.357185,-39.921484 13.039303,-39.925626 C 12.410215,-39.933364 11.744545,-40.000169 11.331196,-40.124089" />
      <path d="M 11.331196,-40.124089 C 11.14621,-40.207149 10.942368,-40.28265 10.70377,-40.329476 C 10.470967,-40.376284 10.203873,-40.379109 10.089488,-40.292582" />
      <path d="M 10.089488,-40.292582 Q 9.743059,-40.033191 9.343994,-39.797482" />
      <path d="M 9.343994,-39.797482 Q 9.266353,-39.749163 9.267168,-39.677423" />
      <path d="M 9.267168,-39.677423 C 9.267252,-39.584082 9.362045,-39.478863 9.479254,-39.39187 C 9.599803,-39.30511 9.735125,-39.229081 9.885222,-39.163784" />
      <line x1="9.885222" y1="-40.144884" x2="9.885222" y2="-39.163784" />
      <path d="M 9.885222,-39.163784 C 10.168137,-38.978348 10.405683,-38.662378 10.543545,-38.347487 C 10.684372,-38.027686 10.741202,-37.713562 10.741659,-37.382986" />
      <path d="M 10.741659,-37.382986 L 10.738651,-37.251052" />
      <path d="M 10.738651,-37.251052 Q 10.365115,-37.094942 9.973866,-36.952386" />
      <path d="M 9.973866,-36.952386 C 9.654238,-37.007561 9.361891,-37.067053 9.075008,-37.136237 C 8.788554,-37.204953 8.509575,-37.284545 8.23807,-37.375014 C 7.70034,-37.553655 7.184959,-37.793448 6.940338,-38.013741" />
      <path d="M 6.940338,-38.013741 C 6.856109,-38.136232 6.748637,-38.257332 6.584837,-38.363097 C 6.426038,-38.467262 6.197312,-38.54271 6.019105,-38.499038" />
      <path d="M 6.019105,-38.499038 Q 5.481827,-38.369084 4.920626,-38.274025" />
      <path d="M 4.920626,-38.274025 C 4.736636,-38.243401 4.654205,-38.107795 4.657605,-37.974198" />
      <path d="M 4.657605,-37.974198 C 4.659359,-37.83366 4.724801,-37.70155 4.809704,-37.5773" />
      <line x1="4.809704" y1="-38.237431" x2="4.809704" y2="-37.5773" />
      <path d="M 4.809704,-37.5773 Q 4.837687,-37.486429 4.837575,-37.378223" />
      <path d="M 4.837575,-37.378223 C 4.837813,-37.11209 4.712079,-36.796661 4.5277,-36.511715 C 4.34039,-36.222492 4.104387,-35.961363 3.799234,-35.687569" />
      <path d="M 3.799234,-35.687569 Q 3.33295,-35.654468 2.863723,-35.637945" />
      <path d="M 2.863723,-35.637945 C 2.415826,-35.905826 2.054733,-36.17054 1.747054,-36.478373 C 1.444769,-36.780051 1.217772,-37.128579 1.207424,-37.386218" />
      <line x1="1.207424" y1="-37.816291" x2="1.207424" y2="-37.386218" />
      <path d="M 1.207424,-37.386218 Q 1.244035,-37.500231 1.245681,-37.617918" />
      <path d="M 1.245681,-37.617918 C 1.245703,-37.712369 1.223528,-37.81329 1.159948,-37.899161 C 1.097743,-37.984676 0.988814,-38.050458 0.853511,-38.058285" />
      <path d="M 0.853511,-38.058285 Q 0.269345,-38.092588 -0.303619,-38.16365" />
      <path d="M -0.303619,-38.16365 C -0.493861,-38.187777 -0.691782,-38.089698 -0.81098,-37.970786 C -0.934523,-37.849779 -0.997395,-37.719644 -1.036968,-37.590585" />
      <path d="M -1.036968,-37.590585 C -1.19954,-37.348693 -1.620963,-37.059207 -2.085825,-36.827384 C -2.320444,-36.710067 -2.566223,-36.602639 -2.823163,-36.505099 C -3.080358,-36.407055 -3.346326,-36.317946 -3.640583,-36.230208" />
      <path d="M -3.640583,-36.230208 Q -4.074674,-36.328985 -4.49615,-36.442922" />
      <path d="M -4.49615,-36.442922 C -4.626414,-36.765875 -4.69545,-37.063903 -4.696767,-37.381152" />
      <path d="M -4.696767,-37.381152 C -4.697906,-37.572376 -4.668628,-37.759325 -4.608935,-37.941999 C -4.548676,-38.121555 -4.453537,-38.287414 -4.331416,-38.409663" />
      <line x1="-4.331416" y1="-39.216435" x2="-4.331416" y2="-38.409663" />
      <path d="M -4.331416,-38.409663 C -4.219852,-38.481794 -4.122482,-38.560941 -4.039306,-38.647103 C -3.958324,-38.733513 -3.896268,-38.832191 -3.896073,-38.922036" />
      <path d="M -3.896073,-38.922036 C -3.895433,-38.991732 -3.936323,-39.053628 -4.023179,-39.088421" />
      <path d="M -4.023179,-39.088421 Q -4.497704,-39.27779 -4.928906,-39.495932" />
      <path d="M -4.928906,-39.495932 C -5.071592,-39.568822 -5.332708,-39.537978 -5.544704,-39.467577 C -5.76238,-39.396548 -5.935863,-39.301031 -6.088183,-39.200079" />
      <path d="M -6.088183,-39.200079 C -6.450232,-39.035028 -7.079985,-38.899508 -7.694615,-38.825797 C -8.005109,-38.788323 -8.316223,-38.762463 -8.627959,-38.748217 C -8.940377,-38.733603 -9.252219,-38.729126 -9.587307,-38.733568" />
      <path d="M -9.587307,-38.733568 Q -9.87289,-38.937755 -10.133681,-39.151624" />
      <line x1="-10.133681" y1="-40.303223" x2="-10.133681" y2="-39.151624" />
      <path d="M -10.133681,-39.151624 C -9.933228,-39.497597 -9.69439,-39.800895 -9.360531,-40.100465 C -9.033728,-40.394405 -8.595055,-40.676129 -8.192054,-40.809847" />
      <line x1="-8.192054" y1="-40.810433" x2="-8.192054" y2="-40.809847" />
      <path d="M -8.192054,-40.809847 C -7.989594,-40.851397 -7.792664,-40.902681 -7.611684,-40.97811 C -7.43409,-41.05176 -7.280848,-41.154872 -7.281463,-41.251892" />
      <path d="M -7.281463,-41.251892 Q -7.281359,-41.284257 -7.304259,-41.313422" />
      <path d="M -7.304259,-41.313422 Q -7.541996,-41.607116 -7.715895,-41.913886" />
      <path d="M -7.715895,-41.913886 C -7.772792,-42.01601 -8.027138,-42.060666 -8.275128,-42.057638 C -8.52861,-42.055619 -8.766219,-42.020315 -8.990472,-41.97452" />
      <path d="M -8.990472,-41.97452 C -9.220592,-41.953 -9.506929,-41.954937 -9.807249,-41.97633 C -10.108181,-41.997615 -10.421567,-42.037608 -10.724036,-42.089445 C -11.027209,-42.141854 -11.320296,-42.204491 -11.603297,-42.277356 C -11.887227,-42.35009 -12.161384,-42.431444 -12.447516,-42.526875" />
      <path d="M -12.447516,-42.526875 Q -12.508071,-42.781761 -12.538298,-43.038255" />
      <line x1="-12.538298" y1="-43.25213" x2="-12.538298" y2="-43.038255" />
      <path d="M -12.538298,-43.038255 C -12.048241,-43.28309 -11.563977,-43.480475 -11.000832,-43.648662 C -10.72224,-43.731321 -10.428767,-43.803505 -10.140937,-43.856021 C -9.853744,-43.908578 -9.573432,-43.940573 -9.340036,-43.943641" />
      <line x1="-9.340036" y1="-44.08761" x2="-9.340036" y2="-43.943641" />
      <path d="M -9.340036,-43.943641 C -9.103859,-43.922269 -8.858266,-43.912596 -8.608803,-43.937256 C -8.364375,-43.960349 -8.130481,-44.030903 -8.110566,-44.137101" />
      <line x1="-8.110566" y1="-44.987421" x2="-8.110566" y2="-44.137101" />
      <path d="M -8.110566,-44.137101 Q -8.047813,-44.456425 -7.917813,-44.769625" />
      <line x1="-7.917813" y1="-44.834373" x2="-7.917813" y2="-44.769625" />
      <path d="M -7.917813,-44.769625 Q -7.911505,-44.785452 -7.911519,-44.801607" />
      <path d="M -7.911519,-44.801607 C -7.910159,-44.902062 -8.095734,-44.998063 -8.304602,-45.057142 C -8.517555,-45.118063 -8.741693,-45.149954 -8.966169,-45.170497" />
      <path d="M -8.966169,-45.170497 C -9.408683,-45.259365 -9.938263,-45.489728 -10.362358,-45.743836 C -10.795356,-46.002729 -11.136418,-46.275266 -11.454822,-46.593717" />
      <line x1="-11.454822" y1="-50.780582" x2="-11.454822" y2="-46.593717" />
      <path d="M -11.454822,-50.780582 Q -11.274122,-51.017869 -11.065686,-51.248262" />
      <path d="M -11.454822,-46.593717 Q -11.274122,-46.831005 -11.065686,-47.061397" />
      <line x1="-11.065686" y1="-51.248262" x2="-11.065686" y2="-47.061397" />
      <path d="M -11.065686,-51.248262 C -10.738412,-51.287838 -10.430814,-51.316219 -10.119084,-51.334714 C -9.808154,-51.353497 -9.493749,-51.360818 -9.175867,-51.356676 C -8.546778,-51.348938 -7.881108,-51.282133 -7.46776,-51.158213" />
      <path d="M -11.065686,-47.061397 C -10.738412,-47.100973 -10.430814,-47.129354 -10.119084,-47.147849 C -9.808154,-47.166632 -9.493749,-47.173953 -9.175867,-47.169811 C -8.546778,-47.162073 -7.881108,-47.095268 -7.46776,-46.971348" />
      <line x1="-7.46776" y1="-51.158213" x2="-7.46776" y2="-46.971348" />
      <path d="M -7.46776,-51.158213 C -7.292302,-51.0794 -7.101552,-51.008181 -6.878223,-50.960455" />
      <path d="M -7.46776,-46.971348 C -7.282773,-46.888288 -7.078931,-46.812787 -6.840333,-46.765961 C -6.60753,-46.719153 -6.340437,-46.716329 -6.226051,-46.802856" />
      <line x1="-6.226051" y1="-48.094583" x2="-6.226051" y2="-46.802856" />
      <path d="M -6.226051,-46.802856 Q -5.879623,-47.062246 -5.480558,-47.297955" />
      <line x1="-5.480558" y1="-47.581082" x2="-5.480558" y2="-47.297955" />
      <path d="M -5.480558,-47.297955 Q -5.402917,-47.346274 -5.403732,-47.418014" />
      <path d="M -5.403732,-47.418014 C -5.403815,-47.511355 -5.498609,-47.616574 -5.615817,-47.703567 C -5.736366,-47.790327 -5.871689,-47.866356 -6.021785,-47.931653" />
      <path d="M -6.878223,-53.899316 L -6.875215,-54.03125" />
      <path d="M -6.021785,-47.931653 C -6.304701,-48.117089 -6.542247,-48.433059 -6.680108,-48.74795 C -6.820935,-49.067751 -6.877765,-49.381875 -6.878223,-49.712451" />
      <path d="M -6.878223,-49.712451 L -6.875215,-49.844386" />
      <line x1="-6.875215" y1="-54.03125" x2="-6.875215" y2="-49.844386" />
      <path d="M -6.875215,-54.03125 Q -6.501678,-54.18736 -6.11043,-54.329916" />
      <path d="M -6.875215,-49.844386 Q -6.501678,-50.000495 -6.11043,-50.143051" />
      <line x1="-6.11043" y1="-54.329916" x2="-6.11043" y2="-50.143051" />
      <path d="M -6.11043,-54.329916 C -5.790802,-54.274741 -5.498454,-54.215249 -5.211572,-54.146065 C -4.925118,-54.077349 -4.646138,-53.997757 -4.374633,-53.907288 C -3.836904,-53.728647 -3.321523,-53.488854 -3.076902,-53.268561" />
      <path d="M -6.11043,-50.143051 C -5.790802,-50.087876 -5.498454,-50.028384 -5.211572,-49.9592 C -4.925118,-49.890484 -4.646138,-49.810892 -4.374633,-49.720423 C -3.836904,-49.541782 -3.321523,-49.301989 -3.076902,-49.081696" />
      <line x1="-3.076902" y1="-53.268561" x2="-3.076902" y2="-49.081696" />
      <path d="M -3.076902,-53.268561 C -2.992672,-53.14607 -2.8852,-53.02497 -2.7214,-52.919205 C -2.562601,-52.81504 -2.333875,-52.739592 -2.155669,-52.783263" />
      <path d="M -3.076902,-49.081696 C -2.992672,-48.959205 -2.8852,-48.838105 -2.7214,-48.73234 C -2.562601,-48.628175 -2.333875,-48.552727 -2.155669,-48.596399" />
      <line x1="-2.155669" y1="-52.783263" x2="-2.155669" y2="-48.596399" />
      <path d="M -2.155669,-52.783263 Q -1.61839,-52.913218 -1.057189,-53.008277" />
      <path d="M -2.155669,-48.596399 Q -1.61839,-48.726353 -1.057189,-48.821412" />
      <line x1="-1.057189" y1="-53.008277" x2="-1.057189" y2="-48.821412" />
      <path d="M -1.057189,-53.008277 Q -1.012181,-53.016168 -0.974138,-53.03188" />
      <path d="M -1.057189,-48.821412 C -0.873199,-48.852036 -0.790769,-48.987642 -0.794169,-49.121239" />
      <path d="M -0.794169,-49.121239 C -0.795923,-49.261777 -0.861364,-49.393887 -0.946267,-49.518137" />
      <path d="M -0.974138,-53.904079 C -0.974377,-54.170212 -0.848643,-54.485641 -0.664264,-54.770587 C -0.476953,-55.05981 -0.240951,-55.320939 0.064203,-55.594733" />
      <path d="M -0.946267,-49.518137 Q -0.974251,-49.609008 -0.974138,-49.717214" />
      <path d="M -0.974138,-49.717214 C -0.974377,-49.983347 -0.848643,-50.298776 -0.664264,-50.583722 C -0.476953,-50.872945 -0.240951,-51.134074 0.064203,-51.407868" />
      <line x1="0.064203" y1="-55.594733" x2="0.064203" y2="-51.407868" />
      <path d="M 0.064203,-55.594733 Q 0.530487,-55.627833 0.999714,-55.644357" />
      <path d="M 0.064203,-51.407868 Q 0.530487,-51.440969 0.999714,-51.457492" />
      <line x1="0.999714" y1="-55.644357" x2="0.999714" y2="-51.457492" />
      <path d="M 0.999714,-55.644357 C 1.447611,-55.376476 1.808704,-55.111762 2.116383,-54.803929 C 2.418668,-54.502251 2.645665,-54.153723 2.656012,-53.896084" />
      <path d="M 0.999714,-51.457492 C 1.447611,-51.189611 1.808704,-50.924897 2.116383,-50.617064 C 2.418668,-50.315386 2.645665,-49.966858 2.656012,-49.709219" />
      <line x1="2.656012" y1="-53.896084" x2="2.656012" y2="-49.709219" />
      <path d="M 2.656012,-53.466011 C 2.705298,-53.344083 2.831194,-53.234033 3.009926,-53.224017" />
      <path d="M 2.656012,-49.709219 Q 2.619402,-49.595206 2.617756,-49.477519" />
      <path d="M 2.617756,-49.477519 C 2.617733,-49.383068 2.639908,-49.282148 2.703489,-49.196276 C 2.765694,-49.110761 2.874623,-49.044979 3.009926,-49.037152" />
      <line x1="3.009926" y1="-53.224017" x2="3.009926" y2="-49.037152" />
      <path d="M 3.009926,-53.224017 Q 3.594091,-53.189714 4.167055,-53.118652" />
      <path d="M 3.009926,-49.037152 Q 3.594091,-49.002849 4.167055,-48.931787" />
      <line x1="4.167055" y1="-53.118652" x2="4.167055" y2="-48.931787" />
      <path d="M 4.167055,-53.118652 C 4.357297,-53.094525 4.555218,-53.192604 4.674416,-53.311516 C 4.797959,-53.432523 4.860831,-53.562658 4.900405,-53.691717" />
      <path d="M 4.167055,-48.931787 C 4.357297,-48.90766 4.555218,-49.005739 4.674416,-49.124651 C 4.797959,-49.245658 4.860831,-49.375793 4.900405,-49.504852" />
      <line x1="4.900405" y1="-53.691717" x2="4.900405" y2="-49.504852" />
      <path d="M 4.900405,-53.691717 C 5.062977,-53.933609 5.4844,-54.223095 5.949262,-54.454918 C 6.18388,-54.572235 6.42966,-54.679663 6.6866,-54.777202 C 6.943795,-54.875247 7.209763,-54.964356 7.50402,-55.052094" />
      <path d="M 4.900405,-49.504852 C 5.062977,-49.746744 5.4844,-50.03623 5.949262,-50.268053 C 6.18388,-50.38537 6.42966,-50.492798 6.6866,-50.590338 C 6.943795,-50.688382 7.209763,-50.777491 7.50402,-50.865229" />
      <line x1="7.50402" y1="-55.052094" x2="7.50402" y2="-50.865229" />
      <path d="M 7.50402,-55.052094 Q 7.938111,-54.953317 8.359587,-54.83938" />
      <path d="M 7.50402,-50.865229 Q 7.938111,-50.766453 8.359587,-50.652515" />
      <line x1="8.359587" y1="-54.83938" x2="8.359587" y2="-50.652515" />
      <path d="M 8.359587,-54.83938 C 8.489851,-54.516427 8.558887,-54.218399 8.560203,-53.90115" />
      <path d="M 8.359587,-50.652515 C 8.489851,-50.329562 8.558887,-50.031534 8.560203,-49.714285" />
      <path d="M 8.560203,-49.714285 C 8.561342,-49.523061 8.532065,-49.336112 8.472372,-49.153438 C 8.412113,-48.973882 8.316973,-48.808023 8.194852,-48.685774" />
      <path d="M 8.194852,-48.685774 C 8.083288,-48.613643 7.985918,-48.534496 7.902742,-48.448334 C 7.82176,-48.361924 7.759704,-48.263246 7.759509,-48.173401" />
      <path d="M 7.759509,-48.173401 C 7.75887,-48.103705 7.799759,-48.041809 7.886615,-48.007016" />
      <line x1="7.886615" y1="-48.430647" x2="7.886615" y2="-48.007016" />
      <path d="M 8.560203,-51.900234 L 8.792342,-51.78637" />
      <path d="M 7.886615,-48.007016 Q 8.361141,-47.817647 8.792342,-47.599505" />
      <line x1="8.792342" y1="-51.78637" x2="8.792342" y2="-47.599505" />
      <path d="M 8.792342,-51.78637 C 8.935028,-51.71348 9.196145,-51.744323 9.408141,-51.814725 C 9.625817,-51.885754 9.799299,-51.981271 9.95162,-52.082223" />
      <path d="M 8.792342,-47.599505 C 8.935028,-47.526615 9.196145,-47.557459 9.408141,-47.62786 C 9.625817,-47.698889 9.799299,-47.794406 9.95162,-47.895358" />
      <line x1="9.95162" y1="-52.082223" x2="9.95162" y2="-47.895358" />
      <path d="M 9.95162,-52.082223 C 10.313669,-52.247274 10.943421,-52.382794 11.558051,-52.456505 C 11.868545,-52.493979 12.17966,-52.519839 12.491395,-52.534085 C 12.803814,-52.548699 13.115655,-52.553176 13.450743,-52.548734" />
      <path d="M 9.95162,-47.895358 C 10.313669,-48.060409 10.943421,-48.19593 11.558051,-48.269641 C 11.868545,-48.307114 12.17966,-48.332974 12.491395,-48.34722 C 12.803814,-48.361834 13.115655,-48.366311 13.450743,-48.361869" />
      <line x1="13.450743" y1="-52.548734" x2="13.450743" y2="-48.361869" />
      <path d="M 13.450743,-52.548734 Q 13.736327,-52.344547 13.997117,-52.130678" />
      <path d="M 13.450743,-48.361869 Q 13.736327,-48.157683 13.997117,-47.943814" />
      <line x1="13.997117" y1="-52.130678" x2="13.997117" y2="-47.943814" />
      <path d="M 13.997117,-47.943814 C 13.796665,-47.59784 13.557826,-47.294543 13.223968,-46.994972 C 12.897164,-46.701032 12.458491,-46.419308 12.055491,-46.28559" />
      <path d="M 12.055491,-46.28559 C 11.85303,-46.24404 11.6561,-46.192756 11.47512,-46.117327 C 11.297527,-46.043677 11.144285,-45.940565 11.144899,-45.843545" />
      <path d="M 11.144899,-45.843545 Q 11.144796,-45.81118 11.167695,-45.782015" />
      <line x1="-8.904032" y1="-45.164549" x2="-8.904032" y2="-45.161194" />
      <line x1="-8.741216" y1="-45.145369" x2="-8.741216" y2="-44.244039" />
      <line x1="-8.904032" y1="-45.161194" x2="-8.741216" y2="-44.244039" />
      <line x1="-13.43814" y1="-49.987074" x2="-13.43814" y2="-45.800209" />
      <line x1="-11.454822" y1="-49.707555" x2="-13.43814" y2="-49.987074" />
      <line x1="-8.904032" y1="-45.161194" x2="-13.43814" y2="-45.800209" />
      <line x1="-13.505486" y1="-50.366441" x2="-13.505486" y2="-46.179576" />
      <line x1="-13.43814" y1="-49.987074" x2="-13.505486" y2="-50.366441" />
      <line x1="-13.43814" y1="-45.800209" x2="-13.505486" y2="-46.179576" />
      <line x1="-15.496136" y1="-50.260847" x2="-15.496136" y2="-46.073982" />
      <line x1="-13.505486" y1="-50.366441" x2="-15.496136" y2="-50.260847" />
      <line x1="-13.505486" y1="-46.179576" x2="-15.496136" y2="-46.073982" />
      <line x1="8.778552" y1="90.667296" x2="-15.496136" y2="-46.073982" />
      <line x1="10.769202" y1="90.164742" x2="10.769202" y2="90.561702" />
      <line x1="8.778552" y1="90.667296" x2="10.769202" y2="90.561702" />
      <line x1="10.701855" y1="90.182335" x2="10.769202" y2="90.561702" />
      <line x1="14.926604" y1="84.891843" x2="14.926604" y2="89.078707" />
      <line x1="14.926604" y1="89.078707" x2="10.701855" y2="90.182335" />
      <line x1="14.763788" y1="83.974687" x2="14.763788" y2="88.161552" />
      <line x1="14.763788" y1="83.974687" x2="14.926604" y2="84.891843" />
      <line x1="14.763788" y1="88.161552" x2="14.926604" y2="89.078707" />
      <line x1="10.229681" y1="86.728618" x2="10.229681" y2="87.522537" />
      <line x1="14.763788" y1="83.974687" x2="14.319737" y2="83.912104" />
      <line x1="14.763788" y1="88.161552" x2="10.229681" y2="87.522537" />
      <line x1="10.094988" y1="86.763803" x2="10.229681" y2="87.522537" />
      <line x1="14.319737" y1="81.473311" x2="14.319737" y2="85.660175" />
      <line x1="14.319737" y1="85.660175" x2="10.094988" y2="86.763803" />
      <line x1="14.156921" y1="80.556155" x2="14.156921" y2="84.74302" />
      <line x1="14.156921" y1="80.556155" x2="14.319737" y2="81.473311" />
      <line x1="14.156921" y1="84.74302" x2="14.319737" y2="85.660175" />
      <line x1="9.622813" y1="83.310086" x2="9.622813" y2="84.104005" />
      <line x1="14.156921" y1="80.556155" x2="13.71287" y2="80.493572" />
      <line x1="14.156921" y1="84.74302" x2="9.622813" y2="84.104005" />
      <line x1="9.488121" y1="83.345271" x2="9.622813" y2="84.104005" />
      <line x1="13.71287" y1="78.054779" x2="13.71287" y2="82.241644" />
      <line x1="13.71287" y1="82.241644" x2="9.488121" y2="83.345271" />
      <line x1="13.550054" y1="77.137623" x2="13.550054" y2="81.324488" />
      <line x1="13.550054" y1="77.137623" x2="13.71287" y2="78.054779" />
      <line x1="13.550054" y1="81.324488" x2="13.71287" y2="82.241644" />
      <line x1="9.015946" y1="79.891554" x2="9.015946" y2="80.685473" />
      <line x1="13.550054" y1="77.137623" x2="13.106003" y2="77.075041" />
      <line x1="13.550054" y1="81.324488" x2="9.015946" y2="80.685473" />
      <line x1="8.881254" y1="79.926739" x2="9.015946" y2="80.685473" />
      <line x1="13.106003" y1="74.636247" x2="13.106003" y2="78.823112" />
      <line x1="13.106003" y1="78.823112" x2="8.881254" y2="79.926739" />
      <line x1="12.943187" y1="73.719091" x2="12.943187" y2="77.905956" />
      <line x1="12.943187" y1="73.719091" x2="13.106003" y2="74.636247" />
      <line x1="12.943187" y1="77.905956" x2="13.106003" y2="78.823112" />
      <line x1="8.409079" y1="76.473022" x2="8.409079" y2="77.266941" />
      <line x1="12.943187" y1="73.719091" x2="12.499136" y2="73.656509" />
      <line x1="12.943187" y1="77.905956" x2="8.409079" y2="77.266941" />
      <line x1="8.274387" y1="76.508207" x2="8.409079" y2="77.266941" />
      <line x1="12.499136" y1="71.217715" x2="12.499136" y2="75.40458" />
      <line x1="12.499136" y1="75.40458" x2="8.274387" y2="76.508207" />
      <line x1="12.33632" y1="70.300559" x2="12.33632" y2="74.487424" />
      <line x1="12.33632" y1="70.300559" x2="12.499136" y2="71.217715" />
      <line x1="12.33632" y1="74.487424" x2="12.499136" y2="75.40458" />
      <line x1="7.802212" y1="73.05449" x2="7.802212" y2="73.848409" />
      <line x1="12.33632" y1="70.300559" x2="11.892268" y2="70.237977" />
      <line x1="12.33632" y1="74.487424" x2="7.802212" y2="73.848409" />
      <line x1="7.667519" y1="73.089676" x2="7.802212" y2="73.848409" />
      <line x1="11.892268" y1="67.799183" x2="11.892268" y2="71.986048" />
      <line x1="11.892268" y1="71.986048" x2="7.667519" y2="73.089676" />
      <line x1="11.729452" y1="66.882027" x2="11.729452" y2="71.068892" />
      <line x1="11.729452" y1="66.882027" x2="11.892268" y2="67.799183" />
      <line x1="11.729452" y1="71.068892" x2="11.892268" y2="71.986048" />
      <line x1="7.195345" y1="69.635958" x2="7.195345" y2="70.429877" />
      <line x1="11.729452" y1="66.882027" x2="11.285401" y2="66.819445" />
      <line x1="11.729452" y1="71.068892" x2="7.195345" y2="70.429877" />
      <line x1="7.060652" y1="69.671144" x2="7.195345" y2="70.429877" />
      <line x1="11.285401" y1="64.380651" x2="11.285401" y2="68.567516" />
      <line x1="11.285401" y1="68.567516" x2="7.060652" y2="69.671144" />
      <line x1="11.122585" y1="63.463495" x2="11.122585" y2="67.65036" />
      <line x1="11.122585" y1="63.463495" x2="11.285401" y2="64.380651" />
      <line x1="11.122585" y1="67.65036" x2="11.285401" y2="68.567516" />
      <line x1="6.588477" y1="66.217426" x2="6.588477" y2="67.011345" />
      <line x1="11.122585" y1="63.463495" x2="10.678534" y2="63.400913" />
      <line x1="11.122585" y1="67.65036" x2="6.588477" y2="67.011345" />
      <line x1="6.453785" y1="66.252612" x2="6.588477" y2="67.011345" />
      <line x1="10.678534" y1="60.962119" x2="10.678534" y2="65.148984" />
      <line x1="10.678534" y1="65.148984" x2="6.453785" y2="66.252612" />
      <line x1="10.515718" y1="60.044963" x2="10.515718" y2="64.231828" />
      <line x1="10.515718" y1="60.044963" x2="10.678534" y2="60.962119" />
      <line x1="10.515718" y1="64.231828" x2="10.678534" y2="65.148984" />
      <line x1="5.98161" y1="62.798894" x2="5.98161" y2="63.592813" />
      <line x1="10.515718" y1="60.044963" x2="10.071667" y2="59.982381" />
      <line x1="10.515718" y1="64.231828" x2="5.98161" y2="63.592813" />
      <line x1="5.846918" y1="62.83408" x2="5.98161" y2="63.592813" />
      <line x1="10.071667" y1="57.543587" x2="10.071667" y2="61.730452" />
      <line x1="10.071667" y1="61.730452" x2="5.846918" y2="62.83408" />
      <line x1="9.908851" y1="56.626431" x2="9.908851" y2="60.813296" />
      <line x1="9.908851" y1="56.626431" x2="10.071667" y2="57.543587" />
      <line x1="9.908851" y1="60.813296" x2="10.071667" y2="61.730452" />
      <line x1="5.374743" y1="59.380362" x2="5.374743" y2="60.174281" />
      <line x1="9.908851" y1="56.626431" x2="9.4648" y2="56.563849" />
      <line x1="9.908851" y1="60.813296" x2="5.374743" y2="60.174281" />
      <line x1="5.240051" y1="59.415548" x2="5.374743" y2="60.174281" />
      <line x1="9.4648" y1="54.125055" x2="9.4648" y2="58.31192" />
      <line x1="9.4648" y1="58.31192" x2="5.240051" y2="59.415548" />
      <line x1="9.301984" y1="53.207899" x2="9.301984" y2="57.394764" />
      <line x1="9.301984" y1="53.207899" x2="9.4648" y2="54.125055" />
      <line x1="9.301984" y1="57.394764" x2="9.4648" y2="58.31192" />
      <line x1="4.767876" y1="55.96183" x2="4.767876" y2="56.755749" />
      <line x1="9.301984" y1="53.207899" x2="8.857932" y2="53.145317" />
      <line x1="9.301984" y1="57.394764" x2="4.767876" y2="56.755749" />
      <line x1="4.633183" y1="55.997016" x2="4.767876" y2="56.755749" />
      <line x1="8.857932" y1="50.706523" x2="8.857932" y2="54.893388" />
      <line x1="8.857932" y1="54.893388" x2="4.633183" y2="55.997016" />
      <line x1="8.695116" y1="49.789367" x2="8.695116" y2="53.976232" />
      <line x1="8.695116" y1="49.789367" x2="8.857932" y2="50.706523" />
      <line x1="8.695116" y1="53.976232" x2="8.857932" y2="54.893388" />
      <line x1="4.161009" y1="52.543298" x2="4.161009" y2="53.337217" />
      <line x1="8.695116" y1="49.789367" x2="8.251065" y2="49.726785" />
      <line x1="8.695116" y1="53.976232" x2="4.161009" y2="53.337217" />
      <line x1="4.026316" y1="52.578484" x2="4.161009" y2="53.337217" />
      <line x1="8.251065" y1="47.287991" x2="8.251065" y2="51.474856" />
      <line x1="8.251065" y1="51.474856" x2="4.026316" y2="52.578484" />
      <line x1="8.088249" y1="46.370835" x2="8.088249" y2="50.5577" />
      <line x1="8.088249" y1="46.370835" x2="8.251065" y2="47.287991" />
      <line x1="8.088249" y1="50.5577" x2="8.251065" y2="51.474856" />
      <line x1="3.554141" y1="49.124766" x2="3.554141" y2="49.918686" />
      <line x1="8.088249" y1="46.370835" x2="7.644198" y2="46.308253" />
      <line x1="8.088249" y1="50.5577" x2="3.554141" y2="49.918686" />
      <line x1="3.419449" y1="49.159952" x2="3.554141" y2="49.918686" />
      <line x1="7.644198" y1="43.869459" x2="7.644198" y2="48.056324" />
      <line x1="7.644198" y1="48.056324" x2="3.419449" y2="49.159952" />
      <line x1="7.481382" y1="42.952303" x2="7.481382" y2="47.139168" />
      <line x1="7.481382" y1="42.952303" x2="7.644198" y2="43.869459" />
      <line x1="7.481382" y1="47.139168" x2="7.644198" y2="48.056324" />
      <line x1="2.947274" y1="45.706234" x2="2.947274" y2="46.500154" />
      <line x1="7.481382" y1="42.952303" x2="7.037331" y2="42.889721" />
      <line x1="7.481382" y1="47.139168" x2="2.947274" y2="46.500154" />
      <line x1="2.812582" y1="45.74142" x2="2.947274" y2="46.500154" />
      <line x1="7.037331" y1="40.450927" x2="7.037331" y2="44.637792" />
      <line x1="7.037331" y1="44.637792" x2="2.812582" y2="45.74142" />
      <line x1="6.874515" y1="39.533771" x2="6.874515" y2="43.720636" />
      <line x1="6.874515" y1="39.533771" x2="7.037331" y2="40.450927" />
      <line x1="6.874515" y1="43.720636" x2="7.037331" y2="44.637792" />
      <line x1="2.340407" y1="42.287702" x2="2.340407" y2="43.081622" />
      <line x1="6.874515" y1="39.533771" x2="6.430464" y2="39.471189" />
      <line x1="6.874515" y1="43.720636" x2="2.340407" y2="43.081622" />
      <line x1="2.205715" y1="42.322888" x2="2.340407" y2="43.081622" />
      <line x1="6.430464" y1="37.032395" x2="6.430464" y2="41.21926" />
      <line x1="6.430464" y1="41.21926" x2="2.205715" y2="42.322888" />
      <line x1="6.267648" y1="36.115239" x2="6.267648" y2="40.302104" />
      <line x1="6.267648" y1="36.115239" x2="6.430464" y2="37.032395" />
      <line x1="6.267648" y1="40.302104" x2="6.430464" y2="41.21926" />
      <line x1="1.73354" y1="38.86917" x2="1.73354" y2="39.66309" />
      <line x1="6.267648" y1="36.115239" x2="5.823596" y2="36.052657" />
      <line x1="6.267648" y1="40.302104" x2="1.73354" y2="39.66309" />
      <line x1="1.598847" y1="38.904356" x2="1.73354" y2="39.66309" />
      <line x1="5.823596" y1="33.613863" x2="5.823596" y2="37.800728" />
      <line x1="5.823596" y1="37.800728" x2="1.598847" y2="38.904356" />
      <line x1="5.66078" y1="32.696708" x2="5.66078" y2="36.883572" />
      <line x1="5.66078" y1="32.696708" x2="5.823596" y2="33.613863" />
      <line x1="5.66078" y1="36.883572" x2="5.823596" y2="37.800728" />
      <line x1="1.126673" y1="35.450638" x2="1.126673" y2="36.244558" />
      <line x1="5.66078" y1="32.696708" x2="5.216729" y2="32.634125" />
      <line x1="5.66078" y1="36.883572" x2="1.126673" y2="36.244558" />
      <line x1="0.99198" y1="35.485824" x2="1.126673" y2="36.244558" />
      <line x1="5.216729" y1="30.195331" x2="5.216729" y2="34.382196" />
      <line x1="5.216729" y1="34.382196" x2="0.99198" y2="35.485824" />
      <line x1="5.053913" y1="29.278176" x2="5.053913" y2="33.46504" />
      <line x1="5.053913" y1="29.278176" x2="5.216729" y2="30.195331" />
      <line x1="5.053913" y1="33.46504" x2="5.216729" y2="34.382196" />
      <line x1="0.519805" y1="32.032106" x2="0.519805" y2="32.826026" />
      <line x1="5.053913" y1="29.278176" x2="4.609862" y2="29.215593" />
      <line x1="5.053913" y1="33.46504" x2="0.519805" y2="32.826026" />
      <line x1="0.385113" y1="32.067292" x2="0.519805" y2="32.826026" />
      <line x1="4.609862" y1="26.776799" x2="4.609862" y2="30.963664" />
      <line x1="4.609862" y1="30.963664" x2="0.385113" y2="32.067292" />
      <line x1="4.447046" y1="25.859644" x2="4.447046" y2="30.046509" />
      <line x1="4.447046" y1="25.859644" x2="4.609862" y2="26.776799" />
      <line x1="4.447046" y1="30.046509" x2="4.609862" y2="30.963664" />
      <line x1="-0.087062" y1="28.613575" x2="-0.087062" y2="29.407494" />
      <line x1="4.447046" y1="25.859644" x2="4.002995" y2="25.797061" />
      <line x1="4.447046" y1="30.046509" x2="-0.087062" y2="29.407494" />
      <line x1="-0.221754" y1="28.64876" x2="-0.087062" y2="29.407494" />
      <line x1="4.002995" y1="23.358267" x2="4.002995" y2="27.545132" />
      <line x1="4.002995" y1="27.545132" x2="-0.221754" y2="28.64876" />
      <line x1="3.840179" y1="22.441112" x2="3.840179" y2="26.627977" />
      <line x1="3.840179" y1="22.441112" x2="4.002995" y2="23.358267" />
      <line x1="3.840179" y1="26.627977" x2="4.002995" y2="27.545132" />
      <line x1="-0.693929" y1="25.195043" x2="-0.693929" y2="25.988962" />
      <line x1="3.840179" y1="22.441112" x2="3.396128" y2="22.378529" />
      <line x1="3.840179" y1="26.627977" x2="-0.693929" y2="25.988962" />
      <line x1="-0.828621" y1="25.230228" x2="-0.693929" y2="25.988962" />
      <line x1="3.396128" y1="19.939735" x2="3.396128" y2="24.1266" />
      <line x1="3.396128" y1="24.1266" x2="-0.828621" y2="25.230228" />
      <line x1="3.233312" y1="19.02258" x2="3.233312" y2="23.209445" />
      <line x1="3.233312" y1="19.02258" x2="3.396128" y2="19.939735" />
      <line x1="3.233312" y1="23.209445" x2="3.396128" y2="24.1266" />
      <line x1="-1.300796" y1="21.776511" x2="-1.300796" y2="22.57043" />
      <line x1="3.233312" y1="19.02258" x2="2.789261" y2="18.959997" />
      <line x1="3.233312" y1="23.209445" x2="-1.300796" y2="22.57043" />
      <line x1="-1.435489" y1="21.811696" x2="-1.300796" y2="22.57043" />
      <line x1="2.789261" y1="16.521203" x2="2.789261" y2="20.708068" />
      <line x1="2.789261" y1="20.708068" x2="-1.435489" y2="21.811696" />
      <line x1="2.626445" y1="15.604048" x2="2.626445" y2="19.790913" />
      <line x1="2.626445" y1="15.604048" x2="2.789261" y2="16.521203" />
      <line x1="2.626445" y1="19.790913" x2="2.789261" y2="20.708068" />
      <line x1="-1.907663" y1="18.357979" x2="-1.907663" y2="19.151898" />
      <line x1="2.626445" y1="15.604048" x2="2.182393" y2="15.541465" />
      <line x1="2.626445" y1="19.790913" x2="-1.907663" y2="19.151898" />
      <line x1="-2.042356" y1="18.393164" x2="-1.907663" y2="19.151898" />
      <line x1="2.182393" y1="13.102672" x2="2.182393" y2="17.289536" />
      <line x1="2.182393" y1="17.289536" x2="-2.042356" y2="18.393164" />
      <line x1="2.019577" y1="12.185516" x2="2.019577" y2="16.372381" />
      <line x1="2.019577" y1="12.185516" x2="2.182393" y2="13.102672" />
      <line x1="2.019577" y1="16.372381" x2="2.182393" y2="17.289536" />
      <line x1="-2.51453" y1="14.939447" x2="-2.51453" y2="15.733366" />
      <line x1="2.019577" y1="12.185516" x2="1.575526" y2="12.122933" />
      <line x1="2.019577" y1="16.372381" x2="-2.51453" y2="15.733366" />
      <line x1="-2.649223" y1="14.974632" x2="-2.51453" y2="15.733366" />
      <line x1="1.575526" y1="9.68414" x2="1.575526" y2="13.871004" />
      <line x1="1.575526" y1="13.871004" x2="-2.649223" y2="14.974632" />
      <line x1="1.41271" y1="8.766984" x2="1.41271" y2="12.953849" />
      <line x1="1.41271" y1="8.766984" x2="1.575526" y2="9.68414" />
      <line x1="1.41271" y1="12.953849" x2="1.575526" y2="13.871004" />
      <line x1="-3.121398" y1="11.520915" x2="-3.121398" y2="12.314834" />
      <line x1="1.41271" y1="8.766984" x2="0.968659" y2="8.704401" />
      <line x1="1.41271" y1="12.953849" x2="-3.121398" y2="12.314834" />
      <line x1="-3.25609" y1="11.5561" x2="-3.121398" y2="12.314834" />
      <line x1="0.968659" y1="6.265608" x2="0.968659" y2="10.452473" />
      <line x1="0.968659" y1="10.452473" x2="-3.25609" y2="11.5561" />
      <line x1="0.805843" y1="5.348452" x2="0.805843" y2="9.535317" />
      <line x1="0.805843" y1="5.348452" x2="0.968659" y2="6.265608" />
      <line x1="0.805843" y1="9.535317" x2="0.968659" y2="10.452473" />
      <line x1="-3.728265" y1="8.102383" x2="-3.728265" y2="8.896302" />
      <line x1="0.805843" y1="5.348452" x2="0.361792" y2="5.28587" />
      <line x1="0.805843" y1="9.535317" x2="-3.728265" y2="8.896302" />
      <line x1="-3.862957" y1="8.137568" x2="-3.728265" y2="8.896302" />
      <line x1="0.361792" y1="2.847076" x2="0.361792" y2="7.033941" />
      <line x1="0.361792" y1="7.033941" x2="-3.862957" y2="8.137568" />
      <line x1="0.198976" y1="1.92992" x2="0.198976" y2="6.116785" />
      <line x1="0.198976" y1="1.92992" x2="0.361792" y2="2.847076" />
      <line x1="0.198976" y1="6.116785" x2="0.361792" y2="7.033941" />
      <line x1="-4.335132" y1="4.683851" x2="-4.335132" y2="5.47777" />
      <line x1="0.198976" y1="1.92992" x2="-0.245075" y2="1.867338" />
      <line x1="0.198976" y1="6.116785" x2="-4.335132" y2="5.47777" />
      <line x1="-4.469825" y1="4.719036" x2="-4.335132" y2="5.47777" />
      <line x1="-0.245075" y1="-0.571456" x2="-0.245075" y2="3.615409" />
      <line x1="-0.245075" y1="3.615409" x2="-4.469825" y2="4.719036" />
      <line x1="-0.407891" y1="-1.488612" x2="-0.407891" y2="2.698253" />
      <line x1="-0.407891" y1="-1.488612" x2="-0.245075" y2="-0.571456" />
      <line x1="-0.407891" y1="2.698253" x2="-0.245075" y2="3.615409" />
      <line x1="-4.941999" y1="1.265319" x2="-4.941999" y2="2.059238" />
      <line x1="-0.407891" y1="-1.488612" x2="-0.851943" y2="-1.551194" />
      <line x1="-0.407891" y1="2.698253" x2="-4.941999" y2="2.059238" />
      <line x1="-5.076692" y1="1.300505" x2="-4.941999" y2="2.059238" />
      <line x1="-0.851943" y1="-3.989988" x2="-0.851943" y2="0.196877" />
      <line x1="-0.851943" y1="0.196877" x2="-5.076692" y2="1.300505" />
      <line x1="-1.014759" y1="-4.907144" x2="-1.014759" y2="-0.720279" />
      <line x1="-1.014759" y1="-4.907144" x2="-0.851943" y2="-3.989988" />
      <line x1="-1.014759" y1="-0.720279" x2="-0.851943" y2="0.196877" />
      <line x1="-5.548866" y1="-2.153213" x2="-5.548866" y2="-1.359294" />
      <line x1="-1.014759" y1="-4.907144" x2="-1.45881" y2="-4.969726" />
      <line x1="-1.014759" y1="-0.720279" x2="-5.548866" y2="-1.359294" />
      <line x1="-5.683559" y1="-2.118027" x2="-5.548866" y2="-1.359294" />
      <line x1="-1.45881" y1="-7.40852" x2="-1.45881" y2="-3.221655" />
      <line x1="-1.45881" y1="-3.221655" x2="-5.683559" y2="-2.118027" />
      <line x1="-1.621626" y1="-8.325676" x2="-1.621626" y2="-4.138811" />
      <line x1="-1.621626" y1="-8.325676" x2="-1.45881" y2="-7.40852" />
      <line x1="-1.621626" y1="-4.138811" x2="-1.45881" y2="-3.221655" />
      <line x1="-6.155734" y1="-5.571745" x2="-6.155734" y2="-4.777826" />
      <line x1="-1.621626" y1="-8.325676" x2="-2.065677" y2="-8.388258" />
      <line x1="-1.621626" y1="-4.138811" x2="-6.155734" y2="-4.777826" />
      <line x1="-6.290426" y1="-5.536559" x2="-6.155734" y2="-4.777826" />
      <line x1="-2.065677" y1="-10.827052" x2="-2.065677" y2="-6.640187" />
      <line x1="-2.065677" y1="-6.640187" x2="-6.290426" y2="-5.536559" />
      <line x1="-2.228493" y1="-11.744208" x2="-2.228493" y2="-7.557343" />
      <line x1="-2.228493" y1="-11.744208" x2="-2.065677" y2="-10.827052" />
      <line x1="-2.228493" y1="-7.557343" x2="-2.065677" y2="-6.640187" />
      <line x1="-6.762601" y1="-8.990277" x2="-6.762601" y2="-8.196358" />
      <line x1="-2.228493" y1="-11.744208" x2="-2.672544" y2="-11.80679" />
      <line x1="-2.228493" y1="-7.557343" x2="-6.762601" y2="-8.196358" />
      <line x1="-6.897293" y1="-8.955091" x2="-6.762601" y2="-8.196358" />
      <line x1="-2.672544" y1="-14.245584" x2="-2.672544" y2="-10.058719" />
      <line x1="-2.672544" y1="-10.058719" x2="-6.897293" y2="-8.955091" />
      <line x1="-2.83536" y1="-15.16274" x2="-2.83536" y2="-10.975875" />
      <line x1="-2.83536" y1="-15.16274" x2="-2.672544" y2="-14.245584" />
      <line x1="-2.83536" y1="-10.975875" x2="-2.672544" y2="-10.058719" />
      <line x1="-7.369468" y1="-12.408809" x2="-7.369468" y2="-11.61489" />
      <line x1="-2.83536" y1="-15.16274" x2="-3.279411" y2="-15.225322" />
      <line x1="-2.83536" y1="-10.975875" x2="-7.369468" y2="-11.61489" />
      <line x1="-7.504161" y1="-12.373623" x2="-7.369468" y2="-11.61489" />
      <line x1="-3.279411" y1="-17.664116" x2="-3.279411" y2="-13.477251" />
      <line x1="-3.279411" y1="-13.477251" x2="-7.504161" y2="-12.373623" />
      <line x1="-3.442227" y1="-18.581272" x2="-3.442227" y2="-14.394407" />
      <line x1="-3.442227" y1="-18.581272" x2="-3.279411" y2="-17.664116" />
      <line x1="-3.442227" y1="-14.394407" x2="-3.279411" y2="-13.477251" />
      <line x1="-7.976335" y1="-15.827341" x2="-7.976335" y2="-15.033422" />
      <line x1="-3.442227" y1="-18.581272" x2="-3.886279" y2="-18.643854" />
      <line x1="-3.442227" y1="-14.394407" x2="-7.976335" y2="-15.033422" />
      <line x1="-8.111028" y1="-15.792155" x2="-7.976335" y2="-15.033422" />
      <line x1="-3.886279" y1="-21.082648" x2="-3.886279" y2="-16.895783" />
      <line x1="-3.886279" y1="-16.895783" x2="-8.111028" y2="-15.792155" />
      <line x1="-4.049095" y1="-21.999804" x2="-4.049095" y2="-17.812939" />
      <line x1="-4.049095" y1="-21.999804" x2="-3.886279" y2="-21.082648" />
      <line x1="-4.049095" y1="-17.812939" x2="-3.886279" y2="-16.895783" />
      <line x1="-8.583202" y1="-19.245873" x2="-8.583202" y2="-18.451954" />
      <line x1="-4.049095" y1="-21.999804" x2="-4.493146" y2="-22.062386" />
      <line x1="-4.049095" y1="-17.812939" x2="-8.583202" y2="-18.451954" />
      <line x1="-8.717895" y1="-19.210687" x2="-8.583202" y2="-18.451954" />
      <line x1="-4.493146" y1="-24.50118" x2="-4.493146" y2="-20.314315" />
      <line x1="-4.493146" y1="-20.314315" x2="-8.717895" y2="-19.210687" />
      <line x1="-4.655962" y1="-25.418336" x2="-4.655962" y2="-21.231471" />
      <line x1="-4.655962" y1="-25.418336" x2="-4.493146" y2="-24.50118" />
      <line x1="-4.655962" y1="-21.231471" x2="-4.493146" y2="-20.314315" />
      <line x1="-9.19007" y1="-22.664405" x2="-9.19007" y2="-21.870485" />
      <line x1="-4.655962" y1="-25.418336" x2="-5.100013" y2="-25.480918" />
      <line x1="-4.655962" y1="-21.231471" x2="-9.19007" y2="-21.870485" />
      <line x1="-9.324762" y1="-22.629219" x2="-9.19007" y2="-21.870485" />
      <line x1="-5.100013" y1="-27.919712" x2="-5.100013" y2="-23.732847" />
      <line x1="-5.100013" y1="-23.732847" x2="-9.324762" y2="-22.629219" />
      <line x1="-5.262829" y1="-28.836868" x2="-5.262829" y2="-24.650003" />
      <line x1="-5.262829" y1="-28.836868" x2="-5.100013" y2="-27.919712" />
      <line x1="-5.262829" y1="-24.650003" x2="-5.100013" y2="-23.732847" />
      <line x1="-9.796937" y1="-26.082937" x2="-9.796937" y2="-25.289017" />
      <line x1="-5.262829" y1="-28.836868" x2="-5.70688" y2="-28.89945" />
      <line x1="-5.262829" y1="-24.650003" x2="-9.796937" y2="-25.289017" />
      <line x1="-9.931629" y1="-26.047751" x2="-9.796937" y2="-25.289017" />
      <line x1="-5.70688" y1="-31.338244" x2="-5.70688" y2="-27.151379" />
      <line x1="-5.70688" y1="-27.151379" x2="-9.931629" y2="-26.047751" />
      <line x1="-5.869696" y1="-32.2554" x2="-5.869696" y2="-28.068535" />
      <line x1="-5.869696" y1="-32.2554" x2="-5.70688" y2="-31.338244" />
      <line x1="-5.869696" y1="-28.068535" x2="-5.70688" y2="-27.151379" />
      <line x1="-10.403804" y1="-29.501469" x2="-10.403804" y2="-28.707549" />
      <line x1="-5.869696" y1="-32.2554" x2="-6.313747" y2="-32.317982" />
      <line x1="-5.869696" y1="-28.068535" x2="-10.403804" y2="-28.707549" />
      <line x1="-10.538496" y1="-29.466283" x2="-10.403804" y2="-28.707549" />
      <line x1="-6.313747" y1="-34.756776" x2="-6.313747" y2="-30.569911" />
      <line x1="-6.313747" y1="-30.569911" x2="-10.538496" y2="-29.466283" />
      <line x1="-6.476563" y1="-35.673932" x2="-6.476563" y2="-31.487067" />
      <line x1="-6.476563" y1="-35.673932" x2="-6.313747" y2="-34.756776" />
      <line x1="-6.476563" y1="-31.487067" x2="-6.313747" y2="-30.569911" />
      <line x1="-11.010671" y1="-32.920001" x2="-11.010671" y2="-32.126081" />
      <line x1="-6.476563" y1="-35.673932" x2="-6.920615" y2="-35.736514" />
      <line x1="-6.476563" y1="-31.487067" x2="-11.010671" y2="-32.126081" />
      <line x1="-11.145364" y1="-32.884815" x2="-11.010671" y2="-32.126081" />
      <line x1="-6.920615" y1="-38.175308" x2="-6.920615" y2="-33.988443" />
      <line x1="-6.920615" y1="-33.988443" x2="-11.145364" y2="-32.884815" />
      <line x1="-7.083431" y1="-38.919277" x2="-7.083431" y2="-34.905599" />
      <line x1="-7.053684" y1="-38.924898" x2="-6.920615" y2="-38.175308" />
      <line x1="-7.083431" y1="-34.905599" x2="-6.920615" y2="-33.988443" />
      <line x1="-11.617538" y1="-36.338533" x2="-11.617538" y2="-35.544613" />
      <line x1="-7.083431" y1="-34.905599" x2="-11.617538" y2="-35.544613" />
      <line x1="-11.752231" y1="-36.303347" x2="-11.617538" y2="-35.544613" />
      <line x1="-7.527482" y1="-38.847537" x2="-7.527482" y2="-37.406975" />
      <line x1="-7.527482" y1="-37.406975" x2="-11.752231" y2="-36.303347" />
      <line x1="-7.690298" y1="-38.826325" x2="-7.690298" y2="-38.324131" />
      <line x1="-7.690298" y1="-38.324131" x2="-7.527482" y2="-37.406975" />
      <line x1="-12.224406" y1="-39.757065" x2="-12.224406" y2="-38.963145" />
      <line x1="-7.690298" y1="-38.324131" x2="-12.224406" y2="-38.963145" />
      <line x1="-12.359098" y1="-39.721879" x2="-12.224406" y2="-38.963145" />
      <line x1="-8.134349" y1="-42.053835" x2="-8.134349" y2="-40.825507" />
      <line x1="-8.134349" y1="-40.825507" x2="-12.359098" y2="-39.721879" />
      <line x1="-8.297165" y1="-42.057443" x2="-8.297165" y2="-41.742662" />
      <line x1="-8.297165" y1="-41.742662" x2="-8.134349" y2="-40.825507" />
      <line x1="-12.831273" y1="-43.175596" x2="-12.831273" y2="-42.381677" />
      <line x1="-8.297165" y1="-41.742662" x2="-12.831273" y2="-42.381677" />
      <line x1="-12.965965" y1="-43.140411" x2="-12.831273" y2="-42.381677" />
      <line x1="-8.741216" y1="-44.244039" x2="-12.965965" y2="-43.140411" />
      <path d="M 10.741659,-40.321847 L 10.741659,-37.382986" />
      <path d="M 4.837575,-38.250422 L 4.837575,-37.378223" />
      <path d="M -4.696767,-39.382068 L -4.696767,-37.381152" />
      <path d="M -6.878223,-53.899316 L -6.878223,-49.712451" />
      <path d="M -0.974138,-53.904079 L -0.974138,-49.717214" />
      <path d="M 8.560203,-53.90115 L 8.560203,-49.714285" />
    </g>
  </g>
</svg>