<?xml version='1.0' encoding='utf-8'?>
<svg width="100.089999mm" height="71.215007mm" viewBox="-13.0117 -9.257951 26.0234 18.515902" version="1.1" xmlns="http://www.w3.org/2000/svg">
  <g transform="scale(1,-1)" stroke-linecap="round">
    <g fill="none" stroke="rgb(0,0,0)" stroke-width="0.023400000179994128" id="Visible">
      <path d="M 12.612525,-4.801027 Q 12.809192,-4.768506 12.999234,-4.731191" />
      <path d="M 12.999234,-4.731191 L 13.0,-4.681645" />
      <path d="M 10.632176,4.001249 L 10.631988,4.015359" />
      <path d="M 10.631988,4.015359 Q 10.718792,4.186156 10.760843,4.359022" />
      <path d="M 10.758112,3.946542 L 10.760843,4.359022" />
      <path d="M 11.365663,-5.969975 Q 11.675063,-5.966803 11.963522,-5.950812 Q 12.246803,-5.935272 12.519775,-5.91084" />
      <path d="M 12.519775,-5.91084 L 12.592817,-5.815125" />
      <path d="M 10.760843,4.359022 C 10.767373,4.387732 10.865608,4.408249 10.96967,4.417968 C 11.075294,4.428073 11.182268,4.429721 11.269176,4.429496" />
      <path d="M 11.266288,3.877002 L 11.269176,4.429496" />
      <path d="M 11.269176,4.429496 C 11.517388,4.429811 11.861145,4.458796 12.162168,4.496877 C 12.468934,4.535517 12.735451,4.580611 12.999234,4.632101" />
      <path d="M 12.999234,-4.731191 Q 12.991398,-0.201672 12.999234,4.632101" />
      <path d="M 12.999234,4.632101 L 13.0,4.681646" />
      <path d="M 13.0,4.681646 L 12.999234,4.731192" />
      <path d="M 11.269176,4.933796 C 11.182268,4.933571 11.075294,4.93522 10.96967,4.945325 C 10.865608,4.955044 10.767373,4.975561 10.760843,5.00427" />
      <path d="M 12.999234,4.731192 C 12.735451,4.782681 12.468934,4.827775 12.162168,4.866415 C 11.861145,4.904496 11.517388,4.933481 11.269176,4.933796" />
      <path d="M 11.071052,3.90109 C 10.990289,3.908461 10.8935,3.919139 10.801933,3.937085 C 10.711656,3.95461 10.630211,3.980958 10.630323,4.008373" />
      <path d="M 10.630323,4.008373 L 10.631988,4.015359" />
      <line x1="9.844433" y1="4.064714" x2="10.631988" y2="4.015359" />
      <path d="M 9.963744,4.980372 Q 10.074908,4.519799 9.844433,4.064714" />
      <line x1="10.760843" y1="5.00427" x2="9.963744" y2="4.980372" />
      <path d="M 9.779863,3.03276 L 9.778581,3.071855" />
      <path d="M 9.778581,3.071855 Q 9.988324,3.228943 10.156364,3.392097" />
      <path d="M 10.144582,2.916051 L 10.156364,3.392097" />
      <path d="M 9.348274,-6.86811 L 9.400331,-6.87845" />
      <path d="M 9.400331,-6.87845 C 9.615737,-6.921754 9.954714,-6.957003 10.269636,-6.976872 C 10.590326,-6.997265 10.88535,-7.005002 11.187114,-7.006721" />
      <path d="M 11.187114,-7.006721 L 11.32822,-6.920906" />
      <path d="M 10.156364,3.392097 C 10.183835,3.419236 10.293845,3.430126 10.401525,3.430057 C 10.510999,3.430219 10.615543,3.422089 10.699324,3.413974" />
      <path d="M 10.683516,2.75112 L 10.699324,3.413974" />
      <path d="M 10.699324,3.413974 C 10.939311,3.391721 11.292719,3.388479 11.611556,3.397906 C 11.936351,3.407351 12.227027,3.426689 12.519775,3.452452" />
      <path d="M 12.519775,-5.91084 Q 12.40007,-1.375425 12.519775,3.452452" />
      <path d="M 12.519775,3.452452 L 12.592817,3.548166" />
      <path d="M 12.592817,-5.815125 Q 12.697383,-0.985824 12.592817,3.548166" />
      <path d="M 12.592817,3.548166 C 12.375976,3.621873 12.15178,3.689651 11.883949,3.754852 C 11.621253,3.818993 11.310575,3.87823 11.071052,3.90109" />
      <path d="M 6.688668,-7.658993 L 6.959351,-7.581496" />
      <path d="M 6.959351,-7.581496 C 7.021787,-7.562816 7.132566,-7.572699 7.225721,-7.591663 C 7.321073,-7.612405 7.399406,-7.634475 7.460721,-7.657873" />
      <path d="M 7.460721,-7.657873 C 7.636867,-7.719278 7.938311,-7.784131 8.227856,-7.831942 C 8.522587,-7.880784 8.801855,-7.915069 9.09207,-7.944152" />
      <path d="M 9.09207,-7.944152 L 9.291623,-7.874084" />
      <path d="M 3.701925,-8.244048 Q 4.151449,-8.186452 4.584688,-8.115134" />
      <path d="M 4.584688,-8.115134 C 4.658765,-8.102765 4.758485,-8.122378 4.834487,-8.149162 C 4.911301,-8.177862 4.970697,-8.206299 5.012675,-8.234472" />
      <path d="M 5.012675,-8.234472 C 5.137557,-8.309792 5.380925,-8.399829 5.625362,-8.472325 C 5.874048,-8.546287 6.118529,-8.604783 6.377416,-8.659249" />
      <path d="M 6.377416,-8.659249 L 6.621818,-8.609704" />
      <path d="M 0.918834,-8.46003 Q 1.411156,-8.445265 1.897586,-8.414786" />
      <path d="M 1.897586,-8.414786 C 1.978256,-8.40957 2.060121,-8.437577 2.113791,-8.470355 C 2.166832,-8.505058 2.203243,-8.537923 2.223024,-8.568952" />
      <path d="M 2.223024,-8.568952 C 2.288131,-8.653054 2.456838,-8.76214 2.639509,-8.854379 C 2.825202,-8.948421 3.018234,-9.027141 3.228152,-9.103279" />
      <path d="M 3.228152,-9.103279 L 3.500747,-9.077632" />
      <path d="M 3.500747,-9.077632 C 3.590556,-8.951846 3.655861,-8.822262 3.668723,-8.678333" />
      <path d="M -1.897586,-8.414786 Q -1.411156,-8.445265 -0.918834,-8.46003" />
      <path d="M -0.918834,-8.46003 Q -0.821722,-8.46634 -0.773361,-8.510192 Q -0.728311,-8.552599 -0.721844,-8.595508" />
      <path d="M -0.718123,-8.638518 L -0.717645,-8.648141" />
      <path d="M -0.717645,-8.648141 C -0.71113,-8.736317 -0.627577,-8.854447 -0.520244,-8.957916 C -0.411429,-9.061136 -0.28505,-9.157158 -0.141106,-9.245981" />
      <path d="M -0.141106,-9.245981 L 0.141106,-9.245981" />
      <path d="M 0.721844,-8.595508 Q 0.728311,-8.552599 0.773361,-8.510192 Q 0.821722,-8.46634 0.918834,-8.46003" />
      <path d="M 0.141106,-9.245981 C 0.28505,-9.157158 0.411429,-9.061136 0.520244,-8.957916 C 0.627577,-8.854447 0.71113,-8.736317 0.717645,-8.648141" />
      <path d="M -4.584688,-8.115134 Q -4.151449,-8.186452 -3.701925,-8.244048" />
      <path d="M -3.668723,-8.678333 C -3.655861,-8.822262 -3.590556,-8.951846 -3.500747,-9.077632" />
      <path d="M -3.500747,-9.077632 L -3.228152,-9.103279" />
      <path d="M -2.223024,-8.568952 C -2.203243,-8.537923 -2.166832,-8.505058 -2.113791,-8.470355 C -2.060121,-8.437577 -1.978256,-8.40957 -1.897586,-8.414786" />
      <path d="M -3.228152,-9.103279 C -3.018234,-9.027141 -2.825202,-8.948421 -2.639509,-8.854379 C -2.456838,-8.76214 -2.288131,-8.653054 -2.223024,-8.568952" />
      <path d="M -6.959351,-7.581496 L -6.688668,-7.658993" />
      <path d="M -6.621818,-8.609704 L -6.377416,-8.659249" />
      <path d="M -5.012675,-8.234472 C -4.970697,-8.206299 -4.911301,-8.177862 -4.834487,-8.149162 C -4.758485,-8.122378 -4.658765,-8.102765 -4.584688,-8.115134" />
      <path d="M -6.377416,-8.659249 C -6.118529,-8.604783 -5.874048,-8.546287 -5.625362,-8.472325 C -5.380925,-8.399829 -5.137557,-8.309792 -5.012675,-8.234472" />
      <path d="M -9.291623,-7.874084 L -9.09207,-7.944152" />
      <path d="M -7.460721,-7.657873 C -7.399406,-7.634475 -7.321073,-7.612405 -7.225721,-7.591663 C -7.132566,-7.572699 -7.021787,-7.562816 -6.959351,-7.581496" />
      <path d="M -9.09207,-7.944152 C -8.801855,-7.915069 -8.522587,-7.880784 -8.227856,-7.831942 C -7.938311,-7.784131 -7.636867,-7.719278 -7.460721,-7.657873" />
      <path d="M -11.32822,-6.920906 L -11.187114,-7.006721" />
      <path d="M -9.400331,-6.87845 L -9.348274,-6.86811" />
      <path d="M -11.187114,-7.006721 C -10.88535,-7.005002 -10.590326,-6.997265 -10.269636,-6.976872 C -9.954714,-6.957003 -9.615737,-6.921754 -9.400331,-6.87845" />
      <path d="M -12.592817,-5.815125 L -12.519775,-5.91084" />
      <path d="M -12.519775,-5.91084 Q -12.246803,-5.935272 -11.963522,-5.950812 Q -11.675063,-5.966803 -11.365663,-5.969975" />
      <path d="M -13.0,-4.681645 L -12.999234,-4.731191" />
      <path d="M -12.999234,-4.731191 Q -12.809192,-4.768506 -12.612525,-4.801027" />
      <path d="M 10.760843,5.00427 Q 10.718792,5.177136 10.631988,5.347933" />
      <path d="M 10.631988,5.347933 L 10.630323,5.354549" />
      <path d="M 10.630323,5.354549 C 10.629477,5.382019 10.710868,5.408492 10.801312,5.426085 C 10.893044,5.444104 10.990111,5.454815 11.071052,5.462202" />
      <path d="M 11.078426,4.937627 L 11.071052,5.462202" />
      <path d="M 11.071052,5.462202 C 11.310575,5.485063 11.621253,5.5443 11.883949,5.60844 C 12.15178,5.673641 12.375976,5.741419 12.592817,5.815126" />
      <path d="M 12.612525,4.801028 Q 12.603831,5.306439 12.592817,5.815126" />
      <path d="M 12.592817,5.815126 L 12.519775,5.910841" />
      <path d="M 10.699324,5.949318 C 10.615543,5.941203 10.510999,5.933074 10.401525,5.933236 C 10.293845,5.933167 10.183835,5.944057 10.156364,5.971195" />
      <path d="M 12.519775,5.910841 C 12.227027,5.936604 11.936351,5.955941 11.611556,5.965386 C 11.292719,5.974813 10.939311,5.971571 10.699324,5.949318" />
      <line x1="9.778581" y1="3.071855" x2="9.054241" y2="3.191099" />
      <path d="M 9.844433,4.064714 C 9.691946,3.763891 9.424029,3.467689 9.054241,3.191099" />
      <path d="M 9.404041,5.875673 Q 9.850914,5.440896 9.963744,4.980372" />
      <path d="M 8.203469,6.689603 C 8.701454,6.439029 9.108512,6.163064 9.404041,5.875673" />
      <path d="M 9.054241,3.191099 C 8.685209,2.914384 8.208085,2.652622 7.647018,2.419062" />
      <path d="M 6.443844,7.366693 C 7.109562,7.169913 7.706169,6.940344 8.203469,6.689603" />
      <path d="M 7.647018,2.419062 C 7.086588,2.185312 6.432773,1.97583 5.718662,1.801216" />
      <path d="M 4.245081,7.860803 C 5.033166,7.731227 5.778663,7.563697 6.443844,7.366693" />
      <path d="M 5.718662,1.801216 C 5.005028,1.626362 4.219079,1.483434 3.40059,1.379667" />
      <path d="M 1.757024,8.138258 C 2.613767,8.084716 3.457351,7.990644 4.245081,7.860803" />
      <path d="M 3.40059,1.379667 C 2.582384,1.275624 1.717861,1.208992 0.850772,1.183142" />
      <path d="M -0.850772,8.18015 C 0.016245,8.206292 0.900426,8.192088 1.757024,8.138258" />
      <path d="M 0.850772,1.183142 C -0.016245,1.157001 -0.900426,1.171205 -1.757024,1.225035" />
      <path d="M -3.40059,7.983626 C -2.582384,8.087669 -1.717861,8.154301 -0.850772,8.18015" />
      <path d="M -1.757024,1.225035 C -2.613767,1.278577 -3.457351,1.372648 -4.245081,1.50249" />
      <path d="M -5.718662,7.562077 C -5.005028,7.736931 -4.219079,7.879858 -3.40059,7.983626" />
      <path d="M -4.245081,1.50249 C -5.033166,1.632066 -5.778663,1.799595 -6.443844,1.996599" />
      <path d="M -7.647018,6.944231 C -7.086588,7.17798 -6.432773,7.387463 -5.718662,7.562077" />
      <path d="M -6.443844,1.996599 C -7.109562,2.193379 -7.706169,2.422949 -8.203469,2.67369" />
      <path d="M -9.054241,6.172194 C -8.685209,6.448909 -8.208085,6.71067 -7.647018,6.944231" />
      <path d="M -8.203469,2.67369 C -8.701454,2.924263 -9.108512,3.200229 -9.404041,3.487619" />
      <path d="M -9.844433,5.298578 C -9.691946,5.599401 -9.424029,5.895603 -9.054241,6.172194" />
      <path d="M -9.404041,3.487619 Q -9.850914,3.922397 -9.963744,4.38292" />
      <path d="M -9.963744,4.38292 Q -10.074908,4.843493 -9.844433,5.298578" />
      <line x1="10.156364" y1="5.971195" x2="9.404041" y2="5.875673" />
      <path d="M 10.118454,2.921578 C 10.048005,2.93474 9.975577,2.95269 9.90117,2.975428 C 9.83061,2.998068 9.768611,3.027322 9.767878,3.053623" />
      <path d="M 9.767878,3.053623 Q 9.767462,3.063324 9.778581,3.071855" />
      <path d="M 8.262568,2.161887 L 8.258779,2.238055" />
      <path d="M 8.258779,2.238055 Q 8.577168,2.37073 8.859746,2.513053" />
      <path d="M 8.834251,1.88628 L 8.859746,2.513053" />
      <path d="M 8.859746,2.513053 C 8.906285,2.536771 9.020574,2.537292 9.124534,2.52744 C 9.231926,2.51607 9.323858,2.501871 9.400331,2.484842" />
      <path d="M 9.400331,-6.87845 L 9.374939,-6.288928" />
      <path d="M 9.337152,0.733532 Q 9.36164,1.605499 9.400331,2.484842" />
      <path d="M 9.400331,2.484842 C 9.615737,2.441538 9.954714,2.406289 10.269636,2.38642 C 10.590326,2.366027 10.88535,2.358289 11.187114,2.356571" />
      <path d="M 11.187114,-7.006721 Q 10.963699,-2.455446 11.187114,2.356571" />
      <path d="M 11.187114,2.356571 L 11.32822,2.442386" />
      <path d="M 11.32822,-6.920906 Q 11.538063,-2.106138 11.32822,2.442386" />
      <path d="M 11.32822,2.442386 C 11.173098,2.533287 11.006502,2.61913 10.795858,2.706449 C 10.589392,2.792277 10.332964,2.877729 10.118454,2.921578" />
      <path d="M 10.156364,5.971195 Q 9.988324,6.134349 9.778581,6.291438" />
      <path d="M 9.778581,6.291438 Q 9.768088,6.299475 9.767877,6.308571" />
      <path d="M 9.767877,6.308571 C 9.766875,6.334933 9.828751,6.364515 9.899674,6.387379 C 9.974532,6.41035 10.047459,6.428462 10.118454,6.441714" />
      <path d="M 10.133124,5.993542 L 10.118454,6.441714" />
      <path d="M 10.118454,6.441714 C 10.332964,6.485563 10.589392,6.571015 10.795858,6.656843 C 11.006502,6.744162 11.173098,6.830005 11.32822,6.920906" />
      <path d="M 11.365663,5.969975 Q 11.348999,6.444135 11.32822,6.920906" />
      <path d="M 11.32822,6.920906 L 11.187114,7.006722" />
      <path d="M 9.400331,6.87845 C 9.323858,6.861421 9.231926,6.847222 9.124534,6.835853 C 9.020574,6.826001 8.906285,6.826522 8.859746,6.850239" />
      <path d="M 11.187114,7.006722 C 10.88535,7.005003 10.590326,6.997265 10.269636,6.976872 C 9.954714,6.957003 9.615737,6.921754 9.400331,6.87845" />
      <path d="M 8.859746,6.850239 Q 8.577168,6.992563 8.258779,7.125238" />
      <path d="M 8.258779,7.125238 Q 8.230703,7.137437 8.230248,7.154898" />
      <path d="M 8.230248,7.154898 C 8.229008,7.180725 8.269964,7.21101 8.318971,7.236427 C 8.370746,7.262115 8.423189,7.283733 8.476301,7.30128" />
      <path d="M 8.490126,7.025451 L 8.476301,7.30128" />
      <path d="M 8.476301,7.30128 C 8.651179,7.363129 8.835881,7.468973 8.972047,7.570639 C 9.111149,7.674126 9.208793,7.772184 9.291623,7.874085" />
      <path d="M 9.348274,6.868111 Q 9.32328,7.369885 9.291623,7.874085" />
      <path d="M 9.291623,7.874085 L 9.09207,7.944153" />
      <path d="M 7.460721,7.657874 C 7.399406,7.634475 7.321073,7.612405 7.225721,7.591664 C 7.132566,7.5727 7.021787,7.562818 6.959351,7.581497" />
      <path d="M 9.09207,7.944153 C 8.801855,7.915069 8.522587,7.880784 8.227856,7.831942 C 7.938311,7.784131 7.636867,7.719278 7.460721,7.657874" />
      <path d="M 6.185053,1.429011 L 6.176155,1.570781" />
      <path d="M 6.176155,1.570781 Q 6.581493,1.670001 6.959351,1.781795" />
      <path d="M 6.959351,-7.581496 Q 6.682391,-2.980602 6.959351,1.781795" />
      <path d="M 6.959351,1.781795 C 7.021787,1.800475 7.132566,1.790593 7.225721,1.771628 C 7.321073,1.750887 7.399406,1.728817 7.460721,1.705418" />
      <path d="M 7.460721,-7.657873 Q 7.17639,-3.062828 7.460721,1.705418" />
      <path d="M 7.460721,1.705418 C 7.636867,1.644014 7.938311,1.579161 8.227856,1.53135 C 8.522587,1.482508 8.801855,1.448223 9.09207,1.419139" />
      <path d="M 9.09207,-7.944152 Q 8.780169,-3.368131 9.09207,1.419139" />
      <path d="M 9.09207,1.419139 L 9.291623,1.489207" />
      <path d="M 9.291623,-7.874084 Q 9.592442,-3.082923 9.291623,1.489207" />
      <path d="M 8.476301,2.062012 C 8.424088,2.079286 8.37241,2.100507 8.321267,2.125675 C 8.272751,2.150597 8.231593,2.180245 8.230252,2.205995" />
      <path d="M 8.230252,2.205995 Q 8.22881,2.22496 8.258779,2.238055" />
      <path d="M 9.291623,1.489207 C 9.208793,1.591108 9.111149,1.689166 8.972047,1.792653 C 8.835881,1.894319 8.651179,2.000163 8.476301,2.062012" />
      <path d="M 6.959351,7.581497 Q 6.581493,7.693291 6.176155,7.792511" />
      <path d="M 6.176155,7.792511 Q 6.118579,7.808274 6.118007,7.840431" />
      <path d="M 6.118007,7.840431 C 6.117253,7.891433 6.196077,7.946226 6.256501,7.982323" />
      <path d="M 6.270164,7.769238 L 6.256501,7.982323" />
      <path d="M 6.256501,7.982323 C 6.379831,8.057957 6.48022,8.176979 6.536806,8.287556 C 6.594886,8.400158 6.616923,8.503748 6.621818,8.609704" />
      <path d="M 6.688668,7.658993 Q 6.658958,8.133564 6.621818,8.609704" />
      <path d="M 6.621818,8.609704 L 6.377416,8.65925" />
      <path d="M 5.012675,8.234473 C 4.970697,8.206299 4.911301,8.177862 4.834487,8.149163 C 4.758485,8.122379 4.658765,8.102766 4.584688,8.115135" />
      <path d="M 6.377416,8.65925 C 6.118529,8.604783 5.874048,8.546287 5.625362,8.472325 C 5.380925,8.39983 5.137557,8.309792 5.012675,8.234473" />
      <path d="M 3.816346,-1.74178 Q 3.776346,-0.308999 3.672637,1.115508" />
      <path d="M 3.672637,1.115508 Q 4.137299,1.174511 4.584688,1.248157" />
      <path d="M 4.584688,-8.115134 Q 4.257642,-3.486319 4.584688,1.248157" />
      <path d="M 4.584688,1.248157 C 4.658765,1.260527 4.758485,1.240914 4.834487,1.21413 C 4.911301,1.18543 4.970697,1.156993 5.012675,1.12882" />
      <path d="M 5.012675,-8.234472 Q 4.674197,-3.610637 5.012675,1.12882" />
      <path d="M 5.012675,1.12882 C 5.137557,1.0535 5.380925,0.963462 5.625362,0.890967 C 5.874048,0.817005 6.118529,0.758509 6.377416,0.704043" />
      <path d="M 6.377416,-8.659249 Q 5.998285,-4.051284 6.377416,0.704043" />
      <path d="M 6.377416,0.704043 L 6.621818,0.753588" />
      <path d="M 6.621818,-8.609704 Q 6.952469,-4.370676 6.694208,-0.256073" />
      <path d="M 6.694208,-0.256073 Q 6.662462,0.249697 6.621818,0.753588" />
      <path d="M 6.256501,1.38097 C 6.197991,1.415956 6.123279,1.46766 6.118018,1.51754" />
      <path d="M 6.118018,1.51754 Q 6.113902,1.553379 6.176155,1.570781" />
      <path d="M 6.621818,0.753588 L 6.619869,0.785091" />
      <path d="M 6.619869,0.785091 C 6.614501,0.883747 6.583858,0.986141 6.527938,1.092272 C 6.470597,1.197761 6.373534,1.309188 6.256501,1.38097" />
      <path d="M 4.584688,8.115135 Q 4.137299,8.188781 3.672637,8.247784" />
      <path d="M 3.672637,8.247784 C 3.598221,8.257068 3.56641,8.293366 3.564724,8.329797" />
      <path d="M 3.564724,8.329797 C 3.562325,8.369586 3.586443,8.408009 3.610331,8.43843" />
      <path d="M 3.623526,8.259843 L 3.610331,8.43843" />
      <path d="M 3.610331,8.43843 C 3.658387,8.502495 3.676131,8.591094 3.668723,8.678333" />
      <path d="M 3.668723,8.678333 C 3.655861,8.822262 3.590556,8.951847 3.500747,9.077633" />
      <path d="M 3.500747,9.077633 L 3.228152,9.103279" />
      <path d="M 2.223024,8.568952 C 2.203243,8.537924 2.166832,8.505058 2.113791,8.470356 C 2.060121,8.437578 1.978256,8.409571 1.897586,8.414787" />
      <path d="M 3.228152,9.103279 C 3.018234,9.027141 2.825202,8.948421 2.639509,8.854379 C 2.456838,8.76214 2.288131,8.653054 2.223024,8.568952" />
      <path d="M 0.918834,-8.46003 Q 1.277295,-3.76672 0.918834,0.903262" />
      <path d="M 0.918834,0.903262 Q 1.411156,0.918027 1.897586,0.948506" />
      <path d="M 1.897586,-8.414786 Q 1.542741,-3.754449 1.897586,0.948506" />
      <path d="M 1.897586,0.948506 C 1.978256,0.953722 2.060121,0.925715 2.113791,0.892937 C 2.166832,0.858234 2.203243,0.825369 2.223024,0.79434" />
      <path d="M 2.223024,-8.568952 Q 1.853466,-3.912386 2.223024,0.79434" />
      <path d="M 2.223024,0.79434 C 2.288131,0.710238 2.456838,0.601152 2.639509,0.508913 C 2.825202,0.414871 3.018234,0.336151 3.228152,0.260013" />
      <path d="M 3.228152,-9.103279 Q 2.807628,-4.458349 3.228152,0.260013" />
      <path d="M 3.228152,0.260013 L 3.500747,0.28566" />
      <path d="M 3.500747,-9.077632 Q 3.917214,-4.353955 3.500747,0.28566" />
      <path d="M 3.610331,0.924863 Q 3.573665,0.966701 3.564758,1.020803" />
      <path d="M 3.564758,1.020803 C 3.560436,1.061346 3.589228,1.105077 3.672637,1.115508" />
      <path d="M 3.500747,0.28566 C 3.605087,0.43129 3.679796,0.589941 3.66891,0.757834" />
      <path d="M 3.66891,0.757834 Q 3.661822,0.853182 3.610331,0.924863" />
      <path d="M 1.897586,8.414787 Q 1.411156,8.445265 0.918834,8.460031" />
      <path d="M 0.918834,8.460031 C 0.846322,8.462067 0.791145,8.489686 0.761305,8.5215 C 0.732951,8.554981 0.718731,8.587005 0.718646,8.617573" />
      <path d="M 0.718646,8.617573 L 0.718123,8.638518" />
      <path d="M 0.721367,8.597818 L 0.718123,8.638518" />
      <path d="M 0.718123,8.638518 L 0.717645,8.648142" />
      <path d="M 0.717645,8.648142 C 0.71113,8.736318 0.627577,8.854447 0.520244,8.957916 C 0.411429,9.061136 0.28505,9.157158 0.141106,9.245982" />
      <path d="M 0.141106,9.245982 L -0.141106,9.245982" />
      <path d="M -0.721367,8.597818 L -0.718123,8.638518" />
      <path d="M -0.718123,8.638518 L -0.718646,8.617573" />
      <path d="M -0.718646,8.617573 C -0.718731,8.587005 -0.732951,8.554981 -0.761305,8.5215 C -0.791145,8.489686 -0.846322,8.462067 -0.918834,8.460031" />
      <path d="M -0.141106,9.245982 C -0.28505,9.157158 -0.411429,9.061136 -0.520244,8.957916 C -0.627577,8.854447 -0.71113,8.736318 -0.717645,8.648142" />
      <path d="M -0.717645,8.648142 L -0.718123,8.638518" />
      <path d="M -1.897586,-8.414786 Q -1.542741,-3.754449 -1.897586,0.948506" />
      <path d="M -1.897586,0.948506 Q -1.411156,0.918027 -0.918834,0.903262" />
      <path d="M -0.918834,-8.46003 Q -1.277295,-3.76672 -0.918834,0.903262" />
      <path d="M -0.918834,0.903262 C -0.837068,0.900969 -0.778637,0.866477 -0.750957,0.829938 C -0.722178,0.792851 -0.717483,0.75529 -0.718123,0.724774" />
      <path d="M -0.887948,-2.506915 Q -0.867809,-1.694248 -0.825017,-0.882146" />
      <path d="M -0.825017,-0.882146 Q -0.782665,-0.078409 -0.718123,0.724774" />
      <path d="M -0.718123,0.724774 C -0.717227,0.637621 -0.634678,0.51692 -0.526222,0.411224 C -0.416148,0.305706 -0.287776,0.207735 -0.141106,0.11731" />
      <path d="M -0.141106,-9.245981 Q -0.574364,-4.561584 -0.141106,0.11731" />
      <path d="M -0.141106,0.11731 L 0.141106,0.11731" />
      <path d="M 0.141106,-9.245981 Q 0.574364,-4.561584 0.141106,0.11731" />
      <path d="M 0.887948,-2.506915 Q 0.867809,-1.694248 0.825017,-0.882145" />
      <path d="M 0.825017,-0.882145 Q 0.782665,-0.078409 0.718123,0.724774" />
      <path d="M 0.718123,0.724774 C 0.717483,0.75529 0.722178,0.792851 0.750957,0.829938 C 0.778637,0.866477 0.837068,0.900969 0.918834,0.903262" />
      <path d="M 0.141106,0.11731 C 0.287776,0.207735 0.416148,0.305706 0.526222,0.411224 C 0.634678,0.51692 0.717227,0.637621 0.718123,0.724774" />
      <path d="M -0.918834,8.460031 Q -1.411156,8.445265 -1.897586,8.414787" />
      <path d="M -1.897586,8.414787 C -1.978256,8.409571 -2.060121,8.437578 -2.113791,8.470356 C -2.166832,8.505058 -2.203243,8.537924 -2.223024,8.568952" />
      <path d="M -2.223024,8.568952 C -2.288131,8.653054 -2.456838,8.76214 -2.639509,8.854379 C -2.825202,8.948421 -3.018234,9.027141 -3.228152,9.103279" />
      <path d="M -3.228152,9.103279 L -3.500747,9.077633" />
      <path d="M -3.623526,8.259843 L -3.610331,8.43843" />
      <path d="M -3.610331,8.43843 C -3.586442,8.408009 -3.562325,8.369586 -3.564724,8.329797" />
      <path d="M -3.564724,8.329797 C -3.56641,8.293366 -3.598221,8.257068 -3.672637,8.247784" />
      <path d="M -3.500747,9.077633 C -3.590556,8.951847 -3.655861,8.822262 -3.668723,8.678333" />
      <path d="M -3.668723,8.678333 C -3.676131,8.591094 -3.658387,8.502495 -3.610331,8.43843" />
      <path d="M -4.584688,-8.115134 Q -4.257642,-3.486319 -4.584688,1.248157" />
      <path d="M -4.584688,1.248157 Q -4.137299,1.174511 -3.672637,1.115508" />
      <path d="M -3.816346,-1.74178 Q -3.776346,-0.309 -3.672637,1.115508" />
      <path d="M -3.672637,1.115508 C -3.589228,1.105077 -3.560436,1.061346 -3.564758,1.020803" />
      <path d="M -3.564758,1.020803 Q -3.573665,0.966701 -3.610331,0.924863" />
      <path d="M -3.610331,0.924863 Q -3.661822,0.853182 -3.66891,0.757834" />
      <path d="M -3.66891,0.757834 C -3.679796,0.589941 -3.605087,0.43129 -3.500747,0.28566" />
      <path d="M -3.500747,-9.077632 Q -3.917214,-4.353955 -3.500747,0.28566" />
      <path d="M -3.500747,0.28566 L -3.228152,0.260013" />
      <path d="M -3.228152,-9.103279 Q -2.807628,-4.458349 -3.228152,0.260013" />
      <path d="M -2.223024,-8.568952 Q -1.853466,-3.912386 -2.223024,0.79434" />
      <path d="M -2.223024,0.79434 C -2.203243,0.825369 -2.166832,0.858234 -2.113791,0.892937 C -2.060121,0.925715 -1.978256,0.953722 -1.897586,0.948506" />
      <path d="M -3.228152,0.260013 C -3.018234,0.336151 -2.825202,0.414871 -2.639509,0.508913 C -2.456838,0.601152 -2.288131,0.710238 -2.223024,0.79434" />
      <path d="M -3.672637,8.247784 Q -4.137299,8.188781 -4.584688,8.115135" />
      <path d="M -4.584688,8.115135 C -4.658765,8.102766 -4.758485,8.122379 -4.834487,8.149163 C -4.911301,8.177862 -4.970697,8.206299 -5.012675,8.234473" />
      <path d="M -5.012675,8.234473 C -5.137557,8.309792 -5.380925,8.39983 -5.625362,8.472325 C -5.874048,8.546287 -6.118529,8.604783 -6.377416,8.65925" />
      <path d="M -6.377416,8.65925 L -6.621818,8.609704" />
      <path d="M -6.688668,7.658993 Q -6.658958,8.133564 -6.621818,8.609704" />
      <path d="M -6.270164,7.769238 L -6.256501,7.982323" />
      <path d="M -6.256501,7.982323 C -6.196077,7.946226 -6.117253,7.891433 -6.118007,7.840431" />
      <path d="M -6.118007,7.840431 Q -6.118579,7.808274 -6.176155,7.792511" />
      <path d="M -6.621818,8.609704 C -6.616923,8.503748 -6.594886,8.400158 -6.536806,8.287556 C -6.48022,8.176979 -6.379831,8.057957 -6.256501,7.982323" />
      <path d="M -6.959351,-7.581496 Q -6.682391,-2.980602 -6.959351,1.781795" />
      <path d="M -6.959351,1.781795 Q -6.581493,1.670001 -6.176155,1.570781" />
      <path d="M -6.185053,1.429011 L -6.176155,1.570781" />
      <path d="M -6.176155,1.570781 Q -6.113902,1.553379 -6.118018,1.51754" />
      <path d="M -6.118018,1.51754 C -6.123279,1.46766 -6.197991,1.415956 -6.256501,1.38097" />
      <path d="M -6.256501,1.38097 C -6.373534,1.309188 -6.470597,1.197761 -6.527938,1.092272 C -6.583858,0.986141 -6.614501,0.883747 -6.619869,0.785091" />
      <path d="M -6.619869,0.785091 L -6.621818,0.753588" />
      <path d="M -6.621818,-8.609704 Q -6.952469,-4.370676 -6.694208,-0.256073" />
      <path d="M -6.694208,-0.256073 Q -6.662462,0.249697 -6.621818,0.753588" />
      <path d="M -6.621818,0.753588 L -6.377416,0.704043" />
      <path d="M -6.377416,-8.659249 Q -5.998285,-4.051284 -6.377416,0.704043" />
      <path d="M -5.012675,-8.234472 Q -4.674197,-3.610637 -5.012675,1.12882" />
      <path d="M -5.012675,1.12882 C -4.970697,1.156993 -4.911301,1.18543 -4.834487,1.21413 C -4.758485,1.240914 -4.658765,1.260527 -4.584688,1.248157" />
      <path d="M -6.377416,0.704043 C -6.118529,0.758509 -5.874048,0.817005 -5.625362,0.890967 C -5.380925,0.963462 -5.137557,1.0535 -5.012675,1.12882" />
      <path d="M -6.176155,7.792511 Q -6.581493,7.693291 -6.959351,7.581497" />
      <path d="M -6.959351,7.581497 C -7.021787,7.562818 -7.132566,7.5727 -7.225721,7.591664 C -7.321073,7.612405 -7.399406,7.634475 -7.460721,7.657874" />
      <path d="M -7.460721,7.657874 C -7.636867,7.719278 -7.938311,7.784131 -8.227856,7.831942 C -8.522587,7.880784 -8.801855,7.915069 -9.09207,7.944153" />
      <path d="M -9.09207,7.944153 L -9.291623,7.874085" />
      <path d="M -9.348274,6.868111 Q -9.32328,7.369885 -9.291623,7.874085" />
      <path d="M -8.490126,7.025451 L -8.476301,7.30128" />
      <path d="M -8.476301,7.30128 C -8.423189,7.283733 -8.370746,7.262115 -8.318971,7.236427 C -8.269964,7.21101 -8.229008,7.180725 -8.230248,7.154898" />
      <path d="M -8.230248,7.154898 Q -8.230703,7.137437 -8.258779,7.125238" />
      <path d="M -9.291623,7.874085 C -9.208793,7.772184 -9.111149,7.674126 -8.972047,7.570639 C -8.835881,7.468973 -8.651179,7.363129 -8.476301,7.30128" />
      <path d="M -8.834251,1.88628 L -8.859746,2.513053" />
      <path d="M -8.859746,2.513053 Q -8.577168,2.37073 -8.258779,2.238055" />
      <path d="M -8.262568,2.161887 L -8.258779,2.238055" />
      <path d="M -8.258779,2.238055 Q -8.22881,2.22496 -8.230252,2.205995" />
      <path d="M -8.230252,2.205995 C -8.231593,2.180245 -8.272751,2.150597 -8.321267,2.125675 C -8.37241,2.100507 -8.424088,2.079286 -8.476301,2.062012" />
      <path d="M -8.476301,2.062012 C -8.651179,2.000163 -8.835881,1.894319 -8.972047,1.792653 C -9.111149,1.689166 -9.208793,1.591108 -9.291623,1.489207" />
      <path d="M -9.291623,-7.874084 Q -9.592442,-3.082923 -9.291623,1.489207" />
      <path d="M -9.291623,1.489207 L -9.09207,1.419139" />
      <path d="M -9.09207,-7.944152 Q -8.780169,-3.368131 -9.09207,1.419139" />
      <path d="M -7.460721,-7.657873 Q -7.17639,-3.062828 -7.460721,1.705418" />
      <path d="M -7.460721,1.705418 C -7.399406,1.728817 -7.321073,1.750887 -7.225721,1.771628 C -7.132566,1.790593 -7.021787,1.800475 -6.959351,1.781795" />
      <path d="M -9.09207,1.419139 C -8.801855,1.448223 -8.522587,1.482508 -8.227856,1.53135 C -7.938311,1.579161 -7.636867,1.644014 -7.460721,1.705418" />
      <path d="M -8.258779,7.125238 Q -8.577168,6.992563 -8.859746,6.850239" />
      <path d="M -8.859746,6.850239 C -8.906285,6.826522 -9.020574,6.826001 -9.124534,6.835853 C -9.231926,6.847222 -9.323858,6.861421 -9.400331,6.87845" />
      <path d="M -9.400331,6.87845 C -9.615737,6.921754 -9.954714,6.957003 -10.269636,6.976872 C -10.590326,6.997265 -10.88535,7.005003 -11.187114,7.006722" />
      <path d="M -11.187114,7.006722 L -11.32822,6.920906" />
      <path d="M -11.365663,5.969975 Q -11.348999,6.444135 -11.32822,6.920906" />
      <path d="M -10.133124,5.993542 L -10.118454,6.441714" />
      <path d="M -10.118454,6.441714 C -10.047459,6.428462 -9.974532,6.41035 -9.899674,6.387379 C -9.828751,6.364515 -9.766875,6.334933 -9.767877,6.308571" />
      <path d="M -9.767877,6.308571 Q -9.768088,6.299475 -9.778581,6.291438" />
      <path d="M -11.32822,6.920906 C -11.173098,6.830005 -11.006502,6.744162 -10.795858,6.656843 C -10.589392,6.571015 -10.332964,6.485563 -10.118454,6.441714" />
      <path d="M -10.144582,2.916051 L -10.156364,3.392097" />
      <path d="M -10.156364,3.392097 Q -9.988324,3.228943 -9.778581,3.071855" />
      <path d="M -9.779863,3.03276 L -9.778581,3.071855" />
      <path d="M -9.778581,3.071855 Q -9.767462,3.063324 -9.767878,3.053623" />
      <path d="M -9.767878,3.053623 C -9.768611,3.027322 -9.83061,2.998068 -9.90117,2.975428 C -9.975577,2.95269 -10.048005,2.93474 -10.118454,2.921578" />
      <path d="M -10.118454,2.921578 C -10.332964,2.877729 -10.589392,2.792277 -10.795858,2.706449 C -11.006502,2.61913 -11.173098,2.533287 -11.32822,2.442386" />
      <path d="M -11.32822,-6.920906 Q -11.538063,-2.106138 -11.32822,2.442386" />
      <path d="M -11.32822,2.442386 L -11.187114,2.356571" />
      <path d="M -11.187114,-7.006721 Q -10.963699,-2.455446 -11.187114,2.356571" />
      <path d="M -9.400331,-6.87845 L -9.374939,-6.288928" />
      <path d="M -9.337152,0.733532 Q -9.36164,1.605499 -9.400331,2.484842" />
      <path d="M -9.400331,2.484842 C -9.323858,2.501871 -9.231926,2.51607 -9.124534,2.52744 C -9.020574,2.537292 -8.906285,2.536771 -8.859746,2.513053" />
      <path d="M -11.187114,2.356571 C -10.88535,2.358289 -10.590326,2.366027 -10.269636,2.38642 C -9.954714,2.406289 -9.615737,2.441538 -9.400331,2.484842" />
      <path d="M -9.778581,6.291438 Q -9.988324,6.134349 -10.156364,5.971195" />
      <path d="M -10.156364,5.971195 C -10.183835,5.944057 -10.293845,5.933167 -10.401525,5.933236 C -10.510999,5.933074 -10.615543,5.941203 -10.699324,5.949318" />
      <path d="M -10.699324,5.949318 C -10.939311,5.971571 -11.292719,5.974813 -11.611556,5.965386 C -11.936351,5.955941 -12.227027,5.936604 -12.519775,5.910841" />
      <path d="M -12.519775,5.910841 L -12.592817,5.815126" />
      <path d="M -12.612525,4.801028 Q -12.603831,5.306439 -12.592817,5.815126" />
      <path d="M -11.078426,4.937627 L -11.071052,5.462202" />
      <path d="M -11.071052,5.462202 C -10.990111,5.454815 -10.893044,5.444104 -10.801312,5.426085 C -10.710868,5.408492 -10.629477,5.382019 -10.630323,5.354549" />
      <path d="M -10.630323,5.354549 L -10.631988,5.347933" />
      <path d="M -12.592817,5.815126 C -12.375976,5.741419 -12.15178,5.673641 -11.883949,5.60844 C -11.621253,5.5443 -11.310575,5.485063 -11.071052,5.462202" />
      <path d="M -10.758112,3.946542 L -10.760843,4.359022" />
      <path d="M -10.760843,4.359022 Q -10.718792,4.186156 -10.631988,4.015359" />
      <path d="M -10.632176,4.001249 L -10.631988,4.015359" />
      <path d="M -10.631988,4.015359 L -10.630323,4.008373" />
      <path d="M -10.630323,4.008373 C -10.630211,3.980958 -10.711656,3.95461 -10.801933,3.937085 C -10.8935,3.919139 -10.990289,3.908461 -11.071052,3.90109" />
      <path d="M -11.071052,3.90109 C -11.310575,3.87823 -11.621253,3.818993 -11.883949,3.754852 C -12.15178,3.689651 -12.375976,3.621873 -12.592817,3.548166" />
      <path d="M -12.592817,-5.815125 Q -12.697383,-0.985824 -12.592817,3.548166" />
      <path d="M -12.592817,3.548166 L -12.519775,3.452452" />
      <path d="M -12.519775,-5.91084 Q -12.40007,-1.375425 -12.519775,3.452452" />
      <path d="M -10.683516,2.75112 L -10.699324,3.413974" />
      <path d="M -10.699324,3.413974 C -10.615543,3.422089 -10.510999,3.430219 -10.401525,3.430057 C -10.293845,3.430126 -10.183835,3.419236 -10.156364,3.392097" />
      <path d="M -12.519775,3.452452 C -12.227027,3.426689 -11.936351,3.407351 -11.611556,3.397906 C -11.292719,3.388479 -10.939311,3.391721 -10.699324,3.413974" />
      <path d="M -10.631988,5.347933 Q -10.718792,5.177136 -10.760843,5.00427" />
      <path d="M -10.760843,5.00427 C -10.767373,4.975561 -10.865608,4.955044 -10.96967,4.945325 C -11.075294,4.93522 -11.182268,4.933571 -11.269176,4.933796" />
      <path d="M -11.269176,4.933796 C -11.517388,4.933481 -11.861145,4.904496 -12.162168,4.866415 C -12.468934,4.827775 -12.735451,4.782681 -12.999234,4.731192" />
      <path d="M -12.999234,4.731192 L -13.0,4.681646" />
      <path d="M -13.0,4.681646 L -12.999234,4.632101" />
      <path d="M -12.999234,-4.731191 Q -12.991398,-0.201672 -12.999234,4.632101" />
      <path d="M -11.266288,3.877002 L -11.269176,4.429496" />
      <path d="M -11.269176,4.429496 C -11.182268,4.429721 -11.075294,4.428073 -10.96967,4.417968 C -10.865608,4.408249 -10.767373,4.387732 -10.760843,4.359022" />
      <path d="M -12.999234,4.632101 C -12.735451,4.580611 -12.468934,4.535517 -12.162168,4.496877 C -11.861145,4.458796 -11.517388,4.429811 -11.269176,4.429496" />
      <line x1="8.258779" y1="2.238055" x2="7.647018" y2="2.419062" />
      <line x1="8.859746" y1="6.850239" x2="8.203469" y2="6.689603" />
      <line x1="6.959351" y1="7.581497" x2="6.443844" y2="7.366693" />
      <line x1="6.176155" y1="1.570781" x2="5.718662" y2="1.801216" />
      <line x1="4.584688" y1="8.115135" x2="4.245081" y2="7.860803" />
      <line x1="3.672637" y1="1.115508" x2="3.40059" y2="1.379667" />
      <line x1="1.897586" y1="8.414787" x2="1.757024" y2="8.138258" />
      <line x1="0.918834" y1="0.903262" x2="0.850772" y2="1.183142" />
      <line x1="-0.918834" y1="8.460031" x2="-0.850772" y2="8.18015" />
      <line x1="-1.897586" y1="0.948506" x2="-1.757024" y2="1.225035" />
      <line x1="-3.672637" y1="8.247784" x2="-3.40059" y2="7.983626" />
      <line x1="-4.584688" y1="1.248157" x2="-4.245081" y2="1.50249" />
      <line x1="-6.176155" y1="7.792511" x2="-5.718662" y2="7.562077" />
      <line x1="-6.959351" y1="1.781795" x2="-6.443844" y2="1.996599" />
      <line x1="-8.258779" y1="7.125238" x2="-7.647018" y2="6.944231" />
      <line x1="-8.859746" y1="2.513053" x2="-8.203469" y2="2.67369" />
      <line x1="-9.778581" y1="6.291438" x2="-9.054241" y2="6.172194" />
      <line x1="-10.156364" y1="3.392097" x2="-9.404041" y2="3.487619" />
      <line x1="-10.631988" y1="5.347933" x2="-9.844433" y2="5.298578" />
      <line x1="-10.760843" y1="4.359022" x2="-9.963744" y2="4.38292" />
      <path d="M 13.0,-4.681645 L 13.0,4.681646" />
      <path d="M 6.694208,-0.256073 Q 6.661462,0.265417 6.619869,0.785091" />
      <path d="M 3.701925,8.244048 L 3.668723,8.678333" />
      <path d="M 3.668723,-8.678333 C 3.921317,-5.539502 3.921091,-2.376259 3.66891,0.757834" />
      <path d="M 0.721844,8.595509 L 0.717645,8.648142" />
      <path d="M -0.717645,8.648142 L -0.721844,8.595509" />
      <path d="M -0.717645,-8.648141 Q -0.963887,-5.583519 -0.887948,-2.506915" />
      <path d="M 0.717645,-8.648141 Q 0.963887,-5.583519 0.887948,-2.506915" />
      <path d="M -3.701925,8.244048 L -3.668723,8.678333" />
      <path d="M -3.668723,-8.678333 C -3.921317,-5.539502 -3.921091,-2.376259 -3.66891,0.757834" />
      <path d="M -6.619869,0.785091 Q -6.661462,0.265417 -6.694208,-0.256073" />
      <path d="M -13.0,-4.681645 L -13.0,4.681646" />
    </g>
    <g fill="none" stroke="rgb(99,99,99)" stroke-width="0.023400000179994128" id="Hidden" stroke-dasharray="0.000594 0.070497">
      <path d="M 10.631988,-5.347932 Q 10.718792,-5.177135 10.760843,-5.00427" />
      <line x1="9.844433" y1="-5.298578" x2="10.631988" y2="-5.347932" />
      <path d="M 10.760843,-5.00427 C 10.767373,-4.975559 10.865608,-4.955043 10.96967,-4.945324 C 11.075294,-4.935219 11.182268,-4.933571 11.269176,-4.933795" />
      <path d="M 9.963744,-4.382919 Q 10.074908,-4.843493 9.844433,-5.298578" />
      <path d="M 11.269176,-4.933795 C 11.456479,-4.933513 11.702639,-4.916845 11.939095,-4.892047 C 12.178856,-4.866379 12.403333,-4.836039 12.612525,-4.801027" />
      <line x1="10.760843" y1="-4.359021" x2="9.963744" y2="-4.382919" />
      <path d="M 13.0,-4.681645 L 12.999234,-4.6321" />
      <path d="M 11.269176,-4.429496 C 11.182268,-4.429721 11.075294,-4.428072 10.96967,-4.417967 C 10.865608,-4.408248 10.767373,-4.387731 10.760843,-4.359021" />
      <path d="M 12.999234,-4.6321 C 12.735451,-4.580611 12.468934,-4.535516 12.162168,-4.496877 C 11.861145,-4.458795 11.517388,-4.42981 11.269176,-4.429496" />
      <path d="M 10.631988,-5.347932 Q 10.692582,-0.549133 10.632176,4.001249" />
      <path d="M 10.760843,-5.00427 Q 10.72905,-0.644149 10.758112,3.946542" />
      <path d="M 9.778581,-6.291437 Q 9.988324,-6.134348 10.156364,-5.971194" />
      <line x1="9.778581" y1="-6.291437" x2="9.054241" y2="-6.172193" />
      <path d="M 10.156364,-5.971194 C 10.183835,-5.944056 10.293845,-5.933166 10.401525,-5.933235 C 10.510999,-5.933073 10.615543,-5.941203 10.699324,-5.949317" />
      <path d="M 9.844433,-5.298578 C 9.691946,-5.599401 9.424029,-5.895603 9.054241,-6.172193" />
      <path d="M 10.699324,-5.949317 C 10.877608,-5.9658 11.122816,-5.97215 11.365663,-5.969975" />
      <path d="M 11.071052,-5.462201 C 10.990111,-5.454814 10.893044,-5.444103 10.801312,-5.426084 C 10.710868,-5.408491 10.629477,-5.382018 10.630323,-5.354548" />
      <path d="M 10.630323,-5.354548 L 10.631988,-5.347932" />
      <path d="M 12.592817,-5.815125 C 12.375976,-5.741418 12.15178,-5.67364 11.883949,-5.608439 C 11.621253,-5.544299 11.310575,-5.485062 11.071052,-5.462201" />
      <path d="M 11.269176,-4.933795 Q 11.244055,-0.645507 11.266288,3.877002" />
      <path d="M 9.404041,-3.487619 Q 9.850914,-3.922396 9.963744,-4.382919" />
      <path d="M 8.203469,-2.673689 C 8.701454,-2.924263 9.108512,-3.200228 9.404041,-3.487619" />
      <path d="M 9.054241,-6.172193 C 8.685209,-6.448908 8.208085,-6.71067 7.647018,-6.94423" />
      <path d="M 6.443844,-1.996598 C 7.109562,-2.193378 7.706169,-2.422948 8.203469,-2.673689" />
      <path d="M 7.647018,-6.94423 C 7.086588,-7.17798 6.432773,-7.387462 5.718662,-7.562076" />
      <path d="M 4.245081,-1.502489 C 5.033166,-1.632065 5.778663,-1.799594 6.443844,-1.996598" />
      <path d="M 5.718662,-7.562076 C 5.005028,-7.73693 4.219079,-7.879858 3.40059,-7.983625" />
      <path d="M 1.757024,-1.225034 C 2.613767,-1.278576 3.457351,-1.372648 4.245081,-1.502489" />
      <path d="M 3.40059,-7.983625 C 2.582384,-8.087668 1.717861,-8.1543 0.850772,-8.18015" />
      <path d="M -0.850772,-1.183142 C 0.016245,-1.157 0.900426,-1.171204 1.757024,-1.225034" />
      <path d="M 0.850772,-8.18015 C -0.016245,-8.206291 -0.900426,-8.192087 -1.757024,-8.138257" />
      <path d="M -3.40059,-1.379666 C -2.582384,-1.275623 -1.717861,-1.208991 -0.850772,-1.183142" />
      <path d="M -1.757024,-8.138257 C -2.613767,-8.084715 -3.457351,-7.990643 -4.245081,-7.860802" />
      <path d="M -5.718662,-1.801215 C -5.005028,-1.626361 -4.219079,-1.483434 -3.40059,-1.379666" />
      <path d="M -4.245081,-7.860802 C -5.033166,-7.731226 -5.778663,-7.563697 -6.443844,-7.366693" />
      <path d="M -7.647018,-2.419061 C -7.086588,-2.185312 -6.432773,-1.975829 -5.718662,-1.801215" />
      <path d="M -6.443844,-7.366693 C -7.109562,-7.169913 -7.706169,-6.940343 -8.203469,-6.689602" />
      <path d="M -9.054241,-3.191098 C -8.685209,-2.914383 -8.208085,-2.652621 -7.647018,-2.419061" />
      <path d="M -8.203469,-6.689602 C -8.701454,-6.439028 -9.108512,-6.163063 -9.404041,-5.875672" />
      <path d="M -9.844433,-4.064713 C -9.691946,-3.76389 -9.424029,-3.467689 -9.054241,-3.191098" />
      <path d="M -9.404041,-5.875672 Q -9.850914,-5.440895 -9.963744,-4.980372" />
      <path d="M -9.963744,-4.980372 Q -10.074908,-4.519798 -9.844433,-4.064713" />
      <path d="M 10.760843,-4.359021 Q 10.718792,-4.186156 10.631988,-4.015359" />
      <path d="M 10.631988,-4.015359 L 10.630323,-4.008372" />
      <path d="M 10.630323,-4.008372 C 10.630211,-3.980957 10.711656,-3.954609 10.801933,-3.937084 C 10.8935,-3.919138 10.990289,-3.908461 11.071052,-3.90109" />
      <path d="M 11.071052,-3.90109 C 11.310575,-3.878229 11.621253,-3.818992 11.883949,-3.754852 C 12.15178,-3.689651 12.375976,-3.621873 12.592817,-3.548166" />
      <line x1="10.156364" y1="-3.392097" x2="9.404041" y2="-3.487619" />
      <path d="M 12.592817,-3.548166 L 12.519775,-3.452451" />
      <path d="M 10.699324,-3.413974 C 10.615543,-3.422089 10.510999,-3.430218 10.401525,-3.430056 C 10.293845,-3.430125 10.183835,-3.419235 10.156364,-3.392097" />
      <path d="M 12.519775,-3.452451 C 12.227027,-3.426688 11.936351,-3.407351 11.611556,-3.397906 C 11.292719,-3.388478 10.939311,-3.391721 10.699324,-3.413974" />
      <path d="M 12.999234,-4.6321 Q 12.991398,0.201673 12.999234,4.731192" />
      <path d="M 11.269176,-4.429496 Q 11.242523,0.383981 11.269176,4.933796" />
      <path d="M 10.760843,-4.359021 Q 10.727623,0.448488 10.760843,5.00427" />
      <path d="M 11.071052,-5.462201 Q 11.142482,-0.650795 11.071052,3.90109" />
      <path d="M 9.778581,-6.291437 Q 9.928397,-1.515486 9.779863,3.03276" />
      <path d="M 10.156364,-5.971194 Q 10.037699,-1.634648 10.144582,2.916051" />
      <path d="M 8.258779,-7.125237 Q 8.577168,-6.992562 8.859746,-6.850238" />
      <line x1="8.258779" y1="-7.125237" x2="7.647018" y2="-6.94423" />
      <path d="M 8.859746,-6.850238 C 8.901011,-6.829213 8.996676,-6.826239 9.090036,-6.833065 C 9.186763,-6.841176 9.272843,-6.852858 9.348274,-6.86811" />
      <path d="M 10.118454,-6.441713 C 10.047459,-6.428461 9.974532,-6.41035 9.899674,-6.387378 C 9.828751,-6.364514 9.766875,-6.334931 9.767877,-6.30857" />
      <path d="M 9.767877,-6.30857 Q 9.768088,-6.299474 9.778581,-6.291437" />
      <path d="M 11.32822,-6.920906 C 11.173098,-6.830005 11.006502,-6.744162 10.795858,-6.656842 C 10.589392,-6.571015 10.332964,-6.485562 10.118454,-6.441713" />
      <path d="M 10.699324,-5.949317 Q 10.584896,-1.707353 10.683516,2.75112" />
      <path d="M 10.156364,-3.392097 Q 9.988324,-3.228943 9.778581,-3.071854" />
      <path d="M 9.778581,-3.071854 Q 9.767462,-3.063323 9.767878,-3.053622" />
      <path d="M 9.767878,-3.053622 C 9.768611,-3.02732 9.83061,-2.998066 9.90117,-2.975427 C 9.975577,-2.95269 10.048005,-2.93474 10.118454,-2.921578" />
      <path d="M 10.118454,-2.921578 C 10.332964,-2.877729 10.589392,-2.792277 10.795858,-2.706449 C 11.006502,-2.61913 11.173098,-2.533287 11.32822,-2.442385" />
      <line x1="8.859746" y1="-2.513053" x2="8.203469" y2="-2.673689" />
      <path d="M 11.32822,-2.442385 L 11.187114,-2.35657" />
      <path d="M 9.400331,-2.484841 C 9.323858,-2.501871 9.231926,-2.51607 9.124534,-2.527439 C 9.020574,-2.537291 8.906285,-2.53677 8.859746,-2.513053" />
      <path d="M 11.187114,-2.35657 C 10.88535,-2.358289 10.590326,-2.366027 10.269636,-2.38642 C 9.954714,-2.406289 9.615737,-2.441537 9.400331,-2.484841" />
      <path d="M 8.859746,-2.513053 Q 8.577168,-2.370729 8.258779,-2.238054" />
      <path d="M 8.258779,-2.238054 Q 8.22881,-2.224959 8.230252,-2.205994" />
      <path d="M 8.230252,-2.205994 C 8.231593,-2.180244 8.272751,-2.150596 8.321267,-2.125674 C 8.37241,-2.100507 8.424088,-2.079286 8.476301,-2.062011" />
      <path d="M 8.476301,-2.062011 C 8.651179,-2.000163 8.835881,-1.894319 8.972047,-1.792652 C 9.111149,-1.689166 9.208793,-1.591108 9.291623,-1.489207" />
      <line x1="6.959351" y1="-1.781795" x2="6.443844" y2="-1.996598" />
      <path d="M 9.291623,-1.489207 L 9.09207,-1.419139" />
      <path d="M 7.460721,-1.705418 C 7.399406,-1.728816 7.321073,-1.750886 7.225721,-1.771627 C 7.132566,-1.790592 7.021787,-1.800474 6.959351,-1.781795" />
      <path d="M 9.09207,-1.419139 C 8.801855,-1.448223 8.522587,-1.482508 8.227856,-1.53135 C 7.938311,-1.579161 7.636867,-1.644014 7.460721,-1.705418" />
      <path d="M 6.176155,-7.79251 Q 6.437969,-7.728426 6.688668,-7.658993" />
      <line x1="6.176155" y1="-7.79251" x2="5.718662" y2="-7.562076" />
      <path d="M 8.476301,-7.30128 C 8.423189,-7.283732 8.370746,-7.262115 8.318971,-7.236426 C 8.269964,-7.211009 8.229008,-7.180724 8.230248,-7.154897" />
      <path d="M 8.230248,-7.154897 Q 8.230703,-7.137436 8.258779,-7.125237" />
      <path d="M 9.291623,-7.874084 C 9.208793,-7.772183 9.111149,-7.674126 8.972047,-7.570639 C 8.835881,-7.468973 8.651179,-7.363129 8.476301,-7.30128" />
      <path d="M 6.959351,-1.781795 Q 6.581493,-1.670001 6.176155,-1.570781" />
      <path d="M 6.176155,-1.570781 Q 6.113902,-1.553378 6.118018,-1.517539" />
      <path d="M 6.118018,-1.517539 C 6.123279,-1.46766 6.197991,-1.415955 6.256501,-1.380969" />
      <path d="M 6.256501,-1.380969 C 6.373534,-1.309188 6.470597,-1.197761 6.527938,-1.092272 C 6.583858,-0.98614 6.614501,-0.883747 6.619869,-0.785091" />
      <path d="M 6.619869,-0.785091 L 6.621818,-0.753587" />
      <line x1="4.584688" y1="-1.248157" x2="4.245081" y2="-1.502489" />
      <path d="M 6.621818,-0.753587 L 6.377416,-0.704042" />
      <path d="M 5.012675,-1.128819 C 4.970697,-1.156993 4.911301,-1.185429 4.834487,-1.214129 C 4.758485,-1.240913 4.658765,-1.260526 4.584688,-1.248157" />
      <path d="M 6.377416,-0.704042 C 6.118529,-0.758509 5.874048,-0.817005 5.625362,-0.890967 C 5.380925,-0.963462 5.137557,-1.0535 5.012675,-1.128819" />
      <path d="M 3.672637,-8.247783 L 3.701925,-8.244048" />
      <line x1="3.672637" y1="-8.247783" x2="3.40059" y2="-7.983625" />
      <path d="M 6.256501,-7.982322 C 6.196077,-7.946226 6.117253,-7.891432 6.118007,-7.84043" />
      <path d="M 6.118007,-7.84043 Q 6.118579,-7.808273 6.176155,-7.79251" />
      <path d="M 6.621818,-8.609704 C 6.616923,-8.503747 6.594886,-8.400157 6.536806,-8.287556 C 6.48022,-8.176979 6.379831,-8.057956 6.256501,-7.982322" />
      <path d="M 4.584688,-1.248157 Q 4.137299,-1.174511 3.672637,-1.115508" />
      <path d="M 3.672637,-1.115508 C 3.589228,-1.105075 3.560436,-1.061345 3.564758,-1.020802" />
      <path d="M 3.564758,-1.020802 Q 3.573665,-0.966701 3.610331,-0.924862" />
      <path d="M 3.610331,-0.924862 Q 3.661822,-0.853181 3.66891,-0.757834" />
      <path d="M 3.66891,-0.757834 C 3.679796,-0.589941 3.605087,-0.431289 3.500747,-0.285659" />
      <line x1="1.897586" y1="-0.948505" x2="1.757024" y2="-1.225034" />
      <path d="M 3.500747,-0.285659 L 3.228152,-0.260012" />
      <path d="M 2.223024,-0.79434 C 2.203243,-0.825368 2.166832,-0.858234 2.113791,-0.892936 C 2.060121,-0.925714 1.978256,-0.953721 1.897586,-0.948505" />
      <path d="M 3.228152,-0.260012 C 3.018234,-0.33615 2.825202,-0.414871 2.639509,-0.508913 C 2.456838,-0.601151 2.288131,-0.710238 2.223024,-0.79434" />
      <line x1="0.918834" y1="-8.46003" x2="0.850772" y2="-8.18015" />
      <path d="M 3.610331,-8.438429 C 3.586442,-8.408009 3.562325,-8.369585 3.564724,-8.329796" />
      <path d="M 3.564724,-8.329796 C 3.56641,-8.293365 3.598221,-8.257067 3.672637,-8.247783" />
      <path d="M 3.668723,-8.678333 C 3.676131,-8.591093 3.658387,-8.502494 3.610331,-8.438429" />
      <path d="M 1.897586,-0.948505 Q 1.411156,-0.918026 0.918834,-0.903261" />
      <path d="M 0.918834,-0.903261 C 0.837068,-0.900968 0.778637,-0.866476 0.750957,-0.829937 C 0.722178,-0.79285 0.717483,-0.755289 0.718123,-0.724774" />
      <path d="M 0.718123,-0.724774 C 0.717227,-0.637621 0.634678,-0.51692 0.526222,-0.411223 C 0.416148,-0.305706 0.287776,-0.207735 0.141106,-0.11731" />
      <line x1="-0.918834" y1="-0.903261" x2="-0.850772" y2="-1.183142" />
      <path d="M 0.141106,-0.11731 L -0.141106,-0.11731" />
      <path d="M -0.718123,-0.724774 C -0.717483,-0.755289 -0.722178,-0.79285 -0.750957,-0.829937 C -0.778637,-0.866476 -0.837068,-0.900968 -0.918834,-0.903261" />
      <path d="M -0.141106,-0.11731 C -0.287776,-0.207735 -0.416148,-0.305706 -0.526222,-0.411223 C -0.634678,-0.51692 -0.717227,-0.637621 -0.718123,-0.724774" />
      <line x1="-1.897586" y1="-8.414786" x2="-1.757024" y2="-8.138257" />
      <path d="M -0.721844,-8.595508 L -0.718646,-8.617572" />
      <path d="M -0.718646,-8.617572 L -0.718123,-8.638518" />
      <path d="M 0.718123,-8.638518 L 0.718646,-8.617572" />
      <path d="M 0.718646,-8.617572 L 0.721844,-8.595508" />
      <path d="M 0.717645,-8.648141 L 0.718123,-8.638518" />
      <path d="M -0.918834,-0.903261 Q -1.411156,-0.918026 -1.897586,-0.948505" />
      <path d="M -1.897586,-0.948505 C -1.978256,-0.953721 -2.060121,-0.925714 -2.113791,-0.892936 C -2.166832,-0.858234 -2.203243,-0.825368 -2.223024,-0.79434" />
      <path d="M -2.223024,-0.79434 C -2.288131,-0.710238 -2.456838,-0.601151 -2.639509,-0.508913 C -2.825202,-0.414871 -3.018234,-0.33615 -3.228152,-0.260012" />
      <line x1="-3.672637" y1="-1.115508" x2="-3.40059" y2="-1.379666" />
      <path d="M -3.228152,-0.260012 L -3.500747,-0.285659" />
      <path d="M -3.610331,-0.924862 Q -3.573665,-0.966701 -3.564758,-1.020802" />
      <path d="M -3.564758,-1.020802 C -3.560436,-1.061345 -3.589228,-1.105075 -3.672637,-1.115508" />
      <path d="M -3.500747,-0.285659 C -3.605087,-0.431289 -3.679796,-0.589941 -3.66891,-0.757834" />
      <path d="M -3.66891,-0.757834 Q -3.661822,-0.853181 -3.610331,-0.924862" />
      <path d="M -3.701925,-8.244048 L -3.672637,-8.247783" />
      <line x1="-4.584688" y1="-8.115134" x2="-4.245081" y2="-7.860802" />
      <path d="M -3.672637,-8.247783 C -3.598221,-8.257067 -3.56641,-8.293365 -3.564724,-8.329796" />
      <path d="M -3.564724,-8.329796 C -3.562325,-8.369585 -3.586442,-8.408009 -3.610331,-8.438429" />
      <path d="M -3.610331,-8.438429 C -3.658387,-8.502494 -3.676131,-8.591093 -3.668723,-8.678333" />
      <path d="M -3.672637,-1.115508 Q -4.137299,-1.174511 -4.584688,-1.248157" />
      <path d="M -4.584688,-1.248157 C -4.658765,-1.260526 -4.758485,-1.240913 -4.834487,-1.214129 C -4.911301,-1.185429 -4.970697,-1.156993 -5.012675,-1.128819" />
      <path d="M -5.012675,-1.128819 C -5.137557,-1.0535 -5.380925,-0.963462 -5.625362,-0.890967 C -5.874048,-0.817005 -6.118529,-0.758509 -6.377416,-0.704042" />
      <line x1="-6.176155" y1="-1.570781" x2="-5.718662" y2="-1.801215" />
      <path d="M -6.377416,-0.704042 L -6.621818,-0.753587" />
      <path d="M -6.256501,-1.380969 C -6.197991,-1.415955 -6.123279,-1.46766 -6.118018,-1.517539" />
      <path d="M -6.118018,-1.517539 Q -6.113902,-1.553378 -6.176155,-1.570781" />
      <path d="M -6.621818,-0.753587 L -6.619869,-0.785091" />
      <path d="M -6.619869,-0.785091 C -6.614501,-0.883747 -6.583858,-0.98614 -6.527938,-1.092272 C -6.470597,-1.197761 -6.373534,-1.309188 -6.256501,-1.380969" />
      <path d="M -6.688668,-7.658993 Q -6.437969,-7.728426 -6.176155,-7.79251" />
      <line x1="-6.959351" y1="-7.581496" x2="-6.443844" y2="-7.366693" />
      <path d="M -6.176155,-7.79251 Q -6.118579,-7.808273 -6.118007,-7.84043" />
      <path d="M -6.118007,-7.84043 C -6.117253,-7.891432 -6.196077,-7.946226 -6.256501,-7.982322" />
      <path d="M -6.256501,-7.982322 C -6.379831,-8.057956 -6.48022,-8.176979 -6.536806,-8.287556 C -6.594886,-8.400157 -6.616923,-8.503747 -6.621818,-8.609704" />
      <path d="M -6.176155,-1.570781 Q -6.581493,-1.670001 -6.959351,-1.781795" />
      <path d="M -6.959351,-1.781795 C -7.021787,-1.800474 -7.132566,-1.790592 -7.225721,-1.771627 C -7.321073,-1.750886 -7.399406,-1.728816 -7.460721,-1.705418" />
      <path d="M -7.460721,-1.705418 C -7.636867,-1.644014 -7.938311,-1.579161 -8.227856,-1.53135 C -8.522587,-1.482508 -8.801855,-1.448223 -9.09207,-1.419139" />
      <line x1="-8.258779" y1="-2.238054" x2="-7.647018" y2="-2.419061" />
      <path d="M -9.09207,-1.419139 L -9.291623,-1.489207" />
      <path d="M -8.476301,-2.062011 C -8.424088,-2.079286 -8.37241,-2.100507 -8.321267,-2.125674 C -8.272751,-2.150596 -8.231593,-2.180244 -8.230252,-2.205994" />
      <path d="M -8.230252,-2.205994 Q -8.22881,-2.224959 -8.258779,-2.238054" />
      <path d="M -9.291623,-1.489207 C -9.208793,-1.591108 -9.111149,-1.689166 -8.972047,-1.792652 C -8.835881,-1.894319 -8.651179,-2.000163 -8.476301,-2.062011" />
      <path d="M -8.859746,-6.850238 Q -8.577168,-6.992562 -8.258779,-7.125237" />
      <line x1="-8.859746" y1="-6.850238" x2="-8.203469" y2="-6.689602" />
      <path d="M -8.258779,-7.125237 Q -8.230703,-7.137436 -8.230248,-7.154897" />
      <path d="M -8.230248,-7.154897 C -8.229008,-7.180724 -8.269964,-7.211009 -8.318971,-7.236426 C -8.370746,-7.262115 -8.423189,-7.283732 -8.476301,-7.30128" />
      <path d="M -8.476301,-7.30128 C -8.651179,-7.363129 -8.835881,-7.468973 -8.972047,-7.570639 C -9.111149,-7.674126 -9.208793,-7.772183 -9.291623,-7.874084" />
      <path d="M -8.258779,-2.238054 Q -8.577168,-2.370729 -8.859746,-2.513053" />
      <path d="M -8.859746,-2.513053 C -8.906285,-2.53677 -9.020574,-2.537291 -9.124534,-2.527439 C -9.231926,-2.51607 -9.323858,-2.501871 -9.400331,-2.484841" />
      <path d="M -9.400331,-2.484841 C -9.615737,-2.441537 -9.954714,-2.406289 -10.269636,-2.38642 C -10.590326,-2.366027 -10.88535,-2.358289 -11.187114,-2.35657" />
      <line x1="-9.778581" y1="-3.071854" x2="-9.054241" y2="-3.191098" />
      <path d="M -11.187114,-2.35657 L -11.32822,-2.442385" />
      <path d="M -10.118454,-2.921578 C -10.048005,-2.93474 -9.975577,-2.95269 -9.90117,-2.975427 C -9.83061,-2.998066 -9.768611,-3.02732 -9.767878,-3.053622" />
      <path d="M -9.767878,-3.053622 Q -9.767462,-3.063323 -9.778581,-3.071854" />
      <path d="M -11.32822,-2.442385 C -11.173098,-2.533287 -11.006502,-2.61913 -10.795858,-2.706449 C -10.589392,-2.792277 -10.332964,-2.877729 -10.118454,-2.921578" />
      <path d="M -10.156364,-5.971194 Q -9.988324,-6.134348 -9.778581,-6.291437" />
      <line x1="-10.156364" y1="-5.971194" x2="-9.404041" y2="-5.875672" />
      <path d="M -9.778581,-6.291437 Q -9.768088,-6.299474 -9.767877,-6.30857" />
      <path d="M -9.767877,-6.30857 C -9.766875,-6.334931 -9.828751,-6.364514 -9.899674,-6.387378 C -9.974532,-6.41035 -10.047459,-6.428461 -10.118454,-6.441713" />
      <path d="M -10.118454,-6.441713 C -10.332964,-6.485562 -10.589392,-6.571015 -10.795858,-6.656842 C -11.006502,-6.744162 -11.173098,-6.830005 -11.32822,-6.920906" />
      <path d="M -9.348274,-6.86811 C -9.272843,-6.852858 -9.186763,-6.841176 -9.090036,-6.833065 C -8.996676,-6.826239 -8.901011,-6.829213 -8.859746,-6.850238" />
      <path d="M -9.778581,-3.071854 Q -9.988324,-3.228943 -10.156364,-3.392097" />
      <path d="M -10.156364,-3.392097 C -10.183835,-3.419235 -10.293845,-3.430125 -10.401525,-3.430056 C -10.510999,-3.430218 -10.615543,-3.422089 -10.699324,-3.413974" />
      <path d="M -10.699324,-3.413974 C -10.939311,-3.391721 -11.292719,-3.388478 -11.611556,-3.397906 C -11.936351,-3.407351 -12.227027,-3.426688 -12.519775,-3.452451" />
      <line x1="-10.631988" y1="-4.015359" x2="-9.844433" y2="-4.064713" />
      <path d="M -12.519775,-3.452451 L -12.592817,-3.548166" />
      <path d="M -11.071052,-3.90109 C -10.990289,-3.908461 -10.8935,-3.919138 -10.801933,-3.937084 C -10.711656,-3.954609 -10.630211,-3.980957 -10.630323,-4.008372" />
      <path d="M -10.630323,-4.008372 L -10.631988,-4.015359" />
      <path d="M -12.592817,-3.548166 C -12.375976,-3.621873 -12.15178,-3.689651 -11.883949,-3.754852 C -11.621253,-3.818992 -11.310575,-3.878229 -11.071052,-3.90109" />
      <path d="M -10.760843,-5.00427 Q -10.718792,-5.177135 -10.631988,-5.347932" />
      <line x1="-10.760843" y1="-5.00427" x2="-9.963744" y2="-4.980372" />
      <path d="M -10.631988,-5.347932 L -10.630323,-5.354548" />
      <path d="M -10.630323,-5.354548 C -10.629477,-5.382018 -10.710868,-5.408491 -10.801312,-5.426084 C -10.893044,-5.444103 -10.990111,-5.454814 -11.071052,-5.462201" />
      <path d="M -11.071052,-5.462201 C -11.310575,-5.485062 -11.621253,-5.544299 -11.883949,-5.608439 C -12.15178,-5.67364 -12.375976,-5.741418 -12.592817,-5.815125" />
      <path d="M -10.699324,-5.949317 C -10.615543,-5.941203 -10.510999,-5.933073 -10.401525,-5.933235 C -10.293845,-5.933166 -10.183835,-5.944056 -10.156364,-5.971194" />
      <path d="M -11.365663,-5.969975 C -11.122816,-5.97215 -10.877608,-5.9658 -10.699324,-5.949317" />
      <path d="M -10.631988,-4.015359 Q -10.718792,-4.186156 -10.760843,-4.359021" />
      <path d="M -10.760843,-4.359021 C -10.767373,-4.387731 -10.865608,-4.408248 -10.96967,-4.417967 C -11.075294,-4.428072 -11.182268,-4.429721 -11.269176,-4.429496" />
      <path d="M -11.269176,-4.429496 C -11.517388,-4.42981 -11.861145,-4.458795 -12.162168,-4.496877 C -12.468934,-4.535516 -12.735451,-4.580611 -12.999234,-4.6321" />
      <path d="M -12.999234,-4.6321 L -13.0,-4.681645" />
      <path d="M -11.269176,-4.933795 C -11.182268,-4.933571 -11.075294,-4.935219 -10.96967,-4.945324 C -10.865608,-4.955043 -10.767373,-4.975559 -10.760843,-5.00427" />
      <path d="M -12.612525,-4.801027 C -12.403333,-4.836039 -12.178856,-4.866379 -11.939095,-4.892047 C -11.702639,-4.916845 -11.456479,-4.933513 -11.269176,-4.933795" />
      <path d="M 10.631988,-4.015359 Q 10.692676,0.541693 10.631988,5.347933" />
      <path d="M 11.071052,-3.90109 Q 11.138582,0.40229 11.078426,4.937627" />
      <path d="M 12.592817,-3.548166 Q 12.686369,0.508243 12.612525,4.801028" />
      <path d="M 12.519775,-3.452451 Q 12.40007,1.375426 12.519775,5.910841" />
      <path d="M 10.699324,-3.413974 Q 10.576405,1.392588 10.699324,5.949318" />
      <path d="M 10.156364,-3.392097 Q 10.0315,1.408105 10.156364,5.971195" />
      <path d="M 10.118454,-6.441713 Q 10.283099,-1.64122 10.118454,2.921578" />
      <path d="M 8.258779,-7.125237 Q 8.486848,-2.386036 8.262568,2.161887" />
      <path d="M 8.859746,-6.850238 Q 8.665389,-2.572059 8.834251,1.88628" />
      <path d="M 9.374939,-6.288928 Q 9.236802,-2.83963 9.337152,0.733532" />
      <path d="M 9.778581,-3.071854 Q 9.929041,1.494958 9.778581,6.291438" />
      <path d="M 10.118454,-2.921578 Q 10.275404,1.427983 10.133124,5.993542" />
      <path d="M 11.32822,-2.442385 Q 11.517283,1.655732 11.365663,5.969975" />
      <path d="M 11.187114,-2.35657 Q 10.963699,2.455446 11.187114,7.006722" />
      <path d="M 9.400331,-2.484841 Q 9.189523,2.306294 9.400331,6.87845" />
      <path d="M 8.859746,-2.513053 Q 8.651747,2.271762 8.859746,6.850239" />
      <path d="M 8.258779,-2.238054 Q 8.488759,2.346345 8.258779,7.125238" />
      <path d="M 8.476301,-2.062011 Q 8.715821,2.387564 8.490126,7.025451" />
      <path d="M 9.291623,-1.489207 Q 9.560786,2.601773 9.348274,6.868111" />
      <path d="M 9.09207,-1.419139 Q 8.780169,3.368132 9.09207,7.944153" />
      <path d="M 7.460721,-1.705418 Q 7.17639,3.062829 7.460721,7.657874" />
      <path d="M 6.959351,-1.781795 Q 6.682391,2.980603 6.959351,7.581497" />
      <path d="M 6.176155,-7.79251 Q 6.465463,-3.110945 6.185053,1.429011" />
      <path d="M 8.476301,-7.30128 Q 8.72294,-2.519798 8.476301,2.062012" />
      <path d="M 6.176155,-1.570781 Q 6.469981,3.037831 6.176155,7.792511" />
      <path d="M 6.256501,-1.380969 Q 6.561338,3.123395 6.270164,7.769238" />
      <path d="M 6.621818,-0.753587 Q 6.662462,-0.249697 6.694208,0.256074" />
      <path d="M 6.694208,0.256074 Q 6.92346,3.908513 6.688668,7.658993" />
      <path d="M 6.377416,-0.704042 Q 5.998285,4.051285 6.377416,8.65925" />
      <path d="M 5.012675,-1.128819 Q 4.674197,3.610637 5.012675,8.234473" />
      <path d="M 4.584688,-1.248157 Q 4.257642,3.48632 4.584688,8.115135" />
      <path d="M 3.672637,-8.247783 Q 3.906576,-4.973735 3.816346,-1.74178" />
      <path d="M 6.256501,-7.982322 Q 6.568326,-3.226657 6.256501,1.38097" />
      <path d="M 3.672637,-1.115508 Q 4.010285,3.522295 3.672637,8.247784" />
      <path d="M 3.610331,-0.924862 Q 3.959368,3.625947 3.623526,8.259843" />
      <path d="M 3.500747,-0.285659 Q 3.917214,4.353956 3.500747,9.077633" />
      <path d="M 3.228152,-0.260012 Q 2.807628,4.458349 3.228152,9.103279" />
      <path d="M 2.223024,-0.79434 Q 1.853466,3.912387 2.223024,8.568952" />
      <path d="M 1.897586,-0.948505 Q 1.542741,3.75445 1.897586,8.414787" />
      <path d="M 3.610331,-8.438429 Q 3.966093,-3.713624 3.610331,0.924863" />
      <path d="M 0.918834,-0.903261 Q 1.277295,3.76672 0.918834,8.460031" />
      <path d="M 0.718123,-0.724774 Q 0.782665,0.078409 0.825017,0.882144" />
      <path d="M 0.825017,0.882144 Q 0.867809,1.694249 0.887948,2.506918" />
      <path d="M 0.887948,2.506918 Q 0.963318,5.548413 0.721367,8.597818" />
      <path d="M 0.141106,-0.11731 Q 0.574364,4.561585 0.141106,9.245982" />
      <path d="M -0.141106,-0.11731 Q -0.574364,4.561585 -0.141106,9.245982" />
      <path d="M -0.718123,-0.724774 Q -0.782665,0.078409 -0.825017,0.882144" />
      <path d="M -0.825017,0.882144 Q -0.867809,1.694249 -0.887948,2.506918" />
      <path d="M -0.887948,2.506918 Q -0.963318,5.548413 -0.721367,8.597818" />
      <path d="M -0.918834,-0.903261 Q -1.277295,3.76672 -0.918834,8.460031" />
      <path d="M -0.718123,-8.638518 Q -0.963821,-5.568709 -0.887948,-2.506915" />
      <path d="M 0.718123,-8.638518 Q 0.963821,-5.568709 0.887948,-2.506915" />
      <path d="M -1.897586,-0.948505 Q -1.542741,3.75445 -1.897586,8.414787" />
      <path d="M -2.223024,-0.79434 Q -1.853466,3.912387 -2.223024,8.568952" />
      <path d="M -3.228152,-0.260012 Q -2.807628,4.458349 -3.228152,9.103279" />
      <path d="M -3.500747,-0.285659 Q -3.917214,4.353956 -3.500747,9.077633" />
      <path d="M -3.610331,-0.924862 Q -3.959368,3.625947 -3.623526,8.259843" />
      <path d="M -3.672637,-1.115508 Q -4.010285,3.522295 -3.672637,8.247784" />
      <path d="M -3.672637,-8.247783 Q -3.906576,-4.973735 -3.816346,-1.74178" />
      <path d="M -3.610331,-8.438429 Q -3.966093,-3.713624 -3.610331,0.924863" />
      <path d="M -4.584688,-1.248157 Q -4.257642,3.48632 -4.584688,8.115135" />
      <path d="M -5.012675,-1.128819 Q -4.674197,3.610637 -5.012675,8.234473" />
      <path d="M -6.377416,-0.704042 Q -5.998285,4.051285 -6.377416,8.65925" />
      <path d="M -6.621818,-0.753587 Q -6.662462,-0.249697 -6.694208,0.256074" />
      <path d="M -6.694208,0.256074 Q -6.92346,3.908513 -6.688668,7.658993" />
      <path d="M -6.256501,-1.380969 Q -6.561338,3.123395 -6.270164,7.769238" />
      <path d="M -6.176155,-1.570781 Q -6.469981,3.037831 -6.176155,7.792511" />
      <path d="M -6.176155,-7.79251 Q -6.465463,-3.110945 -6.185053,1.429011" />
      <path d="M -6.256501,-7.982322 Q -6.568326,-3.226657 -6.256501,1.38097" />
      <path d="M -6.959351,-1.781795 Q -6.682391,2.980603 -6.959351,7.581497" />
      <path d="M -7.460721,-1.705418 Q -7.17639,3.062829 -7.460721,7.657874" />
      <path d="M -9.09207,-1.419139 Q -8.780169,3.368132 -9.09207,7.944153" />
      <path d="M -9.291623,-1.489207 Q -9.560786,2.601773 -9.348274,6.868111" />
      <path d="M -8.476301,-2.062011 Q -8.715821,2.387564 -8.490126,7.025451" />
      <path d="M -8.258779,-2.238054 Q -8.488759,2.346345 -8.258779,7.125238" />
      <path d="M -8.859746,-6.850238 Q -8.665389,-2.572059 -8.834251,1.88628" />
      <path d="M -8.258779,-7.125237 Q -8.486848,-2.386036 -8.262568,2.161887" />
      <path d="M -8.476301,-7.30128 Q -8.72294,-2.519798 -8.476301,2.062012" />
      <path d="M -8.859746,-2.513053 Q -8.651747,2.271762 -8.859746,6.850239" />
      <path d="M -9.400331,-2.484841 Q -9.189523,2.306294 -9.400331,6.87845" />
      <path d="M -11.187114,-2.35657 Q -10.963699,2.455446 -11.187114,7.006722" />
      <path d="M -11.32822,-2.442385 Q -11.517283,1.655732 -11.365663,5.969975" />
      <path d="M -10.118454,-2.921578 Q -10.275404,1.427983 -10.133124,5.993542" />
      <path d="M -9.778581,-3.071854 Q -9.929041,1.494958 -9.778581,6.291438" />
      <path d="M -10.156364,-5.971194 Q -10.037699,-1.634648 -10.144582,2.916051" />
      <path d="M -9.778581,-6.291437 Q -9.928397,-1.515486 -9.779863,3.03276" />
      <path d="M -10.118454,-6.441713 Q -10.283099,-1.64122 -10.118454,2.921578" />
      <path d="M -9.374939,-6.288928 Q -9.236802,-2.83963 -9.337152,0.733532" />
      <path d="M -10.156364,-3.392097 Q -10.0315,1.408105 -10.156364,5.971195" />
      <path d="M -10.699324,-3.413974 Q -10.576405,1.392588 -10.699324,5.949318" />
      <path d="M -12.519775,-3.452451 Q -12.40007,1.375426 -12.519775,5.910841" />
      <path d="M -12.592817,-3.548166 Q -12.686369,0.508243 -12.612525,4.801028" />
      <path d="M -11.071052,-3.90109 Q -11.138582,0.40229 -11.078426,4.937627" />
      <path d="M -10.631988,-4.015359 Q -10.692676,0.541693 -10.631988,5.347933" />
      <path d="M -10.760843,-5.00427 Q -10.72905,-0.644149 -10.758112,3.946542" />
      <path d="M -10.631988,-5.347932 Q -10.692582,-0.549133 -10.632176,4.001249" />
      <path d="M -11.071052,-5.462201 Q -11.142482,-0.650795 -11.071052,3.90109" />
      <path d="M -10.699324,-5.949317 Q -10.584896,-1.707353 -10.683516,2.75112" />
      <path d="M -10.760843,-4.359021 Q -10.727623,0.448488 -10.760843,5.00427" />
      <path d="M -11.269176,-4.429496 Q -11.242523,0.383981 -11.269176,4.933796" />
      <path d="M -12.999234,-4.6321 Q -12.991398,0.201673 -12.999234,4.731192" />
      <path d="M -11.269176,-4.933795 Q -11.244055,-0.645507 -11.266288,3.877002" />
      <path d="M 10.630323,-5.354548 C 10.671183,-2.15507 10.671182,0.976803 10.630323,4.008373" />
      <path d="M 10.630323,-4.008372 C 10.671182,-0.976802 10.671183,2.155071 10.630323,5.354549" />
      <path d="M 9.767877,-6.30857 C 9.869246,-3.115721 9.86924,0.015979 9.767878,3.053623" />
      <path d="M 9.767878,-3.053622 C 9.86924,-0.015978 9.869246,3.115721 9.767877,6.308571" />
      <path d="M 8.230252,-2.205994 C 8.3854,0.842446 8.385417,3.973887 8.230248,7.154898" />
      <path d="M 8.230248,-7.154897 C 8.385417,-3.973886 8.3854,-0.842445 8.230252,2.205995" />
      <path d="M 6.118018,-1.517539 C 6.316849,1.544788 6.316892,4.675678 6.118007,7.840431" />
      <path d="M 6.619869,-0.785091 Q 6.661462,-0.265416 6.694208,0.256074" />
      <path d="M 6.118007,-7.84043 C 6.316892,-4.675677 6.316849,-1.544787 6.118018,1.51754" />
      <path d="M 3.564758,-1.020802 C 3.794882,2.055167 3.794988,5.184608 3.564724,8.329797" />
      <path d="M 3.66891,-0.757834 C 3.909325,2.231708 3.920999,5.248074 3.701925,8.244048" />
      <path d="M 3.564724,-8.329796 C 3.794987,-5.184607 3.794882,-2.055166 3.564758,1.020803" />
      <path d="M 0.718646,8.617573 C 0.92468,6.031547 0.960108,3.443658 0.825017,0.882144" />
      <path d="M 0.887948,2.506918 Q 0.963243,5.557033 0.721844,8.595509" />
      <path d="M -0.825017,0.882144 C -0.960108,3.443664 -0.92468,6.031533 -0.718646,8.617573" />
      <path d="M -0.721844,8.595509 Q -0.963243,5.557033 -0.887948,2.506918" />
      <path d="M -0.718646,-8.617572 C -0.92468,-6.031548 -0.960108,-3.443659 -0.825017,-0.882146" />
      <path d="M 0.718646,-8.617572 C 0.92468,-6.031547 0.960108,-3.443659 0.825017,-0.882145" />
      <path d="M -3.564758,-1.020802 C -3.794882,2.055167 -3.794987,5.184608 -3.564724,8.329797" />
      <path d="M -3.66891,-0.757834 C -3.909325,2.231708 -3.920999,5.248074 -3.701925,8.244048" />
      <path d="M -3.564724,-8.329796 C -3.794987,-5.184607 -3.794882,-2.055166 -3.564758,1.020803" />
      <path d="M -6.118018,-1.517539 C -6.316849,1.544788 -6.316892,4.675678 -6.118007,7.840431" />
      <path d="M -6.619869,-0.785091 Q -6.661462,-0.265416 -6.694208,0.256074" />
      <path d="M -6.118007,-7.84043 C -6.316892,-4.675677 -6.316849,-1.544787 -6.118018,1.51754" />
      <path d="M -8.230252,-2.205994 C -8.3854,0.842446 -8.385417,3.973887 -8.230248,7.154898" />
      <path d="M -8.230248,-7.154897 C -8.385417,-3.973886 -8.3854,-0.842445 -8.230252,2.205995" />
      <path d="M -9.767878,-3.053622 C -9.86924,-0.015978 -9.869246,3.115721 -9.767877,6.308571" />
      <path d="M -9.767877,-6.30857 C -9.869246,-3.115721 -9.86924,0.015979 -9.767878,3.053623" />
      <path d="M -10.630323,-4.008372 C -10.671182,-0.976802 -10.671183,2.155071 -10.630323,5.354549" />
      <path d="M -10.630323,-5.354548 C -10.671183,-2.15507 -10.671182,0.976803 -10.630323,4.008373" />
    </g>
  </g>
</svg>