<?xml version='1.0' encoding='utf-8'?>
<svg width="100.09mm" height="85.537845mm" viewBox="-17.550722 -15.68369 31.666696 27.062653" version="1.1" xmlns="http://www.w3.org/2000/svg">
  <g transform="scale(1,-1)" stroke-linecap="round">
    <g fill="none" stroke="rgb(0,0,0)" stroke-width="0.028474399453309956" id="Visible">
      <path d="M 11.875273,3.307387 Q 12.053333,3.374163 12.217652,3.466418" />
      <path d="M 12.217652,3.466418 C 12.276226,3.795604 12.305157,4.152781 12.287988,4.503683 C 12.280877,4.660768 12.261371,4.811595 12.229469,4.956163" />
      <path d="M 12.229469,4.956163 Q 12.152431,5.138758 12.099667,5.343138" />
      <path d="M 13.403324,4.861594 Q 13.486379,5.060425 13.549701,5.277681" />
      <path d="M 13.549701,5.277681 C 13.494429,5.619351 13.410481,5.968391 13.298576,6.28013 C 13.248773,6.420171 13.193347,6.54526 13.132295,6.655398" />
      <path d="M 13.132295,6.655398 C 13.0777,6.717392 13.023837,6.7894 12.970705,6.87142 C 12.926081,6.940041 12.88511,7.017517 12.847792,7.103847 C 12.805783,7.202629 12.773914,7.319773 12.783783,7.398895" />
      <path d="M 12.783783,7.398895 Q 12.801684,7.554922 12.807573,7.718699" />
      <path d="M 13.397472,7.59089 C 13.516185,7.563851 13.614509,7.591742 13.689259,7.649578" />
      <path d="M 13.689259,7.649578 Q 13.655055,7.927187 13.600411,8.211231" />
      <path d="M 13.600411,8.211231 C 13.468034,8.486608 13.316559,8.747301 13.162045,8.949244 C 13.092779,9.040474 13.025933,9.11193 12.961507,9.163611" />
      <path d="M 12.961507,9.163611 C 12.918047,9.171699 12.870127,9.192032 12.817746,9.224609 C 12.773849,9.251701 12.727352,9.292405 12.678255,9.346721 C 12.622371,9.40953 12.562409,9.502738 12.534024,9.597127" />
      <path d="M 12.534024,9.597127 Q 12.454767,9.855578 12.354351,10.113535" />
      <path d="M 12.354351,10.113535 C 12.301466,10.249246 12.327019,10.332853 12.369279,10.361544" />
      <path d="M 12.547103,10.354673 C 12.638974,10.386576 12.672381,10.524803 12.674973,10.682381 C 12.675718,10.757574 12.669547,10.838214 12.656462,10.9243" />
      <path d="M 12.656462,10.9243 Q 12.514163,11.206301 12.356196,11.481025" />
      <path d="M 12.356196,11.481025 C 12.306449,11.529599 12.256924,11.573957 12.207622,11.614097 C 12.059784,11.733748 11.909097,11.82175 11.801804,11.81758" />
      <path d="M 11.46198,11.792998 Q 11.440586,11.81655 11.420512,11.844968" />
      <path d="M 11.420512,11.844968 Q 11.258183,12.074167 11.082746,12.287944" />
      <path d="M 11.082746,12.287944 C 11.033503,12.347312 10.995539,12.420199 10.973734,12.483131 C 10.954748,12.539415 10.943993,12.589224 10.94147,12.632558 C 10.935203,12.724467 10.95439,12.785252 10.983834,12.830423" />
      <path d="M 10.983834,12.830423 C 10.979258,12.989557 10.888121,13.229079 10.769929,13.467333 C 10.71363,13.580176 10.650877,13.693832 10.581669,13.808301" />
      <path d="M 10.581669,13.808301 Q 10.369405,14.019132 10.150442,14.210923" />
      <path d="M 10.150442,14.210923 Q 10.112692,14.209116 10.078088,14.200286" />
      <path d="M 9.170649,13.944044 C 9.07751,14.063953 9.016239,14.189686 8.974947,14.296181 C 8.953118,14.353599 8.935679,14.408391 8.922629,14.460558" />
      <path d="M 8.922629,14.460558 C 8.801985,14.692139 8.588371,14.955756 8.35904,15.198017 C 8.250448,15.312255 8.137708,15.422521 8.020821,15.528815" />
      <path d="M 8.020821,15.528815 Q 7.795467,15.611985 7.574179,15.669453" />
      <path d="M 6.649762,15.043439 C 6.34779,15.277224 5.999302,15.473164 5.660094,15.624832" />
      <path d="M 5.660094,15.624832 Q 5.482033,15.558055 5.317714,15.465801" />
      <path d="M 4.264524,14.069572 L 4.132042,14.070625" />
      <path d="M 8.171069,3.289206 Q 8.013274,3.31539 7.844554,3.345152" />
      <path d="M 7.720127,3.298428 Q 7.783492,3.31954 7.844554,3.345152" />
      <path d="M 7.591392,3.260801 Q 7.656816,3.277337 7.720127,3.298428" />
      <path d="M 8.066719,3.204638 Q 7.843104,3.226352 7.591392,3.260801" />
      <path d="M 8.588733,4.356487 Q 8.260228,4.363741 7.898793,4.378962" />
      <path d="M 7.844554,3.345152 C 7.918108,3.665898 7.957543,4.051389 7.898793,4.378962" />
      <path d="M 8.198144,5.014573 Q 8.020434,5.006159 7.835961,4.998569" />
      <path d="M 7.898793,4.378962 C 7.868949,4.458286 7.843909,4.540699 7.823672,4.626198 C 7.80766,4.693665 7.797996,4.760743 7.794681,4.827432 C 7.791488,4.903828 7.803428,4.974468 7.835961,4.998569" />
      <path d="M 8.084528,5.164007 L 8.00951,5.16266" />
      <path d="M 7.835961,4.998569 Q 7.929264,5.071274 8.00951,5.16266" />
      <path d="M 8.00951,5.16266 Q 8.023914,5.179072 8.04289,5.17921" />
      <path d="M 8.04289,5.17921 C 8.088984,5.179179 8.14308,5.113474 8.18532,5.038171 C 8.231009,4.954334 8.268927,4.860752 8.299074,4.757427" />
      <path d="M 11.875273,3.307387 C 11.096507,3.534797 10.042972,3.902229 8.756335,4.20724" />
      <path d="M 8.299074,4.757427 C 8.430504,4.498525 8.610587,4.320681 8.756335,4.20724" />
      <path d="M 12.217652,3.466418 C 11.358472,3.762805 10.228208,4.166465 8.879028,4.478258" />
      <path d="M 8.756335,4.20724 Q 8.824404,4.335868 8.879028,4.478258" />
      <path d="M 12.229469,4.956163 C 11.223848,5.120419 10.006173,5.344598 8.619523,5.465271" />
      <path d="M 8.879028,4.478258 C 8.848339,4.73098 8.793888,4.998012 8.715741,5.231057 C 8.686792,5.317859 8.654719,5.395931 8.619523,5.465271" />
      <path d="M 9.386302,5.989445 Q 8.901746,6.005207 8.391089,6.005535" />
      <path d="M 8.619523,5.465271 C 8.579405,5.51562 8.540501,5.573322 8.502813,5.638376 C 8.473044,5.68968 8.446631,5.746012 8.423573,5.807371 C 8.3975,5.878132 8.381224,5.955925 8.391089,6.005535" />
      <path d="M 8.590246,6.309553 L 8.428971,6.30848" />
      <path d="M 8.391089,6.005535 Q 8.418203,6.1513 8.428971,6.30848" />
      <path d="M 8.428971,6.30848 Q 8.435854,6.376227 8.478394,6.374746" />
      <path d="M 8.478394,6.374746 C 8.548749,6.370068 8.634143,6.272439 8.706896,6.163993" />
      <path d="M 13.403324,4.861594 Q 12.704298,5.149038 11.919991,5.401539" />
      <path d="M 11.919991,5.401539 C 11.03948,5.683051 10.084729,5.919376 9.078051,6.069844" />
      <path d="M 8.706896,6.163993 C 8.78811,6.08766 8.867858,6.057336 8.936157,6.048864" />
      <path d="M 8.936157,6.048864 Q 9.017599,6.040453 9.078051,6.069844" />
      <path d="M 13.549701,5.277681 C 12.219198,5.808191 10.68331,6.251726 9.0374,6.454908" />
      <path d="M 9.078051,6.069844 Q 9.064951,6.259518 9.0374,6.454908" />
      <path d="M 13.132295,6.655398 C 11.744559,6.964797 10.209606,7.176031 8.600722,7.169706" />
      <path d="M 9.0374,6.454908 C 8.945612,6.666119 8.83512,6.873361 8.722395,7.02904 C 8.680473,7.087179 8.639915,7.134068 8.600722,7.169706" />
      <path d="M 12.783783,7.398895 C 11.38528,7.564591 9.872205,7.633821 8.302543,7.506045" />
      <path d="M 8.600722,7.169706 C 8.566741,7.180886 8.529859,7.201596 8.490077,7.231837 C 8.458679,7.255649 8.426395,7.288355 8.393225,7.329954 C 8.3552,7.378416 8.318046,7.444252 8.302543,7.506045" />
      <path d="M 11.027166,7.975079 C 10.104699,8.003092 9.156149,7.973403 8.194608,7.866669" />
      <path d="M 8.302543,7.506045 Q 8.256204,7.685813 8.194608,7.866669" />
      <path d="M 8.452097,8.008374 L 8.351776,8.001462" />
      <path d="M 8.194608,7.866669 C 8.156004,7.980931 8.196039,8.031821 8.242621,8.033965" />
      <path d="M 8.242621,8.033965 Q 8.291559,8.036745 8.351776,8.001462" />
      <path d="M 13.689259,7.649578 C 12.019419,8.141974 10.245048,8.404737 8.470336,8.349528" />
      <path d="M 8.351776,8.001462 C 8.453447,8.017057 8.482501,8.179413 8.470336,8.349528" />
      <path d="M 13.600411,8.211231 C 11.871323,8.66842 10.062714,8.87068 8.277234,8.745462" />
      <path d="M 8.470336,8.349528 Q 8.379578,8.549425 8.277234,8.745462" />
      <path d="M 12.961507,9.163611 Q 12.658231,9.199616 12.353529,9.225772" />
      <path d="M 12.353529,9.225772 C 10.890382,9.351279 9.405824,9.304225 7.946542,9.052951" />
      <path d="M 7.946542,9.052951 L 7.850361,9.036086" />
      <path d="M 8.277234,8.745462 C 8.165036,8.867944 8.045272,8.969862 7.944433,9.015931 C 7.907543,9.03299 7.875701,9.039627 7.848907,9.035842" />
      <path d="M 7.848907,9.035842 L 7.847429,9.035563" />
      <path d="M 12.534024,9.597127 C 10.886671,9.646071 9.221717,9.492727 7.594051,9.098038" />
      <path d="M 7.847429,9.035563 Q 7.825835,8.988899 7.779455,8.97716" />
      <path d="M 7.779455,8.97716 C 7.73775,8.966516 7.660409,8.99603 7.594051,9.098038" />
      <path d="M 12.354351,10.113535 C 10.669489,10.109062 8.990924,9.885864 7.369218,9.419713" />
      <path d="M 7.594051,9.098038 Q 7.486674,9.26364 7.369218,9.419713" />
      <path d="M 12.547103,10.354673 Q 11.124977,10.417145 9.73202,10.251029" />
      <path d="M 9.73202,10.251029 Q 8.508829,10.104984 7.328869,9.777485" />
      <path d="M 7.369218,9.419713 C 7.302165,9.508653 7.280684,9.610043 7.285405,9.668626 C 7.28995,9.719223 7.304438,9.755509 7.328869,9.777485" />
      <path d="M 12.656462,10.9243 C 10.730312,11.100847 8.850195,10.936112 7.096028,10.435454" />
      <path d="M 7.328869,9.777485 C 7.331432,9.815227 7.326332,9.860909 7.31357,9.91453 C 7.277986,10.065883 7.195608,10.254313 7.096028,10.435454" />
      <path d="M 12.356196,11.481025 C 10.408061,11.577094 8.532707,11.32158 6.802215,10.736167" />
      <path d="M 7.096028,10.435454 Q 6.951929,10.592011 6.802215,10.736167" />
      <path d="M 6.802215,10.736167 Q 6.731613,10.745117 6.6735,10.723746" />
      <path d="M 6.6735,10.723746 C 6.614708,10.700855 6.565251,10.653386 6.561488,10.562888" />
      <path d="M 11.420512,11.844968 Q 10.971538,11.7797 10.530582,11.692706" />
      <path d="M 6.587131,10.416344 L 6.45545,10.354941" />
      <path d="M 6.561488,10.562888 C 6.59178,10.459621 6.603983,10.356826 6.549571,10.32702" />
      <path d="M 6.549571,10.32702 Q 6.51634,10.310424 6.45545,10.354941" />
      <path d="M 11.082746,12.287944 C 9.329132,11.947915 7.6872,11.355807 6.173965,10.551475" />
      <path d="M 6.45545,10.354941 Q 6.315807,10.462005 6.173965,10.551475" />
      <path d="M 10.983834,12.830423 C 9.14758,12.501074 7.449876,11.877017 5.912261,11.01618" />
      <path d="M 6.173965,10.551475 C 6.093096,10.60233 6.018107,10.720233 5.978574,10.808954 C 5.944681,10.885962 5.922576,10.955038 5.912261,11.01618" />
      <path d="M 10.581669,13.808301 C 8.63155,13.456399 6.870826,12.746002 5.32337,11.768699" />
      <path d="M 5.912261,11.01618 C 5.884814,11.075052 5.848645,11.137831 5.803755,11.204518 C 5.677179,11.393235 5.502862,11.592552 5.32337,11.768699" />
      <path d="M 10.150442,14.210923 Q 9.591314,14.078539 9.055919,13.907959" />
      <path d="M 9.055919,13.907959 C 7.56576,13.433688 6.21424,12.744023 5.007575,11.893615" />
      <path d="M 5.32337,11.768699 Q 5.164542,11.839967 5.007575,11.893615" />
      <path d="M 5.007575,11.893615 C 4.980559,11.763619 4.981255,11.570775 5.087465,11.342436" />
      <path d="M 5.251512,10.985834 L 5.191829,10.939969" />
      <path d="M 5.087465,11.342436 C 5.135631,11.276706 5.175395,11.212226 5.206759,11.148996 C 5.246963,11.066689 5.271056,10.978111 5.233165,10.947547" />
      <path d="M 5.233165,10.947547 Q 5.218314,10.936107 5.191829,10.939969" />
      <path d="M 5.191965,11.178079 L 4.929115,10.9587" />
      <path d="M 5.191829,10.939969 Q 5.057338,10.959806 4.929115,10.9587" />
      <path d="M 8.922629,14.460558 C 7.539519,13.792734 6.30791,12.963567 5.207965,12.032449" />
      <path d="M 4.999975,11.853819 Q 4.73564,11.623434 4.481532,11.385637" />
      <path d="M 4.929115,10.9587 C 4.856115,10.957853 4.740254,11.056333 4.659749,11.147161 C 4.590166,11.226258 4.530761,11.30575 4.481532,11.385637" />
      <path d="M 8.020821,15.528815 C 6.285494,14.577461 4.83731,13.349448 3.627346,11.992021" />
      <path d="M 4.481532,11.385637 C 4.265297,11.621849 3.932306,11.83833 3.627346,11.992021" />
      <path d="M 7.574179,15.669453 C 5.8975,14.618125 4.518146,13.313346 3.374185,11.907669" />
      <path d="M 3.627346,11.992021 Q 3.496347,11.958904 3.374185,11.907669" />
      <path d="M 3.374185,11.907669 C 3.46499,11.682662 3.605419,11.40194 3.820324,11.165328" />
      <path d="M 4.15449,10.710912 L 4.141774,10.696363" />
      <path d="M 3.820324,11.165328 C 3.892421,11.110615 3.958219,11.051944 4.017717,10.989314 C 4.110092,10.892534 4.195094,10.759357 4.148848,10.702964" />
      <path d="M 4.148848,10.702964 L 4.141774,10.696363" />
      <path d="M 4.159563,10.766456 L 3.968224,10.532272" />
      <path d="M 4.141774,10.696363 Q 4.048471,10.623658 3.968224,10.532272" />
      <path d="M 3.749339,11.247178 Q 3.581515,11.017092 3.420043,10.786863" />
      <path d="M 3.968224,10.532272 C 3.92267,10.47996 3.789527,10.528286 3.682309,10.592625 C 3.589348,10.648927 3.501926,10.713673 3.420043,10.786863" />
      <path d="M 5.660094,15.624832 C 4.346633,14.191864 3.33428,12.645695 2.51083,11.134796" />
      <path d="M 2.51083,11.134796 L 2.462403,11.045581" />
      <path d="M 3.420043,10.786863 C 3.132437,10.954793 2.77253,11.02789 2.462403,11.045581" />
      <path d="M 5.317714,15.465801 C 4.335336,14.271755 3.541359,13.025976 2.874266,11.801697" />
      <path d="M 2.462403,11.045581 Q 2.394334,10.916953 2.33971,10.774564" />
      <path d="M 2.33971,10.774564 C 2.490536,10.591821 2.673084,10.399404 2.872593,10.237052 C 2.946633,10.176515 3.0223,10.123837 3.099595,10.079018" />
      <path d="M 3.099595,10.079018 C 3.181966,10.053281 3.261626,10.01932 3.338577,9.977136 C 3.399322,9.943876 3.454112,9.904073 3.502946,9.857729 C 3.558424,9.804096 3.596936,9.739255 3.586646,9.689397" />
      <path d="M 3.586646,9.689397 Q 3.559531,9.543632 3.548764,9.386453" />
      <path d="M 3.321697,9.986389 Q 3.163745,9.679256 3.012222,9.380297" />
      <path d="M 3.548764,9.386453 Q 3.547339,9.364587 3.536756,9.347316" />
      <path d="M 3.536756,9.347316 C 3.50093,9.289893 3.402409,9.281301 3.308158,9.293933 C 3.210395,9.308666 3.111749,9.337453 3.012222,9.380297" />
      <path d="M 4.132042,14.070625 Q 3.950701,13.705891 3.783838,13.346056" />
      <path d="M 2.605061,10.480903 Q 2.358825,9.81045 2.140687,9.182978" />
      <path d="M 3.012222,9.380297 C 2.709384,9.422762 2.394905,9.318854 2.140687,9.182978" />
      <path d="M 2.140687,9.182978 Q 2.153787,8.993304 2.181338,8.797913" />
      <path d="M 2.181338,8.797913 C 2.393264,8.656681 2.631851,8.524055 2.865939,8.439069 C 2.952952,8.407195 3.037104,8.3857 3.118395,8.374584" />
      <path d="M 3.118395,8.374584 C 3.19463,8.388016 3.272269,8.391046 3.351312,8.383675 C 3.413687,8.377907 3.474348,8.36173 3.533294,8.335145 C 3.600724,8.303812 3.660114,8.250928 3.675191,8.188888" />
      <path d="M 3.675191,8.188888 Q 3.72153,8.009119 3.783127,7.828263" />
      <path d="M 3.663642,8.219896 Q 3.515478,7.869456 3.367341,7.542828" />
      <path d="M 3.783127,7.828263 Q 3.803376,7.764269 3.772094,7.709667" />
      <path d="M 3.772094,7.709667 Q 3.726002,7.636177 3.63755,7.599069 Q 3.513495,7.547358 3.367341,7.542828" />
      <path d="M 3.13489,8.377156 Q 2.942531,7.57772 2.748402,6.903293" />
      <path d="M 3.367341,7.542828 C 3.300353,7.515882 3.236683,7.478375 3.176332,7.430306 C 3.004958,7.294875 2.860922,7.102348 2.748402,6.903293" />
      <path d="M 2.748402,6.903293 Q 2.839161,6.703396 2.941505,6.507359" />
      <path d="M 2.941505,6.507359 C 3.173839,6.454857 3.421699,6.427554 3.643901,6.452178 C 3.726613,6.461026 3.802543,6.479875 3.871688,6.508726" />
      <path d="M 3.871688,6.508726 C 3.92702,6.561026 3.987295,6.603416 4.052512,6.635897 C 4.103954,6.661584 4.158032,6.675582 4.214748,6.677892 C 4.280004,6.679549 4.347336,6.654527 4.383684,6.596894" />
      <path d="M 4.383684,6.596894 Q 4.491061,6.431292 4.608516,6.275219" />
      <path d="M 4.641126,6.201637 Q 4.520403,5.972981 4.390249,5.766804" />
      <path d="M 4.608516,6.275219 C 4.643654,6.229672 4.652103,6.166091 4.641029,6.106894 C 4.628146,6.045167 4.603442,5.989257 4.566916,5.939163" />
      <path d="M 4.566916,5.939163 Q 4.492886,5.837677 4.390249,5.766804" />
      <path d="M 4.595027,6.293219 Q 4.570996,6.180518 4.545745,6.072667" />
      <path d="M 4.390249,5.766804 L 4.363518,5.726791" />
      <path d="M 4.363518,5.726791 C 4.218361,5.484799 4.152076,5.137154 4.12271,4.817368" />
      <path d="M 4.12271,4.817368 Q 4.266809,4.66081 4.416523,4.516655" />
      <path d="M 5.158052,4.981834 L 5.15763,4.981401" />
      <path d="M 4.416523,4.516655 C 4.660398,4.587896 4.909653,4.706949 5.084657,4.889985" />
      <path d="M 5.084657,4.889985 Q 5.125145,4.933037 5.15763,4.981401" />
      <path d="M 5.15763,4.981401 C 5.199053,5.107508 5.25276,5.226488 5.336489,5.306768" />
      <path d="M 5.336489,5.306768 C 5.391493,5.359586 5.464724,5.385476 5.522284,5.339991" />
      <path d="M 5.522284,5.339991 Q 5.661927,5.232927 5.80377,5.143457" />
      <path d="M 5.80377,5.143457 C 5.884758,5.092672 5.904093,4.942351 5.889055,4.821842 C 5.875677,4.717299 5.848277,4.619388 5.806857,4.52811" />
      <path d="M 5.806857,4.52811 C 5.793771,4.445627 5.787985,4.358409 5.789498,4.266456 C 5.793178,4.006153 5.837703,3.731234 5.895368,3.484123" />
      <path d="M 6.238545,3.367316 L 6.211163,3.359207" />
      <path d="M 5.895368,3.484123 Q 6.054196,3.412854 6.211163,3.359207" />
      <path d="M 6.851778,4.268026 Q 6.744751,4.232638 6.631652,4.201853" />
      <path d="M 6.211163,3.359207 C 6.40254,3.584941 6.581707,3.882554 6.631652,4.201853" />
      <path d="M 6.631652,4.201853 C 6.62574,4.292196 6.626732,4.380417 6.63463,4.466517 C 6.646622,4.590876 6.683932,4.728813 6.757634,4.753047" />
      <path d="M 6.757634,4.753047 Q 6.771413,4.75719 6.785905,4.754963" />
      <path d="M 6.785905,4.754963 Q 6.920397,4.735126 7.04862,4.736233" />
      <path d="M 7.04862,4.736233 C 7.121739,4.737149 7.181945,4.60625 7.20788,4.483635 C 7.230191,4.377003 7.240093,4.268675 7.237586,4.158652" />
      <path d="M 7.237586,4.158652 C 7.297645,3.831469 7.450811,3.51024 7.591392,3.260801" />
      <path d="M 7.342821,5.34718 A 2.8637895161823494,1.7027634560458458 -59.77946121738467 0,0 4.844501,10.469836 A 2.8637895161823494,1.7027634560458458 -59.77946121738467 0,0 7.342821,5.34718" />
      <path d="M 14.099365,-0.675747 Q 14.095888,-0.562781 14.087323,-0.449911" />
      <path d="M 13.435813,-0.500078 Q 13.658118,0.182548 13.802817,0.892956" />
      <path d="M 13.802817,0.892956 Q 13.725129,1.114709 13.627558,1.33396" />
      <path d="M 12.615587,1.131766 Q 12.788628,1.864215 12.868456,2.617114" />
      <path d="M 12.868456,2.617114 Q 12.713024,2.825528 12.539012,3.02924" />
      <path d="M 11.206364,2.559402 Q 11.277148,3.01666 11.308462,3.479814" />
      <path d="M 2.77631,6.999855 Q 2.46565,6.40707 2.210527,5.769469" />
      <path d="M 2.210527,5.769469 C 2.196616,5.734265 2.159492,5.6479 2.114017,5.65283" />
      <path d="M 2.114017,5.65283 L 2.094857,5.655676" />
      <path d="M 0.79255,7.964734 Q 0.395991,8.000757 -0.003303,8.025422" />
      <path d="M -0.003303,8.025422 Q -0.279484,7.465643 -0.513461,6.873409" />
      <path d="M -2.405469,8.070533 Q -2.806798,8.060904 -3.206742,8.039838" />
      <path d="M -3.206742,8.039838 Q -3.383284,7.603803 -3.532669,7.152868" />
      <path d="M -5.575874,7.811946 Q -5.965543,7.757057 -6.349764,7.691123" />
      <path d="M -6.349764,7.691123 Q -6.471637,7.301292 -6.570466,6.902899" />
      <path d="M -8.58887,7.199558 Q -8.950925,7.101657 -9.303693,6.993554" />
      <path d="M -9.303693,6.993554 Q -9.386051,6.614929 -9.445731,6.231135" />
      <path d="M -11.321103,6.258441 Q -11.640723,6.121537 -11.947595,5.97569" />
      <path d="M -11.947595,5.97569 Q -11.994517,5.586689 -12.016915,5.195165" />
      <path d="M -13.660717,5.027124 Q -13.924815,4.856821 -14.173228,4.679202" />
      <path d="M -14.173228,4.679202 Q -14.182713,4.263796 -14.164043,3.848819" />
      <path d="M -15.511926,3.556018 Q -15.70969,3.359288 -15.889474,3.157169" />
      <path d="M -15.889474,3.157169 Q -15.855257,2.701525 -15.787576,2.250459" />
      <path d="M -16.798942,1.90535 Q -16.922276,1.690247 -17.02607,1.471902" />
      <path d="M -17.02607,1.471902 Q -16.938176,0.962227 -16.809907,0.463631" />
      <path d="M -17.469074,0.142697 Q -17.51293,-0.081972 -17.536485,-0.307603" />
      <path d="M -17.536485,-0.307603 Q -17.380872,-0.887302 -17.176685,-1.445161" />
      <path d="M -17.494888,-1.659775 Q -17.457469,-1.884812 -17.39982,-2.108493" />
      <path d="M -17.39982,-2.108493 Q -17.156734,-2.77987 -16.856768,-3.410733" />
      <path d="M -16.652591,-3.970231 Q -16.78848,-3.693247 -16.875326,-3.428275" />
      <path d="M -16.875326,-3.428275 Q -16.758164,-3.644467 -16.621672,-3.85704" />
      <path d="M -16.621672,-3.85704 C -16.331334,-4.500683 -16.003412,-5.117835 -15.65614,-5.68252" />
      <path d="M -15.65614,-5.68252 C -15.637749,-5.712584 -15.590795,-5.787674 -15.571794,-5.813112" />
      <path d="M -15.571794,-5.813112 Q -15.438899,-5.989987 -15.291872,-6.163286" />
      <path d="M -15.291872,-6.163286 Q -15.285273,-6.170898 -15.284533,-6.16927" />
      <path d="M -15.284533,-6.16927 C -15.282563,-6.166238 -15.297806,-6.136211 -15.305368,-6.121326" />
      <path d="M -15.305368,-6.121326 C -15.489058,-5.761279 -15.592666,-5.424736 -15.635753,-5.090399" />
      <path d="M -15.635753,-5.090399 Q -15.443645,-5.288896 -15.233898,-5.481657" />
      <path d="M -15.233898,-5.481657 C -14.90927,-6.090113 -14.5574,-6.668369 -14.204669,-7.193002" />
      <path d="M -14.204669,-7.193002 C -14.185979,-7.220944 -14.137851,-7.290593 -14.110624,-7.313386" />
      <path d="M -14.110624,-7.313386 Q -13.917172,-7.471589 -13.711155,-7.624687" />
      <path d="M -13.711155,-7.624687 Q -13.697946,-7.633814 -13.695748,-7.626993" />
      <path d="M -13.695748,-7.626993 C -13.692153,-7.618802 -13.699787,-7.595474 -13.704091,-7.583096" />
      <path d="M -13.704091,-7.583096 C -13.82338,-7.240384 -13.855135,-6.911586 -13.826918,-6.5781" />
      <path d="M -13.826918,-6.5781 Q -13.567729,-6.750775 -13.293314,-6.915833" />
      <path d="M -13.293314,-6.915833 C -12.947686,-7.485939 -12.586273,-8.023382 -12.242524,-8.508164" />
      <path d="M -12.242524,-8.508164 C -12.2243,-8.533994 -12.17697,-8.598181 -12.142631,-8.617452" />
      <path d="M -12.142631,-8.617452 Q -11.89654,-8.750505 -11.639969,-8.877135" />
      <path d="M -11.639969,-8.877135 Q -11.61402,-8.88709 -11.611918,-8.866274" />
      <path d="M -11.611918,-8.866274 Q -11.60967,-8.848381 -11.612634,-8.833575" />
      <path d="M -11.612634,-8.833575 Q -11.662896,-8.479447 -11.592941,-8.122757" />
      <path d="M -11.592941,-8.122757 Q -11.565702,-7.977748 -11.522874,-7.830471" />
      <path d="M -11.522874,-7.830471 Q -11.207215,-7.970254 -10.879366,-8.100853" />
      <path d="M -10.879366,-8.100853 C -10.526889,-8.631014 -10.170729,-9.1274 -9.850035,-9.574163" />
      <path d="M -9.850035,-9.574163 C -9.833024,-9.597978 -9.788429,-9.656905 -9.748384,-9.671919" />
      <path d="M -9.748384,-9.671919 Q -9.45973,-9.774375 -9.163108,-9.869353" />
      <path d="M -9.163108,-9.869353 C -9.122832,-9.881436 -9.117801,-9.839248 -9.116622,-9.821569" />
      <path d="M -9.116622,-9.821569 C -9.095292,-9.490185 -8.982438,-9.152009 -8.817949,-8.79624" />
      <path d="M -8.817949,-8.79624 Q -8.458744,-8.897409 -8.090884,-8.988201" />
      <path d="M -8.090884,-8.988201 C -7.745987,-9.47846 -7.409662,-9.935223 -7.125152,-10.347359" />
      <path d="M -7.125152,-10.347359 C -7.11005,-10.369335 -7.070016,-10.42342 -7.025904,-10.433619" />
      <path d="M -7.025904,-10.433619 Q -6.706505,-10.501284 -6.381976,-10.560721" />
      <path d="M -6.381976,-10.560721 C -6.337717,-10.567966 -6.323152,-10.524658 -6.318241,-10.50663" />
      <path d="M -6.318241,-10.50663 C -6.226452,-10.168774 -6.04676,-9.813859 -5.822884,-9.435869" />
      <path d="M -5.822884,-9.435869 Q -5.434837,-9.494282 -5.042026,-9.541549" />
      <path d="M -5.042026,-9.541549 C -4.718831,-9.993582 -4.41611,-10.41378 -4.179432,-10.796094" />
      <path d="M -4.179432,-10.796094 C -4.166857,-10.816487 -4.133022,-10.866346 -4.08665,-10.871368" />
      <path d="M -4.08665,-10.871368 Q -3.749581,-10.901471 -3.410431,-10.922933" />
      <path d="M -3.410431,-10.922933 C -3.364002,-10.92499 -3.3405,-10.879503 -3.332057,-10.860712" />
      <path d="M -3.332057,-10.860712 C -3.173567,-10.508535 -2.934394,-10.129653 -2.660297,-9.72317" />
      <path d="M -2.660297,-9.72317 Q -2.259295,-9.736436 -1.857615,-9.738244" />
      <path d="M -1.857615,-9.738244 C -1.569352,-10.155291 -1.312628,-10.543479 -1.133473,-10.902" />
      <path d="M -1.133473,-10.902 Q -1.129555,-10.910372 -1.121633,-10.922598" />
      <path d="M -1.121633,-10.922598 C -1.107849,-10.94311 -1.084755,-10.967572 -1.050955,-10.967243" />
      <path d="M -1.050955,-10.967243 Q -0.710017,-10.958552 -0.370131,-10.941161" />
      <path d="M -0.370131,-10.941161 C -0.323432,-10.937889 -0.291954,-10.889257 -0.280326,-10.869317" />
      <path d="M -0.280326,-10.869317 C -0.061623,-10.495558 0.227239,-10.086464 0.540337,-9.646382" />
      <path d="M 0.540337,-9.646382 Q 0.937875,-9.613957 1.33198,-9.570233" />
      <path d="M 1.33198,-9.570233 C 1.573509,-9.956966 1.773725,-10.319009 1.888025,-10.660739" />
      <path d="M 1.888025,-10.660739 Q 1.892295,-10.67829 1.910144,-10.7005" />
      <path d="M 1.910144,-10.7005 Q 1.925761,-10.719372 1.956899,-10.71732" />
      <path d="M 1.956899,-10.71732 Q 2.287749,-10.67019 2.614456,-10.614659" />
      <path d="M 2.614456,-10.614659 C 2.659512,-10.606137 2.697678,-10.553519 2.712014,-10.532094" />
      <path d="M 2.712014,-10.532094 C 2.981976,-10.130375 3.308701,-9.686058 3.647982,-9.208649" />
      <path d="M 3.647982,-9.208649 Q 4.025782,-9.13186 4.396177,-9.044393" />
      <path d="M 4.396177,-9.044393 C 4.581083,-9.406726 4.716595,-9.74956 4.761358,-10.082189" />
      <path d="M 4.761358,-10.082189 C 4.762866,-10.093857 4.767046,-10.115729 4.781165,-10.126836" />
      <path d="M 4.781165,-10.126836 Q 4.792215,-10.136602 4.81377,-10.13183" />
      <path d="M 4.81377,-10.13183 Q 5.120987,-10.048192 5.421139,-9.956793" />
      <path d="M 5.421139,-9.956793 C 5.462709,-9.943314 5.505999,-9.886036 5.522458,-9.862849" />
      <path d="M 5.522458,-9.862849 C 5.832627,-9.427936 6.183838,-8.944829 6.535411,-8.427891" />
      <path d="M 6.535411,-8.427891 Q 6.878006,-8.309883 7.209527,-8.182253" />
      <path d="M 7.209527,-8.182253 C 7.33024,-8.5271 7.3955,-8.858445 7.368895,-9.190035" />
      <path d="M 7.368895,-9.190035 C 7.367831,-9.202856 7.366965,-9.227895 7.379934,-9.235686" />
      <path d="M 7.379934,-9.235686 Q 7.38738,-9.240728 7.402698,-9.234744" />
      <path d="M 7.402698,-9.234744 Q 7.673704,-9.118021 7.935014,-8.994496" />
      <path d="M 7.935014,-8.994496 C 7.971395,-8.976558 8.018037,-8.914134 8.035944,-8.88898" />
      <path d="M 8.035944,-8.88898 C 8.373621,-8.416998 8.734941,-7.893122 9.084412,-7.336072" />
      <path d="M 9.084412,-7.336072 Q 9.377776,-7.181676 9.65685,-7.01911" />
      <path d="M 9.65685,-7.01911 C 9.708429,-7.354098 9.700765,-7.682148 9.603881,-8.020804" />
      <path d="M 9.603881,-8.020804 C 9.599912,-8.034664 9.592749,-8.062434 9.602529,-8.066941" />
      <path d="M 9.602529,-8.066941 Q 9.607015,-8.069343 9.617691,-8.062788" />
      <path d="M 9.617691,-8.062788 Q 9.841391,-7.917759 10.05316,-7.767166" />
      <path d="M 10.05316,-7.767166 C 10.082863,-7.745446 10.130948,-7.677602 10.14957,-7.650358" />
      <path d="M 10.14957,-7.650358 C 10.500932,-7.138951 10.857567,-6.573995 11.19063,-5.977892" />
      <path d="M 11.19063,-5.977892 Q 11.422752,-5.793429 11.637954,-5.602581" />
      <path d="M 11.637954,-5.602581 C 11.618287,-5.935744 11.538012,-6.268825 11.374815,-6.622362" />
      <path d="M 11.374815,-6.622362 C 11.367915,-6.637364 11.35405,-6.667976 11.359159,-6.669801" />
      <path d="M 11.359159,-6.669801 Q 11.361114,-6.670713 11.368068,-6.663942" />
      <path d="M 11.368068,-6.663942 Q 11.535304,-6.496545 11.688863,-6.325049" />
      <path d="M 11.688863,-6.325049 C 11.710671,-6.300381 11.75823,-6.227065 11.776805,-6.197693" />
      <path d="M 11.776805,-6.197693 C 12.127466,-5.646118 12.464816,-5.041453 12.767834,-4.408955" />
      <path d="M 12.767834,-4.408955 Q 12.929212,-4.201977 13.071732,-3.990661" />
      <path d="M 13.071732,-3.990661 C 12.984956,-4.317524 12.843053,-4.650662 12.633674,-5.010305" />
      <path d="M 12.862296,-4.570578 C 13.193466,-3.985205 13.493799,-3.3508 13.751455,-2.693493" />
      <path d="M 13.751455,-2.693493 Q 13.835482,-2.472474 13.899484,-2.249341" />
      <path d="M 13.623859,-2.240747 Q 13.895407,-1.589073 14.101223,-0.901738" />
      <path d="M 14.101223,-0.901738 Q 14.102841,-0.788742 14.099365,-0.675747" />
      <path d="M -15.399603,-6.105474 A 14.667671033984679,8.25303259997831 0.0 0,1 11.937615,-6.105474" />
      <path d="M 14.087323,-0.449911 C 12.540823,-0.591763 10.900332,-0.577356 9.240224,-0.401686" />
      <path d="M 9.199316,-0.55796 L 9.240224,-0.401686" />
      <path d="M 9.151361,-0.713656 L 9.199316,-0.55796" />
      <path d="M 14.101223,-0.901738 C 12.506146,-0.998742 10.831283,-0.937007 9.151361,-0.713656" />
      <path d="M 9.240224,-0.401686 Q 9.067344,-0.771314 8.775446,-1.19475" />
      <path d="M 8.748196,-1.229941 L 8.741478,-1.228596" />
      <path d="M 8.775446,-1.19475 C 8.766857,-1.207378 8.747858,-1.234196 8.742612,-1.233259" />
      <path d="M 8.742612,-1.233259 Q 8.740955,-1.233036 8.741478,-1.228596" />
      <path d="M 8.913871,-0.985905 L 8.768935,-0.960583" />
      <path d="M 8.741478,-1.228596 Q 8.760615,-1.094765 8.768935,-0.960583" />
      <path d="M 8.976528,-0.886164 L 8.809852,-0.858902" />
      <path d="M 8.768935,-0.960583 C 8.770606,-0.941379 8.798721,-0.882316 8.809852,-0.858902" />
      <path d="M 13.802817,0.892956 C 12.425075,0.625854 10.912389,0.505204 9.336929,0.542289" />
      <path d="M 8.809852,-0.858902 C 9.020735,-0.417672 9.197138,0.056369 9.336929,0.542289" />
      <path d="M 13.627558,1.33396 C 12.313442,1.02843 10.851357,0.865315 9.312362,0.857939" />
      <path d="M 9.336929,0.542289 Q 9.331761,0.70029 9.312362,0.857939" />
      <path d="M 9.312362,0.857939 Q 9.0756,0.464872 8.742564,0.005678" />
      <path d="M 8.708355,-0.033883 L 8.696723,-0.032734" />
      <path d="M 8.742564,0.005678 C 8.732697,-0.008169 8.710396,-0.037911 8.700635,-0.037065" />
      <path d="M 8.700635,-0.037065 Q 8.697812,-0.036875 8.696723,-0.032734" />
      <path d="M 8.890735,0.214596 L 8.627734,0.232902" />
      <path d="M 8.696723,-0.032734 Q 8.667589,0.100525 8.627734,0.232902" />
      <path d="M 8.964752,0.321019 L 8.656113,0.338549" />
      <path d="M 8.627734,0.232902 C 8.622807,0.251921 8.646565,0.313952 8.656113,0.338549" />
      <path d="M 12.868456,2.617114 C 11.764453,2.208012 10.475873,1.92708 9.069374,1.793544" />
      <path d="M 8.656113,0.338549 C 8.837068,0.802199 8.97334,1.294131 9.069374,1.793544" />
      <path d="M 12.539012,3.02924 C 11.51108,2.589703 10.287258,2.272906 8.932385,2.09995" />
      <path d="M 9.069374,1.793544 Q 9.007787,1.947725 8.932385,2.09995" />
      <path d="M 8.932385,2.09995 Q 8.641434,1.676688 8.280893,1.17781" />
      <path d="M 8.241519,1.133735 L 8.225055,1.13358" />
      <path d="M 8.280893,1.17781 C 8.270214,1.162727 8.245748,1.130103 8.231599,1.129854" />
      <path d="M 8.231599,1.129854 Q 8.227626,1.129734 8.225055,1.13358" />
      <path d="M 8.44263,1.404159 Q 8.255215,1.392795 8.062445,1.385964" />
      <path d="M 8.225055,1.13358 Q 8.148843,1.260811 8.062445,1.385964" />
      <path d="M 8.527747,1.522979 Q 8.306294,1.505319 8.077125,1.494075" />
      <path d="M 8.062445,1.385964 C 8.051122,1.404053 8.069549,1.468498 8.077125,1.494075" />
      <path d="M 10.500903,3.729839 Q 9.558697,3.27592 8.359652,2.988881" />
      <path d="M 8.077125,1.494075 C 8.220744,1.976296 8.311305,2.481207 8.359652,2.988881" />
      <path d="M 9.832739,3.926303 Q 9.069108,3.542695 8.115848,3.273499" />
      <path d="M 8.359652,2.988881 Q 8.244165,3.13293 8.115848,3.273499" />
      <path d="M 8.115848,3.273499 C 7.896568,2.965369 7.655318,2.63638 7.409334,2.273657" />
      <path d="M 7.367966,2.22571 L 7.345785,2.222596" />
      <path d="M 7.409334,2.273657 C 7.398411,2.257464 7.373264,2.222439 7.355259,2.219816" />
      <path d="M 7.355259,2.219816 Q 7.349939,2.21898 7.345785,2.222596" />
      <path d="M 7.603595,2.555195 Q 7.360371,2.497572 7.096212,2.451396" />
      <path d="M 7.345785,2.222596 Q 7.225616,2.33859 7.096212,2.451396" />
      <path d="M 7.706189,2.700661 Q 7.417161,2.62208 7.096592,2.560368" />
      <path d="M 7.096212,2.451396 C 7.078956,2.46785 7.091299,2.534055 7.096592,2.560368" />
      <path d="M 7.251847,4.086038 L 7.236817,4.079364" />
      <path d="M 7.096592,2.560368 C 7.196994,3.056552 7.238138,3.568998 7.236817,4.079364" />
      <path d="M 7.204269,4.499158 Q 7.055744,4.412363 6.89618,4.330541" />
      <path d="M 7.236817,4.079364 Q 7.07216,4.207383 6.89618,4.330541" />
      <path d="M 6.89618,4.330541 C 6.658677,3.996275 6.406993,3.639081 6.163569,3.248355" />
      <path d="M 6.126436,3.200283 L 6.094911,3.18973" />
      <path d="M 6.163569,3.248355 C 6.153137,3.231521 6.129411,3.195688 6.108816,3.188782" />
      <path d="M 6.108816,3.188782 Q 6.101358,3.186162 6.094911,3.18973" />
      <path d="M 5.948092,3.460927 Q 5.861508,3.422085 5.768591,3.385579" />
      <path d="M 6.094911,3.18973 Q 5.935704,3.289739 5.768591,3.385579" />
      <path d="M 5.880551,3.549145 L 5.754655,3.493775" />
      <path d="M 5.768591,3.385579 C 5.74611,3.399759 5.751863,3.466999 5.754655,3.493775" />
      <path d="M 5.844494,5.103147 L 5.746839,5.020347" />
      <path d="M 5.754655,3.493775 C 5.807732,3.99874 5.797773,4.512971 5.746839,5.020347" />
      <path d="M 5.45349,5.36352 Q 5.391424,5.29478 5.323314,5.2278" />
      <path d="M 5.746839,5.020347 Q 5.539753,5.127096 5.323314,5.2278" />
      <path d="M 5.093787,4.899775 L 5.093395,4.88364" />
      <path d="M 5.323314,5.2278 C 5.077312,4.86587 4.825499,4.479866 4.5946,4.062001" />
      <path d="M 4.998868,4.809465 L 4.996656,4.734078" />
      <path d="M 4.582075,4.040808 L 4.523644,3.995387" />
      <path d="M 4.5946,4.062001 C 4.586081,4.046485 4.568092,4.015909 4.548881,4.001618" />
      <path d="M 4.548881,4.001618 Q 4.535966,3.991463 4.523644,3.995387" />
      <path d="M 4.401208,4.531447 Q 4.324957,4.329435 4.133937,4.150267" />
      <path d="M 4.523644,3.995387 Q 4.331916,4.075316 4.133937,4.150267" />
      <path d="M 4.340089,4.591422 Q 4.264834,4.41541 4.106256,4.256082" />
      <path d="M 4.133937,4.150267 C 4.107151,4.161627 4.106078,4.229136 4.106256,4.256082" />
      <path d="M 4.127667,6.664554 Q 4.156102,6.200876 3.950717,5.773306" />
      <path d="M 4.106256,4.256082 C 4.109833,4.764288 4.049179,5.274479 3.950717,5.773306" />
      <path d="M 3.540387,6.444257 Q 3.541185,6.180728 3.461644,5.928543" />
      <path d="M 3.950717,5.773306 Q 3.70968,5.854415 3.461644,5.928543" />
      <path d="M 2.210527,5.769469 C 2.670701,5.396622 2.851632,5.020746 2.76666,4.681283" />
      <path d="M 3.461644,5.928543 C 3.217213,5.538551 2.975581,5.124314 2.76666,4.681283" />
      <path d="M 2.114017,5.65283 C 2.58199,5.29487 2.77179,4.933009 2.696311,4.606584" />
      <path d="M 2.76666,4.681283 C 2.755623,4.657784 2.726142,4.599975 2.696311,4.606584" />
      <path d="M 2.204104,4.978996 Q 2.259834,4.844125 2.259172,4.714153" />
      <path d="M 2.696311,4.606584 Q 2.479912,4.663161 2.259172,4.714153" />
      <path d="M 2.216108,4.863315 L 2.216185,4.862492" />
      <path d="M 2.216185,4.862492 L 2.218879,4.816079" />
      <path d="M 2.259172,4.714153 C 2.229177,4.722265 2.221322,4.789263 2.218879,4.816079" />
      <path d="M 0.79255,7.964734 C 1.367496,7.492826 1.72518,7.005731 1.869644,6.530549" />
      <path d="M 1.869644,6.530549 Q 1.903709,6.418462 1.921986,6.307417" />
      <path d="M 2.218879,4.816079 C 2.17281,5.321854 2.063945,5.822345 1.921986,6.307417" />
      <path d="M -0.003303,8.025422 C 0.748177,7.499548 1.210917,6.94506 1.387387,6.404081" />
      <path d="M 1.921986,6.307417 Q 1.656865,6.359564 1.387387,6.404081" />
      <path d="M 0.055717,5.651148 Q 0.541939,5.369026 0.754586,5.080848" />
      <path d="M 1.387387,6.404081 C 1.154535,5.98678 0.932975,5.54604 0.754586,5.080848" />
      <path d="M 0.100874,5.472581 Q 0.496984,5.237464 0.687724,4.998298" />
      <path d="M 0.754586,5.080848 C 0.745159,5.056178 0.719616,4.995221 0.687724,4.998298" />
      <path d="M 0.190956,5.081936 L 0.221049,5.054153" />
      <path d="M 0.687724,4.998298 Q 0.455514,5.029207 0.221049,5.054153" />
      <path d="M 0.221049,5.054153 Q 0.212055,5.055519 0.204823,5.062513" />
      <path d="M 0.204823,5.062513 C 0.183995,5.082244 0.173839,5.129285 0.169793,5.150841" />
      <path d="M -2.405469,8.070533 C -1.4084,7.619552 -0.689047,7.115696 -0.256299,6.600811" />
      <path d="M 0.169793,5.150841 C 0.075965,5.648611 -0.076655,6.134141 -0.256299,6.600811" />
      <path d="M -3.206742,8.039838 C -2.132531,7.618425 -1.330913,7.136281 -0.814537,6.634946" />
      <path d="M -0.256299,6.600811 Q -0.534649,6.621862 -0.814537,6.634946" />
      <path d="M -2.043602,5.52858 Q -1.653315,5.39228 -1.359248,5.244338" />
      <path d="M -0.814537,6.634946 C -1.026277,6.192206 -1.218694,5.727779 -1.359248,5.244338" />
      <path d="M -1.998092,5.385447 Q -1.673992,5.274185 -1.419887,5.154492" />
      <path d="M -1.359248,5.244338 C -1.366678,5.218703 -1.387239,5.155108 -1.419887,5.154492" />
      <path d="M -1.914822,5.163367 L -1.89699,5.156347" />
      <path d="M -1.419887,5.154492 Q -1.658401,5.158468 -1.89699,5.156347" />
      <path d="M -1.89699,5.156347 L -1.90602,5.158186" />
      <path d="M -1.90602,5.158186 C -1.933429,5.169222 -1.950503,5.223351 -1.95711,5.246662" />
      <path d="M -5.575874,7.811946 C -4.287895,7.49171 -3.25303,7.088226 -2.494958,6.641477" />
      <path d="M -1.95711,5.246662 C -2.094857,5.731182 -2.284984,6.1971 -2.494958,6.641477" />
      <path d="M -6.349764,7.691123 C -4.9968,7.408588 -3.889122,7.03569 -3.053981,6.611685" />
      <path d="M -2.494958,6.641477 Q -2.775141,6.63057 -3.053981,6.611685" />
      <path d="M -4.153785,5.300635 Q -3.799253,5.23804 -3.488302,5.165059" />
      <path d="M -3.053981,6.611685 C -3.235941,6.146418 -3.391337,5.662091 -3.488302,5.165059" />
      <path d="M -4.103994,5.175944 Q -3.80638,5.126118 -3.540233,5.068773" />
      <path d="M -3.488302,5.165059 C -3.493431,5.138706 -3.508167,5.073091 -3.540233,5.068773" />
      <path d="M -4.021368,5.018858 L -4.008234,5.01655" />
      <path d="M -3.540233,5.068773 Q -3.775288,5.045651 -4.008234,5.01655" />
      <path d="M -4.008234,5.01655 L -4.014771,5.016806" />
      <path d="M -4.014771,5.016806 C -4.043685,5.022132 -4.066075,5.076532 -4.074757,5.099619" />
      <path d="M -8.58887,7.199558 C -7.062711,7.040341 -5.754701,6.770911 -4.70234,6.427751" />
      <path d="M -4.074757,5.099619 C -4.250783,5.566186 -4.470632,6.008646 -4.70234,6.427751" />
      <path d="M -9.303693,6.993554 C -7.727367,6.878627 -6.358976,6.647404 -5.239262,6.335251" />
      <path d="M -4.70234,6.427751 Q -4.972886,6.385333 -5.239262,6.335251" />
      <path d="M -6.177919,4.885898 Q -5.850556,4.870313 -5.545411,4.846257" />
      <path d="M -5.239262,6.335251 C -5.383991,5.851292 -5.496005,5.351664 -5.545411,4.846257" />
      <path d="M -6.122917,4.772076 Q -5.846711,4.761427 -5.58651,4.744648" />
      <path d="M -5.545411,4.846257 C -5.548029,4.819461 -5.556337,4.752527 -5.58651,4.744648" />
      <path d="M -6.037496,4.640895 L -6.026248,4.640487" />
      <path d="M -5.58651,4.744648 Q -5.808481,4.695377 -6.026248,4.640487" />
      <path d="M -6.026248,4.640487 L -6.031782,4.639979" />
      <path d="M -6.031782,4.639979 C -6.059854,4.641247 -6.086157,4.693555 -6.09645,4.715732" />
      <path d="M -11.321103,6.258441 C -9.619245,6.283924 -8.091641,6.176742 -6.788075,5.968382" />
      <path d="M -6.09645,4.715732 C -6.303548,5.160378 -6.544119,5.576494 -6.788075,5.968382" />
      <path d="M -11.947595,5.97569 C -10.212441,6.050239 -8.639361,5.98732 -7.280913,5.816962" />
      <path d="M -6.788075,5.968382 Q -7.037908,5.896189 -7.280913,5.816962" />
      <path d="M -8.029537,4.271976 Q -7.732133,4.289803 -7.446357,4.300985" />
      <path d="M -7.280913,5.816962 C -7.382488,5.31891 -7.446533,4.809208 -7.446357,4.300985" />
      <path d="M -7.969713,4.165705 Q -7.718145,4.18295 -7.474941,4.195388" />
      <path d="M -7.446357,4.300985 C -7.446358,4.274038 -7.447897,4.206541 -7.474941,4.195388" />
      <path d="M -7.878916,4.042764 L -7.868413,4.043553" />
      <path d="M -7.474941,4.195388 Q -7.674741,4.121984 -7.868413,4.043553" />
      <path d="M -7.868413,4.043553 L -7.873511,4.042434" />
      <path d="M -7.873511,4.042434 C -7.899235,4.04075 -7.928019,4.089808 -7.93942,4.110718" />
      <path d="M -13.660717,5.027124 C -11.852833,5.253427 -10.168175,5.330043 -8.666773,5.282178" />
      <path d="M -7.93942,4.110718 C -8.169112,4.530372 -8.420556,4.918336 -8.666773,5.282178" />
      <path d="M -14.173228,4.679202 C -12.350284,4.957337 -10.636917,5.082461 -9.095351,5.078036" />
      <path d="M -8.666773,5.282178 Q -8.885663,5.183165 -9.095351,5.078036" />
      <path d="M -9.631236,3.4732 Q -9.369375,3.514881 -9.113316,3.551564" />
      <path d="M -9.095351,5.078036 C -9.149612,4.571068 -9.163066,4.056931 -9.113316,3.551564" />
      <path d="M -9.567683,3.372773 Q -9.345865,3.409934 -9.128214,3.44348" />
      <path d="M -9.113316,3.551564 C -9.110699,3.524768 -9.105407,3.457486 -9.128214,3.44348" />
      <path d="M -9.469439,3.248395 L -9.459311,3.250186" />
      <path d="M -9.128214,3.44348 Q -9.297663,3.348948 -9.459311,3.250186" />
      <path d="M -9.459311,3.250186 L -9.464123,3.248438" />
      <path d="M -9.464123,3.248438 C -9.486445,3.244729 -9.516243,3.289909 -9.528217,3.309346" />
      <path d="M -15.511926,3.556018 C -13.672032,3.991039 -11.89929,4.265479 -10.261519,4.39723" />
      <path d="M -9.528217,3.309346 C -9.771099,3.70196 -10.023122,4.061117 -10.261519,4.39723" />
      <path d="M -15.889474,3.157169 C -14.053372,3.644666 -12.269862,3.969874 -10.60829,4.148725" />
      <path d="M -10.261519,4.39723 Q -10.440506,4.275452 -10.60829,4.148725" />
      <path d="M -10.91645,2.518234 Q -10.695995,2.575224 -10.478042,2.628678" />
      <path d="M -10.60829,4.148725 C -10.613017,3.638381 -10.575329,3.125632 -10.478042,2.628678" />
      <path d="M -10.850724,2.422467 L -10.478644,2.519707" />
      <path d="M -10.478042,2.628678 C -10.472914,2.602325 -10.461007,2.536026 -10.478644,2.519707" />
      <path d="M -10.743475,2.290169 L -10.733812,2.292868" />
      <path d="M -10.478644,2.519707 Q -10.610805,2.407918 -10.733812,2.292868" />
      <path d="M -10.733812,2.292868 L -10.738237,2.290431" />
      <path d="M -10.738237,2.290431 C -10.756441,2.285576 -10.785796,2.326568 -10.797795,2.344425" />
      <path d="M -16.798942,1.90535 C -15.002364,2.548441 -13.214114,3.026633 -11.507024,3.34977" />
      <path d="M -10.797795,2.344425 C -11.043923,2.709058 -11.286207,3.039932 -11.507024,3.34977" />
      <path d="M -17.02607,1.471902 C -15.25198,2.165967 -13.471346,2.695107 -11.757793,3.067075" />
      <path d="M -11.507024,3.34977 Q -11.638781,3.210212 -11.757793,3.067075" />
      <path d="M -11.831679,1.445454 L -11.484663,1.570108" />
      <path d="M -11.757793,3.067075 C -11.71279,2.559036 -11.625504,2.053437 -11.484663,1.570108" />
      <path d="M -11.7657,1.35314 L -11.470944,1.461887" />
      <path d="M -11.484663,1.570108 C -11.477233,1.544473 -11.4592,1.479888 -11.470944,1.461887" />
      <path d="M -11.648524,1.207362 L -11.639736,1.210791" />
      <path d="M -11.470944,1.461887 Q -11.560407,1.337417 -11.639736,1.210791" />
      <path d="M -11.639736,1.210791 L -11.643485,1.207626" />
      <path d="M -11.643485,1.207626 C -11.657171,1.202498 -11.684695,1.239216 -11.696176,1.255457" />
      <path d="M -17.469074,0.142697 C -15.789364,0.984694 -14.058818,1.664224 -12.352297,2.18268" />
      <path d="M -11.696176,1.255457 Q -12.058063,1.757144 -12.352297,2.18268" />
      <path d="M -17.536485,-0.307603 C -15.897038,0.581777 -14.192178,1.310349 -12.496797,1.877369" />
      <path d="M -12.352297,2.18268 Q -12.431429,2.031056 -12.496797,1.877369" />
      <path d="M -12.338347,0.300597 L -12.091967,0.419193" />
      <path d="M -12.496797,1.877369 C -12.403908,1.377219 -12.270597,0.884242 -12.091967,0.419193" />
      <path d="M -12.274385,0.210073 L -12.06449,0.31333" />
      <path d="M -12.091967,0.419193 C -12.082541,0.394523 -12.059118,0.33231 -12.06449,0.31333" />
      <path d="M -12.147239,0.044497 L -12.139995,0.048255" />
      <path d="M -12.06449,0.31333 Q -12.107591,0.181275 -12.139995,0.048255" />
      <path d="M -12.139995,0.048255 L -12.142606,0.044383" />
      <path d="M -12.142606,0.044383 C -12.15169,0.039864 -12.176129,0.072377 -12.186582,0.087026" />
      <path d="M -17.494888,-1.659775 C -16.000813,-0.636181 -14.398819,0.234029 -12.762733,0.943742" />
      <path d="M -12.186582,0.087026 Q -12.521942,0.548818 -12.762733,0.943742" />
      <path d="M -17.39982,-2.108493 C -15.962136,-1.043047 -14.402847,-0.127707 -12.795047,0.628313" />
      <path d="M -12.762733,0.943742 Q -12.786,0.786258 -12.795047,0.628313" />
      <path d="M -12.413888,-0.864339 L -12.275092,-0.776948" />
      <path d="M -12.795047,0.628313 C -12.658075,0.141316 -12.484197,-0.334085 -12.275092,-0.776948" />
      <path d="M -12.354698,-0.955793 L -12.234981,-0.878945" />
      <path d="M -12.275092,-0.776948 C -12.264055,-0.800448 -12.236202,-0.859727 -12.234981,-0.878945" />
      <path d="M -12.218904,-1.150397 L -12.214108,-1.147145" />
      <path d="M -12.234981,-0.878945 Q -12.229957,-1.013178 -12.214108,-1.147145" />
      <path d="M -12.214108,-1.147145 L -12.214939,-1.151586" />
      <path d="M -12.214939,-1.151586 C -12.219663,-1.154621 -12.239963,-1.126151 -12.248935,-1.113032" />
      <path d="M -16.875326,-3.428275 C -15.628053,-2.247827 -14.220197,-1.2054 -12.721529,-0.316324" />
      <path d="M -12.248935,-1.113032 Q -12.544038,-0.687314 -12.721529,-0.316324" />
      <path d="M -16.621672,-3.85704 C -15.444609,-2.641984 -14.09473,-1.560188 -12.640334,-0.628956" />
      <path d="M -12.721529,-0.316324 Q -12.687978,-0.473219 -12.640334,-0.628956" />
      <path d="M -15.65614,-5.68252 L -15.54175,-5.53586" />
      <path d="M -12.640334,-0.628956 Q -12.461266,-1.107639 -12.242065,-1.555375" />
      <path d="M -15.571794,-5.813112 L -15.48739,-5.702597" />
      <path d="M -15.635753,-5.090399 C -14.686347,-3.784262 -13.530267,-2.595132 -12.23037,-1.545928" />
      <path d="M -15.233898,-5.481657 C -14.365645,-4.149573 -13.28044,-2.928447 -12.038992,-1.842964" />
      <path d="M -12.23037,-1.545928 Q -12.141376,-1.695812 -12.038992,-1.842964" />
      <path d="M -14.204669,-7.193002 Q -13.944215,-6.684651 -13.650438,-6.192716" />
      <path d="M -12.038992,-1.842964 Q -11.78219,-2.396889 -11.485495,-2.896899" />
      <path d="M -14.110624,-7.313386 Q -13.978102,-7.048948 -13.836529,-6.788795" />
      <path d="M -13.826918,-6.5781 C -13.214247,-5.182585 -12.357272,-3.878272 -11.309366,-2.694732" />
      <path d="M -13.293314,-6.915833 C -12.769418,-5.504093 -11.993314,-4.176467 -11.015638,-2.964011" />
      <path d="M -11.309366,-2.694732 Q -11.168572,-2.831468 -11.015638,-2.964011" />
      <path d="M -12.242524,-8.508164 C -11.824011,-6.971491 -11.158731,-5.50842 -10.292366,-4.149795" />
      <path d="M -11.015638,-2.964011 C -10.786069,-3.3863 -10.538331,-3.787269 -10.292366,-4.149795" />
      <path d="M -12.142631,-8.617452 C -11.790727,-7.283444 -11.254829,-6.00357 -10.564073,-4.797728" />
      <path d="M -10.292366,-4.149795 Q -10.28166,-4.165955 -10.262147,-4.192121" />
      <path d="M -11.639969,-8.877135 L -11.619596,-8.782718" />
      <path d="M -11.522874,-7.830471 Q -11.445357,-7.384415 -11.333843,-6.946649" />
      <path d="M -11.333843,-6.946649 C -11.047128,-5.820378 -10.59429,-4.737549 -9.996222,-3.715703" />
      <path d="M -10.879366,-8.100853 C -10.721276,-6.650091 -10.286047,-5.253155 -9.612171,-3.946201" />
      <path d="M -9.996222,-3.715703 Q -9.809392,-3.833693 -9.612171,-3.946201" />
      <path d="M -9.850035,-9.574163 C -9.782747,-8.009694 -9.447412,-6.48937 -8.877741,-5.048579" />
      <path d="M -9.612171,-3.946201 C -9.369171,-4.341451 -9.116125,-4.713766 -8.877741,-5.048579" />
      <path d="M -9.748384,-9.671919 C -9.691195,-8.101008 -9.366514,-6.57323 -8.807573,-5.123947" />
      <path d="M -8.877741,-5.048579 C -8.86515,-5.066373 -8.832063,-5.110938 -8.807573,-5.123947" />
      <path d="M -9.163108,-9.869353 Q -9.179799,-8.597734 -8.967773,-7.366194" />
      <path d="M -8.807573,-5.123947 Q -8.678244,-5.19026 -8.545052,-5.254118" />
      <path d="M -9.116622,-9.821569 Q -9.123994,-9.460679 -9.112244,-9.102506" />
      <path d="M -9.112244,-9.102506 L -9.111708,-9.086408" />
      <path d="M -8.817949,-8.79624 C -8.938887,-7.347461 -8.772812,-5.928139 -8.347837,-4.577005" />
      <path d="M -8.347837,-4.577005 L -8.344699,-4.567043" />
      <path d="M -8.090884,-8.988201 C -8.305071,-7.540649 -8.228536,-6.114431 -7.886047,-4.749323" />
      <path d="M -8.344699,-4.567043 Q -8.119482,-4.661456 -7.886047,-4.749323" />
      <path d="M -7.125152,-10.347359 C -7.411844,-8.795443 -7.420182,-7.256409 -7.170527,-5.768737" />
      <path d="M -7.886047,-4.749323 C -7.639566,-5.116565 -7.39157,-5.460212 -7.170527,-5.768737" />
      <path d="M -7.025904,-10.433619 C -7.321253,-8.876335 -7.339155,-7.331004 -7.09951,-5.836028" />
      <path d="M -7.170527,-5.768737 C -7.15885,-5.785143 -7.127845,-5.826041 -7.09951,-5.836028" />
      <path d="M -6.381976,-10.560721 C -6.755168,-9.01198 -6.850233,-7.468093 -6.683955,-5.967929" />
      <path d="M -7.09951,-5.836028 Q -6.894394,-5.904634 -6.683955,-5.967929" />
      <path d="M -6.318241,-10.50663 C -6.690602,-9.013055 -6.800751,-7.523223 -6.663663,-6.072688" />
      <path d="M -6.663663,-6.072688 L -6.661626,-6.051331" />
      <path d="M -6.683955,-5.967929 C -6.659481,-5.974873 -6.652717,-5.954011 -6.650539,-5.940219" />
      <path d="M -5.822884,-9.435869 C -6.311243,-8.018408 -6.506491,-6.597275 -6.42241,-5.213896" />
      <path d="M -6.649792,-5.934024 L -6.648123,-5.917012" />
      <path d="M -6.648123,-5.917012 C -6.624222,-5.690789 -6.540297,-5.458416 -6.42241,-5.213896" />
      <path d="M -5.042026,-9.541549 C -5.619722,-8.139307 -5.905014,-6.725034 -5.907934,-5.340497" />
      <path d="M -6.42241,-5.213896 Q -6.168026,-5.280868 -5.907934,-5.340497" />
      <path d="M -4.179432,-10.796094 C -4.808366,-9.296569 -5.160035,-7.778134 -5.240618,-6.280788" />
      <path d="M -5.907934,-5.340497 C -5.668062,-5.679911 -5.435271,-5.996048 -5.240618,-6.280788" />
      <path d="M -4.08665,-10.871368 C -4.722446,-9.367361 -5.082197,-7.843639 -5.171658,-6.34007" />
      <path d="M -5.240618,-6.280788 C -5.230333,-6.295937 -5.202679,-6.333479 -5.171658,-6.34007" />
      <path d="M -3.410431,-10.922933 C -4.11942,-9.436112 -4.554239,-7.922544 -4.717421,-6.422203" />
      <path d="M -5.171658,-6.34007 Q -4.946197,-6.384038 -4.717421,-6.422203" />
      <path d="M -3.332057,-10.860712 C -4.05271,-9.382721 -4.498447,-7.877011 -4.671411,-6.383711" />
      <path d="M -4.717421,-6.422203 C -4.686275,-6.426854 -4.675133,-6.396327 -4.671411,-6.383711" />
      <path d="M -2.660297,-9.72317 C -3.495787,-8.381457 -4.045479,-7.002948 -4.308053,-5.629782" />
      <path d="M -4.671411,-6.383711 C -4.601101,-6.146881 -4.469684,-5.896597 -4.308053,-5.629782" />
      <path d="M -1.857615,-9.738244 L -1.8861,-9.697222" />
      <path d="M -1.8861,-9.697222 C -2.788331,-8.393286 -3.414223,-7.045801 -3.758817,-5.695519" />
      <path d="M -4.308053,-5.629782 Q -4.034917,-5.66657 -3.758817,-5.695519" />
      <path d="M -1.968984,-9.517212 L -1.999513,-9.460147" />
      <path d="M -1.999513,-9.460147 Q -2.761345,-8.027279 -3.167025,-6.563768" />
      <path d="M -3.758817,-5.695519 C -3.535375,-6.008424 -3.327319,-6.299337 -3.167025,-6.563768" />
      <path d="M -1.050955,-10.967243 C -2.001168,-9.553984 -2.68804,-8.090147 -3.102946,-6.615437" />
      <path d="M -3.167025,-6.563768 C -3.158553,-6.577844 -3.135382,-6.612477 -3.102946,-6.615437" />
      <path d="M -0.370131,-10.941161 C -1.38589,-9.553027 -2.142661,-8.107639 -2.628623,-6.64444" />
      <path d="M -3.102946,-6.615437 Q -2.86637,-6.632969 -2.628623,-6.64444" />
      <path d="M -0.280326,-10.869317 C -1.30789,-9.491355 -2.076085,-8.055103 -2.572648,-6.600112" />
      <path d="M -2.628623,-6.64444 C -2.596144,-6.64545 -2.578803,-6.613294 -2.572648,-6.600112" />
      <path d="M 0.540337,-9.646382 C -0.608079,-8.418184 -1.489712,-7.121572 -2.088192,-5.797674" />
      <path d="M -2.572648,-6.600112 C -2.456263,-6.352601 -2.284006,-6.084941 -2.088192,-5.797674" />
      <path d="M 1.33198,-9.570233 Q 0.086447,-8.349044 -0.788748,-7.041701" />
      <path d="M -0.788748,-7.041701 Q -1.200321,-6.42721 -1.526681,-5.799856" />
      <path d="M -2.088192,-5.797674 Q -1.807486,-5.802772 -1.526681,-5.799856" />
      <path d="M -1.526681,-5.799856 C -1.347256,-6.061699 -1.186932,-6.307209 -1.069485,-6.535954" />
      <path d="M 1.956899,-10.71732 L 1.879423,-10.635415" />
      <path d="M -0.684791,-7.194701 Q -0.837956,-6.923876 -0.978065,-6.650856" />
      <path d="M -1.022459,-6.626369 Q -1.008272,-6.648413 -0.978065,-6.650856" />
      <path d="M 2.614456,-10.614659 C 1.333512,-9.357936 0.285771,-8.015798 -0.503076,-6.625542" />
      <path d="M -0.978065,-6.650856 Q -0.74006,-6.641233 -0.503076,-6.625542" />
      <path d="M 2.712014,-10.532094 C 1.419607,-9.286876 0.360406,-7.955183 -0.439428,-6.574369" />
      <path d="M -0.503076,-6.625542 C -0.470593,-6.622835 -0.447763,-6.58838 -0.439428,-6.574369" />
      <path d="M 3.647982,-9.208649 C 2.233656,-8.127085 1.056177,-6.948291 0.146293,-5.710698" />
      <path d="M -0.439428,-6.574369 C -0.281732,-6.311176 -0.075687,-6.02187 0.146293,-5.710698" />
      <path d="M 4.396177,-9.044393 C 2.923978,-8.004035 1.679559,-6.859815 0.697091,-5.649237" />
      <path d="M 0.146293,-5.710698 Q 0.423077,-5.683898 0.697091,-5.649237" />
      <path d="M 4.81377,-10.13183 L 4.762985,-10.091976" />
      <path d="M 5.421139,-9.956793 Q 4.942195,-9.604723 4.490929,-9.23806" />
      <path d="M 3.432087,-8.322567 Q 2.40847,-7.379734 1.5722,-6.366282" />
      <path d="M 1.353026,-6.405633 L 1.5722,-6.366282" />
      <path d="M 5.522458,-9.862849 C 4.018118,-8.777654 2.711275,-7.581341 1.640916,-6.307536" />
      <path d="M 1.5722,-6.366282 C 1.603357,-6.359934 1.630741,-6.322606 1.640916,-6.307536" />
      <path d="M 6.535411,-8.427891 C 4.913078,-7.520077 3.48796,-6.490198 2.303922,-5.372415" />
      <path d="M 1.640916,-6.307536 C 1.833466,-6.024302 2.064863,-5.709967 2.303922,-5.372415" />
      <path d="M 7.209527,-8.182253 C 5.545248,-7.321358 4.066928,-6.332927 2.821456,-5.249826" />
      <path d="M 2.303922,-5.372415 Q 2.565452,-5.314814 2.821456,-5.249826" />
      <path d="M 7.402698,-9.234744 L 7.369168,-9.214804" />
      <path d="M 7.935014,-8.994496 Q 7.632665,-8.825731 7.337406,-8.651181" />
      <path d="M 8.035944,-8.88898 Q 7.66134,-8.684223 7.297497,-8.470648" />
      <path d="M 4.310856,-6.421283 Q 3.937143,-6.121133 3.583212,-5.810535" />
      <path d="M 3.549314,-5.851251 Q 3.572466,-5.826752 3.583212,-5.810535" />
      <path d="M 9.084412,-7.336072 C 7.320491,-6.622013 5.706077,-5.766049 4.29636,-4.796674" />
      <path d="M 3.583212,-5.810535 C 3.802734,-5.503724 4.05001,-5.162 4.29636,-4.796674" />
      <path d="M 9.65685,-7.01911 C 7.868627,-6.355759 6.216929,-5.54642 4.759444,-4.617976" />
      <path d="M 4.29636,-4.796674 Q 4.53193,-4.71063 4.759444,-4.617976" />
      <path d="M 9.617691,-8.062788 L 9.597621,-8.053785" />
      <path d="M 10.05316,-7.767166 L 9.680168,-7.607797" />
      <path d="M 10.14957,-7.650358 Q 9.917521,-7.555476 9.687999,-7.457145" />
      <path d="M 11.19063,-5.977892 C 9.357335,-5.469658 7.61972,-4.805489 6.042039,-4.007047" />
      <path d="M 5.3815,-5.000047 C 5.597417,-4.694401 5.823407,-4.360076 6.042039,-4.007047" />
      <path d="M 11.637954,-5.602581 C 9.798996,-5.14677 8.041541,-4.532495 6.431713,-3.779556" />
      <path d="M 6.042039,-4.007047 Q 6.242004,-3.896082 6.431713,-3.779556" />
      <path d="M 11.368068,-6.663942 L 11.359135,-6.661019" />
      <path d="M 11.688863,-6.325049 L 11.512398,-6.271156" />
      <path d="M 11.776805,-6.197693 L 11.553304,-6.131474" />
      <path d="M 12.767834,-4.408955 C 10.940222,-4.110189 9.150544,-3.647845 7.469488,-3.03586" />
      <path d="M 6.89507,-3.990646 Q 7.191414,-3.540019 7.469488,-3.03586" />
      <path d="M 13.071732,-3.990661 C 11.257327,-3.743887 9.466065,-3.332662 7.769799,-2.76889" />
      <path d="M 7.469488,-3.03586 Q 7.625661,-2.904518 7.769799,-2.76889" />
      <path d="M 13.751455,-2.693493 C 12.004347,-2.599265 10.235876,-2.34051 8.520268,-1.922875" />
      <path d="M 8.032755,-2.854821 Q 8.292078,-2.409235 8.520268,-1.922875" />
      <path d="M 13.899484,-2.249341 C 12.183914,-2.204544 10.432179,-1.996042 8.718922,-1.627355" />
      <path d="M 8.520268,-1.922875 Q 8.626256,-1.776533 8.718922,-1.627355" />
      <path d="M 8.750351,-1.6341 Q 8.97043,-1.189392 9.151361,-0.713656" />
      <path d="M 8.395003,-2.080759 A 10.255218749380472,5.770285852637717 -180.0 0,0 8.298213,-2.372379" />
      <path d="M -11.705453,-2.50858 A 10.255218749380472,5.770285852637717 -180.0 1,0 8.395003,-2.080759" />
      <path d="M 11.919991,5.401539 C 10.984914,5.701053 9.973662,5.927784 8.936157,6.048864" />
      <path d="M 13.397472,7.59089 C 11.826641,7.960342 10.147994,8.119976 8.452097,8.008374" />
      <path d="M 7.946542,9.052951 C 7.913839,9.047318 7.877913,9.041012 7.848907,9.035842" />
      <path d="M 11.801804,11.81758 C 10.057511,11.70892 8.309106,11.343108 6.6735,10.723746" />
      <path d="M 10.078088,14.200286 Q 9.56497,14.069741 9.055919,13.907959" />
      <path d="M 2.874266,11.801697 L 2.51083,11.134796" />
      <path d="M 4.556104,6.099011 C 4.556322,6.097667 4.546371,6.073898 4.526251,6.027706 C 4.493933,5.955714 4.4367,5.844181 4.363518,5.726791" />
      <path d="M 5.129202,4.938179 L 5.084657,4.889985" />
      <path d="M -16.652591,-3.970231 A 16.62077013859466,16.62077013859466 90.55811275277142 0,1 -15.399603,-6.105474" />
      <path d="M 11.937615,-6.105474 A 16.62077013859466,16.62077013859466 90.55811275277142 0,1 12.633674,-5.010305" />
      <path d="M 4.15579,6.671359 Q 4.26974,6.178674 4.337414,5.681652" />
      <path d="M 1.869644,6.530549 C 2.036976,5.9795 2.163092,5.420688 2.216108,4.863315" />
      <path d="M -11.592941,-8.122757 Q -11.482328,-7.52979 -11.333843,-6.946649" />
      <path d="M -9.112244,-9.102506 L -9.111905,-9.092259" />
      <path d="M -8.347837,-4.577005 C -8.804465,-6.025773 -9.060501,-7.552572 -9.111708,-9.086408" />
      <path d="M -6.663663,-6.072688 L -6.662694,-6.062482" />
      <path d="M -6.648123,-5.917012 L -6.661626,-6.051331" />
      <path d="M -1.968984,-9.517212 C -1.878364,-9.686023 -1.801173,-9.814819 -1.76508,-9.87276" />
      <path d="M -1.069485,-6.535954 C -0.96815,-6.733816 -0.873657,-6.898818 -0.814061,-6.997497 C -0.791605,-7.03457 -0.775611,-7.06055 -0.766078,-7.075437" />
    </g>
  </g>
</svg>