<?xml version='1.0' encoding='utf-8'?>
<svg width="100.090001mm" height="37.8737mm" viewBox="-19.103717 -8.127103 43.809976 16.577539" version="1.1" xmlns="http://www.w3.org/2000/svg">
  <g transform="scale(1,-1)" stroke-linecap="round">
    <g fill="none" stroke="rgb(0,0,0)" stroke-width="0.03939352379158103" id="Visible">
      <path d="M 11.093155,3.208043 Q 11.065259,3.104953 11.061637,3.001275" />
      <path d="M 11.061637,3.001275 C 11.060284,2.94048 10.907891,2.892576 10.738465,2.870568 C 10.564664,2.849507 10.388945,2.842132 10.211309,2.848442" />
      <path d="M 10.211309,2.848442 C 9.957002,2.83479 9.624248,2.770577 9.351267,2.695983 C 9.072237,2.620061 8.846375,2.537991 8.62874,2.445019" />
      <path d="M 8.596486,2.191679 L 8.62874,2.445019" />
      <path d="M 11.040488,-2.876494 C 11.160917,-2.840255 11.293222,-2.811926 11.437403,-2.791508 C 11.580889,-2.77223 11.744465,-2.76571 11.862664,-2.789067" />
      <path d="M 10.758915,-2.911683 Q 10.919115,-2.898317 11.040488,-2.876494" />
      <path d="M 8.62874,2.445019 Q 8.678021,2.325922 8.749462,2.208627" />
      <path d="M 8.742833,2.175191 L 8.749462,2.208627" />
      <path d="M 10.560708,1.890739 L 10.601425,2.084532" />
      <path d="M 10.601425,2.084532 C 10.758707,2.118079 10.927644,2.138734 11.108236,2.146497 C 11.285731,2.152705 11.472946,2.132422 11.53381,2.076685" />
      <path d="M 11.446777,1.642247 Q 11.488143,1.859022 11.53381,2.076685" />
      <path d="M 8.749462,2.208627 C 9.040911,2.157058 9.32924,2.116807 9.660469,2.090517 C 9.984828,2.064504 10.354013,2.057379 10.601425,2.084532" />
      <path d="M 10.295572,3.400366 L 10.295517,3.400881" />
      <path d="M 10.295517,3.400881 C 10.467482,3.398509 10.634168,3.383721 10.795577,3.356517 C 10.95285,3.328574 11.091983,3.278254 11.094336,3.220069" />
      <path d="M 11.094336,3.220069 L 11.093155,3.208043" />
      <line x1="12.011573" y1="3.168454" x2="11.093155" y2="3.208043" />
      <path d="M 12.378785,2.225655 C 12.053758,2.51626 11.922916,2.852189 12.011573,3.168454" />
      <line x1="11.53381" y1="2.076685" x2="12.378785" y2="2.225655" />
      <path d="M 12.129036,4.275753 Q 11.975715,4.192041 11.842677,4.102975" />
      <path d="M 11.842677,4.102975 C 11.765333,4.050596 11.573338,4.039517 11.399037,4.054264 C 11.220709,4.068808 11.062142,4.101275 10.914784,4.140288" />
      <path d="M 10.914784,4.140288 C 10.677444,4.179208 10.308817,4.189994 9.978948,4.179862 C 9.642176,4.169788 9.343747,4.14378 9.038783,4.10669" />
      <path d="M 9.038783,4.10669 Q 8.932243,3.993715 8.847151,3.87788" />
      <path d="M 8.940815,3.505597 Q 8.891106,3.69203 8.847151,3.87788" />
      <path d="M 8.847151,3.87788 C 9.034942,3.775067 9.234211,3.682676 9.488124,3.593817 C 9.736435,3.506568 10.047232,3.426733 10.295517,3.400881" />
      <path d="M 11.350392,-3.786986 Q 11.287784,-3.911292 11.269041,-4.037437" />
      <path d="M 11.269041,-4.037437 Q 11.49629,-4.117103 11.737819,-4.189771" />
      <path d="M 13.36749,-3.817409 C 13.439631,-3.752979 13.530019,-3.691683 13.661139,-3.641303 C 13.788585,-3.591613 13.965618,-3.559957 14.101208,-3.587681" />
      <path d="M 11.737819,-4.189771 C 12.045163,-4.155955 12.332123,-4.114174 12.630098,-4.050745 C 12.922319,-3.988837 13.219221,-3.900983 13.36749,-3.817409" />
      <path d="M 14.101208,-3.587681 Q 14.333048,-3.634493 14.57484,-3.672451" />
      <path d="M 14.57484,-3.672451 C 14.683631,-3.689354 14.746376,-3.737726 14.76207,-3.791404" />
      <path d="M 14.632931,-4.043896 L 14.628722,-4.051689" />
      <path d="M 14.628722,-4.051689 C 14.575983,-4.152785 14.611316,-4.297531 14.689761,-4.423876 C 14.769238,-4.552847 14.880626,-4.664558 15.019991,-4.77721" />
      <path d="M 15.019991,-4.77721 Q 15.316609,-4.800859 15.616826,-4.815598" />
      <path d="M 16.725905,-3.859423 Q 16.804332,-3.826054 16.909211,-3.822596" />
      <path d="M 15.616826,-4.815598 C 15.825185,-4.731255 16.007902,-4.645141 16.177319,-4.541144 C 16.343932,-4.439052 16.491453,-4.316739 16.544204,-4.213183" />
      <path d="M 16.909211,-3.822596 Q 17.168643,-3.816877 17.425598,-3.801503" />
      <path d="M 17.425598,-3.801503 C 17.576149,-3.792184 17.719294,-3.844434 17.801165,-3.907587 C 17.885983,-3.971855 17.923535,-4.041381 17.941297,-4.111593" />
      <path d="M 17.941297,-4.111593 C 18.01626,-4.209526 18.22896,-4.330157 18.457643,-4.425568 C 18.690591,-4.523147 18.930126,-4.598792 19.195284,-4.66943" />
      <path d="M 19.195284,-4.66943 Q 19.481793,-4.630725 19.760255,-4.583586" />
      <path d="M 19.760255,-4.583586 Q 19.795612,-4.529745 19.822815,-4.476845" />
      <path d="M 20.404376,-3.338628 C 20.607823,-3.373635 20.765651,-3.44052 20.891245,-3.510089" />
      <path d="M 20.891245,-3.510089 C 21.078866,-3.579943 21.414212,-3.641972 21.7318,-3.678971 C 22.055796,-3.716995 22.358016,-3.73471 22.676154,-3.742977" />
      <path d="M 22.676154,-3.742977 Q 22.875784,-3.652289 23.057878,-3.555903" />
      <path d="M 23.406369,-2.397435 Q 23.715871,-2.375914 23.995043,-2.336503 Q 24.269019,-2.298131 24.529905,-2.246093" />
      <path d="M 24.529905,-2.246093 Q 24.589166,-2.127722 24.6261,-2.007915" />
      <path d="M 11.53381,2.076685 Q 11.638814,1.981841 11.765578,1.89133" />
      <path d="M 11.7328,1.759403 L 11.765578,1.89133" />
      <path d="M 11.765578,1.89133 Q 11.80381,1.862901 11.794461,1.829238" />
      <path d="M 11.794461,1.829238 C 11.780826,1.777807 11.689792,1.725992 11.582686,1.686116 C 11.473109,1.64656 11.352434,1.614289 11.22066,1.589303" />
      <path d="M 11.22066,1.589303 C 11.017528,1.526738 10.809809,1.404732 10.66686,1.285662 C 10.520337,1.164236 10.427562,1.048094 10.355571,0.924152" />
      <path d="M 10.062059,0.320894 Q 10.20306,0.620608 10.355571,0.924152" />
      <path d="M 10.355571,0.924152 Q 10.547469,0.830844 10.756299,0.743519" />
      <path d="M 10.288974,-0.159816 Q 10.510663,0.287401 10.756299,0.743519" />
      <path d="M 11.040488,-2.876494 C 11.42138,-1.613642 11.922453,-0.328258 12.515628,1.005579" />
      <path d="M 12.515628,1.005579 C 12.612976,1.064492 12.727058,1.119134 12.876902,1.160368 C 13.02284,1.201161 13.210386,1.220951 13.332928,1.184826" />
      <path d="M 12.116794,-2.293951 C 12.455554,-1.157666 12.866558,-0.003149 13.332928,1.184826" />
      <path d="M 10.756299,0.743519 C 11.073312,0.757013 11.373445,0.779686 11.693237,0.823009 C 12.006732,0.865202 12.335383,0.932697 12.515628,1.005579" />
      <line x1="12.129036" y1="4.275753" x2="12.874807" y2="4.058212" />
      <path d="M 12.011573,3.168454 C 12.094195,3.484978 12.401774,3.802009 12.874807,4.058212" />
      <path d="M 13.87805,1.48244 C 13.232464,1.669256 12.69826,1.934072 12.378785,2.225655" />
      <path d="M 16.107641,1.13795 C 15.314481,1.170922 14.520054,1.293667 13.87805,1.48244" />
      <path d="M 12.874807,4.058212 C 13.34294,4.315845 14.006525,4.529029 14.737186,4.656521" />
      <path d="M 18.470141,1.284493 C 17.741933,1.154785 16.900149,1.10257 16.107641,1.13795" />
      <path d="M 14.737186,4.656521 C 15.465394,4.786229 16.307178,4.838444 17.099686,4.803064" />
      <path d="M 20.332519,1.882802 C 19.864387,1.625169 19.200801,1.411985 18.470141,1.284493" />
      <path d="M 17.099686,4.803064 C 17.892846,4.770092 18.687273,4.647347 19.329277,4.458574" />
      <path d="M 21.195754,2.77256 C 21.113132,2.456035 20.805552,2.139005 20.332519,1.882802" />
      <path d="M 19.329277,4.458574 C 19.974862,4.271758 20.509067,4.006942 20.828542,3.715359" />
      <path d="M 20.828542,3.715359 C 21.153569,3.424754 21.284411,3.088825 21.195754,2.77256" />
      <line x1="13.332928" y1="1.184826" x2="13.87805" y2="1.48244" />
      <path d="M 11.867692,4.119558 Q 11.771395,4.361471 11.679872,4.601911" />
      <path d="M 11.679872,4.601911 C 11.794944,4.57265 11.898738,4.537663 11.991255,4.496952 C 12.081883,4.455964 12.157858,4.405632 12.17369,4.356072" />
      <path d="M 12.17369,4.356072 Q 12.189051,4.310487 12.129036,4.275753" />
      <path d="M 14.363891,4.993724 Q 14.126226,4.95182 13.89942,4.901232" />
      <path d="M 13.89942,4.901232 C 13.766809,4.871303 13.586657,4.900018 13.454185,4.947568 C 13.317971,4.995746 13.221326,5.055502 13.14259,5.118692" />
      <path d="M 13.14259,5.118692 C 12.985811,5.199756 12.680084,5.28265 12.381716,5.339696 C 12.07744,5.398168 11.786407,5.435192 11.47583,5.463921" />
      <path d="M 11.47583,5.463921 Q 11.242016,5.387341 11.023192,5.304003" />
      <path d="M 11.023192,5.304003 Q 11.04727,5.21098 11.092967,5.121085" />
      <path d="M 11.092967,5.121085 C 11.139114,5.027322 11.211833,4.932904 11.311125,4.837832 C 11.410515,4.744618 11.543192,4.655847 11.679872,4.601911" />
      <path d="M 13.332928,1.184826 Q 13.542696,1.12364 13.765881,1.070549" />
      <path d="M 13.475293,0.354045 Q 13.617598,0.710277 13.765881,1.070549" />
      <path d="M 13.765881,1.070549 C 13.893007,1.040661 13.923492,0.967516 13.890913,0.899817" />
      <path d="M 13.890913,0.899817 C 13.856651,0.826291 13.772901,0.760734 13.672383,0.700257" />
      <path d="M 13.672383,0.700257 Q 13.632948,0.661272 13.607779,0.61207" />
      <path d="M 13.607779,0.61207 C 13.554582,0.508759 13.554262,0.384402 13.58561,0.272597 C 13.6182,0.161572 13.675188,0.054574 13.756573,-0.048395" />
      <path d="M 11.269041,-4.037437 C 12.000347,-2.763627 12.845307,-1.441908 13.756573,-0.048395" />
      <path d="M 13.756573,-0.048395 Q 14.039669,-0.090912 14.329933,-0.12487" />
      <path d="M 11.737819,-4.189771 C 12.515115,-2.893431 13.3956,-1.545945 14.329933,-0.12487" />
      <path d="M 13.36749,-3.817409 Q 13.969026,-2.579427 14.630833,-1.28922" />
      <path d="M 14.630833,-1.28922 Q 15.069634,-0.431783 15.525216,0.453127" />
      <path d="M 15.525216,0.453127 Q 15.531651,0.501329 15.554256,0.548019" />
      <path d="M 15.554256,0.548019 C 15.57863,0.603103 15.628725,0.654049 15.704543,0.700855 C 15.780825,0.745431 15.892534,0.776596 16.008437,0.771439" />
      <path d="M 14.101208,-3.587681 C 14.696833,-2.177723 15.344677,-0.730297 16.008437,0.771439" />
      <path d="M 14.329933,-0.12487 C 14.587567,-0.049928 14.819082,0.029594 15.04175,0.130922 C 15.260381,0.230015 15.460436,0.354044 15.525216,0.453127" />
      <path d="M 16.008437,0.771439 Q 16.266762,0.760306 16.526565,0.758861" />
      <path d="M 14.57484,-3.672451 C 15.196063,-2.239728 15.859022,-0.76778 16.526565,0.758861" />
      <path d="M 16.526565,0.758861 C 16.678909,0.758322 16.798947,0.697507 16.854094,0.629893 C 16.911696,0.56099 16.920521,0.489955 16.909539,0.419522" />
      <path d="M 14.632931,-4.043896 L 14.764211,-3.787222" />
      <path d="M 14.764211,-3.787222 Q 15.388168,-2.573054 16.03602,-1.309237" />
      <path d="M 16.03602,-1.309237 Q 16.471738,-0.457625 16.909539,0.419522" />
      <path d="M 16.909539,0.419522 C 16.943747,0.318036 17.104655,0.185245 17.291575,0.076307 C 17.481825,-0.035045 17.687479,-0.125179 17.920451,-0.212031" />
      <path d="M 15.019991,-4.77721 C 15.974675,-3.323117 16.959898,-1.805697 17.920451,-0.212031" />
      <path d="M 17.920451,-0.212031 Q 18.218889,-0.192364 18.512812,-0.163854" />
      <path d="M 15.616826,-4.815598 C 16.583111,-3.332817 17.566814,-1.785993 18.512812,-0.163854" />
      <path d="M 18.823774,0.575205 C 18.722086,0.656174 18.641878,0.7507 18.673912,0.842883" />
      <path d="M 18.673912,0.842883 Q 18.700704,0.917729 18.843436,0.94729" />
      <path d="M 16.909211,-3.822596 Q 17.299311,-2.919882 17.681782,-1.997232" />
      <path d="M 18.734803,0.657687 L 18.843436,0.94729" />
      <path d="M 18.512812,-0.163854 C 18.638298,-0.05092 18.736592,0.060428 18.802881,0.187964" />
      <path d="M 18.802881,0.187964 C 18.872655,0.320514 18.893942,0.47338 18.823774,0.575205" />
      <path d="M 17.19889,5.169575 Q 16.940564,5.180707 16.680762,5.182153" />
      <path d="M 16.680762,5.182153 C 16.585771,5.182647 16.499472,5.206829 16.438341,5.242118 C 16.377488,5.2791 16.337043,5.32057 16.317006,5.366527" />
      <path d="M 16.317006,5.366527 Q 16.282883,5.44379 16.297787,5.521492" />
      <path d="M 16.439916,5.241225 L 16.297787,5.521492" />
      <path d="M 16.297787,5.521492 L 16.286745,5.547" />
      <path d="M 16.286745,5.547 C 16.234704,5.649657 16.07372,5.774954 15.892436,5.878263 C 15.707981,5.983662 15.51057,6.069661 15.286876,6.153044" />
      <path d="M 15.286876,6.153044 Q 14.988438,6.133378 14.694515,6.104868" />
      <path d="M 14.526803,5.08426 L 14.383553,5.365809" />
      <path d="M 14.383553,5.365809 Q 14.481097,5.29119 14.524108,5.20786" />
      <path d="M 14.524108,5.20786 C 14.567617,5.12459 14.534482,5.023697 14.363891,4.993724" />
      <path d="M 14.694515,6.104868 C 14.570259,5.993046 14.472809,5.882908 14.406434,5.756897 C 14.340923,5.633315 14.315874,5.492635 14.369144,5.390138" />
      <path d="M 14.369144,5.390138 L 14.383553,5.365809" />
      <path d="M 18.843436,0.94729 Q 19.081101,0.989194 19.307907,1.039782" />
      <path d="M 17.425598,-3.801503 C 18.085844,-2.231753 18.725223,-0.620546 19.307907,1.039782" />
      <path d="M 19.307907,1.039782 C 19.440518,1.069713 19.62067,1.040997 19.753142,0.993446 C 19.889356,0.945267 19.986,0.885509 20.064737,0.822322" />
      <path d="M 17.941297,-4.111593 C 18.695149,-2.517062 19.416435,-0.874391 20.064737,0.822322" />
      <path d="M 20.064737,0.822322 C 20.221515,0.741258 20.527243,0.658364 20.825611,0.601318 C 21.129887,0.542846 21.420919,0.505822 21.731496,0.477092" />
      <path d="M 19.195284,-4.66943 C 20.117539,-3.014636 20.979035,-1.299747 21.731496,0.477092" />
      <path d="M 21.731496,0.477092 Q 21.965311,0.553673 22.184135,0.63701" />
      <path d="M 19.760255,-4.583586 Q 19.958352,-4.21194 20.151475,-3.83651" />
      <path d="M 20.151475,-3.83651 C 20.896596,-2.387718 21.583685,-0.896636 22.184135,0.63701" />
      <path d="M 21.527454,1.339102 C 21.40021,1.371216 21.287256,1.410526 21.188592,1.457035 C 21.092825,1.503689 21.019681,1.562297 21.03207,1.614647" />
      <path d="M 21.03207,1.614647 Q 21.038432,1.642877 21.07829,1.665261" />
      <path d="M 21.052571,1.551929 L 21.07829,1.665261" />
      <path d="M 22.184135,0.63701 C 22.15032,0.76352 22.093505,0.883294 21.984945,1.010913 C 21.879216,1.136018 21.710086,1.267173 21.527454,1.339102" />
      <path d="M 19.874399,4.756188 Q 19.66463,4.817374 19.441446,4.870465" />
      <path d="M 19.441446,4.870465 Q 19.329865,4.899689 19.309838,4.959683" />
      <path d="M 19.309838,4.959683 C 19.29287,5.006979 19.318488,5.05979 19.361484,5.107282 C 19.405961,5.154679 19.463781,5.19917 19.534944,5.240757" />
      <path d="M 19.713108,4.801501 L 19.534944,5.240757" />
      <path d="M 19.534944,5.240757 C 19.608217,5.312106 19.643217,5.415193 19.642938,5.517016 C 19.640728,5.620528 19.614567,5.719207 19.564454,5.813053" />
      <path d="M 19.564454,5.813053 Q 19.518731,5.901425 19.450754,5.989409" />
      <path d="M 19.450754,5.989409 Q 19.167658,6.031926 18.877393,6.065884" />
      <path d="M 17.68211,5.487887 C 17.671618,5.417441 17.641282,5.347357 17.563177,5.281749 C 17.4879,5.217303 17.350275,5.162743 17.19889,5.169575" />
      <path d="M 18.877393,6.065884 C 18.619759,5.990942 18.388245,5.91142 18.165577,5.810092 C 17.946946,5.710999 17.746891,5.58697 17.68211,5.487887" />
      <path d="M 21.07829,1.665261 Q 21.231612,1.748973 21.36465,1.838038" />
      <path d="M 21.280778,1.416924 L 21.36465,1.838038" />
      <path d="M 21.36465,1.838038 C 21.441994,1.89042 21.633989,1.901498 21.808289,1.88675 C 21.986618,1.872205 22.145185,1.839737 22.292542,1.800726" />
      <path d="M 20.891245,-3.510089 Q 21.434083,-1.868327 21.852022,-0.186098" />
      <path d="M 22.095608,0.854608 Q 22.199646,1.326136 22.292542,1.800726" />
      <path d="M 22.292542,1.800726 C 22.529883,1.761806 22.89851,1.75102 23.228379,1.761152 C 23.565151,1.771226 23.86358,1.797234 24.168543,1.834324" />
      <path d="M 22.676154,-3.742977 C 23.318863,-1.920841 23.825795,-0.059626 24.168543,1.834324" />
      <path d="M 24.168543,1.834324 Q 24.275083,1.947299 24.360176,2.063134" />
      <path d="M 23.057878,-3.555903 C 23.644132,-1.715414 24.086494,0.159978 24.360176,2.063134" />
      <path d="M 22.911809,2.540133 C 22.737841,2.542491 22.569388,2.557605 22.406451,2.585475 C 22.247811,2.614081 22.10927,2.665851 22.112956,2.724793" />
      <path d="M 22.112956,2.724793 L 22.114172,2.732971" />
      <path d="M 22.113512,2.716504 L 22.114172,2.732971" />
      <path d="M 24.360176,2.063134 C 24.172384,2.165947 23.973115,2.258337 23.719203,2.347197 C 23.470891,2.434446 23.160095,2.514281 22.911809,2.540133" />
      <path d="M 21.673517,3.864329 Q 21.568513,3.959173 21.441748,4.049684" />
      <path d="M 21.441748,4.049684 Q 21.415978,4.068517 21.411942,4.090207" />
      <path d="M 21.411942,4.090207 C 21.401377,4.143815 21.49011,4.202096 21.601848,4.246092 C 21.716888,4.289858 21.845161,4.325064 21.986667,4.351711" />
      <path d="M 22.112406,3.794947 L 21.986667,4.351711" />
      <path d="M 21.986667,4.351711 C 22.189799,4.414276 22.397518,4.536282 22.540467,4.655351 C 22.686989,4.776778 22.779765,4.89292 22.851756,5.016861" />
      <path d="M 23.219024,3.869459 Q 23.04463,4.445533 22.851756,5.016861" />
      <path d="M 22.851756,5.016861 Q 22.659858,5.110169 22.451028,5.197495" />
      <path d="M 20.691699,4.935435 C 20.59435,4.87652 20.480268,4.821879 20.330425,4.780645 C 20.184487,4.739854 19.996941,4.720065 19.874399,4.756188" />
      <path d="M 22.451028,5.197495 C 22.134014,5.184001 21.833882,5.161328 21.51409,5.118005 C 21.200594,5.075812 20.871943,5.008317 20.691699,4.935435" />
      <path d="M 22.114172,2.732971 Q 22.142068,2.836061 22.14569,2.939739" />
      <path d="M 22.143464,2.675067 L 22.14569,2.939739" />
      <path d="M 22.14569,2.939739 C 22.147043,3.000536 22.299435,3.048439 22.468862,3.070446 C 22.642663,3.091505 22.818382,3.098881 22.996018,3.092572" />
      <path d="M 23.00298,2.528606 Q 23.001696,2.810508 22.996018,3.092572" />
      <path d="M 22.996018,3.092572 C 23.250325,3.106224 23.583079,3.170437 23.856059,3.245031 C 24.13509,3.320953 24.360952,3.403023 24.578587,3.495995" />
      <path d="M 24.529905,-2.246093 Q 24.686481,-0.678871 24.686544,0.891326" />
      <path d="M 24.686544,0.891326 Q 24.686587,2.194099 24.578587,3.495995" />
      <path d="M 24.578587,3.495995 Q 24.529305,3.615092 24.457865,3.732387" />
      <path d="M 24.6261,-2.007915 Q 24.686638,-1.033172 24.686561,-0.058749" />
      <path d="M 22.605901,3.856482 C 22.44862,3.822934 22.279683,3.802279 22.09909,3.794517 C 21.921596,3.78831 21.734381,3.808594 21.673517,3.864329" />
      <path d="M 24.457865,3.732387 C 24.166416,3.783955 23.878087,3.824207 23.546858,3.850497 C 23.222499,3.87651 22.853314,3.883635 22.605901,3.856482" />
      <line x1="14.363891" y1="4.993724" x2="14.737186" y2="4.656521" />
      <line x1="16.008437" y1="0.771439" x2="16.107641" y2="1.13795" />
      <line x1="18.843436" y1="0.94729" x2="18.470141" y2="1.284493" />
      <line x1="17.19889" y1="5.169575" x2="17.099686" y2="4.803064" />
      <line x1="21.07829" y1="1.665261" x2="20.332519" y2="1.882802" />
      <line x1="19.874399" y1="4.756188" x2="19.329277" y2="4.458574" />
      <line x1="22.114172" y1="2.732971" x2="21.195754" y2="2.77256" />
      <line x1="21.673517" y1="3.864329" x2="20.828542" y2="3.715359" />
      <path d="M 8.065845,0.947695 L 8.061599,0.978074" />
      <path d="M 8.061599,0.978074 Q 8.128981,1.091517 8.18298,1.206094" />
      <path d="M 8.218363,0.877775 L 8.18298,1.206094" />
      <path d="M 9.42779,-3.694086 C 9.876986,-3.662755 10.292092,-3.6121 10.686333,-3.551402" />
      <path d="M 10.686333,-3.551402 Q 10.751075,-3.412137 10.799254,-3.271807" />
      <path d="M 8.18298,1.206094 C 8.219996,1.271668 8.510064,1.280726 8.650318,1.278515" />
      <path d="M 8.698646,0.779927 L 8.650318,1.278515" />
      <path d="M 8.650318,1.278515 C 8.987313,1.275377 9.402468,1.304665 9.783637,1.348811 C 10.169159,1.393332 10.521951,1.450489 10.860073,1.515601" />
      <path d="M 10.866884,1.427153 L 10.860073,1.515601" />
      <path d="M 10.860073,1.515601 Q 10.896233,1.656504 10.915669,1.797933" />
      <path d="M 10.927625,1.462368 L 10.915669,1.797933" />
      <path d="M 8.825837,2.169854 C 8.68644,2.176413 8.403478,2.203442 8.392583,2.270518" />
      <path d="M 10.915669,1.797933 C 10.607183,1.883322 10.281094,1.961768 9.91773,2.029775 C 9.55852,2.097139 9.159924,2.151946 8.825837,2.169854" />
      <path d="M 8.414804,0.836091 C 8.294344,0.855267 8.067974,0.903673 8.058806,0.962942" />
      <path d="M 8.058806,0.962942 Q 8.057694,0.970417 8.061599,0.978074" />
      <line x1="7.162746" y1="1.063101" x2="8.061599" y2="0.978074" />
      <path d="M 7.469213,2.259808 C 7.498886,1.858987 7.394977,1.45324 7.162746,1.063101" />
      <line x1="8.392583" y1="2.270518" x2="7.469213" y2="2.259808" />
      <path d="M 6.925155,-0.312517 L 6.903668,-0.236144" />
      <path d="M 6.903668,-0.236144 Q 7.042328,-0.133527 7.168797,-0.028431" />
      <path d="M 7.275724,-0.450523 L 7.168797,-0.028431" />
      <path d="M 7.25761,-4.974408 C 7.575228,-5.018662 7.977407,-5.043773 8.360019,-5.052055 C 8.746591,-5.060506 9.113582,-5.053993 9.474721,-5.038598" />
      <path d="M 9.474721,-5.038598 Q 9.627579,-4.910766 9.765128,-4.780194" />
      <path d="M 7.168797,-0.028431 C 7.24708,0.031085 7.533139,0.009874 7.66718,-0.006747" />
      <path d="M 7.840645,-0.703212 Q 7.75736,-0.355461 7.66718,-0.006747" />
      <path d="M 7.66718,-0.006747 C 7.990657,-0.044585 8.410661,-0.059175 8.807473,-0.055903 C 9.208734,-0.052718 9.586574,-0.033947 9.955403,-0.005978" />
      <path d="M 10.686333,-3.551402 Q 10.438393,-1.791855 9.955403,-0.005978" />
      <path d="M 9.955403,-0.005978 Q 10.081716,0.12639 10.192214,0.260992" />
      <path d="M 10.799254,-3.271807 Q 10.614687,-1.516341 10.192214,0.260992" />
      <path d="M 10.192214,0.260992 C 9.949619,0.375334 9.685518,0.484788 9.378643,0.588008 C 9.075361,0.690178 8.725894,0.784287 8.414804,0.836091" />
      <path d="M 4.458352,-6.088595 L 4.696808,-5.996939" />
      <path d="M 4.696808,-5.996939 C 4.820708,-5.951405 5.072203,-6.00979 5.184414,-6.043441" />
      <path d="M 5.184414,-6.043441 C 5.457125,-6.12251 5.840338,-6.192646 6.21677,-6.242848 C 6.595955,-6.292405 6.970319,-6.328114 7.33986,-6.349977" />
      <path d="M 7.33986,-6.349977 Q 7.570416,-6.242288 7.787962,-6.130372" />
      <path d="M 1.58911,-6.892841 Q 1.849408,-6.839908 2.103211,-6.782169" />
      <path d="M 2.103211,-6.782169 C 2.25242,-6.750984 2.457479,-6.833356 2.544042,-6.87745" />
      <path d="M 2.544042,-6.87745 C 2.756181,-6.981991 3.080848,-7.089319 3.411894,-7.176691 C 3.746019,-7.263723 4.084467,-7.336882 4.427237,-7.396169" />
      <path d="M 4.427237,-7.396169 Q 4.719779,-7.315963 5.002497,-7.23033" />
      <path d="M 5.002497,-7.23033 Q 4.967199,-7.080802 4.889994,-6.928476" />
      <path d="M -1.479641,-7.326561 Q -1.193881,-7.302316 -0.91128,-7.27276" />
      <path d="M -0.91128,-7.27276 C -0.746929,-7.258048 -0.60228,-7.358793 -0.547265,-7.410326" />
      <path d="M -0.547265,-7.410326 C -0.410156,-7.533216 -0.166159,-7.67042 0.096941,-7.789008 C 0.363235,-7.907585 0.642703,-8.013208 0.935343,-8.105878" />
      <path d="M 0.935343,-8.105878 Q 1.269935,-8.058621 1.598557,-8.005107" />
      <path d="M 1.49645,-6.968334 C 1.500908,-6.935714 1.525963,-6.906631 1.58911,-6.892841" />
      <path d="M 1.598557,-8.005107 C 1.653824,-7.876953 1.686067,-7.744236 1.695286,-7.606955 C 1.702842,-7.469796 1.679965,-7.324785 1.614389,-7.197569" />
      <path d="M -4.725118,-7.428542 Q -4.433372,-7.434639 -4.141231,-7.435278" />
      <path d="M -4.141231,-7.435278 C -4.023291,-7.436994 -3.95109,-7.493324 -3.912123,-7.545383" />
      <path d="M -3.878839,-7.605754 L -3.860516,-7.645686" />
      <path d="M -3.860516,-7.645686 C -3.793293,-7.776848 -3.647,-7.925354 -3.475642,-8.059119 C -3.301812,-8.192967 -3.109217,-8.316841 -2.897856,-8.43074" />
      <path d="M -2.897856,-8.43074 Q -2.544016,-8.419651 -2.191885,-8.401903" />
      <path d="M -1.650048,-7.514716 C -1.658892,-7.458813 -1.643039,-7.342875 -1.479641,-7.326561" />
      <path d="M -2.191885,-8.401903 C -2.034718,-8.266654 -1.9039,-8.122193 -1.79943,-7.968519 C -1.697826,-7.815408 -1.634242,-7.649089 -1.650048,-7.514716" />
      <path d="M -7.92615,-7.191834 Q -7.704324,-7.220593 -7.479938,-7.246025" />
      <path d="M -7.136457,-7.914238 Q -7.013764,-8.143882 -6.811134,-8.348614" />
      <path d="M -6.811134,-8.348614 Q -6.46216,-8.374451 -6.110516,-8.393677" />
      <path d="M -5.011749,-7.592685 C -4.984035,-7.537773 -4.893529,-7.427423 -4.725118,-7.428542" />
      <path d="M -6.110516,-8.393677 C -5.870988,-8.27927 -5.650935,-8.153243 -5.450359,-8.015596 C -5.252916,-7.878197 -5.08363,-7.724112 -5.011749,-7.592685" />
      <path d="M -10.537807,-7.865099 Q -10.21748,-7.926099 -9.890288,-7.980991" />
      <path d="M -8.30947,-7.320779 C -8.247087,-7.270601 -8.088097,-7.173359 -7.92615,-7.191834" />
      <path d="M -9.890288,-7.980991 C -9.584722,-7.895222 -9.290432,-7.796218 -9.007417,-7.683977 C -8.72759,-7.571653 -8.46414,-7.440303 -8.30947,-7.320779" />
      <path d="M -13.823909,-7.013144 Q -13.554059,-7.105151 -13.273616,-7.191967" />
      <path d="M -11.318478,-6.717528 C -11.273127,-6.697006 -11.199488,-6.668497 -11.118636,-6.648244" />
      <path d="M -13.273616,-7.191967 C -12.922836,-7.140682 -12.574363,-7.075447 -12.228198,-6.996263 C -11.885057,-6.916668 -11.545395,-6.817005 -11.318478,-6.717528" />
      <path d="M -16.445496,-5.850809 Q -16.244514,-5.967553 -16.029932,-6.080377" />
      <path d="M -16.029932,-6.080377 C -15.736678,-6.069517 -15.439543,-6.05066 -15.138525,-6.023807 C -14.837458,-5.996445 -14.526504,-5.958509 -14.245817,-5.909925" />
      <path d="M -18.223914,-4.457305 Q -18.105495,-4.59083 -17.971397,-4.721973" />
      <path d="M -17.971397,-4.721973 C -17.577322,-4.748029 -17.17165,-4.76369 -16.74249,-4.760722" />
      <path d="M -19.037964,-2.927598 Q -19.010179,-3.068804 -18.965704,-3.209328" />
      <path d="M -18.965704,-3.209328 Q -18.690779,-3.259434 -18.400442,-3.301229" />
      <path d="M 8.392583,2.270518 Q 8.384095,2.387054 8.361943,2.503305" />
      <path d="M 8.361943,2.503305 L 8.361808,2.507158" />
      <path d="M 8.361808,2.507158 C 8.365835,2.571977 8.632067,2.609404 8.766388,2.621528" />
      <path d="M 8.758599,2.498733 L 8.766388,2.621528" />
      <path d="M 8.766388,2.621528 C 9.093935,2.653304 9.475949,2.724474 9.815499,2.806485 C 10.15901,2.889309 10.462711,2.980957 10.747083,3.078773" />
      <path d="M 10.720334,2.868185 L 10.747083,3.078773" />
      <path d="M 10.747083,3.078773 Q 10.690628,3.21861 10.617676,3.357227" />
      <path d="M 8.357842,3.500624 C 8.21894,3.492562 7.92809,3.489443 7.874064,3.553108" />
      <path d="M 10.617676,3.357227 C 10.264322,3.407844 9.898467,3.449937 9.503378,3.478096 C 9.112718,3.506063 8.692159,3.517833 8.357842,3.500624" />
      <line x1="6.903668" y1="-0.236144" x2="6.090587" y2="-0.061175" />
      <path d="M 7.162746,1.063101 C 6.931452,0.672873 6.567934,0.291684 6.090587,-0.061175" />
      <path d="M 6.989102,3.447392 C 7.27772,3.063294 7.440503,2.66064 7.469213,2.259808" />
      <path d="M 5.755133,4.544921 C 6.283026,4.203721 6.701407,3.831601 6.989102,3.447392" />
      <path d="M 6.090587,-0.061175 C 5.614089,-0.414217 5.015734,-0.744871 4.325803,-1.036403" />
      <path d="M 3.851398,5.477601 C 4.582593,5.202551 5.22806,4.886323 5.755133,4.544921" />
      <path d="M 4.325803,-1.036403 C 3.636573,-1.3282 2.844157,-1.585785 1.988659,-1.796123" />
      <path d="M 1.407635,6.18187 C 2.2923,5.991715 3.120865,5.75293 3.851398,5.477601" />
      <path d="M 1.988659,-1.796123 C 1.133667,-2.006789 0.201193,-2.173751 -0.761571,-2.288561" />
      <path d="M -1.40962,6.609734 C -0.431772,6.517432 0.523427,6.372364 1.407635,6.18187" />
      <path d="M -0.761571,-2.288561 C -1.724059,-2.403739 -2.733045,-2.4687 -3.737465,-2.480158" />
      <path d="M -4.408374,6.732035 C -3.403982,6.743877 -2.387245,6.70241 -1.40962,6.609734" />
      <path d="M -3.737465,-2.480158 C -4.741856,-2.491999 -5.758593,-2.450533 -6.736218,-2.357857" />
      <path d="M -7.384267,6.540439 C -6.421779,6.655617 -5.412793,6.720578 -4.408374,6.732035" />
      <path d="M -6.736218,-2.357857 C -7.714066,-2.265555 -8.669265,-2.120486 -9.553473,-1.929992" />
      <path d="M -10.134497,6.048001 C -9.279505,6.258666 -8.347031,6.425629 -7.384267,6.540439" />
      <path d="M -9.553473,-1.929992 C -10.438138,-1.739837 -11.266704,-1.501052 -11.997236,-1.225723" />
      <path d="M -12.471641,5.288281 C -11.782411,5.580077 -10.989995,5.837663 -10.134497,6.048001" />
      <path d="M -11.997236,-1.225723 C -12.728431,-0.950673 -13.373898,-0.634445 -13.900971,-0.293044" />
      <path d="M -14.236426,4.313053 C -13.759927,4.666095 -13.161572,4.996749 -12.471641,5.288281" />
      <path d="M -13.900971,-0.293044 C -14.428864,0.048157 -14.847245,0.420277 -15.13494,0.804486" />
      <path d="M -15.308584,3.188777 C -15.07729,3.579004 -14.713772,3.960194 -14.236426,4.313053" />
      <path d="M -15.13494,0.804486 C -15.423558,1.188584 -15.586341,1.591238 -15.615051,1.99207" />
      <path d="M -15.615051,1.99207 C -15.644724,2.39289 -15.540815,2.798637 -15.308584,3.188777" />
      <line x1="7.874064" y1="3.553108" x2="6.989102" y2="3.447392" />
      <path d="M 7.152753,-0.409771 C 7.060878,-0.382382 6.9048,-0.324746 6.889123,-0.271398" />
      <path d="M 6.889123,-0.271398 Q 6.883253,-0.253002 6.903668,-0.236144" />
      <path d="M 5.058598,-1.444539 L 4.9977,-1.289391" />
      <path d="M 4.9977,-1.289391 Q 5.19819,-1.204592 5.38851,-1.116139" />
      <path d="M 5.691295,-1.937505 Q 5.543581,-1.527868 5.38851,-1.116139" />
      <path d="M 5.38851,-1.116139 C 5.502725,-1.066737 5.76528,-1.116771 5.883974,-1.14667" />
      <path d="M 7.087004,-4.614961 Q 6.556808,-2.900235 5.883974,-1.14667" />
      <path d="M 5.883974,-1.14667 C 6.171889,-1.21663 6.568119,-1.274103 6.953532,-1.311929 C 7.341557,-1.34902 7.721955,-1.372467 8.094727,-1.38227" />
      <path d="M 9.474721,-5.038598 Q 8.889706,-3.235289 8.094727,-1.38227" />
      <path d="M 8.094727,-1.38227 Q 8.302584,-1.267459 8.496614,-1.148856" />
      <path d="M 9.765128,-4.780194 Q 9.23868,-2.987372 8.496614,-1.148856" />
      <path d="M 8.496614,-1.148856 C 8.336443,-1.013354 8.152328,-0.880351 7.922854,-0.748952 C 7.696169,-0.618939 7.419645,-0.491941 7.152753,-0.409771" />
      <path d="M 7.874064,3.553108 Q 7.790284,3.664798 7.693492,3.774799" />
      <path d="M 7.693492,3.774799 Q 7.684589,3.786193 7.687076,3.797611" />
      <path d="M 7.687076,3.797611 C 7.699155,3.854159 7.897728,3.907707 8.00748,3.930767" />
      <path d="M 7.916411,3.527423 L 8.00748,3.930767" />
      <path d="M 8.00748,3.930767 C 8.303258,3.995292 8.626097,4.103494 8.900889,4.217781 C 9.178979,4.333262 9.412893,4.453156 9.624136,4.577011" />
      <path d="M 9.490259,4.15284 L 9.624136,4.577011" />
      <path d="M 9.624136,4.577011 Q 9.47891,4.706252 9.318544,4.832611" />
      <path d="M 7.04271,4.737711 C 6.91377,4.715578 6.634853,4.682524 6.541377,4.73844" />
      <path d="M 9.318544,4.832611 C 8.944402,4.845007 8.563713,4.847877 8.163824,4.83427 C 7.768337,4.820933 7.354474,4.788865 7.04271,4.737711" />
      <path d="M 6.541377,4.73844 Q 6.388015,4.83767 6.223179,4.933926" />
      <path d="M 6.223179,4.933926 Q 6.191998,4.954428 6.20138,4.978836" />
      <path d="M 6.20138,4.978836 C 6.218951,5.03021 6.34648,5.087905 6.425313,5.117011" />
      <path d="M 6.336054,4.86685 L 6.425313,5.117011" />
      <path d="M 6.425313,5.117011 C 6.669165,5.209886 6.910828,5.347746 7.102135,5.486521 C 7.295852,5.626791 7.444038,5.766759 7.567756,5.908212" />
      <path d="M 7.015623,4.733263 Q 7.300192,5.324051 7.567756,5.908212" />
      <path d="M 7.567756,5.908212 Q 7.343659,6.01805 7.106805,6.12354" />
      <path d="M 4.970067,5.796811 C 4.859875,5.762114 4.611899,5.701378 4.485344,5.745734" />
      <path d="M 7.106805,6.12354 C 6.738658,6.098206 6.366508,6.058985 5.990356,6.005875 C 5.616994,5.952145 5.238031,5.878422 4.970067,5.796811" />
      <path d="M 2.967122,-3.180198 Q 2.724507,-2.647256 2.473585,-2.109888" />
      <path d="M 2.473585,-2.109888 Q 2.72224,-2.048686 2.963442,-1.982905" />
      <path d="M 4.696808,-5.996939 Q 3.894653,-4.021141 2.963442,-1.982905" />
      <path d="M 2.963442,-1.982905 C 3.105806,-1.946983 3.326964,-2.02243 3.422222,-2.063571" />
      <path d="M 5.184414,-6.043441 Q 4.37171,-4.085245 3.422222,-2.063571" />
      <path d="M 3.422222,-2.063571 C 3.654953,-2.160885 4.000408,-2.257325 4.348156,-2.333669 C 4.698903,-2.409574 5.051133,-2.471512 5.404845,-2.519483" />
      <path d="M 7.33986,-6.349977 Q 6.457638,-4.469581 5.404845,-2.519483" />
      <path d="M 5.404845,-2.519483 Q 5.680082,-2.430053 5.944421,-2.335532" />
      <path d="M 7.787962,-6.130372 Q 7.06465,-4.51057 6.206474,-2.840631" />
      <path d="M 6.206474,-2.840631 L 5.944421,-2.335532" />
      <path d="M 5.125692,-1.482828 C 5.067555,-1.453391 4.981543,-1.400226 4.962315,-1.352599" />
      <path d="M 4.962315,-1.352599 Q 4.944748,-1.315608 4.9977,-1.289391" />
      <path d="M 5.944421,-2.335532 L 5.907937,-2.259975" />
      <path d="M 5.907937,-2.259975 C 5.841084,-2.125386 5.743056,-1.989316 5.613854,-1.851766 C 5.483789,-1.715767 5.312455,-1.580505 5.125692,-1.482828" />
      <path d="M 4.485344,5.745734 Q 4.27285,5.825743 4.051203,5.901693" />
      <path d="M 4.051203,5.901693 C 3.999113,5.920632 3.991164,5.950381 4.004888,5.981756" />
      <path d="M 4.004888,5.981756 C 4.023941,6.025221 4.083944,6.07172 4.127709,6.099417" />
      <path d="M 4.04028,5.906106 L 4.127709,6.099417" />
      <path d="M 4.127709,6.099417 C 4.3396,6.238336 4.502,6.436839 4.595067,6.620167" />
      <path d="M 4.595067,6.620167 Q 4.687328,6.803609 4.718084,6.981658" />
      <path d="M 4.718084,6.981658 Q 4.430386,7.064607 4.133187,7.142038" />
      <path d="M 2.281159,6.605747 C 2.197225,6.56085 1.997089,6.476572 1.846079,6.506345" />
      <path d="M 4.133187,7.142038 C 3.794014,7.079544 3.459982,7.003221 3.131092,6.913069 C 2.8053,6.822606 2.487063,6.712254 2.281159,6.605747" />
      <path d="M 1.58911,-6.892841 Q 0.583938,-4.804847 -0.496664,-2.641721" />
      <path d="M -0.496664,-2.641721 Q -0.216788,-2.608287 0.058858,-2.56966" />
      <path d="M 2.103211,-6.782169 Q 1.123116,-4.712735 0.058858,-2.56966" />
      <path d="M 0.058858,-2.56966 C 0.219668,-2.549666 0.384359,-2.645386 0.449689,-2.694963" />
      <path d="M 2.544042,-6.87745 Q 1.542343,-4.823927 0.449689,-2.694963" />
      <path d="M 0.449689,-2.694963 C 0.611377,-2.812999 0.882513,-2.941834 1.168898,-3.051494 C 1.458465,-3.161041 1.758522,-3.257249 2.06907,-3.340119" />
      <path d="M 4.427237,-7.396169 Q 3.30793,-5.410616 2.06907,-3.340119" />
      <path d="M 2.06907,-3.340119 Q 2.392929,-3.282164 2.709563,-3.218167" />
      <path d="M 5.002497,-7.23033 Q 3.920769,-5.265546 2.709563,-3.218167" />
      <path d="M 2.47176,-2.309954 Q 2.434414,-2.276843 2.408181,-2.228193" />
      <path d="M 2.408181,-2.228193 C 2.385787,-2.181554 2.389314,-2.132054 2.473585,-2.109888" />
      <path d="M 2.709563,-3.218167 C 2.755434,-2.99973 2.749886,-2.76118 2.632092,-2.528311" />
      <path d="M 2.632092,-2.528311 Q 2.570627,-2.407631 2.47176,-2.309954" />
      <path d="M 1.846079,6.506345 Q 1.588936,6.561679 1.325583,6.612149" />
      <path d="M 1.325583,6.612149 C 1.208595,6.636434 1.216194,6.71232 1.244752,6.769229" />
      <path d="M 1.244752,6.769229 Q 1.257117,6.793206 1.271246,6.811038" />
      <path d="M 1.230042,6.729607 L 1.271246,6.811038" />
      <path d="M 1.271246,6.811038 Q 1.298277,6.848095 1.319367,6.88914" />
      <path d="M 1.319367,6.88914 C 1.386034,7.018363 1.4052,7.169354 1.391138,7.311775 C 1.375215,7.454444 1.334609,7.591917 1.269319,7.724195" />
      <path d="M 1.269319,7.724195 Q 0.937627,7.774602 0.600336,7.818698" />
      <path d="M -0.840769,7.109391 C -0.892725,7.057355 -1.031382,6.955277 -1.196556,6.968438" />
      <path d="M 0.600336,7.818698 C 0.313252,7.723301 0.040102,7.615078 -0.219113,7.494028 C -0.475134,7.372998 -0.710958,7.233536 -0.840769,7.109391" />
      <path d="M -1.479641,-7.326561 Q -2.583068,-5.127785 -3.710628,-2.848645" />
      <path d="M -3.710628,-2.848645 Q -3.418606,-2.845258 -3.127301,-2.836418" />
      <path d="M -0.91128,-7.27276 Q -2.002522,-5.094501 -3.127301,-2.836418" />
      <path d="M -3.127301,-2.836418 C -2.959003,-2.833715 -2.862003,-2.943183 -2.831052,-2.997819" />
      <path d="M -0.547265,-7.410326 Q -1.669695,-5.245205 -2.831052,-2.997819" />
      <path d="M -2.831052,-2.997819 C -2.751427,-3.128533 -2.573086,-3.280982 -2.367581,-3.416486 C -2.158929,-3.552208 -1.931492,-3.67613 -1.685272,-3.788251" />
      <path d="M 0.935343,-8.105878 Q -0.344771,-5.994264 -1.685272,-3.788251" />
      <path d="M -1.685272,-3.788251 Q -1.334861,-3.765722 -0.98751,-3.736609" />
      <path d="M 1.598557,-8.005107 Q 0.341273,-5.917435 -0.98751,-3.736609" />
      <path d="M 0.289618,-4.615395 L 0.085223,-4.216903" />
      <path d="M 0.085223,-4.216903 Q -0.267675,-3.529869 -0.628181,-2.834781" />
      <path d="M -0.628181,-2.834781 C -0.648383,-2.77935 -0.656198,-2.663281 -0.496664,-2.641721" />
      <path d="M -0.98751,-3.736609 C -0.858413,-3.59671 -0.757453,-3.448483 -0.684632,-3.291928 C -0.614552,-3.136028 -0.585057,-2.968197 -0.628181,-2.834781" />
      <path d="M -1.196556,6.968438 Q -1.480825,6.995328 -1.767937,7.016877" />
      <path d="M -1.767937,7.016877 C -1.932254,7.031649 -1.954952,7.147406 -1.949413,7.203377" />
      <path d="M -1.949413,7.203377 C -1.941549,7.337861 -2.014941,7.503536 -2.125562,7.655648 C -2.239081,7.808297 -2.378397,7.951487 -2.54351,8.085219" />
      <path d="M -2.54351,8.085219 Q -2.896593,8.09965 -3.250989,8.107406" />
      <path d="M -4.216609,7.207174 L -4.182962,7.273421" />
      <path d="M -4.182962,7.273421 Q -4.187174,7.258774 -4.196258,7.240453" />
      <path d="M -4.196258,7.240453 C -4.225497,7.182448 -4.296094,7.103951 -4.43521,7.100523" />
      <path d="M -3.250989,8.107406 C -3.449206,7.995042 -3.6294,7.873539 -3.791571,7.742898 C -3.951603,7.612245 -4.088484,7.46788 -4.155254,7.33777" />
      <path d="M -4.155254,7.33777 Q -4.172313,7.304664 -4.182962,7.273421" />
      <path d="M -4.725118,-7.428542 Q -5.851606,-5.11261 -6.949282,-2.71656" />
      <path d="M -6.949282,-2.71656 Q -6.665013,-2.74345 -6.377901,-2.764999" />
      <path d="M -4.141231,-7.435278 Q -5.269255,-5.140423 -6.377901,-2.764999" />
      <path d="M -6.377901,-2.764999 C -6.281591,-2.773429 -6.233765,-2.817257 -6.21204,-2.862846" />
      <path d="M -6.21204,-2.862846 Q -6.191007,-2.913812 -6.196425,-2.951499" />
      <path d="M -6.196425,-2.951499 Q -6.201059,-3.087607 -6.11871,-3.245222" />
      <path d="M -6.11871,-3.245222 C -6.008302,-3.457161 -5.819298,-3.654028 -5.602328,-3.833342" />
      <path d="M -2.897856,-8.43074 Q -4.251539,-6.18075 -5.602328,-3.833342" />
      <path d="M -5.602328,-3.833342 Q -5.249245,-3.847772 -4.894849,-3.855528" />
      <path d="M -2.191885,-8.401903 Q -3.539043,-6.177398 -4.894849,-3.855528" />
      <path d="M -1.650048,-7.514716 Q -2.796121,-5.309785 -3.962876,-3.021543" />
      <path d="M -3.962876,-3.021543 C -3.946438,-2.965914 -3.87871,-2.852993 -3.710628,-2.848645" />
      <path d="M -4.894849,-3.855528 C -4.679417,-3.73373 -4.485764,-3.600981 -4.313889,-3.457283 C -4.145087,-3.313934 -4.007748,-3.154867 -3.962876,-3.021543" />
      <path d="M -4.43521,7.100523 Q -4.727233,7.097136 -5.018538,7.088296" />
      <path d="M -5.018538,7.088296 C -5.186836,7.085593 -5.283835,7.195061 -5.314786,7.249697" />
      <path d="M -5.314786,7.249697 C -5.394411,7.38041 -5.572752,7.53286 -5.778257,7.668363 C -5.98691,7.804085 -6.214346,7.928007 -6.460566,8.040129" />
      <path d="M -6.460566,8.040129 Q -6.810977,8.017599 -7.158328,7.988487" />
      <path d="M -7.602569,6.903807 L -7.517657,7.086659" />
      <path d="M -7.517657,7.086659 C -7.507076,7.057546 -7.50001,7.012492 -7.518116,6.972578" />
      <path d="M -7.518116,6.972578 C -7.534734,6.93597 -7.572845,6.903706 -7.649174,6.893599" />
      <path d="M -7.158328,7.988487 Q -7.325402,7.806276 -7.431414,7.605878" />
      <path d="M -7.431414,7.605878 C -7.521893,7.432143 -7.566649,7.238259 -7.517657,7.086659" />
      <path d="M -7.92615,-7.191834 Q -8.998928,-4.760357 -9.991917,-2.254467" />
      <path d="M -9.991917,-2.254467 Q -9.734774,-2.309802 -9.471421,-2.360271" />
      <path d="M -9.40007,-2.534461 L -9.471421,-2.360271" />
      <path d="M -9.471421,-2.360271 Q -9.392575,-2.37889 -9.378684,-2.420389" />
      <path d="M -9.378684,-2.420389 C -9.359559,-2.466732 -9.390454,-2.524895 -9.417084,-2.55916" />
      <path d="M -9.417084,-2.55916 C -9.511901,-2.68825 -9.54846,-2.85586 -9.540262,-3.014215 C -9.529612,-3.173387 -9.487911,-3.326088 -9.415157,-3.472317" />
      <path d="M -6.811134,-8.348614 Q -8.04092,-6.145825 -9.214719,-3.863437" />
      <path d="M -9.214719,-3.863437 L -9.415157,-3.472317" />
      <path d="M -9.415157,-3.472317 Q -9.083465,-3.522725 -8.746174,-3.566821" />
      <path d="M -6.110516,-8.393677 Q -7.455742,-6.027719 -8.746174,-3.566821" />
      <path d="M -5.011749,-7.592685 Q -6.175437,-5.266403 -7.305069,-2.857513" />
      <path d="M -7.305069,-2.857513 C -7.253113,-2.805477 -7.114456,-2.703399 -6.949282,-2.71656" />
      <path d="M -8.746174,-3.566821 C -8.45909,-3.471423 -8.18594,-3.3632 -7.926725,-3.24215 C -7.670704,-3.12112 -7.43488,-2.981659 -7.305069,-2.857513" />
      <path d="M -7.649174,6.893599 Q -7.92905,6.860165 -8.204696,6.821538" />
      <path d="M -8.204696,6.821538 C -8.365506,6.801544 -8.530197,6.897263 -8.595527,6.946841" />
      <path d="M -8.595527,6.946841 C -8.757215,7.064876 -9.028351,7.193711 -9.314736,7.303371 C -9.604303,7.412918 -9.90436,7.509126 -10.214908,7.591996" />
      <path d="M -10.214908,7.591996 Q -10.538767,7.534042 -10.855401,7.470044" />
      <path d="M -11.421961,6.263364 Q -11.142314,6.869021 -10.855401,7.470044" />
      <path d="M -10.70534,6.340427 L -10.617598,6.561832" />
      <path d="M -10.617598,6.561832 C -10.578924,6.525894 -10.527619,6.461799 -10.546245,6.412939" />
      <path d="M -10.546245,6.412939 Q -10.556845,6.379689 -10.619423,6.361766" />
      <path d="M -10.855401,7.470044 C -10.889366,7.321578 -10.890752,7.167974 -10.859557,7.009232 C -10.826139,6.851406 -10.745781,6.686247 -10.617598,6.561832" />
      <path d="M -12.468811,-2.004083 L -12.631182,-1.493856" />
      <path d="M -12.631182,-1.493856 Q -12.418689,-1.573865 -12.197041,-1.649816" />
      <path d="M -12.163286,-1.751612 L -12.197041,-1.649816" />
      <path d="M -12.197041,-1.649816 Q -12.153988,-1.666246 -12.146997,-1.690524" />
      <path d="M -12.146997,-1.690524 C -12.130039,-1.742003 -12.216122,-1.811185 -12.273547,-1.84754" />
      <path d="M -12.273547,-1.84754 C -12.448855,-1.962437 -12.592874,-2.12056 -12.687658,-2.274366 C -12.783801,-2.429864 -12.83616,-2.580369 -12.863922,-2.72978" />
      <path d="M -10.537807,-7.865099 Q -11.763146,-5.339335 -12.863922,-2.72978" />
      <path d="M -12.863922,-2.72978 Q -12.576224,-2.81273 -12.279025,-2.890161" />
      <path d="M -9.890288,-7.980991 Q -11.141907,-5.478599 -12.279025,-2.890161" />
      <path d="M -8.30947,-7.320779 Q -9.41147,-4.875462 -10.426997,-2.353869" />
      <path d="M -10.426997,-2.353869 C -10.343063,-2.308972 -10.142927,-2.224694 -9.991917,-2.254467" />
      <path d="M -12.279025,-2.890161 C -11.939852,-2.827666 -11.605821,-2.751343 -11.27693,-2.661191 C -10.951138,-2.570729 -10.632901,-2.460377 -10.426997,-2.353869" />
      <path d="M -10.619423,6.361766 Q -10.868078,6.300564 -11.10928,6.234783" />
      <path d="M -11.10928,6.234783 C -11.251644,6.198861 -11.472802,6.274308 -11.56806,6.315448" />
      <path d="M -11.56806,6.315448 C -11.800791,6.412762 -12.146246,6.509202 -12.493994,6.585546 C -12.844741,6.661452 -13.196971,6.72339 -13.550683,6.771361" />
      <path d="M -13.550683,6.771361 Q -13.82592,6.681931 -14.090259,6.58741" />
      <path d="M -14.500046,5.488962 Q -14.298958,6.039601 -14.090259,6.58741" />
      <path d="M -13.360634,5.447048 L -13.27153,5.734706" />
      <path d="M -13.27153,5.734706 C -13.201548,5.699267 -13.090423,5.629025 -13.10586,5.5761" />
      <path d="M -13.10586,5.5761 Q -13.111047,5.556352 -13.143538,5.541269" />
      <path d="M -14.090259,6.58741 C -14.023427,6.439981 -13.931846,6.292494 -13.79541,6.141871 C -13.660771,5.992874 -13.476035,5.841642 -13.27153,5.734706" />
      <path d="M -14.599994,-0.876354 L -14.687215,-0.486562" />
      <path d="M -14.687215,-0.486562 Q -14.533853,-0.585792 -14.369017,-0.682048" />
      <path d="M -14.354806,-0.741423 L -14.369017,-0.682048" />
      <path d="M -14.369017,-0.682048 Q -14.349247,-0.694612 -14.346104,-0.708941" />
      <path d="M -14.346104,-0.708941 C -14.333318,-0.764016 -14.48303,-0.832602 -14.571151,-0.865133" />
      <path d="M -14.571151,-0.865133 C -14.815003,-0.958009 -15.056667,-1.095869 -15.247973,-1.234644 C -15.44169,-1.374913 -15.589876,-1.514882 -15.713594,-1.656335" />
      <path d="M -13.823909,-7.013144 Q -14.856083,-4.368774 -15.713594,-1.656335" />
      <path d="M -15.713594,-1.656335 Q -15.489497,-1.766173 -15.252643,-1.871662" />
      <path d="M -13.273616,-7.191967 Q -14.346333,-4.567458 -15.252643,-1.871662" />
      <path d="M -11.318478,-6.717528 Q -11.793749,-5.459974 -12.236774,-4.186721" />
      <path d="M -12.803755,-2.510647 Q -12.962101,-2.028896 -13.115905,-1.544933" />
      <path d="M -13.115905,-1.544933 C -13.005713,-1.510236 -12.757737,-1.449501 -12.631182,-1.493856" />
      <path d="M -15.252643,-1.871662 C -14.884496,-1.846329 -14.512346,-1.807107 -14.136194,-1.753997 C -13.762832,-1.700267 -13.383869,-1.626545 -13.115905,-1.544933" />
      <path d="M -13.143538,5.541269 Q -13.344028,5.456469 -13.534348,5.368017" />
      <path d="M -13.534348,5.368017 C -13.648563,5.318615 -13.911118,5.368648 -14.029812,5.398548" />
      <path d="M -14.029812,5.398548 C -14.317727,5.468508 -14.713958,5.525981 -15.09937,5.563806 C -15.487395,5.600898 -15.867793,5.624345 -16.240565,5.634148" />
      <path d="M -16.240565,5.634148 Q -16.448422,5.519337 -16.642452,5.400734" />
      <path d="M -16.928757,4.307945 Q -16.789858,4.855241 -16.642452,5.400734" />
      <path d="M -15.384409,4.253406 L -15.298592,4.661649" />
      <path d="M -15.298592,4.661649 C -15.199068,4.631986 -15.023509,4.566564 -15.03429,4.509901" />
      <path d="M -15.03429,4.509901 Q -15.036396,4.498602 -15.049506,4.488022" />
      <path d="M -16.642452,5.400734 C -16.482281,5.265232 -16.298166,5.132229 -16.068692,5.00083 C -15.842007,4.870816 -15.565483,4.743818 -15.298592,4.661649" />
      <path d="M -15.979771,0.367105 L -16.019902,0.698769" />
      <path d="M -16.019902,0.698769 Q -15.936122,0.58708 -15.83933,0.477079" />
      <path d="M -15.835238,0.44739 L -15.83933,0.477079" />
      <path d="M -15.83933,0.477079 Q -15.833597,0.469834 -15.832633,0.462561" />
      <path d="M -15.832633,0.462561 C -15.825133,0.403093 -16.038292,0.345272 -16.153318,0.32111" />
      <path d="M -16.153318,0.32111 C -16.449096,0.256586 -16.771935,0.148384 -17.046727,0.034097 C -17.324817,-0.081385 -17.558731,-0.201278 -17.769974,-0.325133" />
      <path d="M -16.445496,-5.850809 Q -17.214164,-3.111826 -17.769974,-0.325133" />
      <path d="M -17.769974,-0.325133 Q -17.624749,-0.454375 -17.464382,-0.580733" />
      <path d="M -16.029932,-6.080377 Q -16.850642,-3.35639 -17.464382,-0.580733" />
      <path d="M -15.05044,-1.103156 L -15.188548,-0.485834" />
      <path d="M -15.188548,-0.485834 C -15.059608,-0.4637 -14.780691,-0.430647 -14.687215,-0.486562" />
      <path d="M -17.464382,-0.580733 C -17.09024,-0.593129 -16.709551,-0.596 -16.309662,-0.582392 C -15.914175,-0.569056 -15.500312,-0.536988 -15.188548,-0.485834" />
      <path d="M -15.049506,4.488022 Q -15.188166,4.385404 -15.314635,4.280309" />
      <path d="M -15.314635,4.280309 C -15.392918,4.220793 -15.678977,4.242003 -15.813018,4.258625" />
      <path d="M -15.813018,4.258625 C -16.136495,4.296463 -16.556499,4.311052 -16.953311,4.307781 C -17.354572,4.304595 -17.732412,4.285825 -18.101241,4.257856" />
      <path d="M -18.101241,4.257856 Q -18.227554,4.125488 -18.338052,3.990886" />
      <path d="M -18.503179,2.824592 Q -18.42574,3.40821 -18.338052,3.990886" />
      <path d="M -16.605999,2.977428 L -16.560642,3.415787" />
      <path d="M -16.560642,3.415787 C -16.436503,3.396032 -16.199448,3.345122 -16.204514,3.283382" />
      <path d="M -16.204514,3.283382 L -16.207437,3.273804" />
      <path d="M -18.338052,3.990886 C -18.095458,3.876544 -17.831356,3.76709 -17.524481,3.66387 C -17.221199,3.5617 -16.871732,3.46759 -16.560642,3.415787" />
      <path d="M -16.534683,1.71124 L -16.538421,1.98136" />
      <path d="M -16.538421,1.98136 Q -16.529933,1.864823 -16.507782,1.748573" />
      <path d="M -16.507655,1.744543 L -16.507782,1.748573" />
      <path d="M -16.507782,1.748573 L -16.507632,1.746558" />
      <path d="M -16.507632,1.746558 C -16.506577,1.680621 -16.776665,1.642583 -16.912226,1.630349" />
      <path d="M -16.912226,1.630349 C -17.239773,1.598573 -17.621787,1.527403 -17.961337,1.445393 C -18.304848,1.362569 -18.60855,1.270921 -18.892922,1.173105" />
      <path d="M -18.223914,-4.457305 Q -18.676691,-1.654149 -18.892922,1.173105" />
      <path d="M -18.892922,1.173105 Q -18.836466,1.033267 -18.763514,0.894651" />
      <path d="M -17.971397,-4.721973 Q -18.48417,-1.927928 -18.763514,0.894651" />
      <path d="M -16.444574,0.246567 L -16.50368,0.751254" />
      <path d="M -16.50368,0.751254 C -16.364778,0.759316 -16.073928,0.762435 -16.019902,0.698769" />
      <path d="M -18.763514,0.894651 C -18.41016,0.844034 -18.044305,0.801941 -17.649216,0.773781 C -17.258556,0.745815 -16.837997,0.734044 -16.50368,0.751254" />
      <path d="M -16.207437,3.273804 Q -16.274819,3.160361 -16.328818,3.045784" />
      <path d="M -16.328818,3.045784 C -16.365834,2.98021 -16.655902,2.971152 -16.796156,2.973362" />
      <path d="M -16.796156,2.973362 C -17.133151,2.9765 -17.548306,2.947212 -17.929475,2.903067 C -18.314997,2.858545 -18.667789,2.801388 -19.005911,2.736277" />
      <path d="M -19.037964,-2.927598 Q -19.084002,-1.697728 -19.084019,-0.468077" />
      <path d="M -19.005911,2.736277 Q -19.042071,2.595373 -19.061507,2.453945" />
      <path d="M -18.965704,-3.209328 Q -19.084059,-1.237864 -19.084005,0.735276" />
      <path d="M -19.084005,0.735276 Q -19.083982,1.594451 -19.061507,2.453945" />
      <path d="M -16.968551,1.624536 L -16.971676,2.082024" />
      <path d="M -16.971676,2.082024 C -16.832278,2.075465 -16.549316,2.048436 -16.538421,1.98136" />
      <path d="M -19.061507,2.453945 C -18.753021,2.368556 -18.426932,2.290109 -18.063568,2.222102 C -17.704358,2.154739 -17.305762,2.099931 -16.971676,2.082024" />
      <line x1="4.9977" y1="-1.289391" x2="4.325803" y2="-1.036403" />
      <line x1="6.541377" y1="4.73844" x2="5.755133" y2="4.544921" />
      <line x1="4.485344" y1="5.745734" x2="3.851398" y2="5.477601" />
      <line x1="2.473585" y1="-2.109888" x2="1.988659" y2="-1.796123" />
      <line x1="1.846079" y1="6.506345" x2="1.407635" y2="6.18187" />
      <line x1="-0.496664" y1="-2.641721" x2="-0.761571" y2="-2.288561" />
      <line x1="-1.196556" y1="6.968438" x2="-1.40962" y2="6.609734" />
      <line x1="-3.710628" y1="-2.848645" x2="-3.737465" y2="-2.480158" />
      <line x1="-4.43521" y1="7.100523" x2="-4.408374" y2="6.732035" />
      <line x1="-6.949282" y1="-2.71656" x2="-6.736218" y2="-2.357857" />
      <line x1="-7.649174" y1="6.893599" x2="-7.384267" y2="6.540439" />
      <line x1="-9.991917" y1="-2.254467" x2="-9.553473" y2="-1.929992" />
      <line x1="-10.619423" y1="6.361766" x2="-10.134497" y2="6.048001" />
      <line x1="-12.631182" y1="-1.493856" x2="-11.997236" y2="-1.225723" />
      <line x1="-13.143538" y1="5.541269" x2="-12.471641" y2="5.288281" />
      <line x1="-14.687215" y1="-0.486562" x2="-13.900971" y2="-0.293044" />
      <line x1="-15.049506" y1="4.488022" x2="-14.236426" y2="4.313053" />
      <line x1="-16.019902" y1="0.698769" x2="-15.13494" y2="0.804486" />
      <line x1="-16.207437" y1="3.273804" x2="-15.308584" y2="3.188777" />
      <line x1="-16.538421" y1="1.98136" x2="-15.615051" y2="1.99207" />
      <path d="M 11.641645,4.051981 L 11.092967,5.121085" />
      <path d="M 11.350392,-3.786986 Q 11.806601,-2.898352 12.266087,-2.003004 Q 12.936933,-0.695467 13.607779,0.61207" />
      <path d="M 14.628722,-4.051689 L 14.764211,-3.787222" />
      <path d="M 16.544204,-4.213183 C 17.299465,-2.743508 18.055224,-1.268557 18.802881,0.187964" />
      <path d="M 16.445249,5.238276 L 16.286745,5.547" />
      <path d="M 14.369144,5.390138 L 14.526424,5.083593" />
      <path d="M 19.822815,-4.476845 Q 19.990221,-4.150268 20.151475,-3.83651" />
      <path d="M 19.564454,5.813053 C 19.749597,5.452232 19.935416,5.08939 20.114349,4.741085" />
      <path d="M 24.686544,0.891326 L 24.686561,-0.058749" />
      <path d="M 6.206474,-2.840631 L 5.907937,-2.259975" />
      <path d="M 4.199278,5.850139 L 4.595067,6.620167" />
      <path d="M 4.889994,-6.928476 Q 3.76397,-4.73447 2.632092,-2.528311" />
      <path d="M 1.22709,6.709802 L 1.319367,6.88914" />
      <path d="M 1.614389,-7.197569 Q 0.952806,-5.911177 0.289618,-4.615395" />
      <path d="M -4.232691,7.187269 L -4.155254,7.33777" />
      <path d="M -3.860516,-7.645686 Q -4.991091,-5.442984 -6.11871,-3.245222" />
      <path d="M -7.807469,6.874231 L -7.431414,7.605878" />
      <path d="M -7.136457,-7.914238 Q -8.003625,-6.226592 -8.863957,-4.546477 Q -9.04016,-4.202917 -9.214719,-3.863437" />
      <path d="M -19.084019,-0.468077 L -19.084005,0.735276" />
    </g>
  </g>
</svg>