<?xml version='1.0' encoding='utf-8'?>
<svg width="100.090001mm" height="37.846171mm" viewBox="-18.969898 -8.055175 43.49917 16.447967" version="1.1" xmlns="http://www.w3.org/2000/svg">
  <g transform="scale(1,-1)" stroke-linecap="round">
    <g fill="none" stroke="rgb(0,0,0)" stroke-width="0.0391140500772424" id="Visible">
      <path d="M 11.310945,1.436987 Q 11.376543,1.69606 11.451524,1.956099" />
      <path d="M 11.451524,1.956099 Q 11.599796,1.837019 11.781637,1.725595" />
      <path d="M 11.737273,1.596974 Q 11.759186,1.661243 11.781637,1.725595" />
      <path d="M 11.781637,1.725595 Q 11.821866,1.699579 11.809198,1.666652" />
      <path d="M 11.809198,1.666652 C 11.795081,1.62813 11.732349,1.588907 11.658505,1.556951 C 11.582788,1.525156 11.499789,1.498038 11.409506,1.475597" />
      <path d="M 11.409506,1.475597 C 11.080389,1.360547 10.82528,1.13061 10.698119,0.918988" />
      <path d="M 10.698119,0.918988 L 10.668284,0.865701" />
      <path d="M 10.036836,-0.229837 Q 10.253776,0.178878 10.503137,0.595012" />
      <path d="M 10.503137,0.595012 Q 10.584006,0.729966 10.668284,0.865701" />
      <path d="M 10.668284,0.865701 Q 10.94319,0.742879 11.248542,0.6321" />
      <path d="M 10.23932,-1.008094 Q 10.686536,-0.20451 11.248542,0.6321" />
      <path d="M 10.599276,-2.920128 Q 10.842114,-2.906646 11.028609,-2.873296" />
      <path d="M 11.248542,0.6321 C 11.537478,0.654787 11.836514,0.69139 12.109893,0.74076 C 12.382341,0.789971 12.628194,0.852449 12.783383,0.922501" />
      <path d="M 11.028609,-2.873296 Q 11.699343,-1.0486 12.783383,0.922501" />
      <path d="M 11.028609,-2.873296 C 11.141882,-2.842451 11.267738,-2.820279 11.406177,-2.80678 C 11.542162,-2.794789 11.690556,-2.801853 11.752835,-2.841224" />
      <path d="M 12.783383,0.922501 C 12.855683,0.969001 12.948284,1.009601 13.061188,1.044303 C 13.173377,1.077231 13.31624,1.094736 13.41312,1.068792" />
      <path d="M 11.752835,-2.841224 Q 12.406246,-0.955477 13.41312,1.068792" />
      <path d="M 11.752835,-2.841224 L 11.858623,-2.904995" />
      <path d="M 13.41312,1.068792 Q 13.690731,0.99525 13.987822,0.935035" />
      <path d="M 13.205147,-0.635392 Q 13.573528,0.138453 13.987822,0.935035" />
      <path d="M 13.987822,0.935035 C 14.116564,0.909019 14.132008,0.829439 14.092285,0.764044" />
      <path d="M 14.092285,0.764044 Q 14.053659,0.700291 13.978789,0.644281" />
      <path d="M 11.361518,-3.73144 Q 11.292792,-3.845568 11.265703,-3.958753" />
      <path d="M 13.978789,0.644281 Q 13.961488,0.624211 13.948248,0.602322" />
      <path d="M 13.948248,0.602322 C 13.84099,0.421881 13.930828,0.172203 14.101058,-0.031797" />
      <path d="M 11.265703,-3.958753 Q 12.511087,-2.113555 14.101058,-0.031797" />
      <path d="M 11.265703,-3.958753 Q 11.571888,-4.069165 11.905125,-4.166306" />
      <path d="M 14.101058,-0.031797 Q 14.493026,-0.083313 14.896272,-0.118325" />
      <path d="M 11.905125,-4.166306 Q 13.260109,-2.267094 14.896272,-0.118325" />
      <path d="M 11.905125,-4.166306 C 12.186343,-4.131443 12.473881,-4.082313 12.732494,-4.021582 C 12.990224,-3.961049 13.217963,-3.888456 13.35353,-3.812195" />
      <path d="M 14.896272,-0.118325 C 15.322971,0.029966 15.739782,0.241229 15.853126,0.424184" />
      <path d="M 15.853126,0.424184 L 15.861618,0.439409" />
      <path d="M 13.35353,-3.812195 Q 14.030099,-2.640214 14.765338,-1.397876" />
      <path d="M 14.765338,-1.397876 Q 15.194749,-0.672296 15.644173,0.077282" />
      <path d="M 15.644173,0.077282 Q 15.743543,0.243019 15.843892,0.409928" />
      <path d="M 13.35353,-3.812195 C 13.412979,-3.762882 13.494193,-3.718569 13.59717,-3.679257 C 13.699912,-3.641739 13.837277,-3.618249 13.940543,-3.639919" />
      <path d="M 15.861618,0.439409 Q 15.867417,0.486045 15.893306,0.532374" />
      <path d="M 15.893306,0.532374 C 15.914472,0.572208 15.952787,0.608526 16.008252,0.641329 C 16.063927,0.672531 16.14158,0.69388 16.223687,0.691749" />
      <path d="M 13.940543,-3.639919 Q 15.015842,-1.569329 16.223687,0.691749" />
      <path d="M 13.940543,-3.639919 Q 14.236238,-3.701218 14.547737,-3.748435" />
      <path d="M 16.223687,0.691749 Q 16.556252,0.68345 16.888988,0.69058" />
      <path d="M 14.547737,-3.748435 Q 15.680211,-1.626596 16.888988,0.69058" />
      <path d="M 14.547737,-3.748435 C 14.671529,-3.766994 14.713969,-3.835734 14.700999,-3.897971" />
      <path d="M 16.888988,0.69058 C 17.005461,0.693309 17.106282,0.649288 17.161058,0.598193 C 17.21779,0.546232 17.238731,0.490877 17.245473,0.436977" />
      <path d="M 14.616519,-4.037913 Q 15.036141,-3.343471 15.461888,-2.625666" />
      <path d="M 15.461888,-2.625666 Q 16.340633,-1.14411 17.245473,0.436977" />
      <path d="M 14.616519,-4.037913 C 14.513241,-4.223165 14.677086,-4.494024 14.918911,-4.704922" />
      <path d="M 17.245473,0.436977 C 17.290073,0.345186 17.422421,0.241555 17.594561,0.143968 C 17.767301,0.046055 17.978385,-0.046055 18.198471,-0.124128" />
      <path d="M 14.918911,-4.704922 Q 16.557682,-2.551336 18.198471,-0.124128" />
      <path d="M 14.918911,-4.704922 Q 15.322419,-4.739451 15.732725,-4.757088" />
      <path d="M 18.198471,-0.124128 Q 18.602474,-0.090536 18.995563,-0.040399" />
      <path d="M 15.732725,-4.757088 Q 17.398736,-2.534856 18.995563,-0.040399" />
      <path d="M 15.732725,-4.757088 C 16.081185,-4.606802 16.4045,-4.408027 16.513201,-4.231575" />
      <path d="M 18.995563,-0.040399 Q 19.055672,0.029671 19.100728,0.103675" />
      <path d="M 19.100728,0.103675 C 19.213415,0.288354 19.250549,0.494015 19.132751,0.635223" />
      <path d="M 16.70176,-3.919742 Q 16.760796,-3.89715 16.835899,-3.895107" />
      <path d="M 19.132751,0.635223 C 19.051509,0.699727 18.981869,0.778933 19.011423,0.852714" />
      <path d="M 19.011423,0.852714 Q 19.032816,0.904166 19.130135,0.925998" />
      <path d="M 16.835899,-3.895107 Q 17.183762,-3.229095 17.52137,-2.547238" />
      <path d="M 19.042298,0.723913 Q 19.086318,0.824799 19.130135,0.925998" />
      <path d="M 16.835899,-3.895107 Q 17.168784,-3.889194 17.497712,-3.867934" />
      <path d="M 19.130135,0.925998 Q 19.428544,0.985166 19.707768,1.057729" />
      <path d="M 17.497712,-3.867934 Q 18.692076,-1.497297 19.707768,1.057729" />
      <path d="M 17.497712,-3.867934 C 17.61279,-3.86026 17.724809,-3.899736 17.792938,-3.948206 C 17.863244,-3.997454 17.89887,-4.0516 17.919989,-4.104906" />
      <path d="M 19.707768,1.057729 C 19.805217,1.083332 19.947688,1.065325 20.059146,1.032005 C 20.171279,0.996907 20.262981,0.955983 20.334251,0.909231" />
      <path d="M 17.919989,-4.104906 Q 19.239633,-1.698551 20.334251,0.909231" />
      <path d="M 17.919989,-4.104906 C 17.988884,-4.194273 18.148194,-4.291675 18.345451,-4.381374 C 18.543391,-4.471369 18.777905,-4.553963 19.017615,-4.622218" />
      <path d="M 20.334251,0.909231 C 20.487888,0.838636 20.732352,0.775296 21.003704,0.725129 C 21.275983,0.674801 21.574199,0.637148 21.862623,0.613446" />
      <path d="M 19.017615,-4.622218 Q 20.610665,-2.123068 21.862623,0.613446" />
      <path d="M 19.017615,-4.622218 Q 19.410325,-4.57161 19.787761,-4.505018" />
      <path d="M 21.862623,0.613446 Q 22.170409,0.723147 22.448014,0.844998" />
      <path d="M 19.787761,-4.505018 Q 21.31839,-1.940985 22.448014,0.844998" />
      <path d="M 22.448014,0.844998 C 22.336771,1.072637 22.074621,1.330893 21.720283,1.457476" />
      <path d="M 21.720283,1.457476 C 21.620488,1.482564 21.530385,1.513518 21.449973,1.550338 C 21.372376,1.587192 21.3129,1.633294 21.323468,1.673992" />
      <path d="M 21.323468,1.673992 Q 21.328204,1.693085 21.353685,1.708773" />
      <path d="M 21.334429,1.631853 Q 21.344092,1.670299 21.353685,1.708773" />
      <path d="M 21.353685,1.708773 Q 21.537979,1.819553 21.688873,1.938108" />
      <path d="M 21.596221,1.49346 Q 21.643838,1.715369 21.688873,1.938108" />
      <path d="M 20.438485,-3.372157 C 20.611561,-3.394435 20.754888,-3.44956 20.864818,-3.503798" />
      <path d="M 21.688873,1.938108 C 21.741187,1.979724 21.887133,1.992556 22.025408,1.985938 C 22.166494,1.977916 22.297188,1.960771 22.417489,1.934503" />
      <path d="M 20.864818,-3.503798 Q 21.389678,-2.110573 21.791319,-0.681658" />
      <path d="M 22.246078,1.12218 Q 22.336576,1.526953 22.417489,1.934503" />
      <path d="M 20.864818,-3.503798 C 21.036458,-3.567446 21.296466,-3.620013 21.579686,-3.658336 C 21.86387,-3.696781 22.170453,-3.721518 22.463569,-3.7328" />
      <path d="M 22.417489,1.934503 C 22.638996,1.904021 22.930072,1.897943 23.227927,1.908639 C 23.526787,1.919379 23.832229,1.946272 24.111708,1.983294" />
      <path d="M 22.463569,-3.7328 Q 23.584042,-0.943507 24.111708,1.983294" />
      <path d="M 22.463569,-3.7328 Q 22.740257,-3.610617 22.983687,-3.477639" />
      <path d="M 24.111708,1.983294 Q 24.240806,2.139709 24.328543,2.300624" />
      <path d="M 22.983687,-3.477639 Q 23.968805,-0.644609 24.328543,2.300624" />
      <path d="M 24.328543,2.300624 C 24.134841,2.389134 23.905885,2.474175 23.662053,2.543966 C 23.41903,2.613516 23.160512,2.66724 22.930889,2.685846" />
      <path d="M 22.930889,2.685846 C 22.795602,2.687595 22.662764,2.699014 22.532374,2.720104 C 22.40603,2.741833 22.295915,2.781187 22.298246,2.826962" />
      <path d="M 22.298246,2.826962 L 22.298538,2.830329" />
      <path d="M 22.298346,2.823562 Q 22.298442,2.826946 22.298538,2.830329" />
      <path d="M 22.298538,2.830329 Q 22.309638,2.901091 22.309725,2.972051" />
      <path d="M 22.309725,2.972051 Q 22.309795,3.034005 22.301468,3.095817" />
      <path d="M 22.301468,3.095817 L 22.301257,3.098713" />
      <path d="M 22.301257,3.098713 C 22.299173,3.144595 22.41007,3.183736 22.537061,3.205101 C 22.668107,3.225811 22.801414,3.236802 22.936984,3.238073" />
      <path d="M 22.958632,2.683439 Q 22.950452,2.960645 22.936984,3.238073" />
      <path d="M 23.335582,-2.396619 C 23.673599,-2.375956 24.023313,-2.331354 24.333434,-2.274988" />
      <path d="M 22.936984,3.238073 C 23.167008,3.25587 23.426702,3.308684 23.671251,3.377376 C 23.916614,3.446308 24.147438,3.530541 24.343087,3.618366" />
      <path d="M 24.333434,-2.274988 Q 24.509748,-0.780821 24.509714,0.713553" />
      <path d="M 24.509714,0.713553 Q 24.509681,2.165862 24.343087,3.618366" />
      <path d="M 24.333434,-2.274988 Q 24.41996,-2.113968 24.464158,-1.950235" />
      <path d="M 24.343087,3.618366 Q 24.258905,3.779584 24.133264,3.936446" />
      <path d="M 24.464158,-1.950235 Q 24.509072,-1.194065 24.50938,-0.439701" />
      <path d="M 24.133264,3.936446 C 23.854613,3.974449 23.549777,4.002415 23.251165,4.014205 C 22.953557,4.025947 22.662359,4.020893 22.440188,3.991191" />
      <path d="M 22.440188,3.991191 C 22.319311,3.965346 22.188244,3.948661 22.046986,3.941136 C 21.90857,3.935004 21.762914,3.948349 21.711521,3.990147" />
      <path d="M 21.711521,3.990147 Q 21.563249,4.109227 21.381408,4.220651" />
      <path d="M 21.381408,4.220651 Q 21.356661,4.236176 21.352102,4.254949" />
      <path d="M 21.352102,4.254949 C 21.34173,4.295709 21.402106,4.341772 21.480614,4.378471 C 21.561962,4.415129 21.652937,4.445855 21.753538,4.470649" />
      <path d="M 21.901614,3.942333 Q 21.829933,4.206911 21.753538,4.470649" />
      <path d="M 21.753538,4.470649 C 22.110656,4.595982 22.378496,4.853307 22.49476,5.080546" />
      <path d="M 22.894513,4.019662 Q 22.705274,4.552538 22.49476,5.080546" />
      <path d="M 22.49476,5.080546 Q 22.219855,5.203368 21.914502,5.314146" />
      <path d="M 21.914502,5.314146 C 21.625566,5.29146 21.32653,5.254856 21.053152,5.205487 C 20.780703,5.156276 20.53485,5.093797 20.379661,5.023745" />
      <path d="M 20.379661,5.023745 C 20.307362,4.977246 20.21476,4.936645 20.101856,4.901943 C 19.989667,4.869016 19.846805,4.85151 19.749924,4.877454" />
      <path d="M 19.749924,4.877454 Q 19.472313,4.950997 19.175222,5.011211" />
      <path d="M 19.175222,5.011211 Q 19.079541,5.033055 19.058645,5.083735" />
      <path d="M 19.058645,5.083735 C 19.029344,5.157836 19.101179,5.237442 19.184255,5.301965" />
      <path d="M 19.342359,4.975944 Q 19.263987,5.139328 19.184255,5.301965" />
      <path d="M 19.184255,5.301965 C 19.307952,5.446119 19.271015,5.657938 19.156262,5.846558" />
      <path d="M 19.156262,5.846558 Q 19.115378,5.913956 19.061986,5.978043" />
      <path d="M 19.735433,4.881281 Q 19.72397,4.900604 19.712488,4.919913" />
      <path d="M 19.061986,5.978043 Q 18.670018,6.02956 18.266772,6.064571" />
      <path d="M 18.266772,6.064571 C 18.044972,5.987274 17.831863,5.89591 17.656969,5.798608 C 17.482681,5.70163 17.348051,5.598468 17.301426,5.506838" />
      <path d="M 17.301426,5.506838 C 17.293495,5.452963 17.271334,5.397684 17.213456,5.345925 C 17.157554,5.295024 17.055766,5.251359 16.939358,5.254498" />
      <path d="M 16.939358,5.254498 Q 16.606792,5.262797 16.274057,5.255667" />
      <path d="M 16.274057,5.255667 C 16.193165,5.253858 16.117004,5.27479 16.06226,5.305439 C 16.007718,5.337654 15.970023,5.373413 15.949176,5.412717" />
      <path d="M 15.949176,5.412717 Q 15.922443,5.460876 15.917572,5.50927" />
      <path d="M 16.025569,5.328859 Q 15.971617,5.419242 15.917572,5.50927" />
      <path d="M 15.917572,5.50927 L 15.907121,5.528391" />
      <path d="M 15.907121,5.528391 C 15.794089,5.71099 15.38506,5.921603 14.964574,6.070375" />
      <path d="M 14.964574,6.070375 Q 14.560571,6.036782 14.167481,5.986645" />
      <path d="M 14.167481,5.986645 C 13.991302,5.781604 13.895776,5.529579 14.003348,5.348601" />
      <path d="M 14.003348,5.348601 L 14.030294,5.311023" />
      <path d="M 14.154883,5.101986 Q 14.092449,5.206776 14.030294,5.311023" />
      <path d="M 14.030294,5.311023 Q 14.101731,5.25631 14.139176,5.194433" />
      <path d="M 14.139176,5.194433 C 14.179762,5.128043 14.164652,5.046341 14.032909,5.020249" />
      <path d="M 14.032909,5.020249 Q 13.7345,4.961081 13.455276,4.888517" />
      <path d="M 13.455276,4.888517 C 13.357827,4.862914 13.215357,4.880921 13.103899,4.914242 C 12.991765,4.949339 12.900064,4.990264 12.828793,5.037016" />
      <path d="M 12.828793,5.037016 C 12.675156,5.10761 12.430692,5.170951 12.15934,5.221117 C 11.887062,5.271446 11.588845,5.309099 11.300422,5.3328" />
      <path d="M 11.300422,5.3328 Q 10.992636,5.223099 10.71503,5.101248" />
      <path d="M 10.71503,5.101248 Q 10.731926,5.066926 10.75288,5.032378" />
      <path d="M 10.75288,5.032378 C 10.877972,4.825051 11.124205,4.602013 11.442761,4.48877" />
      <path d="M 11.610292,4.108782 Q 11.524629,4.299629 11.442761,4.48877" />
      <path d="M 11.442761,4.48877 C 11.532005,4.46614 11.613973,4.438921 11.688666,4.407113 C 11.761531,4.375145 11.823407,4.336056 11.837742,4.297659" />
      <path d="M 11.837742,4.297659 Q 11.850972,4.26392 11.809359,4.237474" />
      <path d="M 11.809359,4.237474 Q 11.625066,4.126693 11.474171,4.008139" />
      <path d="M 11.474171,4.008139 C 11.421857,3.966523 11.275912,3.953691 11.137637,3.960308 C 10.99655,3.96833 10.865856,3.985475 10.745556,4.011744" />
      <path d="M 10.745556,4.011744 C 10.524049,4.042226 10.232973,4.048303 9.935117,4.037608 C 9.636257,4.026867 9.330816,3.999974 9.051336,3.962952" />
      <path d="M 9.051336,3.962952 Q 8.922238,3.806537 8.834501,3.645622" />
      <path d="M 8.900591,3.36445 Q 8.86526,3.505446 8.834501,3.645622" />
      <path d="M 8.834501,3.645622 C 9.028204,3.557113 9.257159,3.472071 9.500991,3.40228 C 9.744014,3.332731 10.002533,3.279006 10.232155,3.260401" />
      <path d="M 10.232403,3.257592 Q 10.232279,3.258997 10.232155,3.260401" />
      <path d="M 10.232155,3.260401 C 10.36631,3.258644 10.498138,3.247403 10.62764,3.226678 C 10.753202,3.205313 10.863673,3.166756 10.864781,3.121434" />
      <path d="M 10.864781,3.121434 L 10.864507,3.115917" />
      <path d="M 10.864507,3.115917 Q 10.853239,3.044085 10.85332,2.972051" />
      <path d="M 10.85332,2.972051 Q 10.853394,2.911171 10.861577,2.850429" />
      <path d="M 10.861266,2.841313 Q 10.86142,2.845871 10.861577,2.850429" />
      <path d="M 10.861577,2.850429 L 10.861776,2.845821" />
      <path d="M 10.861776,2.845821 C 10.861109,2.800306 10.749926,2.761802 10.623562,2.740727 C 10.493228,2.720305 10.360728,2.709454 10.22606,2.708174" />
      <path d="M 10.22606,2.708174 C 9.996036,2.690376 9.736342,2.637563 9.491793,2.56887 C 9.24643,2.499938 9.015607,2.415705 8.819958,2.32788" />
      <path d="M 8.764754,2.033616 Q 8.789588,2.180751 8.819958,2.32788" />
      <path d="M 8.819958,2.32788 Q 8.90414,2.166663 9.02978,2.0098" />
      <path d="M 9.02918,2.00784 Q 9.02948,2.00882 9.02978,2.0098" />
      <path d="M 9.02978,2.0098 C 9.308432,1.971798 9.613267,1.943832 9.911879,1.932041 C 10.209487,1.920299 10.500686,1.925353 10.722857,1.955056" />
      <path d="M 10.647943,1.694629 Q 10.683977,1.824726 10.722857,1.955056" />
      <path d="M 10.722857,1.955056 C 10.843733,1.9809 10.9748,1.997585 11.116058,2.005111 C 11.254474,2.011242 11.400131,1.997898 11.451524,1.956099" />
      <path d="M 8.123631,0.769515 Q 8.120898,0.783636 8.118148,0.797759" />
      <path d="M 8.118148,0.797759 Q 8.214747,0.93938 8.290578,1.083001" />
      <path d="M 8.347556,0.689929 Q 8.32074,0.886395 8.290578,1.083001" />
      <path d="M 8.290578,1.083001 C 8.320095,1.131563 8.538146,1.138257 8.642552,1.137126" />
      <path d="M 8.71416,0.605415 Q 8.681552,0.871158 8.642552,1.137126" />
      <path d="M 8.642552,1.137126 C 9.271644,1.134439 10.01392,1.218208 10.625854,1.322105" />
      <path d="M 10.675383,0.881349 Q 10.653395,1.101692 10.625854,1.322105" />
      <path d="M 10.625854,1.322105 Q 10.685996,1.497863 10.719704,1.674742" />
      <path d="M 10.753849,1.001703 Q 10.743277,1.338296 10.719704,1.674742" />
      <path d="M 10.719704,1.674742 C 10.176104,1.827611 9.494477,1.971725 8.878003,2.021824" />
      <path d="M 8.878003,2.021824 C 8.775331,2.02947 8.565666,2.05429 8.562368,2.104243" />
      <path d="M 8.562368,2.104243 L 8.562467,2.123901" />
      <path d="M 8.562467,2.123901 Q 8.562488,2.260841 8.543918,2.397574" />
      <path d="M 8.543918,2.397574 L 8.543886,2.399568" />
      <path d="M 8.543886,2.399568 C 8.546496,2.448315 8.74855,2.476641 8.848794,2.486207" />
      <path d="M 8.84018,2.336894 Q 8.844738,2.411568 8.848794,2.486207" />
      <path d="M 8.848794,2.486207 C 9.458193,2.548585 10.120845,2.706164 10.644541,2.869723" />
      <path d="M 10.629151,2.741699 Q 10.637074,2.805732 10.644541,2.869723" />
      <path d="M 10.644541,2.869723 Q 10.588639,3.045704 10.506477,3.220036" />
      <path d="M 10.506477,3.220036 C 9.882251,3.311552 9.130379,3.380356 8.502417,3.365078" />
      <path d="M 8.502417,3.365078 C 8.398285,3.361859 8.179666,3.364179 8.144081,3.412089" />
      <path d="M 8.144081,3.412089 Q 8.05029,3.554011 7.936009,3.69352" />
      <path d="M 7.936009,3.69352 Q 7.929833,3.701937 7.931914,3.710374" />
      <path d="M 7.931914,3.710374 C 7.942114,3.752718 8.091788,3.793044 8.17301,3.810621" />
      <path d="M 8.091291,3.489476 Q 8.133185,3.650241 8.17301,3.810621" />
      <path d="M 8.17301,3.810621 C 8.721187,3.933814 9.259055,4.154462 9.658825,4.366536" />
      <path d="M 9.535572,4.014237 Q 9.598684,4.190704 9.658825,4.366536" />
      <path d="M 9.658825,4.366536 Q 9.490689,4.530747 9.298256,4.690654" />
      <path d="M 9.298256,4.690654 C 8.635944,4.714581 7.865066,4.703385 7.26841,4.623771" />
      <path d="M 7.26841,4.623771 C 7.169914,4.609906 6.95724,4.589568 6.891794,4.63217" />
      <path d="M 6.891794,4.63217 Q 6.70915,4.759569 6.508279,4.882521" />
      <path d="M 6.508279,4.882521 Q 6.485269,4.89831 6.493628,4.917115" />
      <path d="M 6.493628,4.917115 C 6.508952,4.955456 6.603741,4.998347 6.661254,5.02011" />
      <path d="M 6.584665,4.835192 Q 6.62323,4.927742 6.661254,5.02011" />
      <path d="M 6.661254,5.02011 C 7.110851,5.195722 7.487282,5.464404 7.735881,5.710541" />
      <path d="M 7.143734,4.610482 Q 7.450623,5.164563 7.735881,5.710541" />
      <path d="M 7.735881,5.710541 Q 7.466969,5.851791 7.177379,5.986374" />
      <path d="M 7.177379,5.986374 C 6.522116,5.941081 5.784766,5.850649 5.260078,5.712124" />
      <path d="M 5.260078,5.712124 C 5.173931,5.688559 4.981695,5.646949 4.890847,5.68134" />
      <path d="M 4.890847,5.68134 Q 4.631798,5.785534 4.358025,5.88355" />
      <path d="M 4.358025,5.88355 C 4.317852,5.898679 4.314064,5.922722 4.326977,5.947715" />
      <path d="M 4.326977,5.947715 C 4.343296,5.97927 4.3859,6.012315 4.416549,6.032251" />
      <path d="M 4.341855,5.891222 Q 4.379309,5.961797 4.416549,6.032251" />
      <path d="M 4.416549,6.032251 C 4.618226,6.168065 4.769201,6.338221 4.872164,6.510284" />
      <path d="M 4.872164,6.510284 Q 4.962211,6.662541 5.006754,6.810145" />
      <path d="M 5.006754,6.810145 Q 4.655392,6.918808 4.288381,7.018896" />
      <path d="M 4.288381,7.018896 C 3.684822,6.907469 3.03125,6.743965 2.614285,6.555969" />
      <path d="M 2.614285,6.555969 C 2.546358,6.524309 2.387659,6.464262 2.277602,6.488099" />
      <path d="M 2.277602,6.488099 Q 1.9598,6.561987 1.631784,6.628388" />
      <path d="M 1.631784,6.628388 C 1.536457,6.649057 1.554128,6.716516 1.579784,6.759888" />
      <path d="M 1.579784,6.759888 L 1.591868,6.778066" />
      <path d="M 1.570435,6.741945 Q 1.581155,6.760009 1.591868,6.778066" />
      <path d="M 1.591868,6.778066 L 1.619221,6.820202" />
      <path d="M 1.619221,6.820202 C 1.759798,7.055356 1.745137,7.342553 1.65743,7.590411" />
      <path d="M 1.65743,7.590411 Q 1.247562,7.659083 0.828141,7.717855" />
      <path d="M 0.828141,7.717855 C 0.317418,7.547888 -0.207837,7.322453 -0.488662,7.097798" />
      <path d="M -0.488662,7.097798 C -0.533741,7.060202 -0.648086,6.98581 -0.769853,6.997467" />
      <path d="M -0.769853,6.997467 Q -1.12475,7.036015 -1.484655,7.066275" />
      <path d="M -1.484655,7.066275 C -1.60635,7.078054 -1.623124,7.165067 -1.620291,7.206731" />
      <path d="M -1.620291,7.206731 C -1.613557,7.45777 -1.823478,7.753975 -2.083841,7.998167" />
      <path d="M -2.083841,7.998167 Q -2.524282,8.022167 -2.967531,8.035618" />
      <path d="M -2.967531,8.035618 C -3.331261,7.829576 -3.674714,7.57449 -3.816445,7.338304" />
      <path d="M -3.816445,7.338304 L -3.837303,7.300687" />
      <path d="M -3.855571,7.269943 Q -3.846438,7.285318 -3.837303,7.300687" />
      <path d="M -3.837303,7.300687 L -3.845334,7.285586" />
      <path d="M -3.845334,7.285586 C -3.870967,7.242272 -3.932614,7.175826 -4.04384,7.174733" />
      <path d="M -4.04384,7.174733 Q -4.411645,7.175313 -4.778913,7.167371" />
      <path d="M -4.778913,7.167371 C -4.904101,7.166179 -4.97674,7.248495 -5.001025,7.289031" />
      <path d="M -5.001025,7.289031 C -5.157341,7.532212 -5.552225,7.796643 -5.962096,8.005624" />
      <path d="M -5.962096,8.005624 Q -6.403095,7.983317 -6.839965,7.95053" />
      <path d="M -6.839965,7.95053 Q -6.973371,7.806352 -7.068838,7.649131" />
      <path d="M -7.068838,7.649131 C -7.170023,7.480367 -7.227286,7.305309 -7.203433,7.15081" />
      <path d="M -7.275284,7.018429 Q -7.239395,7.084659 -7.203433,7.15081" />
      <path d="M -7.203433,7.15081 Q -7.19428,7.115926 -7.214217,7.069221" />
      <path d="M -7.214217,7.069221 Q -7.234221,7.022139 -7.32124,7.007816" />
      <path d="M -7.32124,7.007816 Q -7.676889,6.970389 -8.026492,6.924785" />
      <path d="M -8.026492,6.924785 C -8.14664,6.910704 -8.270193,6.982713 -8.319942,7.01936" />
      <path d="M -8.319942,7.01936 C -8.628657,7.23811 -9.181592,7.452746 -9.713039,7.612274" />
      <path d="M -9.713039,7.612274 Q -10.124544,7.54518 -10.525262,7.468389" />
      <path d="M -11.124624,6.352279 Q -10.828916,6.912909 -10.525262,7.468389" />
      <path d="M -10.525262,7.468389 C -10.585222,7.204094 -10.557166,6.896475 -10.357657,6.65838" />
      <path d="M -10.433158,6.495588 Q -10.395489,6.577031 -10.357657,6.65838" />
      <path d="M -10.357657,6.65838 C -10.333862,6.631413 -10.302773,6.583657 -10.319139,6.547404" />
      <path d="M -10.319139,6.547404 Q -10.329216,6.521269 -10.378705,6.508091" />
      <path d="M -10.378705,6.508091 Q -10.697961,6.435207 -11.006073,6.355049" />
      <path d="M -11.006073,6.355049 C -11.112995,6.329039 -11.279043,6.385834 -11.350865,6.416094" />
      <path d="M -11.350865,6.416094 C -11.790939,6.595505 -12.464244,6.74572 -13.081051,6.844924" />
      <path d="M -13.081051,6.844924 Q -13.435017,6.737614 -13.772275,6.622054" />
      <path d="M -14.2144,5.587309 Q -13.997621,6.106296 -13.772275,6.622054" />
      <path d="M -13.772275,6.622054 C -13.658773,6.360571 -13.432156,6.066332 -13.085018,5.856955" />
      <path d="M -13.161294,5.647819 Q -13.123321,5.752442 -13.085018,5.856955" />
      <path d="M -13.085018,5.856955 C -13.038006,5.829554 -12.962955,5.775852 -12.976747,5.736441" />
      <path d="M -12.976747,5.736441 Q -12.981668,5.720933 -13.007874,5.709613" />
      <path d="M -13.007874,5.709613 Q -13.268979,5.606239 -13.514604,5.496991" />
      <path d="M -13.514604,5.496991 C -13.601013,5.460824 -13.798239,5.498534 -13.88724,5.520344" />
      <path d="M -13.88724,5.520344 C -14.428683,5.648191 -15.176473,5.723748 -15.836605,5.755866" />
      <path d="M -15.836605,5.755866 Q -16.10891,5.615655 -16.359726,5.469199" />
      <path d="M -16.66973,4.444598 Q -16.519438,4.957914 -16.359726,5.469199" />
      <path d="M -16.359726,5.469199 C -16.080496,5.228349 -15.670761,4.967541 -15.199653,4.801151" />
      <path d="M -15.278409,4.488156 Q -15.239441,4.644731 -15.199653,4.801151" />
      <path d="M -15.199653,4.801151 C -15.130076,4.777357 -15.006499,4.726065 -15.016409,4.683998" />
      <path d="M -15.016409,4.683998 Q -15.018458,4.675001 -15.029573,4.666798" />
      <path d="M -15.029573,4.666798 Q -15.214734,4.539979 -15.381132,4.409084" />
      <path d="M -15.381132,4.409084 C -15.44114,4.365226 -15.656103,4.381281 -15.756218,4.393156" />
      <path d="M -15.756218,4.393156 C -16.362131,4.460725 -17.133446,4.456474 -17.791916,4.419318" />
      <path d="M -17.791916,4.419318 Q -17.964003,4.255761 -18.111284,4.088391" />
      <path d="M -18.293626,3.004898 Q -18.207999,3.547171 -18.111284,4.088391" />
      <path d="M -18.111284,4.088391 C -17.685356,3.884587 -17.120425,3.674984 -16.557451,3.562921" />
      <path d="M -16.614885,3.121068 Q -16.587022,3.342055 -16.557451,3.562921" />
      <path d="M -16.557451,3.562921 C -16.468496,3.545924 -16.297838,3.504445 -16.303011,3.458932" />
      <path d="M -16.303011,3.458932 L -16.306027,3.450711" />
      <path d="M -16.306027,3.450711 Q -16.402625,3.30909 -16.478456,3.16547" />
      <path d="M -16.478456,3.16547 C -16.507973,3.116907 -16.726025,3.110214 -16.830431,3.111344" />
      <path d="M -16.830431,3.111344 C -17.459523,3.114031 -18.201798,3.030262 -18.813733,2.926365" />
      <path d="M -18.911194,-2.890529 Q -18.950277,-1.877053 -18.950323,-0.86407" />
      <path d="M -18.911194,-2.890529 Q -18.87894,-3.06745 -18.820241,-3.243286" />
      <path d="M -18.813733,2.926365 Q -18.873875,2.750607 -18.907582,2.573728" />
      <path d="M -18.820241,-3.243286 Q -18.950406,-1.394556 -18.950326,0.455643" />
      <path d="M -18.950326,0.455643 Q -18.950281,1.514445 -18.907582,2.573728" />
      <path d="M -18.820241,-3.243286 Q -18.573782,-3.285566 -18.308016,-3.321526" />
      <path d="M -18.907582,2.573728 C -18.363983,2.420859 -17.682355,2.276745 -17.065882,2.226646" />
      <path d="M -17.068337,1.758947 Q -17.068064,1.992764 -17.065882,2.226646" />
      <path d="M -17.065882,2.226646 C -16.963209,2.219001 -16.753545,2.19418 -16.750247,2.144227" />
      <path d="M -16.749922,1.825077 Q -16.750318,1.930508 -16.750332,2.035955" />
      <path d="M -16.750332,2.035955 Q -16.750338,2.072977 -16.750296,2.110001" />
      <path d="M -16.750247,2.144227 L -16.750346,2.123901" />
      <path d="M -16.750346,2.123901 Q -16.750321,1.987295 -16.731797,1.850896" />
      <path d="M -16.731754,1.849241 Q -16.731775,1.850069 -16.731797,1.850896" />
      <path d="M -16.731797,1.850896 L -16.731756,1.850069" />
      <path d="M -16.731756,1.850069 C -16.731116,1.800615 -16.935644,1.771902 -17.036673,1.762263" />
      <path d="M -17.036673,1.762263 C -17.646072,1.699885 -18.308723,1.542306 -18.83242,1.378747" />
      <path d="M -18.127339,-4.406224 Q -18.636676,-1.528405 -18.83242,1.378747" />
      <path d="M -18.127339,-4.406224 Q -17.981435,-4.573786 -17.810691,-4.737568" />
      <path d="M -18.83242,1.378747 Q -18.776518,1.202767 -18.694356,1.028434" />
      <path d="M -17.810691,-4.737568 Q -18.406842,-1.872948 -18.694356,1.028434" />
      <path d="M -17.810691,-4.737568 C -17.455728,-4.757975 -17.071747,-4.768952 -16.695558,-4.7644" />
      <path d="M -18.694356,1.028434 C -18.07013,0.936918 -17.318258,0.868114 -16.690296,0.883392" />
      <path d="M -16.628762,0.369981 Q -16.660628,0.626528 -16.690296,0.883392" />
      <path d="M -16.690296,0.883392 C -16.586163,0.886611 -16.367545,0.884291 -16.33196,0.836381" />
      <path d="M -16.284974,0.456446 Q -16.309057,0.646325 -16.33196,0.836381" />
      <path d="M -16.33196,0.836381 Q -16.238169,0.694459 -16.123888,0.55495" />
      <path d="M -16.120897,0.534667 Q -16.122394,0.544808 -16.123888,0.55495" />
      <path d="M -16.123888,0.55495 L -16.119486,0.545015" />
      <path d="M -16.119486,0.545015 C -16.113325,0.500261 -16.275306,0.456364 -16.360889,0.437849" />
      <path d="M -16.360889,0.437849 C -16.909065,0.314657 -17.446934,0.094008 -17.846704,-0.118066" />
      <path d="M -16.387132,-5.789316 Q -17.258859,-2.984052 -17.846704,-0.118066" />
      <path d="M -16.387132,-5.789316 Q -16.13752,-5.936099 -15.866367,-6.076665" />
      <path d="M -17.846704,-0.118066 Q -17.678568,-0.282277 -17.486135,-0.442184" />
      <path d="M -15.866367,-6.076665 Q -16.81339,-3.293118 -17.486135,-0.442184" />
      <path d="M -15.866367,-6.076665 C -15.332249,-6.051281 -14.744516,-5.998205 -14.249497,-5.911411" />
      <path d="M -17.486135,-0.442184 C -16.823823,-0.46611 -16.052945,-0.454915 -15.456289,-0.375301" />
      <path d="M -15.30671,-0.99384 Q -15.382946,-0.684972 -15.456289,-0.375301" />
      <path d="M -15.456289,-0.375301 C -15.357793,-0.361436 -15.145119,-0.341098 -15.079673,-0.3837" />
      <path d="M -14.973126,-0.823155 Q -15.027111,-0.603632 -15.079673,-0.3837" />
      <path d="M -15.079673,-0.3837 Q -14.897029,-0.511099 -14.696158,-0.634051" />
      <path d="M -14.685138,-0.675683 Q -14.690654,-0.654869 -14.696158,-0.634051" />
      <path d="M -14.696158,-0.634051 Q -14.682682,-0.642937 -14.680199,-0.653002" />
      <path d="M -14.680199,-0.653002 C -14.669465,-0.694527 -14.783698,-0.746884 -14.849132,-0.77164" />
      <path d="M -14.849132,-0.77164 C -15.298729,-0.947252 -15.675161,-1.215934 -15.923759,-1.462071" />
      <path d="M -13.809163,-6.945548 Q -14.983874,-4.247796 -15.923759,-1.462071" />
      <path d="M -13.809163,-6.945548 Q -13.472855,-7.061549 -13.119772,-7.169321" />
      <path d="M -15.923759,-1.462071 Q -15.654847,-1.603321 -15.365258,-1.737904" />
      <path d="M -13.119772,-7.169321 Q -14.353127,-4.500322 -15.365258,-1.737904" />
      <path d="M -13.119772,-7.169321 C -12.502154,-7.070925 -11.827619,-6.921591 -11.386074,-6.742756" />
      <path d="M -15.365258,-1.737904 C -14.709995,-1.692611 -13.972645,-1.602179 -13.447957,-1.463654" />
      <path d="M -11.386074,-6.742756 Q -11.958423,-5.417754 -12.483532,-4.070418" />
      <path d="M -13.121843,-2.376485 Q -13.287541,-1.921318 -13.447957,-1.463654" />
      <path d="M -11.386074,-6.742756 C -11.33871,-6.722953 -11.251859,-6.692164 -11.16694,-6.680253" />
      <path d="M -13.447957,-1.463654 C -13.36181,-1.440089 -13.169573,-1.398479 -13.078726,-1.43287" />
      <path d="M -12.873345,-2.013581 Q -12.977068,-1.72373 -13.078726,-1.43287" />
      <path d="M -13.078726,-1.43287 Q -12.819676,-1.537064 -12.545904,-1.63508" />
      <path d="M -12.519182,-1.706727 Q -12.532558,-1.670912 -12.545904,-1.63508" />
      <path d="M -12.545904,-1.63508 Q -12.515967,-1.646856 -12.510279,-1.663963" />
      <path d="M -12.510279,-1.663963 C -12.495853,-1.702868 -12.561908,-1.756116 -12.604428,-1.783781" />
      <path d="M -12.604428,-1.783781 C -12.924805,-1.999843 -13.114146,-2.298249 -13.194633,-2.561674" />
      <path d="M -10.569118,-7.796126 Q -11.966758,-5.233514 -13.194633,-2.561674" />
      <path d="M -10.569118,-7.796126 Q -10.169032,-7.87344 -9.758081,-7.941072" />
      <path d="M -13.194633,-2.561674 Q -12.84327,-2.670338 -12.476259,-2.770426" />
      <path d="M -9.758081,-7.941072 Q -11.193718,-5.412291 -12.476259,-2.770426" />
      <path d="M -9.758081,-7.941072 C -9.225326,-7.78224 -8.670631,-7.568328 -8.360122,-7.349983" />
      <path d="M -12.476259,-2.770426 C -11.872701,-2.658999 -11.219128,-2.495494 -10.802164,-2.307499" />
      <path d="M -8.360122,-7.349983 Q -9.64095,-4.879539 -10.802164,-2.307499" />
      <path d="M -8.360122,-7.349983 C -8.310072,-7.313401 -8.185929,-7.241554 -8.065896,-7.255792" />
      <path d="M -10.802164,-2.307499 C -10.734236,-2.275839 -10.575538,-2.215792 -10.46548,-2.239629" />
      <path d="M -8.065896,-7.255792 Q -9.322057,-4.797625 -10.46548,-2.239629" />
      <path d="M -8.065896,-7.255792 Q -7.7887,-7.292353 -7.507536,-7.32378" />
      <path d="M -10.46548,-2.239629 Q -10.147679,-2.313517 -9.819663,-2.379918" />
      <path d="M -9.762554,-2.502215 Q -9.791137,-2.441096 -9.819663,-2.379918" />
      <path d="M -9.819663,-2.379918 Q -9.764427,-2.393314 -9.752927,-2.422357" />
      <path d="M -9.752927,-2.422357 C -9.736338,-2.457722 -9.760182,-2.503279 -9.779747,-2.529596" />
      <path d="M -7.109483,-7.989314 Q -7.016569,-8.142451 -6.8878,-8.283083" />
      <path d="M -9.779747,-2.529596 C -9.949072,-2.771386 -9.938419,-3.079179 -9.845308,-3.341941" />
      <path d="M -6.8878,-8.283083 Q -7.73014,-6.952715 -8.544077,-5.584824" />
      <path d="M -8.544077,-5.584824 Q -9.204029,-4.475717 -9.845308,-3.341941" />
      <path d="M -6.8878,-8.283083 Q -6.451202,-8.316441 -6.010388,-8.339325" />
      <path d="M -9.845308,-3.341941 Q -9.435441,-3.410613 -9.016019,-3.469385" />
      <path d="M -6.010388,-8.339325 Q -7.550471,-5.966876 -9.016019,-3.469385" />
      <path d="M -6.010388,-8.339325 C -5.598803,-8.130881 -5.20175,-7.866968 -5.043437,-7.623993" />
      <path d="M -9.016019,-3.469385 C -8.505297,-3.299418 -7.980041,-3.073983 -7.699217,-2.849328" />
      <path d="M -5.043437,-7.623993 Q -6.396149,-5.291905 -7.699217,-2.849328" />
      <path d="M -5.043437,-7.623993 C -5.018819,-7.583489 -4.945504,-7.501269 -4.820328,-7.502624" />
      <path d="M -7.699217,-2.849328 C -7.654137,-2.811732 -7.539793,-2.73734 -7.418025,-2.748997" />
      <path d="M -4.820328,-7.502624 Q -6.14125,-5.179846 -7.418025,-2.748997" />
      <path d="M -4.820328,-7.502624 Q -4.453126,-7.511047 -4.085318,-7.510948" />
      <path d="M -7.418025,-2.748997 Q -7.063129,-2.787545 -6.703223,-2.817805" />
      <path d="M -4.085318,-7.510948 Q -5.13102,-5.699426 -6.159017,-3.819877" />
      <path d="M -6.550421,-3.100599 Q -6.626871,-2.959391 -6.703223,-2.817805" />
      <path d="M -4.085318,-7.510948 C -3.997669,-7.511847 -3.940943,-7.553624 -3.908691,-7.592304" />
      <path d="M -6.703223,-2.817805 C -6.63609,-2.824167 -6.600759,-2.853841 -6.583233,-2.885872" />
      <path d="M -6.583233,-2.885872 Q -6.563788,-2.927485 -6.567588,-2.958261" />
      <path d="M -3.857007,-7.678617 C -3.715779,-7.91396 -3.376188,-8.167816 -3.016085,-8.373235" />
      <path d="M -6.567588,-2.958261 C -6.570991,-3.078155 -6.524198,-3.209637 -6.446027,-3.340074" />
      <path d="M -6.446027,-3.340074 C -6.361146,-3.481742 -6.239846,-3.622087 -6.104038,-3.749697" />
      <path d="M -3.016085,-8.373235 Q -4.565142,-6.1257 -6.104038,-3.749697" />
      <path d="M -3.016085,-8.373235 Q -2.572728,-8.360364 -2.132092,-8.33694" />
      <path d="M -6.104038,-3.749697 Q -5.663597,-3.773697 -5.220348,-3.787148" />
      <path d="M -2.132092,-8.33694 Q -3.671667,-6.126284 -5.220348,-3.787148" />
      <path d="M -2.132092,-8.33694 C -1.869726,-8.09309 -1.657373,-7.797161 -1.662045,-7.546114" />
      <path d="M -5.220348,-3.787148 C -4.837266,-3.570224 -4.476123,-3.298221 -4.350576,-3.052217" />
      <path d="M -1.662045,-7.546114 Q -2.994456,-5.355091 -4.350576,-3.052217" />
      <path d="M -1.662045,-7.546114 C -1.664537,-7.504448 -1.647047,-7.417457 -1.525257,-7.405837" />
      <path d="M -4.350576,-3.052217 C -4.331417,-3.011246 -4.269218,-2.927579 -4.144039,-2.926263" />
      <path d="M -1.525257,-7.405837 Q -2.820923,-5.220524 -4.144039,-2.926263" />
      <path d="M -1.525257,-7.405837 Q -1.165105,-7.376048 -0.809894,-7.337964" />
      <path d="M -4.144039,-2.926263 Q -3.776234,-2.926843 -3.408965,-2.918901" />
      <path d="M -0.809894,-7.337964 Q -2.0878,-5.182497 -3.408965,-2.918901" />
      <path d="M -0.809894,-7.337964 C -0.688031,-7.326466 -0.574298,-7.401007 -0.529528,-7.438662" />
      <path d="M -3.408965,-2.918901 C -3.283834,-2.917709 -3.211203,-2.999952 -3.186887,-3.040507" />
      <path d="M -3.186887,-3.040507 L -3.186854,-3.040561" />
      <path d="M -0.529528,-7.438662 Q -1.832587,-5.296919 -3.18429,-3.044834" />
      <path d="M -3.18429,-3.044834 Q -3.185572,-3.042698 -3.186854,-3.040561" />
      <path d="M -0.529528,-7.438662 C -0.25055,-7.663683 0.272851,-7.889804 0.782175,-8.060438" />
      <path d="M -3.186854,-3.040561 C -3.030537,-3.283742 -2.635654,-3.548173 -2.225783,-3.757154" />
      <path d="M 0.782175,-8.060438 Q -0.68505,-5.971366 -2.225783,-3.757154" />
      <path d="M 0.782175,-8.060438 Q 1.202077,-8.002215 1.612507,-7.93408" />
      <path d="M -2.225783,-3.757154 Q -1.784783,-3.734846 -1.347914,-3.70206" />
      <path d="M 1.612507,-7.93408 Q 0.17836,-5.87965 -1.347914,-3.70206" />
      <path d="M 1.612507,-7.93408 C 1.702736,-7.685017 1.719442,-7.396035 1.578372,-7.160039" />
      <path d="M -1.347914,-3.70206 C -1.118578,-3.452962 -0.94616,-3.152928 -0.984445,-2.90234" />
      <path d="M 1.128892,-6.407999 Q 1.03817,-6.255908 0.946935,-6.10325" />
      <path d="M 0.946935,-6.10325 Q 0.008376,-4.532809 -0.984445,-2.90234" />
      <path d="M 1.529655,-7.078682 C 1.513864,-7.037863 1.516049,-6.988891 1.594762,-6.972028" />
      <path d="M -0.984445,-2.90234 C -0.992513,-2.860786 -0.986699,-2.773546 -0.866638,-2.759346" />
      <path d="M 1.594762,-6.972028 Q 0.412651,-4.916887 -0.866638,-2.759346" />
      <path d="M 1.594762,-6.972028 Q 1.923322,-6.906056 2.241728,-6.832584" />
      <path d="M -0.866638,-2.759346 Q -0.51099,-2.721919 -0.161387,-2.676315" />
      <path d="M 2.241728,-6.832584 Q 1.096129,-4.804437 -0.161387,-2.676315" />
      <path d="M 2.241728,-6.832584 C 2.351981,-6.808891 2.510185,-6.869146 2.577853,-6.900894" />
      <path d="M -0.161387,-2.676315 C -0.041238,-2.662234 0.082315,-2.734243 0.132064,-2.77089" />
      <path d="M 2.577853,-6.900894 Q 1.414347,-4.886768 0.132064,-2.77089" />
      <path d="M 2.577853,-6.900894 C 2.993271,-7.089434 3.645497,-7.253793 4.248137,-7.366008" />
      <path d="M 0.132064,-2.77089 C 0.440778,-2.98964 0.993713,-3.204276 1.525161,-3.363804" />
      <path d="M 4.248137,-7.366008 Q 2.962732,-5.421548 1.525161,-3.363804" />
      <path d="M 4.248137,-7.366008 Q 4.615968,-7.266401 4.968221,-7.158197" />
      <path d="M 1.525161,-3.363804 Q 1.936665,-3.29671 2.337384,-3.219919" />
      <path d="M 4.968221,-7.158197 Q 3.737236,-5.243783 2.337384,-3.219919" />
      <path d="M 4.968221,-7.158197 Q 4.923779,-7.006602 4.831386,-6.850246" />
      <path d="M 2.337384,-3.219919 C 2.388774,-2.99239 2.375649,-2.734176 2.243891,-2.513911" />
      <path d="M 2.243891,-2.513911 Q 2.211664,-2.459955 2.169778,-2.409909" />
      <path d="M 2.169778,-2.409909 Q 2.156213,-2.394895 2.143709,-2.374052" />
      <path d="M 2.143709,-2.374052 C 2.119571,-2.332479 2.11033,-2.279162 2.190827,-2.259621" />
      <path d="M 3.373716,-4.406487 Q 2.805214,-3.345775 2.190827,-2.259621" />
      <path d="M 4.437212,-6.191134 Q 4.654118,-6.112149 4.861585,-6.029247" />
      <path d="M 2.190827,-2.259621 Q 2.510082,-2.186737 2.818194,-2.106579" />
      <path d="M 4.861585,-6.029247 Q 3.926363,-4.110418 2.818194,-2.106579" />
      <path d="M 4.861585,-6.029247 C 4.952715,-5.994975 5.144608,-6.036837 5.230562,-6.060514" />
      <path d="M 2.818194,-2.106579 C 2.925117,-2.080569 3.091164,-2.137364 3.162986,-2.167624" />
      <path d="M 5.230562,-6.060514 Q 4.287137,-4.157077 3.162986,-2.167624" />
      <path d="M 5.230562,-6.060514 C 5.754109,-6.199725 6.490713,-6.29112 7.1456,-6.33727" />
      <path d="M 3.162986,-2.167624 C 3.60306,-2.347035 4.276365,-2.49725 4.893172,-2.596453" />
      <path d="M 7.1456,-6.33727 Q 6.129614,-4.513715 4.893172,-2.596453" />
      <path d="M 7.1456,-6.33727 Q 7.436293,-6.203066 7.706364,-6.062169" />
      <path d="M 4.893172,-2.596453 Q 5.247138,-2.489144 5.584397,-2.373583" />
      <path d="M 7.706364,-6.062169 Q 7.039375,-4.790168 6.255499,-3.47409" />
      <path d="M 6.255499,-3.47409 Q 5.930024,-2.927636 5.584397,-2.373583" />
      <path d="M 5.584397,-2.373583 Q 5.547998,-2.289705 5.49659,-2.203574" />
      <path d="M 5.49659,-2.203574 C 5.369816,-1.99157 5.170107,-1.772938 4.89714,-1.608485" />
      <path d="M 4.89714,-1.608485 C 4.861191,-1.587535 4.809166,-1.551407 4.792458,-1.517847" />
      <path d="M 4.792458,-1.517847 Q 4.772538,-1.483768 4.819996,-1.461143" />
      <path d="M 4.88961,-1.604014 Q 4.85495,-1.532627 4.819996,-1.461143" />
      <path d="M 4.819996,-1.461143 Q 5.081101,-1.357769 5.326725,-1.248521" />
      <path d="M 6.37585,-3.677059 Q 5.89771,-2.476214 5.326725,-1.248521" />
      <path d="M 7.111362,-4.960497 Q 7.192193,-4.966523 7.247821,-4.974793" />
      <path d="M 5.326725,-1.248521 C 5.413135,-1.212354 5.61036,-1.250064 5.699361,-1.271874" />
      <path d="M 7.247821,-4.974793 Q 6.58877,-3.155544 5.699361,-1.271874" />
      <path d="M 7.247821,-4.974793 C 7.84382,-5.055187 8.614602,-5.067391 9.277107,-5.04433" />
      <path d="M 5.699361,-1.271874 C 6.240804,-1.399721 6.988594,-1.475277 7.648726,-1.507396" />
      <path d="M 9.277107,-5.04433 Q 8.599778,-3.309736 7.648726,-1.507396" />
      <path d="M 9.277107,-5.04433 Q 9.470852,-4.884676 9.640336,-4.720686" />
      <path d="M 7.648726,-1.507396 Q 7.921032,-1.367185 8.171847,-1.220729" />
      <path d="M 9.640336,-4.720686 Q 9.047783,-3.001254 8.171847,-1.220729" />
      <path d="M 8.171847,-1.220729 C 7.892618,-0.979879 7.482882,-0.719071 7.011774,-0.552681" />
      <path d="M 7.011774,-0.552681 C 6.949411,-0.531349 6.844089,-0.488108 6.829549,-0.449008" />
      <path d="M 6.829549,-0.449008 Q 6.822885,-0.432671 6.841695,-0.418328" />
      <path d="M 6.866339,-0.486514 Q 6.85406,-0.452429 6.841695,-0.418328" />
      <path d="M 6.841695,-0.418328 Q 7.026856,-0.291509 7.193253,-0.160614" />
      <path d="M 7.364824,-0.69923 Q 7.281849,-0.430351 7.193253,-0.160614" />
      <path d="M 7.193253,-0.160614 C 7.253261,-0.116756 7.468224,-0.13281 7.568339,-0.144686" />
      <path d="M 7.823228,-0.958495 Q 7.702526,-0.552571 7.568339,-0.144686" />
      <path d="M 9.266501,-3.702017 C 9.687068,-3.677526 10.114005,-3.630829 10.497399,-3.575301" />
      <path d="M 7.568339,-0.144686 C 8.174252,-0.212255 8.945567,-0.208004 9.604037,-0.170848" />
      <path d="M 10.497399,-3.575301 Q 10.204885,-1.891658 9.604037,-0.170848" />
      <path d="M 10.497399,-3.575301 Q 10.580993,-3.401077 10.638339,-3.22517" />
      <path d="M 9.604037,-0.170848 Q 9.776125,-0.007291 9.923405,0.160079" />
      <path d="M 10.638339,-3.22517 Q 10.437548,-1.547417 9.923405,0.160079" />
      <path d="M 9.923405,0.160079 C 9.497477,0.363883 8.932546,0.573486 8.369572,0.68555" />
      <path d="M 8.369572,0.68555 C 8.284299,0.701848 8.12427,0.740551 8.115345,0.783833" />
      <path d="M 8.115345,0.783833 Q 8.113914,0.790751 8.118148,0.797759" />
      <path d="M 10.698119,0.918988 L 10.503137,0.595012" />
      <path d="M 11.361518,-3.73144 C 12.228961,-2.300238 13.067016,-0.848496 13.948248,0.602322" />
      <path d="M 15.853126,0.424184 L 15.644173,0.077282" />
      <path d="M 16.513201,-4.231575 C 16.644323,-4.014094 16.775445,-3.796613 16.906566,-3.579132 C 17.381526,-2.787382 17.850968,-1.988957 18.314199,-1.208316 C 18.575564,-0.767246 18.83774,-0.329915 19.100728,0.103675" />
      <path d="M 22.309725,2.972051 L 22.309559,2.800521" />
      <path d="M 24.509714,0.713553 L 24.50938,-0.439701" />
      <path d="M 19.156262,5.846558 Q 19.432709,5.390175 19.712488,4.919913" />
      <path d="M 16.029303,5.326154 L 15.907121,5.528391" />
      <path d="M 14.003348,5.348601 L 14.154012,5.099441" />
      <path d="M 11.388624,3.97445 Q 11.069409,4.510408 10.75288,5.032378" />
      <path d="M 10.85332,2.972051 L 10.853466,2.824907" />
      <path d="M 8.562464,2.103118 L 8.562467,2.123901" />
      <path d="M 4.472533,5.842048 L 4.872164,6.510284" />
      <path d="M 1.566295,6.73182 L 1.619221,6.820202" />
      <path d="M -3.863897,7.259054 L -3.816445,7.338304" />
      <path d="M -7.461433,6.992719 L -7.068838,7.649131" />
      <path d="M -18.950323,-0.86407 L -18.950326,0.455643" />
      <path d="M -16.750332,2.035955 L -16.750346,2.123901" />
      <path d="M -7.109483,-7.989314 Q -7.825468,-6.793025 -8.544077,-5.584824" />
      <path d="M -3.857007,-7.678617 C -4.721404,-6.235741 -5.585452,-4.777348 -6.446027,-3.340074" />
      <path d="M -3.184809,-3.043968 L -3.18429,-3.044834" />
      <path d="M 1.578372,-7.160039 L 1.128892,-6.407999" />
      <path d="M 4.831386,-6.850246 Q 3.541406,-4.687814 2.243891,-2.513911" />
      <path d="M 6.255499,-3.47409 Q 5.879111,-2.842148 5.49659,-2.203574" />
    </g>
  </g>
</svg>