<?xml version='1.0' encoding='utf-8'?>
<svg width="100.089999mm" height="71.215003mm" viewBox="-13.0117 -9.257951 26.0234 18.515901" version="1.1" xmlns="http://www.w3.org/2000/svg">
  <g transform="scale(1,-1)" stroke-linecap="round">
    <g fill="none" stroke="rgb(0,0,0)" stroke-width="0.02340000017999075" id="Visible">
      <path d="M 10.632158,4.002593 L 10.631988,4.015359" />
      <path d="M 10.631988,4.015359 Q 10.718792,4.186156 10.760843,4.359022" />
      <path d="M 10.758112,3.946556 L 10.760843,4.359022" />
      <path d="M 10.760843,4.359022 C 10.785252,4.420015 11.119253,4.431098 11.269176,4.429496" />
      <path d="M 11.266288,3.876902 L 11.269176,4.429496" />
      <path d="M 12.612525,-4.801032 Q 12.81444,-4.767855 12.999234,-4.731191" />
      <path d="M 11.269176,4.429496 C 11.524144,4.430928 11.830199,4.455987 12.132286,4.493207 C 12.435206,4.530524 12.734217,4.579611 12.999234,4.6321" />
      <path d="M 12.999234,-4.731191 Q 12.991398,-0.201673 12.999234,4.6321" />
      <path d="M 12.999234,-4.731191 L 13.0,-4.681645" />
      <path d="M 12.999234,4.6321 L 13.0,4.681645" />
      <path d="M 13.0,4.681645 L 12.999234,4.731191" />
      <path d="M 12.999234,4.731191 C 12.734217,4.783681 12.435206,4.832768 12.132286,4.870085 C 11.830199,4.907305 11.524144,4.932364 11.269176,4.933796" />
      <path d="M 11.269176,4.933796 C 11.119253,4.932194 10.785252,4.943277 10.760843,5.00427" />
      <path d="M 10.760843,5.00427 Q 10.718792,5.177136 10.631988,5.347933" />
      <path d="M 10.631988,5.347933 L 10.630828,5.3539" />
      <path d="M 10.630828,5.3539 C 10.631487,5.411821 10.92974,5.450484 11.071052,5.462202" />
      <path d="M 11.078425,4.937695 L 11.071052,5.462202" />
      <path d="M 11.071052,5.462202 C 11.316277,5.486755 11.593432,5.538774 11.857789,5.602179 C 12.122881,5.665753 12.375521,5.740341 12.592817,5.815126" />
      <path d="M 12.612525,4.801032 Q 12.603831,5.306441 12.592817,5.815126" />
      <path d="M 12.592817,5.815126 L 12.519775,5.91084" />
      <path d="M 12.519775,5.91084 C 12.225098,5.937457 11.900092,5.957698 11.579987,5.966215 C 11.260758,5.974714 10.94666,5.971106 10.699324,5.949318" />
      <path d="M 10.699324,5.949318 C 10.555691,5.934146 10.224901,5.914498 10.156364,5.971195" />
      <path d="M 10.156364,5.971195 Q 9.988324,6.134349 9.778581,6.291437" />
      <path d="M 9.778581,6.291437 Q 9.768502,6.300098 9.768343,6.309099" />
      <path d="M 9.768343,6.309099 C 9.767672,6.362218 9.999458,6.419185 10.118454,6.441714" />
      <path d="M 10.133124,5.993542 L 10.118454,6.441714" />
      <path d="M 10.118454,6.441714 C 10.560506,6.535396 11.022818,6.738821 11.32822,6.920906" />
      <path d="M 11.365661,5.970042 Q 11.348998,6.444169 11.32822,6.920906" />
      <path d="M 11.32822,6.920906 L 11.187114,7.006722" />
      <path d="M 11.187114,7.006722 C 10.882858,7.005652 10.554007,6.995668 10.238531,6.974804 C 9.923914,6.954003 9.623179,6.921973 9.400331,6.87845" />
      <path d="M 9.400331,6.87845 C 9.272775,6.850742 8.96774,6.801702 8.859746,6.850239" />
      <path d="M 8.859746,6.850239 Q 8.577168,6.992562 8.258779,7.125237" />
      <path d="M 8.258779,7.125237 Q 8.230348,7.138693 8.23017,7.155648" />
      <path d="M 8.23017,7.155648 C 8.228338,7.206073 8.386602,7.271533 8.476301,7.30128" />
      <path d="M 8.490126,7.025451 L 8.476301,7.30128" />
      <path d="M 8.476301,7.30128 C 8.834235,7.431943 9.130846,7.67045 9.291623,7.874085" />
      <path d="M 9.348283,6.867944 Q 9.323286,7.369801 9.291623,7.874085" />
      <path d="M 9.291623,7.874085 L 9.09207,7.944153" />
      <path d="M 9.09207,7.944153 C 8.798969,7.915469 8.488683,7.87594 8.199336,7.827117 C 7.910772,7.778434 7.643894,7.720165 7.460721,7.657874" />
      <path d="M 7.460721,7.657874 C 7.357935,7.619518 7.099442,7.544428 6.959351,7.581497" />
      <path d="M 6.959351,7.581497 Q 6.581493,7.693291 6.176155,7.792511" />
      <path d="M 6.176155,7.792511 Q 6.117406,7.809787 6.117659,7.840348" />
      <path d="M 6.117659,7.840348 C 6.114938,7.888223 6.200401,7.950326 6.256501,7.982322" />
      <path d="M 6.270164,7.769238 L 6.256501,7.982322" />
      <path d="M 6.256501,7.982322 C 6.505925,8.141061 6.616622,8.398396 6.621818,8.609704" />
      <path d="M 6.688668,7.658993 Q 6.658958,8.133564 6.621818,8.609704" />
      <path d="M 6.621818,8.609704 L 6.377416,8.659249" />
      <path d="M 6.377416,8.659249 C 6.115445,8.604907 5.844869,8.538527 5.60137,8.465073 C 5.358524,8.391824 5.14369,8.311288 5.012675,8.234472" />
      <path d="M 5.012675,8.234472 C 4.941665,8.188083 4.747329,8.09206 4.584688,8.115135" />
      <path d="M 4.584688,8.115135 Q 4.137299,8.188781 3.672637,8.247784" />
      <path d="M 3.672637,8.247784 C 3.595136,8.259035 3.56755,8.292269 3.564946,8.328844" />
      <path d="M 3.564946,8.328844 C 3.562107,8.368459 3.58777,8.411892 3.610331,8.438429" />
      <path d="M 3.623512,8.260041 L 3.610331,8.438429" />
      <path d="M 3.610331,8.438429 Q 3.681572,8.543739 3.669023,8.676785" />
      <path d="M 3.669023,8.676785 C 3.658078,8.810842 3.592507,8.952382 3.500747,9.077632" />
      <path d="M 3.500747,9.077632 L 3.228152,9.103279" />
      <path d="M 3.228152,9.103279 C 2.806287,8.952572 2.366329,8.743124 2.223024,8.568952" />
      <path d="M 2.223024,8.568952 C 2.188627,8.51769 2.071693,8.407278 1.897585,8.414786" />
      <path d="M 1.897585,8.414786 Q 1.411156,8.445265 0.918834,8.46003" />
      <path d="M 0.918834,8.46003 C 0.765149,8.467416 0.722522,8.560714 0.71819,8.617995" />
      <path d="M 0.71819,8.617995 L 0.718123,8.638518" />
      <path d="M 0.721477,8.59643 L 0.718123,8.638518" />
      <path d="M 0.718123,8.638518 L 0.717725,8.64481" />
      <path d="M 0.717725,8.64481 C 0.701649,8.825578 0.434115,9.064134 0.141106,9.245982" />
      <path d="M 0.141106,9.245982 L -0.141106,9.245982" />
      <path d="M -0.141106,9.245982 C -0.434115,9.064134 -0.701649,8.825578 -0.717725,8.64481" />
      <path d="M -0.717725,8.64481 L -0.718123,8.638518" />
      <path d="M -0.721477,8.59643 L -0.718123,8.638518" />
      <path d="M -0.718123,8.638518 L -0.71819,8.617995" />
      <path d="M -0.71819,8.617995 C -0.722522,8.560714 -0.765149,8.467416 -0.918834,8.46003" />
      <path d="M -0.918834,8.46003 Q -1.411156,8.445265 -1.897585,8.414786" />
      <path d="M -1.897585,8.414786 C -2.071693,8.407278 -2.188627,8.51769 -2.223024,8.568952" />
      <path d="M -2.223024,8.568952 C -2.366329,8.743124 -2.806287,8.952572 -3.228152,9.103279" />
      <path d="M -3.228152,9.103279 L -3.500747,9.077632" />
      <path d="M -3.500747,9.077632 C -3.592507,8.952382 -3.658078,8.810842 -3.669023,8.676785" />
      <path d="M -3.669023,8.676785 Q -3.681572,8.543739 -3.610331,8.438429" />
      <path d="M -3.623512,8.260041 L -3.610331,8.438429" />
      <path d="M -3.610331,8.438429 C -3.58777,8.411892 -3.562107,8.368459 -3.564946,8.328844" />
      <path d="M -3.564946,8.328844 C -3.56755,8.292269 -3.595136,8.259035 -3.672637,8.247784" />
      <path d="M -3.672637,8.247784 Q -4.137299,8.188781 -4.584688,8.115135" />
      <path d="M -4.584688,8.115135 C -4.747329,8.09206 -4.941665,8.188083 -5.012675,8.234472" />
      <path d="M -5.012675,8.234472 C -5.14369,8.311288 -5.358524,8.391824 -5.60137,8.465073 C -5.844869,8.538527 -6.115445,8.604907 -6.377416,8.659249" />
      <path d="M -6.377416,8.659249 L -6.621818,8.609704" />
      <path d="M -6.688668,7.658993 Q -6.658958,8.133564 -6.621818,8.609704" />
      <path d="M -6.621818,8.609704 C -6.616622,8.398396 -6.505925,8.141061 -6.256501,7.982322" />
      <path d="M -6.270164,7.769238 L -6.256501,7.982322" />
      <path d="M -6.256501,7.982322 C -6.200401,7.950326 -6.114938,7.888223 -6.117659,7.840348" />
      <path d="M -6.117659,7.840348 Q -6.117406,7.809787 -6.176155,7.792511" />
      <path d="M -6.176155,7.792511 Q -6.581493,7.693291 -6.959351,7.581497" />
      <path d="M -6.959351,7.581497 C -7.099442,7.544428 -7.357935,7.619518 -7.460721,7.657874" />
      <path d="M -7.460721,7.657874 C -7.643894,7.720165 -7.910772,7.778434 -8.199336,7.827117 C -8.488683,7.87594 -8.798969,7.915469 -9.09207,7.944153" />
      <path d="M -9.09207,7.944153 L -9.291623,7.874085" />
      <path d="M -9.348283,6.867944 Q -9.323286,7.369801 -9.291623,7.874085" />
      <path d="M -9.291623,7.874085 C -9.130846,7.67045 -8.834235,7.431943 -8.476301,7.30128" />
      <path d="M -8.490126,7.025451 L -8.476301,7.30128" />
      <path d="M -8.476301,7.30128 C -8.386602,7.271533 -8.228338,7.206073 -8.23017,7.155648" />
      <path d="M -8.23017,7.155648 Q -8.230348,7.138693 -8.258779,7.125237" />
      <path d="M -8.258779,7.125237 Q -8.577168,6.992562 -8.859746,6.850239" />
      <path d="M -8.859746,6.850239 C -8.96774,6.801702 -9.272775,6.850742 -9.400331,6.87845" />
      <path d="M -9.400331,6.87845 C -9.623179,6.921973 -9.923914,6.954003 -10.238531,6.974804 C -10.554007,6.995668 -10.882858,7.005652 -11.187114,7.006722" />
      <path d="M -11.187114,7.006722 L -11.32822,6.920906" />
      <path d="M -11.365661,5.970042 Q -11.348998,6.444169 -11.32822,6.920906" />
      <path d="M -11.32822,6.920906 C -11.022818,6.738821 -10.560506,6.535396 -10.118454,6.441714" />
      <path d="M -10.133124,5.993542 L -10.118454,6.441714" />
      <path d="M -10.118454,6.441714 C -9.999458,6.419185 -9.767672,6.362218 -9.768343,6.309099" />
      <path d="M -9.768343,6.309099 Q -9.768502,6.300098 -9.778581,6.291437" />
      <path d="M -9.778581,6.291437 Q -9.988324,6.134349 -10.156364,5.971195" />
      <path d="M -10.156364,5.971195 C -10.224901,5.914498 -10.555691,5.934146 -10.699324,5.949318" />
      <path d="M -10.699324,5.949318 C -10.94666,5.971106 -11.260758,5.974714 -11.579987,5.966215 C -11.900092,5.957698 -12.225098,5.937457 -12.519775,5.91084" />
      <path d="M -12.519775,5.91084 L -12.592817,5.815126" />
      <path d="M -12.612525,4.801032 Q -12.603831,5.306441 -12.592817,5.815126" />
      <path d="M -12.592817,5.815126 C -12.375521,5.740341 -12.122881,5.665753 -11.857789,5.602179 C -11.593432,5.538774 -11.316277,5.486755 -11.071052,5.462202" />
      <path d="M -11.078425,4.937695 L -11.071052,5.462202" />
      <path d="M -11.071052,5.462202 C -10.92974,5.450484 -10.631487,5.411821 -10.630828,5.3539" />
      <path d="M -10.630828,5.3539 L -10.631988,5.347933" />
      <path d="M -10.631988,5.347933 Q -10.718792,5.177136 -10.760843,5.00427" />
      <path d="M -10.760843,5.00427 C -10.785252,4.943277 -11.119253,4.932194 -11.269176,4.933796" />
      <path d="M -11.269176,4.933796 C -11.524144,4.932364 -11.830199,4.907305 -12.132286,4.870085 C -12.435206,4.832768 -12.734217,4.783681 -12.999234,4.731191" />
      <path d="M -13.0,-4.681645 L -12.999234,-4.731191" />
      <path d="M -12.999234,4.731191 L -13.0,4.681645" />
      <path d="M -13.0,4.681645 L -12.999234,4.6321" />
      <path d="M -12.999234,-4.731191 Q -12.991398,-0.201673 -12.999234,4.6321" />
      <path d="M -12.999234,-4.731191 Q -12.81444,-4.767855 -12.612525,-4.801032" />
      <path d="M -12.999234,4.6321 C -12.734217,4.579611 -12.435206,4.530524 -12.132286,4.493207 C -11.830199,4.455987 -11.524144,4.430928 -11.269176,4.429496" />
      <path d="M -11.266288,3.876902 L -11.269176,4.429496" />
      <path d="M -11.269176,4.429496 C -11.119253,4.431098 -10.785252,4.420015 -10.760843,4.359022" />
      <path d="M -10.758112,3.946556 L -10.760843,4.359022" />
      <path d="M -10.760843,4.359022 Q -10.718792,4.186156 -10.631988,4.015359" />
      <path d="M -10.632158,4.002593 L -10.631988,4.015359" />
      <path d="M -10.631988,4.015359 L -10.630828,4.008963" />
      <path d="M -10.630828,4.008963 C -10.632988,3.951274 -10.93008,3.912781 -11.071052,3.90109" />
      <path d="M -11.071052,3.90109 C -11.316277,3.876536 -11.593432,3.824518 -11.857789,3.761113 C -12.122881,3.697539 -12.375521,3.622951 -12.592817,3.548166" />
      <path d="M -12.592817,-5.815126 Q -12.697383,-0.985824 -12.592817,3.548166" />
      <path d="M -12.592817,-5.815126 L -12.519775,-5.91084" />
      <path d="M -12.592817,3.548166 L -12.519775,3.452452" />
      <path d="M -12.519775,-5.91084 Q -12.40007,-1.375426 -12.519775,3.452452" />
      <path d="M -12.519775,-5.91084 C -12.159189,-5.943409 -11.751059,-5.966591 -11.365661,-5.970042" />
      <path d="M -12.519775,3.452452 C -12.225098,3.425835 -11.900092,3.405594 -11.579987,3.397077 C -11.260758,3.388578 -10.94666,3.392186 -10.699324,3.413974" />
      <path d="M -10.683517,2.751172 L -10.699324,3.413974" />
      <path d="M -10.699324,3.413974 C -10.555691,3.429146 -10.224901,3.448794 -10.156364,3.392097" />
      <path d="M -10.144579,2.915954 L -10.156364,3.392097" />
      <path d="M -10.156364,3.392097 Q -9.988324,3.228943 -9.778581,3.071855" />
      <path d="M -9.779871,3.032501 L -9.778581,3.071855" />
      <path d="M -9.778581,3.071855 Q -9.767872,3.062635 -9.768344,3.053039" />
      <path d="M -9.768344,3.053039 C -9.771083,3.000232 -10.000303,2.94395 -10.118454,2.921578" />
      <path d="M -10.118454,2.921578 C -10.560506,2.827896 -11.022818,2.624471 -11.32822,2.442386" />
      <path d="M -11.32822,-6.920906 Q -11.538063,-2.106138 -11.32822,2.442386" />
      <path d="M -11.32822,-6.920906 L -11.187114,-7.006722" />
      <path d="M -11.32822,2.442386 L -11.187114,2.35657" />
      <path d="M -11.187114,-7.006722 Q -10.963699,-2.455446 -11.187114,2.35657" />
      <path d="M -11.187114,-7.006722 C -10.882858,-7.005652 -10.554007,-6.995668 -10.238531,-6.974804 C -9.923914,-6.954003 -9.623179,-6.921973 -9.400331,-6.87845" />
      <path d="M -11.187114,2.35657 C -10.882858,2.35764 -10.554007,2.367624 -10.238531,2.388488 C -9.923914,2.409289 -9.623179,2.441319 -9.400331,2.484842" />
      <path d="M -9.400331,-6.87845 L -9.374939,-6.288929" />
      <path d="M -9.337152,0.733531 Q -9.36164,1.605498 -9.400331,2.484842" />
      <path d="M -9.400331,-6.87845 Q -9.377377,-6.873469 -9.348283,-6.867944" />
      <path d="M -9.400331,2.484842 C -9.272775,2.51255 -8.96774,2.56159 -8.859746,2.513053" />
      <path d="M -8.834257,1.886446 L -8.859746,2.513053" />
      <path d="M -8.859746,2.513053 Q -8.577168,2.37073 -8.258779,2.238055" />
      <path d="M -8.26257,2.161837 L -8.258779,2.238055" />
      <path d="M -8.258779,2.238055 Q -8.228465,2.223635 -8.230173,2.205291" />
      <path d="M -8.230173,2.205291 C -8.233297,2.155167 -8.387969,2.091309 -8.476301,2.062012" />
      <path d="M -8.476301,2.062012 C -8.834235,1.931349 -9.130846,1.692842 -9.291623,1.489207" />
      <path d="M -9.291623,-7.874085 Q -9.592442,-3.082923 -9.291623,1.489207" />
      <path d="M -9.291623,-7.874085 L -9.09207,-7.944153" />
      <path d="M -9.291623,1.489207 L -9.09207,1.419139" />
      <path d="M -9.09207,-7.944153 Q -8.780169,-3.368131 -9.09207,1.419139" />
      <path d="M -9.09207,-7.944153 C -8.798969,-7.915469 -8.488683,-7.87594 -8.199336,-7.827117 C -7.910772,-7.778434 -7.643894,-7.720165 -7.460721,-7.657874" />
      <path d="M -9.09207,1.419139 C -8.798969,1.447822 -8.488683,1.487352 -8.199336,1.536174 C -7.910772,1.584858 -7.643894,1.643126 -7.460721,1.705418" />
      <path d="M -7.460721,-7.657874 Q -7.17639,-3.062829 -7.460721,1.705418" />
      <path d="M -7.460721,-7.657874 C -7.357935,-7.619518 -7.099442,-7.544428 -6.959351,-7.581497" />
      <path d="M -7.460721,1.705418 C -7.357935,1.743774 -7.099442,1.818864 -6.959351,1.781795" />
      <path d="M -6.959351,-7.581497 Q -6.682391,-2.980602 -6.959351,1.781795" />
      <path d="M -6.959351,-7.581497 L -6.688668,-7.658993" />
      <path d="M -6.959351,1.781795 Q -6.581493,1.670001 -6.176155,1.570781" />
      <path d="M -6.185051,1.429032 L -6.176155,1.570781" />
      <path d="M -6.176155,1.570781 Q -6.112827,1.551865 -6.11767,1.517856" />
      <path d="M -6.11767,1.517856 C -6.120961,1.470707 -6.202347,1.411858 -6.256501,1.380969" />
      <path d="M -6.256501,1.380969 C -6.492109,1.23132 -6.604323,0.992139 -6.6199,0.789024" />
      <path d="M -6.6199,0.789024 L -6.621818,0.753588" />
      <path d="M -6.621818,-8.609704 Q -6.932541,-4.626159 -6.723199,-0.752493" />
      <path d="M -6.723199,-0.752493 Q -6.68239,0.002635 -6.621818,0.753588" />
      <path d="M -6.621818,-8.609704 L -6.377416,-8.659249" />
      <path d="M -6.621818,0.753588 L -6.377416,0.704042" />
      <path d="M -6.377416,-8.659249 Q -5.998285,-4.051284 -6.377416,0.704042" />
      <path d="M -6.377416,-8.659249 C -6.115445,-8.604907 -5.844869,-8.538527 -5.60137,-8.465073 C -5.358524,-8.391824 -5.14369,-8.311288 -5.012675,-8.234472" />
      <path d="M -6.377416,0.704042 C -6.115445,0.758384 -5.844869,0.824765 -5.60137,0.898219 C -5.358524,0.971468 -5.14369,1.052004 -5.012675,1.128819" />
      <path d="M -5.012675,-8.234472 Q -4.674197,-3.610637 -5.012675,1.128819" />
      <path d="M -5.012675,-8.234472 C -4.941665,-8.188083 -4.747329,-8.09206 -4.584688,-8.115135" />
      <path d="M -5.012675,1.128819 C -4.941665,1.175209 -4.747329,1.271231 -4.584688,1.248157" />
      <path d="M -4.584688,-8.115135 Q -4.257642,-3.486319 -4.584688,1.248157" />
      <path d="M -4.584688,-8.115135 Q -4.151534,-8.186438 -3.702101,-8.244025" />
      <path d="M -4.584688,1.248157 Q -4.137299,1.174511 -3.672637,1.115508" />
      <path d="M -3.815612,-1.715665 Q -3.775401,-0.296017 -3.672637,1.115508" />
      <path d="M -3.672637,1.115508 C -3.585957,1.102917 -3.561792,1.062894 -3.564986,1.021369" />
      <path d="M -3.564986,1.021369 C -3.567695,0.985533 -3.590219,0.948513 -3.610331,0.924862" />
      <path d="M -3.669023,-8.676785 C -3.658078,-8.810842 -3.592507,-8.952382 -3.500747,-9.077632" />
      <path d="M -3.610331,0.924862 Q -3.662659,0.849494 -3.669213,0.757187" />
      <path d="M -3.669213,0.757187 C -3.681059,0.604225 -3.60877,0.433056 -3.500747,0.285659" />
      <path d="M -3.500747,-9.077632 Q -3.917214,-4.353955 -3.500747,0.285659" />
      <path d="M -3.500747,-9.077632 L -3.228152,-9.103279" />
      <path d="M -3.500747,0.285659 L -3.228152,0.260013" />
      <path d="M -3.228152,-9.103279 Q -2.807628,-4.458349 -3.228152,0.260013" />
      <path d="M -3.228152,-9.103279 C -2.806287,-8.952572 -2.366329,-8.743124 -2.223024,-8.568952" />
      <path d="M -3.228152,0.260013 C -2.806287,0.41072 -2.366329,0.620167 -2.223024,0.79434" />
      <path d="M -2.223024,-8.568952 Q -1.853466,-3.912387 -2.223024,0.79434" />
      <path d="M -2.223024,-8.568952 C -2.188627,-8.51769 -2.071693,-8.407278 -1.897585,-8.414786" />
      <path d="M -2.223024,0.79434 C -2.188627,0.845602 -2.071693,0.956013 -1.897585,0.948506" />
      <path d="M -1.897585,-8.414786 Q -1.542741,-3.754449 -1.897585,0.948506" />
      <path d="M -1.897585,-8.414786 Q -1.411156,-8.445265 -0.918834,-8.46003" />
      <path d="M -1.897585,0.948506 Q -1.411156,0.918027 -0.918834,0.903262" />
      <path d="M -0.918834,-8.46003 Q -1.277295,-3.76672 -0.918834,0.903262" />
      <path d="M -0.918834,-8.46003 C -0.783893,-8.466389 -0.734335,-8.53955 -0.721641,-8.595708" />
      <path d="M -0.918834,0.903262 C -0.745258,0.894699 -0.713608,0.777591 -0.718113,0.724896" />
      <path d="M -0.718113,0.724896 L -0.718123,0.724774" />
      <path d="M -0.905803,-3.878199 Q -0.902883,-1.574446 -0.718123,0.724774" />
      <path d="M -0.718123,-8.638518 L -0.717725,-8.64481" />
      <path d="M -0.717725,-8.64481 C -0.701649,-8.825578 -0.434115,-9.064134 -0.141106,-9.245982" />
      <path d="M -0.718123,0.724774 C -0.708087,0.543513 -0.437507,0.30122 -0.141106,0.11731" />
      <path d="M -0.141106,-9.245982 Q -0.574364,-4.561584 -0.141106,0.11731" />
      <path d="M -0.141106,-9.245982 L 0.141106,-9.245982" />
      <path d="M -0.141106,0.11731 L 0.141106,0.11731" />
      <path d="M 0.141106,-9.245982 Q 0.574364,-4.561584 0.141106,0.11731" />
      <path d="M 0.141106,-9.245982 C 0.434115,-9.064134 0.701649,-8.825578 0.717725,-8.64481" />
      <path d="M 0.717725,-8.64481 L 0.718123,-8.638518" />
      <path d="M 0.141106,0.11731 C 0.437507,0.30122 0.708087,0.543513 0.718123,0.724774" />
      <path d="M 0.905803,-3.878199 Q 0.902883,-1.574446 0.718123,0.724774" />
      <path d="M 0.721641,-8.595708 C 0.734335,-8.53955 0.783893,-8.466389 0.918834,-8.46003" />
      <path d="M 0.718123,0.724774 L 0.718113,0.724896" />
      <path d="M 0.718113,0.724896 C 0.713608,0.777591 0.745258,0.894699 0.918834,0.903262" />
      <path d="M 0.918834,-8.46003 Q 1.277295,-3.76672 0.918834,0.903262" />
      <path d="M 0.918834,-8.46003 Q 1.411156,-8.445265 1.897585,-8.414786" />
      <path d="M 0.918834,0.903262 Q 1.411156,0.918027 1.897585,0.948506" />
      <path d="M 1.897585,-8.414786 Q 1.542741,-3.754449 1.897585,0.948506" />
      <path d="M 1.897585,-8.414786 C 2.071693,-8.407278 2.188627,-8.51769 2.223024,-8.568952" />
      <path d="M 1.897585,0.948506 C 2.071693,0.956013 2.188627,0.845602 2.223024,0.79434" />
      <path d="M 2.223024,-8.568952 Q 1.853466,-3.912387 2.223024,0.79434" />
      <path d="M 2.223024,-8.568952 C 2.366329,-8.743124 2.806287,-8.952572 3.228152,-9.103279" />
      <path d="M 2.223024,0.79434 C 2.366329,0.620167 2.806287,0.41072 3.228152,0.260013" />
      <path d="M 3.228152,-9.103279 Q 2.807628,-4.458349 3.228152,0.260013" />
      <path d="M 3.228152,-9.103279 L 3.500747,-9.077632" />
      <path d="M 3.228152,0.260013 L 3.500747,0.285659" />
      <path d="M 3.500747,-9.077632 Q 3.917214,-4.353955 3.500747,0.285659" />
      <path d="M 3.500747,-9.077632 C 3.592507,-8.952382 3.658078,-8.810842 3.669023,-8.676785" />
      <path d="M 3.500747,0.285659 C 3.60877,0.433056 3.681059,0.604225 3.669213,0.757187" />
      <path d="M 3.669213,0.757187 Q 3.662659,0.849494 3.610331,0.924862" />
      <path d="M 3.610331,0.924862 C 3.590219,0.948513 3.567695,0.985533 3.564986,1.021369" />
      <path d="M 3.564986,1.021369 C 3.561792,1.062894 3.585957,1.102917 3.672637,1.115508" />
      <path d="M 3.815612,-1.715665 Q 3.775401,-0.296017 3.672637,1.115508" />
      <path d="M 3.702101,-8.244025 Q 4.151534,-8.186438 4.584688,-8.115135" />
      <path d="M 3.672637,1.115508 Q 4.137299,1.174511 4.584688,1.248157" />
      <path d="M 4.584688,-8.115135 Q 4.257642,-3.486319 4.584688,1.248157" />
      <path d="M 4.584688,-8.115135 C 4.747329,-8.09206 4.941665,-8.188083 5.012675,-8.234472" />
      <path d="M 4.584688,1.248157 C 4.747329,1.271231 4.941665,1.175209 5.012675,1.128819" />
      <path d="M 5.012675,-8.234472 Q 4.674197,-3.610637 5.012675,1.128819" />
      <path d="M 5.012675,-8.234472 C 5.14369,-8.311288 5.358524,-8.391824 5.60137,-8.465073 C 5.844869,-8.538527 6.115445,-8.604907 6.377416,-8.659249" />
      <path d="M 5.012675,1.128819 C 5.14369,1.052004 5.358524,0.971468 5.60137,0.898219 C 5.844869,0.824765 6.115445,0.758384 6.377416,0.704042" />
      <path d="M 6.377416,-8.659249 Q 5.998285,-4.051284 6.377416,0.704042" />
      <path d="M 6.377416,-8.659249 L 6.621818,-8.609704" />
      <path d="M 6.377416,0.704042 L 6.621818,0.753588" />
      <path d="M 6.621818,-8.609704 Q 6.932541,-4.626159 6.723199,-0.752493" />
      <path d="M 6.723199,-0.752493 Q 6.68239,0.002635 6.621818,0.753588" />
      <path d="M 6.621818,0.753588 L 6.6199,0.789024" />
      <path d="M 6.6199,0.789024 C 6.604323,0.992139 6.492109,1.23132 6.256501,1.380969" />
      <path d="M 6.256501,1.380969 C 6.202347,1.411858 6.120961,1.470707 6.11767,1.517856" />
      <path d="M 6.11767,1.517856 Q 6.112827,1.551865 6.176155,1.570781" />
      <path d="M 6.185051,1.429032 L 6.176155,1.570781" />
      <path d="M 6.688668,-7.658993 L 6.959351,-7.581497" />
      <path d="M 6.176155,1.570781 Q 6.581493,1.670001 6.959351,1.781795" />
      <path d="M 6.959351,-7.581497 Q 6.682391,-2.980602 6.959351,1.781795" />
      <path d="M 6.959351,-7.581497 C 7.099442,-7.544428 7.357935,-7.619518 7.460721,-7.657874" />
      <path d="M 6.959351,1.781795 C 7.099442,1.818864 7.357935,1.743774 7.460721,1.705418" />
      <path d="M 7.460721,-7.657874 Q 7.17639,-3.062829 7.460721,1.705418" />
      <path d="M 7.460721,-7.657874 C 7.643894,-7.720165 7.910772,-7.778434 8.199336,-7.827117 C 8.488683,-7.87594 8.798969,-7.915469 9.09207,-7.944153" />
      <path d="M 7.460721,1.705418 C 7.643894,1.643126 7.910772,1.584858 8.199336,1.536174 C 8.488683,1.487352 8.798969,1.447822 9.09207,1.419139" />
      <path d="M 9.09207,-7.944153 Q 8.780169,-3.368131 9.09207,1.419139" />
      <path d="M 9.09207,-7.944153 L 9.291623,-7.874085" />
      <path d="M 9.09207,1.419139 L 9.291623,1.489207" />
      <path d="M 9.291623,-7.874085 Q 9.592442,-3.082923 9.291623,1.489207" />
      <path d="M 9.291623,1.489207 C 9.130846,1.692842 8.834235,1.931349 8.476301,2.062012" />
      <path d="M 8.476301,2.062012 C 8.387969,2.091309 8.233297,2.155167 8.230173,2.205291" />
      <path d="M 8.230173,2.205291 Q 8.228465,2.223635 8.258779,2.238055" />
      <path d="M 8.26257,2.161837 L 8.258779,2.238055" />
      <path d="M 8.258779,2.238055 Q 8.577168,2.37073 8.859746,2.513053" />
      <path d="M 8.834257,1.886446 L 8.859746,2.513053" />
      <path d="M 9.348283,-6.867944 Q 9.377377,-6.873469 9.400331,-6.87845" />
      <path d="M 8.859746,2.513053 C 8.96774,2.56159 9.272775,2.51255 9.400331,2.484842" />
      <path d="M 9.400331,-6.87845 L 9.374939,-6.288929" />
      <path d="M 9.337152,0.733531 Q 9.36164,1.605498 9.400331,2.484842" />
      <path d="M 9.400331,-6.87845 C 9.623179,-6.921973 9.923914,-6.954003 10.238531,-6.974804 C 10.554007,-6.995668 10.882858,-7.005652 11.187114,-7.006722" />
      <path d="M 9.400331,2.484842 C 9.623179,2.441319 9.923914,2.409289 10.238531,2.388488 C 10.554007,2.367624 10.882858,2.35764 11.187114,2.35657" />
      <path d="M 11.187114,-7.006722 Q 10.963699,-2.455446 11.187114,2.35657" />
      <path d="M 11.187114,-7.006722 L 11.32822,-6.920906" />
      <path d="M 11.187114,2.35657 L 11.32822,2.442386" />
      <path d="M 11.32822,-6.920906 Q 11.538063,-2.106138 11.32822,2.442386" />
      <path d="M 11.32822,2.442386 C 11.022818,2.624471 10.560506,2.827896 10.118454,2.921578" />
      <path d="M 10.118454,2.921578 C 10.000303,2.94395 9.771083,3.000232 9.768344,3.053039" />
      <path d="M 9.768344,3.053039 Q 9.767872,3.062635 9.778581,3.071855" />
      <path d="M 9.779871,3.032501 L 9.778581,3.071855" />
      <path d="M 9.778581,3.071855 Q 9.988324,3.228943 10.156364,3.392097" />
      <path d="M 10.144579,2.915954 L 10.156364,3.392097" />
      <path d="M 10.156364,3.392097 C 10.224901,3.448794 10.555691,3.429146 10.699324,3.413974" />
      <path d="M 10.683517,2.751172 L 10.699324,3.413974" />
      <path d="M 11.365661,-5.970042 C 11.751059,-5.966591 12.159189,-5.943409 12.519775,-5.91084" />
      <path d="M 10.699324,3.413974 C 10.94666,3.392186 11.260758,3.388578 11.579987,3.397077 C 11.900092,3.405594 12.225098,3.425835 12.519775,3.452452" />
      <path d="M 12.519775,-5.91084 Q 12.40007,-1.375426 12.519775,3.452452" />
      <path d="M 12.519775,-5.91084 L 12.592817,-5.815126" />
      <path d="M 12.519775,3.452452 L 12.592817,3.548166" />
      <path d="M 12.592817,-5.815126 Q 12.697383,-0.985824 12.592817,3.548166" />
      <path d="M 12.592817,3.548166 C 12.375521,3.622951 12.122881,3.697539 11.857789,3.761113 C 11.593432,3.824518 11.316277,3.876536 11.071052,3.90109" />
      <path d="M 11.071052,3.90109 C 10.93008,3.912781 10.632988,3.951274 10.630828,4.008963" />
      <path d="M 10.630828,4.008963 L 10.631988,4.015359" />
      <path d="M 13.0,-4.681645 L 13.0,4.681645" />
      <path d="M 3.702101,8.244025 L 3.669023,8.676785" />
      <path d="M 0.721641,8.595708 L 0.717725,8.64481" />
      <path d="M -0.717725,8.64481 L -0.721641,8.595708" />
      <path d="M -3.702101,8.244025 L -3.669023,8.676785" />
      <path d="M -13.0,-4.681645 L -13.0,4.681645" />
      <path d="M -6.6199,0.789024 Q -6.68147,0.019118 -6.723199,-0.752493" />
      <path d="M -3.669023,-8.676785 C -3.921508,-5.537858 -3.921288,-2.375269 -3.669213,0.757187" />
      <path d="M -0.71812,0.724816 L -0.718113,0.724896" />
      <path d="M -0.717725,-8.64481 Q -0.908606,-6.266888 -0.905803,-3.878199" />
      <path d="M 0.717725,-8.64481 Q 0.908606,-6.266888 0.905803,-3.878199" />
      <path d="M 0.71812,0.724816 L 0.718113,0.724896" />
      <path d="M 3.669023,-8.676785 C 3.921508,-5.537858 3.921288,-2.375269 3.669213,0.757187" />
      <path d="M 6.723199,-0.752493 Q 6.68147,0.019118 6.6199,0.789024" />
    </g>
  </g>
</svg>