<?xml version='1.0' encoding='utf-8'?>
<svg width="100.09mm" height="64.611961mm" viewBox="-19.790968 -14.276047 45.420376 29.320607" version="1.1" xmlns="http://www.w3.org/2000/svg">
  <g transform="scale(1,-1)" stroke-linecap="round">
    <g fill="none" stroke="rgb(0,0,0)" stroke-width="0.040841581040870656" id="Visible">
      <path d="M 12.141884,5.11981 Q 11.988349,4.863974 11.870346,4.594582" />
      <path d="M 11.870346,4.594582 C 11.810062,4.455442 11.590028,4.402774 11.378852,4.419887 C 11.162622,4.435988 10.96264,4.499788 10.764433,4.588199" />
      <path d="M 10.764433,4.588199 C 10.247796,4.663989 9.552997,4.500679 9.029705,4.289348" />
      <path d="M 9.029705,4.289348 Q 8.955471,3.975527 8.913871,3.657293" />
      <line x1="8.913871" y1="3.034963" x2="8.913871" y2="3.657293" />
      <path d="M 8.913871,3.657293 C 9.336266,3.318068 9.939047,2.979273 10.457801,2.915038" />
      <line x1="10.457801" y1="2.906066" x2="10.457801" y2="2.915038" />
      <path d="M 10.457801,2.915038 C 10.678043,2.946858 10.891171,2.954789 11.1027,2.913041 C 11.309782,2.873589 11.500335,2.765394 11.507938,2.617073" />
      <line x1="11.507938" y1="1.846244" x2="11.507938" y2="2.617073" />
      <path d="M 11.507938,2.617073 Q 11.523881,2.329566 11.578487,2.045581" />
      <line x1="11.578487" y1="1.978215" x2="11.578487" y2="2.045581" />
      <path d="M 11.578487,2.045581 L 11.581514,2.012036" />
      <path d="M 11.581514,2.012036 C 11.582922,1.870783 11.41905,1.74401 11.231895,1.674197 C 11.040808,1.601918 10.839314,1.573271 10.624452,1.565044" />
      <path d="M 10.624452,1.565044 C 10.132919,1.408775 9.62626,0.968915 9.29608,0.561133" />
      <line x1="9.29608" y1="0.013142" x2="9.29608" y2="0.561133" />
      <path d="M 9.29608,0.561133 Q 9.41445,0.257471 9.563651,-0.035996" />
      <line x1="9.563651" y1="-0.039328" x2="9.563651" y2="-0.035996" />
      <path d="M 11.25299,-2.600365 L 11.33276,-2.575227" />
      <path d="M 9.563651,-0.035996 C 10.126901,-0.148347 10.846118,-0.182846 11.33276,-0.015661" />
      <line x1="11.33276" y1="-2.575227" x2="11.33276" y2="-0.015661" />
      <path d="M 11.33276,-2.575227 Q 11.51603,-2.442131 11.722537,-2.356356" />
      <path d="M 11.33276,-0.015661 C 11.504975,0.106494 11.684932,0.204906 11.892421,0.259606 C 12.094723,0.314385 12.322722,0.302531 12.415635,0.177348" />
      <line x1="12.415635" y1="-1.022376" x2="12.415635" y2="0.177348" />
      <path d="M 12.415635,0.177348 Q 12.596785,-0.064793 12.809367,-0.287277" />
      <line x1="12.809367" y1="-0.638085" x2="12.809367" y2="-0.287277" />
      <path d="M 12.809367,-0.287277 Q 12.868867,-0.352485 12.868405,-0.441577" />
      <path d="M 12.868405,-0.441577 C 12.868389,-0.569222 12.779154,-0.709393 12.66625,-0.82227 C 12.551417,-0.93445 12.416949,-1.03143 12.262845,-1.11321" />
      <path d="M 12.262845,-1.11321 C 11.92812,-1.459666 11.74536,-2.058215 11.696764,-2.553183" />
      <line x1="11.696764" y1="-5.11275" x2="11.696764" y2="-2.553183" />
      <path d="M 11.696764,-5.11275 Q 11.97602,-5.324886 12.276044,-5.514951" />
      <path d="M 11.696764,-2.553183 Q 11.97602,-2.76532 12.276044,-2.955385" />
      <line x1="12.276044" y1="-5.514951" x2="12.276044" y2="-2.955385" />
      <path d="M 12.276044,-5.514951 C 12.829226,-5.370324 13.472167,-5.091284 13.796302,-4.737475" />
      <path d="M 12.276044,-2.955385 C 12.829226,-2.810757 13.472167,-2.531717 13.796302,-2.177909" />
      <line x1="13.796302" y1="-4.737475" x2="13.796302" y2="-2.177909" />
      <path d="M 13.796302,-4.737475 C 13.874344,-4.557717 13.972912,-4.395195 14.120764,-4.258703 C 14.264078,-4.12437 14.468431,-4.036706 14.621759,-4.10521" />
      <path d="M 13.796302,-2.177909 C 13.874344,-1.99815 13.972912,-1.835628 14.120764,-1.699136 C 14.264078,-1.564804 14.468431,-1.47714 14.621759,-1.545644" />
      <line x1="14.621759" y1="-4.10521" x2="14.621759" y2="-1.545644" />
      <path d="M 14.621759,-4.10521 Q 14.912589,-4.23401 15.218539,-4.333723" />
      <path d="M 14.621759,-1.545644 Q 14.919577,-1.677536 15.233174,-1.778905" />
      <line x1="15.233174" y1="-2.770288" x2="15.233174" y2="-1.778905" />
      <path d="M 15.233174,-1.778905 C 15.374784,-1.824231 15.441886,-1.976907 15.439607,-2.135807" />
      <path d="M 15.439607,-2.135807 C 15.436835,-2.343144 15.354968,-2.539628 15.240604,-2.728926" />
      <path d="M 15.218539,-5.526158 C 15.219034,-5.932849 15.384042,-6.404307 15.588495,-6.778688" />
      <path d="M 15.240604,-2.728926 Q 15.218273,-2.84169 15.218539,-2.966592" />
      <path d="M 15.218539,-2.966592 C 15.219034,-3.373282 15.384042,-3.84474 15.588495,-4.219122" />
      <line x1="15.588495" y1="-6.778688" x2="15.588495" y2="-4.219122" />
      <path d="M 15.588495,-6.778688 Q 15.953812,-6.842458 16.324267,-6.878193" />
      <path d="M 15.588495,-4.219122 Q 15.953812,-4.282891 16.324267,-4.318627" />
      <line x1="16.324267" y1="-6.878193" x2="16.324267" y2="-4.318627" />
      <path d="M 16.324267,-6.878193 C 16.719157,-6.51534 17.113545,-5.997529 17.188321,-5.551901" />
      <path d="M 16.324267,-4.318627 C 16.719157,-3.955774 17.113545,-3.437963 17.188321,-2.992334" />
      <line x1="17.188321" y1="-5.551901" x2="17.188321" y2="-2.992334" />
      <path d="M 17.188321,-5.006486 C 17.232871,-4.825253 17.359584,-4.65645 17.53518,-4.649794" />
      <path d="M 17.188321,-2.992334 Q 17.158103,-2.843948 17.157441,-2.701205" />
      <path d="M 17.157441,-2.701205 C 17.157437,-2.565977 17.180261,-2.424609 17.242511,-2.304755 C 17.303329,-2.185512 17.409241,-2.09527 17.53518,-2.090227" />
      <line x1="17.53518" y1="-4.649794" x2="17.53518" y2="-2.090227" />
      <path d="M 17.53518,-4.649794 Q 17.869866,-4.636098 18.200451,-4.58919" />
      <path d="M 17.53518,-2.090227 Q 17.869866,-2.076531 18.200451,-2.029623" />
      <line x1="18.200451" y1="-4.58919" x2="18.200451" y2="-2.029623" />
      <path d="M 18.200451,-4.58919 C 18.370864,-4.564469 18.533978,-4.701828 18.622314,-4.867489 C 18.714196,-5.036403 18.749868,-5.217079 18.759841,-5.408741" />
      <path d="M 18.200451,-2.029623 C 18.370864,-2.004902 18.533978,-2.142262 18.622314,-2.307922 C 18.714196,-2.476836 18.749868,-2.657512 18.759841,-2.849174" />
      <line x1="18.759841" y1="-5.408741" x2="18.759841" y2="-2.849174" />
      <path d="M 18.759841,-5.408741 C 18.941753,-5.830986 19.453792,-6.266225 19.928488,-6.549862" />
      <path d="M 18.759841,-2.849174 C 18.941753,-3.27142 19.453792,-3.706659 19.928488,-3.990296" />
      <line x1="19.928488" y1="-6.549862" x2="19.928488" y2="-3.990296" />
      <path d="M 19.928488,-6.549862 Q 20.281979,-6.448178 20.623602,-6.320009" />
      <path d="M 19.928488,-3.990296 Q 20.281979,-3.888611 20.623602,-3.760442" />
      <line x1="20.623602" y1="-6.320009" x2="20.623602" y2="-3.760442" />
      <path d="M 20.623602,-6.320009 C 20.690791,-6.07016 20.733805,-5.789179 20.733877,-5.515202" />
      <path d="M 20.623602,-3.760442 C 20.690791,-3.510594 20.733805,-3.229612 20.733877,-2.955635" />
      <path d="M 20.733877,-2.955635 C 20.733958,-2.695897 20.694582,-2.442761 20.59993,-2.240711" />
      <path d="M 20.59993,-2.240711 C 20.501271,-2.140262 20.4193,-2.033946 20.354019,-1.921763 C 20.289626,-1.808799 20.243337,-1.682674 20.243166,-1.564854" />
      <path d="M 20.243166,-1.564854 C 20.24234,-1.457277 20.285379,-1.360252 20.37525,-1.310481" />
      <line x1="20.37525" y1="-1.957607" x2="20.37525" y2="-1.310481" />
      <path d="M 20.733877,-3.655138 Q 20.826477,-3.595031 20.916117,-3.531818" />
      <path d="M 20.37525,-1.310481 Q 20.657125,-1.154867 20.916117,-0.972251" />
      <line x1="20.916117" y1="-3.531818" x2="20.916117" y2="-0.972251" />
      <path d="M 20.916117,-3.531818 C 21.049311,-3.437213 21.270521,-3.48611 21.443444,-3.591634 C 21.621332,-3.698452 21.757387,-3.839601 21.877581,-4.001301" />
      <path d="M 20.916117,-0.972251 C 21.049311,-0.877646 21.270521,-0.926543 21.443444,-1.032067 C 21.621332,-1.138886 21.757387,-1.280034 21.877581,-1.441734" />
      <line x1="21.877581" y1="-4.001301" x2="21.877581" y2="-1.441734" />
      <path d="M 21.877581,-4.001301 C 22.280888,-4.288842 22.977656,-4.44584 23.553845,-4.487586" />
      <path d="M 21.877581,-1.441734 C 22.280888,-1.729275 22.977656,-1.886273 23.553845,-1.928019" />
      <line x1="23.553845" y1="-4.487586" x2="23.553845" y2="-1.928019" />
      <path d="M 23.553845,-4.487586 Q 23.800792,-4.247694 24.022045,-3.989962" />
      <path d="M 23.553845,-1.928019 Q 23.800792,-1.688127 24.022045,-1.430396" />
      <line x1="24.022045" y1="-3.989962" x2="24.022045" y2="-1.430396" />
      <path d="M 24.022045,-1.430396 C 23.853685,-0.955192 23.528856,-0.402882 23.11699,-0.124438" />
      <path d="M 23.11699,-0.124438 C 22.932157,-0.065303 22.766548,0.006516 22.618438,0.10987 C 22.47325,0.210913 22.353003,0.350227 22.353363,0.482221" />
      <path d="M 22.353363,0.482221 Q 22.353235,0.536864 22.380974,0.584661" />
      <line x1="22.380974" y1="0.366981" x2="22.380974" y2="0.584661" />
      <path d="M 22.380974,0.584661 Q 22.53451,0.840497 22.652513,1.109889" />
      <line x1="22.652513" y1="0.086703" x2="22.652513" y2="1.109889" />
      <path d="M 22.652513,1.109889 C 22.712797,1.249029 22.932831,1.301697 23.144007,1.284584 C 23.360236,1.268482 23.560218,1.204682 23.758426,1.116271" />
      <line x1="23.758426" y1="-0.861161" x2="23.758426" y2="1.116271" />
      <path d="M 24.022045,-1.462213 C 24.498261,-1.464464 25.053369,-1.321687 25.493154,-1.144444" />
      <path d="M 23.758426,1.116271 C 24.275063,1.040481 24.969861,1.203792 25.493154,1.415123" />
      <line x1="25.493154" y1="-1.144444" x2="25.493154" y2="1.415123" />
      <path d="M 25.493154,-1.144444 Q 25.567388,-0.830623 25.608987,-0.512389" />
      <path d="M 25.493154,1.415123 Q 25.567388,1.728944 25.608987,2.047178" />
      <line x1="25.608987" y1="-0.512389" x2="25.608987" y2="2.047178" />
      <path d="M 25.608987,2.047178 C 25.186592,2.386403 24.583812,2.725197 24.065058,2.789433" />
      <path d="M 24.065058,2.789433 C 23.844816,2.757613 23.631688,2.749681 23.420159,2.79143 C 23.213077,2.830882 23.022523,2.939077 23.01492,3.087398" />
      <path d="M 23.01492,3.087398 Q 22.998977,3.374905 22.944372,3.65889" />
      <path d="M 22.944372,3.65889 L 22.941345,3.692435" />
      <path d="M 22.941345,3.692435 C 22.939937,3.833687 23.103808,3.96046 23.290964,4.030273 C 23.482051,4.102553 23.683544,4.1312 23.898406,4.139427" />
      <line x1="23.898406" y1="2.770191" x2="23.898406" y2="4.139427" />
      <path d="M 25.077489,2.410773 Q 25.156615,2.497251 25.226779,2.583771" />
      <path d="M 23.898406,4.139427 C 24.38994,4.295696 24.896599,4.735556 25.226779,5.143338" />
      <line x1="25.226779" y1="2.583771" x2="25.226779" y2="5.143338" />
      <path d="M 25.226779,5.143338 Q 25.108409,5.447 24.959208,5.740466" />
      <path d="M 24.959208,5.740466 C 24.395958,5.852817 23.67674,5.887316 23.190098,5.720131" />
      <path d="M 23.190098,5.720131 C 23.017884,5.597976 22.837926,5.499565 22.630437,5.444865 C 22.428136,5.390085 22.200137,5.401939 22.107223,5.527123" />
      <path d="M 22.107223,5.527123 Q 21.926074,5.769264 21.713491,5.991748" />
      <path d="M 21.713491,5.991748 Q 21.653991,6.056956 21.654454,6.146047" />
      <path d="M 21.654454,6.146047 C 21.65447,6.273692 21.743705,6.413864 21.856609,6.526741 C 21.971442,6.638921 22.10591,6.735901 22.260014,6.817681" />
      <line x1="22.260014" y1="5.431453" x2="22.260014" y2="6.817681" />
      <path d="M 22.800321,5.50126 Q 22.816508,5.601329 22.826095,5.698087" />
      <path d="M 22.260014,6.817681 C 22.594739,7.164136 22.777499,7.762686 22.826095,8.257654" />
      <line x1="22.826095" y1="5.698087" x2="22.826095" y2="8.257654" />
      <path d="M 22.826095,8.257654 Q 22.546838,8.46979 22.246815,8.659855" />
      <path d="M 22.246815,8.659855 C 21.693633,8.515228 21.050692,8.236188 20.726557,7.88238" />
      <path d="M 20.726557,7.88238 C 20.648515,7.702621 20.549947,7.540099 20.402094,7.403607 C 20.25878,7.269274 20.054428,7.18161 19.901099,7.250114" />
      <path d="M 19.901099,7.250114 Q 19.603282,7.382007 19.289684,7.483376" />
      <path d="M 19.289684,7.483376 C 19.148074,7.528702 19.080973,7.681378 19.083252,7.840278" />
      <path d="M 19.083252,7.840278 C 19.086024,8.047615 19.167891,8.244099 19.282255,8.433397" />
      <line x1="19.282255" y1="7.48596" x2="19.282255" y2="8.433397" />
      <path d="M 19.282255,8.433397 Q 19.304585,8.546161 19.30432,8.671062" />
      <path d="M 19.30432,8.671062 C 19.303825,9.077753 19.138817,9.549211 18.934363,9.923592" />
      <path d="M 18.934363,9.923592 Q 18.569046,9.987362 18.198592,10.023097" />
      <path d="M 18.198592,10.023097 C 17.803702,9.660244 17.409313,9.142433 17.334537,8.696805" />
      <line x1="17.334537" y1="8.15139" x2="17.334537" y2="8.696805" />
      <path d="M 17.334537,8.696805 Q 17.364756,8.548419 17.365418,8.405676" />
      <path d="M 17.365418,8.405676 C 17.365421,8.270447 17.342598,8.12908 17.280347,8.009226 C 17.21953,7.889983 17.113617,7.799741 16.987678,7.794698" />
      <path d="M 16.987678,7.794698 Q 16.652993,7.781002 16.322408,7.734094" />
      <path d="M 16.322408,7.734094 C 16.151994,7.709373 15.988881,7.846732 15.900545,8.012393 C 15.808663,8.181307 15.772991,8.361983 15.763017,8.553645" />
      <path d="M 15.763017,8.553645 C 15.581105,8.97589 15.069067,9.411129 14.59437,9.694766" />
      <path d="M 14.59437,9.694766 Q 14.24088,9.593082 13.899257,9.464913" />
      <path d="M 13.899257,9.464913 C 13.832067,9.215064 13.789054,8.934083 13.788982,8.660106" />
      <path d="M 13.788982,8.660106 C 13.7889,8.400368 13.828277,8.147231 13.922929,7.945182" />
      <line x1="13.922929" y1="6.884407" x2="13.922929" y2="7.945182" />
      <path d="M 13.922929,7.945182 C 14.021588,7.844733 14.103558,7.738417 14.16884,7.626234 C 14.233232,7.513269 14.279521,7.387144 14.279692,7.269325" />
      <path d="M 14.279692,7.269325 C 14.280519,7.161748 14.23748,7.064722 14.147608,7.014952" />
      <path d="M 14.147608,7.014952 Q 13.865734,6.859338 13.606742,6.676722" />
      <path d="M 13.606742,6.676722 C 13.473548,6.582117 13.252338,6.631014 13.079415,6.736538 C 12.901526,6.843356 12.765472,6.984505 12.645278,7.146205" />
      <path d="M 12.645278,7.146205 C 12.241971,7.433746 11.545203,7.590744 10.969014,7.63249" />
      <path d="M 10.969014,7.63249 Q 10.722067,7.392598 10.500813,7.134866" />
      <line x1="10.500813" y1="4.607117" x2="10.500813" y2="7.134866" />
      <path d="M 10.500813,7.134866 C 10.669173,6.659662 10.994002,6.107352 11.405868,5.828908" />
      <line x1="11.405868" y1="4.418364" x2="11.405868" y2="5.828908" />
      <path d="M 11.405868,5.828908 C 11.590701,5.769774 11.75631,5.697955 11.904421,5.5946 C 12.049609,5.493558 12.169856,5.354243 12.169496,5.222249" />
      <path d="M 12.169496,5.222249 Q 12.169624,5.167607 12.141884,5.11981" />
      <line x1="8.722762" y1="0.288923" x2="8.722762" y2="0.291265" />
      <path d="M 8.722762,0.291265 Q 8.741863,0.593165 8.741866,0.895527" />
      <path d="M 8.741866,0.895527 L 8.741772,0.937865" />
      <path d="M 8.741772,0.937865 C 8.752305,1.117949 9.146326,1.181313 9.327955,1.190515" />
      <line x1="9.327955" y1="0.59987" x2="9.327955" y2="1.190515" />
      <path d="M 9.327955,1.190515 C 9.94715,1.249412 10.732878,1.58609 11.334278,1.941462" />
      <line x1="11.334278" y1="1.719811" x2="11.334278" y2="1.941462" />
      <path d="M 11.334278,1.941462 Q 11.300758,2.30924 11.243741,2.674878" />
      <path d="M 11.243741,2.674878 C 10.568954,2.913994 9.718502,3.101623 9.098699,3.047651" />
      <path d="M 9.098699,3.047651 C 8.918863,3.023925 8.518135,3.01489 8.46387,3.189071" />
      <path d="M 8.46387,3.189071 Q 8.386277,3.50567 8.287418,3.817866" />
      <path d="M 8.287418,3.817866 L 8.283537,3.847962" />
      <path d="M 8.283537,3.847962 C 8.28488,4.011344 8.614558,4.145614 8.777506,4.192236" />
      <line x1="8.777506" y1="3.039556" x2="8.777506" y2="4.192236" />
      <path d="M 8.777506,4.192236 C 9.357858,4.386794 10.015376,4.886695 10.489213,5.363671" />
      <line x1="10.489213" y1="4.607154" x2="10.489213" y2="5.363671" />
      <path d="M 10.489213,5.363671 Q 10.346027,5.711465 10.18079,6.051967" />
      <path d="M 10.18079,6.051967 C 9.456953,6.132907 8.578949,6.125056 7.996526,5.93512" />
      <path d="M 7.996526,5.93512 C 7.829967,5.872218 7.445615,5.774395 7.340719,5.930576" />
      <path d="M 7.340719,5.930576 Q 7.170383,6.219136 6.980831,6.498713" />
      <path d="M 6.980831,6.498713 Q 6.962053,6.530239 6.962366,6.564723" />
      <path d="M 6.962366,6.564723 C 6.963286,6.716557 7.209088,6.894159 7.341426,6.969291" />
      <line x1="7.341426" y1="5.929515" x2="7.341426" y2="6.969291" />
      <path d="M 7.341426,6.969291 C 7.843384,7.286252 8.327882,7.915309 8.641866,8.481383" />
      <line x1="8.641866" y1="6.06575" x2="8.641866" y2="8.481383" />
      <path d="M 8.641866,8.481383 Q 8.398773,8.785491 8.136576,9.077652" />
      <path d="M 8.136576,9.077652 C 7.413017,8.9949 6.567295,8.792106 6.061944,8.479148" />
      <path d="M 6.061944,8.479148 C 5.920012,8.381358 5.57823,8.201413 5.429853,8.328951" />
      <path d="M 5.429853,8.328951 Q 5.17838,8.569806 4.911053,8.797713" />
      <path d="M 4.911053,8.797713 Q 4.864985,8.842962 4.866296,8.906245" />
      <path d="M 4.866296,8.906245 C 4.866806,9.051132 5.023331,9.240959 5.117581,9.332429" />
      <line x1="5.117581" y1="8.617598" x2="5.117581" y2="9.332429" />
      <path d="M 5.884268,8.376259 L 5.918132,8.522565" />
      <path d="M 5.117581,9.332429 C 5.506938,9.750193 5.785399,10.465537 5.918132,11.082132" />
      <line x1="5.918132" y1="8.522565" x2="5.918132" y2="11.082132" />
      <path d="M 5.918132,11.082132 Q 5.591697,11.321829 5.250409,11.54574" />
      <path d="M 5.250409,11.54574 C 4.576437,11.304934 3.820633,10.921017 3.426792,10.506365" />
      <path d="M 3.426792,10.506365 C 3.319159,10.380351 3.043238,10.130548 2.861491,10.22075" />
      <path d="M 2.861491,10.22075 Q 2.54602,10.397487 2.219136,10.558192" />
      <path d="M 2.219136,10.558192 C 2.155625,10.592811 2.13216,10.658049 2.132198,10.733191" />
      <path d="M 2.132198,10.733191 C 2.132377,10.866952 2.20509,11.030279 2.257522,11.120606" />
      <line x1="2.257522" y1="10.539246" x2="2.257522" y2="11.120606" />
      <path d="M 2.257522,11.120606 C 2.448127,11.492273 2.524906,12.02315 2.524664,12.526337" />
      <path d="M 2.524664,12.526337 Q 2.524394,12.763278 2.503628,12.98868" />
      <path d="M 2.503628,12.98868 Q 2.116098,13.147632 1.718977,13.288033" />
      <path d="M 1.718977,13.288033 C 1.140522,12.905585 0.526141,12.366707 0.27065,11.87862" />
      <path d="M 0.27065,11.87862 C 0.204652,11.732969 0.013396,11.43033 -0.189335,11.47705" />
      <path d="M -0.189335,11.47705 Q -0.547306,11.577625 -0.91147,11.660176" />
      <path d="M -0.91147,11.660176 C -1.035401,11.693613 -1.070874,11.840827 -1.07073,11.982181" />
      <path d="M -1.07073,11.982181 C -1.070716,12.068582 -1.057765,12.153249 -1.043842,12.211961" />
      <line x1="-1.043842" y1="11.796865" x2="-1.043842" y2="12.211961" />
      <path d="M -1.043842,12.211961 Q -1.017569,12.360291 -1.017898,12.528814" />
      <path d="M -1.017898,12.528814 C -1.018432,13.015404 -1.170414,13.58921 -1.368953,14.0711" />
      <path d="M -1.368953,14.0711 Q -1.791169,14.138474 -2.21706,14.185797" />
      <path d="M -2.21706,14.185797 C -2.660577,13.68777 -3.091665,13.030655 -3.191394,12.502395" />
      <path d="M -3.191394,12.502395 C -3.211261,12.347033 -3.304818,12.012184 -3.514717,12.012237" />
      <path d="M -3.514717,12.012237 Q -3.890792,12.029795 -4.26742,12.028567" />
      <path d="M -4.26742,12.028567 C -4.477055,12.037616 -4.550817,12.376095 -4.561528,12.53212" />
      <path d="M -4.561528,12.53212 C -4.630089,13.064032 -5.022015,13.739002 -5.435701,14.255626" />
      <path d="M -5.435701,14.255626 Q -5.86383,14.226831 -6.289466,14.177851" />
      <path d="M -6.289466,14.177851 C -6.535443,13.664987 -6.733673,13.038985 -6.734429,12.5296" />
      <path d="M -6.734429,12.5296 Q -6.734518,12.428344 -6.723409,12.335181" />
      <line x1="-6.723409" y1="12.000839" x2="-6.723409" y2="12.335181" />
      <path d="M -6.723409,12.335181 Q -6.709775,12.262188 -6.708492,12.159143" />
      <path d="M -6.708492,12.159143 C -6.708308,12.002779 -6.745927,11.821621 -6.888036,11.789839" />
      <path d="M -6.888036,11.789839 Q -7.256587,11.723184 -7.620011,11.63826" />
      <path d="M -7.620011,11.63826 C -7.825229,11.600391 -7.998458,11.910937 -8.055813,12.059264" />
      <path d="M -8.055813,12.059264 C -8.282298,12.557808 -8.86423,13.12264 -9.419474,13.529684" />
      <path d="M -9.419474,13.529684 Q -9.824339,13.406682 -10.220715,13.264737" />
      <path d="M -10.220715,13.264737 Q -10.275943,12.903405 -10.277372,12.519668" />
      <path d="M -10.277372,12.519668 C -10.277511,12.107958 -10.221603,11.696283 -10.084694,11.388373" />
      <line x1="-10.084694" y1="10.822706" x2="-10.084694" y2="11.388373" />
      <path d="M -10.084694,11.388373 C -10.040286,11.301095 -9.981767,11.148354 -9.981634,11.01905" />
      <path d="M -9.981634,11.01905 C -9.981585,10.934232 -10.007323,10.860047 -10.079405,10.825011" />
      <path d="M -10.079405,10.825011 Q -10.415316,10.678686 -10.74077,10.515854" />
      <path d="M -10.74077,10.515854 C -10.927586,10.433648 -11.188476,10.695097 -11.288567,10.825618" />
      <path d="M -11.288567,10.825618 C -11.65754,11.256819 -12.389822,11.673021 -13.048785,11.942745" />
      <path d="M -13.048785,11.942745 Q -13.402795,11.733919 -13.742898,11.508682" />
      <line x1="-13.742898" y1="8.949115" x2="-13.742898" y2="11.508682" />
      <path d="M -13.742898,8.949115 Q -13.726101,8.841116 -13.703973,8.730621" />
      <path d="M -13.742898,11.508682 C -13.646566,10.887117 -13.410495,10.160611 -13.046183,9.726496" />
      <line x1="-13.046183" y1="9.046298" x2="-13.046183" y2="9.726496" />
      <path d="M -13.046183,9.726496 C -12.959855,9.633654 -12.820349,9.445612 -12.819911,9.302091" />
      <path d="M -12.819911,9.302091 Q -12.818252,9.231097 -12.871339,9.183506" />
      <path d="M -12.871339,9.183506 Q -13.151717,8.967481 -13.417022,8.737838" />
      <path d="M -13.417022,8.737838 C -13.572705,8.616897 -13.903477,8.811433 -14.039482,8.915253" />
      <path d="M -14.039482,8.915253 C -14.525799,9.249725 -15.358526,9.488933 -16.076301,9.602956" />
      <path d="M -16.076301,9.602956 Q -16.355331,9.322536 -16.615984,9.029357" />
      <line x1="-16.615984" y1="6.592305" x2="-16.615984" y2="9.029357" />
      <path d="M -16.615984,9.029357 C -16.335664,8.45039 -15.888748,7.801126 -15.406054,7.462802" />
      <line x1="-15.406054" y1="6.514972" x2="-15.406054" y2="7.462802" />
      <path d="M -15.406054,7.462802 C -15.280576,7.383449 -15.051848,7.200884 -15.05101,7.050581" />
      <path d="M -15.05101,7.050581 Q -15.05058,7.011581 -15.073571,6.977188" />
      <path d="M -15.073571,6.977188 Q -15.27931,6.706187 -15.466385,6.425381" />
      <path d="M -15.466385,6.425381 C -15.580325,6.273948 -15.958438,6.388313 -16.121089,6.458356" />
      <path d="M -16.121089,6.458356 C -16.691608,6.673306 -17.568032,6.719219 -18.295702,6.66977" />
      <path d="M -18.295702,6.66977 Q -18.480737,6.336867 -18.644177,5.995726" />
      <line x1="-18.644177" y1="3.560404" x2="-18.644177" y2="5.995726" />
      <path d="M -18.644177,5.995726 C -18.198972,5.498812 -17.571667,4.971036 -17.003488,4.75156" />
      <line x1="-17.003488" y1="3.605411" x2="-17.003488" y2="4.75156" />
      <path d="M -17.003488,4.75156 C -16.845732,4.69866 -16.531436,4.553864 -16.530173,4.393301" />
      <path d="M -16.530173,4.393301 Q -16.53012,4.374907 -16.536023,4.356415" />
      <path d="M -16.536023,4.356415 Q -16.653101,4.048905 -16.749199,3.736074" />
      <path d="M -16.749199,3.736074 C -16.81363,3.564468 -17.213317,3.590868 -17.391529,3.622362" />
      <path d="M -17.391529,3.622362 C -18.00737,3.703142 -18.867763,3.55263 -19.555741,3.343079" />
      <path d="M -19.555741,3.343079 Q -19.634171,2.98038 -19.689259,2.614524" />
      <line x1="-19.689259" y1="0.054958" x2="-19.689259" y2="2.614524" />
      <path d="M -19.689259,0.054958 L -19.557245,-0.029528" />
      <path d="M -19.689259,2.614524 C -19.109509,2.233527 -18.344566,1.863206 -17.72962,1.777535" />
      <line x1="-17.72962" y1="0.602807" x2="-17.72962" y2="1.777535" />
      <path d="M -17.72962,1.777535 C -17.549147,1.7605 -17.160689,1.680462 -17.159025,1.50096" />
      <path d="M -17.159025,1.50096 L -17.159031,1.499789" />
      <path d="M -17.159031,1.499789 Q -17.178132,1.197888 -17.178134,0.895527" />
      <path d="M -17.178134,0.895527 L -17.178041,0.853189" />
      <path d="M -17.178041,0.853189 C -17.188574,0.673105 -17.582595,0.609741 -17.764224,0.600539" />
      <path d="M -17.764224,0.600539 C -18.383419,0.541642 -19.169147,0.204964 -19.770547,-0.150408" />
      <line x1="-19.770547" y1="-2.709975" x2="-19.770547" y2="-0.150408" />
      <path d="M -19.770547,-2.709975 Q -19.737027,-3.077753 -19.68001,-3.443391" />
      <path d="M -19.770547,-0.150408 Q -19.737027,-0.518186 -19.68001,-0.883824" />
      <line x1="-19.68001" y1="-3.443391" x2="-19.68001" y2="-0.883824" />
      <path d="M -19.68001,-3.443391 Q -19.32019,-3.571198 -18.925482,-3.667097" />
      <path d="M -19.68001,-0.883824 C -19.005223,-1.122941 -18.154771,-1.310569 -17.534968,-1.256597" />
      <line x1="-17.534968" y1="-2.534774" x2="-17.534968" y2="-1.256597" />
      <path d="M -17.534968,-1.256597 C -17.355132,-1.232871 -16.954404,-1.223836 -16.900139,-1.398017" />
      <line x1="-16.900139" y1="-2.269263" x2="-16.900139" y2="-1.398017" />
      <path d="M -16.900139,-1.398017 Q -16.822546,-1.714616 -16.723687,-2.026812" />
      <line x1="-16.723687" y1="-2.087412" x2="-16.723687" y2="-2.026812" />
      <path d="M -16.723687,-2.026812 L -16.719806,-2.056909" />
      <path d="M -16.719806,-2.056909 C -16.721149,-2.22029 -17.050827,-2.35456 -17.213775,-2.401182" />
      <path d="M -17.213775,-2.401182 C -17.794127,-2.59574 -18.451644,-3.095642 -18.925482,-3.572617" />
      <line x1="-18.925482" y1="-6.132184" x2="-18.925482" y2="-3.572617" />
      <path d="M -18.925482,-6.132184 Q -18.782296,-6.479977 -18.617059,-6.820479" />
      <path d="M -18.925482,-3.572617 Q -18.782296,-3.920411 -18.617059,-4.260913" />
      <line x1="-18.617059" y1="-6.820479" x2="-18.617059" y2="-4.260913" />
      <path d="M -18.617059,-6.820479 C -18.125631,-6.875129 -17.571621,-6.889295 -17.078135,-6.834263" />
      <path d="M -18.617059,-4.260913 C -17.893222,-4.341853 -17.015218,-4.334002 -16.432795,-4.144066" />
      <line x1="-16.432795" y1="-5.76388" x2="-16.432795" y2="-4.144066" />
      <path d="M -16.432795,-4.144066 C -16.266236,-4.081164 -15.881884,-3.983341 -15.776988,-4.139522" />
      <line x1="-15.776988" y1="-5.177835" x2="-15.776988" y2="-4.139522" />
      <path d="M -15.776988,-4.139522 Q -15.606652,-4.428082 -15.4171,-4.707659" />
      <line x1="-15.4171" y1="-4.849741" x2="-15.4171" y2="-4.707659" />
      <path d="M -15.4171,-4.707659 Q -15.398322,-4.739185 -15.398635,-4.773669" />
      <path d="M -15.398635,-4.773669 C -15.399554,-4.925503 -15.645357,-5.103105 -15.777695,-5.178237" />
      <path d="M -15.777695,-5.178237 C -16.279653,-5.495199 -16.764151,-6.124256 -17.078135,-6.690329" />
      <line x1="-17.078135" y1="-9.249896" x2="-17.078135" y2="-6.690329" />
      <path d="M -17.078135,-9.249896 Q -16.835042,-9.554004 -16.572845,-9.846165" />
      <path d="M -17.078135,-6.690329 Q -16.835042,-6.994437 -16.572845,-7.286598" />
      <line x1="-16.572845" y1="-9.846165" x2="-16.572845" y2="-7.286598" />
      <path d="M -16.572845,-9.846165 C -15.849286,-9.763413 -15.003564,-9.560619 -14.498213,-9.247661" />
      <path d="M -16.572845,-7.286598 C -15.849286,-7.203846 -15.003564,-7.001052 -14.498213,-6.688094" />
      <line x1="-14.498213" y1="-9.247661" x2="-14.498213" y2="-6.688094" />
      <path d="M -14.498213,-9.247661 Q -14.428725,-9.199059 -14.320537,-9.144771" />
      <path d="M -14.498213,-6.688094 C -14.356281,-6.590304 -14.014499,-6.41036 -13.866121,-6.537897" />
      <line x1="-13.866121" y1="-7.974245" x2="-13.866121" y2="-6.537897" />
      <path d="M -13.866121,-6.537897 Q -13.614649,-6.778752 -13.347322,-7.006659" />
      <line x1="-13.347322" y1="-7.270393" x2="-13.347322" y2="-7.006659" />
      <path d="M -13.347322,-7.006659 Q -13.301254,-7.051908 -13.302565,-7.115191" />
      <path d="M -13.302565,-7.115191 C -13.303075,-7.260079 -13.459599,-7.449905 -13.55385,-7.541375" />
      <path d="M -13.55385,-7.541375 C -13.943207,-7.95914 -14.221668,-8.674483 -14.354401,-9.291078" />
      <line x1="-14.354401" y1="-11.850644" x2="-14.354401" y2="-9.291078" />
      <path d="M -14.354401,-11.850644 Q -14.027966,-12.090342 -13.686678,-12.314253" />
      <path d="M -14.354401,-9.291078 Q -14.027966,-9.530775 -13.686678,-9.754686" />
      <line x1="-13.686678" y1="-12.314253" x2="-13.686678" y2="-9.754686" />
      <path d="M -13.686678,-12.314253 C -13.012706,-12.073447 -12.256901,-11.68953 -11.863061,-11.274878" />
      <path d="M -13.686678,-9.754686 C -13.012706,-9.51388 -12.256901,-9.129963 -11.863061,-8.715311" />
      <line x1="-11.863061" y1="-11.274878" x2="-11.863061" y2="-8.715311" />
      <path d="M -11.863061,-11.274878 C -11.755428,-11.148864 -11.479507,-10.89906 -11.29776,-10.989262" />
      <path d="M -11.863061,-8.715311 C -11.755428,-8.589297 -11.479507,-8.339494 -11.29776,-8.429696" />
      <line x1="-11.29776" y1="-10.989262" x2="-11.29776" y2="-8.429696" />
      <path d="M -11.29776,-10.989262 Q -11.130996,-11.082691 -10.960933,-11.171693" />
      <path d="M -11.29776,-8.429696 Q -10.982289,-8.606433 -10.655405,-8.767138" />
      <line x1="-10.655405" y1="-9.256651" x2="-10.655405" y2="-8.767138" />
      <path d="M -10.655405,-8.767138 C -10.591894,-8.801757 -10.568429,-8.866995 -10.568467,-8.942137" />
      <path d="M -10.568467,-8.942137 C -10.568646,-9.075898 -10.641359,-9.239225 -10.693791,-9.329552" />
      <path d="M -10.960933,-13.294849 Q -10.960663,-13.531791 -10.939897,-13.757193" />
      <path d="M -10.693791,-9.329552 C -10.884396,-9.701219 -10.961175,-10.232096 -10.960933,-10.735283" />
      <path d="M -10.960933,-10.735283 Q -10.960663,-10.972224 -10.939897,-11.197626" />
      <line x1="-10.939897" y1="-13.757193" x2="-10.939897" y2="-11.197626" />
      <path d="M -10.939897,-13.757193 Q -10.552367,-13.916145 -10.155246,-14.056546" />
      <path d="M -10.939897,-11.197626 Q -10.552367,-11.356578 -10.155246,-11.496979" />
      <line x1="-10.155246" y1="-14.056546" x2="-10.155246" y2="-11.496979" />
      <path d="M -10.155246,-14.056546 C -9.576791,-13.674098 -8.96241,-13.13522 -8.706919,-12.647133" />
      <path d="M -10.155246,-11.496979 C -9.576791,-11.114531 -8.96241,-10.575653 -8.706919,-10.087566" />
      <line x1="-8.706919" y1="-12.647133" x2="-8.706919" y2="-10.087566" />
      <path d="M -8.706919,-12.647133 C -8.640921,-12.501481 -8.449665,-12.198843 -8.246934,-12.245563" />
      <path d="M -8.706919,-10.087566 C -8.640921,-9.941915 -8.449665,-9.639276 -8.246934,-9.685996" />
      <line x1="-8.246934" y1="-12.245563" x2="-8.246934" y2="-9.685996" />
      <path d="M -8.246934,-12.245563 Q -7.888963,-12.346138 -7.524799,-12.428689" />
      <path d="M -8.246934,-9.685996 Q -7.888963,-9.786571 -7.524799,-9.869122" />
      <line x1="-7.524799" y1="-12.428689" x2="-7.524799" y2="-9.869122" />
      <path d="M -7.524799,-12.428689 Q -7.454439,-12.449517 -7.418371,-12.510417" />
      <path d="M -7.524799,-9.869122 C -7.400868,-9.902559 -7.365394,-10.049773 -7.365539,-10.191127" />
      <path d="M -7.365539,-10.191127 C -7.365553,-10.277528 -7.378504,-10.362195 -7.392427,-10.420907" />
      <path d="M -7.418371,-13.297326 C -7.417837,-13.783917 -7.265855,-14.357723 -7.067316,-14.839613" />
      <path d="M -7.392427,-10.420907 Q -7.4187,-10.569237 -7.418371,-10.73776" />
      <path d="M -7.418371,-10.73776 C -7.417837,-11.224351 -7.265855,-11.798156 -7.067316,-12.280046" />
      <line x1="-7.067316" y1="-14.839613" x2="-7.067316" y2="-12.280046" />
      <path d="M -7.067316,-14.839613 Q -6.6451,-14.906987 -6.219209,-14.95431" />
      <path d="M -7.067316,-12.280046 Q -6.6451,-12.34742 -6.219209,-12.394743" />
      <line x1="-6.219209" y1="-14.95431" x2="-6.219209" y2="-12.394743" />
      <path d="M -6.219209,-14.95431 C -5.775692,-14.456283 -5.344604,-13.799168 -5.244875,-13.270907" />
      <path d="M -6.219209,-12.394743 C -5.775692,-11.896716 -5.344604,-11.239602 -5.244875,-10.711341" />
      <line x1="-5.244875" y1="-13.270907" x2="-5.244875" y2="-10.711341" />
      <path d="M -5.244875,-13.270907 C -5.225008,-13.115545 -5.131451,-12.780696 -4.921552,-12.78075" />
      <path d="M -5.244875,-10.711341 C -5.225008,-10.555979 -5.131451,-10.22113 -4.921552,-10.221183" />
      <line x1="-4.921552" y1="-12.78075" x2="-4.921552" y2="-10.221183" />
      <path d="M -4.921552,-12.78075 Q -4.545476,-12.798308 -4.168849,-12.79708" />
      <path d="M -4.921552,-10.221183 Q -4.545476,-10.238742 -4.168849,-10.237513" />
      <line x1="-4.168849" y1="-12.79708" x2="-4.168849" y2="-10.237513" />
      <path d="M -4.168849,-12.79708 C -3.959214,-12.806128 -3.885452,-13.144607 -3.87474,-13.300633" />
      <path d="M -4.168849,-10.237513 C -3.959214,-10.246562 -3.885452,-10.585041 -3.87474,-10.741066" />
      <line x1="-3.87474" y1="-13.300633" x2="-3.87474" y2="-10.741066" />
      <path d="M -3.87474,-13.300633 C -3.80618,-13.832545 -3.414254,-14.507515 -3.000568,-15.024139" />
      <path d="M -3.87474,-10.741066 C -3.80618,-11.272978 -3.414254,-11.947948 -3.000568,-12.464572" />
      <line x1="-3.000568" y1="-15.024139" x2="-3.000568" y2="-12.464572" />
      <path d="M -3.000568,-15.024139 Q -2.572439,-14.995344 -2.146802,-14.946364" />
      <path d="M -3.000568,-12.464572 Q -2.572439,-12.435778 -2.146802,-12.386798" />
      <line x1="-2.146802" y1="-14.946364" x2="-2.146802" y2="-12.386798" />
      <path d="M -2.146802,-14.946364 C -1.900826,-14.4335 -1.702596,-13.807498 -1.70184,-13.298113" />
      <path d="M -2.146802,-12.386798 C -1.900826,-11.873933 -1.702596,-11.247932 -1.70184,-10.738546" />
      <path d="M -1.70184,-10.738546 Q -1.701751,-10.63729 -1.71286,-10.544127" />
      <path d="M -1.70184,-12.726325 C -1.676497,-12.643329 -1.62916,-12.576333 -1.548233,-12.558352" />
      <path d="M -1.71286,-10.544127 Q -1.726494,-10.471134 -1.727777,-10.368089" />
      <path d="M -1.727777,-10.368089 C -1.727961,-10.211725 -1.690342,-10.030567 -1.548233,-9.998785" />
      <line x1="-1.548233" y1="-12.558352" x2="-1.548233" y2="-9.998785" />
      <path d="M -1.548233,-12.558352 Q -1.179682,-12.491697 -0.816257,-12.406773" />
      <path d="M -1.548233,-9.998785 Q -1.179682,-9.93213 -0.816257,-9.847206" />
      <line x1="-0.816257" y1="-12.406773" x2="-0.816257" y2="-9.847206" />
      <path d="M -0.816257,-12.406773 C -0.61104,-12.368904 -0.437811,-12.67945 -0.380456,-12.827777" />
      <path d="M -0.816257,-9.847206 C -0.61104,-9.809337 -0.437811,-10.119883 -0.380456,-10.26821" />
      <line x1="-0.380456" y1="-12.827777" x2="-0.380456" y2="-10.26821" />
      <path d="M -0.380456,-12.827777 C -0.153971,-13.326321 0.427961,-13.891153 0.983205,-14.298197" />
      <path d="M -0.380456,-10.26821 C -0.153971,-10.766754 0.427961,-11.331586 0.983205,-11.73863" />
      <line x1="0.983205" y1="-14.298197" x2="0.983205" y2="-11.73863" />
      <path d="M 0.983205,-14.298197 Q 1.38807,-14.175195 1.784446,-14.03325" />
      <path d="M 0.983205,-11.73863 Q 1.38807,-11.615628 1.784446,-11.473683" />
      <line x1="1.784446" y1="-14.03325" x2="1.784446" y2="-11.473683" />
      <path d="M 1.784446,-14.03325 Q 1.839674,-13.671918 1.841103,-13.28818" />
      <path d="M 1.784446,-11.473683 Q 1.839674,-11.112351 1.841103,-10.728614" />
      <path d="M 1.841103,-10.728614 C 1.841242,-10.316904 1.785334,-9.905229 1.648425,-9.597319" />
      <path d="M 1.648425,-9.597319 C 1.604017,-9.510041 1.545498,-9.3573 1.545366,-9.227996" />
      <path d="M 1.545366,-9.227996 C 1.545316,-9.143179 1.571054,-9.068993 1.643136,-9.033957" />
      <line x1="1.643136" y1="-9.586755" x2="1.643136" y2="-9.033957" />
      <path d="M 1.841103,-11.505442 Q 2.075455,-11.398965 2.304501,-11.284366" />
      <path d="M 1.643136,-9.033957 Q 1.979047,-8.887632 2.304501,-8.7248" />
      <line x1="2.304501" y1="-11.284366" x2="2.304501" y2="-8.7248" />
      <path d="M 2.304501,-11.284366 C 2.491317,-11.20216 2.752207,-11.46361 2.852298,-11.594131" />
      <path d="M 2.304501,-8.7248 C 2.491317,-8.642594 2.752207,-8.904043 2.852298,-9.034564" />
      <line x1="2.852298" y1="-11.594131" x2="2.852298" y2="-9.034564" />
      <path d="M 2.852298,-11.594131 C 3.221271,-12.025332 3.953553,-12.441534 4.612516,-12.711257" />
      <path d="M 2.852298,-9.034564 C 3.221271,-9.465765 3.953553,-9.881967 4.612516,-10.151691" />
      <line x1="4.612516" y1="-12.711257" x2="4.612516" y2="-10.151691" />
      <path d="M 4.612516,-12.711257 Q 4.966526,-12.502431 5.306629,-12.277195" />
      <path d="M 4.612516,-10.151691 Q 4.966526,-9.942865 5.306629,-9.717628" />
      <line x1="5.306629" y1="-12.277195" x2="5.306629" y2="-9.717628" />
      <path d="M 5.306629,-9.717628 C 5.210298,-9.096064 4.974226,-8.369557 4.609914,-7.935442" />
      <path d="M 4.609914,-7.935442 C 4.523586,-7.8426 4.38408,-7.654558 4.383642,-7.511037" />
      <path d="M 4.383642,-7.511037 Q 4.381983,-7.440043 4.43507,-7.392452" />
      <line x1="4.43507" y1="-7.688709" x2="4.43507" y2="-7.392452" />
      <path d="M 4.43507,-7.392452 Q 4.715448,-7.176427 4.980753,-6.946784" />
      <line x1="4.980753" y1="-8.561937" x2="4.980753" y2="-6.946784" />
      <path d="M 5.267704,-9.499134 C 5.397834,-9.544103 5.528207,-9.626749 5.603213,-9.683765" />
      <path d="M 4.980753,-6.946784 C 5.136436,-6.825843 5.467208,-7.020379 5.603213,-7.124199" />
      <line x1="5.603213" y1="-9.683765" x2="5.603213" y2="-7.124199" />
      <path d="M 5.603213,-9.683765 C 6.08953,-10.018238 6.922257,-10.257446 7.640032,-10.371469" />
      <path d="M 5.603213,-7.124199 C 6.08953,-7.458671 6.922257,-7.697879 7.640032,-7.811902" />
      <line x1="7.640032" y1="-10.371469" x2="7.640032" y2="-7.811902" />
      <path d="M 7.640032,-10.371469 Q 7.919062,-10.091049 8.179715,-9.79787" />
      <path d="M 7.640032,-7.811902 Q 7.919062,-7.531483 8.179715,-7.238304" />
      <line x1="8.179715" y1="-9.79787" x2="8.179715" y2="-7.238304" />
      <path d="M 8.179715,-7.238304 C 7.899395,-6.659336 7.452479,-6.010072 6.969785,-5.671748" />
      <path d="M 6.969785,-5.671748 C 6.844307,-5.592395 6.615579,-5.40983 6.614741,-5.259527" />
      <path d="M 6.614741,-5.259527 Q 6.614311,-5.220527 6.637302,-5.186134" />
      <line x1="6.637302" y1="-5.347246" x2="6.637302" y2="-5.186134" />
      <path d="M 6.637302,-5.186134 Q 6.843041,-4.915133 7.030117,-4.634327" />
      <line x1="7.030117" y1="-5.715644" x2="7.030117" y2="-4.634327" />
      <path d="M 7.030117,-4.634327 C 7.144056,-4.482894 7.522169,-4.597259 7.68482,-4.667302" />
      <line x1="7.68482" y1="-6.411109" x2="7.68482" y2="-4.667302" />
      <path d="M 8.179715,-7.360817 C 8.700849,-7.459333 9.317238,-7.474818 9.859433,-7.438283" />
      <path d="M 7.68482,-4.667302 C 8.255339,-4.882252 9.131763,-4.928165 9.859433,-4.878716" />
      <line x1="9.859433" y1="-7.438283" x2="9.859433" y2="-4.878716" />
      <path d="M 9.859433,-7.438283 Q 10.044468,-7.10538 10.207908,-6.764239" />
      <path d="M 9.859433,-4.878716 Q 10.044468,-4.545814 10.207908,-4.204672" />
      <line x1="10.207908" y1="-6.764239" x2="10.207908" y2="-4.204672" />
      <path d="M 10.207908,-4.204672 C 9.762703,-3.707758 9.135398,-3.179982 8.567219,-2.960506" />
      <path d="M 8.567219,-2.960506 C 8.409463,-2.907606 8.095167,-2.76281 8.093904,-2.602248" />
      <path d="M 8.093904,-2.602248 Q 8.093851,-2.583853 8.099754,-2.565361" />
      <line x1="8.099754" y1="-2.64023" x2="8.099754" y2="-2.565361" />
      <path d="M 8.099754,-2.565361 Q 8.216832,-2.257851 8.31293,-1.94502" />
      <line x1="8.31293" y1="-2.846586" x2="8.31293" y2="-1.94502" />
      <path d="M 8.31293,-1.94502 C 8.377361,-1.773414 8.777048,-1.799814 8.95526,-1.831308" />
      <line x1="8.95526" y1="-3.150511" x2="8.95526" y2="-1.831308" />
      <path d="M 10.207908,-4.328917 C 10.521411,-4.274641 10.833042,-4.198648 11.119472,-4.111592" />
      <path d="M 8.95526,-1.831308 C 9.571101,-1.912088 10.431495,-1.761576 11.119472,-1.552025" />
      <line x1="11.119472" y1="-4.111592" x2="11.119472" y2="-1.552025" />
      <path d="M 11.119472,-4.111592 Q 11.197902,-3.748893 11.25299,-3.383037" />
      <path d="M 11.119472,-1.552025 Q 11.197902,-1.189326 11.25299,-0.82347" />
      <line x1="11.25299" y1="-3.383037" x2="11.25299" y2="-0.82347" />
      <path d="M 11.25299,-0.82347 C 10.67324,-0.442473 9.908297,-0.072152 9.293352,0.013519" />
      <path d="M 9.293352,0.013519 C 9.112878,0.030554 8.72442,0.110592 8.722756,0.290094" />
      <path d="M 8.722756,0.290094 L 8.722762,0.291265" />
      <path d="M 15.218539,-5.526158 L 15.218539,-2.966592" />
      <path d="M 20.733877,-5.515202 L 20.733877,-2.955635" />
      <path d="M 19.30432,7.478627 L 19.30432,8.671062" />
      <path d="M 13.788982,6.800042 L 13.788982,8.660106" />
      <path d="M 8.741866,0.2244 L 8.741866,0.895527" />
      <path d="M 2.524664,10.40318 L 2.524664,12.526337" />
      <path d="M -1.017898,11.741904 L -1.017898,12.528814" />
      <path d="M -6.734429,11.957812 L -6.734429,12.5296" />
      <path d="M -10.277372,10.73693 L -10.277372,12.519668" />
      <path d="M -17.178134,0.851517 L -17.178134,0.895527" />
      <path d="M -10.960933,-13.294849 L -10.960933,-10.735283" />
      <path d="M -7.418371,-13.297326 L -7.418371,-10.73776" />
      <path d="M -1.70184,-13.298113 L -1.70184,-10.738546" />
      <path d="M 1.841103,-13.28818 L 1.841103,-10.728614" />
    </g>
  </g>
</svg>