<?xml version='1.0' encoding='utf-8'?>
<svg width="100.09mm" height="87.655214mm" viewBox="-15.648542 -10.749586 28.0252 24.54346" version="1.1" xmlns="http://www.w3.org/2000/svg">
  <g transform="scale(1,-1)" stroke-linecap="round">
    <g fill="none" stroke="rgb(0,0,0)" stroke-width="0.025199999999999997" id="Visible">
      <path d="M 6.627207,4.513917 Q 6.491761,4.723234 6.328943,4.917692" />
      <path d="M 6.430449,4.791584 Q 6.474132,4.836321 6.524219,4.875854" />
      <path d="M 6.328943,4.917692 Q 6.288623,4.967779 6.288892,5.032097" />
      <path d="M 6.288892,5.032097 C 6.288831,5.140143 6.372321,5.257886 6.475171,5.349393 C 6.579909,5.440261 6.699939,5.516414 6.835259,5.577852" />
      <line x1="6.835259" y1="5.50072" x2="6.835259" y2="5.577852" />
      <path d="M 6.835259,5.577852 C 7.136088,5.850514 7.325321,6.340127 7.396376,6.746681" />
      <line x1="7.396376" y1="6.60567" x2="7.396376" y2="6.746681" />
      <path d="M 7.396376,6.746681 Q 7.177463,6.935633 6.939896,7.107229" />
      <path d="M 6.939896,7.107229 C 6.473044,7.013292 5.919286,6.811597 5.626875,6.532286" />
      <path d="M 5.626875,6.532286 C 5.55161,6.388546 5.460457,6.258608 5.328957,6.151521 C 5.201472,6.046034 5.024662,5.981329 4.900754,6.045738" />
      <path d="M 4.900754,6.045738 Q 4.661371,6.168956 4.406948,6.267572" />
      <path d="M 4.406948,6.267572 C 4.303768,6.307276 4.254759,6.417107 4.256188,6.534539" />
      <path d="M 4.256188,6.534539 Q 4.259669,6.672757 4.317492,6.805307 Q 4.372694,6.934346 4.460392,7.05631" />
      <line x1="4.460392" y1="7.048801" x2="4.460392" y2="7.05631" />
      <path d="M 4.460392,7.05631 Q 4.498021,7.193882 4.49737,7.353362" />
      <path d="M 4.49737,7.353362 C 4.497067,7.669061 4.396371,8.021098 4.264613,8.309058" />
      <path d="M 4.264613,8.309058 Q 3.964822,8.378863 3.658999,8.42564" />
      <path d="M 3.658999,8.42564 C 3.309482,8.144181 2.947553,7.732149 2.857226,7.364922" />
      <line x1="2.857226" y1="7.05493" x2="2.857226" y2="7.364922" />
      <path d="M 2.857226,7.364922 Q 2.867489,7.282108 2.867625,7.202821" />
      <path d="M 2.867625,7.202821 C 2.867527,7.078187 2.847536,6.947726 2.789403,6.833075 C 2.732951,6.719419 2.630599,6.630243 2.512167,6.632321" />
      <path d="M 2.512167,6.632321 Q 2.232987,6.636423 1.955133,6.612774" />
      <path d="M 1.955133,6.612774 C 1.817391,6.600522 1.693526,6.713154 1.629301,6.847621 C 1.562505,6.984345 1.54121,7.130795 1.540857,7.278924" />
      <path d="M 1.540857,7.278924 L 1.541385,7.318749" />
      <line x1="1.541385" y1="7.240251" x2="1.541385" y2="7.318749" />
      <path d="M 1.541385,7.318749 C 1.41635,7.678419 1.016349,8.063715 0.641168,8.319744" />
      <path d="M 0.641168,8.319744 Q 0.340828,8.251696 0.048695,8.161121" />
      <path d="M -0.099338,6.833375 Q -0.101148,6.585846 -0.026997,6.383969" />
      <path d="M 0.048695,8.161121 C -0.038412,7.912575 -0.09919,7.622011 -0.099338,7.348253" />
      <path d="M -0.099338,7.348253 Q -0.101148,7.100724 -0.026997,6.898847" />
      <line x1="-0.026997" y1="6.383969" x2="-0.026997" y2="6.898847" />
      <path d="M -0.026997,6.383969 Q 0.073104,6.267355 0.140791,6.141103" />
      <path d="M -0.026997,6.898847 C 0.044307,6.815983 0.103231,6.729205 0.149774,6.638513 C 0.195675,6.547136 0.228209,6.446343 0.228349,6.350686" />
      <path d="M 0.228349,6.350686 C 0.229313,6.249704 0.188013,6.157577 0.101464,6.116492" />
      <path d="M 0.101464,6.116492 Q -0.142705,6.00038 -0.369541,5.860802" />
      <path d="M -0.369541,5.860802 C -0.486894,5.787928 -0.669281,5.840028 -0.806397,5.93623 C -0.947666,6.033746 -1.050902,6.156863 -1.139618,6.294848" />
      <path d="M -1.139618,6.294848 C -1.457679,6.552737 -2.028814,6.714961 -2.50306,6.775873" />
      <path d="M -2.50306,6.775873 Q -2.723473,6.588207 -2.92364,6.384549" />
      <line x1="-2.92364" y1="5.869672" x2="-2.92364" y2="6.384549" />
      <path d="M -2.92364,5.869672 C -2.814063,5.469456 -2.578785,4.99474 -2.252968,4.744066" />
      <path d="M -2.92364,6.384549 C -2.814063,5.984334 -2.578785,5.509617 -2.252968,5.258944" />
      <line x1="-2.252968" y1="4.744066" x2="-2.252968" y2="5.258944" />
      <path d="M -2.252968,4.744066 C -2.078525,4.676917 -1.919934,4.594397 -1.793355,4.474125" />
      <path d="M -2.252968,5.258944 C -2.107949,5.205767 -1.977718,5.135699 -1.862275,5.048737 C -1.748949,4.961087 -1.65529,4.843659 -1.655475,4.734249" />
      <path d="M -1.655475,4.734249 Q -1.655312,4.680944 -1.685408,4.636467" />
      <path d="M -1.685408,4.636467 Q -1.829142,4.431252 -1.944179,4.213145" />
      <path d="M -1.944179,4.213145 C -2.003305,4.099734 -2.191645,4.066677 -2.366501,4.091218 C -2.545719,4.115117 -2.706932,4.177489 -2.864243,4.258961" />
      <path d="M -2.864243,4.258961 C -3.290107,4.345968 -3.879341,4.241651 -4.325577,4.091127" />
      <path d="M -4.325577,4.091127 Q -4.407004,3.834127 -4.46157,3.571956" />
      <line x1="-4.46157" y1="3.057078" x2="-4.46157" y2="3.571956" />
      <path d="M -4.46157,3.057078 C -4.133248,2.75745 -3.652611,2.447181 -3.22424,2.369747" />
      <path d="M -4.46157,3.571956 C -4.133248,3.272328 -3.652611,2.962059 -3.22424,2.884624" />
      <line x1="-3.22424" y1="2.369747" x2="-3.22424" y2="2.884624" />
      <path d="M -3.22424,2.369747 C -3.04534,2.385406 -2.872957,2.383096 -2.702284,2.341917 C -2.535285,2.302613 -2.380499,2.21056 -2.370368,2.0904" />
      <path d="M -3.22424,2.884624 C -3.04177,2.900585 -2.86535,2.897919 -2.691721,2.854115 C -2.521723,2.812461 -2.367822,2.714206 -2.369651,2.590375" />
      <path d="M -2.369651,2.590375 L -2.369659,2.588818" />
      <path d="M -2.369659,2.588818 L -2.370368,2.518064" />
      <path d="M -2.370368,2.518064 Q -2.370358,2.314136 -2.346858,2.111293" />
      <line x1="-2.346858" y1="2.07864" x2="-2.346858" y2="2.111293" />
      <path d="M -2.346858,2.111293 L -2.345996,2.094973" />
      <path d="M -2.345996,2.094973 C -2.344529,1.974478 -2.490011,1.871834 -2.65273,1.820938 C -2.81893,1.767914 -2.990552,1.753528 -3.170379,1.756602" />
      <path d="M -3.170379,1.756602 C -3.589935,1.649414 -4.039383,1.306508 -4.338041,0.984879" />
      <line x1="-4.338041" y1="0.470001" x2="-4.338041" y2="0.984879" />
      <path d="M -4.338041,0.470001 Q -4.258664,0.21253 -4.153008,-0.037905" />
      <path d="M -4.338041,0.984879 Q -4.258664,0.727408 -4.153008,0.476973" />
      <line x1="-4.153008" y1="-0.037905" x2="-4.153008" y2="0.476973" />
      <path d="M -4.153008,-0.037905 C -3.693914,-0.156661 -3.096706,-0.219346 -2.680562,-0.102792" />
      <path d="M -4.153008,0.476973 C -3.693914,0.358216 -3.096706,0.295532 -2.680562,0.412085" />
      <line x1="-2.680562" y1="-0.102792" x2="-2.680562" y2="0.412085" />
      <path d="M -2.680562,-0.102792 C -2.531545,-0.010571 -2.376817,0.062887 -2.200476,0.099263 C -2.028545,0.135973 -1.837684,0.116222 -1.767943,0.007332" />
      <path d="M -2.680562,0.412085 C -2.531545,0.504306 -2.376817,0.577765 -2.200476,0.614141 C -2.028545,0.650851 -1.837684,0.6311 -1.767943,0.52221" />
      <line x1="-1.767943" y1="0.007332" x2="-1.767943" y2="0.52221" />
      <path d="M -1.767943,0.007332 Q -1.675996,-0.13478 -1.571186,-0.270335" />
      <path d="M -1.767943,0.52221 Q -1.632498,0.312893 -1.46968,0.118435" />
      <line x1="-1.46968" y1="-0.135934" x2="-1.46968" y2="0.118435" />
      <path d="M -1.46968,0.118435 Q -1.42936,0.068349 -1.429629,0.00403" />
      <path d="M -1.429629,0.00403 C -1.429568,-0.104016 -1.513058,-0.221759 -1.615908,-0.313266 C -1.720646,-0.404134 -1.840676,-0.480287 -1.975996,-0.541724" />
      <path d="M -1.975996,-0.541724 C -2.276825,-0.814387 -2.466058,-1.304 -2.537113,-1.710554" />
      <line x1="-2.537113" y1="-2.225431" x2="-2.537113" y2="-1.710554" />
      <path d="M -2.537113,-2.225431 Q -2.3182,-2.414384 -2.080633,-2.585979" />
      <path d="M -2.537113,-1.710554 Q -2.3182,-1.899506 -2.080633,-2.071101" />
      <line x1="-2.080633" y1="-2.585979" x2="-2.080633" y2="-2.071101" />
      <path d="M -2.080633,-2.585979 C -1.613781,-2.492043 -1.060023,-2.290347 -0.767612,-2.011036" />
      <path d="M -2.080633,-2.071101 C -1.613781,-1.977165 -1.060023,-1.775469 -0.767612,-1.496159" />
      <line x1="-0.767612" y1="-2.011036" x2="-0.767612" y2="-1.496159" />
      <path d="M -0.767612,-2.011036 C -0.692347,-1.867297 -0.601194,-1.737359 -0.469694,-1.630271 C -0.342209,-1.524784 -0.165399,-1.46008 -0.041491,-1.524488" />
      <path d="M -0.767612,-1.496159 C -0.692347,-1.352419 -0.601194,-1.222481 -0.469694,-1.115394 C -0.342209,-1.009907 -0.165399,-0.945202 -0.041491,-1.00961" />
      <line x1="-0.041491" y1="-1.524488" x2="-0.041491" y2="-1.00961" />
      <path d="M -0.041491,-1.524488 Q 0.197892,-1.647706 0.452315,-1.746323" />
      <path d="M -0.041491,-1.00961 Q 0.197892,-1.132828 0.452315,-1.231445" />
      <line x1="0.452315" y1="-1.746323" x2="0.452315" y2="-1.231445" />
      <path d="M 0.452315,-1.746323 Q 0.4972,-1.764308 0.529248,-1.797818" />
      <path d="M 0.452315,-1.231445 C 0.555496,-1.271149 0.604504,-1.38098 0.603076,-1.498412" />
      <path d="M 0.603076,-1.498412 Q 0.599594,-1.63663 0.541771,-1.76918 Q 0.486569,-1.898219 0.398871,-2.020183" />
      <path d="M 0.361893,-2.832113 C 0.362196,-3.147812 0.462892,-3.499849 0.59465,-3.787809" />
      <path d="M 0.398871,-2.020183 Q 0.361242,-2.157755 0.361893,-2.317235" />
      <path d="M 0.361893,-2.317235 C 0.362196,-2.632934 0.462892,-2.984971 0.59465,-3.272931" />
      <line x1="0.59465" y1="-3.787809" x2="0.59465" y2="-3.272931" />
      <path d="M 0.59465,-3.787809 Q 0.894441,-3.857613 1.200264,-3.90439" />
      <path d="M 0.59465,-3.272931 Q 0.894441,-3.342736 1.200264,-3.389513" />
      <line x1="1.200264" y1="-3.90439" x2="1.200264" y2="-3.389513" />
      <path d="M 1.200264,-3.90439 C 1.549781,-3.622932 1.91171,-3.2109 2.002037,-2.843673" />
      <path d="M 1.200264,-3.389513 C 1.549781,-3.108054 1.91171,-2.696022 2.002037,-2.328795" />
      <line x1="2.002037" y1="-2.843673" x2="2.002037" y2="-2.328795" />
      <path d="M 2.002037,-2.533681 C 2.016773,-2.433352 2.049538,-2.330603 2.108339,-2.248392 C 2.166204,-2.166334 2.252518,-2.109676 2.347096,-2.111071" />
      <path d="M 2.002037,-2.328795 Q 1.991774,-2.245981 1.991638,-2.166694" />
      <path d="M 1.991638,-2.166694 C 1.991737,-2.04206 2.011727,-1.911599 2.06986,-1.796948 C 2.126312,-1.683292 2.228664,-1.594116 2.347096,-1.596194" />
      <line x1="2.347096" y1="-2.111071" x2="2.347096" y2="-1.596194" />
      <path d="M 2.347096,-2.111071 Q 2.626276,-2.115174 2.90413,-2.091525" />
      <path d="M 2.347096,-1.596194 Q 2.626276,-1.600296 2.90413,-1.576647" />
      <line x1="2.90413" y1="-2.091525" x2="2.90413" y2="-1.576647" />
      <path d="M 2.90413,-2.091525 C 3.035606,-2.079845 3.15556,-2.182346 3.221048,-2.309112 C 3.288852,-2.437602 3.313746,-2.579085 3.317878,-2.719001" />
      <path d="M 2.90413,-1.576647 C 3.041872,-1.564395 3.165737,-1.677027 3.229962,-1.811494 C 3.296758,-1.948218 3.318053,-2.094668 3.318406,-2.242797" />
      <path d="M 3.318406,-2.242797 L 3.317878,-2.282622" />
      <line x1="3.317878" y1="-2.7975" x2="3.317878" y2="-2.282622" />
      <path d="M 3.317878,-2.7975 C 3.442913,-3.157169 3.842914,-3.542465 4.218095,-3.798494" />
      <path d="M 3.317878,-2.282622 C 3.442913,-2.642292 3.842914,-3.027588 4.218095,-3.283617" />
      <line x1="4.218095" y1="-3.798494" x2="4.218095" y2="-3.283617" />
      <path d="M 4.218095,-3.798494 Q 4.518435,-3.730447 4.810568,-3.639872" />
      <path d="M 4.218095,-3.283617 Q 4.518435,-3.215569 4.810568,-3.124994" />
      <line x1="4.810568" y1="-3.639872" x2="4.810568" y2="-3.124994" />
      <path d="M 4.810568,-3.639872 C 4.897675,-3.391325 4.958453,-3.100761 4.958601,-2.827003" />
      <path d="M 4.810568,-3.124994 C 4.897675,-2.876447 4.958453,-2.585884 4.958601,-2.312126" />
      <path d="M 4.958601,-2.312126 Q 4.960411,-2.064597 4.88626,-1.86272" />
      <path d="M 4.718473,-1.619853 Q 4.736437,-1.605624 4.757799,-1.595243" />
      <path d="M 4.88626,-1.86272 C 4.814956,-1.779856 4.756032,-1.693078 4.709489,-1.602386 C 4.663588,-1.511009 4.631054,-1.410216 4.630914,-1.314559" />
      <path d="M 4.630914,-1.314559 C 4.62995,-1.213577 4.67125,-1.12145 4.757799,-1.080365" />
      <line x1="4.757799" y1="-1.595243" x2="4.757799" y2="-1.080365" />
      <path d="M 4.757799,-1.595243 Q 5.001968,-1.47913 5.228804,-1.339552" />
      <path d="M 4.757799,-1.080365 Q 5.001968,-0.964253 5.228804,-0.824675" />
      <line x1="5.228804" y1="-1.339552" x2="5.228804" y2="-0.824675" />
      <path d="M 5.228804,-1.339552 C 5.346157,-1.266678 5.528544,-1.318778 5.66566,-1.414981 C 5.806929,-1.512497 5.910165,-1.635614 5.998881,-1.773599" />
      <path d="M 5.228804,-0.824675 C 5.346157,-0.751801 5.528544,-0.803901 5.66566,-0.900103 C 5.806929,-0.997619 5.910165,-1.120736 5.998881,-1.258721" />
      <line x1="5.998881" y1="-1.773599" x2="5.998881" y2="-1.258721" />
      <path d="M 5.998881,-1.773599 C 6.316943,-2.031488 6.888077,-2.193711 7.362323,-2.254624" />
      <path d="M 5.998881,-1.258721 C 6.316943,-1.51661 6.888077,-1.678833 7.362323,-1.739746" />
      <line x1="7.362323" y1="-2.254624" x2="7.362323" y2="-1.739746" />
      <path d="M 7.362323,-2.254624 Q 7.582736,-2.066958 7.782903,-1.8633" />
      <path d="M 7.362323,-1.739746 Q 7.582736,-1.55208 7.782903,-1.348422" />
      <line x1="7.782903" y1="-1.8633" x2="7.782903" y2="-1.348422" />
      <path d="M 7.782903,-1.348422 C 7.673326,-0.948207 7.438048,-0.47349 7.112231,-0.222817" />
      <path d="M 7.112231,-0.222817 C 6.967212,-0.16964 6.836981,-0.099571 6.721538,-0.01261 C 6.608213,0.07504 6.514553,0.192469 6.514738,0.301878" />
      <path d="M 6.514738,0.301878 Q 6.514575,0.355183 6.544671,0.39966" />
      <line x1="6.544671" y1="0.187907" x2="6.544671" y2="0.39966" />
      <path d="M 6.652618,0.047124 Q 6.733449,0.175378 6.803442,0.308104" />
      <path d="M 6.544671,0.39966 Q 6.688405,0.604875 6.803442,0.822982" />
      <line x1="6.803442" y1="0.308104" x2="6.803442" y2="0.822982" />
      <path d="M 6.803442,0.308104 C 6.862568,0.421516 7.050908,0.454573 7.225764,0.430031 C 7.404982,0.406133 7.566196,0.34376 7.723506,0.262288" />
      <path d="M 6.803442,0.822982 C 6.862568,0.936393 7.050908,0.96945 7.225764,0.944909 C 7.404982,0.92101 7.566196,0.858638 7.723506,0.777166" />
      <line x1="7.723506" y1="0.262288" x2="7.723506" y2="0.777166" />
      <path d="M 7.723506,0.262288 C 8.132043,0.178657 8.692806,0.271752 9.130687,0.412355" />
      <path d="M 7.723506,0.777166 C 8.14937,0.690159 8.738604,0.794476 9.18484,0.945001" />
      <line x1="9.18484" y1="0.802405" x2="9.18484" y2="0.945001" />
      <path d="M 9.300296,0.854976 L 9.320833,0.949294" />
      <path d="M 9.18484,0.945001 Q 9.266267,1.202 9.320833,1.464171" />
      <line x1="9.320833" y1="0.949294" x2="9.320833" y2="1.464171" />
      <path d="M 9.320833,1.464171 C 8.992511,1.7638 8.511874,2.074069 8.083503,2.151503" />
      <path d="M 8.083503,2.151503 C 7.901033,2.135542 7.724613,2.138208 7.550984,2.182012 C 7.380986,2.223666 7.227085,2.321921 7.228914,2.445752" />
      <path d="M 7.228914,2.445752 L 7.228922,2.447309" />
      <line x1="7.228922" y1="2.444195" x2="7.228922" y2="2.447309" />
      <path d="M 7.228922,2.447309 L 7.229632,2.518064" />
      <path d="M 7.229632,2.518064 Q 7.229621,2.721991 7.206121,2.924834" />
      <path d="M 7.229632,2.512522 C 7.285731,2.610498 7.428578,2.681239 7.574044,2.718455 C 7.721023,2.754277 7.872889,2.769674 8.029642,2.764648" />
      <path d="M 7.206121,2.924834 L 7.205259,2.941154" />
      <path d="M 7.205259,2.941154 C 7.203792,3.061649 7.349275,3.164293 7.511993,3.215189 C 7.678193,3.268213 7.849815,3.282599 8.029642,3.279525" />
      <line x1="8.029642" y1="2.764648" x2="8.029642" y2="3.279525" />
      <path d="M 8.029642,2.764648 Q 8.098382,2.782139 8.168341,2.807901" />
      <path d="M 8.029642,3.279525 C 8.449198,3.386713 8.898646,3.729619 9.197305,4.051248" />
      <line x1="9.197305" y1="3.979834" x2="9.197305" y2="4.051248" />
      <path d="M 9.197305,4.051248 Q 9.117927,4.308719 9.012271,4.559154" />
      <path d="M 9.012271,4.559154 C 8.553177,4.677911 7.955969,4.740595 7.539825,4.624042" />
      <path d="M 7.539825,4.624042 C 7.390808,4.531821 7.23608,4.458362 7.059739,4.421987 C 6.887808,4.385276 6.696947,4.405027 6.627207,4.513917" />
      <path d="M -15.635942,-1.779583 A 14.0,12.001691079412318 0.0 0,1 12.364058,-1.779583" />
      <path d="M 12.352345,-0.773854 A 14.0,12.001691079412318 0.0 0,1 -15.635942,-1.264705" />
      <path d="M -15.635942,-1.264705 A 14.0,12.001691079412318 0.0 0,1 12.364058,-1.264705" />
      <path d="M 12.364058,-1.264705 A 14.0,12.001691079412318 0.0 0,1 12.352345,-0.773854" />
      <path d="M -12.553272,-0.110772 Q -12.597284,-0.416803 -12.617887,-0.724645" />
      <path d="M -12.723754,0.079971 Q -12.655937,0.072597 -12.601896,0.023738 Q -12.551359,-0.028318 -12.551769,-0.089791" />
      <path d="M -12.551769,-0.089791 L -12.553272,-0.110772" />
      <line x1="-12.801082" y1="0.089349" x2="-12.723754" y2="0.079971" />
      <path d="M -14.566505,1.009956 C -14.389549,0.870335 -14.233405,0.758312 -14.078746,0.65764 C -13.925206,0.55789 -13.772185,0.469107 -13.619683,0.39129 C -13.317483,0.235743 -12.997166,0.118602 -12.801082,0.089349" />
      <path d="M -14.45953,1.418348 Q -14.517423,1.215 -14.566505,1.009956" />
      <path d="M -12.404461,1.603504 C -12.596309,1.648928 -12.944296,1.660437 -13.295059,1.630587 C -13.47173,1.616136 -13.654339,1.591962 -13.842887,1.558064 C -14.032906,1.523744 -14.229929,1.479706 -14.45953,1.418348" />
      <line x1="-12.32988" y1="1.583639" x2="-12.404461" y2="1.603504" />
      <path d="M -12.080635,1.693584 C -12.094636,1.655577 -12.129869,1.61615 -12.179031,1.594917 C -12.227762,1.572968 -12.285667,1.571311 -12.32988,1.583639" />
      <path d="M -11.832886,2.272204 Q -11.967792,1.986365 -12.080635,1.693584" />
      <path d="M -11.939971,2.494274 C -11.874709,2.473414 -11.815661,2.405058 -11.818285,2.336511" />
      <path d="M -11.818285,2.336511 Q -11.818791,2.301278 -11.832886,2.272204" />
      <line x1="-12.011832" y1="2.520489" x2="-11.939971" y2="2.494274" />
      <path d="M -13.439157,3.801433 C -13.310384,3.627307 -13.193382,3.484456 -13.074386,3.3529 C -12.956194,3.222482 -12.835192,3.102772 -12.711381,2.99377 C -12.466439,2.776472 -12.192403,2.592252 -12.011832,2.520489" />
      <path d="M -13.212528,4.172174 Q -13.329842,3.9886 -13.439157,3.801433" />
      <path d="M -11.171582,3.89505 C -11.34318,3.981493 -11.675834,4.069819 -12.023658,4.118812 C -12.198672,4.144053 -12.382357,4.161219 -12.574714,4.170311 C -12.768621,4.179321 -12.972226,4.180498 -13.212528,4.172174" />
      <line x1="-11.105541" y1="3.859314" x2="-11.171582" y2="3.89505" />
      <path d="M -10.831595,3.910211 C -10.856593,3.876606 -10.90253,3.84634 -10.956426,3.836738 C -11.010124,3.82635 -11.066556,3.837596 -11.105541,3.859314" />
      <path d="M -10.417594,4.414146 Q -10.634202,4.167979 -10.831595,3.910211" />
      <path d="M -10.453985,4.652408 C -10.410821,4.624709 -10.376358,4.572124 -10.377261,4.517397" />
      <path d="M -10.377261,4.517397 Q -10.379425,4.456221 -10.417594,4.414146" />
      <line x1="-10.515483" y1="4.693674" x2="-10.453985" y2="4.652408" />
      <path d="M -11.507439,6.24766 C -11.365313,5.859148 -11.223582,5.577113 -11.048305,5.306042 C -10.877315,5.041802 -10.668235,4.803057 -10.515483,4.693674" />
      <path d="M -11.176601,6.555485 Q -11.345341,6.404196 -11.507439,6.24766" />
      <path d="M -9.288866,5.834967 C -9.428518,5.956538 -9.723171,6.115663 -10.044351,6.24016 C -10.205781,6.303372 -10.378025,6.360709 -10.561082,6.41217 C -10.745662,6.463896 -10.941974,6.510209 -11.176601,6.555485" />
      <line x1="-9.235864" y1="5.785796" x2="-9.288866" y2="5.834967" />
      <path d="M -8.955886,5.774177 C -8.990178,5.747263 -9.043687,5.72822 -9.098646,5.730904 C -9.153651,5.732784 -9.204764,5.756168 -9.235864,5.785796" />
      <path d="M -8.403848,6.169083 Q -8.687396,5.979365 -8.955886,5.774177" />
      <path d="M -8.367064,6.407301 Q -8.329052,6.365276 -8.3269,6.304242" />
      <path d="M -8.3269,6.304242 C -8.325992,6.249436 -8.36057,6.196767 -8.403848,6.169083" />
      <line x1="-8.414007" y1="6.460806" x2="-8.367064" y2="6.407301" />
      <path d="M -8.902995,8.181933 C -8.883009,7.775124 -8.831258,7.471252 -8.743793,7.170528 C -8.658406,6.877353 -8.52853,6.600353 -8.414007,6.460806" />
      <path d="M -8.490494,8.405863 Q -8.69916,8.297168 -8.902995,8.181933" />
      <path d="M -6.884616,7.291053 C -6.982805,7.439467 -7.219376,7.658546 -7.492025,7.850063 C -7.62887,7.946939 -7.777934,8.040539 -7.939217,8.130863 C -8.10189,8.22178 -8.277531,8.310072 -8.490494,8.405863" />
      <line x1="-6.848264" y1="7.231798" x2="-6.884616" y2="7.291053" />
      <path d="M -6.581334,7.158454 C -6.622584,7.140065 -6.680019,7.133544 -6.732295,7.148331 C -6.784858,7.16235 -6.82717,7.196279 -6.848264,7.231798" />
      <path d="M -5.928879,7.41742 Q -6.260044,7.297078 -6.581334,7.158454" />
      <path d="M -5.821428,7.639359 Q -5.807434,7.610373 -5.806933,7.575276" />
      <path d="M -5.806933,7.575276 C -5.804296,7.506661 -5.863495,7.438218 -5.928879,7.41742" />
      <line x1="-5.850618" y1="7.701457" x2="-5.821428" y2="7.639359" />
      <path d="M -5.803313,9.472432 C -5.858924,9.259577 -5.895082,9.079155 -5.919475,8.90537 C -5.943472,8.732883 -5.955421,8.566747 -5.955325,8.406963" />
      <path d="M -5.955325,8.406963 C -5.956249,8.124517 -5.914924,7.851908 -5.850618,7.701457" />
      <path d="M -5.33726,9.597209 Q -5.571633,9.538515 -5.803313,9.472432" />
      <path d="M -4.122677,8.164078 C -4.172713,8.329221 -4.33508,8.593325 -4.540616,8.83881 C -4.64355,8.962748 -4.759276,9.086232 -4.887794,9.209263 C -5.017475,9.333176 -5.160474,9.457429 -5.33726,9.597209" />
      <line x1="-4.105454" y1="8.098776" x2="-4.122677" y2="8.164078" />
      <path d="M -3.869763,7.968706 C -3.915159,7.960097 -3.972606,7.966541 -4.018636,7.992423 C -4.065175,8.017627 -4.095802,8.059788 -4.105454,8.098776" />
      <path d="M -3.161355,8.074084 Q -3.517568,8.031321 -3.869763,7.968706" />
      <path d="M -2.990558,8.26462 L -2.989089,8.24388" />
      <path d="M -2.989089,8.24388 Q -2.988674,8.182364 -3.0393,8.130271 Q -3.093444,8.081385 -3.161355,8.074084" />
      <line x1="-3.000005" y1="8.331079" x2="-2.990558" y2="8.26462" />
      <path d="M -2.419632,10.031214 C -2.625089,9.694185 -2.752621,9.425733 -2.851135,9.147419 C -2.947236,8.875229 -3.003819,8.597128 -3.003479,8.407195" />
      <path d="M -3.003479,8.407195 Q -3.003471,8.365711 -3.000005,8.331079" />
      <path d="M -1.931788,10.048332 Q -2.175895,10.04364 -2.419632,10.031214" />
      <path d="M -1.191271,8.394547 L -1.191265,8.397108" />
      <path d="M -1.191265,8.397108 C -1.190499,8.568594 -1.267868,8.859119 -1.392199,9.141176 C -1.45417,9.283385 -1.528578,9.427992 -1.615423,9.574998 C -1.703125,9.723112 -1.803548,9.874527 -1.931788,10.048332" />
      <line x1="-1.194351" y1="8.327649" x2="-1.191271" y2="8.394547" />
      <path d="M -1.00596,8.149717 C -1.051114,8.151471 -1.102965,8.169317 -1.139492,8.202788 C -1.176685,8.238934 -1.195023,8.278301 -1.194506,8.320888" />
      <path d="M -1.194506,8.320888 L -1.194351,8.327649" />
      <path d="M -0.289876,8.094325 Q -0.646862,8.132055 -1.00596,8.149717" />
      <path d="M -0.067373,8.240473 C -0.073277,8.200939 -0.099781,8.156774 -0.143761,8.128393 C -0.18717,8.099373 -0.243811,8.088925 -0.289876,8.094325" />
      <line x1="-0.056434" y1="8.306763" x2="-0.067373" y2="8.240473" />
      <path d="M 1.017456,9.820197 C 0.854588,9.668499 0.723913,9.534642 0.606479,9.402058 C 0.490121,9.270434 0.386555,9.139255 0.295781,9.008521 C 0.114335,8.749456 -0.02231,8.474859 -0.056434,8.306763" />
      <path d="M 1.493846,9.728491 Q 1.256641,9.778121 1.017456,9.820197" />
      <path d="M 1.709831,7.966754 C 1.742299,8.068275 1.760973,8.224279 1.760756,8.398311" />
      <path d="M 1.760756,8.398311 C 1.760601,8.594014 1.739266,8.800943 1.696751,9.019096 C 1.653633,9.23728 1.592,9.458314 1.493846,9.728491" />
      <line x1="1.686659" y1="7.902819" x2="1.709831" y2="7.966754" />
      <path d="M 1.81491,7.689151 C 1.742424,7.705983 1.674153,7.7795 1.677653,7.851948" />
      <path d="M 1.677653,7.851948 Q 1.677904,7.879212 1.686659,7.902819" />
      <path d="M 2.489871,7.476764 Q 2.15644,7.592415 1.81491,7.689151" />
      <path d="M 2.748916,7.568564 C 2.731278,7.531687 2.692343,7.494907 2.641292,7.477252 C 2.590601,7.458852 2.532736,7.461327 2.489871,7.476764" />
      <line x1="2.779496" y1="7.630168" x2="2.748916" y2="7.568564" />
      <path d="M 4.27372,8.853762 C 4.070602,8.74337 3.903966,8.643068 3.750505,8.541057 C 3.598373,8.439735 3.458731,8.336005 3.331579,8.229866 C 3.078102,8.019887 2.863208,7.784965 2.779496,7.630168" />
      <path d="M 4.70619,8.659482 Q 4.492051,8.76005 4.27372,8.853762" />
      <path d="M 4.382925,6.909853 C 4.471812,7.039602 4.564032,7.27982 4.622413,7.538659 C 4.681927,7.801558 4.712599,8.075579 4.712735,8.395165" />
      <path d="M 4.712735,8.395165 Q 4.712807,8.518999 4.70619,8.659482" />
      <line x1="4.341239" y1="6.853238" x2="4.382925" y2="6.909853" />
      <path d="M 4.400611,6.618394 C 4.350602,6.644838 4.30906,6.702382 4.310366,6.761723" />
      <path d="M 4.310366,6.761723 Q 4.311849,6.814531 4.341239,6.853238" />
      <path d="M 4.988451,6.263486 Q 4.701298,6.449176 4.400611,6.618394" />
      <path d="M 5.266385,6.294683 C 5.238214,6.262975 5.189501,6.236088 5.13486,6.230361 C 5.08034,6.223835 5.025195,6.239065 4.988451,6.263486" />
      <line x1="5.314522" y1="6.347402" x2="5.266385" y2="6.294683" />
      <path d="M 7.12725,7.197771 C 6.897724,7.136207 6.706484,7.076295 6.527454,7.01181 C 6.349915,6.947695 6.183713,6.878482 6.02885,6.804172 C 5.720614,6.657588 5.442117,6.478351 5.314522,6.347402" />
      <path d="M 7.486329,6.914155 Q 7.309849,7.05881 7.12725,7.197771" />
      <path d="M 6.645842,5.295869 C 6.787655,5.415587 6.973275,5.668182 7.118501,5.943518 C 7.267349,6.225963 7.381717,6.516985 7.486329,6.914155" />
      <line x1="6.588485" y1="5.250431" x2="6.645842" y2="5.295869" />
      <path d="M 6.57493,5.010416 Q 6.527207,5.055029 6.524219,5.12451" />
      <path d="M 6.524219,5.12451 C 6.523613,5.174539 6.55179,5.222285 6.588485,5.250431" />
      <path d="M 7.035589,4.537174 Q 6.814283,4.78025 6.57493,5.010416" />
      <path d="M 7.313471,4.505641 C 7.276687,4.481264 7.221517,4.466101 7.167008,4.472693 C 7.112376,4.478486 7.063708,4.505433 7.035589,4.537174" />
      <line x1="7.375885" y1="4.545884" x2="7.313471" y2="4.505641" />
      <path d="M 9.383583,4.965075 C 9.143291,4.956536 8.940479,4.941097 8.748081,4.918532 C 8.557234,4.895993 8.375799,4.866015 8.203777,4.828597 C 7.861788,4.755398 7.538667,4.64406 7.375885,4.545884" />
      <path d="M 9.644799,4.611453 Q 9.518006,4.790335 9.383583,4.965075" />
      <path d="M 8.34437,3.234792 C 8.517495,3.318967 8.773052,3.52177 8.996457,3.755502 C 9.225507,3.995297 9.423841,4.251026 9.644799,4.611453" />
      <line x1="8.275249" y1="3.203629" x2="8.34437" y2="3.234792" />
      <path d="M 8.189693,2.9748 Q 8.169216,3.008669 8.168341,3.051882" />
      <path d="M 8.168341,3.051882 C 8.166406,3.11634 8.217043,3.179706 8.275249,3.203629" />
      <path d="M 8.491777,2.415474 Q 8.351399,2.69937 8.189693,2.9748" />
      <path d="M 8.75067,2.32336 C 8.70778,2.307975 8.649911,2.30557 8.59925,2.324031 C 8.548229,2.341749 8.509354,2.378575 8.491777,2.415474" />
      <line x1="8.823107" y1="2.348383" x2="8.75067" y2="2.32336" />
      <path d="M 10.888954,2.307831 C 10.654272,2.352898 10.453709,2.382984 10.261053,2.403876 C 10.069905,2.42445 9.885602,2.435749 9.708144,2.437774 C 9.355709,2.442948 9.009983,2.407097 8.823107,2.348383" />
      <path d="M 11.034506,1.9083 Q 10.96604,2.10922 10.888954,2.307831" />
      <path d="M 9.362756,0.867082 C 9.555395,0.909976 9.863473,1.049167 10.149833,1.225367 C 10.294406,1.313608 10.43845,1.412816 10.581967,1.522989 C 10.726511,1.63416 10.871453,1.756748 11.034506,1.9083" />
      <line x1="9.286581" y1="0.852318" x2="9.362756" y2="0.867082" />
      <path d="M 9.134854,0.650268 Q 9.130768,0.666869 9.130687,0.685086" />
      <path d="M 9.130687,0.685086 Q 9.130549,0.743951 9.17603,0.793797 Q 9.224213,0.841052 9.286581,0.852318" />
      <path d="M 9.257777,0.042976 Q 9.207894,0.348344 9.134854,0.650268" />
      <path d="M 9.480039,-0.103442 C 9.433965,-0.108786 9.377342,-0.09827 9.333981,-0.069197 C 9.290047,-0.040763 9.263616,0.003434 9.257777,0.042976" />
      <line x1="9.557562" y1="-0.095343" x2="9.480039" y2="-0.103442" />
      <path d="M 11.540774,-0.592876 C 11.327694,-0.497275 11.143049,-0.423713 10.963265,-0.360787 C 10.784842,-0.298503 10.61023,-0.246697 10.43943,-0.205368 C 10.100566,-0.122172 9.755797,-0.080094 9.557562,-0.095343" />
      <path d="M 11.560743,-1.011087 Q 11.55527,-0.801823 11.540774,-0.592876" />
      <path d="M 9.631599,-1.645905 C 9.830625,-1.647215 10.170228,-1.581122 10.500027,-1.474463 C 10.666316,-1.421305 10.835404,-1.357438 11.007293,-1.282861 C 11.180476,-1.20755 11.35749,-1.121298 11.560743,-1.011087" />
      <line x1="9.553562" y1="-1.643265" x2="9.631599" y2="-1.645905" />
      <path d="M 9.346004,-1.804765 C 9.348053,-1.764947 9.370182,-1.719046 9.411258,-1.687629 C 9.451702,-1.655616 9.507133,-1.641167 9.553562,-1.643265" />
      <path d="M 9.281389,-2.418639 Q 9.3254,-2.112608 9.346004,-1.804765" />
      <path d="M 9.451871,-2.609382 Q 9.384053,-2.602008 9.330013,-2.553148 Q 9.279476,-2.501093 9.279886,-2.43962" />
      <path d="M 9.279886,-2.43962 L 9.281389,-2.418639" />
      <line x1="9.529199" y1="-2.61876" x2="9.451871" y2="-2.609382" />
      <path d="M 11.294622,-3.539367 C 11.117666,-3.399746 10.961522,-3.287723 10.806862,-3.187051 C 10.653323,-3.087301 10.500302,-2.998518 10.3478,-2.920701 C 10.0456,-2.765154 9.725283,-2.648013 9.529199,-2.61876" />
      <path d="M 11.187647,-3.947759 Q 11.24554,-3.744411 11.294622,-3.539367" />
      <path d="M 9.132578,-4.132915 C 9.324426,-4.178339 9.672413,-4.189848 10.023176,-4.159998 C 10.199847,-4.145547 10.382456,-4.121373 10.571004,-4.087475 C 10.761023,-4.053155 10.958046,-4.009117 11.187647,-3.947759" />
      <line x1="9.057997" y1="-4.11305" x2="9.132578" y2="-4.132915" />
      <path d="M 8.808752,-4.222995 C 8.822753,-4.184988 8.857986,-4.145561 8.907148,-4.124328 C 8.955879,-4.102379 9.013783,-4.100722 9.057997,-4.11305" />
      <path d="M 8.561002,-4.801615 Q 8.695909,-4.515776 8.808752,-4.222995" />
      <path d="M 8.668088,-5.023685 C 8.602826,-5.002825 8.543778,-4.934469 8.546401,-4.865922" />
      <path d="M 8.546401,-4.865922 Q 8.546908,-4.830689 8.561002,-4.801615" />
      <line x1="8.739949" y1="-5.0499" x2="8.668088" y2="-5.023685" />
      <path d="M 10.167274,-6.330844 C 10.038501,-6.156718 9.921498,-6.013867 9.802503,-5.882311 C 9.684311,-5.751893 9.563309,-5.632183 9.439497,-5.523181 C 9.194556,-5.305883 8.92052,-5.121663 8.739949,-5.0499" />
      <path d="M 9.940645,-6.701585 Q 10.057959,-6.518011 10.167274,-6.330844" />
      <path d="M 7.899699,-6.424461 C 8.071297,-6.510904 8.403951,-6.59923 8.751775,-6.648223 C 8.926789,-6.673464 9.110474,-6.69063 9.302831,-6.699722 C 9.496738,-6.708732 9.700343,-6.709909 9.940645,-6.701585" />
      <line x1="7.833658" y1="-6.388725" x2="7.899699" y2="-6.424461" />
      <path d="M 7.559711,-6.439622 C 7.58471,-6.406017 7.630647,-6.375751 7.684543,-6.366149 C 7.738241,-6.355761 7.794673,-6.367007 7.833658,-6.388725" />
      <path d="M 7.145711,-6.943557 Q 7.362319,-6.69739 7.559711,-6.439622" />
      <path d="M 7.182102,-7.181819 C 7.138938,-7.15412 7.104475,-7.101535 7.105377,-7.046808" />
      <path d="M 7.105377,-7.046808 Q 7.107542,-6.985632 7.145711,-6.943557" />
      <line x1="7.2436" y1="-7.223085" x2="7.182102" y2="-7.181819" />
      <path d="M 8.235556,-8.777071 C 8.09343,-8.388559 7.951699,-8.106524 7.776422,-7.835453 C 7.605432,-7.571213 7.396352,-7.332468 7.2436,-7.223085" />
      <path d="M 7.904718,-9.084896 Q 8.073458,-8.933607 8.235556,-8.777071" />
      <path d="M 6.016983,-8.364378 C 6.156635,-8.485949 6.451288,-8.645074 6.772468,-8.769571 C 6.933898,-8.832783 7.106142,-8.89012 7.289199,-8.941581 C 7.473778,-8.993307 7.670091,-9.03962 7.904718,-9.084896" />
      <line x1="5.963981" y1="-8.315207" x2="6.016983" y2="-8.364378" />
      <path d="M 5.684002,-8.303588 C 5.718295,-8.276674 5.771804,-8.257631 5.826763,-8.260315 C 5.881768,-8.262195 5.932881,-8.285579 5.963981,-8.315207" />
      <path d="M 5.131964,-8.698494 Q 5.415513,-8.508776 5.684002,-8.303588" />
      <path d="M 5.095181,-8.936712 Q 5.057169,-8.894687 5.055017,-8.833653" />
      <path d="M 5.055017,-8.833653 C 5.054109,-8.778847 5.088686,-8.726178 5.131964,-8.698494" />
      <line x1="5.142124" y1="-8.990217" x2="5.095181" y2="-8.936712" />
      <path d="M 5.631112,-10.711344 C 5.611126,-10.304535 5.559374,-10.000663 5.471909,-9.699939 C 5.386523,-9.406764 5.256647,-9.129764 5.142124,-8.990217" />
      <path d="M 5.218611,-10.935274 Q 5.427277,-10.826579 5.631112,-10.711344" />
      <path d="M 3.612733,-9.820464 C 3.710922,-9.968878 3.947493,-10.187957 4.220142,-10.379474 C 4.356987,-10.47635 4.506051,-10.56995 4.667334,-10.660274 C 4.830007,-10.751191 5.005647,-10.839483 5.218611,-10.935274" />
      <line x1="3.576381" y1="-9.761208" x2="3.612733" y2="-9.820464" />
      <path d="M 3.309451,-9.687865 C 3.350701,-9.669476 3.408136,-9.662955 3.460412,-9.677742 C 3.512975,-9.691761 3.555286,-9.72569 3.576381,-9.761208" />
      <path d="M 2.656996,-9.94683 Q 2.988161,-9.826489 3.309451,-9.687865" />
      <path d="M 2.549545,-10.16877 Q 2.535551,-10.139784 2.53505,-10.104687" />
      <path d="M 2.53505,-10.104687 C 2.532413,-10.036072 2.591612,-9.967629 2.656996,-9.94683" />
      <line x1="2.578735" y1="-10.230868" x2="2.549545" y2="-10.16877" />
      <path d="M 2.53143,-12.001843 C 2.58704,-11.788988 2.623199,-11.608566 2.647592,-11.434781 C 2.671588,-11.262294 2.683538,-11.096158 2.683442,-10.936374" />
      <path d="M 2.683442,-10.936374 C 2.684366,-10.653928 2.64304,-10.381318 2.578735,-10.230868" />
      <path d="M 2.065377,-12.12662 Q 2.29975,-12.067926 2.53143,-12.001843" />
      <path d="M 0.850794,-10.693489 C 0.90083,-10.858632 1.063196,-11.122736 1.268733,-11.368221 C 1.371667,-11.492159 1.487393,-11.615643 1.615911,-11.738674 C 1.745592,-11.862587 1.888591,-11.98684 2.065377,-12.12662" />
      <line x1="0.833571" y1="-10.628187" x2="0.850794" y2="-10.693489" />
      <path d="M 0.59788,-10.498117 C 0.643276,-10.489508 0.700723,-10.495952 0.746753,-10.521834 C 0.793292,-10.547038 0.823918,-10.589199 0.833571,-10.628187" />
      <path d="M -0.110528,-10.603495 Q 0.245685,-10.560732 0.59788,-10.498117" />
      <path d="M -0.281325,-10.794031 L -0.282794,-10.773291" />
      <path d="M -0.282794,-10.773291 Q -0.283209,-10.711774 -0.232583,-10.659682 Q -0.178439,-10.610796 -0.110528,-10.603495" />
      <line x1="-0.271878" y1="-10.860489" x2="-0.281325" y2="-10.794031" />
      <path d="M -0.852251,-12.560625 C -0.646795,-12.223596 -0.519262,-11.955144 -0.420748,-11.67683 C -0.324647,-11.40464 -0.268064,-11.126539 -0.268404,-10.936606" />
      <path d="M -0.268404,-10.936606 Q -0.268412,-10.895121 -0.271878,-10.860489" />
      <path d="M -1.340095,-12.577743 Q -1.095989,-12.573051 -0.852251,-12.560625" />
      <path d="M -2.080612,-10.923958 L -2.080618,-10.926519" />
      <path d="M -2.080618,-10.926519 C -2.081384,-11.098005 -2.004016,-11.38853 -1.879684,-11.670586 C -1.817713,-11.812796 -1.743305,-11.957403 -1.65646,-12.104409 C -1.568758,-12.252523 -1.468335,-12.403938 -1.340095,-12.577743" />
      <line x1="-2.077533" y1="-10.85706" x2="-2.080612" y2="-10.923958" />
      <path d="M -2.265923,-10.679128 C -2.220769,-10.680882 -2.168919,-10.698728 -2.132391,-10.732199 C -2.095198,-10.768345 -2.07686,-10.807712 -2.077377,-10.850299" />
      <path d="M -2.077377,-10.850299 L -2.077533,-10.85706" />
      <path d="M -2.982008,-10.623736 Q -2.625021,-10.661466 -2.265923,-10.679128" />
      <path d="M -3.20451,-10.769884 C -3.198606,-10.73035 -3.172102,-10.686185 -3.128122,-10.657804 C -3.084713,-10.628784 -3.028072,-10.618336 -2.982008,-10.623736" />
      <line x1="-3.215449" y1="-10.836174" x2="-3.20451" y2="-10.769884" />
      <path d="M -4.289339,-12.349608 C -4.126471,-12.19791 -3.995796,-12.064053 -3.878362,-11.931469 C -3.762004,-11.799845 -3.658438,-11.668666 -3.567664,-11.537932 C -3.386218,-11.278866 -3.249573,-11.00427 -3.215449,-10.836174" />
      <path d="M -4.765729,-12.257902 Q -4.528524,-12.307532 -4.289339,-12.349608" />
      <path d="M -4.981715,-10.496165 C -5.014182,-10.597686 -5.032856,-10.75369 -5.032639,-10.927722" />
      <path d="M -5.032639,-10.927722 C -5.032484,-11.123425 -5.011149,-11.330354 -4.968634,-11.548507 C -4.925516,-11.766691 -4.863884,-11.987725 -4.765729,-12.257902" />
      <line x1="-4.958542" y1="-10.43223" x2="-4.981715" y2="-10.496165" />
      <path d="M -5.086793,-10.218562 C -5.014307,-10.235394 -4.946036,-10.308911 -4.949536,-10.381359" />
      <path d="M -4.949536,-10.381359 Q -4.949787,-10.408623 -4.958542,-10.43223" />
      <path d="M -5.761755,-10.006175 Q -5.428323,-10.121825 -5.086793,-10.218562" />
      <path d="M -6.020799,-10.097975 C -6.003161,-10.061098 -5.964226,-10.024318 -5.913175,-10.006663 C -5.862484,-9.988263 -5.80462,-9.990738 -5.761755,-10.006175" />
      <line x1="-6.05138" y1="-10.159579" x2="-6.020799" y2="-10.097975" />
      <path d="M -7.545603,-11.383173 C -7.342485,-11.272781 -7.175849,-11.172479 -7.022388,-11.070468 C -6.870256,-10.969146 -6.730614,-10.865416 -6.603463,-10.759277 C -6.349985,-10.549298 -6.135092,-10.314376 -6.05138,-10.159579" />
      <path d="M -7.978073,-11.188893 Q -7.763934,-11.289461 -7.545603,-11.383173" />
      <path d="M -7.654808,-9.439264 C -7.743695,-9.569013 -7.835915,-9.809231 -7.894296,-10.06807 C -7.953811,-10.330969 -7.984482,-10.60499 -7.984618,-10.924576" />
      <path d="M -7.984618,-10.924576 Q -7.98469,-11.04841 -7.978073,-11.188893" />
      <line x1="-7.613123" y1="-9.382649" x2="-7.654808" y2="-9.439264" />
      <path d="M -7.672494,-9.147805 C -7.622486,-9.174249 -7.580943,-9.231793 -7.582249,-9.291134" />
      <path d="M -7.582249,-9.291134 Q -7.583732,-9.343942 -7.613123,-9.382649" />
      <path d="M -8.260334,-8.792897 Q -7.973181,-8.978587 -7.672494,-9.147805" />
      <path d="M -8.538268,-8.824094 C -8.510097,-8.792386 -8.461384,-8.765499 -8.406743,-8.759772 C -8.352224,-8.753246 -8.297078,-8.768476 -8.260334,-8.792897" />
      <line x1="-8.586405" y1="-8.876813" x2="-8.538268" y2="-8.824094" />
      <path d="M -10.399133,-9.727182 C -10.169607,-9.665618 -9.978367,-9.605706 -9.799337,-9.541221 C -9.621798,-9.477106 -9.455596,-9.407893 -9.300733,-9.333583 C -8.992497,-9.186999 -8.714,-9.007762 -8.586405,-8.876813" />
      <path d="M -10.758212,-9.443566 Q -10.581732,-9.588221 -10.399133,-9.727182" />
      <path d="M -9.917725,-7.82528 C -10.059538,-7.944998 -10.245158,-8.197593 -10.390384,-8.472929 C -10.539232,-8.755374 -10.6536,-9.046396 -10.758212,-9.443566" />
      <line x1="-9.860368" y1="-7.779842" x2="-9.917725" y2="-7.82528" />
      <path d="M -9.846814,-7.539827 Q -9.79909,-7.58444 -9.796102,-7.653921" />
      <path d="M -9.796102,-7.653921 C -9.795496,-7.70395 -9.823674,-7.751696 -9.860368,-7.779842" />
      <path d="M -10.307472,-7.066585 Q -10.086166,-7.309661 -9.846814,-7.539827" />
      <path d="M -10.585354,-7.035052 C -10.54857,-7.010675 -10.4934,-6.995512 -10.438891,-7.002104 C -10.384259,-7.007897 -10.335591,-7.034844 -10.307472,-7.066585" />
      <line x1="-10.647768" y1="-7.075295" x2="-10.585354" y2="-7.035052" />
      <path d="M -12.655467,-7.494486 C -12.415174,-7.485947 -12.212362,-7.470508 -12.019964,-7.447943 C -11.829117,-7.425404 -11.647682,-7.395426 -11.47566,-7.358008 C -11.133672,-7.284809 -10.810551,-7.173471 -10.647768,-7.075295" />
      <path d="M -12.916682,-7.140864 Q -12.789889,-7.319746 -12.655467,-7.494486" />
      <path d="M -11.616253,-5.764203 C -11.789378,-5.848378 -12.044935,-6.051181 -12.26834,-6.284913 C -12.49739,-6.524708 -12.695724,-6.780437 -12.916682,-7.140864" />
      <line x1="-11.547132" y1="-5.73304" x2="-11.616253" y2="-5.764203" />
      <path d="M -11.461576,-5.504211 Q -11.441099,-5.53808 -11.440224,-5.581293" />
      <path d="M -11.440224,-5.581293 C -11.438289,-5.645751 -11.488927,-5.709117 -11.547132,-5.73304" />
      <path d="M -11.76366,-4.944885 Q -11.623282,-5.228781 -11.461576,-5.504211" />
      <path d="M -12.022553,-4.852771 C -11.979663,-4.837386 -11.921794,-4.834981 -11.871133,-4.853442 C -11.820112,-4.87116 -11.781238,-4.907986 -11.76366,-4.944885" />
      <line x1="-12.09499" y1="-4.877794" x2="-12.022553" y2="-4.852771" />
      <path d="M -14.160837,-4.837242 C -13.926155,-4.882309 -13.725592,-4.912395 -13.532936,-4.933287 C -13.341788,-4.953861 -13.157485,-4.96516 -12.980027,-4.967185 C -12.627592,-4.972359 -12.281867,-4.936508 -12.09499,-4.877794" />
      <path d="M -14.306389,-4.437711 Q -14.237923,-4.638631 -14.160837,-4.837242" />
      <path d="M -12.634639,-3.396493 C -12.827278,-3.439387 -13.135356,-3.578578 -13.421716,-3.754778 C -13.566289,-3.843019 -13.710334,-3.942227 -13.85385,-4.0524 C -13.998394,-4.163571 -14.143336,-4.286159 -14.306389,-4.437711" />
      <line x1="-12.558465" y1="-3.381729" x2="-12.634639" y2="-3.396493" />
      <path d="M -12.406737,-3.179679 Q -12.402651,-3.19628 -12.40257,-3.214497" />
      <path d="M -12.40257,-3.214497 Q -12.402432,-3.273362 -12.447913,-3.323208 Q -12.496096,-3.370463 -12.558465,-3.381729" />
      <path d="M -12.529661,-2.572387 Q -12.479778,-2.877755 -12.406737,-3.179679" />
      <path d="M -12.751922,-2.425969 C -12.705848,-2.420625 -12.649225,-2.431141 -12.605864,-2.460214 C -12.56193,-2.488648 -12.535499,-2.532845 -12.529661,-2.572387" />
      <line x1="-12.829445" y1="-2.434068" x2="-12.751922" y2="-2.425969" />
      <path d="M -14.812657,-1.936535 C -14.599577,-2.032136 -14.414932,-2.105697 -14.235149,-2.168624 C -14.056725,-2.230908 -13.882113,-2.282714 -13.711314,-2.324043 C -13.372449,-2.407239 -13.02768,-2.449317 -12.829445,-2.434068" />
      <path d="M -14.832626,-1.518324 Q -14.827153,-1.727588 -14.812657,-1.936535" />
      <path d="M -12.903482,-0.883505 C -13.102508,-0.882196 -13.442112,-0.948289 -13.771911,-1.054948 C -13.938199,-1.108106 -14.107287,-1.171973 -14.279176,-1.246549 C -14.452359,-1.321861 -14.629373,-1.408113 -14.832626,-1.518324" />
      <line x1="-12.825445" y1="-0.886146" x2="-12.903482" y2="-0.883505" />
      <path d="M -12.617887,-0.724645 C -12.619936,-0.764464 -12.642065,-0.810365 -12.683141,-0.841782 C -12.723585,-0.873795 -12.779016,-0.888244 -12.825445,-0.886146" />
      <line x1="11.540774" y1="-1.021889" x2="11.540774" y2="-0.592876" />
      <path d="M 11.452652,-1.068753 C 11.061068,-0.898319 10.737097,-0.790899 10.403489,-0.711666 C 10.077105,-0.634122 9.748536,-0.595535 9.557562,-0.610221" />
      <line x1="9.557562" y1="-0.610221" x2="9.557562" y2="-0.095343" />
      <line x1="9.557562" y1="-0.610221" x2="9.480039" y2="-0.61832" />
      <line x1="9.480039" y1="-0.61832" x2="9.480039" y2="-0.103442" />
      <path d="M 9.480039,-0.61832 C 9.433965,-0.623664 9.377342,-0.613147 9.333981,-0.584075 C 9.290047,-0.555641 9.263616,-0.511444 9.257777,-0.471902" />
      <path d="M 9.257777,-0.471902 Q 9.207894,-0.166533 9.134854,0.135391" />
      <line x1="9.134854" y1="0.135391" x2="9.134854" y2="0.650268" />
      <path d="M 9.134854,0.135391 Q 9.130768,0.151992 9.130687,0.170208" />
      <path d="M 10.893729,1.780626 L 10.888954,1.792953" />
      <line x1="10.888954" y1="1.792953" x2="10.888954" y2="2.307831" />
      <path d="M 10.888954,1.792953 C 10.65593,1.837702 10.456584,1.867672 10.265156,1.888554 C 10.075231,1.90912 9.892092,1.920536 9.715738,1.9228 C 9.36546,1.928412 9.021374,1.89375 8.83112,1.835952" />
      <line x1="8.823107" y1="1.840959" x2="8.823107" y2="2.348383" />
      <line x1="8.75067" y1="1.884753" x2="8.75067" y2="2.32336" />
      <path d="M 8.415,2.052163 Q 8.308025,2.258375 8.189693,2.459922" />
      <line x1="8.189693" y1="2.459922" x2="8.189693" y2="2.9748" />
      <path d="M 8.189693,2.459922 Q 8.169216,2.493791 8.168341,2.537004" />
      <path d="M 9.468332,4.338608 L 9.383583,4.450198" />
      <line x1="9.383583" y1="4.450198" x2="9.383583" y2="4.965075" />
      <path d="M 9.383583,4.450198 Q 9.212858,4.444122 9.063528,4.433318" />
      <line x1="7.375885" y1="4.532619" x2="7.375885" y2="4.545884" />
      <line x1="7.313471" y1="4.503673" x2="7.313471" y2="4.505641" />
      <line x1="6.57493" y1="4.592659" x2="6.57493" y2="5.010416" />
      <line x1="7.12725" y1="6.966954" x2="7.12725" y2="7.197771" />
      <line x1="5.314522" y1="6.140209" x2="5.314522" y2="6.347402" />
      <line x1="5.266385" y1="6.106165" x2="5.266385" y2="6.294683" />
      <line x1="4.400611" y1="6.270196" x2="4.400611" y2="6.618394" />
      <line x1="4.70619" y1="8.149337" x2="4.70619" y2="8.659482" />
      <path d="M 4.705935,8.144724 Q 4.491921,8.245229 4.27372,8.338884" />
      <line x1="4.27372" y1="8.338884" x2="4.27372" y2="8.853762" />
      <path d="M 4.27372,8.338884 L 4.232644,8.316433" />
      <path d="M 2.857226,7.233813 Q 2.808685,7.168695 2.779496,7.115291" />
      <line x1="2.779496" y1="7.115291" x2="2.779496" y2="7.630168" />
      <line x1="2.779496" y1="7.115291" x2="2.748916" y2="7.053687" />
      <line x1="2.748916" y1="7.053687" x2="2.748916" y2="7.568564" />
      <path d="M 2.748916,7.053687 C 2.731278,7.016809 2.692343,6.98003 2.641292,6.962374 C 2.590601,6.943974 2.532736,6.94645 2.489871,6.961886" />
      <path d="M 2.489871,6.961886 Q 2.15644,7.077537 1.81491,7.174273" />
      <line x1="1.81491" y1="7.174273" x2="1.81491" y2="7.689151" />
      <path d="M 1.81491,7.174273 C 1.742424,7.191105 1.674153,7.264622 1.677653,7.33707" />
      <path d="M 1.747586,8.155398 C 1.732698,8.315668 1.705026,8.481486 1.664567,8.652852 C 1.623586,8.825478 1.570109,9.003861 1.493846,9.213613" />
      <line x1="1.493846" y1="9.213613" x2="1.493846" y2="9.728491" />
      <path d="M 1.493846,9.213613 Q 1.256641,9.263243 1.017456,9.305319" />
      <line x1="1.017456" y1="9.305319" x2="1.017456" y2="9.820197" />
      <path d="M 1.017456,9.305319 C 0.788927,9.092339 0.620268,8.911572 0.470156,8.725953 C 0.320471,8.539876 0.196991,8.356808 0.099717,8.17675" />
      <path d="M -0.0358,7.869389 Q -0.04904,7.827484 -0.056434,7.791886" />
      <line x1="-0.056434" y1="7.791886" x2="-0.056434" y2="8.306763" />
      <line x1="-0.056434" y1="7.791886" x2="-0.067373" y2="7.725596" />
      <line x1="-0.067373" y1="7.725596" x2="-0.067373" y2="8.240473" />
      <path d="M -0.067373,7.725596 C -0.073277,7.686061 -0.099781,7.641896 -0.143761,7.613515 C -0.18717,7.584495 -0.243811,7.574048 -0.289876,7.579447" />
      <path d="M -0.289876,7.579447 Q -0.646862,7.617177 -1.00596,7.634839" />
      <line x1="-1.00596" y1="7.634839" x2="-1.00596" y2="8.149717" />
      <path d="M -1.00596,7.634839 C -1.051114,7.636594 -1.102965,7.654439 -1.139492,7.68791 C -1.176685,7.724057 -1.195023,7.763424 -1.194506,7.806011" />
      <path d="M -1.194506,7.806011 L -1.194351,7.812772" />
      <line x1="-1.194351" y1="7.812772" x2="-1.194351" y2="8.314127" />
      <path d="M -1.194506,7.949731 C -1.21096,8.138015 -1.293542,8.41263 -1.415493,8.678517 C -1.540463,8.950437 -1.69365,9.210265 -1.931788,9.533455" />
      <line x1="-1.931788" y1="9.533455" x2="-1.931788" y2="10.048332" />
      <path d="M -1.931788,9.533455 Q -2.175895,9.528763 -2.419632,9.516336" />
      <line x1="-2.419632" y1="9.516336" x2="-2.419632" y2="10.031214" />
      <path d="M -2.419632,9.516336 C -2.595277,9.228335 -2.711702,8.99414 -2.805375,8.756004 C -2.897321,8.521437 -2.961679,8.284576 -2.989089,8.083087" />
      <path d="M -2.989089,7.729002 Q -2.988674,7.667486 -3.0393,7.615393 Q -3.093444,7.566507 -3.161355,7.559206" />
      <path d="M -3.161355,7.559206 Q -3.517568,7.516443 -3.869763,7.453829" />
      <line x1="-3.869763" y1="7.453829" x2="-3.869763" y2="7.968706" />
      <path d="M -3.869763,7.453829 C -3.915159,7.445219 -3.972606,7.451664 -4.018636,7.477545 C -4.065175,7.50275 -4.095802,7.54491 -4.105454,7.583899" />
      <line x1="-4.105454" y1="7.583899" x2="-4.105454" y2="8.098776" />
      <line x1="-4.105454" y1="7.583899" x2="-4.122677" y2="7.6492" />
      <line x1="-4.122677" y1="7.6492" x2="-4.122677" y2="8.164078" />
      <path d="M -4.122677,7.6492 C -4.172713,7.814343 -4.33508,8.078447 -4.540616,8.323933 C -4.64355,8.44787 -4.759276,8.571354 -4.887794,8.694385 C -5.017475,8.818298 -5.160474,8.942552 -5.33726,9.082331" />
      <line x1="-5.33726" y1="9.082331" x2="-5.33726" y2="9.597209" />
      <path d="M -5.33726,9.082331 Q -5.571633,9.023638 -5.803313,8.957555" />
      <line x1="-5.803313" y1="8.957555" x2="-5.803313" y2="9.472432" />
      <path d="M -5.803313,8.957555 C -5.884068,8.64793 -5.925636,8.400877 -5.945011,8.15565" />
      <path d="M -5.806933,7.060399 C -5.804296,6.991784 -5.863495,6.923341 -5.928879,6.902542" />
      <path d="M -5.928879,6.902542 Q -6.260044,6.782201 -6.581334,6.643576" />
      <line x1="-6.581334" y1="6.643576" x2="-6.581334" y2="7.158454" />
      <path d="M -6.581334,6.643576 C -6.622584,6.625188 -6.680019,6.618666 -6.732295,6.633453 C -6.784858,6.647473 -6.82717,6.681401 -6.848264,6.71692" />
      <line x1="-6.848264" y1="6.71692" x2="-6.848264" y2="7.231798" />
      <line x1="-6.848264" y1="6.71692" x2="-6.884616" y2="6.776175" />
      <line x1="-6.884616" y1="6.776175" x2="-6.884616" y2="7.291053" />
      <path d="M -6.884616,6.776175 C -6.982805,6.924589 -7.219376,7.143668 -7.492025,7.335186 C -7.62887,7.432061 -7.777934,7.525661 -7.939217,7.615985 C -8.10189,7.706902 -8.277531,7.795194 -8.490494,7.890986" />
      <line x1="-8.490494" y1="7.890986" x2="-8.490494" y2="8.405863" />
      <path d="M -8.490494,7.890986 Q -8.675758,7.794481 -8.857232,7.69281" />
      <path d="M -8.3269,5.789365 C -8.325992,5.734558 -8.36057,5.681889 -8.403848,5.654205" />
      <path d="M -8.403848,5.654205 Q -8.687396,5.464487 -8.955886,5.259299" />
      <line x1="-8.955886" y1="5.259299" x2="-8.955886" y2="5.774177" />
      <path d="M -8.955886,5.259299 C -8.990178,5.232385 -9.043687,5.213342 -9.098646,5.216026 C -9.153651,5.217906 -9.204764,5.24129 -9.235864,5.270918" />
      <line x1="-9.235864" y1="5.270918" x2="-9.235864" y2="5.785796" />
      <line x1="-9.235864" y1="5.270918" x2="-9.288866" y2="5.320089" />
      <line x1="-9.288866" y1="5.320089" x2="-9.288866" y2="5.834967" />
      <path d="M -9.288866,5.320089 C -9.428518,5.44166 -9.723171,5.600785 -10.044351,5.725282 C -10.205781,5.788494 -10.378025,5.845831 -10.561082,5.897292 C -10.745662,5.949018 -10.941974,5.995331 -11.176601,6.040607" />
      <line x1="-11.176601" y1="6.040607" x2="-11.176601" y2="6.555485" />
      <path d="M -11.176601,6.040607 L -11.357158,5.875447" />
      <path d="M -10.377261,4.00252 Q -10.379425,3.941344 -10.417594,3.899268" />
      <path d="M -10.417594,3.899268 Q -10.634202,3.653102 -10.831595,3.395334" />
      <line x1="-10.831595" y1="3.395334" x2="-10.831595" y2="3.910211" />
      <path d="M -10.831595,3.395334 C -10.856593,3.361728 -10.90253,3.331462 -10.956426,3.321861 C -11.010124,3.311472 -11.066556,3.322719 -11.105541,3.344437" />
      <line x1="-11.105541" y1="3.344437" x2="-11.105541" y2="3.859314" />
      <line x1="-11.105541" y1="3.344437" x2="-11.171582" y2="3.380172" />
      <line x1="-11.171582" y1="3.380172" x2="-11.171582" y2="3.89505" />
      <path d="M -11.171582,3.380172 C -11.34318,3.466615 -11.675834,3.554942 -12.023658,3.603935 C -12.198672,3.629175 -12.382357,3.646341 -12.574714,3.655433 C -12.768621,3.664443 -12.972226,3.665621 -13.212528,3.657296" />
      <line x1="-13.212528" y1="3.657296" x2="-13.212528" y2="4.172174" />
      <path d="M -13.212528,3.657296 L -13.264471,3.575214" />
      <path d="M -11.818285,1.821634 Q -11.818791,1.786401 -11.832886,1.757326" />
      <path d="M -11.832886,1.757326 Q -11.967792,1.471488 -12.080635,1.178707" />
      <line x1="-12.080635" y1="1.178707" x2="-12.080635" y2="1.693584" />
      <path d="M -12.080635,1.178707 C -12.094636,1.140699 -12.129869,1.101272 -12.179031,1.08004 C -12.227762,1.058091 -12.285667,1.056434 -12.32988,1.068762" />
      <line x1="-12.32988" y1="1.068762" x2="-12.32988" y2="1.583639" />
      <line x1="-12.32988" y1="1.068762" x2="-12.404461" y2="1.088626" />
      <line x1="-12.404461" y1="1.088626" x2="-12.404461" y2="1.603504" />
      <path d="M -12.404461,1.088626 C -12.594633,1.133653 -12.938639,1.145397 -13.286207,1.11643 C -13.461275,1.102402 -13.6421,1.078835 -13.82868,1.045729 C -14.016615,1.012232 -14.211233,0.969215 -14.436614,0.90957" />
      <line x1="-14.45953" y1="0.926959" x2="-14.45953" y2="1.418348" />
      <path d="M -12.551769,-0.604669 L -12.553272,-0.62565" />
      <path d="M -12.553272,-0.62565 Q -12.597284,-0.931681 -12.617887,-1.239523" />
      <line x1="-12.617887" y1="-1.239523" x2="-12.617887" y2="-0.724645" />
      <path d="M -12.617887,-1.239523 C -12.619936,-1.279342 -12.642065,-1.325243 -12.683141,-1.35666 C -12.723585,-1.388673 -12.779016,-1.403121 -12.825445,-1.401023" />
      <line x1="-12.825445" y1="-1.401023" x2="-12.825445" y2="-0.886146" />
      <line x1="-12.825445" y1="-1.401023" x2="-12.903482" y2="-1.398383" />
      <line x1="-12.903482" y1="-1.398383" x2="-12.903482" y2="-0.883505" />
      <path d="M -12.903482,-1.398383 C -13.0931,-1.397143 -13.412304,-1.457303 -13.726709,-1.555586 C -14.047792,-1.655897 -14.357918,-1.783669 -14.724535,-1.975536" />
      <path d="M -12.40257,-3.729375 Q -12.402432,-3.78824 -12.447913,-3.838086 Q -12.496096,-3.885341 -12.558465,-3.896607" />
      <line x1="-12.558465" y1="-3.896607" x2="-12.558465" y2="-3.381729" />
      <line x1="-12.558465" y1="-3.896607" x2="-12.634639" y2="-3.911371" />
      <line x1="-12.634639" y1="-3.911371" x2="-12.634639" y2="-3.396493" />
      <path d="M -12.634639,-3.911371 C -12.812412,-3.950974 -13.091255,-4.073529 -13.357271,-4.230999 C -13.628353,-4.39132 -13.883957,-4.576459 -14.165612,-4.824915" />
      <path d="M -11.440224,-6.096171 C -11.438289,-6.160629 -11.488927,-6.223995 -11.547132,-6.247918" />
      <line x1="-11.547132" y1="-6.247918" x2="-11.547132" y2="-5.73304" />
      <line x1="-11.547132" y1="-6.247918" x2="-11.616253" y2="-6.279081" />
      <line x1="-11.616253" y1="-6.279081" x2="-11.616253" y2="-5.764203" />
      <path d="M -11.616253,-6.279081 C -11.765006,-6.351464 -11.978192,-6.513611 -12.175258,-6.706175 C -12.375341,-6.901376 -12.558986,-7.119147 -12.740215,-7.382897" />
      <path d="M -9.796102,-8.168798 C -9.795496,-8.218828 -9.823674,-8.266573 -9.860368,-8.29472" />
      <line x1="-9.860368" y1="-8.29472" x2="-9.860368" y2="-7.779842" />
      <line x1="-9.860368" y1="-8.29472" x2="-9.917725" y2="-8.340157" />
      <line x1="-9.917725" y1="-8.340157" x2="-9.917725" y2="-7.82528" />
      <path d="M -9.917725,-8.340157 C -10.031616,-8.436427 -10.177059,-8.621697 -10.303102,-8.833188 C -10.430529,-9.045239 -10.540444,-9.282507 -10.632845,-9.544991" />
      <path d="M -7.582249,-9.806011 Q -7.583732,-9.85882 -7.613123,-9.897526" />
      <line x1="-7.613123" y1="-9.897526" x2="-7.613123" y2="-9.382649" />
      <line x1="-7.613123" y1="-9.897526" x2="-7.654808" y2="-9.954142" />
      <line x1="-7.654808" y1="-9.954142" x2="-7.654808" y2="-9.439264" />
      <path d="M -7.654808,-9.954142 C -7.731337,-10.066016 -7.811483,-10.261538 -7.868642,-10.478881 C -7.926888,-10.697927 -7.96328,-10.934638 -7.977818,-11.189013" />
      <path d="M -4.949536,-10.896237 Q -4.949787,-10.9235 -4.958542,-10.947108" />
      <line x1="-4.958542" y1="-10.947108" x2="-4.958542" y2="-10.43223" />
      <line x1="-4.958542" y1="-10.947108" x2="-4.981715" y2="-11.011043" />
      <line x1="-4.981715" y1="-11.011043" x2="-4.981715" y2="-10.496165" />
      <path d="M -4.981715,-11.011043 Q -5.00618,-11.088332 -5.019469,-11.199686" />
      <line x1="-2.077533" y1="-10.992259" x2="-2.077533" y2="-10.85706" />
      <line x1="-2.080612" y1="-10.929099" x2="-2.080612" y2="-10.923958" />
      <line x1="-0.271878" y1="-11.024886" x2="-0.271878" y2="-10.860489" />
      <line x1="-0.281325" y1="-11.116344" x2="-0.281325" y2="-10.794031" />
      <path d="M 2.673128,-11.199939 C 2.657693,-11.015216 2.623031,-10.849891 2.578735,-10.745746" />
      <line x1="2.578735" y1="-10.745746" x2="2.578735" y2="-10.230868" />
      <line x1="2.578735" y1="-10.745746" x2="2.549545" y2="-10.683648" />
      <line x1="2.549545" y1="-10.683648" x2="2.549545" y2="-10.16877" />
      <path d="M 2.549545,-10.683648 Q 2.535551,-10.654661 2.53505,-10.619565" />
      <path d="M 5.585349,-10.737099 C 5.547298,-10.479224 5.48849,-10.241221 5.408924,-10.02309 C 5.330604,-9.806376 5.23045,-9.612909 5.142124,-9.505095" />
      <line x1="5.142124" y1="-9.505095" x2="5.142124" y2="-8.990217" />
      <line x1="5.142124" y1="-9.505095" x2="5.095181" y2="-9.45159" />
      <line x1="5.095181" y1="-9.45159" x2="5.095181" y2="-8.936712" />
      <path d="M 5.095181,-9.45159 Q 5.057169,-9.409565 5.055017,-9.348531" />
      <path d="M 8.085275,-8.919736 C 7.96612,-8.654415 7.833612,-8.423997 7.683434,-8.214457 C 7.535283,-8.007318 7.368787,-7.827707 7.2436,-7.737963" />
      <line x1="7.2436" y1="-7.737963" x2="7.2436" y2="-7.223085" />
      <line x1="7.2436" y1="-7.737963" x2="7.182102" y2="-7.696697" />
      <line x1="7.182102" y1="-7.696697" x2="7.182102" y2="-7.181819" />
      <path d="M 7.182102,-7.696697 C 7.138938,-7.668998 7.104475,-7.616413 7.105377,-7.561686" />
      <path d="M 9.992588,-6.619503 C 9.781278,-6.358645 9.574618,-6.149178 9.351934,-5.962998 C 9.132822,-5.779549 8.898586,-5.627868 8.739949,-5.564778" />
      <line x1="8.739949" y1="-5.564778" x2="8.739949" y2="-5.0499" />
      <line x1="8.739949" y1="-5.564778" x2="8.668088" y2="-5.538562" />
      <line x1="8.668088" y1="-5.538562" x2="8.668088" y2="-5.023685" />
      <path d="M 8.668088,-5.538562 C 8.602826,-5.517703 8.543778,-5.449347 8.546401,-5.3808" />
      <path d="M 11.164731,-3.953859 C 10.854174,-3.71946 10.579378,-3.550221 10.290209,-3.406648 C 10.006671,-3.265759 9.71244,-3.160989 9.529199,-3.133638" />
      <line x1="9.529199" y1="-3.133638" x2="9.529199" y2="-2.61876" />
      <line x1="9.529199" y1="-3.133638" x2="9.451871" y2="-3.12426" />
      <line x1="9.451871" y1="-3.12426" x2="9.451871" y2="-2.609382" />
      <path d="M 9.451871,-3.12426 Q 9.384053,-3.116886 9.330013,-3.068026 Q 9.279476,-3.015971 9.279886,-2.954497" />
      <line x1="9.257777" y1="-0.471902" x2="9.257777" y2="0.042976" />
      <line x1="8.491777" y1="2.019234" x2="8.491777" y2="2.415474" />
      <line x1="7.035589" y1="4.417489" x2="7.035589" y2="4.537174" />
      <line x1="4.988451" y1="6.021259" x2="4.988451" y2="6.263486" />
      <line x1="2.489871" y1="6.961886" x2="2.489871" y2="7.476764" />
      <line x1="-0.289876" y1="7.579447" x2="-0.289876" y2="8.094325" />
      <line x1="-3.161355" y1="7.559206" x2="-3.161355" y2="8.074084" />
      <line x1="-5.928879" y1="6.902542" x2="-5.928879" y2="7.41742" />
      <line x1="-8.403848" y1="5.654205" x2="-8.403848" y2="6.169083" />
      <line x1="-10.417594" y1="3.899268" x2="-10.417594" y2="4.414146" />
      <line x1="-11.832886" y1="1.757326" x2="-11.832886" y2="2.272204" />
      <line x1="-12.553272" y1="-0.62565" x2="-12.553272" y2="-0.110772" />
      <path d="M 4.49737,7.133177 L 4.49737,7.353362" />
      <path d="M -0.099338,6.833375 L -0.099338,7.348253" />
      <path d="M -2.370368,2.008727 L -2.370368,2.518064" />
      <path d="M 0.361893,-2.832113 L 0.361893,-2.317235" />
      <path d="M 4.958601,-2.827003 L 4.958601,-2.312126" />
      <path d="M 7.229632,2.43085 L 7.229632,2.518064" />
      <line x1="12.364058" y1="-1.779583" x2="12.364058" y2="-1.264705" />
      <line x1="-15.635942" y1="-1.779583" x2="-15.635942" y2="-1.264705" />
      <path d="M 9.130687,0.170208 L 9.130687,0.685086" />
      <path d="M 8.168341,2.537004 L 8.168341,3.051882" />
      <path d="M 6.524219,4.665394 L 6.524219,5.12451" />
      <path d="M 4.310366,6.34258 L 4.310366,6.761723" />
      <path d="M 1.677653,7.33707 L 1.677653,7.851948" />
      <path d="M -1.194506,7.806011 L -1.194506,8.320888" />
      <path d="M -2.989089,7.729002 L -2.989089,8.24388" />
      <path d="M -5.806933,7.060399 L -5.806933,7.575276" />
      <path d="M -8.3269,5.789365 L -8.3269,6.304242" />
      <path d="M -10.377261,4.00252 L -10.377261,4.517397" />
      <path d="M -11.818285,1.821634 L -11.818285,2.336511" />
      <path d="M -12.551769,-0.604669 L -12.551769,-0.089791" />
      <path d="M -12.40257,-3.729375 L -12.40257,-3.214497" />
      <path d="M -11.440224,-6.096171 L -11.440224,-5.581293" />
      <path d="M -9.796102,-8.168798 L -9.796102,-7.653921" />
      <path d="M -7.582249,-9.806011 L -7.582249,-9.291134" />
      <path d="M -4.949536,-10.896237 L -4.949536,-10.381359" />
      <path d="M -2.077377,-10.994019 L -2.077377,-10.850299" />
      <path d="M -0.282794,-11.127376 L -0.282794,-10.773291" />
      <path d="M 2.53505,-10.619565 L 2.53505,-10.104687" />
      <path d="M 5.055017,-9.348531 L 5.055017,-8.833653" />
      <path d="M 7.105377,-7.561686 L 7.105377,-7.046808" />
      <path d="M 8.546401,-5.3808 L 8.546401,-4.865922" />
      <path d="M 9.279886,-2.954497 L 9.279886,-2.43962" />
    </g>
  </g>
</svg>