<?xml version='1.0' encoding='utf-8'?>
<svg width="100.089999mm" height="71.215003mm" viewBox="-13.0117 -9.257951 26.0234 18.515901" version="1.1" xmlns="http://www.w3.org/2000/svg">
  <g transform="scale(1,-1)" stroke-linecap="round">
    <g fill="none" stroke="rgb(0,0,0)" stroke-width="0.023400000179990752" id="Visible">
      <path d="M 10.632157,4.002626 L 10.631988,4.015359" />
      <path d="M 10.631988,4.015359 Q 10.718792,4.186156 10.760843,4.359022" />
      <path d="M 10.758117,3.946553 L 10.760843,4.359022" />
      <path d="M 10.760843,4.359022 C 10.78511,4.419845 11.117625,4.431097 11.269176,4.429496" />
      <path d="M 11.266287,3.876831 L 11.269176,4.429496" />
      <path d="M 12.612526,-4.801004 Q 12.814096,-4.767857 12.999234,-4.731191" />
      <path d="M 11.269176,4.429496 C 11.788208,4.433377 12.469415,4.527171 12.999234,4.6321" />
      <path d="M 12.999234,-4.731191 Q 12.991398,-0.201668 12.999234,4.6321" />
      <path d="M 12.999234,-4.731191 L 13.0,-4.681645" />
      <path d="M 12.999234,4.6321 L 13.0,4.681645" />
      <path d="M 13.0,4.681645 L 12.999234,4.731191" />
      <path d="M 12.999234,4.731191 C 12.469415,4.836121 11.788208,4.929915 11.269176,4.933796" />
      <path d="M 11.269176,4.933796 C 11.117625,4.932195 10.78511,4.943447 10.760843,5.00427" />
      <path d="M 10.760843,5.00427 Q 10.718792,5.177136 10.631988,5.347933" />
      <path d="M 10.631988,5.347933 L 10.630836,5.353883" />
      <path d="M 10.630836,5.353883 C 10.63134,5.41164 10.928235,5.450343 11.071052,5.462202" />
      <path d="M 11.078425,4.937695 L 11.071052,5.462202" />
      <path d="M 11.071052,5.462202 C 11.569537,5.513119 12.158396,5.665623 12.592817,5.815126" />
      <path d="M 12.612526,4.801004 Q 12.603831,5.306426 12.592817,5.815126" />
      <path d="M 12.592817,5.815126 L 12.519775,5.91084" />
      <path d="M 12.519775,5.91084 C 11.930664,5.964045 11.203531,5.992737 10.699324,5.949318" />
      <path d="M 10.699324,5.949318 C 10.554117,5.933999 10.224639,5.914649 10.156364,5.971195" />
      <path d="M 10.156364,5.971195 Q 9.988324,6.134349 9.778581,6.291437" />
      <path d="M 9.778581,6.291437 Q 9.768515,6.3001 9.768356,6.309099" />
      <path d="M 9.768356,6.309099 C 9.767579,6.362042 9.998265,6.418944 10.118454,6.441714" />
      <path d="M 10.133124,5.993542 L 10.118454,6.441714" />
      <path d="M 10.118454,6.441714 C 10.562422,6.536197 11.018803,6.737019 11.32822,6.920906" />
      <path d="M 11.36566,5.970071 Q 11.348997,6.444184 11.32822,6.920906" />
      <path d="M 11.32822,6.920906 L 11.187114,7.006721" />
      <path d="M 11.187114,7.006721 C 10.578858,7.004577 9.855352,6.966211 9.400331,6.87845" />
      <path d="M 9.400331,6.87845 C 9.271363,6.850457 8.967375,6.801825 8.859746,6.850239" />
      <path d="M 8.859746,6.850239 Q 8.577168,6.992562 8.258779,7.125237" />
      <path d="M 8.258779,7.125237 Q 8.230359,7.138702 8.230178,7.155659" />
      <path d="M 8.230178,7.155659 C 8.228288,7.205902 8.385766,7.27124 8.476301,7.30128" />
      <path d="M 8.490126,7.025451 L 8.476301,7.30128" />
      <path d="M 8.476301,7.30128 C 8.835495,7.43289 9.128296,7.668344 9.291623,7.874085" />
      <path d="M 9.348282,6.867947 Q 9.323286,7.369802 9.291623,7.874085" />
      <path d="M 9.291623,7.874085 L 9.09207,7.944153" />
      <path d="M 9.09207,7.944153 C 8.506121,7.886804 7.835548,7.783995 7.460721,7.657874" />
      <path d="M 7.460721,7.657874 C 7.356782,7.619114 7.098999,7.544513 6.959351,7.581497" />
      <path d="M 6.959351,7.581497 Q 6.581493,7.693291 6.176155,7.792511" />
      <path d="M 6.176155,7.792511 Q 6.117415,7.809795 6.117658,7.84036" />
      <path d="M 6.117658,7.84036 C 6.114918,7.88806 6.19993,7.950039 6.256501,7.982322" />
      <path d="M 6.270164,7.769238 L 6.256501,7.982322" />
      <path d="M 6.256501,7.982322 C 6.506444,8.142091 6.615711,8.396131 6.621818,8.609704" />
      <path d="M 6.688668,7.658993 Q 6.658958,8.133564 6.621818,8.609704" />
      <path d="M 6.621818,8.609704 L 6.377416,8.659249" />
      <path d="M 6.377416,8.659249 C 5.853705,8.550606 5.281763,8.39036 5.012675,8.234472" />
      <path d="M 5.012675,8.234472 C 4.940848,8.187588 4.746838,8.092102 4.584688,8.115135" />
      <path d="M 4.584688,8.115135 Q 4.137299,8.18878 3.672637,8.247783" />
      <path d="M 3.672637,8.247783 C 3.59518,8.259046 3.56755,8.29223 3.564941,8.328842" />
      <path d="M 3.564941,8.328842 C 3.562105,8.368324 3.58762,8.411688 3.610331,8.438429" />
      <path d="M 3.623511,8.260048 L 3.610331,8.438429" />
      <path d="M 3.610331,8.438429 Q 3.681596,8.544786 3.669083,8.677122" />
      <path d="M 3.669083,8.677122 C 3.658297,8.810162 3.592712,8.951718 3.500747,9.077632" />
      <path d="M 3.500747,9.077632 L 3.228152,9.103279" />
      <path d="M 3.228152,9.103279 C 2.802369,8.950744 2.368036,8.743982 2.223024,8.568952" />
      <path d="M 2.223024,8.568952 C 2.188203,8.517137 2.071188,8.407274 1.897586,8.414786" />
      <path d="M 1.897586,8.414786 Q 1.411156,8.445265 0.918834,8.46003" />
      <path d="M 0.918834,8.46003 C 0.765454,8.467397 0.722558,8.560374 0.718197,8.617988" />
      <path d="M 0.718197,8.617988 L 0.718123,8.638518" />
      <path d="M 0.721475,8.59645 L 0.718123,8.638518" />
      <path d="M 0.718123,8.638518 L 0.717793,8.643412" />
      <path d="M 0.717793,8.643412 C 0.702204,8.825129 0.43729,9.061584 0.141106,9.245982" />
      <path d="M 0.141106,9.245982 L -0.141106,9.245982" />
      <path d="M -0.141106,9.245982 C -0.43729,9.061584 -0.702204,8.825129 -0.717793,8.643412" />
      <path d="M -0.717793,8.643412 L -0.718123,8.638518" />
      <path d="M -0.721475,8.59645 L -0.718123,8.638518" />
      <path d="M -0.718123,8.638518 L -0.718197,8.617988" />
      <path d="M -0.718197,8.617988 C -0.722558,8.560374 -0.765454,8.467397 -0.918834,8.46003" />
      <path d="M -0.918834,8.46003 Q -1.411156,8.445265 -1.897586,8.414786" />
      <path d="M -1.897586,8.414786 C -2.071188,8.407274 -2.188203,8.517137 -2.223024,8.568952" />
      <path d="M -2.223024,8.568952 C -2.368036,8.743982 -2.802369,8.950744 -3.228152,9.103279" />
      <path d="M -3.228152,9.103279 L -3.500747,9.077632" />
      <path d="M -3.500747,9.077632 C -3.592712,8.951718 -3.658297,8.810162 -3.669083,8.677122" />
      <path d="M -3.669083,8.677122 Q -3.681596,8.544786 -3.610331,8.438429" />
      <path d="M -3.623511,8.260048 L -3.610331,8.438429" />
      <path d="M -3.610331,8.438429 C -3.58762,8.411688 -3.562105,8.368324 -3.564941,8.328842" />
      <path d="M -3.564941,8.328842 C -3.56755,8.29223 -3.59518,8.259046 -3.672637,8.247783" />
      <path d="M -3.672637,8.247783 Q -4.137299,8.18878 -4.584688,8.115135" />
      <path d="M -4.584688,8.115135 C -4.746838,8.092102 -4.940848,8.187588 -5.012675,8.234472" />
      <path d="M -5.012675,8.234472 C -5.281763,8.39036 -5.853705,8.550606 -6.377416,8.659249" />
      <path d="M -6.377416,8.659249 L -6.621818,8.609704" />
      <path d="M -6.688668,7.658993 Q -6.658958,8.133564 -6.621818,8.609704" />
      <path d="M -6.621818,8.609704 C -6.615711,8.396131 -6.506444,8.142091 -6.256501,7.982322" />
      <path d="M -6.270164,7.769238 L -6.256501,7.982322" />
      <path d="M -6.256501,7.982322 C -6.19993,7.950039 -6.114918,7.88806 -6.117658,7.84036" />
      <path d="M -6.117658,7.84036 Q -6.117415,7.809795 -6.176155,7.792511" />
      <path d="M -6.176155,7.792511 Q -6.581493,7.693291 -6.959351,7.581497" />
      <path d="M -6.959351,7.581497 C -7.098999,7.544513 -7.356782,7.619114 -7.460721,7.657874" />
      <path d="M -7.460721,7.657874 C -7.835548,7.783995 -8.506121,7.886804 -9.09207,7.944153" />
      <path d="M -9.09207,7.944153 L -9.291623,7.874085" />
      <path d="M -9.348282,6.867947 Q -9.323286,7.369802 -9.291623,7.874085" />
      <path d="M -9.291623,7.874085 C -9.128296,7.668344 -8.835495,7.43289 -8.476301,7.30128" />
      <path d="M -8.490126,7.025451 L -8.476301,7.30128" />
      <path d="M -8.476301,7.30128 C -8.385766,7.27124 -8.228288,7.205902 -8.230178,7.155659" />
      <path d="M -8.230178,7.155659 Q -8.230359,7.138702 -8.258779,7.125237" />
      <path d="M -8.258779,7.125237 Q -8.577168,6.992562 -8.859746,6.850239" />
      <path d="M -8.859746,6.850239 C -8.967375,6.801825 -9.271363,6.850457 -9.400331,6.87845" />
      <path d="M -9.400331,6.87845 C -9.855352,6.966211 -10.578858,7.004577 -11.187114,7.006721" />
      <path d="M -11.187114,7.006721 L -11.32822,6.920906" />
      <path d="M -11.36566,5.970071 Q -11.348997,6.444184 -11.32822,6.920906" />
      <path d="M -11.32822,6.920906 C -11.018803,6.737019 -10.562422,6.536197 -10.118454,6.441714" />
      <path d="M -10.133124,5.993542 L -10.118454,6.441714" />
      <path d="M -10.118454,6.441714 C -9.998265,6.418944 -9.767579,6.362042 -9.768356,6.309099" />
      <path d="M -9.768356,6.309099 Q -9.768515,6.3001 -9.778581,6.291437" />
      <path d="M -9.778581,6.291437 Q -9.988324,6.134349 -10.156364,5.971195" />
      <path d="M -10.156364,5.971195 C -10.224639,5.914649 -10.554117,5.933999 -10.699324,5.949318" />
      <path d="M -10.699324,5.949318 C -11.203531,5.992737 -11.930664,5.964045 -12.519775,5.91084" />
      <path d="M -12.519775,5.91084 L -12.592817,5.815126" />
      <path d="M -12.612526,4.801004 Q -12.603831,5.306426 -12.592817,5.815126" />
      <path d="M -12.592817,5.815126 C -12.158396,5.665623 -11.569537,5.513119 -11.071052,5.462202" />
      <path d="M -11.078425,4.937695 L -11.071052,5.462202" />
      <path d="M -11.071052,5.462202 C -10.928235,5.450343 -10.63134,5.41164 -10.630836,5.353883" />
      <path d="M -10.630836,5.353883 L -10.631988,5.347933" />
      <path d="M -10.631988,5.347933 Q -10.718792,5.177136 -10.760843,5.00427" />
      <path d="M -10.760843,5.00427 C -10.78511,4.943447 -11.117625,4.932195 -11.269176,4.933796" />
      <path d="M -11.269176,4.933796 C -11.788208,4.929915 -12.469415,4.836121 -12.999234,4.731191" />
      <path d="M -13.0,-4.681645 L -12.999234,-4.731191" />
      <path d="M -12.999234,4.731191 L -13.0,4.681645" />
      <path d="M -13.0,4.681645 L -12.999234,4.6321" />
      <path d="M -12.999234,-4.731191 Q -12.991398,-0.201668 -12.999234,4.6321" />
      <path d="M -12.999234,-4.731191 Q -12.814096,-4.767857 -12.612526,-4.801004" />
      <path d="M -12.999234,4.6321 C -12.469415,4.527171 -11.788208,4.433377 -11.269176,4.429496" />
      <path d="M -11.266287,3.876831 L -11.269176,4.429496" />
      <path d="M -11.269176,4.429496 C -11.117625,4.431097 -10.78511,4.419845 -10.760843,4.359022" />
      <path d="M -10.758117,3.946553 L -10.760843,4.359022" />
      <path d="M -10.760843,4.359022 Q -10.718792,4.186156 -10.631988,4.015359" />
      <path d="M -10.632157,4.002626 L -10.631988,4.015359" />
      <path d="M -10.631988,4.015359 L -10.630836,4.008979" />
      <path d="M -10.630836,4.008979 C -10.632838,3.951454 -10.928581,3.912922 -11.071052,3.90109" />
      <path d="M -11.071052,3.90109 C -11.569537,3.850173 -12.158396,3.697669 -12.592817,3.548166" />
      <path d="M -12.592817,-5.815126 Q -12.697383,-0.985819 -12.592817,3.548166" />
      <path d="M -12.592817,-5.815126 L -12.519775,-5.91084" />
      <path d="M -12.592817,3.548166 L -12.519775,3.452451" />
      <path d="M -12.519775,-5.91084 Q -12.40007,-1.375421 -12.519775,3.452451" />
      <path d="M -12.519775,-5.91084 C -12.156935,-5.943513 -11.748403,-5.966709 -11.36566,-5.970072" />
      <path d="M -12.519775,3.452451 C -11.930664,3.399246 -11.203531,3.370555 -10.699324,3.413974" />
      <path d="M -10.683518,2.751222 L -10.699324,3.413974" />
      <path d="M -10.699324,3.413974 C -10.554117,3.429293 -10.224639,3.448642 -10.156364,3.392097" />
      <path d="M -10.144597,2.915918 L -10.156364,3.392097" />
      <path d="M -10.156364,3.392097 Q -9.988324,3.228943 -9.778581,3.071854" />
      <path d="M -9.779869,3.032508 L -9.778581,3.071854" />
      <path d="M -9.778581,3.071854 Q -9.767886,3.062632 -9.768357,3.053037" />
      <path d="M -9.768357,3.053037 C -9.770983,3.000407 -9.999124,2.944188 -10.118454,2.921578" />
      <path d="M -10.118454,2.921578 C -10.562422,2.827095 -11.018803,2.626273 -11.32822,2.442386" />
      <path d="M -11.32822,-6.920906 Q -11.538063,-2.106133 -11.32822,2.442386" />
      <path d="M -11.32822,-6.920906 L -11.187114,-7.006722" />
      <path d="M -11.32822,2.442386 L -11.187114,2.35657" />
      <path d="M -11.187114,-7.006722 Q -10.963698,-2.455441 -11.187114,2.35657" />
      <path d="M -11.187114,-7.006722 C -10.578858,-7.004577 -9.855352,-6.966211 -9.400331,-6.87845" />
      <path d="M -11.187114,2.35657 C -10.578858,2.358715 -9.855352,2.397081 -9.400331,2.484842" />
      <path d="M -9.400331,-6.87845 L -9.374939,-6.288928" />
      <path d="M -9.337152,0.733533 Q -9.36164,1.605499 -9.400331,2.484842" />
      <path d="M -9.400331,-6.87845 Q -9.377305,-6.873457 -9.348282,-6.867947" />
      <path d="M -9.400331,2.484842 C -9.271363,2.512835 -8.967375,2.561467 -8.859746,2.513053" />
      <path d="M -8.834298,1.886467 L -8.859746,2.513053" />
      <path d="M -8.859746,2.513053 Q -8.577168,2.37073 -8.258779,2.238054" />
      <path d="M -8.262564,2.161837 L -8.258779,2.238054" />
      <path d="M -8.258779,2.238054 Q -8.228476,2.223626 -8.230181,2.20528" />
      <path d="M -8.230181,2.20528 C -8.233235,2.155337 -8.387153,2.091594 -8.476301,2.062012" />
      <path d="M -8.476301,2.062012 C -8.835495,1.930401 -9.128296,1.694948 -9.291623,1.489207" />
      <path d="M -9.291623,-7.874085 Q -9.592442,-3.082918 -9.291623,1.489207" />
      <path d="M -9.291623,-7.874085 L -9.09207,-7.944153" />
      <path d="M -9.291623,1.489207 L -9.09207,1.419139" />
      <path d="M -9.09207,-7.944153 Q -8.780169,-3.368126 -9.09207,1.419139" />
      <path d="M -9.09207,-7.944153 C -8.506121,-7.886805 -7.835548,-7.783995 -7.460721,-7.657874" />
      <path d="M -9.09207,1.419139 C -8.506121,1.476487 -7.835548,1.579296 -7.460721,1.705418" />
      <path d="M -7.460721,-7.657874 Q -7.17639,-3.062824 -7.460721,1.705418" />
      <path d="M -7.460721,-7.657874 C -7.356782,-7.619114 -7.098999,-7.544513 -6.959351,-7.581497" />
      <path d="M -7.460721,1.705418 C -7.356782,1.744177 -7.098999,1.818778 -6.959351,1.781795" />
      <path d="M -6.959351,-7.581497 Q -6.682836,-2.980469 -6.959351,1.781795" />
      <path d="M -6.959351,-7.581497 L -6.688668,-7.658993" />
      <path d="M -6.959351,1.781795 Q -6.581493,1.670001 -6.176155,1.570781" />
      <path d="M -6.185036,1.429045 L -6.176155,1.570781" />
      <path d="M -6.176155,1.570781 Q -6.112837,1.55186 -6.117669,1.517845" />
      <path d="M -6.117669,1.517845 C -6.120925,1.470867 -6.201902,1.412129 -6.256501,1.380969" />
      <path d="M -6.256501,1.380969 C -6.493083,1.22992 -6.603824,0.993518 -6.61991,0.788148" />
      <path d="M -6.61991,0.788148 L -6.621818,0.753588" />
      <path d="M -6.621818,-8.609704 Q -6.935364,-4.589963 -6.719352,-0.682113" />
      <path d="M -6.719352,-0.682113 Q -6.679567,0.037635 -6.621818,0.753588" />
      <path d="M -6.621818,-8.609704 L -6.377416,-8.659249" />
      <path d="M -6.621818,0.753588 L -6.377416,0.704042" />
      <path d="M -6.377416,-8.659249 Q -5.998285,-4.051279 -6.377416,0.704042" />
      <path d="M -6.377416,-8.659249 C -5.853705,-8.550606 -5.281763,-8.39036 -5.012675,-8.234472" />
      <path d="M -6.377416,0.704042 C -5.853705,0.812686 -5.281763,0.972932 -5.012675,1.128819" />
      <path d="M -5.012675,-8.234472 Q -4.674197,-3.610632 -5.012675,1.128819" />
      <path d="M -5.012675,-8.234472 C -4.940848,-8.187588 -4.746838,-8.092102 -4.584688,-8.115135" />
      <path d="M -5.012675,1.128819 C -4.940848,1.175704 -4.746838,1.271189 -4.584688,1.248157" />
      <path d="M -4.584688,-8.115135 Q -4.258165,-3.486231 -4.584688,1.248157" />
      <path d="M -4.584688,-8.115135 Q -4.151577,-8.186431 -3.702189,-8.244014" />
      <path d="M -4.584688,1.248157 Q -4.137299,1.174511 -3.672637,1.115508" />
      <path d="M -3.814593,-1.687921 Q -3.774234,-0.28223 -3.672637,1.115508" />
      <path d="M -3.672637,1.115508 C -3.586022,1.102908 -3.561786,1.062956 -3.564981,1.021376" />
      <path d="M -3.564981,1.021376 C -3.567678,0.985657 -3.590094,0.948686 -3.610331,0.924862" />
      <path d="M -3.669083,-8.677122 C -3.658297,-8.810162 -3.592712,-8.951718 -3.500747,-9.077632" />
      <path d="M -3.610331,0.924862 Q -3.662739,0.848513 -3.669267,0.756463" />
      <path d="M -3.669267,0.756463 C -3.681171,0.604704 -3.609089,0.433976 -3.500747,0.285659" />
      <path d="M -3.500747,-9.077632 Q -3.917215,-4.35395 -3.500747,0.285659" />
      <path d="M -3.500747,-9.077632 L -3.228152,-9.103279" />
      <path d="M -3.500747,0.285659 L -3.228152,0.260013" />
      <path d="M -3.228152,-9.103279 Q -2.807628,-4.458344 -3.228152,0.260013" />
      <path d="M -3.228152,-9.103279 C -2.802369,-8.950744 -2.368036,-8.743982 -2.223024,-8.568952" />
      <path d="M -3.228152,0.260013 C -2.802369,0.412548 -2.368036,0.61931 -2.223024,0.79434" />
      <path d="M -2.223024,-8.568952 Q -1.853466,-3.912382 -2.223024,0.79434" />
      <path d="M -2.223024,-8.568952 C -2.188203,-8.517137 -2.071188,-8.407274 -1.897586,-8.414786" />
      <path d="M -2.223024,0.79434 C -2.188203,0.846154 -2.071188,0.956017 -1.897586,0.948506" />
      <path d="M -1.897586,-8.414786 Q -1.543308,-3.754412 -1.897586,0.948506" />
      <path d="M -1.897586,-8.414786 Q -1.411156,-8.445265 -0.918834,-8.46003" />
      <path d="M -1.897586,0.948506 Q -1.411156,0.918027 -0.918834,0.903262" />
      <path d="M -0.918834,-8.46003 Q -1.276723,-3.766735 -0.918834,0.903262" />
      <path d="M -0.918834,-8.46003 C -0.783828,-8.466403 -0.734197,-8.539614 -0.721571,-8.596025" />
      <path d="M -0.918834,0.903262 C -0.745637,0.894742 -0.713574,0.778024 -0.718121,0.7248" />
      <path d="M -0.718121,0.7248 L -0.718123,0.724774" />
      <path d="M -0.718123,-8.638518 Q -0.887641,-6.520523 -0.904083,-4.406346" />
      <path d="M -0.904083,-4.406346 Q -0.924059,-1.837969 -0.718123,0.724774" />
      <path d="M -0.718123,-8.638518 L -0.717793,-8.643412" />
      <path d="M -0.717793,-8.643412 C -0.702204,-8.825129 -0.43729,-9.061584 -0.141106,-9.245982" />
      <path d="M -0.718123,0.724774 C -0.70707,0.54253 -0.439944,0.303342 -0.141106,0.11731" />
      <path d="M -0.141106,-9.245982 Q -0.574364,-4.561579 -0.141106,0.11731" />
      <path d="M -0.141106,-9.245982 L 0.141106,-9.245982" />
      <path d="M -0.141106,0.11731 L 0.141106,0.11731" />
      <path d="M 0.141106,-9.245982 Q 0.574364,-4.561579 0.141106,0.11731" />
      <path d="M 0.141106,-9.245982 C 0.43729,-9.061584 0.702204,-8.825129 0.717793,-8.643412" />
      <path d="M 0.717793,-8.643412 L 0.718123,-8.638518" />
      <path d="M 0.141106,0.11731 C 0.439944,0.303342 0.70707,0.54253 0.718123,0.724774" />
      <path d="M 0.718123,-8.638518 Q 0.887641,-6.520523 0.904083,-4.406346" />
      <path d="M 0.904083,-4.406346 Q 0.924059,-1.837969 0.718123,0.724774" />
      <path d="M 0.721571,-8.596025 C 0.734197,-8.539614 0.783828,-8.466403 0.918834,-8.46003" />
      <path d="M 0.718123,0.724774 L 0.718121,0.7248" />
      <path d="M 0.718121,0.7248 C 0.713574,0.778024 0.745637,0.894742 0.918834,0.903262" />
      <path d="M 0.918834,-8.46003 Q 1.276723,-3.766735 0.918834,0.903262" />
      <path d="M 0.918834,-8.46003 Q 1.411156,-8.445265 1.897586,-8.414786" />
      <path d="M 0.918834,0.903262 Q 1.411156,0.918027 1.897586,0.948506" />
      <path d="M 1.897586,-8.414786 Q 1.543308,-3.754412 1.897586,0.948506" />
      <path d="M 1.897586,-8.414786 C 2.071188,-8.407274 2.188203,-8.517137 2.223024,-8.568952" />
      <path d="M 1.897586,0.948506 C 2.071188,0.956017 2.188203,0.846154 2.223024,0.79434" />
      <path d="M 2.223024,-8.568952 Q 1.853466,-3.912382 2.223024,0.79434" />
      <path d="M 2.223024,-8.568952 C 2.368036,-8.743982 2.802369,-8.950744 3.228152,-9.103279" />
      <path d="M 2.223024,0.79434 C 2.368036,0.61931 2.802369,0.412548 3.228152,0.260013" />
      <path d="M 3.228152,-9.103279 Q 2.807628,-4.458344 3.228152,0.260013" />
      <path d="M 3.228152,-9.103279 L 3.500747,-9.077632" />
      <path d="M 3.228152,0.260013 L 3.500747,0.285659" />
      <path d="M 3.500747,-9.077632 Q 3.917215,-4.35395 3.500747,0.285659" />
      <path d="M 3.500747,-9.077632 C 3.592712,-8.951718 3.658297,-8.810162 3.669083,-8.677122" />
      <path d="M 3.500747,0.285659 C 3.609089,0.433976 3.681171,0.604704 3.669267,0.756463" />
      <path d="M 3.669267,0.756463 Q 3.662739,0.848513 3.610331,0.924862" />
      <path d="M 3.610331,0.924862 C 3.590094,0.948686 3.567678,0.985657 3.564981,1.021376" />
      <path d="M 3.564981,1.021376 C 3.561786,1.062956 3.586022,1.102908 3.672637,1.115508" />
      <path d="M 3.814593,-1.687921 Q 3.774234,-0.28223 3.672637,1.115508" />
      <path d="M 3.702189,-8.244014 Q 4.151577,-8.186431 4.584688,-8.115135" />
      <path d="M 3.672637,1.115508 Q 4.137299,1.174511 4.584688,1.248157" />
      <path d="M 4.584688,-8.115135 Q 4.258165,-3.486231 4.584688,1.248157" />
      <path d="M 4.584688,-8.115135 C 4.746838,-8.092102 4.940848,-8.187588 5.012675,-8.234472" />
      <path d="M 4.584688,1.248157 C 4.746838,1.271189 4.940848,1.175704 5.012675,1.128819" />
      <path d="M 5.012675,-8.234472 Q 4.674197,-3.610632 5.012675,1.128819" />
      <path d="M 5.012675,-8.234472 C 5.281763,-8.39036 5.853705,-8.550606 6.377416,-8.659249" />
      <path d="M 5.012675,1.128819 C 5.281763,0.972932 5.853705,0.812686 6.377416,0.704042" />
      <path d="M 6.377416,-8.659249 Q 5.998285,-4.051279 6.377416,0.704042" />
      <path d="M 6.377416,-8.659249 L 6.621818,-8.609704" />
      <path d="M 6.377416,0.704042 L 6.621818,0.753588" />
      <path d="M 6.621818,-8.609704 Q 6.935364,-4.589963 6.719352,-0.682113" />
      <path d="M 6.719352,-0.682113 Q 6.679567,0.037635 6.621818,0.753588" />
      <path d="M 6.621818,0.753588 L 6.61991,0.788148" />
      <path d="M 6.61991,0.788148 C 6.603824,0.993518 6.493083,1.22992 6.256501,1.380969" />
      <path d="M 6.256501,1.380969 C 6.201902,1.412129 6.120925,1.470867 6.117669,1.517845" />
      <path d="M 6.117669,1.517845 Q 6.112837,1.55186 6.176155,1.570781" />
      <path d="M 6.185036,1.429045 L 6.176155,1.570781" />
      <path d="M 6.688668,-7.658993 L 6.959351,-7.581497" />
      <path d="M 6.176155,1.570781 Q 6.581493,1.670001 6.959351,1.781795" />
      <path d="M 6.959351,-7.581497 Q 6.682836,-2.980469 6.959351,1.781795" />
      <path d="M 6.959351,-7.581497 C 7.098999,-7.544513 7.356782,-7.619114 7.460721,-7.657874" />
      <path d="M 6.959351,1.781795 C 7.098999,1.818778 7.356782,1.744177 7.460721,1.705418" />
      <path d="M 7.460721,-7.657874 Q 7.17639,-3.062824 7.460721,1.705418" />
      <path d="M 7.460721,-7.657874 C 7.835548,-7.783995 8.506121,-7.886805 9.09207,-7.944153" />
      <path d="M 7.460721,1.705418 C 7.835548,1.579296 8.506121,1.476487 9.09207,1.419139" />
      <path d="M 9.09207,-7.944153 Q 8.780169,-3.368126 9.09207,1.419139" />
      <path d="M 9.09207,-7.944153 L 9.291623,-7.874085" />
      <path d="M 9.09207,1.419139 L 9.291623,1.489207" />
      <path d="M 9.291623,-7.874085 Q 9.592442,-3.082918 9.291623,1.489207" />
      <path d="M 9.291623,1.489207 C 9.128296,1.694948 8.835495,1.930401 8.476301,2.062012" />
      <path d="M 8.476301,2.062012 C 8.387153,2.091594 8.233235,2.155337 8.230181,2.20528" />
      <path d="M 8.230181,2.20528 Q 8.228476,2.223626 8.258779,2.238054" />
      <path d="M 8.262564,2.161837 L 8.258779,2.238054" />
      <path d="M 8.258779,2.238054 Q 8.577168,2.37073 8.859746,2.513053" />
      <path d="M 8.834298,1.886467 L 8.859746,2.513053" />
      <path d="M 9.348282,-6.867947 Q 9.377305,-6.873457 9.400331,-6.87845" />
      <path d="M 8.859746,2.513053 C 8.967375,2.561467 9.271363,2.512835 9.400331,2.484842" />
      <path d="M 9.400331,-6.87845 L 9.374939,-6.288928" />
      <path d="M 9.337152,0.733533 Q 9.36164,1.605499 9.400331,2.484842" />
      <path d="M 9.400331,-6.87845 C 9.855352,-6.966211 10.578858,-7.004577 11.187114,-7.006722" />
      <path d="M 9.400331,2.484842 C 9.855352,2.397081 10.578858,2.358715 11.187114,2.35657" />
      <path d="M 11.187114,-7.006722 Q 10.963698,-2.455441 11.187114,2.35657" />
      <path d="M 11.187114,-7.006722 L 11.32822,-6.920906" />
      <path d="M 11.187114,2.35657 L 11.32822,2.442386" />
      <path d="M 11.32822,-6.920906 Q 11.538063,-2.106133 11.32822,2.442386" />
      <path d="M 11.32822,2.442386 C 11.018803,2.626273 10.562422,2.827095 10.118454,2.921578" />
      <path d="M 10.118454,2.921578 C 9.999124,2.944188 9.770983,3.000407 9.768357,3.053037" />
      <path d="M 9.768357,3.053037 Q 9.767886,3.062632 9.778581,3.071854" />
      <path d="M 9.779869,3.032508 L 9.778581,3.071854" />
      <path d="M 9.778581,3.071854 Q 9.988324,3.228943 10.156364,3.392097" />
      <path d="M 10.144597,2.915918 L 10.156364,3.392097" />
      <path d="M 10.156364,3.392097 C 10.224639,3.448642 10.554117,3.429293 10.699324,3.413974" />
      <path d="M 10.683518,2.751222 L 10.699324,3.413974" />
      <path d="M 11.36566,-5.970072 C 11.748403,-5.966709 12.156935,-5.943513 12.519775,-5.91084" />
      <path d="M 10.699324,3.413974 C 11.203531,3.370555 11.930664,3.399246 12.519775,3.452451" />
      <path d="M 12.519775,-5.91084 Q 12.40007,-1.375421 12.519775,3.452451" />
      <path d="M 12.519775,-5.91084 L 12.592817,-5.815126" />
      <path d="M 12.519775,3.452451 L 12.592817,3.548166" />
      <path d="M 12.592817,-5.815126 Q 12.697383,-0.985819 12.592817,3.548166" />
      <path d="M 12.592817,3.548166 C 12.158396,3.697669 11.569537,3.850173 11.071052,3.90109" />
      <path d="M 11.071052,3.90109 C 10.928581,3.912922 10.632838,3.951454 10.630836,4.008979" />
      <path d="M 10.630836,4.008979 L 10.631988,4.015359" />
      <path d="M 13.0,-4.681645 L 13.0,4.681645" />
      <path d="M 3.702189,8.244014 L 3.669083,8.677122" />
      <path d="M 0.721571,8.596025 L 0.717793,8.643412" />
      <path d="M -0.717793,8.643412 L -0.721571,8.596025" />
      <path d="M -3.702189,8.244014 L -3.669083,8.677122" />
      <path d="M -13.0,-4.681645 L -13.0,4.681645" />
      <path d="M -6.61991,0.788148 Q -6.678648,0.053784 -6.719352,-0.682113" />
      <path d="M -3.669083,-8.677122 C -3.921584,-5.538142 -3.921372,-2.375838 -3.669267,0.756463" />
      <path d="M -0.718123,0.724774 L -0.718121,0.7248" />
      <path d="M -0.717793,-8.643412 Q -0.887388,-6.529599 -0.904083,-4.406346" />
      <path d="M 0.717793,-8.643412 Q 0.887388,-6.529599 0.904083,-4.406346" />
      <path d="M 0.718123,0.724774 L 0.718121,0.7248" />
      <path d="M 3.669083,-8.677122 C 3.921584,-5.538142 3.921372,-2.375838 3.669267,0.756463" />
      <path d="M 6.719352,-0.682113 Q 6.678648,0.053784 6.61991,0.788148" />
    </g>
  </g>
</svg>