<?xml version='1.0' encoding='utf-8'?>
<svg width="100.09mm" height="65.661955mm" viewBox="-19.790953 -14.515044 45.420377 29.79709" version="1.1" xmlns="http://www.w3.org/2000/svg">
  <g transform="scale(1,-1)" stroke-linecap="round">
    <g fill="none" stroke="rgb(0,0,0)" stroke-width="0.040841581897563276" id="Visible">
      <path d="M 12.141901,5.376681 Q 11.988365,5.121346 11.870362,4.852481" />
      <path d="M 11.870362,4.852481 C 11.809437,4.711518 11.58351,4.65999 11.371298,4.678666 C 11.153779,4.696208 10.956772,4.760602 10.764449,4.846111" />
      <path d="M 10.764449,4.846111 C 10.518363,4.885764 10.180893,4.859981 9.879088,4.800592 C 9.572103,4.740561 9.299164,4.654107 9.029721,4.547845" />
      <path d="M 11.332775,-2.837084 Q 11.502669,-2.713931 11.696777,-2.629316" />
      <path d="M 11.253004,-2.862645 Q 11.2948,-2.850626 11.332775,-2.837084" />
      <path d="M 9.029721,4.547845 Q 8.955487,4.234639 8.913887,3.917027" />
      <line x1="8.913887" y1="3.29589" x2="8.913887" y2="3.917027" />
      <line x1="10.457817" y1="3.167541" x2="10.457817" y2="3.176225" />
      <path d="M 10.457817,3.176225 C 10.671481,3.206936 10.882035,3.21632 11.095319,3.175714 C 11.303959,3.137585 11.500492,3.029036 11.507954,2.878843" />
      <line x1="11.507954" y1="2.109512" x2="11.507954" y2="2.878843" />
      <path d="M 8.913887,3.917027 C 9.132216,3.744929 9.360971,3.590758 9.631594,3.452765 C 9.897517,3.316748 10.209423,3.203314 10.457817,3.176225" />
      <line x1="11.405885" y1="4.676612" x2="11.405885" y2="6.084392" />
      <path d="M 11.405885,6.084392 C 11.585529,6.026949 11.749649,5.957146 11.899114,5.85427 C 12.045509,5.75386 12.169926,5.612853 12.16954,5.478899" />
      <path d="M 12.16954,5.478899 Q 12.169665,5.424344 12.141901,5.376681" />
      <line x1="12.995158" y1="4.999491" x2="12.141901" y2="5.376681" />
      <path d="M 12.466869,2.917959 C 12.424332,3.627544 12.612567,4.369217 12.995158,4.999491" />
      <line x1="11.507954" y1="2.878843" x2="12.466869" y2="2.917959" />
      <path d="M 14.147626,7.268114 Q 13.865751,7.112804 13.606759,6.930545" />
      <path d="M 13.606759,6.930545 C 13.471789,6.834585 13.246079,6.886811 13.073189,6.993955 C 12.895043,7.102393 12.761984,7.242612 12.645295,7.39911" />
      <path d="M 12.645295,7.39911 C 12.455303,7.538942 12.148009,7.661279 11.852004,7.739223 C 11.551138,7.818833 11.264346,7.860964 10.969031,7.884444" />
      <path d="M 10.969031,7.884444 Q 10.722084,7.645021 10.500831,7.387794" />
      <line x1="10.500831" y1="4.865157" x2="10.500831" y2="7.387794" />
      <path d="M 10.500831,7.387794 C 10.589543,7.14516 10.69774,6.913582 10.851631,6.678067 C 11.002603,6.446277 11.206569,6.214333 11.405885,6.084392" />
      <path d="M 11.696777,-5.36964 Q 11.976034,-5.581361 12.276057,-5.771054" />
      <path d="M 13.796315,-4.995101 C 13.872126,-4.821101 13.967924,-4.660074 14.115582,-4.522016 C 14.258416,-4.386166 14.46633,-4.294517 14.621773,-4.364073" />
      <path d="M 12.276057,-5.771054 C 12.55906,-5.694996 12.829167,-5.602233 13.103867,-5.470294 C 13.374222,-5.340857 13.644755,-5.165985 13.796315,-4.995101" />
      <path d="M 14.621773,-4.364073 Q 14.912526,-4.492587 15.218392,-4.592086" />
      <path d="M 15.218392,-5.776787 C 15.218347,-5.988034 15.264045,-6.221283 15.330853,-6.432411 C 15.398431,-6.645848 15.484669,-6.838878 15.588508,-7.032319" />
      <path d="M 15.588508,-7.032319 Q 15.953825,-7.095964 16.324279,-7.13163" />
      <path d="M 17.188334,-5.263595 C 17.232441,-5.083873 17.359239,-4.914021 17.535194,-4.907592" />
      <path d="M 16.324279,-7.13163 C 16.525011,-6.944444 16.704832,-6.74832 16.865784,-6.516299 C 17.024432,-6.288309 17.156738,-6.020894 17.188334,-5.807933" />
      <path d="M 17.535194,-4.907592 Q 17.869879,-4.893923 18.200464,-4.847107" />
      <path d="M 18.200464,-4.847107 C 18.373315,-4.821862 18.538328,-4.963847 18.625569,-5.130751 C 18.716609,-5.301028 18.750067,-5.4795 18.759855,-5.665054" />
      <path d="M 18.759855,-5.665054 C 18.842844,-5.867597 19.037624,-6.105274 19.248515,-6.299667 C 19.462645,-6.497586 19.686444,-6.657014 19.928501,-6.803942" />
      <path d="M 19.928501,-6.803942 Q 20.281992,-6.702457 20.623615,-6.574539" />
      <path d="M 20.623615,-6.574539 C 20.690869,-6.316444 20.733182,-6.058485 20.73393,-5.776316" />
      <path d="M 20.73393,-3.914858 Q 20.82651,-3.854881 20.916131,-3.791805" />
      <path d="M 20.916131,-3.791805 C 21.051101,-3.695845 21.276811,-3.74807 21.4497,-3.855215 C 21.627847,-3.963652 21.760906,-4.103871 21.877595,-4.260369" />
      <path d="M 21.877595,-4.260369 C 22.067587,-4.400201 22.374881,-4.522538 22.670886,-4.600483 C 22.971752,-4.680093 23.258544,-4.722224 23.553859,-4.745703" />
      <path d="M 23.553859,-4.745703 Q 23.800806,-4.506281 24.022059,-4.249054" />
      <path d="M 24.022059,-1.726416 C 24.268964,-1.727173 24.54255,-1.68816 24.790062,-1.63079 C 25.040318,-1.572755 25.266532,-1.49853 25.493169,-1.409105" />
      <path d="M 25.493169,-1.409105 Q 25.567403,-1.095898 25.609003,-0.778287" />
      <path d="M 11.507954,2.878843 Q 11.523897,2.591898 11.578502,2.308469" />
      <line x1="11.578502" y1="2.241078" x2="11.578502" y2="2.308469" />
      <path d="M 11.578502,2.308469 L 11.581548,2.274914" />
      <path d="M 11.581548,2.274914 C 11.583066,2.131801 11.413746,2.003996 11.225086,1.935213 C 11.032315,1.863789 10.832999,1.836932 10.624467,1.828873" />
      <path d="M 10.624467,1.828873 C 10.388225,1.757721 10.111005,1.590726 9.884269,1.409917 C 9.653421,1.226331 9.467468,1.034456 9.296094,0.826927" />
      <line x1="9.296094" y1="0.280039" x2="9.296094" y2="0.826927" />
      <path d="M 9.296094,0.826927 Q 9.414464,0.523859 9.563665,0.230967" />
      <line x1="9.563665" y1="0.228048" x2="9.563665" y2="0.230967" />
      <line x1="11.332775" y1="-2.837084" x2="11.332775" y2="0.251262" />
      <path d="M 11.332775,0.251262 C 11.499903,0.369451 11.676775,0.467838 11.885166,0.524103 C 12.08809,0.580522 12.321597,0.570764 12.41565,0.443892" />
      <line x1="12.41565" y1="-0.753478" x2="12.41565" y2="0.443892" />
      <path d="M 9.563665,0.230967 C 9.853109,0.175518 10.141127,0.140065 10.45597,0.13657 C 10.76559,0.13277 11.101861,0.168241 11.332775,0.251262" />
      <line x1="14.147626" y1="7.268114" x2="14.666596" y2="6.575685" />
      <path d="M 12.995158,4.999491 C 13.372142,5.632245 13.967693,6.193859 14.666596,6.575685" />
      <path d="M 13.223282,0.888834 C 12.772623,1.485118 12.503104,2.208117 12.466869,2.917959" />
      <path d="M 15.061718,-0.544183 C 14.323689,-0.220974 13.668635,0.289626 13.223282,0.888834" />
      <path d="M 14.666596,6.575685 C 15.362088,6.962061 16.205377,7.193134 17.033321,7.224201" />
      <path d="M 17.489569,-0.997115 C 16.661925,-1.033584 15.796856,-0.8722 15.061718,-0.544183" />
      <path d="M 17.033321,7.224201 C 17.860965,7.26067 18.726034,7.099285 19.461172,6.771269" />
      <path d="M 19.856294,-0.348599 C 19.160802,-0.734975 18.317513,-0.966048 17.489569,-0.997115" />
      <path d="M 19.461172,6.771269 C 20.199201,6.448059 20.854255,5.93746 21.299608,5.338252" />
      <path d="M 21.527732,1.227594 C 21.150748,0.594841 20.555197,0.033226 19.856294,-0.348599" />
      <path d="M 21.299608,5.338252 C 21.750267,4.741968 22.019786,4.018969 22.056021,3.309126" />
      <path d="M 22.056021,3.309126 C 22.098558,2.599541 21.910323,1.857869 21.527732,1.227594" />
      <line x1="12.41565" y1="0.443892" x2="13.223282" y2="0.888834" />
      <line x1="13.922946" y1="7.137824" x2="13.922946" y2="8.196523" />
      <path d="M 13.922946,8.196523 C 14.019375,8.098772 14.100601,7.99397 14.166624,7.882117 C 14.23156,7.769441 14.279516,7.641762 14.279706,7.521944" />
      <path d="M 14.279706,7.521944 C 14.280563,7.414714 14.237514,7.317686 14.147626,7.268114" />
      <path d="M 16.987696,8.046332 Q 16.653011,8.032663 16.322426,7.985847" />
      <path d="M 16.322426,7.985847 C 16.149575,7.960602 15.984562,8.102587 15.897321,8.269491 C 15.806281,8.439768 15.772823,8.618241 15.763035,8.803794" />
      <path d="M 15.763035,8.803794 C 15.680046,9.006338 15.485266,9.244015 15.274375,9.438408 C 15.060245,9.636326 14.836446,9.795754 14.594389,9.942683" />
      <path d="M 14.594389,9.942683 Q 14.240898,9.841198 13.899275,9.713279" />
      <path d="M 13.899275,9.713279 C 13.832021,9.455184 13.789708,9.197225 13.78896,8.915056" />
      <path d="M 13.78896,8.915056 C 13.788042,8.659554 13.830236,8.386085 13.922946,8.196523" />
      <path d="M 12.41565,0.443892 Q 12.596799,0.202225 12.809381,-0.019824" />
      <line x1="12.809381" y1="-0.369928" x2="12.809381" y2="-0.019824" />
      <path d="M 12.809381,-0.019824 Q 12.868893,-0.08483 12.868437,-0.173763" />
      <path d="M 12.868437,-0.173763 C 12.868415,-0.303439 12.776012,-0.445457 12.662154,-0.557887 C 12.546087,-0.669521 12.412988,-0.764939 12.262859,-0.84414" />
      <path d="M 12.262859,-0.84414 C 12.099762,-1.007031 11.957071,-1.270491 11.866158,-1.524273 C 11.773303,-1.782222 11.724162,-2.028105 11.696777,-2.281295" />
      <line x1="11.696777" y1="-5.36964" x2="11.696777" y2="-2.281295" />
      <path d="M 11.696777,-2.281295 Q 11.976034,-2.493016 12.276057,-2.682709" />
      <line x1="12.276057" y1="-5.771054" x2="12.276057" y2="-2.682709" />
      <line x1="13.796315" y1="-4.995101" x2="13.796315" y2="-1.906755" />
      <path d="M 13.796315,-1.906755 C 13.872126,-1.732756 13.967924,-1.571729 14.115582,-1.43367 C 14.258416,-1.297821 14.46633,-1.206172 14.621773,-1.275728" />
      <line x1="14.621773" y1="-4.364073" x2="14.621773" y2="-1.275728" />
      <path d="M 12.276057,-2.682709 C 12.55906,-2.606651 12.829167,-2.513888 13.103867,-2.381949 C 13.374222,-2.252512 13.644755,-2.07764 13.796315,-1.906755" />
      <path d="M 14.621773,-1.275728 Q 14.91959,-1.407363 15.233188,-1.508533" />
      <line x1="15.233188" y1="-2.495526" x2="15.233188" y2="-1.508533" />
      <path d="M 15.233188,-1.508533 C 15.375003,-1.553646 15.441985,-1.70682 15.439613,-1.864764" />
      <path d="M 15.439613,-1.864764 C 15.436617,-2.075734 15.352371,-2.27181 15.240617,-2.456695" />
      <path d="M 15.240617,-2.456695 Q 15.218226,-2.562024 15.218392,-2.688442" />
      <path d="M 15.218392,-2.688442 C 15.218347,-2.899689 15.264045,-3.132938 15.330853,-3.344065 C 15.398431,-3.557503 15.484669,-3.750533 15.588508,-3.943974" />
      <line x1="15.588508" y1="-7.032319" x2="15.588508" y2="-3.943974" />
      <path d="M 15.588508,-3.943974 Q 15.953825,-4.007619 16.324279,-4.043284" />
      <line x1="16.324279" y1="-7.13163" x2="16.324279" y2="-4.043284" />
      <line x1="17.188334" y1="-5.807933" x2="17.188334" y2="-2.719588" />
      <path d="M 17.188334,-2.719588 Q 17.158283,-2.572905 17.157445,-2.428967" />
      <path d="M 17.157445,-2.428967 C 17.157443,-2.296441 17.179477,-2.155675 17.2415,-2.035338 C 17.302018,-1.915616 17.408514,-1.824172 17.535194,-1.819246" />
      <line x1="17.535194" y1="-4.907592" x2="17.535194" y2="-1.819246" />
      <path d="M 16.324279,-4.043284 C 16.525011,-3.856099 16.704832,-3.659975 16.865784,-3.427954 C 17.024432,-3.199964 17.156738,-2.932549 17.188334,-2.719588" />
      <path d="M 19.901117,7.502814 Q 19.6033,7.634448 19.289702,7.735619" />
      <path d="M 19.289702,7.735619 C 19.147887,7.780732 19.080905,7.933905 19.083277,8.09185" />
      <path d="M 19.083277,8.09185 C 19.086273,8.30282 19.170519,8.498896 19.282273,8.68378" />
      <line x1="19.282273" y1="7.738193" x2="19.282273" y2="8.68378" />
      <path d="M 19.282273,8.68378 Q 19.304664,8.78911 19.304498,8.915528" />
      <path d="M 19.304498,8.915528 C 19.304543,9.126775 19.258845,9.360024 19.192037,9.571151 C 19.124459,9.784588 19.038221,9.977618 18.934382,10.171059" />
      <path d="M 18.934382,10.171059 Q 18.569065,10.234704 18.198611,10.27037" />
      <line x1="17.334555" y1="8.402336" x2="17.334555" y2="8.946673" />
      <path d="M 17.334555,8.946673 Q 17.364607,8.799991 17.365445,8.656052" />
      <path d="M 17.365445,8.656052 C 17.365447,8.523527 17.343413,8.38276 17.28139,8.262424 C 17.220872,8.142702 17.114376,8.051258 16.987696,8.046332" />
      <path d="M 18.198611,10.27037 C 17.997879,10.083184 17.818058,9.88706 17.657106,9.65504 C 17.498458,9.427049 17.366152,9.159635 17.334555,8.946673" />
      <path d="M 17.535194,-1.819246 Q 17.869879,-1.805578 18.200464,-1.758762" />
      <line x1="18.200464" y1="-4.847107" x2="18.200464" y2="-1.758762" />
      <path d="M 18.200464,-1.758762 C 18.373315,-1.733517 18.538328,-1.875501 18.625569,-2.042405 C 18.716609,-2.212683 18.750067,-2.391155 18.759855,-2.576709" />
      <line x1="18.759855" y1="-5.665054" x2="18.759855" y2="-2.576709" />
      <path d="M 18.759855,-2.576709 C 18.842844,-2.779252 19.037624,-3.016929 19.248515,-3.211322 C 19.462645,-3.409241 19.686444,-3.568669 19.928501,-3.715597" />
      <line x1="19.928501" y1="-6.803942" x2="19.928501" y2="-3.715597" />
      <path d="M 19.928501,-3.715597 Q 20.281992,-3.614112 20.623615,-3.486194" />
      <line x1="20.623615" y1="-6.574539" x2="20.623615" y2="-3.486194" />
      <path d="M 20.599944,-1.969437 C 20.503515,-1.871686 20.422289,-1.766884 20.356266,-1.655032 C 20.29133,-1.542355 20.243374,-1.414676 20.243184,-1.294858" />
      <path d="M 20.243184,-1.294858 C 20.242327,-1.187628 20.285376,-1.0906 20.375264,-1.041028" />
      <line x1="20.375264" y1="-1.686905" x2="20.375264" y2="-1.041028" />
      <path d="M 20.623615,-3.486194 C 20.690869,-3.228099 20.733182,-2.97014 20.73393,-2.687971" />
      <path d="M 20.73393,-2.687971 C 20.734848,-2.432468 20.692654,-2.158998 20.599944,-1.969437" />
      <path d="M 22.10724,5.783194 Q 21.926091,6.02486 21.713508,6.246909" />
      <path d="M 21.713508,6.246909 Q 21.653997,6.311916 21.654453,6.400849" />
      <path d="M 21.654453,6.400849 C 21.654475,6.530525 21.746878,6.672543 21.860736,6.784972 C 21.976803,6.896607 22.109902,6.992025 22.260031,7.071226" />
      <line x1="22.260031" y1="5.687695" x2="22.260031" y2="7.071226" />
      <path d="M 22.260031,7.071226 C 22.423128,7.234117 22.565819,7.497577 22.656732,7.751359 C 22.749587,8.009308 22.798728,8.25519 22.826113,8.50838" />
      <line x1="22.826113" y1="5.768056" x2="22.826113" y2="8.50838" />
      <path d="M 22.826113,8.50838 Q 22.546856,8.720102 22.246833,8.909795" />
      <path d="M 20.726575,8.133841 C 20.650764,7.959842 20.554966,7.798815 20.407308,7.660756 C 20.264473,7.524907 20.05656,7.433257 19.901117,7.502814" />
      <path d="M 22.246833,8.909795 C 21.96383,8.833736 21.693723,8.740973 21.419023,8.609034 C 21.148668,8.479598 20.878135,8.304726 20.726575,8.133841" />
      <path d="M 20.375264,-1.041028 Q 20.657138,-0.885718 20.916131,-0.70346" />
      <line x1="20.916131" y1="-3.791805" x2="20.916131" y2="-0.70346" />
      <path d="M 20.916131,-0.70346 C 21.051101,-0.6075 21.276811,-0.659725 21.4497,-0.76687 C 21.627847,-0.875307 21.760906,-1.015526 21.877595,-1.172024" />
      <line x1="21.877595" y1="-4.260369" x2="21.877595" y2="-1.172024" />
      <path d="M 21.877595,-1.172024 C 22.067587,-1.311856 22.374881,-1.434193 22.670886,-1.512137 C 22.971752,-1.591747 23.258544,-1.633879 23.553859,-1.657358" />
      <line x1="23.553859" y1="-4.745703" x2="23.553859" y2="-1.657358" />
      <path d="M 23.553859,-1.657358 Q 23.800806,-1.417935 24.022059,-1.160709" />
      <line x1="24.022059" y1="-4.249054" x2="24.022059" y2="-1.160709" />
      <path d="M 23.117005,0.142694 C 22.937361,0.200137 22.773241,0.26994 22.623776,0.372816 C 22.477381,0.473226 22.352964,0.614233 22.35335,0.748186" />
      <path d="M 22.35335,0.748186 Q 22.353225,0.802742 22.380989,0.850405" />
      <line x1="22.380989" y1="0.633138" x2="22.380989" y2="0.850405" />
      <path d="M 24.022059,-1.160709 C 23.933346,-0.918074 23.82515,-0.686497 23.671259,-0.450981 C 23.520287,-0.219191 23.316321,0.012753 23.117005,0.142694" />
      <path d="M 23.014936,3.348243 Q 22.998993,3.635187 22.944388,3.918616" />
      <path d="M 22.944388,3.918616 L 22.941342,3.952172" />
      <path d="M 22.941342,3.952172 C 22.939824,4.095285 23.109144,4.22309 23.297804,4.291872 C 23.490575,4.363297 23.689891,4.390154 23.898423,4.398213" />
      <line x1="23.898423" y1="3.031663" x2="23.898423" y2="4.398213" />
      <path d="M 23.898423,4.398213 C 24.134665,4.469365 24.411885,4.63636 24.638621,4.817169 C 24.869469,5.000755 25.055422,5.192629 25.226796,5.400159" />
      <line x1="25.226796" y1="2.582629" x2="25.226796" y2="5.400159" />
      <path d="M 25.226796,5.400159 Q 25.108426,5.703226 24.959225,5.996119" />
      <path d="M 23.190115,5.975824 C 23.022987,5.857634 22.846115,5.759248 22.637724,5.702983 C 22.4348,5.646564 22.201293,5.656322 22.10724,5.783194" />
      <path d="M 24.959225,5.996119 C 24.66978,6.051567 24.381763,6.087021 24.06692,6.090516 C 23.7573,6.094316 23.421028,6.058845 23.190115,5.975824" />
      <path d="M 22.380989,0.850405 Q 22.534525,1.10574 22.652528,1.374605" />
      <line x1="22.652528" y1="0.353415" x2="22.652528" y2="1.374605" />
      <path d="M 22.652528,1.374605 C 22.713453,1.515567 22.93938,1.567096 23.151592,1.54842 C 23.369111,1.530878 23.566118,1.466483 23.758441,1.380974" />
      <line x1="23.758441" y1="-0.59201" x2="23.758441" y2="1.380974" />
      <path d="M 23.758441,1.380974 C 24.004527,1.341322 24.341997,1.367105 24.643802,1.426494 C 24.950787,1.486525 25.223726,1.572979 25.493169,1.67924" />
      <line x1="25.493169" y1="-1.409105" x2="25.493169" y2="1.67924" />
      <path d="M 25.493169,1.67924 Q 25.567403,1.992447 25.609003,2.310058" />
      <line x1="25.609003" y1="-0.778287" x2="25.609003" y2="2.310058" />
      <path d="M 24.065073,3.050861 C 23.851409,3.02015 23.640855,3.010766 23.427571,3.051372 C 23.218931,3.0895 23.022398,3.19805 23.014936,3.348243" />
      <path d="M 25.609003,2.310058 C 25.390674,2.482157 25.161919,2.636327 24.891296,2.77432 C 24.625373,2.910338 24.313467,3.023772 24.065073,3.050861" />
      <line x1="16.987696" y1="8.046332" x2="17.033321" y2="7.224201" />
      <line x1="14.621773" y1="-1.275728" x2="15.061718" y2="-0.544183" />
      <line x1="17.535194" y1="-1.819246" x2="17.489569" y2="-0.997115" />
      <line x1="19.901117" y1="7.502814" x2="19.461172" y2="6.771269" />
      <line x1="20.375264" y1="-1.041028" x2="19.856294" y2="-0.348599" />
      <line x1="22.10724" y1="5.783194" x2="21.299608" y2="5.338252" />
      <line x1="22.380989" y1="0.850405" x2="21.527732" y2="1.227594" />
      <line x1="23.014936" y1="3.348243" x2="22.056021" y2="3.309126" />
      <line x1="8.722777" y1="0.546025" x2="8.722777" y2="0.557588" />
      <path d="M 8.722777,0.557588 Q 8.741878,0.858899 8.74188,1.160671" />
      <path d="M 8.74188,1.160671 L 8.741787,1.202922" />
      <path d="M 10.207921,-4.587549 C 10.532218,-4.531478 10.823795,-4.458609 11.119486,-4.370441" />
      <path d="M 11.119486,-4.370441 Q 11.197916,-4.008452 11.253004,-3.643312" />
      <path d="M 8.741787,1.202922 C 8.740865,1.287301 8.852065,1.356175 8.973491,1.39405 C 9.09667,1.433198 9.224,1.447782 9.327969,1.455077" />
      <line x1="9.327969" y1="0.865186" x2="9.327969" y2="1.455077" />
      <path d="M 9.327969,1.455077 C 9.624551,1.478689 10.02662,1.594709 10.374855,1.733373 C 10.729783,1.87419 11.034649,2.030167 11.334293,2.204554" />
      <line x1="11.334293" y1="1.983344" x2="11.334293" y2="2.204554" />
      <path d="M 11.334293,2.204554 Q 11.300773,2.571612 11.243756,2.936535" />
      <path d="M 9.098714,3.308579 C 8.995272,3.297017 8.867207,3.288381 8.737191,3.304509 C 8.609201,3.319707 8.483625,3.367054 8.463885,3.449722" />
      <path d="M 11.243756,2.936535 C 10.908117,3.053163 10.571876,3.150852 10.190394,3.224717 C 9.815983,3.297679 9.394476,3.338821 9.098714,3.308579" />
      <path d="M 9.293366,0.280385 C 9.191111,0.292036 9.066675,0.311777 8.947099,0.355137 C 8.829222,0.397233 8.721767,0.468771 8.722608,0.551809" />
      <path d="M 8.722608,0.551809 L 8.722777,0.557588" />
      <line x1="7.764192" y1="0.602261" x2="8.722777" y2="0.557588" />
      <path d="M 7.524478,3.280163 C 7.740094,2.404162 7.82137,1.496211 7.764192,0.602261" />
      <line x1="8.463885" y1="3.449722" x2="7.524478" y2="3.280163" />
      <line x1="8.099767" y1="-2.368943" x2="8.099767" y2="-2.293448" />
      <path d="M 8.099767,-2.293448 Q 8.216846,-1.986539 8.312943,-1.674321" />
      <line x1="8.312943" y1="-2.57449" x2="8.312943" y2="-1.674321" />
      <path d="M 8.179727,-7.613124 C 8.459434,-7.665595 8.760446,-7.693722 9.040813,-7.703872 C 9.32371,-7.714036 9.587284,-7.707693 9.859446,-7.690621" />
      <path d="M 9.859446,-7.690621 Q 10.044481,-7.35837 10.207921,-7.017896" />
      <path d="M 8.312943,-1.674321 C 8.337525,-1.592612 8.465729,-1.550761 8.594451,-1.541121 C 8.72525,-1.53064 8.852644,-1.544808 8.955273,-1.560832" />
      <line x1="8.955273" y1="-2.877505" x2="8.955273" y2="-1.560832" />
      <path d="M 8.955273,-1.560832 C 9.248877,-1.603836 9.67227,-1.580988 10.050499,-1.524323 C 10.435843,-1.467063 10.777407,-1.38405 11.119486,-1.282096" />
      <line x1="11.119486" y1="-4.370441" x2="11.119486" y2="-1.282096" />
      <path d="M 11.119486,-1.282096 Q 11.197916,-0.920107 11.253004,-0.554967" />
      <line x1="11.253004" y1="-3.643312" x2="11.253004" y2="-0.554967" />
      <path d="M 11.253004,-0.554967 C 10.96401,-0.367834 10.668716,-0.198862 10.322531,-0.042863 C 9.982904,0.110694 9.588179,0.243968 9.293366,0.280385" />
      <path d="M 5.306639,-9.761688 C 5.424224,-9.808671 5.524639,-9.874521 5.603224,-9.931707" />
      <path d="M 5.603224,-9.931707 C 5.832413,-10.094811 6.212406,-10.256524 6.573009,-10.369589 C 6.940121,-10.485189 7.284336,-10.559718 7.640043,-10.618065" />
      <path d="M 7.640043,-10.618065 Q 7.919073,-10.338194 8.179727,-10.045589" />
      <path d="M 1.841405,-11.749686 Q 2.075607,-11.643478 2.304512,-11.529174" />
      <path d="M 2.304512,-11.529174 C 2.389284,-11.4863 2.514454,-11.534429 2.613425,-11.605649 C 2.714558,-11.677534 2.792954,-11.764784 2.852308,-11.838333" />
      <path d="M 2.852308,-11.838333 C 3.02445,-12.046736 3.342677,-12.287259 3.65686,-12.476489 C 3.976566,-12.669612 4.286553,-12.817984 4.612526,-12.953274" />
      <path d="M 4.612526,-12.953274 Q 4.966536,-12.744856 5.306639,-12.52006" />
      <path d="M -1.548223,-12.800665 Q -1.179672,-12.734141 -0.816247,-12.649383" />
      <path d="M -0.816247,-12.649383 C -0.721421,-12.626781 -0.615045,-12.701045 -0.540946,-12.7918 C -0.46496,-12.883677 -0.415575,-12.98535 -0.380446,-13.069563" />
      <path d="M -0.380446,-13.069563 C -0.277083,-13.309064 -0.042308,-13.612006 0.204045,-13.864505 C 0.454556,-14.12199 0.709191,-14.334092 0.983215,-14.537106" />
      <path d="M 0.983215,-14.537106 Q 1.38808,-14.414345 1.784456,-14.272678" />
      <path d="M 1.784456,-14.272678 C 1.819933,-14.027614 1.841141,-13.789438 1.841405,-13.531449" />
      <path d="M -4.921542,-13.022627 Q -4.545466,-13.040151 -4.168839,-13.038925" />
      <path d="M -4.168839,-13.038925 C -4.070421,-13.038135 -3.990088,-13.133474 -3.945911,-13.237579 C -3.90025,-13.343187 -3.88324,-13.452354 -3.874731,-13.541493" />
      <path d="M -3.874731,-13.541493 C -3.847191,-13.795768 -3.711867,-14.140484 -3.550134,-14.439046 C -3.385888,-14.743346 -3.20396,-15.004724 -3.000558,-15.261626" />
      <path d="M -3.000558,-15.261626 Q -2.57243,-15.232888 -2.146793,-15.184004" />
      <path d="M -1.701225,-12.966856 C -1.675668,-12.884031 -1.623732,-12.813994 -1.548223,-12.800665" />
      <path d="M -2.146793,-15.184004 C -2.025899,-14.928347 -1.923779,-14.675057 -1.841044,-14.391107 C -1.759394,-14.111189 -1.701043,-13.797802 -1.701225,-13.533677" />
      <path d="M -8.246924,-12.488486 Q -7.888953,-12.588864 -7.524788,-12.671254" />
      <path d="M -7.524788,-12.671254 Q -7.456842,-12.68883 -7.418542,-12.753166" />
      <path d="M -7.418542,-13.530042 C -7.418582,-13.788621 -7.374626,-14.07571 -7.3111,-14.335456 C -7.246797,-14.598233 -7.165325,-14.835864 -7.067307,-15.077459" />
      <path d="M -7.067307,-15.077459 Q -6.645091,-15.144702 -6.2192,-15.191932" />
      <path d="M -5.244865,-13.511825 C -5.231118,-13.423168 -5.207702,-13.314876 -5.155881,-13.211379 C -5.105632,-13.109319 -5.019788,-13.017578 -4.921542,-13.022627" />
      <path d="M -6.2192,-15.191932 C -6.000932,-14.944161 -5.803847,-14.69099 -5.621894,-14.394186 C -5.442788,-14.103005 -5.287341,-13.764585 -5.244865,-13.511825" />
      <path d="M -11.297749,-11.234644 Q -11.131038,-11.32786 -10.961031,-11.416661" />
      <path d="M -10.961031,-13.527083 Q -10.960579,-13.762605 -10.939887,-13.997157" />
      <path d="M -10.939887,-13.997157 Q -10.552357,-14.155798 -10.155236,-14.295924" />
      <path d="M -8.706909,-12.88927 C -8.666867,-12.806684 -8.611558,-12.707278 -8.530259,-12.618807 C -8.450911,-12.531374 -8.340298,-12.461809 -8.246924,-12.488486" />
      <path d="M -10.155236,-14.295924 C -9.869609,-14.105029 -9.602811,-13.904217 -9.337459,-13.657902 C -9.076554,-13.416386 -8.824241,-13.123992 -8.706909,-12.88927" />
      <path d="M -14.35439,-12.094339 Q -14.027956,-12.333567 -13.686668,-12.55704" />
      <path d="M -11.86305,-11.5197 C -11.799441,-11.448814 -11.716008,-11.365068 -11.610771,-11.297652 C -11.507733,-11.230806 -11.379889,-11.188155 -11.297749,-11.234644" />
      <path d="M -13.686668,-12.55704 C -13.353145,-12.43603 -13.034818,-12.301263 -12.704149,-12.122223 C -12.379225,-11.946832 -12.047242,-11.720388 -11.86305,-11.5197" />
      <path d="M -17.078124,-9.498679 Q -16.835031,-9.802192 -16.572834,-10.093782" />
      <path d="M -14.498201,-9.496449 Q -14.434333,-9.453706 -14.35439,-9.410857" />
      <path d="M -16.572834,-10.093782 C -16.214145,-10.050904 -15.865981,-9.991366 -15.492531,-9.891802 C -15.125731,-9.794488 -14.736701,-9.649427 -14.498201,-9.496449" />
      <path d="M -18.925469,-6.387069 Q -18.782284,-6.734182 -18.617046,-7.074017" />
      <path d="M -18.617046,-7.074017 C -18.36868,-7.100474 -18.127852,-7.117471 -17.870808,-7.121857 C -17.615529,-7.126127 -17.343175,-7.116959 -17.078124,-7.087461" />
      <path d="M -19.770532,-2.971557 Q -19.737013,-3.338616 -19.679996,-3.703538" />
      <path d="M -19.679996,-3.703538 C -19.433182,-3.789374 -19.190757,-3.863221 -18.925469,-3.92708" />
      <path d="M 8.463885,3.449722 Q 8.386293,3.765702 8.287434,4.077286" />
      <path d="M 8.287434,4.077286 Q 8.282806,4.092196 8.282826,4.107664" />
      <path d="M 8.282826,4.107664 C 8.282396,4.186653 8.372496,4.267702 8.473382,4.325111 C 8.575695,4.383744 8.685144,4.422617 8.777522,4.450923" />
      <line x1="8.777522" y1="3.300205" x2="8.777522" y2="4.450923" />
      <path d="M 8.777522,4.450923 C 9.05687,4.539542 9.410214,4.740828 9.704724,4.95204 C 10.005048,5.166817 10.252439,5.385129 10.48923,5.620065" />
      <line x1="10.48923" y1="4.865161" x2="10.48923" y2="5.620065" />
      <path d="M 10.48923,5.620065 Q 10.346044,5.967178 10.180807,6.307014" />
      <path d="M 7.996543,6.190396 C 7.900116,6.156275 7.779021,6.119515 7.648567,6.106243 C 7.520349,6.092523 7.38476,6.110391 7.340736,6.185862" />
      <path d="M 10.180807,6.307014 C 9.821396,6.34519 9.467122,6.364939 9.076341,6.351636 C 8.692662,6.33903 8.273096,6.285238 7.996543,6.190396" />
      <line x1="8.099767" y1="-2.293448" x2="7.187331" y2="-2.037587" />
      <path d="M 7.764192,0.602261 C 7.708014,-0.291737 7.512427,-1.186785 7.187331,-2.037587" />
      <path d="M 6.484525,5.813626 C 6.957242,5.015319 7.309841,4.156341 7.524478,3.280163" />
      <path d="M 4.715205,8.029997 C 5.412807,7.363788 6.012701,6.61232 6.484525,5.813626" />
      <path d="M 7.187331,-2.037587 C 6.863187,-2.888656 6.404067,-3.709806 5.833208,-4.459479" />
      <path d="M 2.337093,9.778235 C 3.212041,9.289525 4.018347,8.696779 4.715205,8.029997" />
      <path d="M 5.833208,-4.459479 C 5.263187,-5.209621 4.571823,-5.900912 3.794103,-6.498367" />
      <path d="M -0.487745,10.939201 C 0.504922,10.661294 1.462692,10.267665 2.337093,9.778235" />
      <path d="M 3.794103,-6.498367 C 3.017053,-7.096461 2.140558,-7.610783 1.208979,-8.015304" />
      <path d="M -3.566803,11.433775 C -2.524065,11.385611 -1.480101,11.217924 -0.487745,10.939201" />
      <path d="M 1.208979,-8.015304 C 0.277853,-8.42059 -0.72404,-8.722893 -1.745993,-8.906913" />
      <path d="M -6.690246,11.228255 C -5.668499,11.413115 -4.609486,11.482797 -3.566803,11.433775" />
      <path d="M -1.745993,-8.906913 C -2.76774,-9.091773 -3.826753,-9.161456 -4.869437,-9.112434" />
      <path d="M -9.645218,10.336646 C -8.714092,10.741932 -7.7122,11.044235 -6.690246,11.228255" />
      <path d="M -4.869437,-9.112434 C -5.912174,-9.064269 -6.956138,-8.896582 -7.948494,-8.617859" />
      <path d="M -12.230343,8.819709 C -11.453292,9.417802 -10.576798,9.932125 -9.645218,10.336646" />
      <path d="M -7.948494,-8.617859 C -8.941161,-8.339952 -9.898931,-7.946323 -10.773332,-7.456893" />
      <path d="M -14.269447,6.780821 C -13.699427,7.530963 -13.008062,8.222254 -12.230343,8.819709" />
      <path d="M -10.773332,-7.456893 C -11.648281,-6.968183 -12.454587,-6.375437 -13.151444,-5.708655" />
      <path d="M -15.62357,4.358929 C -15.299426,5.209998 -14.840307,6.031148 -14.269447,6.780821" />
      <path d="M -13.151444,-5.708655 C -13.849047,-5.042446 -14.44894,-4.290979 -14.920764,-3.492284" />
      <path d="M -16.200431,1.719081 C -16.144253,2.613078 -15.948667,3.508127 -15.62357,4.358929" />
      <path d="M -14.920764,-3.492284 C -15.393481,-2.693977 -15.74608,-1.834999 -15.960717,-0.958821" />
      <path d="M -15.960717,-0.958821 C -16.176333,-0.08282 -16.257609,0.825131 -16.200431,1.719081" />
      <line x1="7.340736" y1="6.185862" x2="6.484525" y2="5.813626" />
      <path d="M 8.567232,-2.687819 C 8.477814,-2.655974 8.372565,-2.613179 8.274832,-2.551522 C 8.178451,-2.491076 8.092842,-2.408235 8.093192,-2.329893" />
      <path d="M 8.093192,-2.329893 Q 8.093157,-2.311148 8.099767,-2.293448" />
      <line x1="6.637314" y1="-5.06895" x2="6.637314" y2="-4.909091" />
      <path d="M 6.637314,-4.909091 Q 6.843053,-4.63862 7.030129,-4.358364" />
      <line x1="7.030129" y1="-5.436862" x2="7.030129" y2="-4.358364" />
      <path d="M 7.030129,-4.358364 C 7.07854,-4.284894 7.215009,-4.272917 7.342255,-4.292169 C 7.471761,-4.31107 7.590537,-4.353024 7.684832,-4.391275" />
      <line x1="7.684832" y1="-6.13154" x2="7.684832" y2="-4.391275" />
      <path d="M 7.684832,-4.391275 C 7.955449,-4.497964 8.371313,-4.569846 8.75376,-4.599041 C 9.14326,-4.62924 9.498245,-4.624849 9.859446,-4.602276" />
      <line x1="9.859446" y1="-7.690621" x2="9.859446" y2="-4.602276" />
      <path d="M 9.859446,-4.602276 Q 10.044481,-4.270025 10.207921,-3.929551" />
      <line x1="10.207921" y1="-7.017896" x2="10.207921" y2="-3.929551" />
      <path d="M 10.207921,-3.929551 C 9.985265,-3.684666 9.751043,-3.455926 9.463747,-3.228425 C 9.182049,-3.004736 8.841006,-2.788414 8.567232,-2.687819" />
      <path d="M 7.340736,6.185862 Q 7.1704,6.473857 6.980848,6.752887" />
      <path d="M 6.980848,6.752887 Q 6.961819,6.781677 6.962008,6.816606" />
      <path d="M 6.962008,6.816606 C 6.961915,6.893164 7.027796,6.980878 7.103922,7.050978 C 7.181063,7.122182 7.266608,7.178197 7.341443,7.222544" />
      <line x1="7.341443" y1="6.184696" x2="7.341443" y2="7.222544" />
      <path d="M 7.341443,7.222544 C 7.58452,7.37013 7.86506,7.642964 8.085774,7.912331 C 8.311028,8.186432 8.484085,8.452201 8.641884,8.731676" />
      <line x1="8.641884" y1="6.320457" x2="8.641884" y2="8.731676" />
      <path d="M 8.641884,8.731676 Q 8.398791,9.035189 8.136595,9.326779" />
      <path d="M 6.061962,8.729446 C 5.979121,8.67509 5.87325,8.612712 5.751247,8.570945 C 5.631541,8.52924 5.495177,8.516412 5.429871,8.579543" />
      <path d="M 8.136595,9.326779 C 7.777906,9.283901 7.429741,9.224363 7.056292,9.124799 C 6.689492,9.027484 6.300462,8.882424 6.061962,8.729446" />
      <path d="M 5.429871,8.579543 Q 5.178398,8.819927 4.911071,9.047388" />
      <path d="M 4.911071,9.047388 Q 4.865772,9.088333 4.866599,9.154089" />
      <path d="M 4.866599,9.154089 C 4.866663,9.228973 4.907534,9.315217 4.956923,9.389122 C 5.009031,9.463805 5.06259,9.527783 5.117599,9.581057" />
      <line x1="5.117599" y1="8.867625" x2="5.117599" y2="9.581057" />
      <path d="M 5.117599,9.581057 C 5.30784,9.777554 5.496458,10.103343 5.628334,10.412508 C 5.763167,10.727253 5.850097,11.022368 5.918151,11.327336" />
      <line x1="5.918151" y1="8.643853" x2="5.918151" y2="11.327336" />
      <path d="M 5.918151,11.327336 Q 5.591717,11.566564 5.250429,11.790037" />
      <path d="M 3.426811,10.752697 C 3.363202,10.681811 3.279768,10.598065 3.174532,10.530648 C 3.071494,10.463802 2.943649,10.421152 2.86151,10.46764" />
      <path d="M 5.250429,11.790037 C 4.916906,11.669027 4.598578,11.53426 4.26791,11.35522 C 3.942986,11.179828 3.611003,10.953385 3.426811,10.752697" />
      <line x1="4.435081" y1="-7.407447" x2="4.435081" y2="-7.11109" />
      <path d="M 4.435081,-7.11109 Q 4.71546,-6.895488 4.980765,-6.666294" />
      <line x1="4.980765" y1="-8.279067" x2="4.980765" y2="-6.666294" />
      <path d="M 4.980765,-6.666294 C 5.049705,-6.60607 5.18514,-6.624783 5.302238,-6.671615 C 5.421626,-6.71861 5.52369,-6.78549 5.603224,-6.843362" />
      <line x1="5.603224" y1="-9.931707" x2="5.603224" y2="-6.843362" />
      <path d="M 5.603224,-6.843362 C 5.832413,-7.006466 6.212406,-7.168179 6.573009,-7.281244 C 6.940121,-7.396843 7.284336,-7.471373 7.640043,-7.52972" />
      <line x1="7.640043" y1="-10.618065" x2="7.640043" y2="-7.52972" />
      <path d="M 7.640043,-7.52972 Q 7.919073,-7.249849 8.179727,-6.957244" />
      <line x1="8.179727" y1="-10.045589" x2="8.179727" y2="-6.957244" />
      <path d="M 6.969797,-5.393755 C 6.895918,-5.347502 6.821496,-5.28827 6.746531,-5.216057 C 6.675492,-5.144458 6.614461,-5.056305 6.61451,-4.980033" />
      <path d="M 6.61451,-4.980033 Q 6.614251,-4.940365 6.637314,-4.909091" />
      <path d="M 8.179727,-6.957244 C 8.038584,-6.671297 7.881395,-6.398376 7.672566,-6.114876 C 7.467994,-5.836301 7.203875,-5.551673 6.969797,-5.393755" />
      <path d="M 2.86151,10.46764 Q 2.546039,10.644032 2.219155,10.804422" />
      <path d="M 2.219155,10.804422 C 2.157976,10.834201 2.131976,10.903936 2.132501,10.981037" />
      <path d="M 2.132501,10.981037 C 2.134256,11.121073 2.201521,11.264129 2.257541,11.365736" />
      <line x1="2.257541" y1="10.785513" x2="2.257541" y2="11.365736" />
      <path d="M 2.257541,11.365736 C 2.349761,11.538011 2.421708,11.783124 2.464502,12.030181 C 2.507955,12.278985 2.524799,12.527136 2.524792,12.760079" />
      <path d="M 2.524792,12.760079 Q 2.524339,12.995601 2.503648,13.230153" />
      <path d="M 2.503648,13.230153 Q 2.116118,13.388795 1.718997,13.528921" />
      <path d="M 0.27067,12.122266 C 0.230627,12.039681 0.175318,11.940275 0.09402,11.851804 C 0.014672,11.764371 -0.095941,11.694806 -0.189315,11.721483" />
      <path d="M 1.718997,13.528921 C 1.433369,13.338026 1.166572,13.137214 0.90122,12.890899 C 0.640314,12.649383 0.388002,12.356988 0.27067,12.122266" />
      <line x1="1.643147" y1="-9.300608" x2="1.643147" y2="-8.749382" />
      <path d="M 1.643147,-8.749382 Q 1.979058,-8.603343 2.304512,-8.440829" />
      <line x1="2.304512" y1="-11.529174" x2="2.304512" y2="-8.440829" />
      <path d="M 2.304512,-8.440829 C 2.389284,-8.397955 2.514454,-8.446084 2.613425,-8.517304 C 2.714558,-8.589189 2.792954,-8.676439 2.852308,-8.749988" />
      <line x1="2.852308" y1="-11.838333" x2="2.852308" y2="-8.749988" />
      <path d="M 2.852308,-8.749988 C 3.02445,-8.958391 3.342677,-9.198914 3.65686,-9.388144 C 3.976566,-9.581267 4.286553,-9.729639 4.612526,-9.864928" />
      <line x1="4.612526" y1="-12.953274" x2="4.612526" y2="-9.864928" />
      <path d="M 4.612526,-9.864928 Q 4.966536,-9.656511 5.306639,-9.431715" />
      <line x1="5.306639" y1="-12.52006" x2="5.306639" y2="-9.431715" />
      <path d="M 4.609925,-7.653017 C 4.559697,-7.598996 4.511243,-7.534912 4.464563,-7.460764 C 4.420307,-7.387375 4.384093,-7.30262 4.384019,-7.228318" />
      <path d="M 4.384019,-7.228318 Q 4.382955,-7.154216 4.435081,-7.11109" />
      <path d="M 5.306639,-9.431715 C 5.256628,-9.124192 5.187184,-8.825691 5.071055,-8.505511 C 4.957549,-8.191033 4.788354,-7.857496 4.609925,-7.653017" />
      <path d="M -0.189315,11.721483 Q -0.547286,11.821861 -0.911451,11.904251" />
      <path d="M -0.911451,11.904251 C -1.030524,11.931103 -1.073214,12.090297 -1.071049,12.224131" />
      <path d="M -1.071049,12.224131 Q -1.068167,12.352174 -1.043822,12.454956" />
      <line x1="-1.043822" y1="12.041707" x2="-1.043822" y2="12.454956" />
      <path d="M -1.043822,12.454956 Q -1.017502,12.591812 -1.017698,12.763038" />
      <path d="M -1.017698,12.763038 C -1.017657,13.021618 -1.061613,13.308707 -1.125139,13.568452 C -1.189442,13.83123 -1.270914,14.06886 -1.368933,14.310456" />
      <path d="M -1.368933,14.310456 Q -1.791149,14.377699 -2.217039,14.424929" />
      <path d="M -3.191374,12.744822 C -3.205121,12.656165 -3.228537,12.547873 -3.280358,12.444376 C -3.330608,12.342315 -3.416451,12.250575 -3.514697,12.255624" />
      <path d="M -2.217039,14.424929 C -2.435307,14.177158 -2.632392,13.923986 -2.814345,13.627183 C -2.993451,13.336001 -3.148898,12.997582 -3.191374,12.744822" />
      <line x1="-1.548223" y1="-12.800665" x2="-1.548223" y2="-9.71232" />
      <path d="M -1.548223,-9.71232 Q -1.179672,-9.645796 -0.816247,-9.561038" />
      <line x1="-0.816247" y1="-12.649383" x2="-0.816247" y2="-9.561038" />
      <path d="M -0.816247,-9.561038 C -0.721421,-9.538436 -0.615045,-9.6127 -0.540946,-9.703455 C -0.46496,-9.795332 -0.415575,-9.897005 -0.380446,-9.981218" />
      <line x1="-0.380446" y1="-13.069563" x2="-0.380446" y2="-9.981218" />
      <path d="M -0.380446,-9.981218 C -0.277083,-10.220719 -0.042308,-10.523661 0.204045,-10.77616 C 0.454556,-11.033645 0.709191,-11.245747 0.983215,-11.448761" />
      <line x1="0.983215" y1="-14.537106" x2="0.983215" y2="-11.448761" />
      <path d="M 0.983215,-11.448761 Q 1.38808,-11.326 1.784456,-11.184333" />
      <line x1="1.784456" y1="-14.272678" x2="1.784456" y2="-11.184333" />
      <path d="M 1.648436,-9.311641 C 1.601081,-9.21315 1.546825,-9.079414 1.545525,-8.945673" />
      <path d="M 1.545525,-8.945673 C 1.544831,-8.859302 1.573734,-8.779221 1.643147,-8.749382" />
      <path d="M 1.784456,-11.184333 C 1.819933,-10.939269 1.841141,-10.701093 1.841405,-10.443104" />
      <path d="M 1.841405,-10.443104 C 1.842324,-10.244604 1.827395,-10.044329 1.796619,-9.842281 C 1.765291,-9.643796 1.714523,-9.453877 1.648436,-9.311641" />
      <path d="M -3.514697,12.255624 Q -3.890773,12.273148 -4.267401,12.271922" />
      <path d="M -4.267401,12.271922 C -4.365819,12.271132 -4.446151,12.36647 -4.490328,12.470576 C -4.535989,12.576183 -4.552999,12.68535 -4.561509,12.774489" />
      <path d="M -4.561509,12.774489 C -4.589049,13.028765 -4.724372,13.373481 -4.886106,13.672043 C -5.050351,13.976343 -5.23228,14.237721 -5.435681,14.494623" />
      <path d="M -5.435681,14.494623 Q -5.863809,14.465884 -6.289446,14.417" />
      <line x1="-6.72339" y1="12.243678" x2="-6.72339" y2="12.577936" />
      <path d="M -6.72339,12.577936 Q -6.709621,12.495797 -6.708327,12.39711" />
      <path d="M -6.708327,12.39711 C -6.708324,12.322712 -6.717274,12.241046 -6.74536,12.170945 C -6.772951,12.101097 -6.821686,12.045455 -6.888016,12.033662" />
      <path d="M -6.289446,14.417 C -6.41034,14.161344 -6.51246,13.908053 -6.595196,13.624104 C -6.676845,13.344186 -6.735197,13.030799 -6.735015,12.766674" />
      <path d="M -6.735015,12.766674 Q -6.735067,12.664678 -6.72339,12.577936" />
      <line x1="-4.921542" y1="-13.022627" x2="-4.921542" y2="-9.934282" />
      <path d="M -4.921542,-9.934282 Q -4.545466,-9.951806 -4.168839,-9.95058" />
      <line x1="-4.168839" y1="-13.038925" x2="-4.168839" y2="-9.95058" />
      <path d="M -4.168839,-9.95058 C -4.070421,-9.94979 -3.990088,-10.045128 -3.945911,-10.149234 C -3.90025,-10.254842 -3.88324,-10.364009 -3.874731,-10.453147" />
      <line x1="-3.874731" y1="-13.541493" x2="-3.874731" y2="-10.453147" />
      <path d="M -3.874731,-10.453147 C -3.847191,-10.707423 -3.711867,-11.052139 -3.550134,-11.350701 C -3.385888,-11.655001 -3.20396,-11.916379 -3.000558,-12.173281" />
      <line x1="-3.000558" y1="-15.261626" x2="-3.000558" y2="-12.173281" />
      <path d="M -3.000558,-12.173281 Q -2.57243,-12.144543 -2.146793,-12.095659" />
      <line x1="-2.146793" y1="-15.184004" x2="-2.146793" y2="-12.095659" />
      <path d="M -1.71285,-10.256594 Q -1.726618,-10.174455 -1.727912,-10.075768" />
      <path d="M -1.727912,-10.075768 C -1.727915,-10.00137 -1.718966,-9.919704 -1.690879,-9.849603 C -1.663289,-9.779756 -1.614553,-9.724114 -1.548223,-9.71232" />
      <path d="M -2.146793,-12.095659 C -2.025899,-11.840002 -1.923779,-11.586711 -1.841044,-11.302762 C -1.759394,-11.022844 -1.701043,-10.709457 -1.701225,-10.445332" />
      <path d="M -1.701225,-10.445332 Q -1.701172,-10.343336 -1.71285,-10.256594" />
      <path d="M -6.888016,12.033662 Q -7.256567,11.967138 -7.619992,11.88238" />
      <path d="M -7.619992,11.88238 C -7.714818,11.859778 -7.821194,11.934042 -7.895293,12.024797 C -7.971279,12.116674 -8.020665,12.218347 -8.055794,12.30256" />
      <path d="M -8.055794,12.30256 C -8.159156,12.542061 -8.393932,12.845002 -8.640284,13.097502 C -8.890796,13.354987 -9.14543,13.567089 -9.419454,13.770102" />
      <path d="M -9.419454,13.770102 Q -9.824319,13.647342 -10.220695,13.505675" />
      <line x1="-10.084675" y1="11.068423" x2="-10.084675" y2="11.632983" />
      <path d="M -10.084675,11.632983 C -10.037321,11.534491 -9.983064,11.400756 -9.981764,11.267015" />
      <path d="M -9.981764,11.267015 C -9.98107,11.180644 -10.009974,11.100563 -10.079386,11.070724" />
      <path d="M -10.220695,13.505675 C -10.256172,13.260611 -10.27738,13.022435 -10.277644,12.764445" />
      <path d="M -10.277644,12.764445 C -10.278563,12.565945 -10.263634,12.365671 -10.232859,12.163622 C -10.20153,11.965138 -10.150763,11.775219 -10.084675,11.632983" />
      <line x1="-8.246924" y1="-12.488486" x2="-8.246924" y2="-9.400141" />
      <path d="M -8.246924,-9.400141 Q -7.888953,-9.500519 -7.524788,-9.582909" />
      <line x1="-7.524788" y1="-12.671254" x2="-7.524788" y2="-9.582909" />
      <path d="M -7.524788,-9.582909 C -7.405715,-9.609761 -7.363025,-9.768955 -7.365191,-9.902789" />
      <path d="M -7.365191,-9.902789 Q -7.368072,-10.030832 -7.392417,-10.133614" />
      <path d="M -7.392417,-10.133614 Q -7.418737,-10.27047 -7.418542,-10.441697" />
      <path d="M -7.418542,-10.441697 C -7.418582,-10.700276 -7.374626,-10.987365 -7.3111,-11.247111 C -7.246797,-11.509888 -7.165325,-11.747518 -7.067307,-11.989114" />
      <line x1="-7.067307" y1="-15.077459" x2="-7.067307" y2="-11.989114" />
      <path d="M -7.067307,-11.989114 Q -6.645091,-12.056357 -6.2192,-12.103587" />
      <line x1="-6.2192" y1="-15.191932" x2="-6.2192" y2="-12.103587" />
      <line x1="-5.244865" y1="-13.511825" x2="-5.244865" y2="-10.42348" />
      <path d="M -5.244865,-10.42348 C -5.231118,-10.334823 -5.207702,-10.226531 -5.155881,-10.123034 C -5.105632,-10.020974 -5.019788,-9.929233 -4.921542,-9.934282" />
      <path d="M -6.2192,-12.103587 C -6.000932,-11.855816 -5.803847,-11.602645 -5.621894,-11.305841 C -5.442788,-11.01466 -5.287341,-10.67624 -5.244865,-10.42348" />
      <path d="M -10.079386,11.070724 Q -10.415297,10.924684 -10.740751,10.762171" />
      <path d="M -10.740751,10.762171 C -10.825523,10.719297 -10.950693,10.767426 -11.049665,10.838646 C -11.150797,10.910531 -11.229193,10.997781 -11.288548,11.071329" />
      <path d="M -11.288548,11.071329 C -11.460689,11.279733 -11.778917,11.520256 -12.0931,11.709486 C -12.412805,11.902609 -12.722792,12.05098 -13.048765,12.18627" />
      <path d="M -13.048765,12.18627 Q -13.402775,11.977853 -13.742879,11.753057" />
      <line x1="-13.742879" y1="8.994685" x2="-13.742879" y2="11.753057" />
      <line x1="-13.046164" y1="9.295493" x2="-13.046164" y2="9.974359" />
      <path d="M -13.046164,9.974359 C -12.995937,9.920338 -12.947483,9.856253 -12.900802,9.782106 C -12.856546,9.708717 -12.820333,9.623962 -12.820259,9.54966" />
      <path d="M -12.820259,9.54966 Q -12.819194,9.475558 -12.871321,9.432432" />
      <path d="M -13.742879,11.753057 C -13.692867,11.445533 -13.623424,11.147032 -13.507294,10.826853 C -13.393789,10.512375 -13.224593,10.178838 -13.046164,9.974359" />
      <line x1="-11.297749" y1="-11.234644" x2="-11.297749" y2="-8.146299" />
      <path d="M -11.297749,-8.146299 Q -10.982278,-8.32269 -10.655394,-8.483081" />
      <line x1="-10.655394" y1="-8.970628" x2="-10.655394" y2="-8.483081" />
      <path d="M -10.655394,-8.483081 C -10.594215,-8.512859 -10.568215,-8.582594 -10.568741,-8.659695" />
      <path d="M -10.568741,-8.659695 C -10.570495,-8.799731 -10.63776,-8.942787 -10.693781,-9.044394" />
      <path d="M -10.693781,-9.044394 C -10.786,-9.216669 -10.857947,-9.461783 -10.900741,-9.708839 C -10.944194,-9.957644 -10.961039,-10.205794 -10.961031,-10.438738" />
      <path d="M -10.961031,-10.438738 Q -10.960579,-10.67426 -10.939887,-10.908812" />
      <line x1="-10.939887" y1="-13.997157" x2="-10.939887" y2="-10.908812" />
      <path d="M -10.939887,-10.908812 Q -10.552357,-11.067453 -10.155236,-11.207579" />
      <line x1="-10.155236" y1="-14.295924" x2="-10.155236" y2="-11.207579" />
      <line x1="-8.706909" y1="-12.88927" x2="-8.706909" y2="-9.800925" />
      <path d="M -8.706909,-9.800925 C -8.666867,-9.718339 -8.611558,-9.618933 -8.530259,-9.530462 C -8.450911,-9.443029 -8.340298,-9.373464 -8.246924,-9.400141" />
      <path d="M -10.155236,-11.207579 C -9.869609,-11.016684 -9.602811,-10.815872 -9.337459,-10.569557 C -9.076554,-10.328041 -8.824241,-10.035646 -8.706909,-9.800925" />
      <path d="M -12.871321,9.432432 Q -13.151699,9.21683 -13.417004,8.987636" />
      <path d="M -13.417004,8.987636 C -13.485944,8.927412 -13.621379,8.946125 -13.738478,8.992957 C -13.857865,9.039951 -13.959929,9.106832 -14.039464,9.164704" />
      <path d="M -14.039464,9.164704 C -14.268652,9.327808 -14.648646,9.48952 -15.009248,9.602585 C -15.37636,9.718185 -15.720575,9.792715 -16.076282,9.851062" />
      <path d="M -16.076282,9.851062 Q -16.355312,9.571191 -16.615966,9.278586" />
      <line x1="-16.615966" y1="6.846121" x2="-16.615966" y2="9.278586" />
      <line x1="-15.406037" y1="6.769123" x2="-15.406037" y2="7.715096" />
      <path d="M -15.406037,7.715096 C -15.332157,7.668844 -15.257735,7.609612 -15.18277,7.537399 C -15.111732,7.465799 -15.0507,7.377647 -15.050749,7.301375" />
      <path d="M -15.050749,7.301375 Q -15.05049,7.261707 -15.073553,7.230433" />
      <path d="M -16.615966,9.278586 C -16.474823,8.992638 -16.317634,8.719718 -16.108806,8.436218 C -15.904233,8.157642 -15.640114,7.873015 -15.406037,7.715096" />
      <line x1="-13.86611" y1="-7.692345" x2="-13.86611" y2="-6.258201" />
      <path d="M -13.86611,-6.258201 Q -13.614637,-6.498585 -13.34731,-6.726046" />
      <line x1="-13.34731" y1="-6.989648" x2="-13.34731" y2="-6.726046" />
      <path d="M -13.34731,-6.726046 Q -13.302011,-6.766991 -13.302839,-6.832748" />
      <path d="M -13.302839,-6.832748 C -13.302902,-6.907632 -13.343773,-6.993875 -13.393162,-7.067781 C -13.44527,-7.142463 -13.498829,-7.206441 -13.553838,-7.259716" />
      <path d="M -13.553838,-7.259716 C -13.744079,-7.456212 -13.932697,-7.782002 -14.064573,-8.091166 C -14.199406,-8.405911 -14.286336,-8.701026 -14.35439,-9.005994" />
      <line x1="-14.35439" y1="-12.094339" x2="-14.35439" y2="-9.005994" />
      <path d="M -14.35439,-9.005994 Q -14.027956,-9.245222 -13.686668,-9.468695" />
      <line x1="-13.686668" y1="-12.55704" x2="-13.686668" y2="-9.468695" />
      <line x1="-11.86305" y1="-11.5197" x2="-11.86305" y2="-8.431355" />
      <path d="M -11.86305,-8.431355 C -11.799441,-8.360469 -11.716008,-8.276723 -11.610771,-8.209307 C -11.507733,-8.14246 -11.379889,-8.09981 -11.297749,-8.146299" />
      <path d="M -13.686668,-9.468695 C -13.353145,-9.347685 -13.034818,-9.212918 -12.704149,-9.033878 C -12.379225,-8.858486 -12.047242,-8.632043 -11.86305,-8.431355" />
      <path d="M -15.073553,7.230433 Q -15.279292,6.959962 -15.466368,6.679706" />
      <path d="M -15.466368,6.679706 C -15.514779,6.606236 -15.651248,6.594259 -15.778494,6.613511 C -15.908,6.632412 -16.026776,6.674366 -16.121071,6.712617" />
      <path d="M -16.121071,6.712617 C -16.391689,6.819306 -16.807552,6.891188 -17.189999,6.920383 C -17.579499,6.950581 -17.934485,6.94619 -18.295685,6.923617" />
      <path d="M -18.295685,6.923617 Q -18.48072,6.591366 -18.64416,6.250893" />
      <line x1="-18.64416" y1="3.820546" x2="-18.64416" y2="6.250893" />
      <line x1="-17.003471" y1="3.865147" x2="-17.003471" y2="5.009161" />
      <path d="M -17.003471,5.009161 C -16.914053,4.977316 -16.808804,4.934521 -16.711071,4.872864 C -16.614691,4.812418 -16.529081,4.729577 -16.529431,4.651235" />
      <path d="M -16.529431,4.651235 Q -16.529396,4.63249 -16.536007,4.61479" />
      <path d="M -18.64416,6.250893 C -18.421504,6.006008 -18.187282,5.777268 -17.899986,5.549766 C -17.618288,5.326078 -17.277245,5.109756 -17.003471,5.009161" />
      <line x1="-15.776976" y1="-4.900784" x2="-15.776976" y2="-3.86452" />
      <path d="M -15.776976,-3.86452 Q -15.606639,-4.152515 -15.417087,-4.431545" />
      <line x1="-15.417087" y1="-4.57236" x2="-15.417087" y2="-4.431545" />
      <path d="M -15.417087,-4.431545 Q -15.398059,-4.460335 -15.398247,-4.495264" />
      <path d="M -15.398247,-4.495264 C -15.398155,-4.571822 -15.464035,-4.659536 -15.540161,-4.729636 C -15.617302,-4.80084 -15.702847,-4.856855 -15.777682,-4.901202" />
      <path d="M -15.777682,-4.901202 C -16.020759,-5.048788 -16.3013,-5.321622 -16.522013,-5.590989 C -16.747267,-5.86509 -16.920325,-6.13086 -17.078124,-6.410334" />
      <line x1="-17.078124" y1="-9.498679" x2="-17.078124" y2="-6.410334" />
      <path d="M -17.078124,-6.410334 Q -16.835031,-6.713847 -16.572834,-7.005437" />
      <line x1="-16.572834" y1="-10.093782" x2="-16.572834" y2="-7.005437" />
      <line x1="-14.498201" y1="-9.496449" x2="-14.498201" y2="-6.408104" />
      <path d="M -14.498201,-6.408104 C -14.41536,-6.353749 -14.309489,-6.29137 -14.187487,-6.249603 C -14.06778,-6.207899 -13.931416,-6.19507 -13.86611,-6.258201" />
      <path d="M -16.572834,-7.005437 C -16.214145,-6.962559 -15.865981,-6.903021 -15.492531,-6.803457 C -15.125731,-6.706142 -14.736701,-6.561082 -14.498201,-6.408104" />
      <path d="M -16.536007,4.61479 Q -16.653085,4.307881 -16.749183,3.995663" />
      <path d="M -16.749183,3.995663 C -16.773765,3.913954 -16.901968,3.872103 -17.03069,3.862462 C -17.161489,3.851982 -17.288883,3.86615 -17.391512,3.882173" />
      <path d="M -17.391512,3.882173 C -17.685116,3.925178 -18.108509,3.90233 -18.486738,3.845665 C -18.872083,3.788405 -19.213647,3.705392 -19.555725,3.603438" />
      <path d="M -19.555725,3.603438 Q -19.634155,3.241449 -19.689244,2.876309" />
      <line x1="-19.689244" y1="0.163597" x2="-19.689244" y2="2.876309" />
      <line x1="-17.729605" y1="0.868889" x2="-17.729605" y2="2.040957" />
      <path d="M -17.729605,2.040957 C -17.62735,2.029306 -17.502914,2.009565 -17.383338,1.966205 C -17.265461,1.924109 -17.158007,1.852571 -17.158847,1.769533" />
      <path d="M -17.158847,1.769533 L -17.159016,1.763754" />
      <path d="M -19.689244,2.876309 C -19.400249,2.689176 -19.104955,2.520203 -18.758771,2.364205 C -18.419143,2.210647 -18.024418,2.077374 -17.729605,2.040957" />
      <line x1="-16.900125" y1="-1.998212" x2="-16.900125" y2="-1.128381" />
      <path d="M -16.900125,-1.128381 Q -16.822532,-1.44436 -16.723673,-1.755944" />
      <line x1="-16.723673" y1="-1.818192" x2="-16.723673" y2="-1.755944" />
      <path d="M -16.723673,-1.755944 Q -16.719045,-1.770855 -16.719065,-1.786322" />
      <path d="M -16.719065,-1.786322 C -16.718635,-1.865312 -16.808735,-1.94636 -16.909622,-2.003769 C -17.011934,-2.062402 -17.121383,-2.101276 -17.213761,-2.129581" />
      <path d="M -17.213761,-2.129581 C -17.493109,-2.2182 -17.846454,-2.419486 -18.140963,-2.630698 C -18.441288,-2.845475 -18.688679,-3.063787 -18.925469,-3.298723" />
      <line x1="-18.925469" y1="-6.387069" x2="-18.925469" y2="-3.298723" />
      <path d="M -18.925469,-3.298723 Q -18.782284,-3.645837 -18.617046,-3.985672" />
      <line x1="-18.617046" y1="-7.074017" x2="-18.617046" y2="-3.985672" />
      <line x1="-16.432782" y1="-5.485942" x2="-16.432782" y2="-3.869054" />
      <path d="M -16.432782,-3.869054 C -16.336355,-3.834933 -16.21526,-3.798173 -16.084806,-3.784901 C -15.956589,-3.771181 -15.820999,-3.789049 -15.776976,-3.86452" />
      <path d="M -18.617046,-3.985672 C -18.257636,-4.023849 -17.903361,-4.043597 -17.51258,-4.030294 C -17.128901,-4.017688 -16.709336,-3.963896 -16.432782,-3.869054" />
      <path d="M -17.159016,1.763754 Q -17.178117,1.462443 -17.17812,1.160671" />
      <path d="M -17.17812,1.160671 L -17.178026,1.11842" />
      <path d="M -17.178026,1.11842 C -17.177104,1.03404 -17.288305,0.965167 -17.409731,0.927291 C -17.532909,0.888144 -17.660239,0.87356 -17.764209,0.866264" />
      <path d="M -17.764209,0.866264 C -18.06079,0.842653 -18.462859,0.726633 -18.811094,0.587969 C -19.166023,0.447152 -19.470888,0.291175 -19.770532,0.116788" />
      <line x1="-19.770532" y1="-2.971557" x2="-19.770532" y2="0.116788" />
      <path d="M -19.770532,0.116788 Q -19.737013,-0.250271 -19.679996,-0.615193" />
      <line x1="-19.679996" y1="-3.703538" x2="-19.679996" y2="-0.615193" />
      <line x1="-17.534954" y1="-2.262709" x2="-17.534954" y2="-0.987237" />
      <path d="M -17.534954,-0.987237 C -17.431512,-0.975675 -17.303446,-0.967039 -17.173431,-0.983167 C -17.04544,-0.998366 -16.919865,-1.045712 -16.900125,-1.128381" />
      <path d="M -19.679996,-0.615193 C -19.344356,-0.731821 -19.008115,-0.829511 -18.626633,-0.903375 C -18.252223,-0.976337 -17.830715,-1.01748 -17.534954,-0.987237" />
      <line x1="6.637314" y1="-4.909091" x2="5.833208" y2="-4.459479" />
      <line x1="5.429871" y1="8.579543" x2="4.715205" y2="8.029997" />
      <line x1="2.86151" y1="10.46764" x2="2.337093" y2="9.778235" />
      <line x1="4.435081" y1="-7.11109" x2="3.794103" y2="-6.498367" />
      <line x1="-0.189315" y1="11.721483" x2="-0.487745" y2="10.939201" />
      <line x1="1.643147" y1="-8.749382" x2="1.208979" y2="-8.015304" />
      <line x1="-3.514697" y1="12.255624" x2="-3.566803" y2="11.433775" />
      <line x1="-1.548223" y1="-9.71232" x2="-1.745993" y2="-8.906913" />
      <line x1="-6.888016" y1="12.033662" x2="-6.690246" y2="11.228255" />
      <line x1="-4.921542" y1="-9.934282" x2="-4.869437" y2="-9.112434" />
      <line x1="-10.079386" y1="11.070724" x2="-9.645218" y2="10.336646" />
      <line x1="-8.246924" y1="-9.400141" x2="-7.948494" y2="-8.617859" />
      <line x1="-12.871321" y1="9.432432" x2="-12.230343" y2="8.819709" />
      <line x1="-11.297749" y1="-8.146299" x2="-10.773332" y2="-7.456893" />
      <line x1="-15.073553" y1="7.230433" x2="-14.269447" y2="6.780821" />
      <line x1="-13.86611" y1="-6.258201" x2="-13.151444" y2="-5.708655" />
      <line x1="-16.536007" y1="4.61479" x2="-15.62357" y2="4.358929" />
      <line x1="-15.776976" y1="-3.86452" x2="-14.920764" y2="-3.492284" />
      <line x1="-17.159016" y1="1.763754" x2="-16.200431" y2="1.719081" />
      <line x1="-16.900125" y1="-1.128381" x2="-15.960717" y2="-0.958821" />
      <path d="M 13.78896,7.053599 L 13.78896,8.915056" />
      <path d="M 15.218392,-5.776787 L 15.218392,-2.688442" />
      <path d="M 19.304498,7.730827 L 19.304498,8.915528" />
      <path d="M 20.73393,-5.776316 L 20.73393,-2.687971" />
      <path d="M 8.74188,0.490235 L 8.74188,1.160671" />
      <path d="M 2.524792,10.649658 L 2.524792,12.760079" />
      <path d="M -1.017698,11.986163 L -1.017698,12.763038" />
      <path d="M 1.841405,-13.531449 L 1.841405,-10.443104" />
      <path d="M -6.735015,12.199853 L -6.735015,12.766674" />
      <path d="M -1.701225,-13.533677 L -1.701225,-10.445332" />
      <path d="M -10.277644,10.982683 L -10.277644,12.764445" />
      <path d="M -7.418542,-13.530042 L -7.418542,-10.441697" />
      <path d="M -10.961031,-13.527083 L -10.961031,-10.438738" />
      <path d="M -17.17812,1.114156 L -17.17812,1.160671" />
    </g>
  </g>
</svg>