<?xml version='1.0' encoding='utf-8'?>
<svg width="100.09mm" height="37.873707mm" viewBox="-19.103584 -8.127114 43.809978 16.577543" version="1.1" xmlns="http://www.w3.org/2000/svg">
  <g transform="scale(1,-1)" stroke-linecap="round">
    <g fill="none" stroke="rgb(0,0,0)" stroke-width="0.03939352595648475" id="Visible">
      <path d="M 11.093302,3.208033 Q 11.065405,3.104943 11.061782,3.001265" />
      <path d="M 11.061782,3.001265 C 11.060384,2.941427 10.912633,2.893805 10.744647,2.871387 C 10.572625,2.849795 10.394893,2.842143 10.211453,2.848433" />
      <path d="M 10.211453,2.848433 C 9.947467,2.831975 9.654571,2.776756 9.379348,2.703429 C 9.103426,2.629918 8.844667,2.538819 8.62888,2.445012" />
      <path d="M 8.596535,2.191683 L 8.62888,2.445012" />
      <path d="M 8.62888,2.445012 Q 8.678161,2.325915 8.7496,2.20862" />
      <path d="M 8.742925,2.175189 L 8.7496,2.20862" />
      <path d="M 8.7496,2.20862 C 9.040166,2.155994 9.367622,2.11257 9.693625,2.088013 C 10.018805,2.063515 10.342491,2.058441 10.601562,2.084522" />
      <path d="M 10.560567,1.890852 L 10.601562,2.084522" />
      <path d="M 10.601562,2.084522 C 10.764206,2.118958 10.935265,2.139673 11.114742,2.146667 C 11.291315,2.152271 11.473982,2.131522 11.533947,2.076674" />
      <path d="M 11.446338,1.642081 Q 11.487904,1.859163 11.533947,2.076674" />
      <path d="M 11.533947,2.076674 Q 11.63895,1.98183 11.765714,1.891318" />
      <path d="M 11.732587,1.759155 L 11.765714,1.891318" />
      <path d="M 11.765714,1.891318 Q 11.804004,1.862848 11.794545,1.829095" />
      <path d="M 11.794545,1.829095 C 11.781018,1.778567 11.69278,1.727456 11.586578,1.687517 C 11.478229,1.647871 11.356301,1.615129 11.220793,1.589292" />
      <path d="M 11.220793,1.589292 C 10.80176,1.453245 10.492034,1.170322 10.355698,0.924143" />
      <path d="M 10.060656,0.321735 Q 10.201954,0.62156 10.355698,0.924143" />
      <path d="M 10.355698,0.924143 Q 10.547595,0.830835 10.756425,0.743508" />
      <path d="M 10.288429,-0.156814 Q 10.509477,0.289949 10.756425,0.743508" />
      <path d="M 10.759035,-2.9116 Q 10.911756,-2.898641 11.040621,-2.876505" />
      <path d="M 10.756425,0.743508 C 11.073998,0.755911 11.41199,0.783643 11.725085,0.827425 C 12.037394,0.871094 12.324071,0.931286 12.515756,1.005566" />
      <path d="M 11.040621,-2.876505 Q 11.618964,-0.988713 12.515756,1.005566" />
      <path d="M 11.040621,-2.876505 C 11.165349,-2.839138 11.299923,-2.810511 11.444344,-2.790625 C 11.588134,-2.771755 11.749353,-2.76614 11.865238,-2.789572" />
      <path d="M 12.515756,1.005566 C 12.616416,1.066501 12.7327,1.121254 12.882319,1.161783 C 13.028214,1.201868 13.212406,1.220347 13.333057,1.184812" />
      <path d="M 12.117878,-2.29549 Q 12.62775,-0.592341 13.333057,1.184812" />
      <path d="M 13.333057,1.184812 Q 13.542825,1.123626 13.766009,1.070535" />
      <path d="M 13.47054,0.346212 Q 13.614672,0.706728 13.766009,1.070535" />
      <path d="M 13.766009,1.070535 C 13.893135,1.040613 13.9239,0.967444 13.890747,0.899131" />
      <path d="M 13.890747,0.899131 C 13.856936,0.827181 13.775066,0.761923 13.672508,0.700243" />
      <path d="M 11.352221,-3.784436 Q 11.286356,-3.912775 11.269165,-4.037448" />
      <path d="M 13.672508,0.700243 Q 13.632394,0.658525 13.607739,0.610738" />
      <path d="M 13.607739,0.610738 C 13.506319,0.413182 13.592753,0.159365 13.756691,-0.04841" />
      <path d="M 11.269165,-4.037448 Q 12.377947,-2.132714 13.756691,-0.04841" />
      <path d="M 11.269165,-4.037448 Q 11.496413,-4.117114 11.737941,-4.189782" />
      <path d="M 13.756691,-0.04841 Q 14.039787,-0.090927 14.330051,-0.124885" />
      <path d="M 11.737941,-4.189782 Q 12.916208,-2.250894 14.330051,-0.124885" />
      <path d="M 11.737941,-4.189782 C 12.046282,-4.157008 12.368547,-4.107786 12.659727,-4.044337 C 12.950178,-3.981051 13.208626,-3.903116 13.367616,-3.817422" />
      <path d="M 14.330051,-0.124885 C 14.844386,0.021522 15.375597,0.245984 15.525339,0.45311" />
      <path d="M 13.367616,-3.817422 Q 13.976317,-2.574633 14.636966,-1.275008" />
      <path d="M 14.636966,-1.275008 Q 15.069994,-0.423158 15.525339,0.45311" />
      <path d="M 13.367616,-3.817422 C 13.442204,-3.750784 13.53472,-3.689235 13.665906,-3.639567 C 13.793596,-3.590577 13.967851,-3.560432 14.101336,-3.587695" />
      <path d="M 15.525339,0.45311 Q 15.532004,0.502405 15.554971,0.549174" />
      <path d="M 15.554971,0.549174 C 15.580238,0.605024 15.630908,0.656017 15.706981,0.702156 C 15.783394,0.746169 15.894053,0.776497 16.008562,0.771421" />
      <path d="M 14.101336,-3.587695 Q 15.003843,-1.476976 16.008562,0.771421" />
      <path d="M 14.101336,-3.587695 Q 14.333175,-3.634508 14.574967,-3.672466" />
      <path d="M 16.008562,0.771421 Q 16.266888,0.760289 16.52669,0.758843" />
      <path d="M 14.574967,-3.672466 Q 15.516085,-1.527257 16.52669,0.758843" />
      <path d="M 14.574967,-3.672466 C 14.684579,-3.689508 14.747503,-3.738466 14.76266,-3.79292" />
      <path d="M 16.52669,0.758843 C 16.676634,0.758285 16.795967,0.699322 16.852143,0.632284 C 16.910628,0.563998 16.921044,0.492346 16.909662,0.419504" />
      <path d="M 14.633055,-4.043911 L 14.647117,-4.016697" />
      <path d="M 14.647117,-4.016697 Q 15.333923,-2.687458 16.041716,-1.295436" />
      <path d="M 16.041716,-1.295436 Q 16.471814,-0.449558 16.909662,0.419504" />
      <path d="M 14.633055,-4.043911 L 14.632532,-4.044917" />
      <path d="M 14.632532,-4.044917 C 14.525633,-4.256104 14.735093,-4.55266 15.020108,-4.777226" />
      <path d="M 16.909662,0.419504 C 16.995385,0.206661 17.454497,-0.041843 17.920568,-0.212051" />
      <path d="M 15.020108,-4.777226 Q 16.465934,-2.599328 17.920568,-0.212051" />
      <path d="M 15.020108,-4.777226 Q 15.316726,-4.800875 15.616943,-4.815615" />
      <path d="M 17.920568,-0.212051 Q 18.219006,-0.192385 18.512929,-0.163876" />
      <path d="M 15.616943,-4.815615 Q 17.080151,-2.594273 18.512929,-0.163876" />
      <path d="M 15.616943,-4.815615 C 16.033579,-4.650152 16.43493,-4.419047 16.542961,-4.214222" />
      <path d="M 18.512929,-0.163876 C 18.636277,-0.055421 18.739326,0.065805 18.802602,0.187533" />
      <path d="M 18.802602,0.187533 C 18.874534,0.32581 18.893511,0.465048 18.823898,0.575184" />
      <path d="M 16.726964,-3.859061 Q 16.805194,-3.826026 16.909336,-3.822614" />
      <path d="M 18.823898,0.575184 C 18.719107,0.658588 18.642184,0.752744 18.674178,0.843207" />
      <path d="M 18.674178,0.843207 Q 18.701356,0.917898 18.843563,0.947269" />
      <path d="M 16.909336,-3.822614 Q 17.304314,-2.916442 17.686424,-1.988879" />
      <path d="M 18.734244,0.658454 L 18.843563,0.947269" />
      <path d="M 16.909336,-3.822614 Q 17.168768,-3.816896 17.425724,-3.801522" />
      <path d="M 18.843563,0.947269 Q 19.081228,0.989172 19.308035,1.03976" />
      <path d="M 17.425724,-3.801522 Q 18.425054,-1.448822 19.308035,1.03976" />
      <path d="M 17.425724,-3.801522 C 17.573913,-3.792377 17.71561,-3.842844 17.798264,-3.905363 C 17.883702,-3.968965 17.923075,-4.038997 17.94142,-4.111613" />
      <path d="M 19.308035,1.03976 C 19.438589,1.069196 19.615811,1.041943 19.748453,0.995096 C 19.884659,0.947628 19.983454,0.887654 20.064863,0.822299" />
      <path d="M 17.94142,-4.111613 Q 19.082309,-1.721301 20.064863,0.822299" />
      <path d="M 17.94142,-4.111613 C 18.112432,-4.3161 18.666379,-4.531631 19.195402,-4.669452" />
      <path d="M 20.064863,0.822299 C 20.232571,0.739294 20.49885,0.665677 20.795592,0.607223 C 21.093079,0.548619 21.420155,0.504741 21.731619,0.477067" />
      <path d="M 19.195402,-4.669452 Q 20.590865,-2.187735 21.731619,0.477067" />
      <path d="M 19.195402,-4.669452 Q 19.481911,-4.630747 19.760374,-4.583609" />
      <path d="M 21.731619,0.477067 Q 21.965435,0.553647 22.18426,0.636984" />
      <path d="M 19.760374,-4.583609 Q 19.991811,-4.153052 20.214852,-3.717399" />
      <path d="M 20.214852,-3.717399 Q 21.298696,-1.600381 22.18426,0.636984" />
      <path d="M 19.760374,-4.583609 Q 19.793179,-4.535108 19.819485,-4.484454" />
      <path d="M 22.18426,0.636984 C 22.123707,0.887944 21.902203,1.183763 21.527585,1.339078" />
      <path d="M 21.527585,1.339078 C 21.396613,1.372297 21.282456,1.412201 21.185115,1.45879 C 21.090326,1.505512 21.019929,1.563292 21.032249,1.614759" />
      <path d="M 21.032249,1.614759 Q 21.038677,1.64292 21.078424,1.665236" />
      <path d="M 21.052485,1.552181 L 21.078424,1.665236" />
      <path d="M 21.078424,1.665236 Q 21.231746,1.748948 21.364785,1.838014" />
      <path d="M 21.280195,1.41718 L 21.364785,1.838014" />
      <path d="M 20.406521,-3.338986 C 20.605285,-3.373412 20.762785,-3.438857 20.891373,-3.510113" />
      <path d="M 21.364785,1.838014 C 21.440967,1.889556 21.62859,1.901317 21.802158,1.887212 C 21.978187,1.871587 22.141693,1.84275 22.292677,1.8007" />
      <path d="M 20.891373,-3.510113 Q 21.437997,-1.864492 21.853239,-0.178497" />
      <path d="M 22.094773,0.855792 Q 22.198775,1.326694 22.292677,1.8007" />
      <path d="M 20.891373,-3.510113 C 21.090568,-3.581177 21.38322,-3.636601 21.699774,-3.675095 C 22.017126,-3.713688 22.357696,-3.735836 22.67628,-3.743003" />
      <path d="M 22.292677,1.8007 C 22.541916,1.762279 22.864756,1.751657 23.19498,1.760244 C 23.526038,1.76885 23.86427,1.796114 24.168678,1.834296" />
      <path d="M 22.67628,-3.743003 Q 23.647467,-1.00822 24.168678,1.834296" />
      <path d="M 22.67628,-3.743003 Q 22.875911,-3.652316 23.058006,-3.55593" />
      <path d="M 24.168678,1.834296 Q 24.275219,1.94727 24.360313,2.063105" />
      <path d="M 23.058006,-3.55593 Q 23.943606,-0.793418 24.360313,2.063105" />
      <path d="M 24.360313,2.063105 C 23.993441,2.26836 23.430976,2.480349 22.91195,2.540107" />
      <path d="M 22.91195,2.540107 C 22.732386,2.542752 22.56202,2.558224 22.400851,2.586524 C 22.243615,2.61546 22.109469,2.666798 22.1131,2.724811" />
      <path d="M 22.1131,2.724811 L 22.114315,2.732946" />
      <path d="M 22.113642,2.716562 L 22.114315,2.732946" />
      <path d="M 22.114315,2.732946 Q 22.142211,2.836035 22.145834,2.939714" />
      <path d="M 22.143458,2.67517 L 22.145834,2.939714" />
      <path d="M 22.145834,2.939714 C 22.147232,2.999552 22.294983,3.047174 22.46297,3.069592 C 22.634992,3.091184 22.812723,3.098835 22.996163,3.092546" />
      <path d="M 23.002917,2.528268 Q 23.001698,2.810292 22.996163,3.092546" />
      <path d="M 23.407583,-2.397525 C 23.792043,-2.371453 24.188943,-2.314799 24.530045,-2.246121" />
      <path d="M 22.996163,3.092546 C 23.260149,3.109003 23.553045,3.164222 23.828269,3.23755 C 24.104191,3.31106 24.362949,3.40216 24.578736,3.495966" />
      <path d="M 24.530045,-2.246121 Q 24.68682,-0.677014 24.686688,0.893144" />
      <path d="M 24.686688,0.893144 Q 24.686578,2.194194 24.578736,3.495966" />
      <path d="M 24.530045,-2.246121 Q 24.589306,-2.12775 24.626241,-2.007944" />
      <path d="M 24.578736,3.495966 Q 24.529456,3.615064 24.458016,3.732359" />
      <path d="M 24.626241,-2.007944 Q 24.686372,-1.035325 24.686599,-0.064095" />
      <path d="M 24.458016,3.732359 C 24.16745,3.784985 23.839994,3.828409 23.513991,3.852966 C 23.188811,3.877464 22.865125,3.882538 22.606054,3.856457" />
      <path d="M 22.606054,3.856457 C 22.443411,3.822021 22.272351,3.801306 22.092874,3.794311 C 21.916301,3.788707 21.733634,3.809457 21.67367,3.864304" />
      <path d="M 21.67367,3.864304 Q 21.568666,3.959149 21.441902,4.04966" />
      <path d="M 21.441902,4.04966 Q 21.416178,4.068457 21.412121,4.090117" />
      <path d="M 21.412121,4.090117 C 21.401677,4.142834 21.487246,4.200321 21.597877,4.244418 C 21.711442,4.288317 21.841091,4.324073 21.986823,4.351686" />
      <path d="M 22.113145,3.794939 Q 22.052045,4.073652 21.986823,4.351686" />
      <path d="M 21.986823,4.351686 C 22.405856,4.487734 22.715582,4.770656 22.851919,5.016836" />
      <path d="M 23.220342,3.869565 Q 23.046053,4.445399 22.851919,5.016836" />
      <path d="M 22.851919,5.016836 Q 22.660021,5.110144 22.451192,5.19747" />
      <path d="M 22.451192,5.19747 C 22.133618,5.185068 21.795626,5.157335 21.482531,5.113554 C 21.170222,5.069885 20.883545,5.009693 20.69186,4.935412" />
      <path d="M 20.69186,4.935412 C 20.591201,4.874477 20.474916,4.819725 20.325297,4.779196 C 20.179402,4.73911 19.99521,4.720632 19.874559,4.756166" />
      <path d="M 19.874559,4.756166 Q 19.664791,4.817352 19.441607,4.870444" />
      <path d="M 19.441607,4.870444 Q 19.33033,4.899548 19.310085,4.959454" />
      <path d="M 19.310085,4.959454 C 19.293263,5.005912 19.317572,5.057965 19.360025,5.105456 C 19.403742,5.152832 19.462103,5.197926 19.535109,5.240736" />
      <path d="M 19.714583,4.801124 L 19.535109,5.240736" />
      <path d="M 19.535109,5.240736 C 19.685183,5.396316 19.665473,5.619696 19.560332,5.821309" />
      <path d="M 19.560332,5.821309 Q 19.515019,5.908205 19.450925,5.989388" />
      <path d="M 19.450925,5.989388 Q 19.167829,6.031906 18.877565,6.065864" />
      <path d="M 18.877565,6.065864 C 18.36323,5.919457 17.832019,5.694995 17.682277,5.487868" />
      <path d="M 17.682277,5.487868 C 17.671449,5.415012 17.639345,5.344392 17.56055,5.279439 C 17.484425,5.215613 17.348062,5.162857 17.199054,5.169557" />
      <path d="M 17.199054,5.169557 Q 16.940728,5.18069 16.680926,5.182136" />
      <path d="M 16.680926,5.182136 C 16.58674,5.182635 16.500991,5.206403 16.439826,5.241356 C 16.37887,5.277935 16.338127,5.319357 16.317595,5.365622" />
      <path d="M 16.317595,5.365622 Q 16.283098,5.442076 16.297954,5.521475" />
      <path d="M 16.441802,5.240249 L 16.297954,5.521475" />
      <path d="M 16.297954,5.521475 L 16.287135,5.5452" />
      <path d="M 16.287135,5.5452 C 16.177368,5.753167 15.736118,5.988913 15.287048,6.15303" />
      <path d="M 15.287048,6.15303 Q 14.98861,6.133363 14.694687,6.104854" />
      <path d="M 14.694687,6.104854 C 14.441154,5.882656 14.265765,5.594996 14.371942,5.386318" />
      <path d="M 14.371942,5.386318 L 14.383718,5.365795" />
      <path d="M 14.527672,5.08553 L 14.383718,5.365795" />
      <path d="M 14.383718,5.365795 Q 14.481867,5.290254 14.523834,5.208779" />
      <path d="M 14.523834,5.208779 C 14.568286,5.124338 14.534353,5.023682 14.364053,4.99371" />
      <path d="M 14.364053,4.99371 Q 14.126388,4.951806 13.899581,4.901219" />
      <path d="M 13.899581,4.901219 C 13.769027,4.871783 13.591806,4.899035 13.459163,4.945883 C 13.322957,4.993351 13.224162,5.053325 13.142753,5.118679" />
      <path d="M 13.142753,5.118679 C 12.975045,5.201685 12.708766,5.275301 12.412024,5.333756 C 12.114537,5.39236 11.787461,5.436238 11.475997,5.463911" />
      <path d="M 11.475997,5.463911 Q 11.242182,5.387331 11.023356,5.303994" />
      <path d="M 11.023356,5.303994 Q 11.045358,5.21356 11.093424,5.120639" />
      <path d="M 11.093424,5.120639 C 11.196032,4.92246 11.394952,4.719303 11.680031,4.601901" />
      <path d="M 11.86924,4.120461 Q 11.772586,4.362157 11.680031,4.601901" />
      <path d="M 11.680031,4.601901 C 11.798157,4.571737 11.902953,4.536294 11.994422,4.495573 C 12.084284,4.45459 12.157982,4.404998 12.173739,4.35635" />
      <path d="M 12.173739,4.35635 Q 12.189363,4.310561 12.129192,4.275742" />
      <path d="M 12.129192,4.275742 Q 11.97587,4.19203 11.842832,4.102965" />
      <path d="M 11.842832,4.102965 C 11.766649,4.051422 11.579026,4.039662 11.405458,4.053766 C 11.229429,4.069391 11.065923,4.098229 10.914939,4.140278" />
      <path d="M 10.914939,4.140278 C 10.665701,4.1787 10.342861,4.189321 10.012636,4.180734 C 9.681578,4.172128 9.343347,4.144865 9.038938,4.106683" />
      <path d="M 9.038938,4.106683 Q 8.932397,3.993709 8.847304,3.877873" />
      <path d="M 8.942213,3.505624 Q 8.892055,3.692291 8.847304,3.877873" />
      <path d="M 8.847304,3.877873 C 9.214176,3.672619 9.77664,3.460629 10.295666,3.400872" />
      <path d="M 10.295712,3.400444 L 10.295666,3.400872" />
      <path d="M 10.295666,3.400872 C 10.473086,3.398221 10.64163,3.383091 10.801297,3.355482 C 10.957194,3.327233 11.092018,3.277354 11.094478,3.220115" />
      <path d="M 11.094478,3.220115 L 11.093302,3.208033" />
      <path d="M 8.065972,0.947695 L 8.061727,0.978068" />
      <path d="M 8.061727,0.978068 Q 8.12911,1.09151 8.183109,1.206088" />
      <path d="M 8.218495,0.877764 L 8.183109,1.206088" />
      <path d="M 8.183109,1.206088 C 8.219661,1.271269 8.50768,1.280772 8.650448,1.278508" />
      <path d="M 8.698786,0.779844 L 8.650448,1.278508" />
      <path d="M 8.650448,1.278508 C 9.338662,1.274152 10.187273,1.384465 10.860205,1.51559" />
      <path d="M 10.866994,1.427442 L 10.860205,1.51559" />
      <path d="M 10.860205,1.51559 Q 10.896367,1.656494 10.915803,1.797923" />
      <path d="M 10.927757,1.462535 L 10.915803,1.797923" />
      <path d="M 10.915803,1.797923 C 10.30246,1.969388 9.507447,2.131247 8.825975,2.169846" />
      <path d="M 8.825975,2.169846 C 8.684074,2.17651 8.403311,2.203851 8.392722,2.270511" />
      <path d="M 8.392722,2.270511 Q 8.384235,2.387048 8.362084,2.503299" />
      <path d="M 8.362084,2.503299 L 8.361949,2.507153" />
      <path d="M 8.361949,2.507153 C 8.365747,2.571566 8.629824,2.609193 8.766529,2.621521" />
      <path d="M 8.758763,2.499051 L 8.766529,2.621521" />
      <path d="M 8.766529,2.621521 C 9.434119,2.688397 10.18227,2.882601 10.747229,3.078763" />
      <path d="M 10.720481,2.868172 L 10.747229,3.078763" />
      <path d="M 10.747229,3.078763 Q 10.690774,3.218601 10.617824,3.357218" />
      <path d="M 10.617824,3.357218 C 9.914175,3.45949 9.041276,3.53372 8.357991,3.500618" />
      <path d="M 8.357991,3.500618 C 8.216603,3.492398 7.927675,3.489808 7.874213,3.553103" />
      <path d="M 7.874213,3.553103 Q 7.790434,3.664792 7.693643,3.774794" />
      <path d="M 7.693643,3.774794 Q 7.684745,3.786176 7.687229,3.797598" />
      <path d="M 7.687229,3.797598 C 7.699125,3.85381 7.896046,3.907315 8.007633,3.930762" />
      <path d="M 7.916566,3.527418 L 8.007633,3.930762" />
      <path d="M 8.007633,3.930762 C 8.609103,4.064312 9.205808,4.329172 9.624294,4.577003" />
      <path d="M 9.49041,4.152803 L 9.624294,4.577003" />
      <path d="M 9.624294,4.577003 Q 9.47907,4.706245 9.318705,4.832604" />
      <path d="M 9.318705,4.832604 C 8.572702,4.858714 7.681403,4.840256 7.04287,4.737707" />
      <path d="M 7.04287,4.737707 C 6.911631,4.715164 6.634227,4.68282 6.541537,4.738437" />
      <path d="M 6.541537,4.738437 Q 6.388176,4.837667 6.22334,4.933923" />
      <path d="M 6.22334,4.933923 Q 6.192178,4.954393 6.201549,4.978832" />
      <path d="M 6.201549,4.978832 C 6.218976,5.029917 6.345426,5.087442 6.425477,5.117008" />
      <path d="M 6.336218,4.866846 L 6.425477,5.117008" />
      <path d="M 6.425477,5.117008 C 6.919837,5.30813 7.324432,5.625598 7.567926,5.908208" />
      <path d="M 7.0158,4.733265 Q 7.300366,5.32405 7.567926,5.908208" />
      <path d="M 7.567926,5.908208 Q 7.34383,6.018046 7.106977,6.123536" />
      <path d="M 7.106977,6.123536 C 6.36946,6.071704 5.520503,5.961816 4.970236,5.79681" />
      <path d="M 4.970236,5.79681 C 4.858089,5.76148 4.611115,5.701586 4.485513,5.745733" />
      <path d="M 4.485513,5.745733 Q 4.27302,5.825743 4.051373,5.901694" />
      <path d="M 4.051373,5.901694 C 3.999384,5.920586 3.991302,5.950323 4.005066,5.981773" />
      <path d="M 4.005066,5.981773 C 4.024006,6.024999 4.083533,6.07133 4.127881,6.099418" />
      <path d="M 4.040452,5.906105 L 4.127881,6.099418" />
      <path d="M 4.127881,6.099418 C 4.342798,6.242315 4.497191,6.429644 4.594857,6.619795" />
      <path d="M 4.594857,6.619795 Q 4.688017,6.804293 4.718263,6.981658" />
      <path d="M 4.718263,6.981658 Q 4.430566,7.064608 4.133368,7.142039" />
      <path d="M 4.133368,7.142039 C 3.454597,7.015798 2.705836,6.821969 2.281335,6.60575" />
      <path d="M 2.281335,6.60575 C 2.195923,6.56004 1.996209,6.476678 1.846254,6.506348" />
      <path d="M 1.846254,6.506348 Q 1.589112,6.561683 1.325759,6.612153" />
      <path d="M 1.325759,6.612153 C 1.209236,6.636286 1.216124,6.711934 1.244905,6.769185" />
      <path d="M 1.244905,6.769185 Q 1.257202,6.793053 1.271424,6.811042" />
      <path d="M 1.230208,6.729586 L 1.271424,6.811042" />
      <path d="M 1.271424,6.811042 Q 1.298748,6.849249 1.319709,6.890054" />
      <path d="M 1.319709,6.890054 C 1.450174,7.144349 1.398722,7.458854 1.269505,7.724199" />
      <path d="M 1.269505,7.724199 Q 0.937813,7.774607 0.600523,7.818704" />
      <path d="M 0.600523,7.818704 C 0.026755,7.626657 -0.570783,7.362095 -0.840588,7.109398" />
      <path d="M -0.840588,7.109398 C -0.893444,7.056424 -1.032288,6.955275 -1.196376,6.968446" />
      <path d="M -1.196376,6.968446 Q -1.480645,6.995336 -1.767757,7.016886" />
      <path d="M -1.767757,7.016886 C -1.931092,7.031473 -1.954905,7.146412 -1.949232,7.203386" />
      <path d="M -1.949232,7.203386 C -1.938316,7.47803 -2.214742,7.816684 -2.543321,8.08523" />
      <path d="M -2.543321,8.08523 Q -2.896403,8.099661 -3.2508,8.107417" />
      <path d="M -3.2508,8.107417 C -3.647008,7.881514 -4.021666,7.595407 -4.154601,7.338063" />
      <path d="M -4.154601,7.338063 Q -4.171492,7.305294 -4.18278,7.273433" />
      <path d="M -4.216439,7.207162 L -4.18278,7.273433" />
      <path d="M -4.18278,7.273433 Q -4.187048,7.258669 -4.196102,7.240418" />
      <path d="M -4.196102,7.240418 C -4.225497,7.181983 -4.296567,7.103888 -4.435029,7.100536" />
      <path d="M -4.435029,7.100536 Q -4.727052,7.097149 -5.018357,7.088309" />
      <path d="M -5.018357,7.088309 C -5.185587,7.085528 -5.283133,7.194092 -5.314604,7.24971" />
      <path d="M -5.314604,7.24971 C -5.482183,7.516124 -5.968827,7.814687 -6.460378,8.040145" />
      <path d="M -6.460378,8.040145 Q -6.810788,8.017615 -7.15814,7.988503" />
      <path d="M -7.15814,7.988503 Q -7.325681,7.806004 -7.431677,7.6047" />
      <path d="M -7.431677,7.6047 C -7.523961,7.425643 -7.565298,7.242437 -7.517476,7.086676" />
      <path d="M -7.602388,6.903826 L -7.517476,7.086676" />
      <path d="M -7.517476,7.086676 C -7.506783,7.057176 -7.499917,7.012305 -7.517926,6.972613" />
      <path d="M -7.517926,6.972613 C -7.534577,6.935905 -7.572845,6.903687 -7.648996,6.893615" />
      <path d="M -7.648996,6.893615 Q -7.928871,6.860182 -8.204518,6.821556" />
      <path d="M -8.204518,6.821556 C -8.364246,6.801597 -8.528877,6.896386 -8.595348,6.946859" />
      <path d="M -8.595348,6.946859 C -8.930002,7.186886 -9.5937,7.425012 -10.214723,7.592017" />
      <path d="M -10.214723,7.592017 Q -10.538582,7.534063 -10.855217,7.470066" />
      <path d="M -11.421783,6.263381 Q -11.142133,6.869041 -10.855217,7.470066" />
      <path d="M -10.855217,7.470066 C -10.920645,7.17236 -10.874393,6.816671 -10.617422,6.561853" />
      <path d="M -10.705164,6.340448 L -10.617422,6.561853" />
      <path d="M -10.617422,6.561853 C -10.578193,6.525373 -10.527526,6.461554 -10.546074,6.412967" />
      <path d="M -10.546074,6.412967 Q -10.556732,6.379668 -10.619249,6.361787" />
      <path d="M -10.619249,6.361787 Q -10.867905,6.300585 -11.109107,6.234804" />
      <path d="M -11.109107,6.234804 C -11.250448,6.199028 -11.470946,6.273583 -11.567887,6.315471" />
      <path d="M -11.567887,6.315471 C -12.046809,6.512754 -12.842331,6.674215 -13.550506,6.771386" />
      <path d="M -13.550506,6.771386 Q -13.825743,6.681956 -14.090083,6.587436" />
      <path d="M -14.499858,5.489032 Q -14.298776,6.039649 -14.090083,6.587436" />
      <path d="M -14.090083,6.587436 C -13.960201,6.293116 -13.68484,5.954324 -13.271361,5.73473" />
      <path d="M -13.360466,5.447073 L -13.271361,5.73473" />
      <path d="M -13.271361,5.73473 C -13.200273,5.698721 -13.090291,5.628737 -13.1057,5.57612" />
      <path d="M -13.1057,5.57612 Q -13.110906,5.556354 -13.143372,5.541293" />
      <path d="M -13.143372,5.541293 Q -13.343861,5.456493 -13.534182,5.368041" />
      <path d="M -13.534182,5.368041 C -13.647505,5.318886 -13.908843,5.368126 -14.029647,5.398573" />
      <path d="M -14.029647,5.398573 C -14.6202,5.539668 -15.493332,5.613461 -16.240397,5.634176" />
      <path d="M -16.240397,5.634176 Q -16.448255,5.519365 -16.642286,5.400763" />
      <path d="M -16.9286,4.307956 Q -16.789697,4.855261 -16.642286,5.400763" />
      <path d="M -16.642286,5.400763 C -16.325946,5.129887 -15.840242,4.83108 -15.298432,4.661675" />
      <path d="M -15.384251,4.253436 L -15.298432,4.661675" />
      <path d="M -15.298432,4.661675 C -15.197243,4.631516 -15.023308,4.566239 -15.034136,4.509921" />
      <path d="M -15.034136,4.509921 Q -15.036246,4.498617 -15.049348,4.488048" />
      <path d="M -15.049348,4.488048 Q -15.188009,4.385431 -15.314479,4.280335" />
      <path d="M -15.314479,4.280335 C -15.39206,4.22115 -15.676428,4.241719 -15.812862,4.258652" />
      <path d="M -15.812862,4.258652 C -16.474801,4.333943 -17.366041,4.315039 -18.101085,4.257886" />
      <path d="M -18.101085,4.257886 Q -18.2274,4.125519 -18.337898,3.990917" />
      <path d="M -18.503031,2.824616 Q -18.42559,3.408238 -18.337898,3.990917" />
      <path d="M -18.337898,3.990917 C -17.856659,3.761944 -17.193711,3.523486 -16.560494,3.415815" />
      <path d="M -16.605852,2.977453 L -16.560494,3.415815" />
      <path d="M -16.560494,3.415815 C -16.434187,3.395722 -16.19916,3.34476 -16.204367,3.283406" />
      <path d="M -16.204367,3.283406 L -16.20729,3.273831" />
      <path d="M -16.20729,3.273831 Q -16.274673,3.160389 -16.328673,3.045811" />
      <path d="M -16.328673,3.045811 C -16.365225,2.98063 -16.653243,2.971127 -16.796011,2.973391" />
      <path d="M -16.796011,2.973391 C -17.484226,2.977747 -18.332836,2.867434 -19.005768,2.736308" />
      <path d="M -19.03783,-2.927566 Q -19.083868,-1.697754 -19.083885,-0.46816" />
      <path d="M -19.03783,-2.927566 Q -19.010046,-3.068773 -18.965573,-3.209297" />
      <path d="M -19.005768,2.736308 Q -19.04193,2.595405 -19.061367,2.453976" />
      <path d="M -18.965573,-3.209297 Q -19.083928,-1.237877 -19.083871,0.735216" />
      <path d="M -19.083871,0.735216 Q -19.083846,1.594437 -19.061367,2.453976" />
      <path d="M -18.965573,-3.209297 Q -18.695011,-3.258909 -18.400327,-3.301164" />
      <path d="M -19.061367,2.453976 C -18.448023,2.282511 -17.65301,2.120652 -16.971539,2.082052" />
      <path d="M -16.968415,1.624473 L -16.971539,2.082052" />
      <path d="M -16.971539,2.082052 C -16.829637,2.075389 -16.548874,2.048048 -16.538285,1.981388" />
      <path d="M -16.534548,1.711273 L -16.538285,1.981388" />
      <path d="M -16.538285,1.981388 Q -16.529798,1.864851 -16.507647,1.7486" />
      <path d="M -16.507521,1.744565 L -16.507647,1.7486" />
      <path d="M -16.507647,1.7486 L -16.507498,1.746583" />
      <path d="M -16.507498,1.746583 C -16.506237,1.681063 -16.774111,1.642817 -16.912093,1.630378" />
      <path d="M -16.912093,1.630378 C -17.579682,1.563502 -18.327833,1.369298 -18.892792,1.173136" />
      <path d="M -18.223793,-4.457275 Q -18.676575,-1.654116 -18.892792,1.173136" />
      <path d="M -18.223793,-4.457275 Q -18.105376,-4.590801 -17.971279,-4.721943" />
      <path d="M -18.892792,1.173136 Q -18.836338,1.033298 -18.763387,0.894681" />
      <path d="M -17.971279,-4.721943 Q -18.484056,-1.927895 -18.763387,0.894681" />
      <path d="M -17.971279,-4.721943 C -17.582735,-4.748205 -17.157807,-4.76361 -16.742383,-4.760693" />
      <path d="M -18.763387,0.894681 C -18.059738,0.792409 -17.186839,0.718179 -16.503554,0.751281" />
      <path d="M -16.444444,0.246541 L -16.503554,0.751281" />
      <path d="M -16.503554,0.751281 C -16.362166,0.759501 -16.073238,0.762091 -16.019777,0.698796" />
      <path d="M -15.979647,0.367129 L -16.019777,0.698796" />
      <path d="M -16.019777,0.698796 Q -15.935998,0.587107 -15.839207,0.477105" />
      <path d="M -15.835116,0.447424 L -15.839207,0.477105" />
      <path d="M -15.839207,0.477105 Q -15.833477,0.469867 -15.832511,0.462593" />
      <path d="M -15.832511,0.462593 C -15.824912,0.403493 -16.036193,0.345709 -16.153196,0.321137" />
      <path d="M -16.153196,0.321137 C -16.754666,0.187587 -17.351371,-0.077273 -17.769857,-0.325104" />
      <path d="M -16.445388,-5.850782 Q -17.21406,-3.111796 -17.769857,-0.325104" />
      <path d="M -16.445388,-5.850782 Q -16.244407,-5.967526 -16.029826,-6.08035" />
      <path d="M -17.769857,-0.325104 Q -17.624633,-0.454346 -17.464268,-0.580705" />
      <path d="M -16.029826,-6.08035 Q -16.85054,-3.356361 -17.464268,-0.580705" />
      <path d="M -16.029826,-6.08035 C -15.44314,-6.058329 -14.787216,-6.00383 -14.245712,-5.909923" />
      <path d="M -17.464268,-0.580705 C -16.718265,-0.606815 -15.826967,-0.588357 -15.188433,-0.485808" />
      <path d="M -15.050356,-1.103004 L -15.188433,-0.485808" />
      <path d="M -15.188433,-0.485808 C -15.057194,-0.463265 -14.77979,-0.430921 -14.6871,-0.486538" />
      <path d="M -14.599861,-0.876417 L -14.6871,-0.486538" />
      <path d="M -14.6871,-0.486538 Q -14.533739,-0.585768 -14.368903,-0.682024" />
      <path d="M -14.354694,-0.741392 L -14.368903,-0.682024" />
      <path d="M -14.368903,-0.682024 Q -14.349148,-0.694573 -14.345997,-0.70891" />
      <path d="M -14.345997,-0.70891 C -14.333197,-0.763655 -14.481473,-0.832041 -14.57104,-0.865109" />
      <path d="M -14.57104,-0.865109 C -15.0654,-1.056231 -15.469995,-1.373699 -15.713489,-1.656309" />
      <path d="M -13.823811,-7.013121 Q -14.855988,-4.368748 -15.713489,-1.656309" />
      <path d="M -13.823811,-7.013121 Q -13.553962,-7.105129 -13.27352,-7.191945" />
      <path d="M -15.713489,-1.656309 Q -15.489393,-1.766147 -15.25254,-1.871637" />
      <path d="M -13.27352,-7.191945 Q -14.34624,-4.567434 -15.25254,-1.871637" />
      <path d="M -13.27352,-7.191945 C -12.57128,-7.08814 -11.785515,-6.919242 -11.318377,-6.717509" />
      <path d="M -15.25254,-1.871637 C -14.515023,-1.819805 -13.666066,-1.709918 -13.115799,-1.544911" />
      <path d="M -11.318377,-6.717509 Q -11.793632,-5.46 -12.23664,-4.186795" />
      <path d="M -12.803644,-2.510648 Q -12.961993,-2.028885 -13.115799,-1.544911" />
      <path d="M -11.318377,-6.717509 C -11.272417,-6.696727 -11.19896,-6.668365 -11.118546,-6.648226" />
      <path d="M -13.115799,-1.544911 C -13.003652,-1.509581 -12.756678,-1.449687 -12.631076,-1.493835" />
      <path d="M -12.468711,-2.004046 L -12.631076,-1.493835" />
      <path d="M -12.631076,-1.493835 Q -12.418583,-1.573844 -12.196937,-1.649795" />
      <path d="M -12.16318,-1.751595 L -12.196937,-1.649795" />
      <path d="M -12.196937,-1.649795 Q -12.153921,-1.666197 -12.1469,-1.690502" />
      <path d="M -12.1469,-1.690502 C -12.129994,-1.741687 -12.215138,-1.810592 -12.273445,-1.847519" />
      <path d="M -12.273445,-1.847519 C -12.627005,-2.08319 -12.811918,-2.431629 -12.863826,-2.729759" />
      <path d="M -10.537717,-7.86508 Q -11.763059,-5.339314 -12.863826,-2.729759" />
      <path d="M -10.537717,-7.86508 Q -10.21739,-7.926081 -9.890198,-7.980973" />
      <path d="M -12.863826,-2.729759 Q -12.576129,-2.812709 -12.278931,-2.89014" />
      <path d="M -9.890198,-7.980973 Q -11.141821,-5.478579 -12.278931,-2.89014" />
      <path d="M -9.890198,-7.980973 C -9.27921,-7.808174 -8.62976,-7.563872 -8.309375,-7.320764" />
      <path d="M -12.278931,-2.89014 C -11.60016,-2.763899 -10.851399,-2.57007 -10.426898,-2.353851" />
      <path d="M -8.309375,-7.320764 Q -9.411377,-4.875445 -10.426898,-2.353851" />
      <path d="M -8.309375,-7.320764 C -8.245904,-7.26968 -8.086916,-7.173369 -7.926053,-7.191819" />
      <path d="M -10.426898,-2.353851 C -10.341487,-2.308141 -10.141773,-2.224779 -9.991818,-2.254449" />
      <path d="M -7.926053,-7.191819 Q -8.998835,-4.76034 -9.991818,-2.254449" />
      <path d="M -7.926053,-7.191819 Q -7.704139,-7.22059 -7.479663,-7.246031" />
      <path d="M -9.991818,-2.254449 Q -9.734675,-2.309785 -9.471322,-2.360255" />
      <path d="M -9.399974,-2.534439 L -9.471322,-2.360255" />
      <path d="M -9.471322,-2.360255 Q -9.392564,-2.378818 -9.378584,-2.420385" />
      <path d="M -9.378584,-2.420385 C -9.359551,-2.466472 -9.39,-2.524381 -9.416987,-2.559143" />
      <path d="M -7.137251,-7.912354 C -7.059603,-8.063214 -6.943634,-8.212896 -6.811048,-8.348601" />
      <path d="M -9.416987,-2.559143 C -9.605655,-2.823302 -9.558283,-3.178968 -9.415068,-3.472301" />
      <path d="M -6.811048,-8.348601 Q -8.067078,-6.098807 -9.264698,-3.765981" />
      <path d="M -9.264698,-3.765981 L -9.415068,-3.472301" />
      <path d="M -6.811048,-8.348601 Q -6.462074,-8.374438 -6.11043,-8.393665" />
      <path d="M -9.415068,-3.472301 Q -9.083376,-3.522709 -8.746086,-3.566805" />
      <path d="M -6.11043,-8.393665 Q -7.455659,-6.027706 -8.746086,-3.566805" />
      <path d="M -6.11043,-8.393665 C -5.632331,-8.163647 -5.163455,-7.86059 -5.011656,-7.592674" />
      <path d="M -8.746086,-3.566805 C -8.172318,-3.374758 -7.57478,-3.110196 -7.304975,-2.857499" />
      <path d="M -5.011656,-7.592674 Q -6.175346,-5.266391 -7.304975,-2.857499" />
      <path d="M -5.011656,-7.592674 C -4.983479,-7.536775 -4.892372,-7.427324 -4.725024,-7.428531" />
      <path d="M -7.304975,-2.857499 C -7.252119,-2.804525 -7.113275,-2.703376 -6.949187,-2.716547" />
      <path d="M -4.725024,-7.428531 Q -5.851513,-5.112598 -6.949187,-2.716547" />
      <path d="M -4.725024,-7.428531 Q -4.433278,-7.434629 -4.141136,-7.435268" />
      <path d="M -6.949187,-2.716547 Q -6.664918,-2.743437 -6.377806,-2.764987" />
      <path d="M -4.141136,-7.435268 Q -5.269162,-5.140412 -6.377806,-2.764987" />
      <path d="M -4.141136,-7.435268 C -4.022626,-7.436959 -3.949907,-7.49402 -3.91103,-7.546711" />
      <path d="M -6.377806,-2.764987 C -6.281783,-2.773371 -6.233714,-2.817095 -6.211937,-2.86284" />
      <path d="M -6.211937,-2.86284 Q -6.190969,-2.913457 -6.196332,-2.951487" />
      <path d="M -3.878746,-7.605745 L -3.860747,-7.64446" />
      <path d="M -3.860747,-7.64446 C -3.725278,-7.906737 -3.320873,-8.201275 -2.897771,-8.430732" />
      <path d="M -6.196332,-2.951487 Q -6.199867,-3.090591 -6.118933,-3.244994" />
      <path d="M -6.118933,-3.244994 C -6.014993,-3.446708 -5.820975,-3.654101 -5.602242,-3.833331" />
      <path d="M -2.897771,-8.430732 Q -4.251455,-6.180741 -5.602242,-3.833331" />
      <path d="M -2.897771,-8.430732 Q -2.543931,-8.419644 -2.191799,-8.401896" />
      <path d="M -5.602242,-3.833331 Q -5.24916,-3.847762 -4.894763,-3.855518" />
      <path d="M -2.191799,-8.401896 Q -3.538959,-6.17739 -4.894763,-3.855518" />
      <path d="M -2.191799,-8.401896 C -1.879171,-8.130335 -1.622822,-7.789175 -1.649955,-7.51471" />
      <path d="M -4.894763,-3.855518 C -4.4651,-3.610752 -4.059506,-3.293488 -3.962783,-3.021534" />
      <path d="M -1.649955,-7.51471 Q -2.796029,-5.309778 -3.962783,-3.021534" />
      <path d="M -1.649955,-7.51471 C -1.658991,-7.457805 -1.641974,-7.342674 -1.479545,-7.326555" />
      <path d="M -3.962783,-3.021534 C -3.946085,-2.964906 -3.877574,-2.852862 -3.710534,-2.848637" />
      <path d="M -1.479545,-7.326555 Q -2.582974,-5.127778 -3.710534,-2.848637" />
      <path d="M -1.479545,-7.326555 Q -1.193786,-7.302311 -0.911184,-7.272754" />
      <path d="M -3.710534,-2.848637 Q -3.418511,-2.84525 -3.127206,-2.83641" />
      <path d="M -0.911184,-7.272754 Q -2.002428,-5.094494 -3.127206,-2.83641" />
      <path d="M -0.911184,-7.272754 C -0.747919,-7.258043 -0.60314,-7.357859 -0.54717,-7.410321" />
      <path d="M -3.127206,-2.83641 C -2.959976,-2.83363 -2.862431,-2.942193 -2.830959,-2.997811" />
      <path d="M -0.54717,-7.410321 Q -1.669602,-5.245199 -2.830959,-2.997811" />
      <path d="M -0.54717,-7.410321 C -0.262516,-7.66041 0.350481,-7.919278 0.935432,-8.105876" />
      <path d="M -2.830959,-2.997811 C -2.66338,-3.264225 -2.176736,-3.562788 -1.685186,-3.788246" />
      <path d="M 0.935432,-8.105876 Q -0.344683,-5.99426 -1.685186,-3.788246" />
      <path d="M 0.935432,-8.105876 Q 1.270024,-8.058619 1.598646,-8.005105" />
      <path d="M -1.685186,-3.788246 Q -1.334775,-3.765716 -0.987424,-3.736604" />
      <path d="M 1.598646,-8.005105 Q 0.341362,-5.917432 -0.987424,-3.736604" />
      <path d="M 1.598646,-8.005105 C 1.707898,-7.748424 1.742496,-7.447387 1.615091,-7.199175" />
      <path d="M -0.987424,-3.736604 C -0.731146,-3.4558 -0.545137,-3.107454 -0.628087,-2.834777" />
      <path d="M 0.351406,-4.735895 L 0.090591,-4.227163" />
      <path d="M 0.090591,-4.227163 Q -0.264887,-3.535057 -0.628087,-2.834777" />
      <path d="M 1.496494,-6.968736 C 1.50081,-6.935879 1.525944,-6.906645 1.589209,-6.892839" />
      <path d="M -0.628087,-2.834777 C -0.648684,-2.778353 -0.655175,-2.663051 -0.496567,-2.641716" />
      <path d="M 1.589209,-6.892839 Q 0.584037,-4.804844 -0.496567,-2.641716" />
      <path d="M 1.589209,-6.892839 Q 1.849508,-6.839906 2.103311,-6.782168" />
      <path d="M -0.496567,-2.641716 Q -0.216692,-2.608283 0.058954,-2.569657" />
      <path d="M 2.103311,-6.782168 Q 1.123216,-4.712733 0.058954,-2.569657" />
      <path d="M 2.103311,-6.782168 C 2.251472,-6.751095 2.456054,-6.832556 2.544141,-6.87745" />
      <path d="M 0.058954,-2.569657 C 0.218683,-2.549698 0.383314,-2.644487 0.449785,-2.69496" />
      <path d="M 2.544141,-6.87745 Q 1.542442,-4.823926 0.449785,-2.69496" />
      <path d="M 2.544141,-6.87745 C 2.981294,-7.089616 3.741294,-7.276349 4.427332,-7.396171" />
      <path d="M 0.449785,-2.69496 C 0.784439,-2.934987 1.448137,-3.173113 2.06916,-3.340118" />
      <path d="M 4.427332,-7.396171 Q 3.308025,-5.410617 2.06916,-3.340118" />
      <path d="M 4.427332,-7.396171 Q 4.719875,-7.315965 5.002593,-7.230333" />
      <path d="M 2.06916,-3.340118 Q 2.393019,-3.282164 2.709654,-3.218167" />
      <path d="M 5.002593,-7.230333 Q 3.920866,-5.265548 2.709654,-3.218167" />
      <path d="M 5.002593,-7.230333 Q 4.968384,-7.082798 4.890363,-6.929352" />
      <path d="M 2.709654,-3.218167 C 2.757523,-2.998017 2.745809,-2.749214 2.632878,-2.529347" />
      <path d="M 2.632878,-2.529347 Q 2.572658,-2.410824 2.471859,-2.309954" />
      <path d="M 2.471859,-2.309954 Q 2.434266,-2.276529 2.408277,-2.228199" />
      <path d="M 2.408277,-2.228199 C 2.385781,-2.181398 2.38965,-2.131965 2.473686,-2.109888" />
      <path d="M 2.965673,-3.176788 Q 2.723806,-2.645536 2.473686,-2.109888" />
      <path d="M 4.458305,-6.088654 L 4.696915,-5.996941" />
      <path d="M 2.473686,-2.109888 Q 2.722341,-2.048686 2.963544,-1.982905" />
      <path d="M 4.696915,-5.996941 Q 3.89476,-4.021142 2.963544,-1.982905" />
      <path d="M 4.696915,-5.996941 C 4.819875,-5.951624 5.070318,-6.009179 5.18452,-6.043444" />
      <path d="M 2.963544,-1.982905 C 3.104885,-1.947129 3.325383,-2.021684 3.422324,-2.063572" />
      <path d="M 5.18452,-6.043444 Q 4.371817,-4.085246 3.422324,-2.063572" />
      <path d="M 5.18452,-6.043444 C 5.744379,-6.203229 6.59959,-6.305102 7.339964,-6.349982" />
      <path d="M 3.422324,-2.063572 C 3.901246,-2.260855 4.696768,-2.422316 5.404943,-2.519487" />
      <path d="M 7.339964,-6.349982 Q 6.457743,-4.469586 5.404943,-2.519487" />
      <path d="M 7.339964,-6.349982 Q 7.570521,-6.242294 7.788068,-6.130379" />
      <path d="M 5.404943,-2.519487 Q 5.68018,-2.430057 5.94452,-2.335537" />
      <path d="M 7.788068,-6.130379 Q 7.077531,-4.539182 6.236845,-2.899606" />
      <path d="M 6.236845,-2.899606 Q 6.092598,-2.618283 5.94452,-2.335537" />
      <path d="M 5.94452,-2.335537 L 5.908198,-2.259743" />
      <path d="M 5.908198,-2.259743 C 5.767705,-1.985424 5.503928,-1.683457 5.125798,-1.482831" />
      <path d="M 5.125798,-1.482831 C 5.066829,-1.452955 4.981534,-1.399977 4.962431,-1.352612" />
      <path d="M 4.962431,-1.352612 Q 4.944888,-1.315557 4.997808,-1.289394" />
      <path d="M 5.058708,-1.444545 L 4.997808,-1.289394" />
      <path d="M 4.997808,-1.289394 Q 5.198298,-1.204595 5.388619,-1.116143" />
      <path d="M 5.691531,-1.937852 Q 5.543757,-1.528045 5.388619,-1.116143" />
      <path d="M 5.388619,-1.116143 C 5.501942,-1.066987 5.763279,-1.116227 5.884083,-1.146674" />
      <path d="M 7.087141,-4.615033 Q 6.556937,-2.900273 5.884083,-1.146674" />
      <path d="M 7.257662,-4.974302 C 7.897389,-5.06233 8.754488,-5.070608 9.474836,-5.038607" />
      <path d="M 5.884083,-1.146674 C 6.474637,-1.287769 7.347768,-1.361562 8.094834,-1.382277" />
      <path d="M 9.474836,-5.038607 Q 8.889823,-3.235296 8.094834,-1.382277" />
      <path d="M 9.474836,-5.038607 Q 9.627695,-4.910775 9.765246,-4.780203" />
      <path d="M 8.094834,-1.382277 Q 8.302692,-1.267466 8.496723,-1.148864" />
      <path d="M 9.765246,-4.780203 Q 9.238799,-2.98738 8.496723,-1.148864" />
      <path d="M 8.496723,-1.148864 C 8.180383,-0.877988 7.694679,-0.579181 7.152869,-0.409776" />
      <path d="M 7.152869,-0.409776 C 7.059524,-0.381943 6.904763,-0.32444 6.889245,-0.271398" />
      <path d="M 6.889245,-0.271398 Q 6.88338,-0.252985 6.903785,-0.23615" />
      <path d="M 6.925272,-0.312521 L 6.903785,-0.23615" />
      <path d="M 6.903785,-0.23615 Q 7.042446,-0.133532 7.168916,-0.028436" />
      <path d="M 7.275892,-0.450719 L 7.168916,-0.028436" />
      <path d="M 7.168916,-0.028436 C 7.246497,0.030749 7.530864,0.01018 7.667299,-0.006753" />
      <path d="M 7.840759,-0.703184 Q 7.757477,-0.355451 7.667299,-0.006753" />
      <path d="M 9.427916,-3.694119 C 9.860772,-3.664016 10.296928,-3.612023 10.686461,-3.551412" />
      <path d="M 7.667299,-0.006753 C 8.329238,-0.082044 9.220478,-0.06314 9.955522,-0.005987" />
      <path d="M 10.686461,-3.551412 Q 10.438523,-1.791863 9.955522,-0.005987" />
      <path d="M 10.686461,-3.551412 Q 10.751204,-3.412147 10.799384,-3.271817" />
      <path d="M 9.955522,-0.005987 Q 10.081836,0.12638 10.192335,0.260982" />
      <path d="M 10.799384,-3.271817 Q 10.61482,-1.51635 10.192335,0.260982" />
      <path d="M 10.192335,0.260982 C 9.711096,0.489955 9.048148,0.728413 8.414931,0.836084" />
      <path d="M 8.414931,0.836084 C 8.292405,0.855585 8.067901,0.904032 8.058933,0.96294" />
      <path d="M 8.058933,0.96294 Q 8.057822,0.970417 8.061727,0.978068" />
      <path d="M 11.352221,-3.784436 C 12.109487,-2.326184 12.845076,-0.855024 13.607739,0.610738" />
      <path d="M 14.632532,-4.044917 L 14.644056,-4.02262 L 14.647117,-4.016697" />
      <path d="M 16.542961,-4.214222 C 17.301054,-2.756197 18.053743,-1.257657 18.802602,0.187533" />
      <path d="M 19.819485,-4.484454 Q 20.016379,-4.104952 20.214852,-3.717399" />
      <path d="M 24.686688,0.893144 L 24.686599,-0.064095" />
      <path d="M 19.560332,5.821309 Q 19.837449,5.287558 20.116987,4.741292" />
      <path d="M 16.446203,5.237836 L 16.287135,5.5452" />
      <path d="M 14.371942,5.386318 L 14.527545,5.085298" />
      <path d="M 11.644567,4.052194 Q 11.369582,4.589322 11.093424,5.120639" />
      <path d="M 4.199366,5.850168 L 4.594857,6.619795" />
      <path d="M 1.227307,6.710502 L 1.319709,6.890054" />
      <path d="M -4.231762,7.188112 L -4.154601,7.338063" />
      <path d="M -7.807077,6.874275 L -7.431677,7.6047" />
      <path d="M -19.083885,-0.46816 L -19.083871,0.735216" />
      <path d="M -7.137251,-7.912354 C -7.84859,-6.529056 -8.548411,-5.16061 -9.264698,-3.765981" />
      <path d="M -3.860747,-7.64446 C -4.612363,-6.183808 -5.365311,-4.709937 -6.118933,-3.244994" />
      <path d="M 1.615091,-7.199175 Q 0.98447,-5.973667 0.351406,-4.735895" />
      <path d="M 4.890363,-6.929352 Q 3.762119,-4.730467 2.632878,-2.529347" />
      <path d="M 6.236845,-2.899606 L 5.908198,-2.259743" />
    </g>
  </g>
</svg>