<?xml version='1.0' encoding='utf-8'?>
<svg width="100.089999mm" height="87.654364mm" viewBox="-15.650008 -10.748006 28.0252 24.543222" version="1.1" xmlns="http://www.w3.org/2000/svg">
  <g transform="scale(1,-1)" stroke-linecap="round">
    <g fill="none" stroke="rgb(0,0,0)" stroke-width="0.02520000017999999" id="Visible">
      <path d="M 6.428723,4.790322 Q 6.477215,4.839908 6.533077,4.882892" />
      <path d="M 6.625493,4.512663 Q 6.490039,4.721974 6.327213,4.916425" />
      <path d="M 7.228004,2.511336 C 7.284681,2.610265 7.429666,2.681186 7.575519,2.718044 C 7.724452,2.755803 7.872336,2.766122 8.027981,2.763436" />
      <path d="M 8.027981,2.763436 Q 8.095012,2.779767 8.167523,2.806672" />
      <path d="M 6.327213,4.916425 Q 6.286887,4.966486 6.287153,5.030818" />
      <path d="M 6.287153,5.030818 C 6.287091,5.13995 6.372252,5.258706 6.475601,5.350079 C 6.580983,5.440761 6.700283,5.516266 6.8335,5.576593" />
      <line x1="6.8335" y1="5.499702" x2="6.8335" y2="5.576593" />
      <path d="M 6.8335,5.576593 C 6.979367,5.704502 7.114585,5.916976 7.206136,6.123794 C 7.299564,6.333988 7.355882,6.536167 7.394568,6.745427" />
      <line x1="7.394568" y1="6.603514" x2="7.394568" y2="6.745427" />
      <path d="M 4.32821,6.317728 L 4.331432,6.324737" />
      <path d="M 7.394568,6.745427 Q 7.175646,6.934371 6.938072,7.105957" />
      <path d="M 5.625075,6.530979 C 5.551097,6.389802 5.461312,6.260334 5.329845,6.15236 C 5.202527,6.046 5.023869,5.979398 4.898975,6.044413" />
      <path d="M 6.938072,7.105957 C 6.697949,7.055787 6.467501,6.991132 6.230772,6.894114 C 5.997813,6.798976 5.76185,6.666068 5.625075,6.530979" />
      <path d="M 7.538107,4.622815 C 7.391697,4.532261 7.238429,4.458623 7.061598,4.421466 C 6.889302,4.383926 6.695733,4.402826 6.625493,4.512663" />
      <line x1="5.925912" y1="4.180002" x2="6.625493" y2="4.512663" />
      <path d="M 4.487147,5.456461 C 5.080572,5.153625 5.593219,4.69881 5.925912,4.180002" />
      <line x1="4.898975" y1="6.044413" x2="4.487147" y2="5.456461" />
      <line x1="7.227297" y1="2.442918" x2="7.227297" y2="2.446096" />
      <path d="M 7.227297,2.446096 L 7.228004,2.516699" />
      <path d="M 7.228004,2.516699 Q 7.227993,2.7207 7.204476,2.923615" />
      <path d="M 6.651091,0.045925 Q 6.731907,0.174167 6.801887,0.30688" />
      <path d="M 6.801887,0.30688 C 6.86141,0.421275 7.052527,0.453684 7.227827,0.428353 C 7.407611,0.40372 7.567393,0.341077 7.721953,0.261093" />
      <path d="M 7.721953,0.261093 C 7.915627,0.21862 8.183909,0.222116 8.429601,0.253912 C 8.678957,0.285872 8.906031,0.340953 9.126528,0.410628" />
      <path d="M 9.294765,0.836573 L 9.31925,0.948141" />
      <path d="M 7.204476,2.923615 L 7.203609,2.939968" />
      <path d="M 7.203609,2.939968 C 7.202077,3.06149 7.35027,3.164664 7.51374,3.21508 C 7.680775,3.267714 7.851307,3.281296 8.027981,3.278329" />
      <line x1="8.027981" y1="2.763436" x2="8.027981" y2="3.278329" />
      <path d="M 8.027981,3.278329 C 8.228909,3.326579 8.469938,3.452629 8.669852,3.592497 C 8.873361,3.734484 9.040056,3.885437 9.195611,4.05008" />
      <line x1="9.195611" y1="3.979118" x2="9.195611" y2="4.05008" />
      <path d="M 9.195611,4.05008 Q 9.116222,4.307546 9.010556,4.557975" />
      <path d="M 9.010556,4.557975 C 8.773341,4.617449 8.536057,4.660232 8.274457,4.677681 C 8.017219,4.695142 7.735349,4.68118 7.538107,4.622815" />
      <path d="M -0.028812,6.382466 Q 0.070696,6.266704 0.138991,6.139607" />
      <path d="M -0.100946,6.834097 C -0.101264,6.670047 -0.078292,6.505645 -0.028812,6.382466" />
      <path d="M -2.254713,4.74251 C -2.082365,4.676114 -1.923087,4.59413 -1.795084,4.47258" />
      <path d="M -2.925433,5.868083 C -2.866909,5.662236 -2.791488,5.464684 -2.678315,5.261747 C -2.567335,5.062042 -2.412296,4.859762 -2.254713,4.74251" />
      <path d="M 4.756325,-1.596511 Q 5.000489,-1.480392 5.227319,-1.340809" />
      <path d="M 5.227319,-1.340809 C 5.34559,-1.267253 5.530005,-1.321104 5.667045,-1.418179 C 5.808375,-1.516573 5.910213,-1.63931 5.997415,-1.774826" />
      <path d="M 5.997415,-1.774826 C 6.146622,-1.899871 6.394477,-2.015787 6.635733,-2.09427 C 6.880927,-2.174362 7.116772,-2.222641 7.360877,-2.255804" />
      <path d="M 7.360877,-2.255804 Q 7.581283,-2.068133 7.78144,-1.864471" />
      <path d="M -3.225884,2.368185 C -3.050108,2.38353 -2.878877,2.381954 -2.7074,2.341227 C -2.539687,2.302458 -2.382142,2.210063 -2.371996,2.088866" />
      <path d="M -4.463243,3.055471 C -4.292498,2.902287 -4.111957,2.76353 -3.895582,2.63629 C -3.682992,2.510909 -3.430742,2.402184 -3.225884,2.368185" />
      <path d="M 2.345644,-2.11241 Q 2.624824,-2.116504 2.902677,-2.092847" />
      <path d="M 2.902677,-2.092847 C 3.035071,-2.081 3.155717,-2.185256 3.220833,-2.31273 C 3.288347,-2.44196 3.312409,-2.582933 3.316456,-2.720658" />
      <path d="M 3.316456,-2.798801 C 3.37274,-2.971047 3.51978,-3.17767 3.682938,-3.349047 C 3.848568,-3.523506 4.024657,-3.666406 4.216715,-3.799757" />
      <path d="M 4.216715,-3.799757 Q 4.517053,-3.7317 4.809182,-3.641117" />
      <path d="M 4.717016,-1.621102 Q 4.734976,-1.606882 4.756325,-1.596511" />
      <path d="M 4.809182,-3.641117 C 4.896275,-3.385951 4.955577,-3.120045 4.956953,-2.830485" />
      <path d="M -4.339604,0.468425 Q -4.260215,0.210959 -4.154548,-0.03947" />
      <path d="M -2.6821,-0.104311 C -2.53569,-0.013756 -2.382422,0.059881 -2.20559,0.097039 C -2.033295,0.134578 -1.839726,0.115679 -1.769486,0.005842" />
      <path d="M -4.154548,-0.03947 C -3.917334,-0.098945 -3.68005,-0.141727 -3.41845,-0.159176 C -3.161212,-0.176637 -2.879342,-0.162675 -2.6821,-0.104311" />
      <path d="M -0.042968,-1.525908 Q 0.196421,-1.649118 0.450847,-1.747725" />
      <path d="M 0.450847,-1.747725 Q 0.495736,-1.765698 0.527797,-1.799223" />
      <path d="M 0.360657,-2.830554 C 0.360677,-2.996237 0.38793,-3.169764 0.429344,-3.329625 C 0.471291,-3.488379 0.525933,-3.641566 0.59327,-3.789185" />
      <path d="M 0.59327,-3.789185 Q 0.893064,-3.85898 1.198889,-3.905747" />
      <path d="M 2.000617,-2.534905 C 2.015241,-2.435394 2.047746,-2.332702 2.106514,-2.250274 C 2.164325,-2.167994 2.250869,-2.110975 2.345644,-2.11241" />
      <path d="M 1.198889,-3.905747 C 1.377579,-3.759375 1.539441,-3.604606 1.687869,-3.419117 C 1.834127,-3.236873 1.960957,-3.020631 2.000617,-2.845015" />
      <path d="M -1.769486,0.005842 Q -1.677532,-0.136267 -1.572716,-0.271817" />
      <path d="M -2.53856,-2.226923 Q -2.319639,-2.415866 -2.082064,-2.587452" />
      <path d="M -0.769068,-2.012474 C -0.695089,-1.871297 -0.605305,-1.74183 -0.473837,-1.633855 C -0.34652,-1.527495 -0.167861,-1.460893 -0.042968,-1.525908" />
      <path d="M -2.082064,-2.587452 C -1.841942,-2.537282 -1.611494,-2.472627 -1.374765,-2.375609 C -1.141806,-2.280471 -0.905843,-2.147563 -0.769068,-2.012474" />
      <path d="M 4.898975,6.044413 Q 4.659586,6.167622 4.40516,6.26623" />
      <path d="M 4.40516,6.26623 C 4.301924,6.30589 4.252932,6.415968 4.254392,6.53322" />
      <path d="M 4.254392,6.53322 Q 4.258092,6.673007 4.316378,6.805629 Q 4.371942,6.934612 4.45857,7.054961" />
      <line x1="4.45857" y1="7.048558" x2="4.45857" y2="7.054961" />
      <path d="M 4.45857,7.054961 Q 4.49577,7.184883 4.495351,7.349059" />
      <path d="M 4.495351,7.349059 C 4.49533,7.514742 4.468077,7.688268 4.426663,7.84813 C 4.384716,8.006884 4.330074,8.160071 4.262737,8.30769" />
      <path d="M 4.262737,8.30769 Q 3.962943,8.377484 3.657119,8.424251" />
      <line x1="2.85539" y1="7.05341" x2="2.85539" y2="7.36352" />
      <path d="M 2.85539,7.36352 Q 2.865635,7.280935 2.865796,7.201285" />
      <path d="M 2.865796,7.201285 C 2.865694,7.078341 2.846256,6.948213 2.788311,6.833097 C 2.7321,6.718985 2.629344,6.628765 2.510363,6.630915" />
      <path d="M 3.657119,8.424251 C 3.478428,8.27788 3.316566,8.12311 3.168138,7.937622 C 3.02188,7.755378 2.89505,7.539136 2.85539,7.36352" />
      <line x1="7.227297" y1="2.446096" x2="6.427415" y2="2.457863" />
      <path d="M 5.925912,4.180002 C 6.263201,3.663381 6.441892,3.049764 6.427415,2.457863" />
      <path d="M 2.496636,5.945212 C 3.187188,5.937307 3.896428,5.76316 4.487147,5.456461" />
      <path d="M 0.487736,5.515296 C 1.090382,5.80444 1.806175,5.957623 2.496636,5.945212" />
      <path d="M 6.427415,2.457863 C 6.418193,1.865884 6.215048,1.257885 5.857279,0.751489" />
      <path d="M -1.001272,4.281909 C -0.64801,4.790625 -0.117461,5.230094 0.487736,5.515296" />
      <path d="M 5.857279,0.751489 C 5.504017,0.242773 4.973468,-0.196697 4.368272,-0.481899" />
      <path d="M -1.571408,2.575534 C -1.562186,3.167513 -1.359041,3.775513 -1.001272,4.281909" />
      <path d="M 4.368272,-0.481899 C 3.765625,-0.771042 3.049833,-0.924226 2.359371,-0.911815" />
      <path d="M -1.069904,0.853395 C -1.407194,1.370016 -1.585885,1.983633 -1.571408,2.575534" />
      <path d="M 2.359371,-0.911815 C 1.668819,-0.90391 0.959579,-0.729762 0.36886,-0.423063" />
      <path d="M 0.36886,-0.423063 C -0.224564,-0.120228 -0.737212,0.334588 -1.069904,0.853395" />
      <line x1="2.510363" y1="6.630915" x2="2.496636" y2="5.945212" />
      <path d="M 8.081891,2.150319 C 7.902648,2.134684 7.727395,2.136572 7.552899,2.179904 C 7.382117,2.220993 7.225379,2.319648 7.227289,2.444507" />
      <path d="M 7.227289,2.444507 L 7.227297,2.446096" />
      <line x1="6.543134" y1="0.186723" x2="6.543134" y2="0.398447" />
      <path d="M 6.543134,0.398447 Q 6.686859,0.603664 6.801887,0.821772" />
      <line x1="6.801887" y1="0.30688" x2="6.801887" y2="0.821772" />
      <path d="M 6.801887,0.821772 C 6.86141,0.936167 7.052527,0.968577 7.227827,0.943246 C 7.407611,0.918613 7.567393,0.85597 7.721953,0.775986" />
      <line x1="7.721953" y1="0.261093" x2="7.721953" y2="0.775986" />
      <path d="M 7.721953,0.775986 C 7.924104,0.731649 8.206361,0.7375 8.46107,0.772941 C 8.720129,0.808676 8.952535,0.867955 9.183279,0.943865" />
      <line x1="9.183279" y1="0.773292" x2="9.183279" y2="0.943865" />
      <path d="M 9.183279,0.943865 Q 9.264696,1.200865 9.31925,1.463034" />
      <line x1="9.31925" y1="0.948141" x2="9.31925" y2="1.463034" />
      <path d="M 9.31925,1.463034 C 9.148505,1.616217 8.967964,1.754975 8.751589,1.882215 C 8.538999,2.007596 8.28675,2.116321 8.081891,2.150319" />
      <path d="M 2.510363,6.630915 Q 2.231183,6.635009 1.95333,6.611351" />
      <path d="M 1.95333,6.611351 C 1.814542,6.598916 1.68996,6.713596 1.626204,6.848782 C 1.559777,6.986268 1.539394,7.132011 1.539031,7.277643" />
      <path d="M 1.539031,7.277643 L 1.539551,7.317306" />
      <line x1="1.539551" y1="7.239163" x2="1.539551" y2="7.317306" />
      <path d="M 1.539551,7.317306 C 1.483267,7.489552 1.336227,7.696175 1.173069,7.867552 C 1.007439,8.042011 0.83135,8.184911 0.639292,8.318261" />
      <path d="M 0.639292,8.318261 Q 0.338955,8.250205 0.046825,8.159622" />
      <line x1="-0.028812" y1="6.382466" x2="-0.028812" y2="6.897358" />
      <path d="M -0.028812,6.897358 C 0.041579,6.815666 0.100205,6.729494 0.147065,6.638841 C 0.193196,6.547488 0.226404,6.445892 0.226552,6.349192" />
      <path d="M 0.226552,6.349192 C 0.227537,6.248319 0.18624,6.156061 0.099682,6.115016" />
      <path d="M 0.046825,8.159622 C -0.040268,7.904456 -0.09957,7.63855 -0.100946,7.34899" />
      <path d="M -0.100946,7.34899 C -0.101264,7.18494 -0.078292,7.020537 -0.028812,6.897358" />
      <path d="M 0.099682,6.115016 Q -0.144482,5.998897 -0.371312,5.859314" />
      <path d="M -0.371312,5.859314 C -0.489583,5.785758 -0.673998,5.839608 -0.811038,5.936684 C -0.952368,6.035077 -1.054206,6.157815 -1.141408,6.293331" />
      <path d="M -1.141408,6.293331 C -1.290615,6.418376 -1.53847,6.534292 -1.779726,6.612775 C -2.02492,6.692867 -2.260765,6.741145 -2.50487,6.774309" />
      <path d="M -2.50487,6.774309 Q -2.725275,6.586637 -2.925433,6.382975" />
      <line x1="-2.925433" y1="5.868083" x2="-2.925433" y2="6.382975" />
      <line x1="-2.254713" y1="4.74251" x2="-2.254713" y2="5.257403" />
      <path d="M -2.254713,5.257403 C -2.111989,5.205243 -1.982553,5.135803 -1.866407,5.049081 C -1.752525,4.961606 -1.656999,4.843196 -1.657193,4.732709" />
      <path d="M -1.657193,4.732709 Q -1.657032,4.679401 -1.687127,4.634951" />
      <path d="M -2.925433,6.382975 C -2.866909,6.177129 -2.791488,5.979577 -2.678315,5.776639 C -2.567335,5.576935 -2.412296,5.374654 -2.254713,5.257403" />
      <line x1="4.756325" y1="-1.596511" x2="4.756325" y2="-1.081619" />
      <path d="M 4.756325,-1.081619 Q 5.000489,-0.9655 5.227319,-0.825916" />
      <line x1="5.227319" y1="-1.340809" x2="5.227319" y2="-0.825916" />
      <path d="M 5.227319,-0.825916 C 5.34559,-0.752361 5.530005,-0.806211 5.667045,-0.903287 C 5.808375,-1.00168 5.910213,-1.124417 5.997415,-1.259934" />
      <line x1="5.997415" y1="-1.774826" x2="5.997415" y2="-1.259934" />
      <path d="M 5.997415,-1.259934 C 6.146622,-1.384978 6.394477,-1.500894 6.635733,-1.579377 C 6.880927,-1.659469 7.116772,-1.707748 7.360877,-1.740911" />
      <line x1="7.360877" y1="-2.255804" x2="7.360877" y2="-1.740911" />
      <path d="M 7.360877,-1.740911 Q 7.581283,-1.55324 7.78144,-1.349578" />
      <line x1="7.78144" y1="-1.864471" x2="7.78144" y2="-1.349578" />
      <path d="M 7.11072,-0.224005 C 6.967996,-0.171846 6.83856,-0.102405 6.722414,-0.015683 C 6.608533,0.071792 6.513007,0.190202 6.5132,0.300688" />
      <path d="M 6.5132,0.300688 Q 6.513039,0.353996 6.543134,0.398447" />
      <path d="M 7.78144,-1.349578 C 7.722916,-1.143732 7.647495,-0.946179 7.534322,-0.743242 C 7.423343,-0.543537 7.268303,-0.341257 7.11072,-0.224005" />
      <path d="M -1.687127,4.634951 Q -1.830852,4.429733 -1.945879,4.211625" />
      <path d="M -1.945879,4.211625 C -2.005403,4.09723 -2.19652,4.06482 -2.37182,4.090151 C -2.551604,4.114785 -2.711385,4.177428 -2.865946,4.257411" />
      <path d="M -2.865946,4.257411 C -3.068097,4.301749 -3.350353,4.295898 -3.605063,4.260457 C -3.864122,4.224722 -4.096528,4.165443 -4.327272,4.089533" />
      <path d="M -4.327272,4.089533 Q -4.408688,3.832533 -4.463243,3.570363" />
      <line x1="-4.463243" y1="3.055471" x2="-4.463243" y2="3.570363" />
      <line x1="-3.225884" y1="2.368185" x2="-3.225884" y2="2.883078" />
      <path d="M -3.225884,2.883078 C -3.046641,2.898714 -2.871388,2.896825 -2.696892,2.853493 C -2.52611,2.812404 -2.369371,2.713749 -2.371282,2.588891" />
      <path d="M -2.371282,2.588891 L -2.37129,2.587302" />
      <path d="M -4.463243,3.570363 C -4.292498,3.41718 -4.111957,3.278423 -3.895582,3.151183 C -3.682992,3.025802 -3.430742,2.917076 -3.225884,2.883078" />
      <line x1="2.345644" y1="-2.11241" x2="2.345644" y2="-1.597518" />
      <path d="M 2.345644,-1.597518 Q 2.624824,-1.601611 2.902677,-1.577954" />
      <line x1="2.902677" y1="-2.092847" x2="2.902677" y2="-1.577954" />
      <path d="M 2.902677,-1.577954 C 3.041465,-1.565519 3.166047,-1.680199 3.229803,-1.815384 C 3.29623,-1.952871 3.316613,-2.098614 3.316976,-2.244246" />
      <path d="M 3.316976,-2.244246 L 3.316456,-2.283908" />
      <line x1="3.316456" y1="-2.798801" x2="3.316456" y2="-2.283908" />
      <path d="M 3.316456,-2.283908 C 3.37274,-2.456154 3.51978,-2.662778 3.682938,-2.834155 C 3.848568,-3.008613 4.024657,-3.151514 4.216715,-3.284864" />
      <line x1="4.216715" y1="-3.799757" x2="4.216715" y2="-3.284864" />
      <path d="M 4.216715,-3.284864 Q 4.517053,-3.216808 4.809182,-3.126224" />
      <line x1="4.809182" y1="-3.641117" x2="4.809182" y2="-3.126224" />
      <path d="M 4.884819,-1.863961 C 4.814428,-1.782269 4.755802,-1.696096 4.708942,-1.605443 C 4.662811,-1.51409 4.629603,-1.412495 4.629455,-1.315794" />
      <path d="M 4.629455,-1.315794 C 4.62847,-1.214922 4.669767,-1.122664 4.756325,-1.081619" />
      <path d="M 4.809182,-3.126224 C 4.896275,-2.871059 4.955577,-2.605152 4.956953,-2.315592" />
      <path d="M 4.956953,-2.315592 C 4.957271,-2.151542 4.934299,-1.98714 4.884819,-1.863961" />
      <path d="M -2.37129,2.587302 L -2.371996,2.516699" />
      <path d="M -2.371996,2.516699 Q -2.371986,2.312698 -2.348468,2.109782" />
      <line x1="-2.348468" y1="2.077062" x2="-2.348468" y2="2.109782" />
      <path d="M -2.348468,2.109782 L -2.347602,2.093429" />
      <path d="M -2.347602,2.093429 C -2.34607,1.971907 -2.494263,1.868734 -2.657732,1.818318 C -2.824767,1.765684 -2.9953,1.752101 -3.171974,1.755069" />
      <path d="M -3.171974,1.755069 C -3.372902,1.706819 -3.613931,1.580769 -3.813845,1.4409 C -4.017353,1.298913 -4.184049,1.14796 -4.339604,0.983317" />
      <line x1="-4.339604" y1="0.468425" x2="-4.339604" y2="0.983317" />
      <path d="M -4.339604,0.983317 Q -4.260215,0.725852 -4.154548,0.475423" />
      <line x1="-4.154548" y1="-0.03947" x2="-4.154548" y2="0.475423" />
      <line x1="-2.6821" y1="-0.104311" x2="-2.6821" y2="0.410582" />
      <path d="M -2.6821,0.410582 C -2.53569,0.501136 -2.382422,0.574774 -2.20559,0.611932 C -2.033295,0.649471 -1.839726,0.630572 -1.769486,0.520734" />
      <line x1="-1.769486" y1="0.005842" x2="-1.769486" y2="0.520734" />
      <path d="M -4.154548,0.475423 C -3.917334,0.415948 -3.68005,0.373165 -3.41845,0.355716 C -3.161212,0.338256 -2.879342,0.352218 -2.6821,0.410582" />
      <line x1="-0.042968" y1="-1.525908" x2="-0.042968" y2="-1.011016" />
      <path d="M -0.042968,-1.011016 Q 0.196421,-1.134225 0.450847,-1.232833" />
      <line x1="0.450847" y1="-1.747725" x2="0.450847" y2="-1.232833" />
      <path d="M 0.450847,-1.232833 C 0.554083,-1.272492 0.603075,-1.382571 0.601615,-1.499822" />
      <path d="M 0.601615,-1.499822 Q 0.597916,-1.63961 0.539629,-1.772231 Q 0.484065,-1.901214 0.397437,-2.021564" />
      <path d="M 0.397437,-2.021564 Q 0.360237,-2.151486 0.360657,-2.315662" />
      <path d="M 0.360657,-2.315662 C 0.360677,-2.481344 0.38793,-2.654871 0.429344,-2.814732 C 0.471291,-2.973486 0.525933,-3.126673 0.59327,-3.274293" />
      <line x1="0.59327" y1="-3.789185" x2="0.59327" y2="-3.274293" />
      <path d="M 0.59327,-3.274293 Q 0.893064,-3.344087 1.198889,-3.390854" />
      <line x1="1.198889" y1="-3.905747" x2="1.198889" y2="-3.390854" />
      <line x1="2.000617" y1="-2.845015" x2="2.000617" y2="-2.330122" />
      <path d="M 2.000617,-2.330122 Q 1.990373,-2.247537 1.990212,-2.167887" />
      <path d="M 1.990212,-2.167887 C 1.990313,-2.044944 2.009752,-1.914815 2.067696,-1.799699 C 2.123907,-1.685587 2.226663,-1.595367 2.345644,-1.597518" />
      <path d="M 1.198889,-3.390854 C 1.377579,-3.244482 1.539441,-3.089713 1.687869,-2.904224 C 1.834127,-2.72198 1.960957,-2.505738 2.000617,-2.330122" />
      <path d="M -1.769486,0.520734 Q -1.634032,0.311423 -1.471206,0.116973" />
      <line x1="-1.471206" y1="-0.137403" x2="-1.471206" y2="0.116973" />
      <path d="M -1.471206,0.116973 Q -1.43088,0.066911 -1.431146,0.00258" />
      <path d="M -1.431146,0.00258 C -1.431083,-0.106553 -1.516244,-0.225308 -1.619594,-0.316682 C -1.724976,-0.407363 -1.844275,-0.482868 -1.977493,-0.543195" />
      <path d="M -1.977493,-0.543195 C -2.12336,-0.671104 -2.258577,-0.883579 -2.350129,-1.090397 C -2.443557,-1.30059 -2.499875,-1.50277 -2.53856,-1.71203" />
      <line x1="-2.53856" y1="-2.226923" x2="-2.53856" y2="-1.71203" />
      <path d="M -2.53856,-1.71203 Q -2.319639,-1.900973 -2.082064,-2.07256" />
      <line x1="-2.082064" y1="-2.587452" x2="-2.082064" y2="-2.07256" />
      <line x1="-0.769068" y1="-2.012474" x2="-0.769068" y2="-1.497582" />
      <path d="M -0.769068,-1.497582 C -0.695089,-1.356404 -0.605305,-1.226937 -0.473837,-1.118962 C -0.34652,-1.012602 -0.167861,-0.946 -0.042968,-1.011016" />
      <path d="M -2.082064,-2.07256 C -1.841942,-2.02239 -1.611494,-1.957734 -1.374765,-1.860716 C -1.141806,-1.765578 -0.905843,-1.63267 -0.769068,-1.497582" />
      <line x1="6.543134" y1="0.398447" x2="5.857279" y2="0.751489" />
      <line x1="0.099682" y1="6.115016" x2="0.487736" y2="5.515296" />
      <line x1="-1.687127" y1="4.634951" x2="-1.001272" y2="4.281909" />
      <line x1="4.756325" y1="-1.081619" x2="4.368272" y2="-0.481899" />
      <line x1="-2.37129" y1="2.587302" x2="-1.571408" y2="2.575534" />
      <line x1="2.345644" y1="-1.597518" x2="2.359371" y2="-0.911815" />
      <line x1="-1.769486" y1="0.520734" x2="-1.069904" y2="0.853395" />
      <line x1="-0.042968" y1="-1.011016" x2="0.36886" y2="-0.423063" />
      <path d="M 11.451731,-1.069815 C 11.173543,-0.948066 10.879936,-0.838985 10.557273,-0.751945 C 10.238537,-0.665644 9.889943,-0.606025 9.617731,-0.608623" />
      <path d="M 9.617731,-0.608623 C 9.518897,-0.611347 9.282163,-0.598143 9.259933,-0.495753" />
      <path d="M 12.362592,-1.781051 Q 12.362414,-2.53416 12.253234,-3.2782" />
      <path d="M 9.276668,-2.44249 Q 9.324873,-2.113776 9.346059,-1.782974" />
      <path d="M 9.346059,-1.782973 C 9.358444,-1.679368 9.593124,-1.649607 9.691888,-1.645391" />
      <path d="M 9.691888,-1.645391 C 9.977951,-1.628023 10.340365,-1.536111 10.663179,-1.419494 C 10.990689,-1.301528 11.28082,-1.164216 11.559266,-1.012128" />
      <path d="M 11.559266,-1.012128 Q 11.553784,-0.802866 11.539279,-0.593921" />
      <line x1="11.539279" y1="-1.023019" x2="11.539279" y2="-0.593921" />
      <path d="M 11.539279,-0.593921 C 11.247253,-0.461868 10.944993,-0.345362 10.607323,-0.250759 C 10.274463,-0.15717 9.904493,-0.09098 9.617731,-0.09373" />
      <line x1="9.617731" y1="-0.608623" x2="9.617731" y2="-0.09373" />
      <path d="M 9.617731,-0.09373 C 9.518897,-0.096455 9.282163,-0.08325 9.259933,0.01914" />
      <line x1="9.259933" y1="-0.495753" x2="9.259933" y2="0.01914" />
      <path d="M 9.259933,-0.495753 Q 9.207252,-0.167544 9.127842,0.156687" />
      <path d="M 9.127842,0.156688 L 9.126528,0.169931" />
      <path d="M 10.892243,1.779174 L 10.887335,1.791842" />
      <path d="M 10.887335,1.791842 C 10.565391,1.854602 10.238255,1.900075 9.883528,1.916535 C 9.533755,1.933081 9.156407,1.91493 8.880247,1.848648" />
      <path d="M 8.880247,1.848648 Q 8.857614,1.842715 8.827016,1.836593" />
      <path d="M 12.231936,0.369676 Q 12.362365,-0.442661 12.362592,-1.266158" />
      <path d="M 12.362592,-1.266158 Q 12.362414,-2.019267 12.253234,-2.763308" />
      <line x1="12.253234" y1="-3.2782" x2="12.253234" y2="-2.763308" />
      <path d="M 11.163812,-3.954836 C 10.940708,-3.78338 10.692116,-3.623146 10.418035,-3.474137 C 10.145412,-3.327922 9.841078,-3.201316 9.588197,-3.145793" />
      <path d="M 9.588197,-3.145793 C 9.49399,-3.126899 9.277348,-3.064167 9.276317,-2.96427" />
      <path d="M 9.276317,-2.96427 L 9.276668,-2.957383" />
      <path d="M 12.253234,-3.2782 C 12.101836,-4.314491 11.788102,-5.342146 11.327908,-6.309156" />
      <line x1="9.588197" y1="-3.145793" x2="9.588197" y2="-2.6309" />
      <path d="M 9.588197,-2.6309 C 9.49399,-2.612006 9.277348,-2.549275 9.276317,-2.449377" />
      <path d="M 9.276317,-2.449377 L 9.276668,-2.44249" />
      <line x1="9.259933" y1="0.01914" x2="12.231936" y2="0.369676" />
      <line x1="12.253234" y1="-2.763308" x2="9.276668" y2="-2.44249" />
      <path d="M 9.259933,0.01914 Q 9.207252,0.347349 9.127842,0.67158" />
      <line x1="9.127842" y1="0.156687" x2="9.127842" y2="0.67158" />
      <line x1="9.127842" y1="0.156688" x2="9.127842" y2="0.671581" />
      <path d="M 9.127842,0.671581 L 9.126528,0.684824" />
      <path d="M 9.126528,0.684824 C 9.127464,0.781442 9.330187,0.856288 9.420348,0.881205" />
      <path d="M 9.420348,0.881205 C 9.69142,0.961451 10.013735,1.130642 10.290341,1.314909 C 10.571076,1.501521 10.809864,1.698526 11.032904,1.907213" />
      <path d="M 11.032904,1.907213 Q 10.96443,2.108128 10.887335,2.306734" />
      <line x1="10.887335" y1="1.791842" x2="10.887335" y2="2.306734" />
      <path d="M 10.887335,2.306734 C 10.565391,2.369495 10.238255,2.414967 9.883528,2.431428 C 9.533755,2.447974 9.156407,2.429822 8.880247,2.363541" />
      <line x1="8.880247" y1="1.848648" x2="8.880247" y2="2.363541" />
      <path d="M 8.880247,2.363541 C 8.785602,2.33898 8.552949,2.29921 8.500563,2.393179" />
      <line x1="8.500563" y1="2.013092" x2="8.500563" y2="2.393179" />
      <path d="M 8.41347,2.050777 Q 8.301001,2.267569 8.17599,2.479187" />
      <path d="M 8.17599,2.479188 Q 8.16739,2.495527 8.167523,2.512989" />
      <path d="M 9.466781,4.337188 L 9.381851,4.449011" />
      <path d="M 9.381851,4.449011 Q 9.221405,4.443924 9.061716,4.432402" />
      <path d="M 11.265464,3.39118 C 11.738774,2.428834 12.066459,1.404383 12.231936,0.369676" />
      <path d="M 12.253234,-2.763308 C 12.101836,-3.799598 11.788102,-4.827253 11.327908,-5.794263" />
      <line x1="11.327908" y1="-6.309156" x2="11.327908" y2="-5.794263" />
      <path d="M 8.549626,-4.823955 Q 8.695433,-4.517138 8.815772,-4.202307" />
      <path d="M 8.815772,-4.202307 C 8.859015,-4.10498 9.094684,-4.128302 9.191355,-4.146143" />
      <path d="M 9.191355,-4.146143 C 9.472915,-4.192837 9.850729,-4.184466 10.197752,-4.143447 C 10.549719,-4.102167 10.87142,-4.033906 11.186296,-3.94878" />
      <path d="M 11.186296,-3.94878 Q 11.24418,-3.745432 11.293253,-3.540389" />
      <path d="M 11.293253,-3.540389 C 11.051047,-3.348043 10.794261,-3.168443 10.496659,-3.002143 C 10.203397,-2.83789 9.866018,-2.691869 9.588197,-2.6309" />
      <path d="M 9.991512,-6.620275 C 9.833691,-6.42289 9.651071,-6.230778 9.443652,-6.043941 C 9.237439,-5.860403 9.003015,-5.690985 8.793656,-5.589958" />
      <path d="M 8.793656,-5.589958 C 8.71424,-5.553471 8.544798,-5.457394 8.544072,-5.36607" />
      <path d="M 11.327908,-6.309156 C 10.868796,-7.276544 10.255486,-8.199573 9.519017,-9.031529" />
      <line x1="8.549626" y1="-4.823955" x2="11.327908" y2="-5.794263" />
      <line x1="8.500563" y1="2.393179" x2="11.265464" y2="3.39118" />
      <path d="M 8.500563,2.393179 Q 8.350586,2.698516 8.17599,2.99408" />
      <line x1="8.17599" y1="2.479187" x2="8.17599" y2="2.99408" />
      <line x1="8.17599" y1="2.479188" x2="8.17599" y2="2.994081" />
      <path d="M 8.17599,2.994081 Q 8.16739,3.010419 8.167523,3.027882" />
      <path d="M 8.167523,3.027882 C 8.168154,3.117471 8.321476,3.220576 8.39524,3.261462" />
      <path d="M 8.39524,3.261462 C 8.632848,3.399118 8.893099,3.634057 9.104647,3.873416 C 9.319475,4.115958 9.490647,4.359231 9.643082,4.610293" />
      <path d="M 9.643082,4.610293 Q 9.516281,4.789169 9.381851,4.963904" />
      <line x1="9.381851" y1="4.449011" x2="9.381851" y2="4.963904" />
      <path d="M 9.381851,4.963904 C 9.051928,4.953095 8.72221,4.924435 8.374601,4.861629 C 8.03175,4.800007 7.672741,4.69875 7.426001,4.573454" />
      <line x1="7.426001" y1="4.55794" x2="7.426001" y2="4.573454" />
      <path d="M 7.426001,4.573454 C 7.341997,4.528731 7.129278,4.438697 7.050307,4.51784" />
      <line x1="7.050307" y1="4.419242" x2="7.050307" y2="4.51784" />
      <path d="M 9.419684,6.095295 C 10.167414,5.270754 10.793231,4.353916 11.265464,3.39118" />
      <path d="M 11.327908,-5.794263 C 10.868796,-6.761652 10.255486,-7.68468 9.519017,-8.516636" />
      <line x1="9.519017" y1="-9.031529" x2="9.519017" y2="-8.516636" />
      <line x1="8.793656" y1="-5.589958" x2="8.793656" y2="-5.075065" />
      <path d="M 8.793656,-5.075065 C 8.71424,-5.038579 8.544798,-4.942501 8.544072,-4.851177" />
      <path d="M 8.544072,-4.851177 Q 8.544003,-4.83739 8.549626,-4.823955" />
      <path d="M 7.128355,-6.962962 Q 7.361827,-6.69895 7.573117,-6.421547" />
      <path d="M 7.573118,-6.421547 C 7.644272,-6.337131 7.864869,-6.411947 7.952859,-6.450629" />
      <path d="M 7.952859,-6.450629 C 8.210728,-6.558202 8.578196,-6.633944 8.925778,-6.671318 C 9.278215,-6.709537 9.609564,-6.714979 9.939412,-6.702616" />
      <path d="M 9.939412,-6.702616 Q 10.056718,-6.51904 10.166025,-6.331872" />
      <path d="M 10.166025,-6.331872 C 9.990144,-6.09234 9.796332,-5.861886 9.559079,-5.635222 C 9.3254,-5.411499 9.043603,-5.195598 8.793656,-5.075065" />
      <path d="M 8.084227,-8.920718 C 7.992093,-8.712971 7.877874,-8.506237 7.741569,-8.300515 C 7.605804,-8.098276 7.445182,-7.906232 7.288255,-7.774553" />
      <path d="M 7.288255,-7.774553 C 7.228291,-7.726283 7.111613,-7.61416 7.111182,-7.527422" />
      <path d="M 9.519017,-9.031529 C 8.783479,-9.864089 7.91239,-10.619589 6.949835,-11.259793" />
      <line x1="7.128355" y1="-6.962962" x2="9.519017" y2="-8.516636" />
      <line x1="7.050307" y1="4.517841" x2="9.419684" y2="6.095295" />
      <path d="M 7.050307,4.517841 Q 6.813254,4.779497 6.555372,5.026252" />
      <line x1="6.555372" y1="4.617381" x2="6.555372" y2="5.026252" />
      <line x1="6.555371" y1="4.617381" x2="6.555371" y2="5.026252" />
      <path d="M 6.555371,5.026252 Q 6.532448,5.051008 6.533077,5.084055" />
      <path d="M 6.533077,5.084055 C 6.533425,5.169699 6.633249,5.282733 6.686425,5.333169" />
      <path d="M 6.686425,5.333169 C 6.874376,5.518853 7.054827,5.80353 7.186899,6.08167 C 7.32118,6.363612 7.413072,6.636574 7.484512,6.912903" />
      <path d="M 7.484512,6.912903 Q 7.308027,7.05755 7.125422,7.196504" />
      <line x1="7.125422" y1="6.965698" x2="7.125422" y2="7.196504" />
      <path d="M 7.125422,7.196504 C 6.810005,7.112862 6.500174,7.012023 6.183372,6.874233 C 5.870808,6.73864 5.554603,6.561179 5.3541,6.385408" />
      <line x1="5.3541" y1="6.172717" x2="5.3541" y2="6.385408" />
      <path d="M 5.3541,6.385408 C 5.28646,6.32357 5.108173,6.189406 5.007998,6.248332" />
      <line x1="5.007998" y1="6.018794" x2="5.007998" y2="6.248332" />
      <path d="M 4.703985,8.143378 Q 4.489996,8.243861 4.271821,8.337496" />
      <path d="M 4.271821,8.337496 L 4.230582,8.315107" />
      <path d="M 2.85539,7.231624 L 2.805738,7.161026" />
      <path d="M 2.805738,7.161026 C 2.759073,7.086288 2.627367,6.917139 2.512815,6.95183" />
      <path d="M 6.82038,8.297739 C 7.791574,7.667195 8.672876,6.92045 9.419684,6.095295" />
      <path d="M 9.519017,-8.516636 C 8.783479,-9.349196 7.91239,-10.104696 6.949835,-10.7449" />
      <line x1="6.949835" y1="-11.259793" x2="6.949835" y2="-10.7449" />
      <line x1="7.288255" y1="-7.774553" x2="7.288255" y2="-7.25966" />
      <path d="M 7.288255,-7.25966 C 7.228291,-7.211391 7.111613,-7.099267 7.111182,-7.012529" />
      <path d="M 7.111182,-7.012529 Q 7.110772,-6.98523 7.128355,-6.962962" />
      <path d="M 5.109711,-8.713741 Q 5.414937,-8.510527 5.702781,-8.289456" />
      <path d="M 5.702781,-8.289456 C 5.796998,-8.223703 5.98749,-8.344915 6.060803,-8.401802" />
      <path d="M 6.060803,-8.401802 C 6.277407,-8.562923 6.609486,-8.717616 6.933941,-8.830836 C 7.26283,-8.945949 7.581245,-9.024723 7.903587,-9.085966" />
      <path d="M 7.903587,-9.085966 Q 8.07232,-8.934673 8.234412,-8.778134" />
      <path d="M 8.234412,-8.778134 C 8.136842,-8.507741 8.019212,-8.242138 7.858477,-7.970557 C 7.700306,-7.70261 7.493295,-7.431542 7.288255,-7.25966" />
      <path d="M 5.584231,-10.738257 C 5.554715,-10.530965 5.505935,-10.32162 5.437891,-10.11022 C 5.369547,-9.902175 5.278189,-9.700861 5.174586,-9.5507" />
      <path d="M 5.174586,-9.5507 C 5.137008,-9.498751 5.07323,-9.391745 5.073045,-9.309148" />
      <path d="M 6.949835,-11.259793 C 5.987996,-11.900788 4.918491,-12.437273 3.795446,-12.842097" />
      <line x1="5.109711" y1="-8.713741" x2="6.949835" y2="-10.7449" />
      <line x1="5.007997" y1="6.248332" x2="6.82038" y2="8.297739" />
      <path d="M 5.007997,6.248332 Q 4.700023,6.448477 4.376429,6.629607" />
      <line x1="4.376429" y1="6.280045" x2="4.376429" y2="6.629607" />
      <line x1="4.376429" y1="6.280045" x2="4.376429" y2="6.629607" />
      <path d="M 4.376429,6.629607 Q 4.329303,6.661908 4.331432,6.724031" />
      <path d="M 4.331432,6.724031 C 4.331555,6.804206 4.379991,6.904311 4.410353,6.955142" />
      <path d="M 4.410353,6.955142 C 4.516254,7.141827 4.596909,7.397976 4.644505,7.651484 C 4.690871,7.908262 4.713103,8.15709 4.711201,8.397967" />
      <path d="M 4.711201,8.397967 Q 4.711115,8.527925 4.7043,8.658124" />
      <line x1="4.7043" y1="8.148884" x2="4.7043" y2="8.658124" />
      <path d="M 4.7043,8.658124 Q 4.490156,8.758685 4.271821,8.852388" />
      <line x1="4.271821" y1="8.337496" x2="4.271821" y2="8.852388" />
      <path d="M 4.271821,8.852388 C 3.992404,8.701614 3.723576,8.535467 3.459169,8.332082 C 3.198193,8.131759 2.946341,7.890187 2.805738,7.675919" />
      <line x1="2.805738" y1="7.161026" x2="2.805738" y2="7.675919" />
      <path d="M 2.805738,7.675919 C 2.759073,7.601181 2.627367,7.432032 2.512815,7.466723" />
      <line x1="2.512815" y1="6.95183" x2="2.512815" y2="7.466723" />
      <path d="M 2.512814,6.951831 Q 2.154907,7.076824 1.787653,7.179985" />
      <path d="M 1.787653,7.179985 C 1.721987,7.200891 1.703428,7.27834 1.703454,7.354863" />
      <path d="M 1.745589,8.156264 C 1.708188,8.534249 1.613256,8.882365 1.49191,9.212128" />
      <path d="M 1.49191,9.212128 Q 1.254702,9.26175 1.015516,9.303818" />
      <path d="M 1.015516,9.303818 C 0.840078,9.143302 0.673689,8.969579 0.516347,8.782648 C 0.359404,8.594573 0.209707,8.384214 0.097492,8.175145" />
      <path d="M -0.038441,7.864545 L -0.045416,7.84215" />
      <path d="M -0.045416,7.84215 C -0.067927,7.759605 -0.144076,7.566997 -0.265199,7.57509" />
      <path d="M 3.644693,9.848418 C 4.773166,9.454843 5.849892,8.92908 6.82038,8.297739" />
      <path d="M 6.949835,-10.7449 C 5.987996,-11.385896 4.918491,-11.922381 3.795446,-12.327204" />
      <line x1="3.795446" y1="-12.842097" x2="3.795446" y2="-12.327204" />
      <line x1="5.174586" y1="-9.5507" x2="5.174586" y2="-9.035807" />
      <path d="M 5.174586,-9.035807 C 5.137008,-8.983858 5.07323,-8.876852 5.073045,-8.794256" />
      <path d="M 5.073045,-8.794256 Q 5.071572,-8.74365 5.109711,-8.713742" />
      <path d="M 2.631263,-9.95698 Q 2.987442,-9.828412 3.332223,-9.678739" />
      <path d="M 3.332223,-9.678738 C 3.443081,-9.636131 3.590487,-9.795477 3.644127,-9.866692" />
      <path d="M 3.644127,-9.866692 C 3.804705,-10.070382 4.078764,-10.293484 4.357981,-10.474834 C 4.640909,-10.658996 4.924691,-10.805734 5.217559,-10.936409" />
      <path d="M 5.217559,-10.936409 Q 5.42622,-10.827709 5.63005,-10.712468" />
      <path d="M 5.63005,-10.712468 C 5.617441,-10.42964 5.584009,-10.146988 5.510746,-9.848999 C 5.438862,-9.555088 5.320745,-9.247326 5.174586,-9.035807" />
      <path d="M 2.672078,-11.197552 Q 2.653174,-10.975227 2.59669,-10.797359" />
      <path d="M 2.59669,-10.797359 C 2.581618,-10.754623 2.562096,-10.680861 2.562065,-10.612864" />
      <path d="M 3.795446,-12.842097 C 2.672854,-13.247844 1.477818,-13.528754 0.270817,-13.670609" />
      <line x1="2.631263" y1="-9.95698" x2="3.795446" y2="-12.327204" />
      <line x1="2.512814" y1="7.466723" x2="3.644693" y2="9.848418" />
      <path d="M 2.512814,7.466723 Q 2.154907,7.591717 1.787653,7.694878" />
      <line x1="1.787653" y1="7.179985" x2="1.787653" y2="7.694878" />
      <line x1="1.787653" y1="7.179985" x2="1.787653" y2="7.694878" />
      <path d="M 1.787653,7.694878 C 1.721987,7.715784 1.703428,7.793233 1.703454,7.869756" />
      <path d="M 1.703454,7.869756 C 1.703464,7.925713 1.713268,7.981497 1.722137,8.016848" />
      <path d="M 1.722137,8.016848 Q 1.759589,8.188909 1.759176,8.399709" />
      <path d="M 1.759176,8.399709 C 1.759173,8.626456 1.727984,8.865326 1.680173,9.087559 C 1.631511,9.308852 1.568757,9.522005 1.49191,9.727021" />
      <line x1="1.49191" y1="9.212128" x2="1.49191" y2="9.727021" />
      <path d="M 1.49191,9.727021 Q 1.254702,9.776642 1.015516,9.818711" />
      <line x1="1.015516" y1="9.303818" x2="1.015516" y2="9.818711" />
      <path d="M 1.015516,9.818711 C 0.791141,9.611078 0.581635,9.390947 0.387644,9.135827 C 0.196041,8.884426 0.025705,8.595206 -0.045416,8.357043" />
      <line x1="-0.045416" y1="7.84215" x2="-0.045416" y2="8.357043" />
      <path d="M -0.045416,8.357043 C -0.067927,8.274498 -0.144076,8.08189 -0.265199,8.089983" />
      <line x1="-0.265199" y1="7.57509" x2="-0.265199" y2="8.089983" />
      <path d="M -0.265199,7.575091 Q -0.648649,7.616415 -1.034535,7.634577" />
      <path d="M -1.034535,7.634577 C -1.155392,7.645194 -1.190109,7.846374 -1.195027,7.93104" />
      <path d="M -1.195027,7.93104 C -1.215287,8.176269 -1.322504,8.48695 -1.458539,8.763683 C -1.596148,9.044443 -1.756324,9.293159 -1.933738,9.531858" />
      <path d="M -1.933738,9.531858 Q -2.177845,9.527159 -2.421582,9.514724" />
      <path d="M -2.421582,9.514724 C -2.571021,9.271872 -2.703016,9.021395 -2.811786,8.742122 C -2.919384,8.466566 -2.998641,8.160428 -3.004695,7.913127" />
      <path d="M -3.004695,7.847026 C -3.004682,7.754433 -3.026,7.578219 -3.136726,7.560745" />
      <path d="M 0.109039,10.641658 C 1.317887,10.511872 2.516661,10.242921 3.644693,9.848418" />
      <path d="M 3.795446,-12.327204 C 2.672854,-12.732951 1.477818,-13.013861 0.270817,-13.155716" />
      <line x1="0.270817" y1="-13.670609" x2="0.270817" y2="-13.155716" />
      <line x1="2.59669" y1="-10.797359" x2="2.59669" y2="-10.282466" />
      <path d="M 2.59669,-10.282466 C 2.581618,-10.239731 2.562096,-10.165968 2.562065,-10.097971" />
      <path d="M 2.562065,-10.097971 C 2.562046,-10.035589 2.578713,-9.978013 2.631263,-9.95698" />
      <path d="M -0.138088,-10.607954 Q 0.244772,-10.562793 0.622992,-10.494718" />
      <path d="M 0.622993,-10.494718 C 0.742937,-10.478158 0.837211,-10.664781 0.867523,-10.74547" />
      <path d="M 0.867523,-10.74547 C 0.961131,-10.977848 1.158495,-11.254154 1.373445,-11.491275 C 1.591131,-11.731937 1.82094,-11.936639 2.064376,-12.127841" />
      <path d="M 2.064376,-12.127841 Q 2.298746,-12.069141 2.530424,-12.003052" />
      <path d="M 2.530424,-12.003052 C 2.619976,-11.665586 2.681411,-11.311596 2.6825,-10.931896" />
      <path d="M 2.6825,-10.931896 C 2.682854,-10.698682 2.655758,-10.46367 2.59669,-10.282466" />
      <path d="M 0.270817,-13.670609 C -0.936025,-13.813457 -2.175152,-13.819647 -3.383854,-13.688867" />
      <line x1="-0.138088" y1="-10.607954" x2="0.270817" y2="-13.155716" />
      <line x1="-0.265199" y1="8.089983" x2="0.109039" y2="10.641658" />
      <path d="M -0.265199,8.089983 Q -0.648649,8.131308 -1.034535,8.149469" />
      <line x1="-1.034535" y1="7.634577" x2="-1.034535" y2="8.149469" />
      <line x1="-1.034535" y1="7.634577" x2="-1.034535" y2="8.149469" />
      <path d="M -1.034535,8.149469 C -1.155392,8.160086 -1.190109,8.361267 -1.195027,8.445932" />
      <line x1="-1.195027" y1="7.93104" x2="-1.195027" y2="8.445932" />
      <path d="M -1.195027,8.445932 C -1.215287,8.691161 -1.322504,9.001842 -1.458539,9.278576 C -1.596148,9.559336 -1.756324,9.808052 -1.933738,10.046751" />
      <line x1="-1.933738" y1="9.531858" x2="-1.933738" y2="10.046751" />
      <path d="M -1.933738,10.046751 Q -2.177845,10.042051 -2.421582,10.029617" />
      <line x1="-2.421582" y1="9.514724" x2="-2.421582" y2="10.029617" />
      <path d="M -2.421582,10.029617 C -2.574321,9.781396 -2.709117,9.524738 -2.819043,9.238161 C -2.927785,8.955592 -3.005636,8.641529 -3.005131,8.395123" />
      <path d="M -3.005131,8.395123 L -3.005062,8.382362" />
      <path d="M -3.005062,8.382362 L -3.004695,8.361919" />
      <path d="M -3.004695,8.361919 C -3.004682,8.269325 -3.026,8.093112 -3.136726,8.075638" />
      <line x1="-3.136726" y1="7.560745" x2="-3.136726" y2="8.075638" />
      <path d="M -3.136727,7.560745 Q -3.519587,7.515584 -3.897808,7.447509" />
      <path d="M -3.897808,7.447508 C -4.017752,7.430949 -4.112026,7.617571 -4.142338,7.698261" />
      <path d="M -4.142338,7.698261 C -4.235947,7.930639 -4.43331,8.206945 -4.64826,8.444066 C -4.865946,8.684728 -5.095755,8.88943 -5.339191,9.080632" />
      <path d="M -5.339191,9.080632 Q -5.573561,9.021932 -5.805239,8.955842" />
      <path d="M -5.805239,8.955842 C -5.874094,8.696314 -5.924791,8.434122 -5.946893,8.150343" />
      <path d="M -5.83688,7.050761 C -5.836861,6.988379 -5.853528,6.930803 -5.906078,6.909771" />
      <path d="M -3.545632,10.6234 C -2.33879,10.766248 -1.099663,10.772438 0.109039,10.641658" />
      <path d="M 0.270817,-13.155716 C -0.936025,-13.298564 -2.175152,-13.304755 -3.383854,-13.173975" />
      <line x1="-3.383854" y1="-13.688867" x2="-3.383854" y2="-13.173975" />
      <line x1="-0.269753" y1="-10.940359" x2="-0.269753" y2="-10.914678" />
      <path d="M -0.269753,-10.914678 L -0.27012,-10.894236" />
      <path d="M -0.27012,-10.894236 C -0.270133,-10.801642 -0.248815,-10.625429 -0.138089,-10.607954" />
      <path d="M -3.009616,-10.6223 Q -2.626167,-10.663624 -2.24028,-10.681786" />
      <path d="M -2.24028,-10.681786 C -2.119423,-10.692403 -2.084706,-10.893583 -2.079789,-10.978249" />
      <path d="M -2.079789,-10.978249 C -2.059528,-11.223478 -1.952311,-11.534159 -1.816276,-11.810892 C -1.678667,-12.091652 -1.518491,-12.340368 -1.341077,-12.579067" />
      <path d="M -1.341077,-12.579067 Q -1.096971,-12.574368 -0.853234,-12.561933" />
      <path d="M -0.853234,-12.561933 C -0.700494,-12.313712 -0.565698,-12.057054 -0.455772,-11.770477 C -0.34703,-11.487908 -0.269179,-11.173845 -0.269684,-10.927439" />
      <path d="M -0.269684,-10.927439 L -0.269753,-10.914678" />
      <path d="M -4.978269,-10.916965 C -4.978279,-10.972923 -4.988083,-11.028706 -4.996952,-11.064057" />
      <path d="M -4.996952,-11.064057 Q -5.01161,-11.129879 -5.020405,-11.203473" />
      <path d="M -3.383854,-13.688867 C -4.592702,-13.559081 -5.791476,-13.290131 -6.919508,-12.895628" />
      <line x1="-3.009616" y1="-10.6223" x2="-3.383854" y2="-13.173975" />
      <line x1="-3.136727" y1="8.075638" x2="-3.545632" y2="10.6234" />
      <path d="M -3.136727,8.075638 Q -3.519587,8.030477 -3.897808,7.962401" />
      <line x1="-3.897808" y1="7.447509" x2="-3.897808" y2="7.962401" />
      <line x1="-3.897808" y1="7.447508" x2="-3.897808" y2="7.962401" />
      <path d="M -3.897808,7.962401 C -4.017752,7.945841 -4.112026,8.132464 -4.142338,8.213154" />
      <line x1="-4.142338" y1="7.698261" x2="-4.142338" y2="8.213154" />
      <path d="M -4.142338,8.213154 C -4.235947,8.445531 -4.43331,8.721837 -4.64826,8.958959 C -4.865946,9.199621 -5.095755,9.404323 -5.339191,9.595525" />
      <line x1="-5.339191" y1="9.080632" x2="-5.339191" y2="9.595525" />
      <path d="M -5.339191,9.595525 Q -5.573561,9.536825 -5.805239,9.470735" />
      <line x1="-5.805239" y1="8.955842" x2="-5.805239" y2="9.470735" />
      <path d="M -5.805239,9.470735 C -5.894792,9.13327 -5.956226,8.77928 -5.957315,8.399579" />
      <path d="M -5.957315,8.399579 C -5.957669,8.166366 -5.930573,7.931353 -5.871505,7.750149" />
      <path d="M -5.871505,7.750149 C -5.856434,7.707414 -5.836911,7.633651 -5.83688,7.565654" />
      <path d="M -5.83688,7.565654 C -5.836861,7.503272 -5.853528,7.445696 -5.906078,7.424664" />
      <line x1="-5.906078" y1="6.909771" x2="-5.906078" y2="7.424664" />
      <path d="M -5.906078,6.909771 Q -6.262258,6.781202 -6.607038,6.631529" />
      <path d="M -6.607038,6.631529 C -6.717896,6.588921 -6.865302,6.748268 -6.918942,6.819483" />
      <path d="M -6.918942,6.819483 C -7.07952,7.023173 -7.35358,7.246274 -7.632796,7.427625 C -7.915724,7.611787 -8.199506,7.758525 -8.492374,7.8892" />
      <path d="M -8.492374,7.8892 Q -8.677605,7.792706 -8.859046,7.691047" />
      <path d="M -8.347861,5.747046 Q -8.346387,5.696441 -8.384526,5.666533" />
      <path d="M -7.070261,9.794888 C -5.947669,10.200635 -4.752633,10.481544 -3.545632,10.6234" />
      <path d="M -3.383854,-13.173975 C -4.592702,-13.044188 -5.791476,-12.775238 -6.919508,-12.380735" />
      <line x1="-6.919508" y1="-12.895628" x2="-6.919508" y2="-12.380735" />
      <path d="M -3.229399,-10.889359 C -3.206889,-10.806815 -3.130739,-10.614207 -3.009616,-10.6223" />
      <path d="M -5.78763,-9.99904 Q -5.429723,-10.124033 -5.062468,-10.227194" />
      <path d="M -5.062468,-10.227194 C -4.996802,-10.2481 -4.978244,-10.32555 -4.978269,-10.402072" />
      <path d="M -4.978269,-10.402072 C -4.978279,-10.45803 -4.988083,-10.513813 -4.996952,-10.549164" />
      <line x1="-4.996952" y1="-11.064057" x2="-4.996952" y2="-10.549164" />
      <path d="M -4.996952,-10.549164 Q -5.034404,-10.721225 -5.033991,-10.932026" />
      <path d="M -5.033991,-10.932026 C -5.033989,-11.158773 -5.0028,-11.397643 -4.954988,-11.619876 C -4.906327,-11.841168 -4.843572,-12.054322 -4.766725,-12.259337" />
      <path d="M -4.766725,-12.259337 Q -4.529517,-12.308959 -4.290331,-12.351027" />
      <path d="M -4.290331,-12.351027 C -4.065957,-12.143394 -3.85645,-11.923263 -3.662459,-11.668143 C -3.470856,-11.416743 -3.30052,-11.127523 -3.229399,-10.889359" />
      <path d="M -7.606247,-9.77124 C -7.606371,-9.851415 -7.654806,-9.951521 -7.685168,-10.002351" />
      <path d="M -7.685168,-10.002351 C -7.772354,-10.156219 -7.843186,-10.358356 -7.891353,-10.56613 C -7.938956,-10.777176 -7.968105,-10.985329 -7.978801,-11.190587" />
      <path d="M -6.919508,-12.895628 C -8.047981,-12.502052 -9.124707,-11.976289 -10.095196,-11.344948" />
      <line x1="-5.78763" y1="-9.99904" x2="-6.919508" y2="-12.380735" />
      <line x1="-5.906078" y1="7.424664" x2="-7.070261" y2="9.794888" />
      <path d="M -5.906078,7.424664 Q -6.262258,7.296095 -6.607038,7.146422" />
      <line x1="-6.607038" y1="6.631529" x2="-6.607038" y2="7.146422" />
      <line x1="-6.607038" y1="6.631529" x2="-6.607038" y2="7.146422" />
      <path d="M -6.607038,7.146422 C -6.717896,7.103814 -6.865302,7.26316 -6.918942,7.334376" />
      <line x1="-6.918942" y1="6.819483" x2="-6.918942" y2="7.334376" />
      <path d="M -6.918942,7.334376 C -7.07952,7.538066 -7.35358,7.761167 -7.632796,7.942517 C -7.915724,8.12668 -8.199506,8.273418 -8.492374,8.404093" />
      <line x1="-8.492374" y1="7.8892" x2="-8.492374" y2="8.404093" />
      <path d="M -8.492374,8.404093 Q -8.701036,8.295393 -8.904866,8.180152" />
      <path d="M -8.904866,8.180152 C -8.892257,7.897324 -8.858825,7.614671 -8.785561,7.316682 C -8.713677,7.022771 -8.59556,6.715009 -8.449401,6.503491" />
      <path d="M -8.449401,6.503491 C -8.411823,6.451542 -8.348045,6.344536 -8.347861,6.261939" />
      <path d="M -8.347861,6.261939 Q -8.346387,6.211334 -8.384526,6.181425" />
      <line x1="-8.384526" y1="5.666533" x2="-8.384526" y2="6.181425" />
      <path d="M -8.384527,5.666532 Q -8.689753,5.463318 -8.977596,5.242247" />
      <path d="M -8.977596,5.242247 C -9.071813,5.176494 -9.262305,5.297705 -9.335619,5.354592" />
      <path d="M -9.335619,5.354592 C -9.552222,5.515714 -9.884302,5.670407 -10.208757,5.783627 C -10.537646,5.89874 -10.85606,5.977514 -11.178402,6.038757" />
      <path d="M -11.178402,6.038757 L -11.359042,5.873509" />
      <path d="M -10.385997,3.96532 Q -10.385587,3.938021 -10.40317,3.915753" />
      <path d="M -10.22465,8.212584 C -9.262811,8.853579 -8.193306,9.390064 -7.070261,9.794888" />
      <path d="M -6.919508,-12.380735 C -8.047981,-11.987159 -9.124707,-11.461396 -10.095196,-10.830055" />
      <line x1="-10.095196" y1="-11.344948" x2="-10.095196" y2="-10.830055" />
      <path d="M -6.080553,-10.208235 C -6.033888,-10.133498 -5.902182,-9.964349 -5.78763,-9.99904" />
      <path d="M -8.282813,-8.780648 Q -7.974839,-8.980793 -7.651244,-9.161923" />
      <path d="M -7.651244,-9.161923 Q -7.604118,-9.194224 -7.606247,-9.256348" />
      <path d="M -7.606247,-9.256348 C -7.606371,-9.336522 -7.654806,-9.436628 -7.685168,-9.487459" />
      <line x1="-7.685168" y1="-10.002351" x2="-7.685168" y2="-9.487459" />
      <path d="M -7.685168,-9.487459 C -7.791069,-9.674144 -7.871724,-9.930293 -7.91932,-10.1838 C -7.965686,-10.440578 -7.987918,-10.689406 -7.986016,-10.930283" />
      <path d="M -7.986016,-10.930283 Q -7.98593,-11.060242 -7.979115,-11.19044" />
      <path d="M -7.979115,-11.19044 Q -7.764971,-11.291001 -7.546636,-11.384705" />
      <path d="M -7.546636,-11.384705 C -7.267219,-11.23393 -6.998391,-11.067784 -6.733985,-10.864398 C -6.473009,-10.664076 -6.221156,-10.422504 -6.080553,-10.208235" />
      <path d="M -9.807893,-8.131264 C -9.80824,-8.216909 -9.908064,-8.329943 -9.96124,-8.380378" />
      <path d="M -9.96124,-8.380378 C -10.101422,-8.519024 -10.239793,-8.715196 -10.354023,-8.920466 C -10.468536,-9.129206 -10.561875,-9.337909 -10.634038,-9.546574" />
      <path d="M -10.095196,-11.344948 C -11.06639,-10.714404 -11.947691,-9.967659 -12.694499,-9.142504" />
      <line x1="-8.282813" y1="-8.780648" x2="-10.095196" y2="-10.830055" />
      <line x1="-8.384527" y1="6.181425" x2="-10.22465" y2="8.212584" />
      <path d="M -8.384527,6.181425 Q -8.689753,5.97821 -8.977596,5.75714" />
      <line x1="-8.977596" y1="5.242247" x2="-8.977596" y2="5.75714" />
      <line x1="-8.977596" y1="5.242247" x2="-8.977596" y2="5.757139" />
      <path d="M -8.977596,5.757139 C -9.071813,5.691387 -9.262305,5.812598 -9.335619,5.869485" />
      <line x1="-9.335619" y1="5.354592" x2="-9.335619" y2="5.869485" />
      <path d="M -9.335619,5.869485 C -9.552222,6.030607 -9.884302,6.1853 -10.208757,6.298519 C -10.537646,6.413632 -10.85606,6.492407 -11.178402,6.55365" />
      <line x1="-11.178402" y1="6.038757" x2="-11.178402" y2="6.55365" />
      <path d="M -11.178402,6.55365 Q -11.347135,6.402357 -11.509227,6.245818" />
      <path d="M -11.509227,6.245818 C -11.411657,5.975425 -11.294027,5.709821 -11.133292,5.438241 C -10.975121,5.170294 -10.76811,4.899226 -10.563071,4.727344" />
      <path d="M -10.563071,4.727344 C -10.503107,4.679074 -10.386429,4.56695 -10.385997,4.480212" />
      <path d="M -10.385997,4.480212 Q -10.385587,4.452913 -10.40317,4.430646" />
      <line x1="-10.40317" y1="3.915753" x2="-10.40317" y2="4.430646" />
      <path d="M -10.40317,3.915753 Q -10.636642,3.651741 -10.847933,3.374338" />
      <path d="M -10.847933,3.374338 C -10.919087,3.289921 -11.139684,3.364738 -11.227675,3.40342" />
      <path d="M -11.227675,3.40342 C -11.485543,3.510993 -11.853011,3.586735 -12.200594,3.624109 C -12.553031,3.662327 -12.884379,3.66777 -13.214227,3.655407" />
      <path d="M -13.214227,3.655407 L -13.266328,3.573066" />
      <path d="M -11.818887,1.803968 Q -11.818818,1.79018 -11.824441,1.776746" />
      <path d="M -12.793833,5.98432 C -12.058295,6.81688 -11.187205,7.57238 -10.22465,8.212584" />
      <path d="M -10.095196,-10.830055 C -11.06639,-10.199512 -11.947691,-9.452766 -12.694499,-8.627611" />
      <line x1="-12.694499" y1="-9.142504" x2="-12.694499" y2="-8.627611" />
      <path d="M -8.628915,-8.917724 C -8.561275,-8.855887 -8.382988,-8.721723 -8.282813,-8.780648" />
      <path d="M -10.325122,-7.050157 Q -10.088069,-7.311813 -9.830187,-7.558568" />
      <path d="M -9.830187,-7.558569 Q -9.807263,-7.583325 -9.807893,-7.616371" />
      <path d="M -9.807893,-7.616371 C -9.80824,-7.702016 -9.908064,-7.81505 -9.96124,-7.865485" />
      <line x1="-9.96124" y1="-8.380378" x2="-9.96124" y2="-7.865485" />
      <path d="M -9.96124,-7.865485 C -10.149191,-8.05117 -10.329642,-8.335846 -10.461715,-8.613987 C -10.595996,-8.895928 -10.687887,-9.168891 -10.759328,-9.445219" />
      <path d="M -10.759328,-9.445219 Q -10.582842,-9.589867 -10.400237,-9.728821" />
      <path d="M -10.400237,-9.728821 C -10.08482,-9.645179 -9.774989,-9.54434 -9.458187,-9.406549 C -9.145623,-9.270956 -8.829418,-9.093495 -8.628915,-8.917724" />
      <path d="M -11.442338,-6.075091 C -11.442969,-6.164681 -11.596291,-6.267786 -11.670056,-6.308671" />
      <path d="M -11.670056,-6.308671 C -11.863352,-6.42074 -12.074378,-6.598941 -12.258427,-6.789934 C -12.443513,-6.984324 -12.604569,-7.182478 -12.741597,-7.384397" />
      <path d="M -12.694499,-9.142504 C -13.442229,-8.317963 -14.068047,-7.401125 -14.54028,-6.43839" />
      <line x1="-10.325122" y1="-7.050157" x2="-12.694499" y2="-8.627611" />
      <line x1="-10.40317" y1="4.430646" x2="-12.793833" y2="5.98432" />
      <path d="M -10.40317,4.430646 Q -10.636642,4.166634 -10.847933,3.889231" />
      <line x1="-10.847933" y1="3.374338" x2="-10.847933" y2="3.889231" />
      <line x1="-10.847933" y1="3.374338" x2="-10.847933" y2="3.889231" />
      <path d="M -10.847933,3.889231 C -10.919087,3.804814 -11.139684,3.87963 -11.227675,3.918313" />
      <line x1="-11.227675" y1="3.40342" x2="-11.227675" y2="3.918313" />
      <path d="M -11.227675,3.918313 C -11.485543,4.025886 -11.853011,4.101628 -12.200594,4.139001 C -12.553031,4.17722 -12.884379,4.182663 -13.214227,4.170299" />
      <line x1="-13.214227" y1="3.655407" x2="-13.214227" y2="4.170299" />
      <path d="M -13.214227,4.170299 Q -13.331533,3.986724 -13.44084,3.799555" />
      <path d="M -13.44084,3.799555 C -13.264959,3.560024 -13.071147,3.329569 -12.833895,3.102906 C -12.600216,2.879183 -12.318418,2.663281 -12.068471,2.542749" />
      <path d="M -12.068471,2.542749 C -11.989055,2.506262 -11.819613,2.410184 -11.818887,2.318861" />
      <path d="M -11.818887,2.318861 Q -11.818818,2.305073 -11.824441,2.291639" />
      <line x1="-11.824441" y1="1.776746" x2="-11.824441" y2="2.291639" />
      <path d="M -11.824441,1.776746 Q -11.970248,1.469929 -12.090587,1.155098" />
      <path d="M -12.090587,1.155098 C -12.13383,1.057771 -12.369499,1.081093 -12.46617,1.098934" />
      <path d="M -12.46617,1.098934 C -12.744319,1.145059 -13.116777,1.137475 -13.46017,1.097664 C -13.808273,1.057628 -14.127656,0.990788 -14.438627,0.907627" />
      <path d="M -12.551483,-0.590971 L -12.551132,-0.597832" />
      <path d="M -12.551132,-0.597832 L -12.551483,-0.604719" />
      <path d="M -14.602723,3.261947 C -14.143612,4.229335 -13.530302,5.152364 -12.793833,5.98432" />
      <path d="M -12.694499,-8.627611 C -13.442229,-7.803071 -14.068047,-6.886232 -14.54028,-5.923497" />
      <line x1="-14.54028" y1="-6.43839" x2="-14.54028" y2="-5.923497" />
      <path d="M -10.700817,-7.105771 C -10.616812,-7.061048 -10.404094,-6.971013 -10.325122,-7.050157" />
      <path d="M -11.775378,-4.925496 Q -11.625401,-5.230832 -11.450805,-5.526397" />
      <path d="M -11.450805,-5.526397 Q -11.442205,-5.542736 -11.442338,-5.560198" />
      <path d="M -11.442338,-5.560198 C -11.442969,-5.649788 -11.596291,-5.752893 -11.670056,-5.793778" />
      <line x1="-11.670056" y1="-6.308671" x2="-11.670056" y2="-5.793778" />
      <path d="M -11.670056,-5.793778 C -11.907664,-5.931434 -12.167915,-6.166373 -12.379462,-6.405733 C -12.59429,-6.648274 -12.765462,-6.891547 -12.917897,-7.142609" />
      <path d="M -12.917897,-7.142609 Q -12.791096,-7.321486 -12.656666,-7.49622" />
      <path d="M -12.656666,-7.49622 C -12.326743,-7.485411 -11.997025,-7.456751 -11.649416,-7.393946 C -11.306565,-7.332323 -10.947556,-7.231066 -10.700817,-7.105771" />
      <path d="M -12.402657,-3.71879 L -12.401343,-3.732033" />
      <path d="M -12.401343,-3.732033 C -12.402279,-3.828651 -12.605002,-3.903498 -12.695163,-3.928414" />
      <path d="M -12.695163,-3.928414 C -12.93765,-4.000234 -13.223436,-4.14407 -13.477715,-4.305489 C -13.733362,-4.469863 -13.963143,-4.643494 -14.167058,-4.826383" />
      <path d="M -14.54028,-6.43839 C -15.013589,-5.476043 -15.341274,-4.451592 -15.506751,-3.416885" />
      <line x1="-11.775378" y1="-4.925496" x2="-14.54028" y2="-5.923497" />
      <line x1="-11.824441" y1="2.291639" x2="-14.602723" y2="3.261947" />
      <path d="M -11.824441,2.291639 Q -11.970248,1.984821 -12.090587,1.669991" />
      <line x1="-12.090587" y1="1.155098" x2="-12.090587" y2="1.669991" />
      <line x1="-12.090587" y1="1.155098" x2="-12.090587" y2="1.669991" />
      <path d="M -12.090587,1.669991 C -12.13383,1.572663 -12.369499,1.595985 -12.46617,1.613827" />
      <line x1="-12.46617" y1="1.098934" x2="-12.46617" y2="1.613827" />
      <path d="M -12.46617,1.613827 C -12.74773,1.66052 -13.125544,1.65215 -13.472567,1.611131 C -13.824534,1.569851 -14.146235,1.50159 -14.461111,1.416464" />
      <line x1="-14.461111" y1="0.924718" x2="-14.461111" y2="1.416464" />
      <path d="M -14.461111,1.416464 Q -14.518996,1.213116 -14.568069,1.008073" />
      <path d="M -14.568069,1.008073 C -14.325863,0.815727 -14.069076,0.636126 -13.771475,0.469826 C -13.478213,0.305574 -13.140833,0.159552 -12.863012,0.098584" />
      <path d="M -12.863012,0.098584 C -12.768805,0.079689 -12.552163,0.016958 -12.551132,-0.082939" />
      <path d="M -12.551132,-0.082939 L -12.551483,-0.089826" />
      <line x1="-12.551483" y1="-0.604719" x2="-12.551483" y2="-0.089826" />
      <path d="M -12.551483,-0.604719 Q -12.599689,-0.933433 -12.620874,-1.264235" />
      <path d="M -12.620875,-1.264236 C -12.63326,-1.367841 -12.867939,-1.397603 -12.966703,-1.401818" />
      <path d="M -12.966703,-1.401818 C -13.234104,-1.418071 -13.569936,-1.49969 -13.875437,-1.6057 C -14.184562,-1.712638 -14.464352,-1.839606 -14.726546,-1.977394" />
      <path d="M -15.506751,-3.416885 Q -15.63718,-2.604548 -15.637408,-1.781051" />
      <path d="M -15.528049,0.230991 C -15.376652,1.267282 -15.062917,2.294936 -14.602723,3.261947" />
      <path d="M -14.54028,-5.923497 C -15.013589,-4.96115 -15.341274,-3.9367 -15.506751,-2.901992" />
      <line x1="-15.506751" y1="-3.416885" x2="-15.506751" y2="-2.901992" />
      <path d="M -12.155062,-4.895858 C -12.060417,-4.871297 -11.827764,-4.831527 -11.775379,-4.925495" />
      <path d="M -12.534749,-2.551457 Q -12.482068,-2.879665 -12.402657,-3.203896" />
      <path d="M -12.402657,-3.203897 L -12.401343,-3.21714" />
      <path d="M -12.401343,-3.21714 C -12.402279,-3.313759 -12.605002,-3.388605 -12.695163,-3.413521" />
      <line x1="-12.695163" y1="-3.928414" x2="-12.695163" y2="-3.413521" />
      <path d="M -12.695163,-3.413521 C -12.966235,-3.493768 -13.28855,-3.662958 -13.565156,-3.847225 C -13.845891,-4.033838 -14.084679,-4.230843 -14.307719,-4.439529" />
      <path d="M -14.307719,-4.439529 Q -14.239245,-4.640444 -14.16215,-4.839051" />
      <path d="M -14.16215,-4.839051 C -13.840206,-4.901811 -13.51307,-4.947284 -13.158344,-4.963744 C -12.80857,-4.980291 -12.431223,-4.962139 -12.155062,-4.895858" />
      <line x1="-12.534749" y1="-2.551457" x2="-15.506751" y2="-2.901992" />
      <line x1="-12.551483" y1="-0.089826" x2="-15.528049" y2="0.230991" />
      <path d="M -12.551483,-0.089826 Q -12.599689,-0.41854 -12.620874,-0.749343" />
      <line x1="-12.620874" y1="-1.264235" x2="-12.620874" y2="-0.749343" />
      <line x1="-12.620875" y1="-1.264236" x2="-12.620875" y2="-0.749343" />
      <path d="M -12.620875,-0.749343 C -12.63326,-0.852949 -12.867939,-0.88271 -12.966703,-0.886925" />
      <line x1="-12.966703" y1="-1.401818" x2="-12.966703" y2="-0.886925" />
      <path d="M -12.966703,-0.886925 C -13.252766,-0.904294 -13.61518,-0.996206 -13.937994,-1.112823 C -14.265505,-1.230788 -14.555635,-1.3681 -14.834081,-1.520189" />
      <path d="M -14.834081,-1.520189 Q -14.828599,-1.72945 -14.814094,-1.938395" />
      <path d="M -14.814094,-1.938395 C -14.522069,-2.070448 -14.219808,-2.186954 -13.882138,-2.281558 C -13.549278,-2.375146 -13.179309,-2.441336 -12.892547,-2.438586" />
      <path d="M -12.892547,-2.438586 C -12.793712,-2.435862 -12.556979,-2.449067 -12.534749,-2.551456" />
      <path d="M -15.506751,-2.901992 Q -15.63718,-2.089656 -15.637408,-1.266158" />
      <path d="M -15.637408,-1.266158 Q -15.637229,-0.513049 -15.528049,0.230991" />
      <path d="M 7.228004,2.429639 L 7.228004,2.516699" />
      <path d="M 4.495351,7.131933 L 4.495351,7.349059" />
      <path d="M -0.100946,6.834097 L -0.100946,7.34899" />
      <path d="M 4.956953,-2.830485 L 4.956953,-2.315592" />
      <path d="M -2.371996,2.007169 L -2.371996,2.516699" />
      <path d="M 0.360657,-2.830554 L 0.360657,-2.315662" />
      <path d="M 12.362592,-1.781051 L 12.362592,-1.266158" />
      <path d="M 9.276317,-2.96427 L 9.276317,-2.449377" />
      <path d="M 9.126528,0.169931 L 9.126528,0.684824" />
      <path d="M 8.167523,2.512989 L 8.167523,3.027882" />
      <path d="M 8.544072,-5.36607 L 8.544072,-4.851177" />
      <path d="M 6.533077,4.649243 L 6.533077,5.084055" />
      <path d="M 7.111182,-7.527422 L 7.111182,-7.012529" />
      <path d="M 4.331432,6.314442 L 4.331432,6.724031" />
      <path d="M 5.073045,-9.309148 L 5.073045,-8.794256" />
      <path d="M 1.703454,7.354863 L 1.703454,7.869756" />
      <path d="M 2.562065,-10.612864 L 2.562065,-10.097971" />
      <path d="M -3.004695,7.847026 L -3.004695,8.361919" />
      <path d="M -0.27012,-10.960336 L -0.27012,-10.894236" />
      <path d="M -5.83688,7.050761 L -5.83688,7.565654" />
      <path d="M -4.978269,-10.916965 L -4.978269,-10.402072" />
      <path d="M -8.347861,5.747046 L -8.347861,6.261939" />
      <path d="M -7.606247,-9.77124 L -7.606247,-9.256348" />
      <path d="M -10.385997,3.96532 L -10.385997,4.480212" />
      <path d="M -9.807893,-8.131264 L -9.807893,-7.616371" />
      <path d="M -11.818887,1.803968 L -11.818887,2.318861" />
      <path d="M -11.442338,-6.075091 L -11.442338,-5.560198" />
      <path d="M -12.551132,-0.597832 L -12.551132,-0.082939" />
      <path d="M -12.401343,-3.732033 L -12.401343,-3.21714" />
      <path d="M -15.637408,-1.781051 L -15.637408,-1.266158" />
    </g>
  </g>
</svg>