<?xml version='1.0' encoding='utf-8'?>
<svg width="56.191252mm" height="100.09mm" viewBox="-121.761787 -202.250227 222.025785 395.480789" version="1.1" xmlns="http://www.w3.org/2000/svg">
  <g transform="scale(1,-1)" stroke-linecap="round">
    <g fill="none" stroke="rgb(0,0,0)" stroke-width="0.35561265837988615" id="Visible">
      <path d="M 39.635727,-18.173937 Q 40.560963,-18.079651 41.466093,-17.901936" />
      <path d="M 41.466093,-17.901936 C 43.504144,-13.458145 44.530771,-8.735152 44.530948,-4.001168" />
      <path d="M 44.530948,-4.001168 C 44.530968,-3.468792 44.518007,-2.936277 44.492043,-2.404004" />
      <path d="M 44.29393,-0.06567 C 44.264703,0.176191 44.232768,0.417886 44.198125,0.659378" />
      <path d="M 41.466093,-17.901936 Q 42.27572,-16.67533 42.878886,-15.373262" />
      <path d="M 42.878886,-15.373262 C 43.985073,-11.995502 44.531212,-8.528088 44.530973,-5.074474" />
      <path d="M 37.725319,-3.558174 C 36.821757,-4.230925 35.673363,-4.807321 34.296688,-5.237275" />
      <path d="M 34.296688,-5.237275 Q 35.278459,-4.389234 36.112944,-3.443627" />
      <path d="M 36.112944,-3.443627 C 37.869194,-3.675441 39.712414,-3.542492 41.466093,-3.200466" />
      <path d="M 44.530947,2.708902 C 44.531027,0.618461 43.504398,-1.467519 41.466093,-3.200466" />
      <path d="M 41.466093,-3.200466 Q 42.27572,-1.97386 42.878886,-0.671792" />
      <path d="M 43.769655,6.859536 C 44.275817,5.865508 44.531045,4.825872 44.530972,3.783597" />
      <path d="M 44.530972,3.783597 C 44.530864,2.259313 43.984721,0.729383 42.878886,-0.671792" />
      <path d="M 42.878886,-0.671792 C 42.037355,0.618783 40.942644,1.825546 39.566934,2.738464" />
      <path d="M 40.131012,4.838709 C 40.131025,4.133215 39.945321,3.423482 39.566934,2.738464" />
      <path d="M 44.45204,-7.349177 L 44.516694,-7.299706" />
      <path d="M 44.516694,-7.299706 C 44.510476,-7.090282 44.502265,-6.881179 44.492074,-6.672415" />
      <path d="M 39.566934,2.738464 Q 39.892925,3.869925 40.03105,5.026318" />
      <path d="M 40.03105,5.026318 C 41.695311,5.535805 43.209399,6.396357 44.516694,7.401764" />
      <path d="M 44.516694,7.401764 Q 44.45958,8.791457 44.177018,10.163006" />
      <path d="M 39.383902,15.395422 C 41.822928,14.025949 43.487328,12.193518 44.177018,10.163006" />
      <path d="M 44.177018,10.163006 C 42.650416,10.940354 40.956364,11.542731 39.200611,11.776991" />
      <path d="M 39.200611,11.776991 Q 38.783475,12.888699 38.188228,13.946024" />
      <path d="M 38.188228,13.946024 C 39.314563,15.060294 40.09382,16.417866 40.604443,17.817255" />
      <path d="M 40.604443,17.817255 Q 39.695893,18.997667 38.603313,20.071193" />
      <path d="M 31.212946,22.0277 C 34.004841,21.76822 36.518556,21.091547 38.603313,20.071193" />
      <path d="M 38.603313,20.071193 C 36.800692,20.127024 34.96122,19.963608 33.295877,19.456441" />
      <path d="M 33.295877,19.456441 Q 32.247383,20.250515 31.078261,20.925462" />
      <path d="M 31.078261,20.925462 C 31.364869,22.345948 31.200495,23.836778 30.777624,25.255185" />
      <path d="M 30.777624,25.255185 Q 29.261082,25.910026 27.651242,26.397878" />
      <path d="M 19.957972,25.229361 C 22.559671,25.930356 25.153718,26.318961 27.651242,26.397878" />
      <path d="M 27.651242,26.397878 C 26.055612,25.717233 24.563604,24.831811 23.434899,23.719111" />
      <path d="M 23.434899,23.719111 Q 22.035991,23.982779 20.606259,24.094497" />
      <path d="M 20.606259,24.094497 C 19.976344,25.440581 18.912382,26.665203 17.669326,27.722567" />
      <path d="M 17.669326,27.722567 Q 15.951149,27.676373 14.255403,27.447831" />
      <path d="M 7.648774,23.630726 C 9.728453,25.123672 11.947069,26.403326 14.255403,27.447831" />
      <path d="M 14.255403,27.447831 C 13.294312,26.213087 12.549551,24.842908 12.259918,23.422823" />
      <path d="M 12.259918,23.422823 Q 10.885433,23.085435 9.578187,22.603989" />
      <path d="M 9.578187,22.603989 C 8.200534,23.514989 6.522071,24.145266 4.791906,24.558267" />
      <path d="M 4.791906,24.558267 Q 3.332477,23.823415 2.0052,22.939717" />
      <path d="M 0.682935,21.444009 C 1.108816,21.952721 1.549705,22.451494 2.0052,22.939717" />
      <path d="M 2.0052,22.939717 C 1.936172,21.481724 2.138215,19.993926 2.765263,18.646966" />
      <path d="M -7.418211,-4.804949 C -7.230972,-6.28521 -6.525678,-7.74519 -5.296955,-9.060309" />
      <path d="M -5.296955,-9.060309 Q -4.608954,-10.334563 -3.719751,-11.524574" />
      <path d="M -7.469022,-5.075388 C -7.469183,-7.396361 -6.203355,-9.704241 -3.719751,-11.524574" />
      <path d="M -3.719751,-11.524574 Q -2.73213,-11.674187 -1.728462,-11.725098" />
      <path d="M 2.765263,18.646966 Q 1.783492,17.798925 0.949007,16.853318" />
      <path d="M 0.949007,16.853318 C -0.807243,17.085132 -2.650463,16.952183 -4.404142,16.610157" />
      <path d="M -5.296955,-9.060309 C -6.450748,-6.018543 -7.143005,-2.881783 -7.378175,0.27056" />
      <path d="M -4.404142,16.610157 Q -5.213768,15.383551 -5.816935,14.081483" />
      <path d="M -3.719751,-11.524574 C -5.680278,-7.713134 -6.881968,-3.654427 -7.301105,0.472044" />
      <path d="M -5.82035,14.07105 C -5.819212,14.074528 -5.818074,14.078006 -5.816935,14.081483" />
      <path d="M -5.816935,14.081483 C -4.975404,12.790909 -3.880693,11.584145 -2.504983,10.671228" />
      <path d="M -7.418138,-9.071362 C -6.938138,-12.862161 -3.099621,-16.282875 3.097058,-17.569222" />
      <path d="M -7.434068,-9.08674 Q -7.357492,-10.278388 -7.115067,-11.454785" />
      <path d="M 3.097058,-17.569222 Q 4.48061,-18.394525 5.98633,-19.065503" />
      <path d="M -7.115067,-11.454785 C -5.805492,-15.310264 -0.98182,-18.451575 5.98633,-19.065503" />
      <path d="M 5.98633,-19.065503 C 6.9856,-18.779323 7.960643,-18.419665 8.862953,-17.974801" />
      <path d="M -2.504983,10.671228 Q -2.830974,9.539766 -2.969099,8.383373" />
      <path d="M -2.969099,8.383373 C -4.633359,7.873886 -6.147448,7.013334 -7.454743,6.007927" />
      <path d="M 3.097058,-17.569222 C -3.304846,-11.25676 -7.189834,-2.915263 -7.454743,6.007927" />
      <path d="M -7.454743,6.007927 Q -7.397629,4.618235 -7.115067,3.246685" />
      <path d="M 5.98633,-19.065503 C -0.981803,-13.468063 -5.805507,-5.592304 -7.115067,3.246685" />
      <path d="M -7.115067,3.246685 C -5.588465,2.469337 -3.894413,1.866961 -2.13866,1.632701" />
      <path d="M -1.408413,-0.828174 C -1.684128,-0.02216 -1.928131,0.798536 -2.13866,1.632701" />
      <path d="M 8.630749,-18.086673 C 8.760962,-18.085708 8.891929,-18.083669 9.023632,-18.080541" />
      <path d="M -2.321952,-16.687202 C -2.836124,-17.45113 -3.23698,-18.271983 -3.542492,-19.109034" />
      <path d="M -3.542492,-19.109034 C 0.66277,-22.079929 7.720436,-23.315463 15.626576,-21.543542" />
      <path d="M -3.542492,-19.109034 Q -2.633942,-20.289446 -1.541362,-21.362972" />
      <path d="M 15.626576,-21.543542 Q 17.334958,-21.698754 19.053739,-21.670911" />
      <path d="M -1.541362,-21.362972 C 3.516543,-23.838477 11.099246,-24.291051 19.053739,-21.670911" />
      <path d="M 19.053739,-21.670911 C 19.89807,-20.871384 20.642921,-19.990447 21.196278,-19.046707" />
      <path d="M -2.13866,1.632701 Q -1.721524,0.520992 -1.126277,-0.536333" />
      <path d="M -1.126277,-0.536333 C -2.252611,-1.650603 -3.031869,-3.008174 -3.542492,-4.407564" />
      <path d="M 15.626576,-21.543542 C 7.72046,-18.331945 0.662746,-12.361975 -3.542492,-4.407564" />
      <path d="M -3.542492,-4.407564 Q -2.633942,-5.587976 -1.541362,-6.661502" />
      <path d="M 19.053739,-21.670911 C 11.099272,-19.30753 3.516517,-14.120525 -1.541362,-6.661502" />
      <path d="M -1.541362,-6.661502 C 0.261259,-6.717333 2.100731,-6.553917 3.766074,-6.046749" />
      <path d="M 5.85768,-8.465898 C 5.129675,-7.700005 4.430834,-6.893427 3.766074,-6.046749" />
      <path d="M 20.998186,-19.369368 C 21.170825,-19.287737 21.343372,-19.204351 21.515791,-19.119199" />
      <path d="M 5.849005,-23.319479 C 5.798235,-24.396789 5.969659,-25.491193 6.284327,-26.546964" />
      <path d="M 6.284327,-26.546964 C 13.303133,-27.085355 21.642408,-24.984031 28.934326,-19.918353" />
      <path d="M 6.284327,-26.546964 Q 7.800869,-27.201805 9.410709,-27.689657" />
      <path d="M 28.934326,-19.918353 Q 30.509778,-19.361885 31.981074,-18.642682" />
      <path d="M 9.410709,-27.689657 C 16.861683,-27.45421 25.171638,-24.462493 31.981074,-18.642682" />
      <path d="M 31.981074,-18.642682 C 32.224109,-17.582301 32.323581,-16.489985 32.205889,-15.423492" />
      <path d="M 3.766074,-6.046749 Q 4.814568,-6.840823 5.98369,-7.51577" />
      <path d="M 5.98369,-7.51577 C 5.697082,-8.936257 5.861456,-10.427087 6.284327,-11.845494" />
      <path d="M 28.934326,-19.918353 C 21.642435,-20.000501 13.303104,-17.367412 6.284327,-11.845494" />
      <path d="M 6.284327,-11.845494 Q 7.800869,-12.500335 9.410709,-12.988187" />
      <path d="M 31.981074,-18.642682 C 25.171665,-19.478961 16.861654,-17.73627 9.410709,-12.988187" />
      <path d="M 9.410709,-12.988187 C 11.006339,-12.307541 12.498347,-11.422119 13.627052,-10.30942" />
      <path d="M 17.342276,-12.156695 C 16.100901,-11.632203 14.858017,-11.017842 13.627052,-10.30942" />
      <path d="M 17.103979,-26.52114 C 17.715546,-27.426262 18.508269,-28.261995 19.392626,-29.014346" />
      <path d="M 19.392626,-29.014346 C 27.344292,-26.308303 34.730674,-20.79888 39.454507,-13.129123" />
      <path d="M 19.392626,-29.014346 Q 21.110802,-28.968151 22.806548,-28.73961" />
      <path d="M 39.454507,-13.129123 Q 40.474888,-12.01008 41.304466,-10.792227" />
      <path d="M 22.806548,-28.73961 C 30.654108,-25.188632 37.46467,-18.919963 41.304466,-10.792227" />
      <path d="M 41.304466,-10.792227 C 40.961464,-10.00872 40.533106,-9.243665 40.006145,-8.532711" />
      <path d="M 13.627052,-10.30942 Q 15.02596,-10.573088 16.455692,-10.684805" />
      <path d="M 16.455692,-10.684805 C 17.085607,-12.03089 18.149569,-13.255512 19.392626,-14.312876" />
      <path d="M 39.454507,-13.129123 C 34.730698,-15.81534 27.344266,-16.590372 19.392626,-14.312876" />
      <path d="M 19.392626,-14.312876 Q 21.110802,-14.266681 22.806548,-14.038139" />
      <path d="M 41.304466,-10.792227 C 37.464691,-13.93642 30.654083,-15.470703 22.806548,-14.038139" />
      <path d="M 22.806548,-14.038139 C 23.767639,-12.803396 24.5124,-11.433217 24.802033,-10.013131" />
      <path d="M 29.56017,-10.282996 C 28.079344,-10.344465 26.484226,-10.262848 24.802033,-10.013131" />
      <path d="M 29.413177,-24.922505 C 30.318443,-25.309891 31.285137,-25.614881 32.270045,-25.850046" />
      <path d="M 32.270045,-25.850046 C 39.023931,-19.956984 43.478244,-11.88142 44.368244,-2.99502" />
      <path d="M 32.270045,-25.850046 Q 33.729474,-25.115194 35.056751,-24.231496" />
      <path d="M 44.368244,-2.99502 Q 44.530288,-1.828739 44.530973,-0.654447" />
      <path d="M 44.530973,-0.654447 L 44.530973,-0.637404" />
      <path d="M 44.530973,-0.637404 L 44.530644,-0.539759" />
      <path d="M 35.056751,-24.231496 C 41.062001,-17.794732 44.528553,-9.524518 44.530912,-0.816035" />
      <path d="M 44.530912,-0.816035 C 44.53092,-0.78482 44.530884,-0.753599 44.530804,-0.722372" />
      <path d="M 44.52572,-0.223069 Q 44.266758,-0.044087 43.998859,0.126883" />
      <path d="M 24.802033,-10.013131 Q 26.176518,-9.675744 27.483764,-9.194297" />
      <path d="M 27.483764,-9.194297 C 28.861417,-10.105297 30.53988,-10.735575 32.270045,-11.148576" />
      <path d="M 44.368244,-2.99502 C 43.478257,-6.897871 39.023913,-10.239062 32.270045,-11.148576" />
      <path d="M 32.270045,-11.148576 Q 33.729474,-10.413724 35.056751,-9.530026" />
      <path d="M 44.52572,-0.223069 C 44.529162,-0.308569 44.53089,-0.393987 44.530913,-0.479301" />
      <path d="M 44.530913,-0.479301 C 44.53196,-4.327369 41.06493,-7.965566 35.056751,-9.530026" />
      <path d="M 35.056751,-9.530026 C 35.125779,-8.072033 34.923736,-6.584235 34.296688,-5.237275" />
      <line x1="-103.120318" y1="-182.522693" x2="-112.036038" y2="-191.129675" />
      <line x1="-112.036038" y1="-191.129675" x2="-103.120318" y2="-167.821222" />
      <line x1="-103.120318" y1="-167.821222" x2="-101.731968" y2="-165.336297" />
      <line x1="-110.647687" y1="-188.644749" x2="-101.731968" y2="-165.336297" />
      <line x1="-101.731968" y1="-180.037767" x2="-110.647687" y2="-188.644749" />
      <line x1="-103.120318" y1="-182.522693" x2="-101.731968" y2="-180.037767" />
      <line x1="-112.036038" y1="-191.129675" x2="-117.364614" y2="-192.024905" />
      <line x1="-101.731968" y1="-180.037767" x2="-103.039578" y2="-178.178265" />
      <line x1="96.521903" y1="186.567881" x2="97.969821" y2="186.038667" />
      <line x1="97.395552" y1="185.010817" x2="97.969821" y2="186.038667" />
      <line x1="100.086191" y1="181.184563" x2="97.395552" y2="185.010817" />
      <line x1="98.697841" y1="178.699637" x2="100.086191" y2="181.184563" />
      <line x1="94.911367" y1="171.922451" x2="93.603757" y2="173.781953" />
      <line x1="93.523016" y1="169.437526" x2="94.911367" y2="171.922451" />
      <line x1="89.736542" y1="162.66034" x2="88.428932" y2="164.519842" />
      <line x1="88.348192" y1="160.175415" x2="89.736542" y2="162.66034" />
      <line x1="84.561717" y1="153.398229" x2="83.254108" y2="155.257731" />
      <line x1="83.173367" y1="150.913304" x2="84.561717" y2="153.398229" />
      <line x1="79.386893" y1="144.136118" x2="78.079283" y2="145.99562" />
      <line x1="77.998543" y1="141.651193" x2="79.386893" y2="144.136118" />
      <line x1="74.212068" y1="134.874007" x2="72.904458" y2="136.733509" />
      <line x1="72.823718" y1="132.389082" x2="74.212068" y2="134.874007" />
      <line x1="69.037244" y1="125.611896" x2="67.729634" y2="127.471398" />
      <line x1="67.648893" y1="123.126971" x2="69.037244" y2="125.611896" />
      <line x1="63.862419" y1="116.349785" x2="62.554809" y2="118.209287" />
      <line x1="62.474069" y1="113.86486" x2="63.862419" y2="116.349785" />
      <line x1="58.687595" y1="107.087674" x2="57.379985" y2="108.947176" />
      <line x1="57.299244" y1="104.602749" x2="58.687595" y2="107.087674" />
      <line x1="53.51277" y1="97.825563" x2="52.20516" y2="99.685065" />
      <line x1="52.12442" y1="95.340638" x2="53.51277" y2="97.825563" />
      <line x1="48.337945" y1="88.563452" x2="47.030335" y2="90.422954" />
      <line x1="46.949595" y1="86.078527" x2="48.337945" y2="88.563452" />
      <line x1="43.163121" y1="79.301341" x2="41.855511" y2="81.160843" />
      <line x1="41.77477" y1="76.816416" x2="43.163121" y2="79.301341" />
      <line x1="37.988296" y1="70.03923" x2="36.680686" y2="71.898732" />
      <line x1="36.599946" y1="67.554305" x2="37.988296" y2="70.03923" />
      <line x1="32.813472" y1="60.777119" x2="31.505862" y2="62.636621" />
      <line x1="31.425121" y1="58.292194" x2="32.813472" y2="60.777119" />
      <line x1="27.638647" y1="51.515008" x2="26.331037" y2="53.37451" />
      <line x1="26.250297" y1="49.030083" x2="27.638647" y2="51.515008" />
      <line x1="22.463822" y1="42.252897" x2="21.156213" y2="44.112399" />
      <line x1="21.075472" y1="39.767972" x2="22.463822" y2="42.252897" />
      <line x1="17.288998" y1="32.990786" x2="15.981388" y2="34.850288" />
      <line x1="15.900647" y1="30.505861" x2="17.288998" y2="32.990786" />
      <line x1="-8.585125" y1="-13.319769" x2="-9.892735" y2="-11.460267" />
      <line x1="-9.973475" y1="-15.804694" x2="-8.585125" y2="-13.319769" />
      <line x1="-13.75995" y1="-22.58188" x2="-15.06756" y2="-20.722378" />
      <line x1="-15.1483" y1="-25.066805" x2="-13.75995" y2="-22.58188" />
      <line x1="-18.934774" y1="-31.843991" x2="-20.242384" y2="-29.984489" />
      <line x1="-20.323125" y1="-34.328916" x2="-18.934774" y2="-31.843991" />
      <line x1="-24.109599" y1="-41.106102" x2="-25.417209" y2="-39.2466" />
      <line x1="-25.497949" y1="-43.591027" x2="-24.109599" y2="-41.106102" />
      <line x1="-29.284423" y1="-50.368213" x2="-30.592033" y2="-48.508711" />
      <line x1="-30.672774" y1="-52.853139" x2="-29.284423" y2="-50.368213" />
      <line x1="-34.459248" y1="-59.630324" x2="-35.766858" y2="-57.770822" />
      <line x1="-35.847598" y1="-62.11525" x2="-34.459248" y2="-59.630324" />
      <line x1="-39.634073" y1="-68.892435" x2="-40.941683" y2="-67.032933" />
      <line x1="-41.022423" y1="-71.377361" x2="-39.634073" y2="-68.892435" />
      <line x1="-44.808897" y1="-78.154546" x2="-46.116507" y2="-76.295044" />
      <line x1="-46.197248" y1="-80.639472" x2="-44.808897" y2="-78.154546" />
      <line x1="-49.983722" y1="-87.416657" x2="-51.291332" y2="-85.557155" />
      <line x1="-51.372072" y1="-89.901583" x2="-49.983722" y2="-87.416657" />
      <line x1="-55.158546" y1="-96.678768" x2="-56.466156" y2="-94.819266" />
      <line x1="-56.546897" y1="-99.163694" x2="-55.158546" y2="-96.678768" />
      <line x1="-60.333371" y1="-105.940879" x2="-61.640981" y2="-104.081377" />
      <line x1="-61.721721" y1="-108.425805" x2="-60.333371" y2="-105.940879" />
      <line x1="-65.508196" y1="-115.20299" x2="-66.815805" y2="-113.343488" />
      <line x1="-66.896546" y1="-117.687916" x2="-65.508196" y2="-115.20299" />
      <line x1="-70.68302" y1="-124.465101" x2="-71.99063" y2="-122.605599" />
      <line x1="-72.07137" y1="-126.950027" x2="-70.68302" y2="-124.465101" />
      <line x1="-75.857845" y1="-133.727212" x2="-77.165455" y2="-131.86771" />
      <line x1="-77.246195" y1="-136.212138" x2="-75.857845" y2="-133.727212" />
      <line x1="-81.032669" y1="-142.989323" x2="-82.340279" y2="-141.129821" />
      <line x1="-82.42102" y1="-145.474249" x2="-81.032669" y2="-142.989323" />
      <line x1="-86.207494" y1="-152.251434" x2="-87.515104" y2="-150.391932" />
      <line x1="-87.595844" y1="-154.73636" x2="-86.207494" y2="-152.251434" />
      <line x1="-91.382318" y1="-161.513545" x2="-92.689928" y2="-159.654043" />
      <line x1="-92.770669" y1="-163.998471" x2="-91.382318" y2="-161.513545" />
      <line x1="-96.557143" y1="-170.775656" x2="-97.864753" y2="-168.916154" />
      <line x1="-97.945493" y1="-173.260582" x2="-96.557143" y2="-170.775656" />
      <line x1="-117.364614" y1="-192.024905" x2="-108.448894" y2="-168.716453" />
      <line x1="-108.448894" y1="-168.716453" x2="-109.023163" y2="-169.744303" />
      <line x1="-117.938883" y1="-193.052755" x2="-109.023163" y2="-169.744303" />
      <line x1="-116.770825" y1="-191.925145" x2="-117.938883" y2="-193.052755" />
      <line x1="-103.120318" y1="-167.821222" x2="-108.448894" y2="-168.716453" />
      <line x1="-104.422607" y1="-161.510042" x2="-103.274069" y2="-159.454342" />
      <line x1="-104.188007" y1="-161.843658" x2="-103.274069" y2="-159.454342" />
      <line x1="-101.731968" y1="-165.336297" x2="-104.422607" y2="-161.510042" />
      <line x1="-117.938883" y1="-193.052755" x2="-121.583981" y2="-191.720472" />
      <line x1="94.324723" y1="202.072421" x2="-112.668261" y2="-168.41202" />
      <line x1="-121.583981" y1="-191.720472" x2="-112.668261" y2="-168.41202" />
      <line x1="97.969821" y1="186.038667" x2="95.353278" y2="183.512731" />
      <line x1="97.395552" y1="185.010817" x2="95.066143" y2="182.762073" />
      <line x1="97.395552" y1="199.712287" x2="97.969821" y2="200.740137" />
      <line x1="97.512852" y1="199.545479" x2="97.969821" y2="200.740137" />
      <line x1="100.086191" y1="181.184563" x2="91.170471" y2="172.577581" />
      <line x1="98.697841" y1="178.699637" x2="89.782121" y2="170.092655" />
      <line x1="89.782121" y1="170.092655" x2="98.697841" y2="193.401107" />
      <line x1="98.697841" y1="193.401107" x2="100.086191" y2="195.886033" />
      <line x1="91.170471" y1="172.577581" x2="100.086191" y2="195.886033" />
      <line x1="89.782121" y1="170.092655" x2="88.505979" y2="169.878256" />
      <line x1="92.220727" y1="190.450176" x2="93.369265" y2="192.505876" />
      <line x1="92.455327" y1="190.11656" x2="93.369265" y2="192.505876" />
      <line x1="94.911367" y1="171.922451" x2="85.995647" y2="163.31547" />
      <line x1="93.523016" y1="169.437526" x2="84.607297" y2="160.830544" />
      <line x1="84.607297" y1="160.830544" x2="93.523016" y2="184.138996" />
      <line x1="93.523016" y1="184.138996" x2="94.911367" y2="186.623922" />
      <line x1="85.995647" y1="163.31547" x2="94.911367" y2="186.623922" />
      <line x1="84.607297" y1="160.830544" x2="83.331155" y2="160.616145" />
      <line x1="87.045902" y1="181.188065" x2="88.19444" y2="183.243765" />
      <line x1="87.280503" y1="180.854449" x2="88.19444" y2="183.243765" />
      <line x1="89.736542" y1="162.66034" x2="80.820822" y2="154.053359" />
      <line x1="88.348192" y1="160.175415" x2="79.432472" y2="151.568433" />
      <line x1="79.432472" y1="151.568433" x2="88.348192" y2="174.876885" />
      <line x1="88.348192" y1="174.876885" x2="89.736542" y2="177.361811" />
      <line x1="80.820822" y1="154.053359" x2="89.736542" y2="177.361811" />
      <line x1="79.432472" y1="151.568433" x2="78.15633" y2="151.354034" />
      <line x1="81.871078" y1="171.925954" x2="83.019616" y2="173.981654" />
      <line x1="82.105678" y1="171.592338" x2="83.019616" y2="173.981654" />
      <line x1="84.561717" y1="153.398229" x2="75.645998" y2="144.791248" />
      <line x1="83.173367" y1="150.913304" x2="74.257647" y2="142.306322" />
      <line x1="74.257647" y1="142.306322" x2="83.173367" y2="165.614774" />
      <line x1="83.173367" y1="165.614774" x2="84.561717" y2="168.0997" />
      <line x1="75.645998" y1="144.791248" x2="84.561717" y2="168.0997" />
      <line x1="74.257647" y1="142.306322" x2="72.981506" y2="142.091923" />
      <line x1="76.696253" y1="162.663843" x2="77.844791" y2="164.719543" />
      <line x1="76.930854" y1="162.330227" x2="77.844791" y2="164.719543" />
      <line x1="79.386893" y1="144.136118" x2="70.471173" y2="135.529137" />
      <line x1="77.998543" y1="141.651193" x2="69.082823" y2="133.044211" />
      <line x1="69.082823" y1="133.044211" x2="77.998543" y2="156.352663" />
      <line x1="77.998543" y1="156.352663" x2="79.386893" y2="158.837589" />
      <line x1="70.471173" y1="135.529137" x2="79.386893" y2="158.837589" />
      <line x1="69.082823" y1="133.044211" x2="67.806681" y2="132.829812" />
      <line x1="71.521429" y1="153.401732" x2="72.669967" y2="155.457432" />
      <line x1="71.756029" y1="153.068116" x2="72.669967" y2="155.457432" />
      <line x1="74.212068" y1="134.874007" x2="65.296349" y2="126.267026" />
      <line x1="72.823718" y1="132.389082" x2="63.907998" y2="123.7821" />
      <line x1="63.907998" y1="123.7821" x2="72.823718" y2="147.090552" />
      <line x1="72.823718" y1="147.090552" x2="74.212068" y2="149.575478" />
      <line x1="65.296349" y1="126.267026" x2="74.212068" y2="149.575478" />
      <line x1="63.907998" y1="123.7821" x2="62.631856" y2="123.567701" />
      <line x1="66.346604" y1="144.139621" x2="67.495142" y2="146.195321" />
      <line x1="66.581204" y1="143.806005" x2="67.495142" y2="146.195321" />
      <line x1="69.037244" y1="125.611896" x2="60.121524" y2="117.004915" />
      <line x1="67.648893" y1="123.126971" x2="58.733174" y2="114.519989" />
      <line x1="58.733174" y1="114.519989" x2="67.648893" y2="137.828441" />
      <line x1="67.648893" y1="137.828441" x2="69.037244" y2="140.313367" />
      <line x1="60.121524" y1="117.004915" x2="69.037244" y2="140.313367" />
      <line x1="58.733174" y1="114.519989" x2="57.457032" y2="114.30559" />
      <line x1="61.171779" y1="134.87751" x2="62.320317" y2="136.93321" />
      <line x1="61.40638" y1="134.543894" x2="62.320317" y2="136.93321" />
      <line x1="63.862419" y1="116.349785" x2="54.946699" y2="107.742804" />
      <line x1="62.474069" y1="113.86486" x2="53.558349" y2="105.257878" />
      <line x1="53.558349" y1="105.257878" x2="62.474069" y2="128.56633" />
      <line x1="62.474069" y1="128.56633" x2="63.862419" y2="131.051256" />
      <line x1="54.946699" y1="107.742804" x2="63.862419" y2="131.051256" />
      <line x1="53.558349" y1="105.257878" x2="52.282207" y2="105.043479" />
      <line x1="55.996955" y1="125.615399" x2="57.145493" y2="127.671099" />
      <line x1="56.231555" y1="125.281783" x2="57.145493" y2="127.671099" />
      <line x1="58.687595" y1="107.087674" x2="49.771875" y2="98.480693" />
      <line x1="57.299244" y1="104.602749" x2="48.383524" y2="95.995767" />
      <line x1="48.383524" y1="95.995767" x2="57.299244" y2="119.304219" />
      <line x1="57.299244" y1="119.304219" x2="58.687595" y2="121.789145" />
      <line x1="49.771875" y1="98.480693" x2="58.687595" y2="121.789145" />
      <line x1="48.383524" y1="95.995767" x2="47.107383" y2="95.781368" />
      <line x1="50.82213" y1="116.353288" x2="51.970668" y2="118.408988" />
      <line x1="51.056731" y1="116.019672" x2="51.970668" y2="118.408988" />
      <line x1="53.51277" y1="97.825563" x2="44.59705" y2="89.218582" />
      <line x1="52.12442" y1="95.340638" x2="43.2087" y2="86.733656" />
      <line x1="43.2087" y1="86.733656" x2="52.12442" y2="110.042108" />
      <line x1="52.12442" y1="110.042108" x2="53.51277" y2="112.527034" />
      <line x1="44.59705" y1="89.218582" x2="53.51277" y2="112.527034" />
      <line x1="43.2087" y1="86.733656" x2="41.932558" y2="86.519257" />
      <line x1="45.647306" y1="107.091177" x2="46.795844" y2="109.146877" />
      <line x1="45.881906" y1="106.757561" x2="46.795844" y2="109.146877" />
      <line x1="48.337945" y1="88.563452" x2="39.422226" y2="79.956471" />
      <line x1="46.949595" y1="86.078527" x2="38.033875" y2="77.471545" />
      <line x1="38.033875" y1="77.471545" x2="46.949595" y2="100.779997" />
      <line x1="46.949595" y1="100.779997" x2="48.337945" y2="103.264923" />
      <line x1="39.422226" y1="79.956471" x2="48.337945" y2="103.264923" />
      <line x1="38.033875" y1="77.471545" x2="36.757733" y2="77.257146" />
      <line x1="40.472481" y1="97.829066" x2="41.621019" y2="99.884766" />
      <line x1="40.707081" y1="97.49545" x2="41.621019" y2="99.884766" />
      <line x1="43.163121" y1="79.301341" x2="34.247401" y2="70.694359" />
      <line x1="41.77477" y1="76.816416" x2="32.859051" y2="68.209434" />
      <line x1="32.859051" y1="68.209434" x2="41.77477" y2="91.517886" />
      <line x1="41.77477" y1="91.517886" x2="43.163121" y2="94.002812" />
      <line x1="34.247401" y1="70.694359" x2="43.163121" y2="94.002812" />
      <line x1="32.859051" y1="68.209434" x2="31.582909" y2="67.995035" />
      <line x1="35.297657" y1="88.566955" x2="36.446194" y2="90.622655" />
      <line x1="35.532257" y1="88.233339" x2="36.446194" y2="90.622655" />
      <line x1="37.988296" y1="70.03923" x2="29.072576" y2="61.432248" />
      <line x1="36.599946" y1="67.554305" x2="27.684226" y2="58.947323" />
      <line x1="27.684226" y1="58.947323" x2="36.599946" y2="82.255775" />
      <line x1="36.599946" y1="82.255775" x2="37.988296" y2="84.740701" />
      <line x1="29.072576" y1="61.432248" x2="37.988296" y2="84.740701" />
      <line x1="27.684226" y1="58.947323" x2="26.408084" y2="58.732924" />
      <line x1="30.122832" y1="79.304844" x2="31.27137" y2="81.360544" />
      <line x1="30.357432" y1="78.971228" x2="31.27137" y2="81.360544" />
      <line x1="32.813472" y1="60.777119" x2="23.897752" y2="52.170137" />
      <line x1="31.425121" y1="58.292194" x2="22.509401" y2="49.685212" />
      <line x1="22.509401" y1="49.685212" x2="31.425121" y2="72.993664" />
      <line x1="31.425121" y1="72.993664" x2="32.813472" y2="75.47859" />
      <line x1="23.897752" y1="52.170137" x2="32.813472" y2="75.47859" />
      <line x1="22.509401" y1="49.685212" x2="21.23326" y2="49.470813" />
      <line x1="24.948007" y1="70.042733" x2="26.096545" y2="72.098433" />
      <line x1="25.182608" y1="69.709117" x2="26.096545" y2="72.098433" />
      <line x1="27.638647" y1="51.515008" x2="18.722927" y2="42.908026" />
      <line x1="26.250297" y1="49.030083" x2="17.334577" y2="40.423101" />
      <line x1="17.334577" y1="40.423101" x2="26.250297" y2="63.731553" />
      <line x1="26.250297" y1="63.731553" x2="27.638647" y2="66.216479" />
      <line x1="18.722927" y1="42.908026" x2="27.638647" y2="66.216479" />
      <line x1="17.334577" y1="40.423101" x2="16.058435" y2="40.208702" />
      <line x1="19.773183" y1="60.780622" x2="20.921721" y2="62.836322" />
      <line x1="20.007783" y1="60.447006" x2="20.921721" y2="62.836322" />
      <line x1="22.463822" y1="42.252897" x2="13.548103" y2="33.645915" />
      <line x1="21.075472" y1="39.767972" x2="12.159752" y2="31.16099" />
      <line x1="12.159752" y1="31.16099" x2="21.075472" y2="54.469442" />
      <line x1="21.075472" y1="54.469442" x2="22.463822" y2="56.954368" />
      <line x1="13.548103" y1="33.645915" x2="22.463822" y2="56.954368" />
      <line x1="12.159752" y1="31.16099" x2="10.88361" y2="30.946591" />
      <line x1="14.598358" y1="51.518511" x2="15.746896" y2="53.574211" />
      <line x1="14.832959" y1="51.184895" x2="15.746896" y2="53.574211" />
      <line x1="17.288998" y1="32.990786" x2="8.373278" y2="24.383804" />
      <line x1="15.900647" y1="30.505861" x2="11.02379" y2="25.797881" />
      <line x1="7.647574" y1="23.63124" x2="15.900647" y2="45.207331" />
      <line x1="15.900647" y1="45.207331" x2="17.288998" y2="47.692256" />
      <line x1="8.373278" y1="24.383804" x2="17.288998" y2="47.692256" />
      <line x1="9.423534" y1="42.2564" x2="10.572072" y2="44.3121" />
      <line x1="9.658134" y1="41.922784" x2="10.572072" y2="44.3121" />
      <line x1="6.218528" y1="24.161756" x2="10.725823" y2="35.94522" />
      <line x1="10.725823" y1="35.94522" x2="12.114173" y2="38.430145" />
      <line x1="6.606881" y1="24.032379" x2="12.114173" y2="38.430145" />
      <line x1="4.248709" y1="32.994289" x2="5.397247" y2="35.049989" />
      <line x1="4.483309" y1="32.660673" x2="5.397247" y2="35.049989" />
      <line x1="4.725369" y1="24.524658" x2="5.550998" y2="26.683109" />
      <line x1="5.550998" y1="26.683109" x2="6.939349" y2="29.168034" />
      <line x1="5.142798" y1="24.471294" x2="6.939349" y2="29.168034" />
      <line x1="-0.926116" y1="23.732178" x2="0.222422" y2="25.787878" />
      <line x1="-0.691515" y1="23.398562" x2="0.222422" y2="25.787878" />
      <line x1="-6.933837" y1="-3.192697" x2="-7.151196" y2="-3.402529" />
      <line x1="-6.743627" y1="-4.153726" x2="-8.539546" y2="-5.887454" />
      <line x1="-8.539546" y1="-5.887454" x2="-7.107846" y2="-2.144548" />
      <line x1="0.18875" y1="16.931014" x2="0.376174" y2="17.420998" />
      <line x1="0.376174" y1="17.420998" x2="1.764524" y2="19.905923" />
      <line x1="-7.151196" y1="-3.402529" x2="-6.977494" y2="-2.948418" />
      <line x1="0.61215" y1="16.893261" x2="1.764524" y2="19.905923" />
      <line x1="-8.539546" y1="-5.887454" x2="-9.815688" y2="-6.101853" />
      <line x1="-6.10094" y1="14.470067" x2="-4.952402" y2="16.525767" />
      <line x1="-5.86634" y1="14.136451" x2="-4.952402" y2="16.525767" />
      <line x1="-6.994153" y1="-7.517407" x2="-12.32602" y2="-12.66464" />
      <line x1="-6.626236" y1="-8.306882" x2="-13.714371" y2="-15.149565" />
      <line x1="-13.714371" y1="-15.149565" x2="-7.107788" y2="2.122088" />
      <line x1="-5.033414" y1="7.545144" x2="-4.798651" y2="8.158887" />
      <line x1="-4.798651" y1="8.158887" x2="-3.410301" y2="10.643812" />
      <line x1="-12.32602" y1="-12.66464" x2="-6.977463" y2="1.318145" />
      <line x1="-4.496878" y1="7.803163" x2="-3.410301" y2="10.643812" />
      <line x1="-13.714371" y1="-15.149565" x2="-14.990512" y2="-15.363964" />
      <line x1="-11.275765" y1="5.207956" x2="-10.127227" y2="7.263656" />
      <line x1="-11.041164" y1="4.87434" x2="-10.127227" y2="7.263656" />
      <line x1="-8.585125" y1="-13.319769" x2="-17.500845" y2="-21.926751" />
      <line x1="-9.973475" y1="-15.804694" x2="-18.889195" y2="-24.411676" />
      <line x1="-18.889195" y1="-24.411676" x2="-9.973475" y2="-1.103224" />
      <line x1="-9.973475" y1="-1.103224" x2="-8.585125" y2="1.381701" />
      <line x1="-17.500845" y1="-21.926751" x2="-8.585125" y2="1.381701" />
      <line x1="-18.889195" y1="-24.411676" x2="-20.165337" y2="-24.626075" />
      <line x1="-16.450589" y1="-4.054155" x2="-15.302051" y2="-1.998455" />
      <line x1="-16.215989" y1="-4.387771" x2="-15.302051" y2="-1.998455" />
      <line x1="-13.75995" y1="-22.58188" x2="-22.675669" y2="-31.188862" />
      <line x1="-15.1483" y1="-25.066805" x2="-24.06402" y2="-33.673787" />
      <line x1="-24.06402" y1="-33.673787" x2="-15.1483" y2="-10.365335" />
      <line x1="-15.1483" y1="-10.365335" x2="-13.75995" y2="-7.88041" />
      <line x1="-22.675669" y1="-31.188862" x2="-13.75995" y2="-7.88041" />
      <line x1="-24.06402" y1="-33.673787" x2="-25.340162" y2="-33.888186" />
      <line x1="-21.625414" y1="-13.316266" x2="-20.476876" y2="-11.260566" />
      <line x1="-21.390814" y1="-13.649882" x2="-20.476876" y2="-11.260566" />
      <line x1="-18.934774" y1="-31.843991" x2="-27.850494" y2="-40.450973" />
      <line x1="-20.323125" y1="-34.328916" x2="-29.238844" y2="-42.935898" />
      <line x1="-29.238844" y1="-42.935898" x2="-20.323125" y2="-19.627446" />
      <line x1="-20.323125" y1="-19.627446" x2="-18.934774" y2="-17.142521" />
      <line x1="-27.850494" y1="-40.450973" x2="-18.934774" y2="-17.142521" />
      <line x1="-29.238844" y1="-42.935898" x2="-30.514986" y2="-43.150297" />
      <line x1="-26.800238" y1="-22.578377" x2="-25.651701" y2="-20.522677" />
      <line x1="-26.565638" y1="-22.911993" x2="-25.651701" y2="-20.522677" />
      <line x1="-24.109599" y1="-41.106102" x2="-33.025319" y2="-49.713084" />
      <line x1="-25.497949" y1="-43.591027" x2="-34.413669" y2="-52.198009" />
      <line x1="-34.413669" y1="-52.198009" x2="-25.497949" y2="-28.889557" />
      <line x1="-25.497949" y1="-28.889557" x2="-24.109599" y2="-26.404632" />
      <line x1="-33.025319" y1="-49.713084" x2="-24.109599" y2="-26.404632" />
      <line x1="-34.413669" y1="-52.198009" x2="-35.689811" y2="-52.412408" />
      <line x1="-31.975063" y1="-31.840488" x2="-30.826525" y2="-29.784788" />
      <line x1="-31.740463" y1="-32.174104" x2="-30.826525" y2="-29.784788" />
      <line x1="-29.284423" y1="-50.368213" x2="-38.200143" y2="-58.975195" />
      <line x1="-30.672774" y1="-52.853139" x2="-39.588494" y2="-61.46012" />
      <line x1="-39.588494" y1="-61.46012" x2="-30.672774" y2="-38.151668" />
      <line x1="-30.672774" y1="-38.151668" x2="-29.284423" y2="-35.666743" />
      <line x1="-38.200143" y1="-58.975195" x2="-29.284423" y2="-35.666743" />
      <line x1="-39.588494" y1="-61.46012" x2="-40.864635" y2="-61.674519" />
      <line x1="-37.149888" y1="-41.102599" x2="-36.00135" y2="-39.046899" />
      <line x1="-36.915287" y1="-41.436215" x2="-36.00135" y2="-39.046899" />
      <line x1="-34.459248" y1="-59.630324" x2="-43.374968" y2="-68.237306" />
      <line x1="-35.847598" y1="-62.11525" x2="-44.763318" y2="-70.722231" />
      <line x1="-44.763318" y1="-70.722231" x2="-35.847598" y2="-47.413779" />
      <line x1="-35.847598" y1="-47.413779" x2="-34.459248" y2="-44.928854" />
      <line x1="-43.374968" y1="-68.237306" x2="-34.459248" y2="-44.928854" />
      <line x1="-44.763318" y1="-70.722231" x2="-46.03946" y2="-70.93663" />
      <line x1="-42.324712" y1="-50.36471" x2="-41.176174" y2="-48.30901" />
      <line x1="-42.090112" y1="-50.698326" x2="-41.176174" y2="-48.30901" />
      <line x1="-39.634073" y1="-68.892435" x2="-48.549792" y2="-77.499417" />
      <line x1="-41.022423" y1="-71.377361" x2="-49.938143" y2="-79.984342" />
      <line x1="-49.938143" y1="-79.984342" x2="-41.022423" y2="-56.67589" />
      <line x1="-41.022423" y1="-56.67589" x2="-39.634073" y2="-54.190965" />
      <line x1="-48.549792" y1="-77.499417" x2="-39.634073" y2="-54.190965" />
      <line x1="-49.938143" y1="-79.984342" x2="-51.214285" y2="-80.198741" />
      <line x1="-47.499537" y1="-59.626821" x2="-46.350999" y2="-57.571121" />
      <line x1="-47.264936" y1="-59.960437" x2="-46.350999" y2="-57.571121" />
      <line x1="-44.808897" y1="-78.154546" x2="-53.724617" y2="-86.761528" />
      <line x1="-46.197248" y1="-80.639472" x2="-55.112967" y2="-89.246453" />
      <line x1="-55.112967" y1="-89.246453" x2="-46.197248" y2="-65.938001" />
      <line x1="-46.197248" y1="-65.938001" x2="-44.808897" y2="-63.453076" />
      <line x1="-53.724617" y1="-86.761528" x2="-44.808897" y2="-63.453076" />
      <line x1="-55.112967" y1="-89.246453" x2="-56.389109" y2="-89.460852" />
      <line x1="-52.674361" y1="-68.888932" x2="-51.525823" y2="-66.833232" />
      <line x1="-52.439761" y1="-69.222548" x2="-51.525823" y2="-66.833232" />
      <line x1="-49.983722" y1="-87.416657" x2="-58.899442" y2="-96.023639" />
      <line x1="-51.372072" y1="-89.901583" x2="-60.287792" y2="-98.508564" />
      <line x1="-60.287792" y1="-98.508564" x2="-51.372072" y2="-75.200112" />
      <line x1="-51.372072" y1="-75.200112" x2="-49.983722" y2="-72.715187" />
      <line x1="-58.899442" y1="-96.023639" x2="-49.983722" y2="-72.715187" />
      <line x1="-60.287792" y1="-98.508564" x2="-61.563934" y2="-98.722963" />
      <line x1="-57.849186" y1="-78.151043" x2="-56.700648" y2="-76.095343" />
      <line x1="-57.614586" y1="-78.484659" x2="-56.700648" y2="-76.095343" />
      <line x1="-55.158546" y1="-96.678768" x2="-64.074266" y2="-105.28575" />
      <line x1="-56.546897" y1="-99.163694" x2="-65.462616" y2="-107.770675" />
      <line x1="-65.462616" y1="-107.770675" x2="-56.546897" y2="-84.462223" />
      <line x1="-56.546897" y1="-84.462223" x2="-55.158546" y2="-81.977298" />
      <line x1="-64.074266" y1="-105.28575" x2="-55.158546" y2="-81.977298" />
      <line x1="-65.462616" y1="-107.770675" x2="-66.738758" y2="-107.985074" />
      <line x1="-63.024011" y1="-87.413154" x2="-61.875473" y2="-85.357454" />
      <line x1="-62.78941" y1="-87.74677" x2="-61.875473" y2="-85.357454" />
      <line x1="-60.333371" y1="-105.940879" x2="-69.249091" y2="-114.547861" />
      <line x1="-61.721721" y1="-108.425805" x2="-70.637441" y2="-117.032786" />
      <line x1="-70.637441" y1="-117.032786" x2="-61.721721" y2="-93.724334" />
      <line x1="-61.721721" y1="-93.724334" x2="-60.333371" y2="-91.239409" />
      <line x1="-69.249091" y1="-114.547861" x2="-60.333371" y2="-91.239409" />
      <line x1="-70.637441" y1="-117.032786" x2="-71.913583" y2="-117.247185" />
      <line x1="-68.198835" y1="-96.675265" x2="-67.050297" y2="-94.619565" />
      <line x1="-67.964235" y1="-97.008881" x2="-67.050297" y2="-94.619565" />
      <line x1="-65.508196" y1="-115.20299" x2="-74.423915" y2="-123.809972" />
      <line x1="-66.896546" y1="-117.687916" x2="-75.812266" y2="-126.294897" />
      <line x1="-75.812266" y1="-126.294897" x2="-66.896546" y2="-102.986445" />
      <line x1="-66.896546" y1="-102.986445" x2="-65.508196" y2="-100.50152" />
      <line x1="-74.423915" y1="-123.809972" x2="-65.508196" y2="-100.50152" />
      <line x1="-75.812266" y1="-126.294897" x2="-77.088407" y2="-126.509296" />
      <line x1="-73.37366" y1="-105.937376" x2="-72.225122" y2="-103.881676" />
      <line x1="-73.139059" y1="-106.270992" x2="-72.225122" y2="-103.881676" />
      <line x1="-70.68302" y1="-124.465101" x2="-79.59874" y2="-133.072083" />
      <line x1="-72.07137" y1="-126.950027" x2="-80.98709" y2="-135.557008" />
      <line x1="-80.98709" y1="-135.557008" x2="-72.07137" y2="-112.248556" />
      <line x1="-72.07137" y1="-112.248556" x2="-70.68302" y2="-109.763631" />
      <line x1="-79.59874" y1="-133.072083" x2="-70.68302" y2="-109.763631" />
      <line x1="-80.98709" y1="-135.557008" x2="-82.263232" y2="-135.771408" />
      <line x1="-78.548484" y1="-115.199487" x2="-77.399946" y2="-113.143787" />
      <line x1="-78.313884" y1="-115.533103" x2="-77.399946" y2="-113.143787" />
      <line x1="-75.857845" y1="-133.727212" x2="-84.773564" y2="-142.334194" />
      <line x1="-77.246195" y1="-136.212138" x2="-86.161915" y2="-144.819119" />
      <line x1="-86.161915" y1="-144.819119" x2="-77.246195" y2="-121.510667" />
      <line x1="-77.246195" y1="-121.510667" x2="-75.857845" y2="-119.025742" />
      <line x1="-84.773564" y1="-142.334194" x2="-75.857845" y2="-119.025742" />
      <line x1="-86.161915" y1="-144.819119" x2="-87.438057" y2="-145.033519" />
      <line x1="-83.723309" y1="-124.461598" x2="-82.574771" y2="-122.405898" />
      <line x1="-83.488709" y1="-124.795214" x2="-82.574771" y2="-122.405898" />
      <line x1="-81.032669" y1="-142.989323" x2="-89.948389" y2="-151.596305" />
      <line x1="-82.42102" y1="-145.474249" x2="-91.336739" y2="-154.081231" />
      <line x1="-91.336739" y1="-154.081231" x2="-82.42102" y2="-130.772778" />
      <line x1="-82.42102" y1="-130.772778" x2="-81.032669" y2="-128.287853" />
      <line x1="-89.948389" y1="-151.596305" x2="-81.032669" y2="-128.287853" />
      <line x1="-91.336739" y1="-154.081231" x2="-92.612881" y2="-154.29563" />
      <line x1="-88.898134" y1="-133.723709" x2="-87.749596" y2="-131.668009" />
      <line x1="-88.663533" y1="-134.057325" x2="-87.749596" y2="-131.668009" />
      <line x1="-86.207494" y1="-152.251434" x2="-95.123214" y2="-160.858416" />
      <line x1="-87.595844" y1="-154.73636" x2="-96.511564" y2="-163.343342" />
      <line x1="-96.511564" y1="-163.343342" x2="-87.595844" y2="-140.034889" />
      <line x1="-87.595844" y1="-140.034889" x2="-86.207494" y2="-137.549964" />
      <line x1="-95.123214" y1="-160.858416" x2="-86.207494" y2="-137.549964" />
      <line x1="-96.511564" y1="-163.343342" x2="-97.787706" y2="-163.557741" />
      <line x1="-94.072958" y1="-142.98582" x2="-92.92442" y2="-140.93012" />
      <line x1="-93.838358" y1="-143.319436" x2="-92.92442" y2="-140.93012" />
      <line x1="-91.382318" y1="-161.513545" x2="-100.298038" y2="-170.120527" />
      <line x1="-92.770669" y1="-163.998471" x2="-101.686389" y2="-172.605453" />
      <line x1="-101.686389" y1="-172.605453" x2="-92.770669" y2="-149.297" />
      <line x1="-92.770669" y1="-149.297" x2="-91.382318" y2="-146.812075" />
      <line x1="-100.298038" y1="-170.120527" x2="-91.382318" y2="-146.812075" />
      <line x1="-101.686389" y1="-172.605453" x2="-102.96253" y2="-172.819852" />
      <line x1="-99.247783" y1="-152.247931" x2="-98.099245" y2="-150.192231" />
      <line x1="-99.013182" y1="-152.581547" x2="-98.099245" y2="-150.192231" />
      <line x1="-96.557143" y1="-170.775656" x2="-105.472863" y2="-179.382638" />
      <line x1="-97.945493" y1="-173.260582" x2="-106.861213" y2="-181.867564" />
      <line x1="-106.861213" y1="-181.867564" x2="-97.945493" y2="-158.559111" />
      <line x1="-97.945493" y1="-158.559111" x2="-96.557143" y2="-156.074186" />
      <line x1="-105.472863" y1="-179.382638" x2="-96.557143" y2="-156.074186" />
      <line x1="-106.861213" y1="-181.867564" x2="-108.137355" y2="-182.081963" />
      <line x1="-109.023163" y1="-169.744303" x2="-112.668261" y2="-168.41202" />
      <line x1="94.324723" y1="202.072421" x2="97.969821" y2="200.740137" />
      <line x1="100.086191" y1="195.886033" x2="97.395552" y2="199.712287" />
      <line x1="98.697841" y1="193.401107" x2="93.369265" y2="192.505876" />
      <line x1="94.911367" y1="186.623922" x2="92.220727" y2="190.450176" />
      <line x1="93.523016" y1="184.138996" x2="88.19444" y2="183.243765" />
      <line x1="89.736542" y1="177.361811" x2="87.045902" y2="181.188065" />
      <line x1="88.348192" y1="174.876885" x2="83.019616" y2="173.981654" />
      <line x1="84.561717" y1="168.0997" x2="81.871078" y2="171.925954" />
      <line x1="83.173367" y1="165.614774" x2="77.844791" y2="164.719543" />
      <line x1="79.386893" y1="158.837589" x2="76.696253" y2="162.663843" />
      <line x1="77.998543" y1="156.352663" x2="72.669967" y2="155.457432" />
      <line x1="74.212068" y1="149.575478" x2="71.521429" y2="153.401732" />
      <line x1="72.823718" y1="147.090552" x2="67.495142" y2="146.195321" />
      <line x1="69.037244" y1="140.313367" x2="66.346604" y2="144.139621" />
      <line x1="67.648893" y1="137.828441" x2="62.320317" y2="136.93321" />
      <line x1="63.862419" y1="131.051256" x2="61.171779" y2="134.87751" />
      <line x1="62.474069" y1="128.56633" x2="57.145493" y2="127.671099" />
      <line x1="58.687595" y1="121.789145" x2="55.996955" y2="125.615399" />
      <line x1="57.299244" y1="119.304219" x2="51.970668" y2="118.408988" />
      <line x1="53.51277" y1="112.527034" x2="50.82213" y2="116.353288" />
      <line x1="52.12442" y1="110.042108" x2="46.795844" y2="109.146877" />
      <line x1="48.337945" y1="103.264923" x2="45.647306" y2="107.091177" />
      <line x1="46.949595" y1="100.779997" x2="41.621019" y2="99.884766" />
      <line x1="43.163121" y1="94.002812" x2="40.472481" y2="97.829066" />
      <line x1="41.77477" y1="91.517886" x2="36.446194" y2="90.622655" />
      <line x1="37.988296" y1="84.740701" x2="35.297657" y2="88.566955" />
      <line x1="36.599946" y1="82.255775" x2="31.27137" y2="81.360544" />
      <line x1="32.813472" y1="75.47859" x2="30.122832" y2="79.304844" />
      <line x1="31.425121" y1="72.993664" x2="26.096545" y2="72.098433" />
      <line x1="27.638647" y1="66.216479" x2="24.948007" y2="70.042733" />
      <line x1="26.250297" y1="63.731553" x2="20.921721" y2="62.836322" />
      <line x1="22.463822" y1="56.954368" x2="19.773183" y2="60.780622" />
      <line x1="21.075472" y1="54.469442" x2="15.746896" y2="53.574211" />
      <line x1="17.288998" y1="47.692256" x2="14.598358" y2="51.518511" />
      <line x1="15.900647" y1="45.207331" x2="10.572072" y2="44.3121" />
      <line x1="12.114173" y1="38.430145" x2="9.423534" y2="42.2564" />
      <line x1="10.725823" y1="35.94522" x2="5.397247" y2="35.049989" />
      <line x1="6.939349" y1="29.168034" x2="4.248709" y2="32.994289" />
      <line x1="5.550998" y1="26.683109" x2="0.222422" y2="25.787878" />
      <line x1="1.764524" y1="19.905923" x2="-0.926116" y2="23.732178" />
      <line x1="0.376174" y1="17.420998" x2="-4.952402" y2="16.525767" />
      <line x1="-3.410301" y1="10.643812" x2="-6.10094" y2="14.470067" />
      <line x1="-4.798651" y1="8.158887" x2="-10.127227" y2="7.263656" />
      <line x1="-8.585125" y1="1.381701" x2="-11.275765" y2="5.207956" />
      <line x1="-9.973475" y1="-1.103224" x2="-15.302051" y2="-1.998455" />
      <line x1="-13.75995" y1="-7.88041" x2="-16.450589" y2="-4.054155" />
      <line x1="-15.1483" y1="-10.365335" x2="-20.476876" y2="-11.260566" />
      <line x1="-18.934774" y1="-17.142521" x2="-21.625414" y2="-13.316266" />
      <line x1="-20.323125" y1="-19.627446" x2="-25.651701" y2="-20.522677" />
      <line x1="-24.109599" y1="-26.404632" x2="-26.800238" y2="-22.578377" />
      <line x1="-25.497949" y1="-28.889557" x2="-30.826525" y2="-29.784788" />
      <line x1="-29.284423" y1="-35.666743" x2="-31.975063" y2="-31.840488" />
      <line x1="-30.672774" y1="-38.151668" x2="-36.00135" y2="-39.046899" />
      <line x1="-34.459248" y1="-44.928854" x2="-37.149888" y2="-41.102599" />
      <line x1="-35.847598" y1="-47.413779" x2="-41.176174" y2="-48.30901" />
      <line x1="-39.634073" y1="-54.190965" x2="-42.324712" y2="-50.36471" />
      <line x1="-41.022423" y1="-56.67589" x2="-46.350999" y2="-57.571121" />
      <line x1="-44.808897" y1="-63.453076" x2="-47.499537" y2="-59.626821" />
      <line x1="-46.197248" y1="-65.938001" x2="-51.525823" y2="-66.833232" />
      <line x1="-49.983722" y1="-72.715187" x2="-52.674361" y2="-68.888932" />
      <line x1="-51.372072" y1="-75.200112" x2="-56.700648" y2="-76.095343" />
      <line x1="-55.158546" y1="-81.977298" x2="-57.849186" y2="-78.151043" />
      <line x1="-56.546897" y1="-84.462223" x2="-61.875473" y2="-85.357454" />
      <line x1="-60.333371" y1="-91.239409" x2="-63.024011" y2="-87.413154" />
      <line x1="-61.721721" y1="-93.724334" x2="-67.050297" y2="-94.619565" />
      <line x1="-65.508196" y1="-100.50152" x2="-68.198835" y2="-96.675265" />
      <line x1="-66.896546" y1="-102.986445" x2="-72.225122" y2="-103.881676" />
      <line x1="-70.68302" y1="-109.763631" x2="-73.37366" y2="-105.937376" />
      <line x1="-72.07137" y1="-112.248556" x2="-77.399946" y2="-113.143787" />
      <line x1="-75.857845" y1="-119.025742" x2="-78.548484" y2="-115.199487" />
      <line x1="-77.246195" y1="-121.510667" x2="-82.574771" y2="-122.405898" />
      <line x1="-81.032669" y1="-128.287853" x2="-83.723309" y2="-124.461598" />
      <line x1="-82.42102" y1="-130.772778" x2="-87.749596" y2="-131.668009" />
      <line x1="-86.207494" y1="-137.549964" x2="-88.898134" y2="-133.723709" />
      <line x1="-87.595844" y1="-140.034889" x2="-92.92442" y2="-140.93012" />
      <line x1="-91.382318" y1="-146.812075" x2="-94.072958" y2="-142.98582" />
      <line x1="-92.770669" y1="-149.297" x2="-98.099245" y2="-150.192231" />
      <line x1="-96.557143" y1="-156.074186" x2="-99.247783" y2="-152.247931" />
      <line x1="-97.945493" y1="-158.559111" x2="-103.274069" y2="-159.454342" />
      <path d="M 44.530948,-4.001168 L 44.530973,-5.074474" />
      <path d="M 44.530947,2.708902 L 44.530972,3.783597" />
      <path d="M 40.131012,4.838709 L 40.131003,5.057386" />
      <path d="M -7.469007,-4.853987 L -7.469022,-5.075388" />
      <path d="M 44.530973,-0.654447 L 44.530912,-0.816035" />
      <path d="M 44.530973,-0.637404 L 44.530913,-0.479301" />
    </g>
  </g>
</svg>