<?xml version='1.0' encoding='utf-8'?>
<svg width="89.043677mm" height="100.089999mm" viewBox="-18.36408 -17.633348 26.609966 29.911068" version="1.1" xmlns="http://www.w3.org/2000/svg">
  <g transform="scale(1,-1)" stroke-linecap="round">
    <g fill="none" stroke="rgb(0,0,0)" stroke-width="0.026895755289339216" id="Visible">
      <path d="M 8.04545,-5.286232 Q 8.017722,-5.413503 7.986753,-5.455736" />
      <path d="M 8.143683,-4.42029 Q 8.102462,-5.023631 8.04545,-5.286232" />
      <path d="M 8.207374,-2.910682 C 8.19252,-3.50949 8.170925,-4.021327 8.143683,-4.42029" />
      <path d="M 8.232182,-0.860286 C 8.230686,-1.617343 8.222275,-2.312536 8.207374,-2.910682" />
      <path d="M 8.216417,1.591168 C 8.228382,0.727453 8.233727,-0.10372 8.232182,-0.860286" />
      <path d="M 8.161153,4.276616 C 8.185763,3.365105 8.2045,2.454596 8.216417,1.591168" />
      <path d="M 8.070156,7.013051 C 8.105734,6.115861 8.136586,5.188065 8.161153,4.276616" />
      <path d="M 7.341719,15.514028 L 7.348254,15.506957" />
      <path d="M 7.348254,15.506957 L 7.354261,15.499051" />
      <path d="M 7.949628,9.613988 C 7.993749,8.792262 8.034614,7.910406 8.070156,7.013051" />
      <path d="M 7.354261,15.499051 Q 7.423309,15.399687 7.499598,14.948511" />
      <path d="M 7.807782,11.902178 C 7.857439,11.211914 7.905533,10.436097 7.949628,9.613988" />
      <path d="M 7.499598,14.948511 C 7.550029,14.650129 7.602476,14.23417 7.654285,13.721684" />
      <path d="M 7.654285,13.721684 C 7.706095,13.209924 7.758139,12.593015 7.807782,11.902178" />
      <path d="M 2.812407,-1.105323 C 2.597041,-1.341947 2.39289,-1.584924 2.18801,-1.827504" />
      <path d="M 2.18801,-1.827504 Q 2.202801,-2.002876 2.217708,-2.166287" />
      <path d="M 2.308405,-2.244318 Q 2.263056,-2.205303 2.217708,-2.166287" />
      <path d="M 3.203549,-1.700248 Q 3.189411,-1.690179 3.175273,-1.680109" />
      <path d="M 3.175273,-1.680109 C 3.218604,-1.644945 3.312982,-1.572614 3.338535,-1.589646" />
      <path d="M 3.338535,-1.589646 L 3.339385,-1.590289" />
      <path d="M 2.217708,-2.166287 C 2.381997,-2.118582 2.539823,-2.058848 2.705404,-1.976891 C 2.869035,-1.896 3.040088,-1.790352 3.175273,-1.680109" />
      <path d="M 3.103665,-0.289316 Q 3.080991,-0.276629 3.058317,-0.263943" />
      <path d="M 3.058317,-0.263943 C 3.085235,-0.24841 3.130803,-0.224741 3.16857,-0.216089" />
      <path d="M 2.915849,0.793583 C 2.782082,0.684019 2.629872,0.539099 2.48595,0.392253 C 2.342786,0.24516 2.201187,0.093487 2.061154,-0.062764" />
      <path d="M 2.061154,-0.062764 Q 2.074821,-0.283291 2.088828,-0.494853" />
      <path d="M 2.378399,-0.685738 Q 2.233613,-0.590296 2.088828,-0.494853" />
      <path d="M 2.088828,-0.494853 C 2.252361,-0.494236 2.416746,-0.476038 2.58198,-0.440261 C 2.747637,-0.403687 2.921032,-0.342603 3.058317,-0.263943" />
      <path d="M 5.879621,-7.587685 L 5.893258,-7.576786" />
      <path d="M 6.224925,-7.485643 Q 6.116489,-7.592183 6.005688,-7.695374" />
      <path d="M 7.560372,-5.906684 Q 7.810397,-5.602135 8.04545,-5.286232" />
      <path d="M 6.005688,-7.695374 Q 6.022915,-7.673139 6.039378,-7.628885" />
      <path d="M 7.334078,-6.201516 C 7.399431,-6.124233 7.551799,-5.93468 7.560372,-5.906684" />
      <path d="M 6.039378,-7.628885 C 6.262159,-7.407612 6.475713,-7.181693 6.699519,-6.934073 C 6.920687,-6.689375 7.151625,-6.422027 7.334078,-6.201516" />
      <path d="M 7.560372,-5.906684 Q 7.573833,-5.844918 7.586527,-5.764482" />
      <path d="M 7.586527,-5.764482 L 7.585852,-5.762043" />
      <path d="M 7.585852,-5.762043 C 7.574159,-5.754096 7.437233,-5.906288 7.376012,-5.973523" />
      <path d="M 7.376012,-5.973523 C 7.197462,-6.172816 6.975655,-6.39052 6.76533,-6.57627 C 6.55248,-6.764323 6.351285,-6.923043 6.142312,-7.06925" />
      <path d="M 7.664368,-4.989937 Q 7.911568,-4.710295 8.143683,-4.42029" />
      <path d="M 6.142312,-7.06925 Q 6.155735,-6.951015 6.168163,-6.812019" />
      <path d="M 7.442647,-5.310482 C 7.507152,-5.235916 7.657247,-5.047927 7.664368,-4.989937" />
      <path d="M 6.168163,-6.812019 C 6.387287,-6.56481 6.597316,-6.318188 6.817569,-6.056468 C 7.035224,-5.797785 7.262652,-5.524158 7.442647,-5.310482" />
      <path d="M 7.664368,-4.989937 Q 7.674085,-4.847376 7.682862,-4.687861" />
      <path d="M 7.682862,-4.687861 Q 7.682885,-4.679205 7.678494,-4.676267" />
      <path d="M 7.678494,-4.676267 C 7.652939,-4.659318 7.529533,-4.772274 7.4723,-4.826161" />
      <path d="M 7.4723,-4.826161 C 7.295064,-4.994765 7.074093,-5.162933 6.864105,-5.296394 C 6.651598,-5.431579 6.450309,-5.53545 6.240948,-5.623198" />
      <path d="M 7.731795,-3.391761 Q 7.977163,-3.15554 8.207374,-2.910682" />
      <path d="M 6.240948,-5.623198 Q 6.249653,-5.41702 6.257199,-5.192755" />
      <path d="M 7.514188,-3.716648 C 7.57806,-3.64974 7.726361,-3.4758 7.731795,-3.391761" />
      <path d="M 6.257199,-5.192755 C 6.472941,-4.935994 6.679783,-4.685029 6.896944,-4.426574 C 7.111539,-4.171069 7.336044,-3.90932 7.514188,-3.716648" />
      <path d="M 7.731795,-3.391761 Q 7.737106,-3.17812 7.741369,-2.950396" />
      <path d="M 7.741369,-2.950396 Q 7.740738,-2.928685 7.728017,-2.922039" />
      <path d="M 7.728017,-2.922039 C 7.689544,-2.900869 7.581948,-2.971435 7.529537,-3.009005" />
      <path d="M 7.529537,-3.009005 C 7.352821,-3.135821 7.131659,-3.243484 6.921032,-3.316027 C 6.707882,-3.389602 6.505564,-3.431992 6.294875,-3.455764" />
      <path d="M 7.758059,-1.221069 Q 8.002713,-1.043823 8.232182,-0.860286" />
      <path d="M 6.294875,-3.455764 Q 6.298268,-3.175695 6.300418,-2.881443" />
      <path d="M 7.543825,-1.528632 C 7.607322,-1.473801 7.754428,-1.325437 7.758059,-1.221069" />
      <path d="M 6.300418,-2.881443 C 6.513283,-2.632165 6.717495,-2.393514 6.932233,-2.155466 C 7.144432,-1.920085 7.366799,-1.687562 7.543825,-1.528632" />
      <path d="M 7.758059,-1.221069 Q 7.758601,-0.950907 7.758059,-0.670493" />
      <path d="M 7.758059,-0.670493 Q 7.755177,-0.62557 7.722582,-0.614614" />
      <path d="M 7.722582,-0.614614 C 7.673734,-0.595702 7.588765,-0.626025 7.543825,-0.645891" />
      <path d="M 7.543825,-0.645891 C 7.366799,-0.72267 7.144432,-0.762981 6.932233,-0.770127 C 6.717495,-0.777549 6.513283,-0.756016 6.300418,-0.714656" />
      <path d="M 7.741369,1.37421 Q 7.986477,1.480946 8.216417,1.591168" />
      <path d="M 6.300418,-0.714656 Q 6.298268,-0.379781 6.294875,-0.035596" />
      <path d="M 7.529537,1.104457 C 7.592944,1.143615 7.739538,1.256618 7.741369,1.37421" />
      <path d="M 6.294875,-0.035596 C 6.505564,0.189676 6.707882,0.400195 6.921032,0.602085 C 7.131659,0.801766 7.352821,0.989708 7.529537,1.104457" />
      <path d="M 7.741369,1.37421 Q 7.737106,1.682482 7.731795,1.996476" />
      <path d="M 7.731795,1.996476 C 7.729092,2.062722 7.67927,2.090763 7.62582,2.100863" />
      <path d="M 7.62582,2.100863 Q 7.560384,2.110209 7.514188,2.102138" />
      <path d="M 7.514188,2.102138 C 7.381893,2.085944 7.22227,2.097773 7.061929,2.129323" />
      <path d="M 7.061929,2.129323 C 6.78814,2.183627 6.526224,2.284602 6.257199,2.413325" />
      <path d="M 7.682862,4.217213 Q 7.92956,4.246708 8.161153,4.276616" />
      <path d="M 6.257199,2.413325 Q 6.249653,2.780185 6.240948,3.150846" />
      <path d="M 7.4723,4.003178 C 7.535907,4.024134 7.682705,4.094402 7.682862,4.217213" />
      <path d="M 6.240948,3.150846 C 6.450309,3.337223 6.651598,3.505711 6.864105,3.658156 C 7.074093,3.808996 7.295064,3.940037 7.4723,4.003178" />
      <path d="M 7.682862,4.217213 L 7.664368,4.868762" />
      <path d="M 7.664368,4.868762 C 7.657247,4.991252 7.507152,5.037148 7.442647,5.047809" />
      <path d="M 7.442647,5.047809 C 7.262652,5.081886 7.035224,5.178308 6.817569,5.297559 C 6.597316,5.418036 6.387287,5.557448 6.168163,5.715012" />
      <path d="M 7.586527,7.114193 Q 7.835842,7.06498 8.070156,7.013051" />
      <path d="M 6.168163,5.715012 L 6.142312,6.460734" />
      <path d="M 7.376012,6.969988 Q 7.400306,6.970266 7.433978,6.975921" />
      <path d="M 7.433978,6.975921 C 7.502404,6.988199 7.587844,7.023529 7.586527,7.114193" />
      <path d="M 6.142312,6.460734 C 6.321667,6.578455 6.501727,6.680517 6.682491,6.76692 C 6.864375,6.852698 7.055215,6.921442 7.22791,6.952623" />
      <path d="M 7.22791,6.952623 Q 7.305946,6.966792 7.376012,6.969988" />
      <path d="M 6.828631,16.098063 L 6.819122,16.110053" />
      <path d="M 6.819122,16.110053 L 6.805561,16.121557" />
      <path d="M 6.828631,16.098063 Q 7.098537,15.804769 7.354261,15.499051" />
      <path d="M 5.681523,17.198098 Q 5.423611,17.420894 5.164094,17.6199" />
      <path d="M 7.586527,7.114193 Q 7.573833,7.434494 7.560372,7.750623" />
      <path d="M 7.560372,7.750623 C 7.551799,7.870564 7.399431,7.960963 7.334078,7.99038" />
      <path d="M 7.334078,7.99038 C 7.151625,8.077719 6.920687,8.234203 6.699519,8.405843 C 6.475713,8.579349 6.262159,8.764684 6.039378,8.9654" />
      <path d="M 7.458927,9.867726 Q 7.711709,9.743703 7.949628,9.613988" />
      <path d="M 6.039378,8.9654 Q 6.022915,9.32075 6.005688,9.668504" />
      <path d="M 7.247237,9.802704 C 7.289087,9.791117 7.364378,9.776758 7.413456,9.796072" />
      <path d="M 7.413456,9.796072 Q 7.457701,9.810792 7.458927,9.867726" />
      <path d="M 6.005688,9.668504 C 6.21524,9.743861 6.417282,9.798795 6.631439,9.826643 C 6.843054,9.854355 7.066669,9.850729 7.247237,9.802704" />
      <path d="M 6.982494,15.515223 Q 6.96449,15.621882 6.946766,15.710287" />
      <path d="M 6.982494,15.515223 Q 7.24822,15.237764 7.499598,14.948511" />
      <path d="M 6.946766,15.710287 C 6.936328,15.747985 6.773446,15.928847 6.703831,16.001692" />
      <path d="M 6.703831,16.001692 C 6.509204,16.210093 6.263383,16.467049 6.028532,16.704397 C 5.79088,16.944563 5.564635,17.165737 5.329394,17.383427" />
      <path d="M 5.329394,17.383427 Q 5.309538,17.458707 5.290161,17.51221" />
      <path d="M 6.602703,16.333644 C 6.670884,16.263709 6.827087,16.098021 6.828672,16.097961" />
      <path d="M 5.290161,17.51221 C 5.509997,17.345087 5.722835,17.167921 5.949251,16.964636 C 6.172978,16.763801 6.41027,16.534844 6.602703,16.333644" />
      <path d="M 7.458927,9.867726 Q 7.443182,10.161126 7.426894,10.445665" />
      <path d="M 7.426894,10.445665 C 7.417201,10.554876 7.262238,10.683291 7.195878,10.729318" />
      <path d="M 7.195878,10.729318 C 7.01053,10.863576 6.775732,11.068968 6.550838,11.280833 C 6.323262,11.495074 6.106083,11.713254 5.879621,11.942982" />
      <path d="M 7.30876,12.290163 Q 7.565621,12.100325 7.807782,11.902178" />
      <path d="M 5.879621,11.942982 Q 5.860244,12.255621 5.840388,12.555551" />
      <path d="M 7.09475,12.308281 C 7.146971,12.279658 7.25143,12.229293 7.292489,12.253087" />
      <path d="M 7.292489,12.253087 Q 7.309371,12.26222 7.30876,12.290163" />
      <path d="M 5.840388,12.555551 C 6.051445,12.566349 6.255217,12.557499 6.471558,12.518686 C 6.685328,12.480503 6.911596,12.408287 7.09475,12.308281" />
      <path d="M 7.146257,14.216419 Q 7.127763,14.39923 7.109268,14.565891" />
      <path d="M 7.146257,14.216419 Q 7.407534,13.974247 7.654285,13.721684" />
      <path d="M 7.109268,14.565891 C 7.09861,14.632529 6.938204,14.807771 6.869638,14.876278" />
      <path d="M 6.869638,14.876278 C 6.677988,15.073203 6.435487,15.330602 6.20351,15.576481 C 5.968767,15.825227 5.745018,16.06196 5.512106,16.300473" />
      <path d="M 5.512106,16.300473 Q 5.490973,16.468138 5.470004,16.615752" />
      <path d="M 6.761115,15.688944 C 6.824787,15.629501 6.965585,15.498065 6.98128,15.51043" />
      <path d="M 6.98128,15.51043 L 6.982494,15.515223" />
      <path d="M 5.470004,16.615752 C 5.686384,16.501033 5.895745,16.372039 6.118431,16.213583 C 6.338471,16.057096 6.571818,15.86824 6.761115,15.688944" />
      <path d="M 7.30876,12.290163 Q 7.291036,12.536668 7.273031,12.770226" />
      <path d="M 7.273031,12.770226 C 7.262627,12.861256 7.104922,13.018609 7.037466,13.077969" />
      <path d="M 7.037466,13.077969 C 6.848981,13.249606 6.61024,13.489417 6.381659,13.726604 C 6.150352,13.966508 5.929696,14.202219 5.699778,14.444838" />
      <path d="M 5.699778,14.444838 Q 5.678809,14.693462 5.657676,14.925128" />
      <path d="M 6.928943,14.315968 C 6.987586,14.270716 7.111958,14.179087 7.140695,14.199822" />
      <path d="M 7.140695,14.199822 Q 7.146889,14.204241 7.146257,14.216419" />
      <path d="M 5.657676,14.925128 C 5.871062,14.871095 6.077331,14.799511 6.29658,14.697152 C 6.513224,14.596143 6.742811,14.460748 6.928943,14.315968" />
      <path d="M 2.750622,-2.621625 C 2.603293,-2.798225 2.464342,-2.966338 2.320388,-3.136417" />
      <path d="M 2.320388,-3.136417 Q 2.335295,-3.254683 2.350086,-3.358806" />
      <path d="M 2.35109,-3.359804 Q 2.350588,-3.359305 2.350086,-3.358806" />
      <path d="M 2.350086,-3.358806 C 2.581291,-3.229945 2.811969,-3.072782 3.046203,-2.875815" />
      <path d="M 3.584048,0.220809 Q 3.57439,0.359782 3.56488,0.50436" />
      <path d="M 3.477429,2.019996 Q 3.457157,2.420223 3.438642,2.837981" />
      <path d="M 3.388894,4.083025 Q 3.37271,4.535825 3.359121,4.991134" />
      <path d="M 3.326902,6.241862 Q 3.317403,6.681531 3.310809,7.107328" />
      <path d="M 3.297022,8.497093 Q 3.296005,8.761874 3.296387,9.012965" />
      <path d="M 3.049117,2.935208 C 3.030061,2.86182 2.933959,2.803127 2.889502,2.781785" />
      <path d="M 2.889502,2.781785 C 2.751722,2.712059 2.581621,2.591535 2.421182,2.460824 C 2.261258,2.329243 2.103685,2.188148 1.948465,2.037539" />
      <path d="M 1.948465,2.037539 Q 1.960078,1.786885 1.972229,1.541589" />
      <path d="M 2.770948,1.219894 Q 2.371589,1.380742 1.972229,1.541589" />
      <path d="M 1.972229,1.541589 C 2.13098,1.49878 2.290582,1.4715 2.451034,1.459751 C 2.612051,1.448821 2.780874,1.458188 2.920236,1.494854" />
      <path d="M 2.679346,-3.642384 Q 2.565153,-3.773187 2.449268,-3.900303" />
      <path d="M 2.449268,-3.900303 Q 2.463275,-3.953403 2.476942,-3.991143" />
      <path d="M 5.879621,-7.587685 Q 4.178282,-5.789414 2.476942,-3.991143" />
      <path d="M 2.476942,-3.991143 Q 2.627794,-3.870831 2.775887,-3.737918" />
      <path d="M 6.005688,-7.695374 Q 4.285777,-5.881239 2.565866,-4.067104" />
      <path d="M 2.565866,-4.067104 Q 2.578018,-4.05142 2.589631,-4.020204" />
      <path d="M 6.039378,-7.628885 Q 4.314505,-5.824544 2.589631,-4.020204" />
      <path d="M 7.334078,-6.201516 Q 7.286248,-6.161715 7.238418,-6.121913" />
      <path d="M 7.560372,-5.906684 Q 7.524893,-5.878456 7.489414,-5.850227" />
      <path d="M 2.589631,-4.020204 Q 2.706936,-3.903646 2.82139,-3.782948" />
      <path d="M 2.972971,5.194673 L 2.97884,4.993507" />
      <path d="M 2.97884,4.993507 C 2.97865,4.906947 2.862883,4.867821 2.81292,4.857392" />
      <path d="M 2.81292,4.857392 C 2.673407,4.825237 2.50083,4.747078 2.337913,4.653321 C 2.175501,4.558635 2.015405,4.450953 1.857624,4.330272" />
      <path d="M 1.857624,4.330272 L 1.875859,3.804261" />
      <path d="M 1.875859,3.804261 C 2.013596,3.732689 2.151564,3.671225 2.289761,3.619869 C 2.428807,3.568895 2.573931,3.528884 2.707569,3.511227" />
      <path d="M 2.707569,3.511227 L 2.733569,3.508055" />
      <path d="M 7.586527,-5.764482 Q 7.584902,-5.763209 7.583277,-5.761936" />
      <path d="M 6.142312,-7.06925 Q 4.402274,-5.347352 2.662237,-3.625453" />
      <path d="M 2.662237,-3.625453 Q 2.671705,-3.542054 2.680472,-3.44401" />
      <path d="M 6.168163,-6.812019 Q 4.424318,-5.128014 2.680472,-3.44401" />
      <path d="M 7.442647,-5.310482 Q 7.299259,-5.201894 7.155871,-5.093305" />
      <path d="M 7.664368,-4.989937 Q 7.560715,-4.915237 7.457062,-4.840537" />
      <path d="M 2.680472,-3.44401 C 2.827958,-3.27762 2.969162,-3.112117 3.11698,-2.936681" />
      <path d="M 2.925433,7.393941 L 2.931279,7.019538" />
      <path d="M 2.931279,7.019538 C 2.930838,6.975821 2.897093,6.953705 2.85854,6.943216" />
      <path d="M 2.85854,6.943216 Q 2.802821,6.931021 2.762457,6.935186" />
      <path d="M 2.917305,6.977715 Q 2.839881,6.956451 2.762457,6.935186" />
      <path d="M 2.762457,6.935186 C 2.634491,6.941834 2.477748,6.916968 2.32673,6.874119" />
      <path d="M 2.32673,6.874119 C 2.143723,6.822204 1.971724,6.748813 1.794821,6.65919" />
      <path d="M 1.794821,6.65919 L 1.806284,6.138964" />
      <path d="M 1.806284,6.138964 C 1.949453,6.033441 2.09325,5.936873 2.237674,5.849259 C 2.382916,5.761993 2.535101,5.683497 2.672329,5.632481" />
      <path d="M 7.682862,-4.687861 Q 7.673968,-4.681661 7.665074,-4.675461" />
      <path d="M 6.240948,-5.623198 Q 4.48638,-4.114323 2.731812,-2.605448" />
      <path d="M 2.731812,-2.605448 Q 2.737952,-2.460016 2.743275,-2.301826" />
      <path d="M 6.257199,-5.192755 Q 4.500237,-3.74729 2.743275,-2.301826" />
      <path d="M 7.514188,-3.716648 Q 7.204476,-3.520817 6.894763,-3.324985" />
      <path d="M 7.731795,-3.391761 Q 7.523446,-3.267212 7.315098,-3.142663" />
      <path d="M 2.743275,-2.301826 Q 2.909964,-2.102771 3.07475,-1.904524 Q 3.242647,-1.702522 3.409688,-1.50845" />
      <path d="M 2.912753,9.289104 Q 2.912371,9.09854 2.912753,8.900743" />
      <path d="M 2.912753,8.900743 Q 2.910938,8.871558 2.888648,8.86156" />
      <path d="M 2.888648,8.86156 C 2.850521,8.842823 2.778713,8.861185 2.741553,8.87357" />
      <path d="M 2.912655,8.960112 Q 2.827104,8.916841 2.741553,8.87357" />
      <path d="M 2.741553,8.87357 C 2.599945,8.919609 2.423798,8.937898 2.257033,8.933298 C 2.090747,8.927848 1.926514,8.905276 1.764335,8.865581" />
      <path d="M 2.794973,9.454284 Q 2.279654,9.159933 1.764335,8.865581" />
      <path d="M 1.764335,8.865581 Q 1.765851,8.62937 1.768245,8.386592" />
      <path d="M 1.768245,8.386592 C 1.903144,8.264489 2.038535,8.148067 2.174416,8.037326 C 2.311168,7.926614 2.454177,7.819702 2.587321,7.734636" />
      <path d="M 7.741369,-2.950396 Q 7.715394,-2.935735 7.68942,-2.921073" />
      <path d="M 6.294875,-3.455764 Q 4.532363,-2.266182 2.769851,-1.076601" />
      <path d="M 2.769851,-1.076601 Q 2.772244,-0.879048 2.773761,-0.671491" />
      <path d="M 6.300418,-2.881443 Q 4.537089,-1.776467 2.773761,-0.671491" />
      <path d="M 7.543825,-1.528632 Q 5.597325,-0.622944 3.650825,0.282744" />
      <path d="M 3.650825,0.282744 C 3.679976,0.30794 3.732865,0.359833 3.768062,0.413818" />
      <path d="M 7.758059,-1.221069 Q 7.237281,-0.99455 6.716502,-0.768032" />
      <path d="M 2.773761,-0.671491 C 2.921655,-0.496836 3.07021,-0.326141 3.219425,-0.159407 C 3.369105,0.006624 3.525956,0.17064 3.650825,0.282744" />
      <path d="M 2.931279,10.82025 Q 2.927961,10.686795 2.925223,10.545511" />
      <path d="M 2.850173,10.493763 C 2.815075,10.505679 2.776019,10.52642 2.75163,10.540445" />
      <path d="M 2.927656,10.664212 Q 2.839643,10.602328 2.75163,10.540445" />
      <path d="M 2.75163,10.540445 C 2.609804,10.621779 2.432807,10.687576 2.264933,10.729105 C 2.097525,10.769913 1.931962,10.793239 1.768245,10.799083" />
      <path d="M 2.436661,11.354445 Q 2.102453,11.076764 1.768245,10.799083" />
      <path d="M 1.768245,10.799083 Q 1.765851,10.60153 1.764335,10.393973" />
      <path d="M 2.741553,9.496231 C 2.792226,9.460463 2.910101,9.362564 2.912753,9.289104" />
      <path d="M 1.764335,10.393973 C 1.926514,10.228764 2.090747,10.067599 2.257033,9.910477 C 2.423798,9.754087 2.599945,9.600217 2.741553,9.496231" />
      <path d="M 7.758059,-0.670493 Q 7.690979,-0.644067 7.6239,-0.61764" />
      <path d="M 6.300418,-0.714656 Q 4.537089,0.071123 2.773761,0.856901" />
      <path d="M 2.773761,0.856901 Q 2.772244,1.093112 2.769851,1.33589" />
      <path d="M 6.294875,-0.035596 Q 4.532363,0.650147 2.769851,1.33589" />
      <path d="M 7.529537,1.104457 Q 5.585142,1.622254 3.640747,2.140052" />
      <path d="M 3.640747,2.140052 C 3.685473,2.167673 3.788876,2.247382 3.790167,2.330329" />
      <path d="M 7.741369,1.37421 Q 5.765768,1.85227 3.790167,2.330329" />
      <path d="M 2.769851,1.33589 C 2.916208,1.494071 3.063432,1.644005 3.211525,1.785693 C 3.360095,1.926543 3.516097,2.059111 3.640747,2.140052" />
      <path d="M 2.478156,12.032311 C 2.248411,12.165087 2.028287,12.258531 1.806284,12.32793" />
      <path d="M 2.235599,12.770616 Q 2.020941,12.549273 1.806284,12.32793" />
      <path d="M 1.806284,12.32793 Q 1.800144,12.182498 1.794821,12.024308" />
      <path d="M 2.762457,11.039597 C 2.812867,10.99531 2.929899,10.87937 2.931279,10.82025" />
      <path d="M 1.794821,12.024308 C 1.957448,11.852787 2.11487,11.685005 2.281925,11.512454 C 2.446999,11.341869 2.621639,11.167384 2.762457,11.039597" />
      <path d="M 3.790167,2.330329 Q 3.787161,2.547775 3.783415,2.769257" />
      <path d="M 7.731795,1.996476 Q 5.757605,2.382866 3.783415,2.769257" />
      <path d="M 3.783415,2.769257 L 3.783353,2.770561" />
      <path d="M 3.31091,2.862964 C 3.117786,2.901268 2.933038,2.972494 2.743275,3.063291" />
      <path d="M 6.257199,2.413325 Q 4.500237,2.738308 2.743275,3.063291" />
      <path d="M 2.743275,3.063291 L 2.731812,3.583518" />
      <path d="M 6.240948,3.150846 Q 4.48638,3.367182 2.731812,3.583518" />
      <path d="M 7.4723,4.003178 Q 5.536337,4.093953 3.600374,4.184729" />
      <path d="M 3.600374,4.184729 C 3.64524,4.199511 3.748788,4.249076 3.748899,4.335704" />
      <path d="M 7.682862,4.217213 Q 5.715881,4.276458 3.748899,4.335704" />
      <path d="M 2.731812,3.583518 C 2.877222,3.714766 3.023741,3.834047 3.17137,3.941361 C 3.319489,4.047758 3.475356,4.140192 3.600374,4.184729" />
      <path d="M 2.231967,13.128626 Q 2.054409,13.248421 1.875859,13.347935" />
      <path d="M 2.096303,13.602949 Q 1.986081,13.475442 1.875859,13.347935" />
      <path d="M 1.875859,13.347935 Q 1.866391,13.264535 1.857624,13.166491" />
      <path d="M 1.857624,13.166491 C 1.99962,13.019871 2.143022,12.869458 2.287831,12.715252 C 2.433431,12.560851 2.5871,12.397539 2.723741,12.255751" />
      <path d="M 3.748899,4.335704 L 3.735853,4.795288" />
      <path d="M 7.664368,4.868762 Q 5.700111,4.832025 3.735853,4.795288" />
      <path d="M 3.735853,4.795288 C 3.730831,4.881689 3.624957,4.914063 3.579458,4.921583" />
      <path d="M 7.442647,5.047809 Q 5.511053,4.984696 3.579458,4.921583" />
      <path d="M 3.579458,4.921583 C 3.452494,4.94562 3.292073,5.013633 3.138545,5.09775 C 2.985456,5.182823 2.832765,5.280976 2.680472,5.392209" />
      <path d="M 6.168163,5.715012 Q 4.424318,5.553611 2.680472,5.392209" />
      <path d="M 2.680472,5.392209 L 2.662237,5.918221" />
      <path d="M 6.142312,6.460734 Q 4.402274,6.189478 2.662237,5.918221" />
      <path d="M 3.634637,6.30257 Q 3.678156,6.32435 3.680946,6.379153" />
      <path d="M 7.586527,7.114193 Q 5.633737,6.746673 3.680946,6.379153" />
      <path d="M 2.662237,5.918221 C 2.788749,6.001258 2.915759,6.07325 3.043265,6.134196 C 3.171561,6.194701 3.306173,6.243191 3.427988,6.265185" />
      <path d="M 2.06458,13.717655 L 1.972229,13.789586" />
      <path d="M 5.164094,17.6199 Q 3.568162,15.704743 1.972229,13.789586" />
      <path d="M 1.972229,13.789586 Q 1.960078,13.773902 1.948465,13.742686" />
      <path d="M 1.948465,13.742686 C 2.098275,13.603494 2.243109,13.46149 2.396689,13.30602" />
      <path d="M 3.680946,6.379153 L 3.662497,6.828072" />
      <path d="M 7.560372,7.750623 Q 5.611435,7.289348 3.662497,6.828072" />
      <path d="M 3.662497,6.828072 C 3.65645,6.912676 3.548974,6.976441 3.502876,6.99719" />
      <path d="M 7.334078,7.99038 Q 5.418477,7.493785 3.502876,6.99719" />
      <path d="M 3.502876,6.99719 C 3.374179,7.058797 3.211281,7.169176 3.055276,7.290246 C 2.899699,7.412215 2.744484,7.543781 2.589631,7.684943" />
      <path d="M 6.039378,8.9654 Q 4.314505,8.325172 2.589631,7.684943" />
      <path d="M 2.589631,7.684943 Q 2.578018,7.935597 2.565866,8.180893" />
      <path d="M 6.005688,9.668504 Q 4.285777,8.924698 2.565866,8.180893" />
      <path d="M 7.458927,9.867726 Q 7.368353,9.831517 7.277778,9.795308" />
      <path d="M 6.982494,15.515223 Q 6.979351,15.512516 6.976209,15.50981" />
      <path d="M 6.946766,15.710287 Q 6.893321,15.663304 6.839876,15.61632" />
      <path d="M 6.703831,16.001692 Q 6.631879,15.935503 6.559928,15.869314" />
      <path d="M 2.407678,13.317855 Q 2.24937,13.474056 2.088828,13.622785" />
      <path d="M 5.329394,17.383427 Q 3.709111,15.503106 2.088828,13.622785" />
      <path d="M 2.088828,13.622785 Q 2.074821,13.675885 2.061154,13.713625" />
      <path d="M 5.290161,17.51221 Q 3.675657,15.612917 2.061154,13.713625" />
      <path d="M 3.574694,8.617178 L 3.568346,8.72908" />
      <path d="M 7.426894,10.445665 Q 5.49762,9.587373 3.568346,8.72908" />
      <path d="M 3.568346,8.72908 C 3.561509,8.806115 3.452202,8.896695 3.405393,8.929161" />
      <path d="M 7.195878,10.729318 Q 5.300636,9.829239 3.405393,8.929161" />
      <path d="M 3.405393,8.929161 C 3.274654,9.023863 3.109034,9.168741 2.9504,9.318185 C 2.792188,9.46841 2.634369,9.624097 2.476942,9.785246" />
      <path d="M 5.879621,11.942982 Q 4.178282,10.864114 2.476942,9.785246" />
      <path d="M 2.476942,9.785246 Q 2.463275,10.005773 2.449268,10.217335" />
      <path d="M 5.840388,12.555551 Q 4.144828,11.386443 2.449268,10.217335" />
      <path d="M 7.30876,12.290163 Q 7.27429,12.269789 7.23982,12.249416" />
      <path d="M 7.146257,14.216419 Q 7.133705,14.207019 7.121154,14.19762" />
      <path d="M 7.109268,14.565891 Q 6.983252,14.467804 6.857236,14.369718" />
      <path d="M 6.869638,14.876278 Q 6.6922,14.731135 6.514761,14.585991" />
      <path d="M 2.760817,12.289483 C 2.575983,12.485361 2.399993,12.672235 2.217708,12.858899" />
      <path d="M 5.512106,16.300473 Q 3.864907,14.579686 2.217708,12.858899" />
      <path d="M 2.217708,12.858899 Q 2.202801,12.977165 2.18801,13.081288" />
      <path d="M 5.470004,16.615752 Q 3.829007,14.84852 2.18801,13.081288" />
      <path d="M 7.273031,12.770226 Q 7.016932,12.608942 6.760833,12.447657" />
      <path d="M 7.037466,13.077969 Q 6.640371,12.813636 6.243275,12.549302" />
      <path d="M 3.162674,10.709237 C 3.034308,10.833455 2.892768,10.978533 2.756699,11.120805 C 2.621428,11.262913 2.48589,11.405973 2.350086,11.549986" />
      <path d="M 5.699778,14.444838 Q 4.024932,12.997412 2.350086,11.549986" />
      <path d="M 2.350086,11.549986 Q 2.335295,11.725358 2.320388,11.888769" />
      <path d="M 5.657676,14.925128 Q 3.989032,13.406948 2.320388,11.888769" />
      <path d="M 2.912753,9.289104 L 3.108277,9.173319" />
      <path d="M 2.931279,10.82025 L 3.111817,10.67417" />
      <path d="M 2.148053,-3.460117 Q 2.140947,-3.452774 2.133842,-3.445431" />
      <path d="M 2.133842,-3.445431 Q 2.157626,-3.322586 2.167946,-3.199205" />
      <path d="M 2.337247,-3.368099 Q 2.252596,-3.283652 2.167946,-3.199205" />
      <path d="M 5.567845,-7.501453 L 5.697749,-7.395451" />
      <path d="M 2.167946,-3.199205 C 2.17517,-3.150683 2.302306,-3.04001 2.354889,-2.995754" />
      <path d="M 2.401599,-3.040082 Q 2.378244,-3.017918 2.354889,-2.995754" />
      <path d="M 0.512368,-11.185197 C -0.079102,-11.41625 -0.718486,-11.614629 -1.384732,-11.77419" />
      <path d="M -1.384732,-11.77419 C -2.219288,-11.974449 -3.110552,-12.116721 -4.013417,-12.193806" />
      <path d="M -4.013417,-12.193806 C -4.916143,-12.271355 -5.845671,-12.285018 -6.754957,-12.234104" />
      <path d="M -6.754957,-12.234104 C -7.664335,-12.183658 -8.568781,-12.067782 -9.422523,-11.892339" />
      <path d="M -9.422523,-11.892339 C -10.276578,-11.717336 -11.094306,-11.479817 -11.834323,-11.191802" />
      <path d="M -11.834323,-11.191802 L -11.877737,-11.174831" />
      <path d="M 2.354889,-2.995754 C 2.475586,-2.894883 2.614504,-2.759156 2.745422,-2.617153" />
      <path d="M 3.248691,-1.697093 L 3.245543,-1.677075" />
      <path d="M 3.258108,-1.685949 Q 3.251825,-1.681512 3.245543,-1.677075" />
      <path d="M 2.277679,-2.266272 C 2.227959,-2.303403 2.111565,-2.379449 2.082383,-2.354016" />
      <path d="M 2.082383,-2.354016 L 2.077752,-2.347046" />
      <path d="M 2.089997,-2.358057 Q 2.083874,-2.352552 2.077752,-2.347046" />
      <path d="M 3.245543,-1.677075 C 3.09913,-1.756736 2.942987,-1.845383 2.777113,-1.943016 C 2.611279,-2.041556 2.429111,-2.156977 2.277679,-2.266272" />
      <path d="M 2.30021,-3.39053 C 2.254845,-3.419287 2.154878,-3.474866 2.136382,-3.456397" />
      <path d="M 2.136382,-3.456397 Q 2.132867,-3.452888 2.133842,-3.445431" />
      <path d="M 1.701398,-3.724835 Q 1.921836,-3.589692 2.133842,-3.445431" />
      <path d="M 1.648416,-2.687321 Q 1.801577,-3.204216 1.701398,-3.724835" />
      <path d="M 2.077752,-2.347046 Q 1.867269,-2.521149 1.648416,-2.687321" />
      <path d="M 1.669975,-4.528916 Q 1.664063,-4.521547 1.658151,-4.514177" />
      <path d="M 1.658151,-4.514177 Q 1.740385,-4.398821 1.809874,-4.281077" />
      <path d="M 1.915637,-4.406935 Q 1.862756,-4.344006 1.809874,-4.281077" />
      <path d="M 4.001164,-9.217698 L 4.022034,-9.205166" />
      <path d="M 4.022034,-9.205166 C 4.222415,-9.087112 4.485924,-8.909935 4.738612,-8.724871 C 4.994243,-8.537692 5.238418,-8.345094 5.485267,-8.13488" />
      <path d="M 5.485267,-8.13488 Q 5.663709,-7.958123 5.822402,-7.776024" />
      <path d="M 1.809874,-4.281077 C 1.839197,-4.235136 1.970203,-4.142697 2.022881,-4.105876" />
      <path d="M 2.169888,-4.272624 Q 2.096384,-4.18925 2.022881,-4.105876" />
      <path d="M 2.022881,-4.105876 C 2.213787,-3.974213 2.456735,-3.771522 2.667967,-3.573036" />
      <path d="M 3.108937,-2.946227 C 2.996107,-3.005061 2.870546,-3.071307 2.732254,-3.144964 C 2.594124,-3.219224 2.438238,-3.306205 2.30021,-3.39053" />
      <path d="M 1.340431,-10.830319 Q 1.593805,-10.719964 1.834685,-10.60183" />
      <path d="M 1.340431,-10.830319 Q 1.226229,-10.887526 1.109256,-10.938543" />
      <path d="M 1.109256,-10.938543 L 1.108044,-10.939072" />
      <path d="M 1.834685,-10.60183 C 1.928471,-10.556159 2.087688,-10.474697 2.147708,-10.441861" />
      <path d="M 2.147708,-10.441861 C 2.321189,-10.350214 2.564942,-10.208867 2.806833,-10.058737 C 3.051491,-9.906895 3.292585,-9.748573 3.541442,-9.573372" />
      <path d="M 3.541442,-9.573372 Q 3.799074,-9.427416 4.040205,-9.273559" />
      <path d="M 4.040205,-9.273559 Q 3.974435,-9.345317 3.857296,-9.424661" />
      <path d="M -1.133349,-11.645852 Q -0.835373,-11.57444 -0.545712,-11.49378" />
      <path d="M -1.133349,-11.645852 Q -1.25659,-11.719095 -1.384732,-11.77419" />
      <path d="M -0.545712,-11.49378 C -0.434595,-11.462582 -0.305568,-11.40148 -0.259345,-11.376148" />
      <path d="M -0.259345,-11.376148 C -0.124585,-11.306273 0.082801,-11.196791 0.297409,-11.078906 C 0.51313,-10.961182 0.737297,-10.832523 0.96991,-10.69293" />
      <path d="M 0.96991,-10.69293 Q 1.289174,-10.587722 1.596311,-10.47259" />
      <path d="M 1.355268,-10.808199 C 1.331678,-10.822433 1.293897,-10.844323 1.295062,-10.847168" />
      <path d="M 1.295062,-10.847168 Q 1.293905,-10.850537 1.340431,-10.830319" />
      <path d="M 1.596311,-10.47259 Q 1.617017,-10.551962 1.56321,-10.633653 Q 1.506287,-10.71932 1.355268,-10.808199" />
      <path d="M -2.590886,1.294213 Q -2.648645,1.509827 -2.720562,1.726343" />
      <path d="M -3.916258,-12.090086 Q -3.593985,-12.062485 -3.275283,-12.024796" />
      <path d="M -3.916258,-12.090086 Q -3.96389,-12.15126 -4.013417,-12.193806" />
      <path d="M -3.275283,-12.024796 C -3.154409,-12.009984 -3.064364,-11.964356 -3.035088,-11.944356" />
      <path d="M -3.035088,-11.944356 C -2.948233,-11.890135 -2.791348,-11.806383 -2.618647,-11.715854 C -2.444677,-11.625655 -2.256489,-11.526123 -2.054083,-11.417257" />
      <path d="M -2.054083,-11.417257 Q -1.694945,-11.359966 -1.342733,-11.291407" />
      <path d="M -1.201508,-11.619965 Q -1.216598,-11.633779 -1.216562,-11.646867" />
      <path d="M -1.216562,-11.646867 C -1.214011,-11.656273 -1.194199,-11.660323 -1.133349,-11.645852" />
      <path d="M -1.342733,-11.291407 C -1.250801,-11.3647 -1.186659,-11.429075 -1.167201,-11.496333" />
      <path d="M -1.167201,-11.496333 Q -1.147379,-11.562734 -1.201508,-11.619965" />
      <path d="M -6.895387,1.575601 Q -6.983268,1.358365 -7.057038,1.132217" />
      <path d="M -6.818644,-12.132749 Q -6.494037,-12.150839 -6.168013,-12.158689" />
      <path d="M -6.818644,-12.132749 Q -6.787421,-12.192764 -6.754957,-12.234104" />
      <path d="M -6.168013,-12.158689 C -6.045619,-12.16106 -6.000693,-12.124965 -5.990359,-12.107764" />
      <path d="M -5.990359,-12.107764 C -5.957328,-12.06201 -5.861634,-11.996099 -5.74261,-11.926176 C -5.622247,-11.856767 -5.482863,-11.780372 -5.324458,-11.696991" />
      <path d="M -5.324458,-11.696991 Q -4.94992,-11.691522 -4.576636,-11.674207" />
      <path d="M -4.062767,-12.049037 C -4.060938,-12.065868 -4.036705,-12.099856 -3.916258,-12.090086" />
      <path d="M -4.576636,-11.674207 C -4.440857,-11.748625 -4.325793,-11.817268 -4.231445,-11.880136 C -4.138438,-11.943599 -4.071551,-12.004557 -4.062767,-12.049037" />
      <path d="M -9.642714,-11.770933 Q -9.337895,-11.833481 -9.026767,-11.886336" />
      <path d="M -9.642714,-11.770933 Q -9.534765,-11.840778 -9.422523,-11.892339" />
      <path d="M -9.026767,-11.886336 C -8.94521,-11.899956 -8.922817,-11.887251 -8.919994,-11.872783" />
      <path d="M -8.919994,-11.872783 Q -8.918905,-11.863291 -8.92376,-11.855234" />
      <path d="M -8.92376,-11.855234 Q -8.93569,-11.831167 -8.929997,-11.80313" />
      <path d="M -8.929997,-11.80313 C -8.91021,-11.714446 -8.784397,-11.619883 -8.618344,-11.513069" />
      <path d="M -8.618344,-11.513069 Q -8.25393,-11.559795 -7.885012,-11.594904" />
      <path d="M -7.033519,-12.066174 C -7.01228,-12.084634 -6.941206,-12.125354 -6.818644,-12.132749" />
      <path d="M -7.885012,-11.594904 C -7.700137,-11.691971 -7.531701,-11.780639 -7.379704,-11.860906 C -7.229017,-11.941583 -7.097568,-12.01655 -7.033519,-12.066174" />
      <path d="M -12.196013,-11.029295 Q -11.931755,-11.132039 -11.656725,-11.226296" />
      <path d="M -12.196013,-11.029295 Q -12.018694,-11.119289 -11.834323,-11.191802" />
      <path d="M -11.656725,-11.226296 Q -11.596221,-11.246463 -11.597155,-11.238428" />
      <path d="M -11.597155,-11.238428 C -11.59503,-11.232586 -11.618834,-11.215541 -11.635386,-11.203978" />
      <path d="M -11.635386,-11.203978 C -11.757791,-11.121185 -11.785627,-11.030862 -11.752114,-10.950124" />
      <path d="M -11.752114,-10.950124 Q -11.738247,-10.915171 -11.711268,-10.878025" />
      <path d="M -11.711268,-10.878025 Q -11.381812,-10.973761 -11.042402,-11.058902" />
      <path d="M -9.911312,-11.670208 C -9.87211,-11.692938 -9.75904,-11.746665 -9.642714,-11.770933" />
      <path d="M -11.042402,-11.058902 C -10.82103,-11.184664 -10.6107,-11.300085 -10.411413,-11.405165 C -10.213316,-11.510477 -10.026261,-11.607941 -9.911312,-11.670208" />
      <path d="M -14.880349,-0.213353 Q -15.13798,-0.359309 -15.379111,-0.513166" />
      <path d="M -15.379111,-0.513166 Q -15.354415,-0.662724 -15.324143,-0.808522" />
      <path d="M -14.304538,-9.958377 L -14.29056,-9.967596" />
      <path d="M -13.848239,-10.243553 C -13.849614,-10.245656 -13.907604,-10.216445 -13.940443,-10.198375" />
      <path d="M -14.01705,-10.156618 Q -14.178972,-10.064681 -14.271507,-9.984591 Q -14.361084,-9.907163 -14.392452,-9.835136" />
      <path d="M -14.392452,-9.835136 Q -14.120407,-9.973359 -13.833634,-10.102729" />
      <path d="M -12.50003,-10.888125 C -12.445536,-10.917472 -12.298175,-10.989594 -12.196013,-11.029295" />
      <path d="M -13.833634,-10.102729 C -13.590851,-10.261275 -13.352961,-10.408356 -13.119965,-10.543969 C -12.887957,-10.679661 -12.658045,-10.806577 -12.50003,-10.888125" />
      <path d="M -16.824173,-1.651845 Q -17.002616,-1.828603 -17.161308,-2.010701" />
      <path d="M -17.161308,-2.010701 Q -17.049213,-2.31378 -16.91157,-2.606614" />
      <path d="M -16.479178,-8.455473 Q -16.324623,-8.590479 -16.158502,-8.7215" />
      <path d="M -16.158502,-8.7215 L -16.068491,-8.791546" />
      <path d="M -14.623255,-9.773221 C -14.557183,-9.811084 -14.385573,-9.905736 -14.304538,-9.958377" />
      <path d="M -16.068491,-8.791546 Q -15.956796,-8.878773 -15.846826,-8.961088" />
      <path d="M -15.846826,-8.961088 C -15.636278,-9.118614 -15.423647,-9.268593 -15.208933,-9.411025 C -14.996364,-9.552147 -14.784907,-9.68304 -14.623255,-9.773221" />
      <path d="M -18.007822,-3.311242 Q -18.094915,-3.506755 -18.160354,-3.704684" />
      <path d="M -18.160354,-3.704684 C -17.995738,-3.986636 -17.821431,-4.25268 -17.621247,-4.520666" />
      <path d="M -17.82924,-6.833059 Q -17.722457,-7.025741 -17.59467,-7.214708" />
      <path d="M -17.59467,-7.214708 C -17.38996,-7.412004 -17.186654,-7.594676 -16.971377,-7.774808 C -16.757799,-7.953495 -16.531649,-8.129008 -16.327755,-8.27232" />
      <path d="M -18.350632,-5.078457 Q -18.340439,-5.279402 -18.308166,-5.479674" />
      <path d="M -18.308166,-5.479674 Q -18.102457,-5.735517 -17.882754,-5.975514 Q -17.660287,-6.218809 -17.419857,-6.44749" />
      <path d="M 2.077752,-2.347046 Q 2.041464,-2.225085 1.991912,-2.104474" />
      <path d="M 2.220778,-2.305334 Q 2.106345,-2.204904 1.991912,-2.104474" />
      <path d="M 1.991912,-2.104474 C 1.976545,-2.056527 2.091147,-1.92878 2.140052,-1.877356" />
      <path d="M 2.196244,-1.924102 Q 2.168148,-1.900729 2.140052,-1.877356" />
      <path d="M 2.140052,-1.877356 C 2.24885,-1.763125 2.367342,-1.613826 2.475401,-1.459221 C 2.584164,-1.302986 2.682667,-1.144864 2.770909,-0.984856" />
      <path d="M 2.835833,-0.598839 Q 2.79122,-0.525625 2.742263,-0.453231" />
      <path d="M 2.886195,-0.540028 Q 2.814229,-0.496629 2.742263,-0.453231" />
      <path d="M 1.713564,-1.183452 C 1.662966,-1.229579 1.537338,-1.32918 1.496092,-1.296115" />
      <path d="M 1.496092,-1.296115 L 1.493702,-1.293877" />
      <path d="M 1.498735,-1.298032 Q 1.496219,-1.295954 1.493702,-1.293877" />
      <path d="M 2.742263,-0.453231 C 2.574252,-0.557401 2.406021,-0.664357 2.226775,-0.788669 C 2.049612,-0.911436 1.86144,-1.053015 1.713564,-1.183452" />
      <path d="M 1.658151,-4.514177 Q 1.459068,-4.629402 1.252068,-4.734353" />
      <path d="M 1.701398,-3.724835 Q 1.599986,-4.245385 1.252068,-4.734353" />
      <path d="M 1.096733,-1.692516 Q 1.494031,-2.17053 1.648416,-2.687321" />
      <path d="M 0.083946,-0.808215 C 0.490622,-1.076725 0.83401,-1.37655 1.096733,-1.692516" />
      <path d="M 1.252068,-4.734353 C 1.021986,-5.057564 0.709711,-5.367026 0.331049,-5.64708" />
      <path d="M -1.320926,-0.094682 C -0.798576,-0.297571 -0.32225,-0.539497 0.083946,-0.808215" />
      <path d="M 0.331049,-5.64708 Q -0.035342,-5.918327 -0.482904,-6.153781" />
      <path d="M -3.022142,0.399458 C -2.419715,0.276015 -1.842913,0.108476 -1.320926,-0.094682" />
      <path d="M -4.903769,0.640529 C -4.262319,0.604946 -3.624348,0.52321 -3.022142,0.399458" />
      <path d="M -6.837575,0.612104 C -6.200817,0.666805 -5.545154,0.676442 -4.903769,0.640529" />
      <path d="M -8.691776,0.316118 C -8.103103,0.457376 -7.474431,0.55773 -6.837575,0.612104" />
      <path d="M -10.340011,-0.227256 C -9.83954,-0.009069 -9.280701,0.175164 -8.691776,0.316118" />
      <path d="M -11.669955,-0.980989 C -11.291793,-0.700741 -10.840871,-0.445186 -10.340011,-0.227256" />
      <path d="M -12.590975,-1.893715 C -12.360892,-1.570505 -12.048618,-1.261042 -11.669955,-0.980989" />
      <path d="M -11.650076,-5.661727 Q -12.115011,-5.320461 -12.435639,-4.935553" />
      <path d="M -13.040304,-2.903234 Q -12.938892,-2.382684 -12.590975,-1.893715" />
      <path d="M -12.435639,-4.935553 Q -12.832937,-4.457538 -12.987322,-3.940748" />
      <path d="M -12.987322,-3.940748 Q -13.140484,-3.423853 -13.040304,-2.903234" />
      <path d="M 1.493702,-1.293877 Q 1.299088,-1.496593 1.096733,-1.692516" />
      <path d="M 1.779621,-4.479607 C 1.741723,-4.500925 1.66391,-4.53948 1.654312,-4.528005" />
      <path d="M 1.654312,-4.528005 Q 1.651258,-4.524624 1.658151,-4.514177" />
      <path d="M 0.688076,-5.488371 Q 0.685586,-5.484412 0.683095,-5.480453" />
      <path d="M 0.683095,-5.480453 Q 0.818177,-5.380446 0.942099,-5.276363" />
      <path d="M 0.965747,-5.311759 Q 0.953923,-5.294061 0.942099,-5.276363" />
      <path d="M 0.942099,-5.276363 C 0.991521,-5.235985 1.117469,-5.161695 1.166652,-5.132069" />
      <path d="M 4.022034,-9.205166 Q 2.594343,-7.168617 1.166652,-5.132069" />
      <path d="M 1.166652,-5.132069 C 1.307995,-5.048797 1.493867,-4.923821 1.672106,-4.793283 C 1.85076,-4.662686 2.026317,-4.523964 2.198776,-4.377119" />
      <path d="M 5.485267,-8.13488 Q 3.842021,-6.256 2.198776,-4.377119" />
      <path d="M 2.198776,-4.377119 Q 2.324644,-4.252439 2.436581,-4.123992" />
      <path d="M 5.822402,-7.776024 Q 4.129491,-5.950008 2.436581,-4.123992" />
      <path d="M 2.436581,-4.123992 C 2.357672,-4.171261 2.263029,-4.223855 2.152653,-4.281775 C 2.041839,-4.340544 1.907667,-4.410489 1.779621,-4.479607" />
      <path d="M 1.493702,-1.293877 Q 1.399815,-1.18111 1.293769,-1.07149" />
      <path d="M 1.562048,-1.290749 Q 1.427909,-1.181119 1.293769,-1.07149" />
      <path d="M 1.293769,-1.07149 C 1.256858,-1.027236 1.351117,-0.884736 1.39301,-0.826898" />
      <path d="M 1.780635,-1.125818 Q 1.586822,-0.976358 1.39301,-0.826898" />
      <path d="M 1.39301,-0.826898 C 1.511054,-0.663279 1.629426,-0.444062 1.723709,-0.229108 C 1.819207,-0.011642 1.892956,0.200406 1.955426,0.421971" />
      <path d="M 2.321326,0.220547 Q 2.138376,0.321259 1.955426,0.421971" />
      <path d="M 1.955426,0.421971 Q 1.817106,0.542793 1.665739,0.659027" />
      <path d="M 2.37422,0.276509 Q 2.019979,0.467768 1.665739,0.659027" />
      <path d="M 0.646309,-0.215861 C 0.599704,-0.269843 0.478655,-0.390419 0.421495,-0.357694" />
      <path d="M 1.665739,0.659027 C 1.489523,0.530542 1.31678,0.399502 1.138322,0.249924 C 0.961903,0.102183 0.780551,-0.065497 0.646309,-0.215861" />
      <path d="M 0.421495,-0.357694 Q 0.276408,-0.261807 0.121093,-0.170648" />
      <path d="M 0.121093,-0.170648 L 0.11758,-0.168055" />
      <path d="M 0.11758,-0.168055 C 0.068123,-0.126163 0.133329,0.0223 0.164673,0.084032" />
      <path d="M 0.60599,-0.259041 Q 0.385331,-0.087505 0.164673,0.084032" />
      <path d="M 0.164673,0.084032 C 0.254092,0.262304 0.33057,0.495284 0.382461,0.720563 C 0.435085,0.948491 0.465869,1.167923 0.483508,1.395146" />
      <path d="M 2.455968,0.361549 Q 1.469738,0.878348 0.483508,1.395146" />
      <path d="M 0.483508,1.395146 Q 0.291614,1.492645 0.089333,1.583899" />
      <path d="M -0.851355,0.570562 C -0.889793,0.510573 -0.993737,0.374104 -1.065799,0.397702" />
      <path d="M 0.089333,1.583899 C -0.083078,1.43079 -0.248561,1.275859 -0.41407,1.101986 C -0.577721,0.930224 -0.739895,0.73828 -0.851355,0.570562" />
      <path d="M 1.340431,-10.830319 Q 1.338071,-10.825116 1.33571,-10.819914" />
      <path d="M -0.477095,-6.165847 L -0.376243,-6.117237" />
      <path d="M 1.834685,-10.60183 Q 0.729221,-8.359534 -0.376243,-6.117237" />
      <path d="M -0.376243,-6.117237 C -0.310089,-6.085022 -0.197782,-6.027561 -0.155445,-6.004399" />
      <path d="M 2.147708,-10.441861 Q 0.996131,-8.22313 -0.155445,-6.004399" />
      <path d="M -0.155445,-6.004399 C -0.033076,-5.939754 0.13886,-5.840052 0.309483,-5.734154 C 0.480727,-5.628272 0.653451,-5.514151 0.827656,-5.391792" />
      <path d="M 3.541442,-9.573372 Q 2.184549,-7.482582 0.827656,-5.391792" />
      <path d="M 0.827656,-5.391792 Q 1.009382,-5.288838 1.179469,-5.180312" />
      <path d="M 4.040205,-9.273559 Q 2.609837,-7.226935 1.179469,-5.180312" />
      <path d="M 0.682718,-5.492011 Q 0.670029,-5.496944 0.668171,-5.495168" />
      <path d="M 0.668171,-5.495168 Q 0.666213,-5.493349 0.683095,-5.480453" />
      <path d="M -1.065799,0.397702 Q -1.2522,0.470175 -1.446198,0.536661" />
      <path d="M -1.446198,0.536661 Q -1.455959,0.540535 -1.463162,0.547577" />
      <path d="M -1.463162,0.547577 C -1.510823,0.594445 -1.479431,0.732533 -1.46125,0.793355" />
      <path d="M -1.026741,0.398307 Q -1.243996,0.595831 -1.46125,0.793355" />
      <path d="M -1.46125,0.793355 C -1.40655,0.981808 -1.377178,1.222264 -1.371216,1.45163 C -1.36505,1.68371 -1.379331,1.904308 -1.407725,2.130771" />
      <path d="M -0.129445,1.384326 Q -0.768585,1.757549 -1.407725,2.130771" />
      <path d="M -1.407725,2.130771 Q -1.640114,2.198301 -1.879525,2.258357" />
      <path d="M -2.677364,1.122222 C -2.705016,1.057565 -2.784773,0.90812 -2.866826,0.920832" />
      <path d="M -1.879525,2.258357 C -2.036382,2.08199 -2.183327,1.904992 -2.324607,1.70945 C -2.464339,1.516259 -2.596282,1.30354 -2.677364,1.122222" />
      <path d="M -1.133349,-11.645852 Q -1.147943,-11.593521 -1.162537,-11.541191" />
      <path d="M -2.464576,-6.852405 Q -2.257079,-6.80258 -2.055309,-6.746394" />
      <path d="M -0.545712,-11.49378 Q -1.30051,-9.120087 -2.055309,-6.746394" />
      <path d="M -2.055309,-6.746394 C -1.97693,-6.724388 -1.885918,-6.681288 -1.853314,-6.663419" />
      <path d="M -0.259345,-11.376148 Q -1.05633,-9.019783 -1.853314,-6.663419" />
      <path d="M -1.853314,-6.663419 C -1.758258,-6.614131 -1.611973,-6.536906 -1.460595,-6.453753 C -1.308431,-6.370714 -1.15031,-6.279961 -0.986231,-6.181496" />
      <path d="M 0.96991,-10.69293 Q -0.00816,-8.437213 -0.986231,-6.181496" />
      <path d="M -0.986231,-6.181496 Q -0.761031,-6.107286 -0.544386,-6.026075" />
      <path d="M 1.596311,-10.47259 Q 0.525962,-8.249333 -0.544386,-6.026075" />
      <path d="M -2.866826,0.920832 Q -3.081836,0.964952 -3.301298,1.002234" />
      <path d="M -3.301298,1.002234 Q -3.329204,1.008924 -3.345271,1.034842" />
      <path d="M -3.345271,1.034842 C -3.381529,1.091135 -3.379013,1.199551 -3.373956,1.252734" />
      <path d="M -3.189921,0.982822 Q -3.281938,1.117778 -3.373956,1.252734" />
      <path d="M -3.373956,1.252734 C -3.357701,1.446198 -3.377437,1.687335 -3.41781,1.91427 C -3.458523,2.14391 -3.516895,2.359376 -3.589388,2.578713" />
      <path d="M -2.720562,1.726343 Q -3.154975,2.152528 -3.589388,2.578713" />
      <path d="M -3.589388,2.578713 Q -3.846435,2.611673 -4.106659,2.636438" />
      <path d="M -4.707279,1.401525 C -4.722261,1.333856 -4.772394,1.175237 -4.858846,1.176047" />
      <path d="M -4.106659,2.636438 C -4.237273,2.439766 -4.355667,2.244026 -4.46309,2.030917 C -4.56938,1.820349 -4.662101,1.591761 -4.707279,1.401525" />
      <path d="M -3.916258,-12.090086 Q -4.174528,-9.628549 -4.432798,-7.167012" />
      <path d="M -4.432798,-7.167012 Q -4.205476,-7.147542 -3.980672,-7.120957" />
      <path d="M -3.275283,-12.024796 Q -3.627978,-9.572877 -3.980672,-7.120957" />
      <path d="M -3.980672,-7.120957 C -3.895411,-7.11051 -3.831896,-7.078325 -3.811245,-7.064218" />
      <path d="M -3.035088,-11.944356 Q -3.423167,-9.504287 -3.811245,-7.064218" />
      <path d="M -3.811245,-7.064218 C -3.74998,-7.025971 -3.639318,-6.966895 -3.517499,-6.903039 C -3.394786,-6.839415 -3.262043,-6.769207 -3.119272,-6.692416" />
      <path d="M -2.054083,-11.417257 Q -2.586678,-9.054836 -3.119272,-6.692416" />
      <path d="M -3.119272,-6.692416 Q -2.865946,-6.652005 -2.617505,-6.603645" />
      <path d="M -1.342733,-11.291407 Q -1.980119,-8.947526 -2.617505,-6.603645" />
      <path d="M -2.617505,-6.603645 Q -2.517257,-6.679113 -2.49369,-6.748195" />
      <path d="M -4.858846,1.176047 Q -5.087815,1.188808 -5.317783,1.194345" />
      <path d="M -5.317783,1.194345 C -5.404116,1.200424 -5.435806,1.362304 -5.443095,1.430861" />
      <path d="M -5.443095,1.430861 C -5.466395,1.623828 -5.533894,1.858803 -5.61785,2.076956 C -5.702668,2.29773 -5.801152,2.502116 -5.912803,2.708447" />
      <path d="M -5.912803,2.708447 Q -6.176992,2.70459 -6.440296,2.692376" />
      <path d="M -6.886173,1.151725 Q -6.844469,1.270581 -6.802765,1.389437" />
      <path d="M -6.802765,1.389437 C -6.803485,1.351663 -6.808834,1.286996 -6.827185,1.233239" />
      <path d="M -6.827185,1.233239 C -6.842605,1.188102 -6.867372,1.150746 -6.906109,1.145954" />
      <path d="M -6.440296,2.692376 Q -6.489966,2.582021 -6.534193,2.472384" />
      <path d="M -6.534193,2.472384 C -6.605719,2.297134 -6.66632,2.115621 -6.715995,1.927845 C -6.764482,1.741402 -6.797622,1.549374 -6.802765,1.389437" />
      <path d="M -6.818644,-12.132749 Q -6.649352,-9.664927 -6.48006,-7.197105" />
      <path d="M -6.48006,-7.197105 Q -6.251092,-7.209865 -6.021123,-7.215402" />
      <path d="M -6.168013,-12.158689 Q -6.094568,-9.687046 -6.021123,-7.215402" />
      <path d="M -6.021123,-7.215402 C -5.93479,-7.217075 -5.9031,-7.191614 -5.895811,-7.179481" />
      <path d="M -5.990359,-12.107764 Q -5.943085,-9.643622 -5.895811,-7.179481" />
      <path d="M -5.895811,-7.179481 C -5.872512,-7.147207 -5.805012,-7.100716 -5.721056,-7.051394 C -5.636155,-7.002434 -5.537837,-6.948547 -5.426103,-6.889733" />
      <path d="M -5.324458,-11.696991 Q -5.375281,-9.293362 -5.426103,-6.889733" />
      <path d="M -5.426103,-6.889733 Q -5.161915,-6.885876 -4.89861,-6.873662" />
      <path d="M -4.576636,-11.674207 Q -4.737623,-9.273935 -4.89861,-6.873662" />
      <path d="M -4.062767,-12.049037 Q -4.299454,-9.593547 -4.536141,-7.138056" />
      <path d="M -4.536141,-7.138056 C -4.534852,-7.149929 -4.517758,-7.173903 -4.432798,-7.167012" />
      <path d="M -4.89861,-6.873662 C -4.802836,-6.926155 -4.721673,-6.974573 -4.655122,-7.018918 C -4.589517,-7.063684 -4.542337,-7.106682 -4.536141,-7.138056" />
      <path d="M -6.906109,1.145954 Q -7.13343,1.126485 -7.358234,1.0999" />
      <path d="M -7.358234,1.0999 C -7.443495,1.093859 -7.50701,1.249015 -7.527661,1.315598" />
      <path d="M -7.527661,1.315598 C -7.588926,1.502591 -7.699589,1.724983 -7.821407,1.928601 C -7.944549,2.134686 -8.076435,2.322801 -8.219635,2.51113" />
      <path d="M -8.219635,2.51113 Q -8.472961,2.470719 -8.721401,2.422359" />
      <path d="M -9.935676,1.548232 Q -9.328539,1.985296 -8.721401,2.422359" />
      <path d="M -9.099108,0.775069 Q -8.960063,0.930925 -8.821018,1.086781" />
      <path d="M -8.821018,1.086781 C -8.810427,1.028902 -8.796593,0.903766 -8.839641,0.852059" />
      <path d="M -8.839641,0.852059 Q -8.851292,0.837885 -8.869095,0.832603" />
      <path d="M -8.721401,2.422359 C -8.77522,2.199174 -8.814801,1.980724 -8.835354,1.749217 C -8.855802,1.520429 -8.854226,1.278739 -8.821018,1.086781" />
      <path d="M -9.642714,-11.770933 Q -9.057397,-9.356411 -8.472081,-6.94189" />
      <path d="M -8.472081,-6.94189 Q -8.25707,-6.98601 -8.037609,-7.023292" />
      <path d="M -9.026767,-11.886336 Q -8.532188,-9.454814 -8.037609,-7.023292" />
      <path d="M -8.037609,-7.023292 Q -7.998204,-7.029562 -7.981618,-7.026389" />
      <path d="M -7.96935,-6.964601 C -7.955393,-6.902045 -7.866648,-6.835343 -7.749519,-6.759999" />
      <path d="M -8.618344,-11.513069 Q -8.183932,-9.136534 -7.749519,-6.759999" />
      <path d="M -7.749519,-6.759999 Q -7.492471,-6.792959 -7.232247,-6.817724" />
      <path d="M -7.885012,-11.594904 Q -7.55863,-9.206314 -7.232247,-6.817724" />
      <path d="M -7.033519,-12.066174 Q -6.832573,-9.608159 -6.631627,-7.150144" />
      <path d="M -6.631627,-7.150144 C -6.616646,-7.163166 -6.566512,-7.191889 -6.48006,-7.197105" />
      <path d="M -7.232247,-6.817724 C -7.101841,-6.886192 -6.983031,-6.948736 -6.875817,-7.005354 C -6.769526,-7.062261 -6.676805,-7.115141 -6.631627,-7.150144" />
      <path d="M -8.869095,0.832603 Q -9.079279,0.782232 -9.283598,0.725336" />
      <path d="M -9.283598,0.725336 C -9.361976,0.707737 -9.452988,0.851978 -9.485593,0.914799" />
      <path d="M -9.485593,0.914799 C -9.580649,1.090751 -9.726933,1.294994 -9.878312,1.479315 C -10.031386,1.66589 -10.187685,1.833649 -10.352675,2.00021" />
      <path d="M -10.352675,2.00021 Q -10.577875,1.926 -10.794521,1.844789" />
      <path d="M -12.086738,1.145212 Q -11.440629,1.495001 -10.794521,1.844789" />
      <path d="M -11.076738,0.139507 Q -10.850617,0.326845 -10.624496,0.514184" />
      <path d="M -10.624496,0.514184 C -10.600512,0.452466 -10.554675,0.30841 -10.603878,0.264136" />
      <path d="M -10.603878,0.264136 L -10.614031,0.25735" />
      <path d="M -10.794521,1.844789 C -10.803021,1.617202 -10.797712,1.396331 -10.771173,1.165247 C -10.745071,0.936858 -10.694846,0.698827 -10.624496,0.514184" />
      <path d="M -12.196013,-11.029295 Q -11.23456,-8.724027 -10.273107,-6.418759" />
      <path d="M -10.273107,-6.418759 Q -10.147734,-6.467505 -10.01885,-6.513568" />
      <path d="M -11.656725,-11.226296 Q -11.651171,-11.211596 -11.645616,-11.196896" />
      <path d="M -9.959993,-6.362914 Q -9.950212,-6.338259 -9.931181,-6.312057" />
      <path d="M -11.711268,-10.878025 Q -10.821225,-8.595041 -9.931181,-6.312057" />
      <path d="M -9.931181,-6.312057 Q -9.698792,-6.379587 -9.459382,-6.439643" />
      <path d="M -11.042402,-11.058902 Q -10.250892,-8.749272 -9.459382,-6.439643" />
      <path d="M -9.911312,-11.670208 Q -9.286427,-9.270525 -8.661542,-6.870841" />
      <path d="M -8.661542,-6.870841 C -8.63389,-6.886874 -8.554134,-6.924771 -8.472081,-6.94189" />
      <path d="M -9.459382,-6.439643 C -9.303232,-6.528352 -9.154871,-6.609766 -9.014299,-6.683887 C -8.874567,-6.758171 -8.742624,-6.82692 -8.661542,-6.870841" />
      <path d="M -10.614031,0.25735 Q -10.792753,0.179508 -10.962663,0.09618" />
      <path d="M -10.962663,0.09618 C -11.028818,0.068371 -11.141125,0.198251 -11.183461,0.25578" />
      <path d="M -11.183461,0.25578 C -11.30583,0.416374 -11.477767,0.598139 -11.64839,0.759717 C -11.820965,0.92329 -11.991026,1.067997 -12.166563,1.210506" />
      <path d="M -14.880349,-0.213353 Q -13.523456,0.498576 -12.166563,1.210506" />
      <path d="M -12.166563,1.210506 Q -12.348289,1.107552 -12.518376,0.999026" />
      <path d="M -15.379111,-0.513166 Q -13.948743,0.24293 -12.518376,0.999026" />
      <path d="M -12.511083,-0.611023 Q -12.30069,-0.450178 -12.090297,-0.289333" />
      <path d="M -12.090297,-0.289333 C -12.053683,-0.350301 -11.973912,-0.499739 -12.022002,-0.540605" />
      <path d="M -12.518376,0.999026 C -12.480978,0.773479 -12.431141,0.556504 -12.359318,0.332367 C -12.288445,0.110828 -12.192994,-0.116914 -12.090297,-0.289333" />
      <path d="M -14.304538,-9.958377 Q -14.303779,-9.957095 -14.30302,-9.955813" />
      <path d="M -14.392452,-9.835136 Q -13.107433,-7.705784 -11.822414,-5.576432" />
      <path d="M -11.822414,-5.576432 Q -11.630521,-5.673931 -11.428239,-5.765185" />
      <path d="M -13.833634,-10.102729 Q -12.630937,-7.933957 -11.428239,-5.765185" />
      <path d="M -12.50003,-10.888125 Q -11.493791,-8.603653 -10.487552,-6.319181" />
      <path d="M -10.487552,-6.319181 C -10.449114,-6.339882 -10.345169,-6.390755 -10.273107,-6.418759" />
      <path d="M -11.428239,-5.765185 C -11.256987,-5.877019 -11.089186,-5.980765 -10.924837,-6.076424 C -10.761185,-6.172137 -10.599011,-6.26166 -10.487552,-6.319181" />
      <path d="M -12.022002,-0.540605 Q -12.120426,-0.613472 -12.212972,-0.688541" />
      <path d="M -12.212972,-0.688541 L -12.281005,-0.744694" />
      <path d="M -12.281005,-0.744694 C -12.330428,-0.780666 -12.456376,-0.667615 -12.505559,-0.616551" />
      <path d="M -12.505559,-0.616551 C -12.646901,-0.474583 -12.832773,-0.318091 -13.011013,-0.181155 C -13.191328,-0.042508 -13.363562,0.078022 -13.537682,0.195833" />
      <path d="M -16.824173,-1.651845 Q -15.180928,-0.728006 -13.537682,0.195833" />
      <path d="M -13.537682,0.195833 Q -13.663551,0.071153 -13.775488,-0.057294" />
      <path d="M -17.161308,-2.010701 Q -15.468398,-1.033997 -13.775488,-0.057294" />
      <path d="M -13.477663,-1.552905 Q -13.298095,-1.410959 -13.118528,-1.269013" />
      <path d="M -13.118528,-1.269013 C -13.073212,-1.324193 -12.969257,-1.460654 -12.997057,-1.50688" />
      <path d="M -13.252171,-1.720169 Q -13.124614,-1.613524 -12.997057,-1.50688" />
      <path d="M -13.775488,-0.057294 C -13.694741,-0.274495 -13.603772,-0.481525 -13.491559,-0.692662 C -13.380745,-0.901368 -13.246573,-1.112891 -13.118528,-1.269013" />
      <path d="M -12.909957,-4.828106 Q -12.871283,-4.777643 -12.832609,-4.727181" />
      <path d="M -12.832609,-4.727181 Q -12.738722,-4.839947 -12.632675,-4.949567" />
      <path d="M -12.642278,-4.962764 Q -12.637477,-4.956166 -12.632675,-4.949567" />
      <path d="M -12.632675,-4.949567 Q -12.622024,-4.961167 -12.624657,-4.964094" />
      <path d="M -12.624657,-4.964094 C -12.631081,-4.972501 -12.698065,-4.940174 -12.731916,-4.921722" />
      <path d="M -12.731916,-4.921722 C -12.84996,-4.860101 -12.968333,-4.79785 -13.062616,-4.74533 C -13.156368,-4.693629 -13.233607,-4.646271 -13.294333,-4.603257" />
      <path d="M -16.479178,-8.455473 Q -14.886755,-6.529365 -13.294333,-4.603257" />
      <path d="M -13.294333,-4.603257 Q -13.185048,-4.698717 -13.067568,-4.791353" />
      <path d="M -13.067568,-4.791353 L -13.004645,-4.840313" />
      <path d="M -16.068491,-8.791546 Q -14.536568,-6.815929 -13.004645,-4.840313" />
      <path d="M -14.623255,-9.773221 Q -13.304235,-7.65299 -11.985216,-5.532759" />
      <path d="M -11.985216,-5.532759 C -11.955777,-5.549626 -11.898075,-5.581682 -11.844346,-5.612775" />
      <path d="M -13.004645,-4.840313 L -12.870115,-4.943513" />
      <path d="M -12.870115,-4.943513 C -12.718128,-5.057892 -12.56455,-5.166701 -12.409382,-5.269937 C -12.255658,-5.372314 -12.102064,-5.467575 -11.985216,-5.532759" />
      <path d="M -12.997057,-1.50688 Q -13.079292,-1.622236 -13.148781,-1.73998" />
      <path d="M -13.157665,-1.747534 Q -13.153223,-1.743757 -13.148781,-1.73998" />
      <path d="M -13.148781,-1.73998 L -13.152696,-1.744351" />
      <path d="M -13.152696,-1.744351 C -13.188563,-1.773942 -13.311131,-1.684913 -13.361787,-1.642744" />
      <path d="M -13.361787,-1.642744 C -13.512471,-1.521403 -13.699612,-1.391258 -13.873321,-1.279181 C -14.049088,-1.165685 -14.211757,-1.068811 -14.372595,-0.974659" />
      <path d="M -18.007822,-3.311242 Q -16.190209,-2.14295 -14.372595,-0.974659" />
      <path d="M -14.372595,-0.974659 Q -14.434028,-1.112568 -14.480187,-1.252182" />
      <path d="M -18.160354,-3.704684 Q -16.320271,-2.478433 -14.480187,-1.252182" />
      <path d="M -13.923619,-2.607174 Q -13.781368,-2.482632 -13.639116,-2.35809" />
      <path d="M -13.639116,-2.35809 C -13.588188,-2.406473 -13.467133,-2.527041 -13.472749,-2.575627" />
      <path d="M -13.677138,-2.764083 Q -13.574943,-2.669855 -13.472749,-2.575627" />
      <path d="M -14.480187,-1.252182 C -14.361594,-1.455304 -14.235692,-1.647015 -14.090737,-1.839988 C -13.947534,-2.030752 -13.783784,-2.221231 -13.639116,-2.35809" />
      <path d="M -13.558668,-3.826034 Q -13.487663,-3.750022 -13.416658,-3.674011" />
      <path d="M -13.416658,-3.674011 Q -13.38037,-3.795973 -13.330819,-3.916583" />
      <path d="M -13.34449,-3.931815 Q -13.337654,-3.924199 -13.330819,-3.916583" />
      <path d="M -13.330819,-3.916583 Q -13.327717,-3.925378 -13.331133,-3.928966" />
      <path d="M -13.331133,-3.928966 C -13.345524,-3.944422 -13.436479,-3.896666 -13.478958,-3.871264" />
      <path d="M -13.478958,-3.871264 C -13.617582,-3.791514 -13.769782,-3.710152 -13.900033,-3.641772 C -14.029973,-3.574271 -14.145505,-3.513297 -14.246628,-3.458851" />
      <path d="M -17.82924,-6.833059 Q -16.037934,-5.145955 -14.246628,-3.458851" />
      <path d="M -14.246628,-3.458851 Q -14.171307,-3.594764 -14.081169,-3.728055" />
      <path d="M -17.59467,-7.214708 Q -15.83792,-5.471382 -14.081169,-3.728055" />
      <path d="M -13.1549,-4.692591 Q -13.103686,-4.62888 -13.052471,-4.565168" />
      <path d="M -13.052471,-4.565168 C -13.000875,-4.598812 -12.870971,-4.683302 -12.832609,-4.727181" />
      <path d="M -14.081169,-3.728055 C -13.914957,-3.888403 -13.743128,-4.040974 -13.565681,-4.185768 C -13.388518,-4.330477 -13.200346,-4.470365 -13.052471,-4.565168" />
      <path d="M -13.472749,-2.575627 Q -13.496532,-2.698471 -13.506853,-2.821853" />
      <path d="M -13.520531,-2.83484 Q -13.513692,-2.828346 -13.506853,-2.821853" />
      <path d="M -13.506853,-2.821853 L -13.511097,-2.830659" />
      <path d="M -13.511097,-2.830659 C -13.535459,-2.853052 -13.645551,-2.786273 -13.693795,-2.752866" />
      <path d="M -13.693795,-2.752866 C -13.843552,-2.652746 -14.019208,-2.548227 -14.176549,-2.459533 C -14.333823,-2.371745 -14.479774,-2.292302 -14.614404,-2.221204" />
      <path d="M -18.350632,-5.078457 Q -16.482518,-3.64983 -14.614404,-2.221204" />
      <path d="M -14.614404,-2.221204 Q -14.607214,-2.362944 -14.584449,-2.504211" />
      <path d="M -18.308166,-5.479674 Q -16.446308,-3.991943 -14.584449,-2.504211" />
      <path d="M -13.81631,-3.685957 Q -13.716448,-3.584152 -13.616585,-3.482347" />
      <path d="M -13.616585,-3.482347 C -13.563515,-3.523384 -13.433609,-3.626226 -13.416658,-3.674011" />
      <path d="M -14.584449,-2.504211 C -14.436092,-2.688477 -14.283838,-2.860541 -14.116019,-3.031422 C -13.950185,-3.200357 -13.768017,-3.366403 -13.616585,-3.482347" />
      <path d="M 0.683095,-5.480453 Q 0.510504,-5.569425 0.331049,-5.64708" />
      <path d="M 0.421495,-0.357694 Q 0.256012,-0.585846 0.083946,-0.808215" />
      <path d="M -1.065799,0.397702 Q -1.190875,0.149027 -1.320926,-0.094682" />
      <path d="M -2.866826,0.920832 Q -2.94297,0.657945 -3.022142,0.399458" />
      <path d="M -4.858846,1.176047 Q -4.88087,0.906226 -4.903769,0.640529" />
      <path d="M -6.906109,1.145954 Q -6.87251,0.87695 -6.837575,0.612104" />
      <path d="M -8.869095,0.832603 Q -8.782164,0.572113 -8.691776,0.316118" />
      <path d="M -10.614031,0.25735 Q -10.479692,0.012488 -10.340011,-0.227256" />
      <path d="M -12.022002,-0.540605 Q -11.849411,-0.763786 -11.669955,-0.980989" />
      <path d="M -12.997057,-1.50688 Q -12.797975,-1.703809 -12.590975,-1.893715" />
      <path d="M -12.832609,-4.727181 Q -12.637994,-4.836618 -12.435639,-4.935553" />
      <path d="M -13.472749,-2.575627 Q -13.260742,-2.74352 -13.040304,-2.903234" />
      <path d="M -13.416658,-3.674011 Q -13.206176,-3.812062 -12.987322,-3.940748" />
      <path d="M 7.986842,-5.455786 Q 7.870026,-5.614917 7.749642,-5.771157 Q 7.485842,-6.113813 7.20373,-6.441653 Q 6.89568,-6.798534 6.568429,-7.138259 Q 6.399302,-7.314321 6.224987,-7.485663" />
      <path d="M 6.822261,16.106446 Q 7.092103,15.813046 7.348247,15.506959" />
      <path d="M 2.733575,3.507787 L 2.707569,3.511227" />
      <path d="M 2.930859,7.044469 L 2.32673,6.874119" />
      <path d="M 7.061929,2.129323 L 3.31091,2.862964" />
      <path d="M 7.22791,6.952623 L 3.427988,6.265185" />
      <path d="M 1.116014,-10.93559 Q 1.555085,-10.743538 1.981936,-10.528917 Q 2.454785,-10.291735 2.911303,-10.024383 Q 3.283133,-9.8061 3.642503,-9.568728 Q 3.749912,-9.496702 3.85732,-9.424675" />
      <path d="M 0.512363,-11.185179 Q 0.81312,-11.067929 1.109261,-10.938548" />
      <path d="M -11.877763,-11.174891 Q -12.070449,-11.099214 -12.261109,-11.018955 Q -12.531001,-10.905431 -12.796752,-10.783317 Q -13.149078,-10.62153 -13.492902,-10.442338 Q -13.757649,-10.304148 -14.017045,-10.156613" />
      <path d="M -16.158529,-8.721511 L -15.915248,-8.90952" />
      <path d="M -1.167201,-11.496333 L -2.49369,-6.748195" />
      <path d="M -6.895387,1.575601 L -6.534193,2.472384" />
      <path d="M -8.929997,-11.80313 L -7.96935,-6.964601" />
      <path d="M -11.752114,-10.950124 L -9.959993,-6.362914" />
      <path d="M -12.28599,-0.747772 L -12.212972,-0.688541" />
      <path d="M -0.350777,-6.104725 L -0.333738,-6.096254" />
    </g>
  </g>
</svg>