<?xml version='1.0' encoding='utf-8'?>
<svg width="89.043675mm" height="100.090001mm" viewBox="-18.364061 -17.633332 26.609964 29.911067" version="1.1" xmlns="http://www.w3.org/2000/svg">
  <g transform="scale(1,-1)" stroke-linecap="round">
    <g fill="none" stroke="rgb(0,0,0)" stroke-width="0.026895753844369086" id="Visible">
      <path d="M 5.879639,-7.587701 L 5.893259,-7.576783" />
      <path d="M 6.246626,-7.463989 Q 6.1256,-7.583326 6.005706,-7.69539" />
      <path d="M 6.005706,-7.69539 Q 6.022933,-7.673155 6.039396,-7.6289" />
      <path d="M 6.039396,-7.6289 C 6.474623,-7.196205 6.918624,-6.700924 7.334095,-6.201532" />
      <path d="M 7.334095,-6.201532 C 7.359991,-6.170707 7.390571,-6.133398 7.425836,-6.089606 C 7.487299,-6.01306 7.554727,-5.924879 7.560414,-5.906592" />
      <path d="M 7.560414,-5.906592 Q 7.573851,-5.844916 7.586524,-5.764635" />
      <path d="M 7.586524,-5.764635 L 7.585831,-5.762039" />
      <path d="M 7.585831,-5.762039 C 7.571657,-5.756736 7.440112,-5.903245 7.37603,-5.973539" />
      <path d="M 7.37603,-5.973539 C 6.970303,-6.41996 6.550738,-6.782373 6.142329,-7.069265" />
      <path d="M 6.142329,-7.069265 Q 6.155752,-6.95103 6.16818,-6.812034" />
      <path d="M 6.16818,-6.812034 C 6.59628,-6.329223 7.032867,-5.797406 7.442665,-5.310498" />
      <path d="M 7.442665,-5.310498 C 7.468227,-5.28088 7.498362,-5.243938 7.53307,-5.199672 C 7.593547,-5.121877 7.65968,-5.027977 7.664403,-4.989706" />
      <path d="M 7.664403,-4.989706 Q 7.674103,-4.847375 7.682866,-4.688149" />
      <path d="M 7.682866,-4.688149 Q 7.682929,-4.679239 7.678455,-4.676244" />
      <path d="M 7.678455,-4.676244 C 7.650851,-4.66106 7.532594,-4.769666 7.472317,-4.826176" />
      <path d="M 7.472317,-4.826176 C 7.06941,-5.200562 6.650101,-5.450128 6.240965,-5.623213" />
      <path d="M 6.240965,-5.623213 Q 6.24967,-5.417035 6.257216,-5.19277" />
      <path d="M 6.257216,-5.19277 C 6.553255,-4.839119 6.852588,-4.476324 7.145537,-4.133497 C 7.270403,-3.986882 7.393293,-3.847937 7.514205,-3.716664" />
      <path d="M 7.514205,-3.716664 C 7.580879,-3.645947 7.72406,-3.479566 7.731823,-3.391407" />
      <path d="M 7.731823,-3.391407 Q 7.737124,-3.178122 7.74138,-2.950802" />
      <path d="M 7.74138,-2.950802 Q 7.740791,-2.92869 7.727983,-2.922021" />
      <path d="M 7.727983,-2.922021 C 7.688196,-2.901812 7.585077,-2.969478 7.529554,-3.00902" />
      <path d="M 7.529554,-3.00902 C 7.127656,-3.286748 6.70659,-3.40739 6.294892,-3.455779" />
      <path d="M 6.294892,-3.455779 Q 6.298285,-3.175709 6.300435,-2.881458" />
      <path d="M 6.300435,-2.881458 C 6.592508,-2.538035 6.888148,-2.196 7.178219,-1.889314 C 7.301847,-1.757964 7.423721,-1.637742 7.543842,-1.528647" />
      <path d="M 7.543842,-1.528647 C 7.610106,-1.470329 7.75217,-1.329105 7.758078,-1.220618" />
      <path d="M 7.758078,-1.220618 Q 7.758619,-0.950912 7.758078,-0.67099" />
      <path d="M 7.758078,-0.67099 Q 7.755105,-0.62534 7.72259,-0.614621" />
      <path d="M 7.72259,-0.614621 C 7.673679,-0.596141 7.591606,-0.6249 7.543842,-0.645906" />
      <path d="M 7.543842,-0.645906 C 7.141071,-0.808941 6.716354,-0.793371 6.300435,-0.71467" />
      <path d="M 6.300435,-0.71467 Q 6.298285,-0.379795 6.294892,-0.035611" />
      <path d="M 6.294892,-0.035611 C 6.583963,0.274818 6.877004,0.573429 7.165396,0.823713 C 7.288297,0.931119 7.409683,1.024695 7.529554,1.104442" />
      <path d="M 7.529554,1.104442 C 7.595706,1.146535 7.737313,1.253292 7.74138,1.374727" />
      <path d="M 7.74138,1.374727 Q 7.737124,1.682473 7.731823,1.995921" />
      <path d="M 7.731823,1.995921 C 7.728937,2.064046 7.677912,2.090938 7.625888,2.100839" />
      <path d="M 7.625888,2.100839 Q 7.562193,2.110219 7.514205,2.102124" />
      <path d="M 7.514205,2.102124 Q 7.292859,2.081122 7.063486,2.128869" />
      <path d="M 7.063486,2.128869 C 6.796837,2.181637 6.525667,2.283889 6.257216,2.413311" />
      <path d="M 6.257216,2.413311 Q 6.24967,2.78017 6.240965,3.150832" />
      <path d="M 6.240965,3.150832 C 6.528204,3.407746 6.819916,3.643232 7.107942,3.820696 C 7.230677,3.89711 7.352136,3.957933 7.472317,4.003163" />
      <path d="M 7.472317,4.003163 C 7.53866,4.026309 7.6805,4.091639 7.682866,4.217759" />
      <path d="M 7.682866,4.217759 L 7.664403,4.868186" />
      <path d="M 7.664403,4.868186 C 7.654912,4.993599 7.510002,5.035408 7.442665,5.047795" />
      <path d="M 7.442665,5.047795 C 7.319751,5.073604 7.194648,5.115419 7.067356,5.17324 C 6.771231,5.305908 6.46813,5.498219 6.16818,5.714998" />
      <path d="M 6.16818,5.714998 L 6.142329,6.46072" />
      <path d="M 6.142329,6.46072 C 6.500409,6.692287 6.866418,6.883608 7.225025,6.951919" />
      <path d="M 7.225025,6.951919 Q 7.300923,6.965826 7.37603,6.969973" />
      <path d="M 7.37603,6.969973 Q 7.401004,6.970316 7.43399,6.975908" />
      <path d="M 7.43399,6.975908 C 7.501335,6.988486 7.586933,7.021167 7.586524,7.114729" />
      <path d="M 7.586524,7.114729 Q 7.573851,7.434475 7.560414,7.750064" />
      <path d="M 7.560414,7.750064 C 7.549411,7.873533 7.402334,7.958429 7.334095,7.990365" />
      <path d="M 7.334095,7.990365 C 7.209489,8.052072 7.082545,8.128335 6.953262,8.219154 C 6.652526,8.428666 6.34437,8.689373 6.039396,8.965386" />
      <path d="M 6.039396,8.965386 Q 6.022933,9.320736 6.005706,9.66849" />
      <path d="M 6.005706,9.66849 C 6.415273,9.813593 6.837087,9.900215 7.247255,9.802689" />
      <path d="M 7.247255,9.802689 C 7.291693,9.790426 7.364845,9.777112 7.413491,9.796061" />
      <path d="M 7.413491,9.796061 Q 7.457482,9.810295 7.45892,9.868215" />
      <path d="M 7.45892,9.868215 Q 7.443201,10.161103 7.426942,10.44516" />
      <path d="M 7.426942,10.44516 C 7.41476,10.558259 7.265197,10.68014 7.195896,10.729303" />
      <path d="M 7.195896,10.729303 C 7.069309,10.822436 6.940289,10.927679 6.808837,11.045033 C 6.503068,11.316473 6.189671,11.627164 5.879639,11.942967" />
      <path d="M 5.879639,11.942967 Q 5.860263,12.255607 5.840406,12.555536" />
      <path d="M 5.840406,12.555536 C 6.252936,12.574626 6.678843,12.524658 7.094769,12.308266" />
      <path d="M 7.094769,12.308266 C 7.150179,12.278113 7.250407,12.229936 7.292467,12.253043" />
      <path d="M 7.292467,12.253043 Q 7.309419,12.262164 7.308749,12.290571" />
      <path d="M 7.308749,12.290571 Q 7.291055,12.536641 7.273082,12.769808" />
      <path d="M 7.273082,12.769808 C 7.260136,12.864816 7.107936,13.015062 7.037485,13.077955" />
      <path d="M 7.037485,13.077955 C 6.908764,13.195898 6.777576,13.322679 6.643923,13.458296 C 6.333044,13.77253 6.014576,14.111385 5.699797,14.444823" />
      <path d="M 5.699797,14.444823 Q 5.678828,14.693447 5.657695,14.925113" />
      <path d="M 5.657695,14.925113 C 6.074791,14.817794 6.506354,14.635571 6.928962,14.315953" />
      <path d="M 6.928962,14.315953 C 6.990847,14.268454 7.10998,14.180398 7.140659,14.199764" />
      <path d="M 7.140659,14.199764 Q 7.146942,14.204249 7.146246,14.216717" />
      <path d="M 7.146246,14.216717 Q 7.127783,14.3992 7.109321,14.565587" />
      <path d="M 7.109321,14.565587 C 7.096076,14.636017 6.94127,14.804074 6.869658,14.876263" />
      <path d="M 6.869658,14.876263 C 6.433273,15.326057 5.967147,15.834818 5.512125,16.300458" />
      <path d="M 5.512125,16.300458 Q 5.490993,16.468123 5.470023,16.615737" />
      <path d="M 5.470023,16.615737 C 5.892978,16.390227 6.331375,16.089101 6.761134,15.688929" />
      <path d="M 6.761134,15.688929 C 6.827925,15.626717 6.963041,15.500238 6.981255,15.510382" />
      <path d="M 6.981255,15.510382 L 6.982484,15.515389" />
      <path d="M 6.982484,15.515389 Q 6.964511,15.621849 6.946817,15.710118" />
      <path d="M 6.946817,15.710118 C 6.942616,15.726316 6.906843,15.772691 6.864889,15.822451 C 6.811461,15.885901 6.745436,15.957771 6.703851,16.001677" />
      <path d="M 6.703851,16.001677 C 6.260784,16.474508 5.789001,16.957899 5.329414,17.383412" />
      <path d="M 5.329414,17.383412 Q 5.309558,17.458692 5.290181,17.512195" />
      <path d="M 5.290181,17.512195 C 5.719887,17.184768 6.16583,16.786192 6.602723,16.333628" />
      <path d="M 6.602723,16.333628 C 6.630113,16.305276 6.662072,16.271998 6.698598,16.233794 C 6.760833,16.168748 6.8273,16.098082 6.828673,16.097948" />
      <path d="M 6.828673,16.097948 L 6.828625,16.098086" />
      <path d="M 6.828625,16.098086 L 6.818965,16.110229" />
      <path d="M 6.818965,16.110229 L 6.805441,16.121624" />
      <path d="M 5.690999,17.189995 Q 5.426607,17.418036 5.164114,17.619884" />
      <path d="M 7.986697,-5.455853 A 10.505820880163135,0.5026392042950761 91.74505037786531 0,1 7.348029,15.507236" />
      <line x1="2.351017" y1="-3.359729" x2="2.350105" y2="-3.358822" />
      <path d="M 2.335285,-3.251164 L 2.350105,-3.358822" />
      <path d="M 2.320407,-3.136433 L 2.335285,-3.251164" />
      <path d="M 2.350105,-3.358822 Q 2.700298,-3.165299 3.046224,-2.875833" />
      <path d="M 2.6793,-3.642336 Q 2.563203,-3.774891 2.449287,-3.900319" />
      <line x1="5.879639" y1="-7.587701" x2="2.476961" y2="-3.991158" />
      <path d="M 2.449287,-3.900319 Q 2.463293,-3.953419 2.476961,-3.991158" />
      <path d="M 2.476961,-3.991158 Q 2.62573,-3.872215 2.775876,-3.737905" />
      <line x1="6.005706" y1="-7.69539" x2="2.565885" y2="-4.06712" />
      <line x1="6.039396" y1="-7.6289" x2="2.589649" y2="-4.020219" />
      <path d="M 2.565885,-4.06712 Q 2.578036,-4.051435 2.589649,-4.020219" />
      <line x1="7.334095" y1="-6.201532" x2="7.23813" y2="-6.121675" />
      <path d="M 2.589649,-4.020219 Q 2.704961,-3.905265 2.821329,-3.782884" />
      <line x1="7.560414" y1="-5.906592" x2="7.48954" y2="-5.850203" />
      <line x1="7.586524" y1="-5.764635" x2="7.583108" y2="-5.761958" />
      <line x1="6.142329" y1="-7.069265" x2="2.662255" y2="-3.625469" />
      <line x1="6.16818" y1="-6.812034" x2="2.68049" y2="-3.444025" />
      <path d="M 2.662255,-3.625469 Q 2.671723,-3.542069 2.68049,-3.444025" />
      <line x1="7.442665" y1="-5.310498" x2="7.155883" y2="-5.093316" />
      <path d="M 2.68049,-3.444025 Q 2.898229,-3.196943 3.117121,-2.936802" />
      <line x1="7.664403" y1="-4.989706" x2="7.457129" y2="-4.840332" />
      <line x1="7.682866" y1="-4.688149" x2="7.66475" y2="-4.675521" />
      <line x1="6.240965" y1="-5.623213" x2="2.73183" y2="-2.605463" />
      <line x1="6.257216" y1="-5.19277" x2="2.743293" y2="-2.301841" />
      <path d="M 2.73183,-2.605463 Q 2.73797,-2.460031 2.743293,-2.301841" />
      <line x1="7.514205" y1="-3.716664" x2="6.894885" y2="-3.325066" />
      <path d="M 2.743293,-2.301841 C 2.964393,-2.037833 3.191051,-1.76256 3.409631,-1.508414" />
      <line x1="7.731823" y1="-3.391407" x2="7.315204" y2="-3.142368" />
      <line x1="7.74138" y1="-2.950802" x2="7.688971" y2="-2.921218" />
      <line x1="6.294892" y1="-3.455779" x2="2.769869" y2="-1.076616" />
      <line x1="6.300435" y1="-2.881458" x2="2.773778" y2="-0.671506" />
      <path d="M 2.769869,-1.076616 Q 2.772262,-0.879062 2.773778,-0.671506" />
      <line x1="7.543842" y1="-1.528647" x2="3.650843" y2="0.282729" />
      <path d="M 2.773778,-0.671506 C 3.066241,-0.329665 3.370571,0.027035 3.650843,0.282729" />
      <line x1="7.758078" y1="-1.220618" x2="6.717288" y2="-0.76795" />
      <path d="M 3.650843,0.282729 C 3.681021,0.30906 3.733159,0.36008 3.768087,0.4138" />
      <line x1="7.758078" y1="-0.67099" x2="7.623194" y2="-0.617847" />
      <line x1="6.300435" y1="-0.71467" x2="2.773778" y2="0.856886" />
      <line x1="6.294892" y1="-0.035611" x2="2.769869" y2="1.335876" />
      <path d="M 2.773778,0.856886 Q 2.772262,1.093098 2.769869,1.335876" />
      <line x1="7.529554" y1="1.104442" x2="3.640765" y2="2.140037" />
      <path d="M 2.769869,1.335876 C 3.059355,1.644575 3.361088,1.952844 3.640765,2.140037" />
      <line x1="7.74138" y1="1.374727" x2="3.790181" y2="2.330689" />
      <path d="M 3.640765,2.140037 C 3.686792,2.168921 3.788244,2.246411 3.790181,2.330689" />
      <line x1="7.731823" y1="1.995921" x2="3.78344" y2="2.768862" />
      <path d="M 3.790181,2.330689 Q 3.787179,2.547764 3.78344,2.768862" />
      <path d="M 3.78344,2.768862 L 3.783366,2.770445" />
      <line x1="6.257216" y1="2.413311" x2="2.743293" y2="3.063277" />
      <path d="M 3.312013,2.86264 Q 3.027913,2.922669 2.743293,3.063277" />
      <line x1="6.240965" y1="3.150832" x2="2.73183" y2="3.583504" />
      <path d="M 2.743293,3.063277 L 2.73183,3.583504" />
      <line x1="7.472317" y1="4.003163" x2="3.600391" y2="4.184715" />
      <path d="M 2.73183,3.583504 C 3.019507,3.838661 3.320001,4.07816 3.600391,4.184715" />
      <line x1="7.682866" y1="4.217759" x2="3.748907" y2="4.336084" />
      <path d="M 3.600391,4.184715 C 3.646557,4.2004 3.748162,4.248265 3.748907,4.336084" />
      <line x1="7.664403" y1="4.868186" x2="3.735884" y2="4.794877" />
      <path d="M 3.748907,4.336084 L 3.735884,4.794877" />
      <line x1="7.442665" y1="5.047795" x2="3.579476" y2="4.921569" />
      <path d="M 3.735884,4.794877 C 3.730171,4.882355 3.626317,4.913363 3.579476,4.921569" />
      <line x1="6.16818" y1="5.714998" x2="2.68049" y2="5.392195" />
      <path d="M 3.579476,4.921569 C 3.294335,4.982368 2.981528,5.176646 2.68049,5.392195" />
      <line x1="6.142329" y1="6.46072" x2="2.662255" y2="5.918207" />
      <path d="M 2.68049,5.392195 L 2.662255,5.918207" />
      <path d="M 2.662255,5.918207 C 2.913729,6.081092 3.174882,6.217217 3.425959,6.264685" />
      <line x1="7.586524" y1="7.114729" x2="3.68095" y2="6.379527" />
      <path d="M 3.634381,6.302388 Q 3.678001,6.323822 3.68095,6.379527" />
      <line x1="7.560414" y1="7.750064" x2="3.662533" y2="6.827674" />
      <path d="M 3.68095,6.379527 L 3.662533,6.827674" />
      <line x1="7.334095" y1="7.990365" x2="3.502894" y2="6.997176" />
      <path d="M 3.662533,6.827674 C 3.655776,6.913518 3.550357,6.97536 3.502894,6.997176" />
      <line x1="6.039396" y1="8.965386" x2="2.589649" y2="7.684928" />
      <path d="M 3.502894,6.997176 C 3.213811,7.141371 2.895702,7.410007 2.589649,7.684928" />
      <line x1="6.005706" y1="9.66849" x2="2.565885" y2="8.180878" />
      <path d="M 2.589649,7.684928 Q 2.578036,7.935582 2.565885,8.180878" />
      <line x1="7.45892" y1="9.868215" x2="7.27691" y2="9.795446" />
      <line x1="7.426942" y1="10.44516" x2="3.568385" y2="8.72872" />
      <path d="M 3.574714,8.617164 L 3.568385,8.72872" />
      <line x1="7.195896" y1="10.729303" x2="3.405412" y2="8.929146" />
      <path d="M 3.568385,8.72872 C 3.560819,8.807073 3.453611,8.895309 3.405412,8.929146" />
      <line x1="5.879639" y1="11.942967" x2="2.476961" y2="9.785231" />
      <path d="M 3.405412,8.929146 C 3.111719,9.14629 2.788066,9.470309 2.476961,9.785231" />
      <line x1="5.840406" y1="12.555536" x2="2.449287" y2="10.217321" />
      <path d="M 2.476961,9.785231 Q 2.463293,10.005759 2.449287,10.217321" />
      <line x1="7.308749" y1="12.290571" x2="7.239311" y2="12.249527" />
      <line x1="7.273082" y1="12.769808" x2="6.761363" y2="12.447557" />
      <line x1="7.037485" y1="13.077955" x2="6.243123" y2="12.549173" />
      <line x1="5.699797" y1="14.444823" x2="2.350105" y2="11.549971" />
      <path d="M 3.162545,10.70912 C 2.899637,10.965025 2.620637,11.263977 2.350105,11.549971" />
      <line x1="5.657695" y1="14.925113" x2="2.320407" y2="11.888754" />
      <path d="M 2.350105,11.549971 Q 2.335314,11.725344 2.320407,11.888754" />
      <line x1="7.146246" y1="14.216717" x2="7.120786" y2="14.197651" />
      <line x1="7.109321" y1="14.565587" x2="6.857142" y2="14.369306" />
      <line x1="6.869658" y1="14.876263" x2="6.514915" y2="14.586086" />
      <line x1="5.512125" y1="16.300458" x2="2.217727" y2="12.858884" />
      <path d="M 2.760948,12.28957 Q 2.488826,12.57924 2.217727,12.858884" />
      <line x1="5.470023" y1="16.615737" x2="2.188029" y2="13.081273" />
      <path d="M 2.217727,12.858884 Q 2.20282,12.97715 2.188029,13.081273" />
      <line x1="6.982484" y1="15.515389" x2="6.975985" y2="15.509792" />
      <line x1="6.946817" y1="15.710118" x2="6.839995" y2="15.616212" />
      <line x1="6.703851" y1="16.001677" x2="6.559702" y2="15.869073" />
      <line x1="5.329414" y1="17.383412" x2="2.088847" y2="13.62277" />
      <path d="M 2.407693,13.317835 Q 2.247278,13.475549 2.088847,13.62277" />
      <line x1="5.290181" y1="17.512195" x2="2.061173" y2="13.713609" />
      <path d="M 2.088847,13.62277 Q 2.074841,13.67587 2.061173,13.713609" />
      <line x1="6.828625" y1="16.098086" x2="6.828539" y2="16.098007" />
      <line x1="5.164114" y1="17.619884" x2="1.97225" y2="13.78957" />
      <path d="M 2.064508,13.717532 L 1.97225,13.78957" />
      <path d="M 1.97225,13.78957 Q 1.960098,13.773886 1.948485,13.74267" />
      <path d="M 1.948485,13.74267 Q 2.16948,13.536347 2.396817,13.306122" />
      <line x1="2.096202" y1="13.602792" x2="1.875879" y2="13.347919" />
      <path d="M 2.231983,13.128608 Q 2.052479,13.24927 1.875879,13.347919" />
      <path d="M 1.875879,13.347919 Q 1.866411,13.26452 1.857645,13.166476" />
      <path d="M 1.857645,13.166476 C 2.140397,12.875391 2.437383,12.553868 2.723613,12.255602" />
      <line x1="2.235694" y1="12.770675" x2="1.806304" y2="12.327914" />
      <path d="M 2.478258,12.032371 Q 2.140409,12.225694 1.806304,12.327914" />
      <path d="M 1.806304,12.327914 Q 1.800164,12.182482 1.794841,12.024292" />
      <path d="M 1.794841,12.024292 C 2.11165,11.69065 2.446839,11.328761 2.762478,11.03958" />
      <path d="M 2.762478,11.03958 C 2.814357,10.993665 2.929188,10.880389 2.931294,10.819974" />
      <path d="M 2.931294,10.819974 Q 2.92798,10.686642 2.925245,10.545499" />
      <line x1="2.927677" y1="10.664196" x2="2.751651" y2="10.540428" />
      <path d="M 2.850217,10.493767 C 2.815632,10.505518 2.77676,10.525863 2.751651,10.540428" />
      <line x1="2.436698" y1="11.354441" x2="1.768266" y2="10.799066" />
      <path d="M 2.751651,10.540428 C 2.433554,10.716241 2.091991,10.784286 1.768266,10.799066" />
      <path d="M 1.768266,10.799066 Q 1.765872,10.601513 1.764356,10.393957" />
      <path d="M 1.764356,10.393957 C 2.085104,10.070798 2.42407,9.733697 2.741573,9.496215" />
      <path d="M 2.741573,9.496215 C 2.793731,9.458992 2.909377,9.363557 2.912774,9.288759" />
      <path d="M 2.912774,9.288759 Q 2.912393,9.098516 2.912774,8.901067" />
      <line x1="2.912677" y1="8.960096" x2="2.741573" y2="8.873553" />
      <path d="M 2.912774,8.901067 Q 2.910994,8.871496 2.888657,8.861534" />
      <path d="M 2.888657,8.861534 C 2.850512,8.84302 2.780113,8.860739 2.741573,8.873553" />
      <line x1="2.794985" y1="9.454262" x2="1.764356" y2="8.865565" />
      <path d="M 2.741573,8.873553 C 2.424071,8.969617 2.085105,8.940165 1.764356,8.865565" />
      <path d="M 1.764356,8.865565 Q 1.765872,8.629353 1.768266,8.386575" />
      <path d="M 1.768266,8.386575 C 2.037168,8.14444 2.31719,7.908476 2.587345,7.734499" />
      <path d="M 2.925453,7.394059 L 2.931294,7.019902" />
      <line x1="2.917301" y1="6.977692" x2="2.762478" y2="6.93517" />
      <path d="M 2.931294,7.019902 C 2.930919,6.975475 2.896694,6.953574 2.858596,6.943208" />
      <path d="M 2.858596,6.943208 Q 2.803758,6.931054 2.762478,6.93517" />
      <path d="M 2.762478,6.93517 Q 2.549331,6.939959 2.329017,6.874761" />
      <path d="M 2.329017,6.874761 Q 2.058506,6.795884 1.794841,6.659174" />
      <path d="M 1.794841,6.659174 L 1.806304,6.138947" />
      <path d="M 1.806304,6.138947 C 2.091549,5.930728 2.388907,5.739585 2.672346,5.632491" />
      <path d="M 2.97299,5.194743 L 2.97885,4.993887" />
      <path d="M 2.97885,4.993887 C 2.977962,4.906207 2.864351,4.868574 2.812941,4.857375" />
      <path d="M 2.812941,4.857375 C 2.500308,4.778364 2.169818,4.564488 1.857645,4.330256" />
      <path d="M 1.857645,4.330256 L 1.875879,3.804244" />
      <path d="M 1.875879,3.804244 C 2.149511,3.663684 2.433517,3.549103 2.704967,3.511605" />
      <path d="M 2.704967,3.511605 L 2.733584,3.508143" />
      <path d="M 3.049131,2.935302 C 3.029396,2.861118 2.935465,2.804227 2.889522,2.781768" />
      <path d="M 2.889522,2.781768 C 2.580831,2.619361 2.255644,2.331126 1.948485,2.037522" />
      <line x1="2.770965" y1="1.219879" x2="1.97225" y2="1.541573" />
      <path d="M 1.948485,2.037522 Q 1.960098,1.786869 1.97225,1.541573" />
      <path d="M 1.97225,1.541573 C 2.286989,1.460091 2.615968,1.419754 2.920175,1.495013" />
      <path d="M 2.915814,0.793592 C 2.632964,0.559444 2.339912,0.245773 2.061173,-0.06278" />
      <line x1="2.3785" y1="-0.685808" x2="2.088847" y2="-0.49487" />
      <path d="M 2.061173,-0.06278 Q 2.074841,-0.283308 2.088847,-0.49487" />
      <line x1="3.10377" y1="-0.28938" x2="3.058337" y2="-0.263959" />
      <path d="M 2.088847,-0.49487 C 2.412019,-0.490182 2.750043,-0.433538 3.058337,-0.263959" />
      <path d="M 3.058337,-0.263959 C 3.086181,-0.247779 3.131495,-0.224615 3.16882,-0.216072" />
      <path d="M 2.81241,-1.105329 C 2.603063,-1.336084 2.391879,-1.585142 2.188029,-1.82752" />
      <line x1="2.308382" y1="-2.244298" x2="2.217727" y2="-2.166303" />
      <path d="M 2.188029,-1.82752 Q 2.20282,-2.002893 2.217727,-2.166303" />
      <line x1="3.203435" y1="-1.700169" x2="3.175292" y2="-1.680125" />
      <path d="M 2.217727,-2.166303 C 2.537694,-2.072686 2.871654,-1.921439 3.175292,-1.680125" />
      <path d="M 3.175292,-1.680125 C 3.220092,-1.643875 3.312211,-1.573226 3.338514,-1.589634" />
      <path d="M 3.338514,-1.589634 L 3.339419,-1.590323" />
      <path d="M 2.750765,-2.621747 Q 2.532758,-2.883713 2.320407,-3.136433" />
      <path d="M 3.296407,9.012795 A 7.410513719207065,0.35454770852538514 91.74505037786531 0,1 3.297042,8.49708" />
      <path d="M 3.310832,7.107175 A 7.410513719207065,0.35454770852538514 91.74505037786531 0,1 3.32692,6.24193" />
      <path d="M 3.359145,4.991007 A 7.410513719207065,0.35454770852538514 91.74505037786531 0,1 3.38891,4.08313" />
      <path d="M 3.438667,2.837867 A 7.410513719207065,0.35454770852538514 91.74505037786531 0,1 3.477441,2.020131" />
      <path d="M 3.5649,0.504345 A 7.410513719207065,0.35454770852538514 91.74505037786531 0,1 3.584058,0.220924" />
      <path d="M -2.59089,1.294179 Q -2.649119,1.512638 -2.720541,1.726326" />
      <path d="M -6.89267,1.582579 Q -6.982591,1.359939 -7.056867,1.132214" />
      <path d="M -14.880328,-0.213368 Q -15.137959,-0.359324 -15.37909,-0.513182" />
      <path d="M -15.37909,-0.513182 Q -15.35486,-0.660788 -15.324081,-0.808513" />
      <path d="M -16.824153,-1.65186 Q -17.002596,-1.828618 -17.161288,-2.010716" />
      <path d="M -17.161288,-2.010716 Q -17.050027,-2.311324 -16.911467,-2.606574" />
      <path d="M -18.007802,-3.311256 Q -18.094895,-3.506769 -18.160335,-3.704699" />
      <path d="M -18.160335,-3.704699 Q -17.91595,-4.124656 -17.621367,-4.520786" />
      <path d="M -18.350613,-5.078471 Q -18.340421,-5.279416 -18.308147,-5.479688" />
      <path d="M -18.308147,-5.479688 C -18.034022,-5.81959 -17.734492,-6.149491 -17.419954,-6.447613" />
      <path d="M -17.829221,-6.833072 Q -17.722439,-7.025755 -17.594652,-7.214722" />
      <path d="M -17.594652,-7.214722 C -17.189916,-7.60389 -16.751534,-7.974049 -16.327497,-8.272043" />
      <path d="M -16.479161,-8.455487 Q -16.314645,-8.599192 -16.137054,-8.73836" />
      <path d="M -16.137054,-8.73836 L -16.068473,-8.791559" />
      <path d="M -16.068473,-8.791559 L -15.883829,-8.932979" />
      <path d="M -15.883829,-8.932979 C -15.454072,-9.257391 -15.003883,-9.557506 -14.623237,-9.773235" />
      <path d="M -14.623237,-9.773235 C -14.553424,-9.813255 -14.38923,-9.903581 -14.304165,-9.958625" />
      <path d="M -14.304165,-9.958625 L -14.290941,-9.967348" />
      <path d="M -14.01336,-10.15828 C -14.238866,-10.031257 -14.34712,-9.932923 -14.392435,-9.835149" />
      <path d="M -14.392435,-9.835149 Q -14.12039,-9.973372 -13.833617,-10.102742" />
      <path d="M -13.833617,-10.102742 C -13.496852,-10.322559 -13.160338,-10.525238 -12.857284,-10.694521 C -12.727496,-10.766921 -12.608405,-10.83146 -12.500012,-10.888139" />
      <path d="M -12.500012,-10.888139 C -12.442067,-10.919135 -12.301764,-10.987953 -12.19554,-11.029486" />
      <path d="M -12.19554,-11.029486 Q -11.931727,-11.132046 -11.65718,-11.226148" />
      <path d="M -11.65718,-11.226148 Q -11.595621,-11.246492 -11.597149,-11.238479" />
      <path d="M -11.597149,-11.238479 C -11.595155,-11.232816 -11.617759,-11.216029 -11.635368,-11.203991" />
      <path d="M -11.635368,-11.203991 C -11.766003,-11.11165 -11.78235,-11.033043 -11.751576,-10.948753" />
      <path d="M -11.751576,-10.948753 Q -11.737743,-10.913644 -11.711251,-10.878038" />
      <path d="M -11.711251,-10.878038 Q -11.381796,-10.973775 -11.042385,-11.058916" />
      <path d="M -11.042385,-11.058916 C -10.73592,-11.233299 -10.440191,-11.39132 -10.191252,-11.521615 C -10.084429,-11.577301 -9.99111,-11.626837 -9.911295,-11.670222" />
      <path d="M -9.911295,-11.670222 C -9.869167,-11.69415 -9.762316,-11.745511 -9.642172,-11.771055" />
      <path d="M -9.642172,-11.771055 Q -9.337872,-11.833488 -9.027285,-11.886259" />
      <path d="M -9.027285,-11.886259 C -8.943207,-11.899982 -8.923118,-11.887085 -8.919979,-11.872794" />
      <path d="M -8.919979,-11.872794 Q -8.918801,-11.863426 -8.923743,-11.855248" />
      <path d="M -8.923743,-11.855248 Q -8.935457,-11.828834 -8.929722,-11.802061" />
      <path d="M -8.929722,-11.802061 C -8.909933,-11.715111 -8.785333,-11.620214 -8.618328,-11.513082" />
      <path d="M -8.618328,-11.513082 Q -8.253914,-11.559809 -7.884996,-11.594918" />
      <path d="M -7.884996,-11.594918 C -7.629715,-11.729623 -7.394923,-11.850172 -7.217067,-11.950321 C -7.140487,-11.993053 -7.079299,-12.031675 -7.033502,-12.066188" />
      <path d="M -7.033502,-12.066188 C -7.010062,-12.085484 -6.943944,-12.124628 -6.818068,-12.132795" />
      <path d="M -6.818068,-12.132795 Q -6.494019,-12.150845 -6.168557,-12.15869" />
      <path d="M -6.168557,-12.15869 C -6.043255,-12.160542 -6.002384,-12.125656 -5.990342,-12.107778" />
      <path d="M -5.990342,-12.107778 C -5.965203,-12.0759 -5.9239,-12.041132 -5.866433,-12.003472 C -5.734588,-11.915814 -5.542183,-11.81254 -5.324442,-11.697005" />
      <path d="M -5.324442,-11.697005 Q -4.949904,-11.691536 -4.576619,-11.674221" />
      <path d="M -4.576619,-11.674221 C -4.38992,-11.777708 -4.232067,-11.870523 -4.137412,-11.951423 C -4.096296,-11.985842 -4.071408,-12.018385 -4.06275,-12.049051" />
      <path d="M -4.06275,-12.049051 C -4.059595,-12.066469 -4.038717,-12.099468 -3.915686,-12.090053" />
      <path d="M -3.915686,-12.090053 Q -3.593972,-12.062491 -3.275815,-12.024875" />
      <path d="M -3.275815,-12.024875 C -3.1514,-12.009089 -3.066868,-11.965345 -3.035071,-11.944371" />
      <path d="M -3.035071,-11.944371 C -2.973632,-11.906378 -2.897348,-11.863304 -2.80622,-11.815148 C -2.596006,-11.703329 -2.333208,-11.567903 -2.054067,-11.417271" />
      <path d="M -2.054067,-11.417271 Q -1.694928,-11.359981 -1.342717,-11.291421" />
      <path d="M -1.342717,-11.291421 Q -1.199479,-11.399679 -1.166884,-11.497003" />
      <path d="M -1.166884,-11.497003 Q -1.146479,-11.557952 -1.201491,-11.61998" />
      <path d="M -1.201491,-11.61998 Q -1.2169,-11.634141 -1.216531,-11.646935" />
      <path d="M -1.216531,-11.646935 C -1.213992,-11.656117 -1.195404,-11.660447 -1.13282,-11.645744" />
      <path d="M -1.13282,-11.645744 Q -0.835364,-11.574448 -0.546194,-11.493934" />
      <path d="M -0.546194,-11.493934 C -0.431144,-11.461234 -0.308713,-11.402871 -0.259328,-11.376163" />
      <path d="M -0.259328,-11.376163 C -0.165775,-11.327222 -0.05971,-11.271268 0.058869,-11.2083 C 0.333127,-11.062261 0.648409,-10.886003 0.969927,-10.692945" />
      <path d="M 0.969927,-10.692945 Q 1.289191,-10.587737 1.596328,-10.472605" />
      <path d="M 1.596328,-10.472605 C 1.61784,-10.579672 1.570929,-10.679326 1.355286,-10.808214" />
      <path d="M 1.355286,-10.808214 C 1.330173,-10.823095 1.294192,-10.844455 1.29508,-10.847193" />
      <path d="M 1.29508,-10.847193 Q 1.293559,-10.850559 1.340884,-10.830145" />
      <path d="M 1.340884,-10.830145 Q 1.59381,-10.719973 1.834287,-10.602049" />
      <path d="M 1.834287,-10.602049 C 1.93213,-10.554311 2.084118,-10.476566 2.147725,-10.441876" />
      <path d="M 2.147725,-10.441876 C 2.267016,-10.377902 2.395636,-10.305371 2.533583,-10.224284 C 2.853196,-10.036298 3.199476,-9.813312 3.54146,-9.573388" />
      <path d="M 3.54146,-9.573388 Q 3.799091,-9.427432 4.040222,-9.273574" />
      <path d="M 4.040222,-9.273574 Q 3.972581,-9.346686 3.850962,-9.429192" />
      <path d="M 4.001139,-9.217653 L 4.022052,-9.205182" />
      <path d="M 4.022052,-9.205182 C 4.158952,-9.123112 4.30136,-9.031437 4.449276,-8.930159 C 4.792461,-8.695357 5.146141,-8.42293 5.485285,-8.134896" />
      <path d="M 5.485285,-8.134896 Q 5.663727,-7.958139 5.82242,-7.77604" />
      <path d="M 5.567776,-7.501375 L 5.697842,-7.395546" />
      <path d="M -11.880429,-11.17378 A 10.505820880163135,5.6365172866968205 0.0 0,1 0.54156,-11.17378" />
      <line x1="3.258232" y1="-1.68604" x2="3.245562" y2="-1.677091" />
      <path d="M 3.248737,-1.697289 L 3.245562,-1.677091" />
      <path d="M 3.245562,-1.677091 C 2.956528,-1.836993 2.615912,-2.02496 2.277698,-2.266289" />
      <line x1="2.090233" y1="-2.358116" x2="2.077708" y2="-2.346853" />
      <path d="M 2.277698,-2.266289 C 2.226248,-2.304369 2.112808,-2.378935 2.082392,-2.354019" />
      <path d="M 2.082392,-2.354019 L 2.077708,-2.346853" />
      <line x1="2.220696" y1="-2.3054" x2="1.992016" y2="-2.104699" />
      <path d="M 2.077708,-2.346853 Q 2.041471,-2.225103 1.992016,-2.104699" />
      <line x1="2.196263" y1="-1.924118" x2="2.140071" y2="-1.877372" />
      <path d="M 1.992016,-2.104699 C 1.977157,-2.055497 2.089806,-1.930547 2.140071,-1.877372" />
      <path d="M 2.140071,-1.877372 C 2.381282,-1.619215 2.593818,-1.303465 2.770929,-0.984638" />
      <line x1="2.886026" y1="-0.53993" x2="2.742283" y2="-0.453247" />
      <path d="M 2.83575,-0.598686 Q 2.791184,-0.525559 2.742283,-0.453247" />
      <path d="M 2.742283,-0.453247 C 2.415214,-0.656666 2.045728,-0.89479 1.713584,-1.183468" />
      <line x1="1.498999" y1="-1.298191" x2="1.493559" y2="-1.2937" />
      <path d="M 1.713584,-1.183468 C 1.661286,-1.230713 1.538781,-1.328442 1.496129,-1.296134" />
      <path d="M 1.496129,-1.296134 L 1.493559,-1.2937" />
      <line x1="1.56204" y1="-1.290785" x2="1.29397" y2="-1.071696" />
      <path d="M 1.493559,-1.2937 Q 1.399824,-1.18113 1.29397,-1.071696" />
      <line x1="1.780597" y1="-1.125791" x2="1.39303" y2="-0.826915" />
      <path d="M 1.29397,-1.071696 C 1.257228,-1.026139 1.350098,-0.886672 1.39303,-0.826915" />
      <line x1="2.321334" y1="0.220537" x2="1.955446" y2="0.421954" />
      <path d="M 1.39303,-0.826915 C 1.652369,-0.457257 1.833149,-0.009234 1.955446,0.421954" />
      <line x1="2.374303" y1="0.276459" x2="1.665759" y2="0.65901" />
      <path d="M 1.955446,0.421954 Q 1.817126,0.542777 1.665759,0.65901" />
      <path d="M 1.665759,0.65901 C 1.322945,0.408275 0.949768,0.117694 0.646329,-0.215877" />
      <path d="M 0.646329,-0.215877 C 0.598039,-0.271255 0.479731,-0.389882 0.421265,-0.357547" />
      <path d="M 0.421265,-0.357547 Q 0.276419,-0.261829 0.12138,-0.170823" />
      <line x1="0.605991" y1="-0.259042" x2="0.164693" y2="0.084015" />
      <path d="M 0.12138,-0.170823 L 0.117575,-0.16804" />
      <path d="M 0.117575,-0.16804 C 0.068495,-0.12457 0.132707,0.020298 0.164693,0.084015" />
      <line x1="2.456121" y1="0.361463" x2="0.483528" y2="1.39513" />
      <path d="M 0.164693,0.084015 C 0.358742,0.485697 0.448386,0.952822 0.483528,1.39513" />
      <path d="M 0.483528,1.39513 Q 0.291635,1.492628 0.089353,1.583882" />
      <path d="M 0.089353,1.583882 C -0.245843,1.285257 -0.597279,0.943494 -0.851334,0.570545" />
      <path d="M -0.851334,0.570545 C -0.891297,0.508934 -0.992678,0.374789 -1.066101,0.397809" />
      <path d="M -1.066101,0.397809 Q -1.252187,0.470152 -1.445845,0.536528" />
      <line x1="-1.026736" y1="0.398305" x2="-1.46123" y2="0.793339" />
      <path d="M -1.445845,0.536528 Q -1.455829,0.540413 -1.463169,0.547588" />
      <path d="M -1.463169,0.547588 C -1.510683,0.595749 -1.479745,0.730363 -1.46123,0.793339" />
      <line x1="-0.129508" y1="1.384358" x2="-1.407705" y2="2.130754" />
      <path d="M -1.46123,0.793339 C -1.345695,1.216888 -1.353296,1.689807 -1.407705,2.130754" />
      <path d="M -1.407705,2.130754 Q -1.640093,2.198285 -1.879504,2.25834" />
      <path d="M -1.879504,2.25834 C -2.184239,1.914515 -2.489986,1.526333 -2.677343,1.122205" />
      <path d="M -2.677343,1.122205 C -2.706255,1.055729 -2.783801,0.908946 -2.867176,0.920891" />
      <path d="M -2.867176,0.920891 Q -3.08182,0.964929 -3.3009,1.002152" />
      <line x1="-3.189899" y1="0.982804" x2="-3.373935" y2="1.252717" />
      <path d="M -3.3009,1.002152 Q -3.329137,1.008777 -3.345259,1.034834" />
      <path d="M -3.345259,1.034834 C -3.381387,1.091531 -3.379038,1.197436 -3.373935,1.252717" />
      <line x1="-2.720541" y1="1.726326" x2="-3.589367" y2="2.578697" />
      <path d="M -3.373935,1.252717 C -3.344787,1.686486 -3.449116,2.151499 -3.589367,2.578697" />
      <path d="M -3.589367,2.578697 Q -3.846414,2.611657 -4.106639,2.636421" />
      <path d="M -4.106639,2.636421 C -4.360146,2.253165 -4.599367,1.826491 -4.707259,1.401508" />
      <path d="M -4.707259,1.401508 C -4.723149,1.331868 -4.771575,1.176187 -4.85922,1.176052" />
      <path d="M -4.85922,1.176052 Q -5.087795,1.188784 -5.317367,1.194318" />
      <path d="M -5.317367,1.194318 C -5.404772,1.20142 -5.435108,1.360256 -5.443075,1.430845" />
      <path d="M -5.443075,1.430845 C -5.502301,1.862489 -5.696247,2.306434 -5.912782,2.708431" />
      <path d="M -5.912782,2.708431 Q -6.176971,2.704574 -6.440275,2.69236" />
      <line x1="-6.886147" y1="1.151723" x2="-6.802744" y2="1.389421" />
      <path d="M -6.440275,2.69236 Q -6.48836,2.586211 -6.53227,2.477302" />
      <path d="M -6.53227,2.477302 C -6.672885,2.12463 -6.786488,1.749052 -6.802744,1.389421" />
      <path d="M -6.802744,1.389421 C -6.803508,1.350289 -6.80904,1.286327 -6.82717,1.233204" />
      <path d="M -6.82717,1.233204 C -6.842407,1.188533 -6.867212,1.150534 -6.906479,1.145903" />
      <path d="M -6.906479,1.145903 Q -7.133408,1.126462 -7.357827,1.099928" />
      <path d="M -7.357827,1.099928 C -7.444334,1.094746 -7.505924,1.24709 -7.52764,1.315582" />
      <path d="M -7.52764,1.315582 C -7.671204,1.732902 -7.941551,2.144053 -8.219614,2.511114" />
      <line x1="-9.935761" y1="1.548139" x2="-8.72138" y2="2.422344" />
      <path d="M -8.219614,2.511114 Q -8.47294,2.470703 -8.72138,2.422344" />
      <line x1="-9.099089" y1="0.775051" x2="-8.820997" y2="1.086766" />
      <path d="M -8.72138,2.422344 C -8.825273,1.987708 -8.888177,1.5176 -8.820997,1.086766" />
      <path d="M -8.820997,1.086766 C -8.810246,1.026694 -8.796646,0.904697 -8.839601,0.852063" />
      <path d="M -8.839601,0.852063 Q -8.851373,0.837738 -8.869436,0.8325" />
      <path d="M -8.869436,0.8325 Q -9.079253,0.782209 -9.283225,0.725417" />
      <path d="M -9.283225,0.725417 C -9.36294,0.708495 -9.451587,0.850226 -9.485572,0.914784" />
      <path d="M -9.485572,0.914784 C -9.70369,1.306557 -10.032013,1.675422 -10.352655,2.000195" />
      <line x1="-12.086531" y1="1.145297" x2="-10.7945" y2="1.844774" />
      <path d="M -10.352655,2.000195 Q -10.577854,1.925984 -10.7945,1.844774" />
      <line x1="-11.076735" y1="0.139477" x2="-10.624476" y2="0.514169" />
      <path d="M -10.7945,1.844774 C -10.810201,1.401691 -10.775332,0.929603 -10.624476,0.514169" />
      <path d="M -10.624476,0.514169 C -10.600022,0.450353 -10.554858,0.309899 -10.603829,0.264151" />
      <path d="M -10.603829,0.264151 L -10.614317,0.257199" />
      <path d="M -10.614317,0.257199 Q -10.792725,0.179487 -10.96235,0.096307" />
      <path d="M -10.96235,0.096307 C -11.029838,0.068986 -11.139502,0.196711 -11.183441,0.255764" />
      <line x1="-14.880328" y1="-0.213368" x2="-12.166542" y2="1.210491" />
      <path d="M -11.183441,0.255764 C -11.461248,0.612509 -11.825173,0.932477 -12.166542,1.210491" />
      <line x1="-15.37909" y1="-0.513182" x2="-12.518355" y2="0.99901" />
      <path d="M -12.166542,1.210491 Q -12.348268,1.107537 -12.518355,0.99901" />
      <line x1="-12.511063" y1="-0.611038" x2="-12.090277" y2="-0.289348" />
      <path d="M -12.518355,0.99901 C -12.444795,0.560014 -12.314528,0.099591 -12.090277,-0.289348" />
      <path d="M -12.090277,-0.289348 C -12.052841,-0.352314 -11.974098,-0.498597 -12.02221,-0.54079" />
      <path d="M -12.022213,-0.540793 Q -12.120517,-0.613578 -12.212954,-0.688559" />
      <path d="M -12.212954,-0.688559 L -12.280771,-0.744531" />
      <path d="M -12.280771,-0.744531 C -12.331435,-0.780197 -12.45464,-0.668921 -12.505539,-0.616566" />
      <line x1="-16.824153" y1="-1.65186" x2="-13.537662" y2="0.195818" />
      <path d="M -12.505539,-0.616566 C -12.824104,-0.301945 -13.19883,-0.03415 -13.537662,0.195818" />
      <line x1="-17.161288" y1="-2.010716" x2="-13.775468" y2="-0.057309" />
      <path d="M -13.537662,0.195818 Q -13.663531,0.071139 -13.775468,-0.057309" />
      <line x1="-13.477535" y1="-1.552834" x2="-13.118508" y2="-1.269027" />
      <path d="M -13.775468,-0.057309 C -13.617659,-0.479962 -13.400873,-0.915872 -13.118508,-1.269027" />
      <line x1="-13.252116" y1="-1.720239" x2="-12.997178" y2="-1.507095" />
      <path d="M -13.118508,-1.269027 C -13.072004,-1.326065 -12.969702,-1.459566 -12.997178,-1.507095" />
      <line x1="-13.157873" y1="-1.747643" x2="-13.148641" y2="-1.739794" />
      <path d="M -12.997178,-1.507095 Q -13.07926,-1.622254 -13.148641,-1.739794" />
      <path d="M -13.148641,-1.739794 L -13.152681,-1.744361" />
      <path d="M -13.152681,-1.744361 C -13.189876,-1.773305 -13.309388,-1.685976 -13.361767,-1.642758" />
      <line x1="-18.007802" y1="-3.311256" x2="-14.372576" y2="-0.974673" />
      <path d="M -13.361767,-1.642758 C -13.69938,-1.374486 -14.059371,-1.158586 -14.372576,-0.974673" />
      <line x1="-18.160335" y1="-3.704699" x2="-14.480168" y2="-1.252197" />
      <path d="M -14.372576,-0.974673 Q -14.434009,-1.112583 -14.480168,-1.252197" />
      <line x1="-13.923504" y1="-2.607105" x2="-13.639097" y2="-2.358105" />
      <path d="M -14.480168,-1.252197 C -14.248864,-1.647366 -13.960332,-2.047584 -13.639097,-2.358105" />
      <line x1="-13.676967" y1="-2.764138" x2="-13.472769" y2="-2.575854" />
      <path d="M -13.639097,-2.358105 C -13.586694,-2.408156 -13.467808,-2.526034 -13.472769,-2.575854" />
      <line x1="-13.520728" y1="-2.834865" x2="-13.506815" y2="-2.821656" />
      <path d="M -13.472769,-2.575854 Q -13.4965,-2.698487 -13.506815,-2.821656" />
      <path d="M -13.506815,-2.821656 L -13.51106,-2.830654" />
      <path d="M -13.51106,-2.830654 C -13.536538,-2.852631 -13.643832,-2.787157 -13.693776,-2.75288" />
      <line x1="-18.350613" y1="-5.078471" x2="-14.614385" y2="-2.221218" />
      <path d="M -13.693776,-2.75288 C -14.02743,-2.532021 -14.348151,-2.364203 -14.614385,-2.221218" />
      <line x1="-18.308147" y1="-5.479688" x2="-14.58443" y2="-2.504225" />
      <path d="M -14.614385,-2.221218 Q -14.607195,-2.362959 -14.58443,-2.504225" />
      <line x1="-13.816367" y1="-3.686048" x2="-13.616567" y2="-3.482362" />
      <path d="M -14.58443,-2.504225 C -14.295396,-2.862641 -13.95478,-3.21842 -13.616567,-3.482362" />
      <line x1="-13.558345" y1="-3.826006" x2="-13.416576" y2="-3.674236" />
      <path d="M -13.616567,-3.482362 C -13.561837,-3.524846 -13.434468,-3.62533 -13.416576,-3.674236" />
      <line x1="-13.344709" y1="-3.931793" x2="-13.330884" y2="-3.91639" />
      <path d="M -13.416576,-3.674236 Q -13.380339,-3.795987 -13.330884,-3.91639" />
      <path d="M -13.330884,-3.91639 Q -13.327627,-3.92532 -13.331085,-3.92895" />
      <path d="M -13.331085,-3.92895 C -13.346312,-3.944191 -13.434907,-3.897359 -13.47894,-3.871278" />
      <line x1="-17.829221" y1="-6.833072" x2="-14.24661" y2="-3.458865" />
      <path d="M -13.47894,-3.871278 C -13.785895,-3.695668 -14.045492,-3.568839 -14.24661,-3.458865" />
      <line x1="-17.594652" y1="-7.214722" x2="-14.081151" y2="-3.728069" />
      <path d="M -14.24661,-3.458865 Q -14.171288,-3.594778 -14.081151,-3.728069" />
      <line x1="-13.154881" y1="-4.692604" x2="-13.052452" y2="-4.565182" />
      <path d="M -14.081151,-3.728069 C -13.754082,-4.042968 -13.384596,-4.34859 -13.052452,-4.565182" />
      <line x1="-12.90966" y1="-4.828167" x2="-12.832428" y2="-4.72739" />
      <path d="M -13.052452,-4.565182 C -12.999125,-4.600034 -12.871954,-4.682539 -12.832428,-4.72739" />
      <line x1="-12.642537" y1="-4.96272" x2="-12.632838" y2="-4.949393" />
      <path d="M -12.832428,-4.72739 Q -12.738692,-4.839959 -12.632838,-4.949393" />
      <path d="M -12.632838,-4.949393 Q -12.621936,-4.961116 -12.624612,-4.964076" />
      <path d="M -12.624612,-4.964076 C -12.631564,-4.972432 -12.696756,-4.94068 -12.731898,-4.921736" />
      <line x1="-16.479161" y1="-8.455487" x2="-13.294314" y2="-4.603271" />
      <path d="M -12.731898,-4.921736 C -12.991237,-4.786125 -13.172017,-4.690401 -13.294314,-4.603271" />
      <line x1="-16.068473" y1="-8.791559" x2="-13.004627" y2="-4.840327" />
      <path d="M -13.294314,-4.603271 Q -13.178271,-4.704635 -13.053002,-4.802802" />
      <path d="M -13.053002,-4.802802 L -13.004627,-4.840327" />
      <line x1="-14.623237" y1="-9.773235" x2="-11.985198" y2="-5.532773" />
      <path d="M -13.004627,-4.840327 L -12.874384,-4.94008" />
      <path d="M -12.874384,-4.94008 C -12.571017,-5.16923 -12.249797,-5.382985 -11.985198,-5.532773" />
      <line x1="-14.304165" y1="-9.958625" x2="-14.302696" y2="-9.956145" />
      <path d="M -11.985198,-5.532773 C -11.954461,-5.550187 -11.897761,-5.58203 -11.844336,-5.612801" />
      <line x1="-14.392435" y1="-9.835149" x2="-11.822396" y2="-5.576446" />
      <line x1="-13.833617" y1="-10.102742" x2="-11.428222" y2="-5.765199" />
      <path d="M -11.822396,-5.576446 Q -11.630503,-5.673945 -11.428222,-5.765199" />
      <line x1="-12.500012" y1="-10.888139" x2="-10.487534" y2="-6.319195" />
      <path d="M -11.428222,-5.765199 C -11.093026,-5.984891 -10.741589,-6.186875 -10.487534,-6.319195" />
      <line x1="-12.19554" y1="-11.029486" x2="-10.272768" y2="-6.418898" />
      <path d="M -10.487534,-6.319195 C -10.447571,-6.340636 -10.34619,-6.390285 -10.272768,-6.418898" />
      <line x1="-11.65718" y1="-11.226148" x2="-11.64595" y2="-11.196428" />
      <path d="M -10.272768,-6.418898 Q -10.147555,-6.467577 -10.018845,-6.513577" />
      <line x1="-11.711251" y1="-10.878038" x2="-9.931164" y2="-6.312071" />
      <path d="M -9.959608,-6.361951 Q -9.949811,-6.337117 -9.931164,-6.312071" />
      <line x1="-11.042385" y1="-11.058916" x2="-9.459364" y2="-6.439657" />
      <path d="M -9.931164,-6.312071 Q -9.698775,-6.379601 -9.459364,-6.439657" />
      <line x1="-9.911295" y1="-11.670222" x2="-8.661525" y2="-6.870856" />
      <path d="M -9.459364,-6.439657 C -9.154629,-6.614149 -8.848882,-6.769713 -8.661525,-6.870856" />
      <line x1="-9.642172" y1="-11.771055" x2="-8.471693" y2="-6.94198" />
      <path d="M -8.661525,-6.870856 C -8.632613,-6.887431 -8.555067,-6.924442 -8.471693,-6.94198" />
      <line x1="-9.027285" y1="-11.886259" x2="-8.037968" y2="-7.023242" />
      <path d="M -8.471693,-6.94198 Q -8.257048,-6.986018 -8.037968,-7.023242" />
      <path d="M -8.037968,-7.023242 Q -7.998053,-7.029518 -7.981568,-7.026397" />
      <line x1="-8.618328" y1="-11.513082" x2="-7.749501" y2="-6.760013" />
      <path d="M -7.96915,-6.963851 C -7.95554,-6.902892 -7.866953,-6.835263 -7.749501,-6.760013" />
      <line x1="-7.884996" y1="-11.594918" x2="-7.23223" y2="-6.817738" />
      <path d="M -7.749501,-6.760013 Q -7.492454,-6.792973 -7.23223,-6.817738" />
      <line x1="-7.033502" y1="-12.066188" x2="-6.63161" y2="-7.150159" />
      <path d="M -7.23223,-6.817738 C -6.978722,-6.952799 -6.739502,-7.069871 -6.63161,-7.150159" />
      <line x1="-6.818068" y1="-12.132795" x2="-6.479648" y2="-7.197141" />
      <path d="M -6.63161,-7.150159 C -6.615719,-7.16357 -6.567293,-7.191682 -6.479648,-7.197141" />
      <line x1="-6.168557" y1="-12.15869" x2="-6.021501" y2="-7.215407" />
      <path d="M -6.479648,-7.197141 Q -6.251073,-7.209873 -6.021501,-7.215407" />
      <line x1="-5.990342" y1="-12.107778" x2="-5.895793" y2="-7.179495" />
      <path d="M -6.021501,-7.215407 C -5.934096,-7.21693 -5.90376,-7.191955 -5.895793,-7.179495" />
      <line x1="-5.324442" y1="-11.697005" x2="-5.426086" y2="-6.889747" />
      <path d="M -5.895793,-7.179495 C -5.836567,-7.10587 -5.642621,-7.006068 -5.426086,-6.889747" />
      <line x1="-4.576619" y1="-11.674221" x2="-4.898593" y2="-6.873676" />
      <path d="M -5.426086,-6.889747 Q -5.161897,-6.88589 -4.898593,-6.873676" />
      <line x1="-4.06275" y1="-12.049051" x2="-4.536124" y2="-7.138071" />
      <path d="M -4.898593,-6.873676 C -4.713589,-6.977764 -4.557198,-7.066892 -4.536124,-7.138071" />
      <line x1="-3.915686" y1="-12.090053" x2="-4.432389" y2="-7.166993" />
      <path d="M -4.536124,-7.138071 C -4.534338,-7.150234 -4.518332,-7.173795 -4.432389,-7.166993" />
      <line x1="-3.275815" y1="-12.024875" x2="-3.981042" y2="-7.121018" />
      <path d="M -4.432389,-7.166993 Q -4.205461,-7.147551 -3.981042,-7.121018" />
      <line x1="-3.035071" y1="-11.944371" x2="-3.811228" y2="-7.064232" />
      <path d="M -3.981042,-7.121018 C -3.894534,-7.110256 -3.832944,-7.078788 -3.811228,-7.064232" />
      <line x1="-2.054067" y1="-11.417271" x2="-3.119254" y2="-6.692431" />
      <path d="M -3.811228,-7.064232 C -3.667664,-6.976283 -3.397318,-6.843687 -3.119254,-6.692431" />
      <line x1="-1.342717" y1="-11.291421" x2="-2.617488" y2="-6.60366" />
      <path d="M -3.119254,-6.692431 Q -2.865928,-6.65202 -2.617488,-6.60366" />
      <path d="M -2.617488,-6.60366 Q -2.516632,-6.67983 -2.49346,-6.748672" />
      <line x1="-1.13282" y1="-11.645744" x2="-1.162335" y2="-11.539923" />
      <line x1="-0.546194" y1="-11.493934" x2="-2.055643" y2="-6.746507" />
      <path d="M -2.464481,-6.852401 Q -2.257205,-6.802628 -2.055643,-6.746507" />
      <line x1="-0.259328" y1="-11.376163" x2="-1.853296" y2="-6.663434" />
      <path d="M -2.055643,-6.746507 C -1.975929,-6.724004 -1.887281,-6.681925 -1.853296,-6.663434" />
      <line x1="0.969927" y1="-10.692945" x2="-0.986213" y2="-6.181511" />
      <path d="M -1.853296,-6.663434 C -1.635178,-6.549939 -1.306855,-6.375056 -0.986213,-6.181511" />
      <line x1="1.596328" y1="-10.472605" x2="-0.544368" y2="-6.02609" />
      <path d="M -0.986213,-6.181511 Q -0.761014,-6.1073 -0.544368,-6.02609" />
      <line x1="1.340884" y1="-10.830145" x2="1.336107" y2="-10.819617" />
      <line x1="1.834287" y1="-10.602049" x2="-0.376518" y2="-6.117396" />
      <path d="M -0.477077,-6.165862 L -0.376518,-6.117396" />
      <line x1="2.147725" y1="-10.441876" x2="-0.155428" y2="-6.004414" />
      <path d="M -0.376518,-6.117396 C -0.30903,-6.084496 -0.199367,-6.028409 -0.155428,-6.004414" />
      <line x1="3.54146" y1="-9.573388" x2="0.827674" y2="-5.391807" />
      <path d="M -0.155428,-6.004414 C 0.12238,-5.85589 0.486305,-5.632112 0.827674,-5.391807" />
      <line x1="4.040222" y1="-9.273574" x2="1.179487" y2="-5.180327" />
      <path d="M 0.827674,-5.391807 Q 1.0094,-5.288854 1.179487,-5.180327" />
      <line x1="0.688234" y1="-5.488069" x2="0.683345" y2="-5.480296" />
      <path d="M 0.681871,-5.492391 Q 0.669987,-5.496917 0.66817,-5.495159" />
      <path d="M 0.66817,-5.495159 Q 0.666153,-5.493308 0.683345,-5.480296" />
      <line x1="0.965525" y1="-5.311916" x2="0.941903" y2="-5.276559" />
      <path d="M 0.683345,-5.480296 Q 0.818184,-5.380459 0.941903,-5.276559" />
      <line x1="4.022052" y1="-9.205182" x2="1.16667" y2="-5.132084" />
      <path d="M 0.941903,-5.276559 C 0.992567,-5.235313 1.115772,-5.162778 1.16667,-5.132084" />
      <line x1="5.485285" y1="-8.134896" x2="2.198794" y2="-4.377135" />
      <path d="M 1.16667,-5.132084 C 1.485236,-4.941436 1.859962,-4.665485 2.198794,-4.377135" />
      <line x1="5.82242" y1="-7.77604" x2="2.4366" y2="-4.124008" />
      <path d="M 2.198794,-4.377135 Q 2.324663,-4.252455 2.4366,-4.124008" />
      <path d="M 2.4366,-4.124008 C 2.27879,-4.219672 2.062004,-4.327508 1.77964,-4.479623" />
      <line x1="1.670254" y1="-4.528882" x2="1.65831" y2="-4.513995" />
      <path d="M 1.77964,-4.479623 C 1.740319,-4.501515 1.664563,-4.539345 1.654301,-4.527989" />
      <path d="M 1.654301,-4.527989 Q 1.651209,-4.52457 1.65831,-4.513995" />
      <line x1="1.915322" y1="-4.406905" x2="1.809772" y2="-4.281296" />
      <path d="M 1.65831,-4.513995 Q 1.740392,-4.398835 1.809772,-4.281296" />
      <line x1="2.170017" y1="-4.272764" x2="2.022899" y2="-4.105892" />
      <path d="M 1.809772,-4.281296 C 1.840158,-4.234326 1.96851,-4.144022 2.022899,-4.105892" />
      <path d="M 2.022899,-4.105892 C 2.233497,-3.958391 2.45665,-3.771505 2.667981,-3.573083" />
      <path d="M 3.109557,-2.945775 C 2.884022,-3.065641 2.606873,-3.204405 2.300229,-3.390546" />
      <line x1="2.148297" y1="-3.460114" x2="2.133901" y2="-3.445236" />
      <path d="M 2.300229,-3.390546 C 2.253228,-3.420067 2.155842,-3.474555 2.136375,-3.456386" />
      <path d="M 2.136375,-3.456386 Q 2.132811,-3.452828 2.133901,-3.445236" />
      <line x1="2.337046" y1="-3.368133" x2="2.167946" y2="-3.199434" />
      <path d="M 2.133901,-3.445236 Q 2.157632,-3.322602 2.167946,-3.199434" />
      <line x1="2.401476" y1="-3.039963" x2="2.354908" y2="-2.99577" />
      <path d="M 2.167946,-3.199434 C 2.175984,-3.14975 2.300735,-3.041568 2.354908,-2.99577" />
      <path d="M 2.354908,-2.99577 Q 2.554731,-2.824961 2.745566,-2.617276" />
      <path d="M 1.72916,-3.088642 A 7.410513719207065,3.975842455155772 0.0 1,1 -11.650058,-5.66174" />
      <path d="M -0.482886,-6.153796 A 7.410513719207065,3.975842455155772 0.0 0,1 1.72916,-3.088642" />
      <path d="M 7.348029,15.507236 A 16.97056274847714,16.97056274847714 0.46767073518865054 0,1 6.818965,16.110229" />
      <path d="M 6.246626,-7.463989 A 16.97056274847714,16.97056274847714 0.46767073518865054 0,1 7.986697,-5.455853" />
      <path d="M 7.063486,2.128869 L 3.312013,2.86264" />
      <path d="M 7.225025,6.951919 L 3.425959,6.264685" />
      <path d="M 2.930881,7.044474 L 2.329017,6.874761" />
      <path d="M 2.733592,3.507818 L 2.704967,3.511605" />
      <path d="M -16.137054,-8.73836 A 16.97056274847714,16.97056274847714 91.74505037786533 0,1 -15.883829,-8.932979" />
      <path d="M -14.01336,-10.15828 A 16.97056274847714,16.97056274847714 91.74505037786533 0,1 -11.880429,-11.17378" />
      <path d="M 0.54156,-11.17378 A 16.97056274847714,16.97056274847714 91.74505037786533 0,1 3.850962,-9.429192" />
      <path d="M -6.89267,1.582579 L -6.53227,2.477302" />
      <path d="M -12.285927,-0.747753 L -12.212954,-0.688559" />
      <path d="M -11.751576,-10.948753 L -9.959608,-6.361951" />
      <path d="M -8.929722,-11.802061 L -7.96915,-6.963851" />
      <path d="M -1.166884,-11.497003 L -2.49346,-6.748672" />
    </g>
  </g>
</svg>