<?xml version='1.0' encoding='utf-8'?>
<svg width="100.09mm" height="64.611961mm" viewBox="-19.790951 -14.276051 45.420377 29.320608" version="1.1" xmlns="http://www.w3.org/2000/svg">
  <g transform="scale(1,-1)" stroke-linecap="round">
    <g fill="none" stroke="rgb(0,0,0)" stroke-width="0.04084158204179618" id="Visible">
      <line x1="11.507956" y1="1.846229" x2="11.507956" y2="2.61707" />
      <path d="M 11.507956,2.61707 Q 11.523899,2.329563 11.578504,2.045578" />
      <line x1="11.578504" y1="1.978102" x2="11.578504" y2="2.045578" />
      <path d="M 11.578504,2.045578 L 11.581544,2.01198" />
      <path d="M 11.581544,2.01198 C 11.582997,1.869829 11.416809,1.742519 11.229028,1.673088 C 11.037232,1.601115 10.836691,1.573204 10.62447,1.565041" />
      <path d="M 10.62447,1.565041 C 10.131765,1.40844 9.624609,0.966992 9.296097,0.561131" />
      <line x1="9.296097" y1="0.013147" x2="9.296097" y2="0.561131" />
      <path d="M 9.296097,0.561131 Q 9.414467,0.257469 9.563668,-0.035998" />
      <line x1="9.563668" y1="-0.03914" x2="9.563668" y2="-0.035998" />
      <path d="M 11.253007,-2.600384 L 11.332777,-2.57523" />
      <path d="M 9.563668,-0.035998 C 10.124181,-0.147884 10.845006,-0.183276 11.332777,-0.015663" />
      <line x1="11.332777" y1="-2.57523" x2="11.332777" y2="-0.015663" />
      <path d="M 11.332777,-2.57523 Q 11.514933,-2.442764 11.722546,-2.356359" />
      <path d="M 11.332777,-0.015663 C 11.502872,0.104936 11.681504,0.203403 11.889375,0.258812 C 12.091936,0.314329 12.322278,0.303357 12.415652,0.177344" />
      <line x1="12.415652" y1="-1.022378" x2="12.415652" y2="0.177344" />
      <path d="M 12.415652,0.177344 Q 12.596802,-0.064796 12.809384,-0.28728" />
      <line x1="12.809384" y1="-0.638083" x2="12.809384" y2="-0.28728" />
      <path d="M 12.809384,-0.28728 Q 12.868898,-0.352449 12.868437,-0.441547" />
      <path d="M 12.868437,-0.441547 C 12.868417,-0.570157 12.777846,-0.711226 12.664546,-0.824005 C 12.549205,-0.936041 12.41531,-1.032444 12.262861,-1.113213" />
      <path d="M 12.262861,-1.113213 C 11.927315,-1.46046 11.745049,-2.060598 11.696779,-2.553186" />
      <line x1="11.696779" y1="-5.112753" x2="11.696779" y2="-2.553186" />
      <path d="M 11.696779,-5.112753 Q 11.976036,-5.324889 12.276059,-5.514954" />
      <path d="M 11.696779,-2.553186 Q 11.976036,-2.765323 12.276059,-2.955388" />
      <line x1="12.276059" y1="-5.514954" x2="12.276059" y2="-2.955388" />
      <path d="M 12.276059,-5.514954 C 12.826601,-5.3711 13.471454,-5.092143 13.796318,-4.737479" />
      <path d="M 12.276059,-2.955388 C 12.826601,-2.811534 13.471454,-2.532576 13.796318,-2.177913" />
      <line x1="13.796318" y1="-4.737479" x2="13.796318" y2="-2.177913" />
      <path d="M 13.796318,-4.737479 C 13.873429,-4.559978 13.970817,-4.397978 14.118588,-4.260707 C 14.261697,-4.125624 14.467565,-4.03619 14.621775,-4.105214" />
      <path d="M 13.796318,-2.177913 C 13.873429,-2.000411 13.970817,-1.838411 14.118588,-1.701141 C 14.261697,-1.566058 14.467565,-1.476624 14.621775,-1.545648" />
      <line x1="14.621775" y1="-4.105214" x2="14.621775" y2="-1.545648" />
      <path d="M 14.621775,-4.105214 Q 14.912594,-4.234009 15.218532,-4.333719" />
      <path d="M 14.621775,-1.545648 Q 14.919593,-1.677541 15.23319,-1.77891" />
      <line x1="15.23319" y1="-2.770212" x2="15.23319" y2="-1.77891" />
      <path d="M 15.23319,-1.77891 C 15.374897,-1.824166 15.441939,-1.977201 15.43962,-2.135815" />
      <path d="M 15.43962,-2.135815 C 15.436751,-2.34485 15.353913,-2.541294 15.240619,-2.72893" />
      <path d="M 15.218532,-5.526083 C 15.219084,-5.933929 15.384847,-6.405849 15.58851,-6.778693" />
      <path d="M 15.240619,-2.72893 Q 15.218263,-2.841634 15.218532,-2.966517" />
      <path d="M 15.218532,-2.966517 C 15.219084,-3.374363 15.384847,-3.846283 15.58851,-4.219126" />
      <line x1="15.58851" y1="-6.778693" x2="15.58851" y2="-4.219126" />
      <path d="M 15.58851,-6.778693 Q 15.953827,-6.842462 16.324282,-6.878198" />
      <path d="M 15.58851,-4.219126 Q 15.953827,-4.282896 16.324282,-4.318631" />
      <line x1="16.324282" y1="-6.878198" x2="16.324282" y2="-4.318631" />
      <path d="M 16.324282,-6.878198 C 16.717335,-6.517149 17.113427,-5.998588 17.188337,-5.551905" />
      <path d="M 16.324282,-4.318631 C 16.717335,-3.957582 17.113427,-3.439022 17.188337,-2.992339" />
      <line x1="17.188337" y1="-5.551905" x2="17.188337" y2="-2.992339" />
      <path d="M 17.188337,-5.006497 C 17.232692,-4.825771 17.359438,-4.656344 17.535196,-4.649799" />
      <path d="M 17.188337,-2.992339 Q 17.158184,-2.844524 17.157452,-2.70119" />
      <path d="M 17.157452,-2.70119 C 17.157449,-2.567009 17.179932,-2.425784 17.242083,-2.305616 C 17.302769,-2.186063 17.408934,-2.095214 17.535196,-2.090232" />
      <line x1="17.535196" y1="-4.649799" x2="17.535196" y2="-2.090232" />
      <path d="M 17.535196,-4.649799 Q 17.869881,-4.636103 18.200467,-4.589195" />
      <path d="M 17.535196,-2.090232 Q 17.869881,-2.076537 18.200467,-2.029629" />
      <line x1="18.200467" y1="-4.589195" x2="18.200467" y2="-2.029629" />
      <path d="M 18.200467,-4.589195 C 18.371905,-4.564212 18.535828,-4.703656 18.6237,-4.869977 C 18.715226,-5.03961 18.749961,-5.219478 18.759857,-5.408746" />
      <path d="M 18.200467,-2.029629 C 18.371905,-2.004645 18.535828,-2.14409 18.6237,-2.31041 C 18.715226,-2.480043 18.749961,-2.659912 18.759857,-2.84918" />
      <line x1="18.759857" y1="-5.408746" x2="18.759857" y2="-2.84918" />
      <path d="M 18.759857,-5.408746 C 18.942156,-5.831999 19.456043,-6.267664 19.928503,-6.549868" />
      <path d="M 18.759857,-2.84918 C 18.942156,-3.272432 19.456043,-3.708097 19.928503,-3.990302" />
      <line x1="19.928503" y1="-6.549868" x2="19.928503" y2="-3.990302" />
      <path d="M 19.928503,-6.549868 Q 20.281994,-6.448184 20.623617,-6.320015" />
      <path d="M 19.928503,-3.990302 Q 20.281994,-3.888618 20.623617,-3.760448" />
      <line x1="20.623617" y1="-6.320015" x2="20.623617" y2="-3.760448" />
      <path d="M 20.623617,-6.320015 C 20.690654,-6.07082 20.733805,-5.789785 20.733884,-5.515166" />
      <path d="M 20.623617,-3.760448 C 20.690654,-3.511254 20.733805,-3.230219 20.733884,-2.9556" />
      <path d="M 20.733884,-2.9556 C 20.733972,-2.696147 20.694675,-2.442746 20.599946,-2.240717" />
      <path d="M 20.599946,-2.240717 C 20.502208,-2.141306 20.420547,-2.035535 20.354963,-1.923405 C 20.290346,-1.81047 20.24336,-1.683589 20.243181,-1.564827" />
      <path d="M 20.243181,-1.564827 C 20.242341,-1.457313 20.285381,-1.360202 20.375267,-1.310488" />
      <line x1="20.375267" y1="-1.957621" x2="20.375267" y2="-1.310488" />
      <path d="M 20.733884,-3.65515 Q 20.826489,-3.59504 20.916133,-3.531824" />
      <path d="M 20.375267,-1.310488 Q 20.657141,-1.154873 20.916133,-0.972258" />
      <line x1="20.916133" y1="-3.531824" x2="20.916133" y2="-0.972258" />
      <path d="M 20.916133,-3.531824 C 21.050062,-3.436552 21.273186,-3.486906 21.446093,-3.593201 C 21.624091,-3.700796 21.758864,-3.841647 21.877597,-4.001308" />
      <path d="M 20.916133,-0.972258 C 21.050062,-0.876985 21.273186,-0.92734 21.446093,-1.033635 C 21.624091,-1.141229 21.758864,-1.28208 21.877597,-1.441741" />
      <line x1="21.877597" y1="-4.001308" x2="21.877597" y2="-1.441741" />
      <path d="M 21.877597,-4.001308 C 22.281825,-4.289554 22.980442,-4.446127 23.553861,-4.487593" />
      <path d="M 21.877597,-1.441741 C 22.281825,-1.729987 22.980442,-1.88656 23.553861,-1.928026" />
      <line x1="23.553861" y1="-4.487593" x2="23.553861" y2="-1.928026" />
      <path d="M 23.553861,-4.487593 Q 23.800808,-4.247701 24.022062,-3.98997" />
      <path d="M 23.553861,-1.928026 Q 23.800808,-1.688134 24.022062,-1.430403" />
      <line x1="24.022062" y1="-3.98997" x2="24.022062" y2="-1.430403" />
      <path d="M 24.022062,-1.430403 C 23.854602,-0.957467 23.529869,-0.403515 23.117007,-0.124445" />
      <path d="M 23.117007,-0.124445 C 22.934331,-0.065967 22.769372,0.005053 22.620693,0.108289 C 22.475002,0.209144 22.35299,0.34929 22.353359,0.482222" />
      <path d="M 22.353359,0.482222 Q 22.353232,0.536876 22.380992,0.584654" />
      <line x1="22.380992" y1="0.366956" x2="22.380992" y2="0.584654" />
      <path d="M 22.380992,0.584654 Q 22.534527,0.84049 22.65253,1.109882" />
      <line x1="22.65253" y1="0.086693" x2="22.65253" y2="1.109882" />
      <path d="M 22.65253,1.109882 C 22.713063,1.249915 22.935603,1.302143 23.147213,1.284355 C 23.363989,1.267629 23.562688,1.203536 23.758444,1.116264" />
      <line x1="23.758444" y1="-0.861182" x2="23.758444" y2="1.116264" />
      <path d="M 24.022062,-1.46224 C 24.499608,-1.464431 25.055236,-1.320993 25.493172,-1.144452" />
      <path d="M 23.758444,1.116264 C 24.276288,1.040259 24.972441,1.204731 25.493172,1.415115" />
      <line x1="25.493172" y1="-1.144452" x2="25.493172" y2="1.415115" />
      <path d="M 25.493172,-1.144452 Q 25.567406,-0.830631 25.609005,-0.512397" />
      <path d="M 25.493172,1.415115 Q 25.567406,1.728936 25.609005,2.04717" />
      <line x1="25.609005" y1="-0.512397" x2="25.609005" y2="2.04717" />
      <path d="M 25.609005,2.04717 C 25.18871,2.384817 24.585057,2.725075 24.065076,2.789425" />
      <path d="M 24.065076,2.789425 C 23.847575,2.758042 23.635563,2.749493 23.42329,2.790792 C 23.215554,2.829716 23.022458,2.938154 23.014939,3.087391" />
      <path d="M 23.014939,3.087391 Q 22.998996,3.374898 22.944391,3.658883" />
      <path d="M 22.944391,3.658883 L 22.941351,3.692481" />
      <path d="M 22.941351,3.692481 C 22.939899,3.834632 23.106086,3.961942 23.293868,4.031372 C 23.485663,4.103346 23.686205,4.131256 23.898425,4.13942" />
      <line x1="23.898425" y1="2.770185" x2="23.898425" y2="4.13942" />
      <path d="M 25.07751,2.410757 Q 25.156697,2.497301 25.226799,2.583764" />
      <path d="M 23.898425,4.13942 C 24.391131,4.296021 24.898286,4.737469 25.226799,5.14333" />
      <line x1="25.226799" y1="2.583764" x2="25.226799" y2="5.14333" />
      <path d="M 25.226799,5.14333 Q 25.108429,5.446992 24.959228,5.740459" />
      <path d="M 24.959228,5.740459 C 24.398715,5.852345 23.677889,5.887737 23.190118,5.720124" />
      <path d="M 23.190118,5.720124 C 23.020023,5.599525 22.841392,5.501058 22.63352,5.445649 C 22.430959,5.390132 22.200618,5.401104 22.107243,5.527116" />
      <path d="M 22.107243,5.527116 Q 21.926093,5.769257 21.713511,5.991741" />
      <path d="M 21.713511,5.991741 Q 21.653998,6.056909 21.654458,6.146007" />
      <path d="M 21.654458,6.146007 C 21.654478,6.274618 21.745049,6.415687 21.858349,6.528466 C 21.97369,6.640502 22.107585,6.736905 22.260034,6.817674" />
      <line x1="22.260034" y1="5.431432" x2="22.260034" y2="6.817674" />
      <path d="M 22.800349,5.501253 Q 22.816547,5.60139 22.826116,5.69808" />
      <path d="M 22.260034,6.817674 C 22.59558,7.164921 22.777846,7.765059 22.826116,8.257647" />
      <line x1="22.826116" y1="5.69808" x2="22.826116" y2="8.257647" />
      <path d="M 22.826116,8.257647 Q 22.546859,8.469784 22.246836,8.659849" />
      <path d="M 22.246836,8.659849 C 21.696294,8.515995 21.051442,8.237037 20.726578,7.882373" />
      <path d="M 20.726578,7.882373 C 20.649466,7.704872 20.552079,7.542872 20.404308,7.405601 C 20.261198,7.270519 20.05533,7.181085 19.90112,7.250109" />
      <path d="M 19.90112,7.250109 Q 19.603303,7.382001 19.289705,7.483371" />
      <path d="M 19.289705,7.483371 C 19.147998,7.528627 19.080956,7.681662 19.083275,7.840276" />
      <path d="M 19.083275,7.840276 C 19.086144,8.049311 19.168982,8.245755 19.282276,8.433391" />
      <line x1="19.282276" y1="7.485951" x2="19.282276" y2="8.433391" />
      <path d="M 19.282276,8.433391 Q 19.304632,8.546095 19.304363,8.670977" />
      <path d="M 19.304363,8.670977 C 19.303812,9.078824 19.138048,9.550744 18.934385,9.923587" />
      <path d="M 18.934385,9.923587 Q 18.569068,9.987357 18.198614,10.023092" />
      <path d="M 18.198614,10.023092 C 17.80556,9.662043 17.409468,9.143483 17.334559,8.6968" />
      <line x1="17.334559" y1="8.151391" x2="17.334559" y2="8.6968" />
      <path d="M 17.334559,8.6968 Q 17.364711,8.548984 17.365443,8.405651" />
      <path d="M 17.365443,8.405651 C 17.365446,8.27147 17.342963,8.130245 17.280813,8.010077 C 17.220126,7.890524 17.113961,7.799675 16.987699,7.794693" />
      <path d="M 16.987699,7.794693 Q 16.653014,7.780997 16.322429,7.73409" />
      <path d="M 16.322429,7.73409 C 16.15099,7.709106 15.987068,7.848551 15.899195,8.014871 C 15.807669,8.184504 15.772934,8.364373 15.763038,8.553641" />
      <path d="M 15.763038,8.553641 C 15.580739,8.976893 15.066852,9.412558 14.594392,9.694763" />
      <path d="M 14.594392,9.694763 Q 14.240901,9.593078 13.899278,9.464909" />
      <path d="M 13.899278,9.464909 C 13.832241,9.215715 13.789091,8.93468 13.789011,8.660061" />
      <path d="M 13.789011,8.660061 C 13.788923,8.400608 13.82822,8.147207 13.922949,7.945178" />
      <line x1="13.922949" y1="6.884404" x2="13.922949" y2="7.945178" />
      <path d="M 13.922949,7.945178 C 14.020687,7.845767 14.102348,7.739996 14.167932,7.627866 C 14.232549,7.514931 14.279535,7.38805 14.279714,7.269288" />
      <path d="M 14.279714,7.269288 C 14.280554,7.161774 14.237514,7.064663 14.147629,7.014948" />
      <path d="M 14.147629,7.014948 Q 13.865754,6.859334 13.606762,6.676718" />
      <path d="M 13.606762,6.676718 C 13.472833,6.581446 13.249709,6.631801 13.076803,6.738096 C 12.898804,6.84569 12.764031,6.986541 12.645298,7.146202" />
      <path d="M 12.645298,7.146202 C 12.24107,7.434448 11.542453,7.591021 10.969034,7.632487" />
      <path d="M 10.969034,7.632487 Q 10.722087,7.392595 10.500834,7.134864" />
      <line x1="10.500834" y1="4.607134" x2="10.500834" y2="7.134864" />
      <path d="M 10.500834,7.134864 C 10.668293,6.661928 10.993026,6.107976 11.405888,5.828906" />
      <line x1="11.405888" y1="4.418363" x2="11.405888" y2="5.828906" />
      <path d="M 11.405888,5.828906 C 11.588565,5.770428 11.753523,5.699408 11.902202,5.596172 C 12.047893,5.495317 12.169905,5.355171 12.169536,5.222239" />
      <path d="M 12.169536,5.222239 Q 12.169663,5.167585 12.141904,5.119807" />
      <path d="M 12.141904,5.119807 Q 11.988368,4.863971 11.870365,4.594579" />
      <path d="M 11.870365,4.594579 C 11.809832,4.454546 11.587292,4.402318 11.375682,4.420106 C 11.158906,4.436832 10.960207,4.500925 10.764452,4.588197" />
      <path d="M 10.764452,4.588197 C 10.246607,4.664202 9.550454,4.499729 9.029724,4.289346" />
      <path d="M 9.029724,4.289346 Q 8.95549,3.975525 8.91389,3.657291" />
      <line x1="8.91389" y1="3.034961" x2="8.91389" y2="3.657291" />
      <path d="M 8.91389,3.657291 C 9.334185,3.319643 9.937838,2.979386 10.457819,2.915035" />
      <line x1="10.457819" y1="2.906045" x2="10.457819" y2="2.915035" />
      <path d="M 10.457819,2.915035 C 10.67532,2.946419 10.887332,2.954968 11.099605,2.913669 C 11.307341,2.874745 11.500437,2.766307 11.507956,2.61707" />
      <line x1="8.722779" y1="0.28876" x2="8.722779" y2="0.291264" />
      <path d="M 8.722779,0.291264 Q 8.741881,0.593166 8.741883,0.89553" />
      <path d="M 8.741883,0.89553 L 8.741789,0.937864" />
      <path d="M 8.741789,0.937864 C 8.75244,1.118459 9.14829,1.181464 9.327972,1.190513" />
      <line x1="9.327972" y1="0.599875" x2="9.327972" y2="1.190513" />
      <path d="M 9.327972,1.190513 C 9.63229,1.218057 9.990492,1.319372 10.340256,1.455886 C 10.690989,1.592758 11.033475,1.763691 11.334296,1.941459" />
      <line x1="11.334296" y1="1.719811" x2="11.334296" y2="1.941459" />
      <path d="M 11.334296,1.941459 Q 11.300776,2.309238 11.243759,2.674875" />
      <path d="M 11.243759,2.674875 C 10.906227,2.794492 10.529626,2.89992 10.153277,2.970558 C 9.777962,3.04102 9.402992,3.075546 9.098717,3.047649" />
      <path d="M 9.098717,3.047649 C 8.920822,3.024125 8.518394,3.01441 8.463888,3.18907" />
      <path d="M 8.463888,3.18907 Q 8.386296,3.505669 8.287436,3.817864" />
      <path d="M 8.287436,3.817864 L 8.283542,3.847988" />
      <path d="M 8.283542,3.847988 C 8.285054,4.011868 8.616259,4.146138 8.777525,4.192234" />
      <line x1="8.777525" y1="3.039559" x2="8.777525" y2="4.192234" />
      <path d="M 8.777525,4.192234 C 9.063175,4.2865 9.378646,4.464003 9.675363,4.673631 C 9.972906,4.883819 10.252222,5.125074 10.489232,5.363669" />
      <line x1="10.489232" y1="4.60717" x2="10.489232" y2="5.363669" />
      <path d="M 10.489232,5.363669 Q 10.346047,5.711462 10.18081,6.051964" />
      <path d="M 10.18081,6.051964 C 9.81874,6.092461 9.423207,6.110564 9.038399,6.095119 C 8.654643,6.079735 8.282048,6.029715 7.996546,5.935118" />
      <path d="M 7.996546,5.935118 C 7.8318,5.872843 7.446011,5.773985 7.340739,5.930575" />
      <path d="M 7.340739,5.930575 Q 7.170403,6.219135 6.980851,6.498712" />
      <path d="M 6.980851,6.498712 Q 6.962057,6.530224 6.962371,6.564705" />
      <path d="M 6.962371,6.564705 C 6.963403,6.717067 7.210389,6.894926 7.341446,6.96929" />
      <line x1="7.341446" y1="5.929512" x2="7.341446" y2="6.96929" />
      <path d="M 7.341446,6.96929 C 7.588962,7.123854 7.840203,7.365449 8.063651,7.633904 C 8.287728,7.903085 8.484838,8.198221 8.641887,8.481381" />
      <line x1="8.641887" y1="6.06571" x2="8.641887" y2="8.481381" />
      <path d="M 8.641887,8.481381 Q 8.398794,8.785489 8.136598,9.077651" />
      <path d="M 8.136598,9.077651 C 7.774664,9.036266 7.387154,8.965812 7.020112,8.865337 C 6.654067,8.765154 6.309238,8.633998 6.061965,8.479147" />
      <path d="M 6.061965,8.479147 C 5.921595,8.382365 5.578737,8.201102 5.429874,8.32895" />
      <path d="M 5.429874,8.32895 Q 5.178401,8.569806 4.911074,8.797713" />
      <path d="M 4.911074,8.797713 Q 4.864994,8.842934 4.866311,8.906208" />
      <path d="M 4.866311,8.906208 C 4.866882,9.051627 5.024192,9.241818 5.117602,9.332429" />
      <line x1="5.117602" y1="8.617597" x2="5.117602" y2="9.332429" />
      <path d="M 5.884399,8.376313 L 5.918154,8.522565" />
      <path d="M 5.117602,9.332429 C 5.310116,9.536758 5.480006,9.82598 5.614957,10.134968 C 5.750298,10.444797 5.85177,10.773702 5.918154,11.082131" />
      <line x1="5.918154" y1="8.522565" x2="5.918154" y2="11.082131" />
      <path d="M 5.918154,11.082131 Q 5.59172,11.321829 5.250432,11.54574" />
      <path d="M 5.250432,11.54574 C 4.9133,11.425294 4.560221,11.271083 4.235957,11.092426 C 3.912569,10.914272 3.619006,10.710918 3.426814,10.506366" />
      <path d="M 3.426814,10.506366 C 3.320387,10.381672 3.043823,10.130356 2.861513,10.22075" />
      <path d="M 2.861513,10.22075 Q 2.546042,10.397488 2.219158,10.558193" />
      <path d="M 2.219158,10.558193 C 2.155625,10.592779 2.132185,10.658067 2.132224,10.733167" />
      <path d="M 2.132224,10.733167 C 2.132424,10.867409 2.205521,11.03104 2.257545,11.120607" />
      <line x1="2.257545" y1="10.539246" x2="2.257545" y2="11.120607" />
      <path d="M 2.257545,11.120607 C 2.447676,11.488466 2.525233,12.027306 2.524771,12.527979" />
      <path d="M 2.524771,12.527979 Q 2.52451,12.764439 2.503651,12.988681" />
      <path d="M 2.503651,12.988681 Q 2.116121,13.147633 1.719001,13.288034" />
      <path d="M 1.719001,13.288034 C 1.429644,13.096736 1.135059,12.869278 0.875672,12.624613 C 0.616979,12.38063 0.394687,12.118934 0.270673,11.878621" />
      <path d="M 0.270673,11.878621 C 0.205441,11.734514 0.014021,11.430271 -0.189312,11.477052" />
      <path d="M -0.189312,11.477052 Q -0.547283,11.577627 -0.911448,11.660178" />
      <path d="M -0.911448,11.660178 C -1.0355,11.693596 -1.070853,11.841139 -1.070703,11.982227" />
      <path d="M -1.070703,11.982227 C -1.070688,12.068891 -1.057671,12.153643 -1.043819,12.211963" />
      <line x1="-1.043819" y1="11.796877" x2="-1.043819" y2="12.211963" />
      <path d="M -1.043819,12.211963 Q -1.017389,12.358353 -1.017718,12.526945" />
      <path d="M -1.017718,12.526945 C -1.018559,13.016343 -1.171415,13.593067 -1.368929,14.071102" />
      <path d="M -1.368929,14.071102 Q -1.791145,14.138477 -2.217036,14.1858" />
      <path d="M -2.217036,14.1858 C -2.438896,13.936686 -2.654913,13.651482 -2.831747,13.357483 C -3.008115,13.064296 -3.143987,12.762095 -3.191371,12.502398" />
      <path d="M -3.191371,12.502398 C -3.210962,12.348698 -3.304195,12.012262 -3.514694,12.01224" />
      <path d="M -3.514694,12.01224 Q -3.89077,12.029799 -4.267397,12.028571" />
      <path d="M -4.267397,12.028571 C -4.477627,12.03772 -4.550971,12.37777 -4.561505,12.532123" />
      <path d="M -4.561505,12.532123 C -4.593569,12.793544 -4.711509,13.101252 -4.870424,13.401713 C -5.029756,13.703006 -5.228738,13.997214 -5.435677,14.25563" />
      <path d="M -5.435677,14.25563 Q -5.863806,14.226835 -6.289442,14.177855" />
      <path d="M -6.289442,14.177855 C -6.533707,13.670049 -6.733454,13.039824 -6.734637,12.52911" />
      <path d="M -6.734637,12.52911 Q -6.734728,12.4276 -6.723386,12.335185" />
      <line x1="-6.723386" y1="12.000877" x2="-6.723386" y2="12.335185" />
      <path d="M -6.723386,12.335185 Q -6.709777,12.262575 -6.708469,12.159214" />
      <path d="M -6.708469,12.159214 C -6.70828,12.003258 -6.745723,11.821623 -6.888013,11.789843" />
      <path d="M -6.888013,11.789843 Q -7.256564,11.723188 -7.619989,11.638265" />
      <path d="M -7.619989,11.638265 C -7.825812,11.600361 -7.99911,11.912517 -8.05579,12.059269" />
      <path d="M -8.05579,12.059269 C -8.165525,12.304653 -8.372155,12.575654 -8.616181,12.830545 C -8.860861,13.086146 -9.141705,13.326088 -9.419451,13.529689" />
      <path d="M -9.419451,13.529689 Q -9.824315,13.406688 -10.220692,13.264743" />
      <path d="M -10.220692,13.264743 Q -10.275903,12.905692 -10.277313,12.521671" />
      <path d="M -10.277313,12.521671 C -10.277573,12.110107 -10.221295,11.692802 -10.084672,11.388379" />
      <line x1="-10.084672" y1="10.822712" x2="-10.084672" y2="11.388379" />
      <path d="M -10.084672,11.388379 C -10.040595,11.301814 -9.981765,11.1488 -9.981618,11.019038" />
      <path d="M -9.981618,11.019038 C -9.981566,10.934278 -10.00727,10.860019 -10.079383,10.825017" />
      <path d="M -10.079383,10.825017 Q -10.415294,10.678691 -10.740748,10.515859" />
      <path d="M -10.740748,10.515859 C -10.928138,10.433486 -11.18958,10.696475 -11.288545,10.825624" />
      <path d="M -11.288545,10.825624 C -11.468472,11.038249 -11.749711,11.254075 -12.062218,11.446025 C -12.37557,11.638515 -12.719137,11.80784 -13.048762,11.942751" />
      <path d="M -13.048762,11.942751 Q -13.402772,11.733925 -13.742876,11.508689" />
      <line x1="-13.742876" y1="8.949122" x2="-13.742876" y2="11.508689" />
      <path d="M -13.742876,8.949122 Q -13.726186,8.841183 -13.704073,8.730676" />
      <path d="M -13.742876,11.508689 C -13.6947,11.197774 -13.612684,10.864889 -13.495722,10.549586 C -13.3791,10.23514 -13.226422,9.938919 -13.046161,9.726502" />
      <line x1="-13.046161" y1="9.046305" x2="-13.046161" y2="9.726502" />
      <path d="M -13.046161,9.726502 C -12.960588,9.634518 -12.820375,9.446108 -12.819885,9.30206" />
      <path d="M -12.819885,9.30206 Q -12.81822,9.231076 -12.871317,9.183512" />
      <path d="M -12.871317,9.183512 Q -13.151696,8.967488 -13.417001,8.737844" />
      <path d="M -13.417001,8.737844 C -13.573187,8.616614 -13.904957,8.812514 -14.039461,8.91526" />
      <path d="M -14.039461,8.91526 C -14.277319,9.080636 -14.614001,9.226578 -14.973692,9.342506 C -15.334362,9.458768 -15.717238,9.545937 -16.076279,9.602964" />
      <path d="M -16.076279,9.602964 Q -16.355309,9.322544 -16.615963,9.029365" />
      <line x1="-16.615963" y1="6.592353" x2="-16.615963" y2="9.029365" />
      <path d="M -16.615963,9.029365 C -16.475753,8.739756 -16.296237,8.436448 -16.088263,8.157894 C -15.880876,7.880092 -15.644151,7.62791 -15.406034,7.46281" />
      <line x1="-15.406034" y1="6.51498" x2="-15.406034" y2="7.46281" />
      <path d="M -15.406034,7.46281 C -15.281753,7.384255 -15.051915,7.201399 -15.050976,7.050566" />
      <path d="M -15.050976,7.050566 Q -15.050544,7.01157 -15.073551,6.977195" />
      <path d="M -15.073551,6.977195 Q -15.279289,6.706194 -15.466365,6.425388" />
      <path d="M -15.466365,6.425388 C -15.580704,6.273563 -15.960192,6.389024 -16.121069,6.458364" />
      <path d="M -16.121069,6.458364 C -16.400648,6.565221 -16.769829,6.631334 -17.152192,6.663339 C -17.535601,6.695451 -17.931694,6.694522 -18.295682,6.669779" />
      <path d="M -18.295682,6.669779 Q -18.480717,6.336876 -18.644157,5.995735" />
      <line x1="-18.644157" y1="3.560357" x2="-18.644157" y2="5.995735" />
      <path d="M -18.644157,5.995735 C -18.421469,5.747167 -18.156686,5.494107 -17.871873,5.271284 C -17.587853,5.049057 -17.283215,4.8581 -17.003469,4.751568" />
      <line x1="-17.003469" y1="3.605425" x2="-17.003469" y2="4.751568" />
      <path d="M -17.003469,4.751568 C -16.847322,4.699252 -16.53156,4.554395 -16.530139,4.393326" />
      <path d="M -16.530139,4.393326 Q -16.530086,4.374922 -16.536004,4.356423" />
      <path d="M -16.536004,4.356423 Q -16.653082,4.048913 -16.74918,3.736082" />
      <path d="M -16.74918,3.736082 C -16.813879,3.564009 -17.215224,3.591162 -17.39151,3.62237" />
      <path d="M -17.39151,3.62237 C -17.693758,3.663426 -18.070278,3.645204 -18.449256,3.591106 C -18.829275,3.536878 -19.211592,3.447916 -19.555722,3.343088" />
      <path d="M -19.555722,3.343088 Q -19.634152,2.980389 -19.689241,2.614533" />
      <line x1="-19.689241" y1="0.054967" x2="-19.689241" y2="2.614533" />
      <path d="M -19.689241,0.054967 L -19.557406,-0.029503" />
      <path d="M -19.689241,2.614533 C -19.39925,2.423947 -19.067245,2.23838 -18.725003,2.086474 C -18.383705,1.934967 -18.031915,1.818248 -17.729603,1.777543" />
      <line x1="-17.729603" y1="0.60281" x2="-17.729603" y2="1.777543" />
      <path d="M -17.729603,1.777543 C -17.551084,1.760745 -17.160884,1.681009 -17.159007,1.501049" />
      <path d="M -17.159007,1.501049 L -17.159013,1.499797" />
      <path d="M -17.159013,1.499797 Q -17.178115,1.197894 -17.178117,0.89553" />
      <path d="M -17.178117,0.89553 L -17.178023,0.853197" />
      <path d="M -17.178023,0.853197 C -17.188674,0.672602 -17.584524,0.609597 -17.764206,0.600547" />
      <path d="M -17.764206,0.600547 C -18.068525,0.573003 -18.426726,0.471688 -18.776491,0.335174 C -19.127223,0.198302 -19.469709,0.027369 -19.77053,-0.150399" />
      <line x1="-19.77053" y1="-2.709966" x2="-19.77053" y2="-0.150399" />
      <path d="M -19.77053,-2.709966 Q -19.73701,-3.077744 -19.679993,-3.443382" />
      <path d="M -19.77053,-0.150399 Q -19.73701,-0.518178 -19.679993,-0.883815" />
      <line x1="-19.679993" y1="-3.443382" x2="-19.679993" y2="-0.883815" />
      <path d="M -19.679993,-3.443382 Q -19.321409,-3.571033 -18.925467,-3.667079" />
      <path d="M -19.679993,-0.883815 C -19.342462,-1.003432 -18.96586,-1.10886 -18.589512,-1.179498 C -18.214196,-1.24996 -17.839226,-1.284486 -17.534951,-1.256589" />
      <line x1="-17.534951" y1="-2.534603" x2="-17.534951" y2="-1.256589" />
      <path d="M -17.534951,-1.256589 C -17.357056,-1.233065 -16.954628,-1.22335 -16.900122,-1.39801" />
      <line x1="-16.900122" y1="-2.269249" x2="-16.900122" y2="-1.39801" />
      <path d="M -16.900122,-1.39801 Q -16.82253,-1.714609 -16.723671,-2.026804" />
      <line x1="-16.723671" y1="-2.087466" x2="-16.723671" y2="-2.026804" />
      <path d="M -16.723671,-2.026804 L -16.719776,-2.056928" />
      <path d="M -16.719776,-2.056928 C -16.721288,-2.220808 -17.052493,-2.355078 -17.213759,-2.401174" />
      <path d="M -17.213759,-2.401174 C -17.49941,-2.49544 -17.81488,-2.672943 -18.111597,-2.88257 C -18.40914,-3.092759 -18.688456,-3.334014 -18.925467,-3.572608" />
      <line x1="-18.925467" y1="-6.132175" x2="-18.925467" y2="-3.572608" />
      <path d="M -18.925467,-6.132175 Q -18.782281,-6.479969 -18.617044,-6.820471" />
      <path d="M -18.925467,-3.572608 Q -18.782281,-3.920402 -18.617044,-4.260904" />
      <line x1="-18.617044" y1="-6.820471" x2="-18.617044" y2="-4.260904" />
      <path d="M -18.617044,-6.820471 C -18.129094,-6.875059 -17.5751,-6.889291 -17.078122,-6.834217" />
      <path d="M -18.617044,-4.260904 C -18.254974,-4.3014 -17.859441,-4.319504 -17.474634,-4.304059 C -17.090877,-4.288675 -16.718282,-4.238655 -16.43278,-4.144058" />
      <line x1="-16.43278" y1="-5.764044" x2="-16.43278" y2="-4.144058" />
      <path d="M -16.43278,-4.144058 C -16.268034,-4.081783 -15.882245,-3.982925 -15.776974,-4.139515" />
      <line x1="-15.776974" y1="-5.177828" x2="-15.776974" y2="-4.139515" />
      <path d="M -15.776974,-4.139515 Q -15.606637,-4.428075 -15.417085,-4.707652" />
      <line x1="-15.417085" y1="-4.849736" x2="-15.417085" y2="-4.707652" />
      <path d="M -15.417085,-4.707652 Q -15.398291,-4.739164 -15.398606,-4.773645" />
      <path d="M -15.398606,-4.773645 C -15.399637,-4.926007 -15.646623,-5.103866 -15.777681,-5.17823" />
      <path d="M -15.777681,-5.17823 C -16.025196,-5.332793 -16.276437,-5.574389 -16.499885,-5.842844 C -16.723962,-6.112025 -16.921073,-6.407161 -17.078122,-6.690321" />
      <line x1="-17.078122" y1="-9.249888" x2="-17.078122" y2="-6.690321" />
      <path d="M -17.078122,-9.249888 Q -16.835029,-9.553996 -16.572832,-9.846157" />
      <path d="M -17.078122,-6.690321 Q -16.835029,-6.994429 -16.572832,-7.286591" />
      <line x1="-16.572832" y1="-9.846157" x2="-16.572832" y2="-7.286591" />
      <path d="M -16.572832,-9.846157 C -16.210898,-9.804773 -15.823388,-9.734318 -15.456346,-9.633844 C -15.090301,-9.533661 -14.745472,-9.402505 -14.498199,-9.247654" />
      <path d="M -16.572832,-7.286591 C -16.210898,-7.245206 -15.823388,-7.174752 -15.456346,-7.074277 C -15.090301,-6.974094 -14.745472,-6.842938 -14.498199,-6.688087" />
      <line x1="-14.498199" y1="-9.247654" x2="-14.498199" y2="-6.688087" />
      <path d="M -14.498199,-9.247654 Q -14.429119,-9.199283 -14.320634,-9.144819" />
      <path d="M -14.498199,-6.688087 C -14.35783,-6.591305 -14.014971,-6.410042 -13.866108,-6.53789" />
      <line x1="-13.866108" y1="-7.974245" x2="-13.866108" y2="-6.53789" />
      <path d="M -13.866108,-6.53789 Q -13.614635,-6.778746 -13.347308,-7.006653" />
      <line x1="-13.347308" y1="-7.270372" x2="-13.347308" y2="-7.006653" />
      <path d="M -13.347308,-7.006653 Q -13.301229,-7.051874 -13.302546,-7.115147" />
      <path d="M -13.302546,-7.115147 C -13.303116,-7.260567 -13.460427,-7.450758 -13.553837,-7.541369" />
      <path d="M -13.553837,-7.541369 C -13.74635,-7.745697 -13.91624,-8.03492 -14.051191,-8.343908 C -14.186532,-8.653737 -14.288004,-8.982642 -14.354389,-9.291071" />
      <line x1="-14.354389" y1="-11.850637" x2="-14.354389" y2="-9.291071" />
      <path d="M -14.354389,-11.850637 Q -14.027954,-12.090335 -13.686666,-12.314246" />
      <path d="M -14.354389,-9.291071 Q -14.027954,-9.530769 -13.686666,-9.754679" />
      <line x1="-13.686666" y1="-12.314246" x2="-13.686666" y2="-9.754679" />
      <path d="M -13.686666,-12.314246 C -13.349534,-12.193801 -12.996455,-12.03959 -12.672192,-11.860933 C -12.348804,-11.682779 -12.05524,-11.479424 -11.863048,-11.274872" />
      <path d="M -13.686666,-9.754679 C -13.349534,-9.634234 -12.996455,-9.480023 -12.672192,-9.301366 C -12.348804,-9.123212 -12.05524,-8.919857 -11.863048,-8.715306" />
      <line x1="-11.863048" y1="-11.274872" x2="-11.863048" y2="-8.715306" />
      <path d="M -11.863048,-11.274872 C -11.756621,-11.150179 -11.480058,-10.898862 -11.297748,-10.989257" />
      <path d="M -11.863048,-8.715306 C -11.756621,-8.590612 -11.480058,-8.339295 -11.297748,-8.42969" />
      <line x1="-11.297748" y1="-10.989257" x2="-11.297748" y2="-8.42969" />
      <path d="M -11.297748,-10.989257 Q -11.131025,-11.082662 -10.961006,-11.171643" />
      <path d="M -11.297748,-8.42969 Q -10.982276,-8.606427 -10.655392,-8.767133" />
      <line x1="-10.655392" y1="-9.256659" x2="-10.655392" y2="-8.767133" />
      <path d="M -10.655392,-8.767133 C -10.591859,-8.801719 -10.568419,-8.867007 -10.568459,-8.942106" />
      <path d="M -10.568459,-8.942106 C -10.568659,-9.076349 -10.641755,-9.23998 -10.693779,-9.329547" />
      <path d="M -10.961006,-13.296485 Q -10.960745,-13.532945 -10.939886,-13.757187" />
      <path d="M -10.693779,-9.329547 C -10.88391,-9.697406 -10.961468,-10.236246 -10.961006,-10.736918" />
      <path d="M -10.961006,-10.736918 Q -10.960745,-10.973379 -10.939886,-11.197621" />
      <line x1="-10.939886" y1="-13.757187" x2="-10.939886" y2="-11.197621" />
      <path d="M -10.939886,-13.757187 Q -10.552356,-13.916139 -10.155235,-14.05654" />
      <path d="M -10.939886,-11.197621 Q -10.552356,-11.356573 -10.155235,-11.496974" />
      <line x1="-10.155235" y1="-14.05654" x2="-10.155235" y2="-11.496974" />
      <path d="M -10.155235,-14.05654 C -9.865879,-13.865243 -9.571293,-13.637785 -9.311906,-13.39312 C -9.053213,-13.149136 -8.830921,-12.887441 -8.706908,-12.647128" />
      <path d="M -10.155235,-11.496974 C -9.865879,-11.305676 -9.571293,-11.078218 -9.311906,-10.833553 C -9.053213,-10.589569 -8.830921,-10.327874 -8.706908,-10.087561" />
      <line x1="-8.706908" y1="-12.647128" x2="-8.706908" y2="-10.087561" />
      <path d="M -8.706908,-12.647128 C -8.641676,-12.503021 -8.450255,-12.198778 -8.246922,-12.245558" />
      <path d="M -8.706908,-10.087561 C -8.641676,-9.943454 -8.450255,-9.639211 -8.246922,-9.685992" />
      <line x1="-8.246922" y1="-12.245558" x2="-8.246922" y2="-9.685992" />
      <path d="M -8.246922,-12.245558 Q -7.888951,-12.346133 -7.524787,-12.428685" />
      <path d="M -8.246922,-9.685992 Q -7.888951,-9.786567 -7.524787,-9.869118" />
      <line x1="-7.524787" y1="-12.428685" x2="-7.524787" y2="-9.869118" />
      <path d="M -7.524787,-12.428685 Q -7.454564,-12.449437 -7.418517,-12.510151" />
      <path d="M -7.524787,-9.869118 C -7.400734,-9.902536 -7.365381,-10.050079 -7.365531,-10.191167" />
      <path d="M -7.365531,-10.191167 C -7.365546,-10.277831 -7.378564,-10.362583 -7.392416,-10.420903" />
      <path d="M -7.418517,-13.295452 C -7.417675,-13.784849 -7.264819,-14.361574 -7.067305,-14.839608" />
      <path d="M -7.392416,-10.420903 Q -7.418845,-10.567293 -7.418517,-10.735885" />
      <path d="M -7.418517,-10.735885 C -7.417675,-11.225283 -7.264819,-11.802007 -7.067305,-12.280042" />
      <line x1="-7.067305" y1="-14.839608" x2="-7.067305" y2="-12.280042" />
      <path d="M -7.067305,-14.839608 Q -6.645089,-14.906983 -6.219199,-14.954306" />
      <path d="M -7.067305,-12.280042 Q -6.645089,-12.347416 -6.219199,-12.39474" />
      <line x1="-6.219199" y1="-14.954306" x2="-6.219199" y2="-12.39474" />
      <path d="M -6.219199,-14.954306 C -5.997338,-14.705193 -5.781321,-14.419988 -5.604487,-14.125989 C -5.428119,-13.832803 -5.292248,-13.530601 -5.244863,-13.270904" />
      <path d="M -6.219199,-12.39474 C -5.997338,-12.145626 -5.781321,-11.860422 -5.604487,-11.566423 C -5.428119,-11.273236 -5.292248,-10.971035 -5.244863,-10.711337" />
      <line x1="-5.244863" y1="-13.270904" x2="-5.244863" y2="-10.711337" />
      <path d="M -5.244863,-13.270904 C -5.225272,-13.117204 -5.132039,-12.780768 -4.92154,-12.780747" />
      <path d="M -5.244863,-10.711337 C -5.225272,-10.557637 -5.132039,-10.221202 -4.92154,-10.22118" />
      <line x1="-4.92154" y1="-12.780747" x2="-4.92154" y2="-10.22118" />
      <path d="M -4.92154,-12.780747 Q -4.545465,-12.798305 -4.168837,-12.797077" />
      <path d="M -4.92154,-10.22118 Q -4.545465,-10.238738 -4.168837,-10.23751" />
      <line x1="-4.168837" y1="-12.797077" x2="-4.168837" y2="-10.23751" />
      <path d="M -4.168837,-12.797077 C -3.958607,-12.806227 -3.885264,-13.146276 -3.874729,-13.30063" />
      <path d="M -4.168837,-10.23751 C -3.958607,-10.24666 -3.885264,-10.58671 -3.874729,-10.741063" />
      <line x1="-3.874729" y1="-13.30063" x2="-3.874729" y2="-10.741063" />
      <path d="M -3.874729,-13.30063 C -3.842666,-13.562051 -3.724726,-13.869759 -3.56581,-14.17022 C -3.406478,-14.471512 -3.207496,-14.76572 -3.000557,-15.024136" />
      <path d="M -3.874729,-10.741063 C -3.842666,-11.002484 -3.724726,-11.310192 -3.56581,-11.610653 C -3.406478,-11.911945 -3.207496,-12.206154 -3.000557,-12.46457" />
      <line x1="-3.000557" y1="-15.024136" x2="-3.000557" y2="-12.46457" />
      <path d="M -3.000557,-15.024136 Q -2.572429,-14.995342 -2.146792,-14.946362" />
      <path d="M -3.000557,-12.46457 Q -2.572429,-12.435775 -2.146792,-12.386795" />
      <line x1="-2.146792" y1="-14.946362" x2="-2.146792" y2="-12.386795" />
      <path d="M -2.146792,-14.946362 C -1.902527,-14.438555 -1.70278,-13.80833 -1.701597,-13.297616" />
      <path d="M -2.146792,-12.386795 C -1.902527,-11.878989 -1.70278,-11.248764 -1.701597,-10.73805" />
      <path d="M -1.701597,-10.73805 Q -1.701506,-10.63654 -1.712848,-10.544125" />
      <path d="M -1.701597,-12.72559 C -1.676222,-12.642982 -1.628935,-12.576239 -1.548221,-12.55835" />
      <path d="M -1.712848,-10.544125 Q -1.726457,-10.471515 -1.727765,-10.368154" />
      <path d="M -1.727765,-10.368154 C -1.727955,-10.212198 -1.690511,-10.030563 -1.548221,-9.998783" />
      <line x1="-1.548221" y1="-12.55835" x2="-1.548221" y2="-9.998783" />
      <path d="M -1.548221,-12.55835 Q -1.17967,-12.491695 -0.816246,-12.406771" />
      <path d="M -1.548221,-9.998783 Q -1.17967,-9.932128 -0.816246,-9.847205" />
      <line x1="-0.816246" y1="-12.406771" x2="-0.816246" y2="-9.847205" />
      <path d="M -0.816246,-12.406771 C -0.610423,-12.368868 -0.437125,-12.681023 -0.380444,-12.827775" />
      <path d="M -0.816246,-9.847205 C -0.610423,-9.809301 -0.437125,-10.121457 -0.380444,-10.268209" />
      <line x1="-0.380444" y1="-12.827775" x2="-0.380444" y2="-10.268209" />
      <path d="M -0.380444,-12.827775 C -0.27071,-13.07316 -0.064079,-13.34416 0.179947,-13.599051 C 0.424626,-13.854652 0.70547,-14.094594 0.983216,-14.298196" />
      <path d="M -0.380444,-10.268209 C -0.27071,-10.513593 -0.064079,-10.784594 0.179947,-11.039485 C 0.424626,-11.295085 0.70547,-11.535028 0.983216,-11.738629" />
      <line x1="0.983216" y1="-14.298196" x2="0.983216" y2="-11.738629" />
      <path d="M 0.983216,-14.298196 Q 1.388081,-14.175194 1.784457,-14.033249" />
      <path d="M 0.983216,-11.738629 Q 1.388081,-11.615628 1.784457,-11.473683" />
      <line x1="1.784457" y1="-14.033249" x2="1.784457" y2="-11.473683" />
      <path d="M 1.784457,-14.033249 Q 1.839669,-13.674199 1.841079,-13.290177" />
      <path d="M 1.784457,-11.473683 Q 1.839669,-11.114632 1.841079,-10.730611" />
      <path d="M 1.841079,-10.730611 C 1.841339,-10.319047 1.785061,-9.901742 1.648437,-9.597319" />
      <path d="M 1.648437,-9.597319 C 1.60436,-9.510754 1.54553,-9.35774 1.545384,-9.227978" />
      <path d="M 1.545384,-9.227978 C 1.545332,-9.143218 1.571036,-9.068959 1.643149,-9.033957" />
      <line x1="1.643149" y1="-9.586762" x2="1.643149" y2="-9.033957" />
      <path d="M 1.841079,-11.505458 Q 2.075449,-11.398974 2.304514,-11.284366" />
      <path d="M 1.643149,-9.033957 Q 1.979059,-8.887631 2.304514,-8.724799" />
      <line x1="2.304514" y1="-11.284366" x2="2.304514" y2="-8.724799" />
      <path d="M 2.304514,-11.284366 C 2.491903,-11.201992 2.753346,-11.464981 2.85231,-11.59413" />
      <path d="M 2.304514,-8.724799 C 2.491903,-8.642425 2.753346,-8.905415 2.85231,-9.034564" />
      <line x1="2.85231" y1="-11.59413" x2="2.85231" y2="-9.034564" />
      <path d="M 2.85231,-11.59413 C 3.032237,-11.806756 3.313477,-12.022581 3.625984,-12.214531 C 3.939336,-12.407022 4.282902,-12.576347 4.612527,-12.711258" />
      <path d="M 2.85231,-9.034564 C 3.032237,-9.247189 3.313477,-9.463015 3.625984,-9.654965 C 3.939336,-9.847455 4.282902,-10.01678 4.612527,-10.151691" />
      <line x1="4.612527" y1="-12.711258" x2="4.612527" y2="-10.151691" />
      <path d="M 4.612527,-12.711258 Q 4.966538,-12.502432 5.306641,-12.277195" />
      <path d="M 4.612527,-10.151691 Q 4.966538,-9.942865 5.306641,-9.717629" />
      <line x1="5.306641" y1="-12.277195" x2="5.306641" y2="-9.717629" />
      <path d="M 5.306641,-9.717629 C 5.258466,-9.406714 5.17645,-9.073828 5.059488,-8.758526 C 4.942866,-8.44408 4.790188,-8.147858 4.609927,-7.935442" />
      <path d="M 4.609927,-7.935442 C 4.524354,-7.843458 4.38414,-7.655048 4.383651,-7.511" />
      <path d="M 4.383651,-7.511 Q 4.381985,-7.440016 4.435083,-7.392452" />
      <line x1="4.435083" y1="-7.688697" x2="4.435083" y2="-7.392452" />
      <path d="M 4.435083,-7.392452 Q 4.715462,-7.176428 4.980767,-6.946784" />
      <line x1="4.980767" y1="-8.562195" x2="4.980767" y2="-6.946784" />
      <path d="M 5.267839,-9.499182 C 5.398372,-9.544323 5.52884,-9.627189 5.603226,-9.683766" />
      <path d="M 4.980767,-6.946784 C 5.136953,-6.825554 5.468723,-7.021454 5.603226,-7.124199" />
      <line x1="5.603226" y1="-9.683766" x2="5.603226" y2="-7.124199" />
      <path d="M 5.603226,-9.683766 C 5.841084,-9.849142 6.177767,-9.995084 6.537458,-10.111012 C 6.898128,-10.227275 7.281004,-10.314443 7.640045,-10.37147" />
      <path d="M 5.603226,-7.124199 C 5.841084,-7.289576 6.177767,-7.435518 6.537458,-7.551446 C 6.898128,-7.667708 7.281004,-7.754877 7.640045,-7.811903" />
      <line x1="7.640045" y1="-10.37147" x2="7.640045" y2="-7.811903" />
      <path d="M 7.640045,-10.37147 Q 7.919075,-10.091051 8.179728,-9.797872" />
      <path d="M 7.640045,-7.811903 Q 7.919075,-7.531484 8.179728,-7.238305" />
      <line x1="8.179728" y1="-9.797872" x2="8.179728" y2="-7.238305" />
      <path d="M 8.179728,-7.238305 C 8.039519,-6.948696 7.860003,-6.645388 7.652029,-6.366834 C 7.444641,-6.089031 7.207917,-5.836849 6.969799,-5.671749" />
      <path d="M 6.969799,-5.671749 C 6.845519,-5.593195 6.615681,-5.410339 6.614741,-5.259506" />
      <path d="M 6.614741,-5.259506 Q 6.61431,-5.22051 6.637316,-5.186135" />
      <line x1="6.637316" y1="-5.347244" x2="6.637316" y2="-5.186135" />
      <path d="M 6.637316,-5.186135 Q 6.843055,-4.915134 7.030131,-4.634328" />
      <line x1="7.030131" y1="-5.715454" x2="7.030131" y2="-4.634328" />
      <path d="M 7.030131,-4.634328 C 7.14447,-4.482503 7.523958,-4.597964 7.684834,-4.667304" />
      <line x1="7.684834" y1="-6.411277" x2="7.684834" y2="-4.667304" />
      <path d="M 8.179728,-7.360859 C 8.704338,-7.459512 9.321607,-7.474903 9.859448,-7.438285" />
      <path d="M 7.684834,-4.667304 C 7.964413,-4.774161 8.333595,-4.840273 8.715958,-4.872279 C 9.099367,-4.904391 9.49546,-4.903462 9.859448,-4.878718" />
      <line x1="9.859448" y1="-7.438285" x2="9.859448" y2="-4.878718" />
      <path d="M 9.859448,-7.438285 Q 10.044483,-7.105382 10.207923,-6.764241" />
      <path d="M 9.859448,-4.878718 Q 10.044483,-4.545816 10.207923,-4.204674" />
      <line x1="10.207923" y1="-6.764241" x2="10.207923" y2="-4.204674" />
      <path d="M 10.207923,-4.204674 C 9.985235,-3.956107 9.720452,-3.703047 9.435639,-3.480224 C 9.151619,-3.257997 8.846981,-3.06704 8.567234,-2.960507" />
      <path d="M 8.567234,-2.960507 C 8.411087,-2.908191 8.095325,-2.763335 8.093905,-2.602266" />
      <path d="M 8.093905,-2.602266 Q 8.093851,-2.583861 8.099769,-2.565363" />
      <line x1="8.099769" y1="-2.640278" x2="8.099769" y2="-2.565363" />
      <path d="M 8.099769,-2.565363 Q 8.216848,-2.257853 8.312946,-1.945022" />
      <line x1="8.312946" y1="-2.846583" x2="8.312946" y2="-1.945022" />
      <path d="M 8.312946,-1.945022 C 8.377645,-1.772949 8.778989,-1.800102 8.955276,-1.83131" />
      <line x1="8.955276" y1="-3.15041" x2="8.955276" y2="-1.83131" />
      <path d="M 10.207923,-4.328863 C 10.522959,-4.274397 10.834026,-4.198561 11.119488,-4.111595" />
      <path d="M 8.955276,-1.83131 C 9.257523,-1.872366 9.634044,-1.854144 10.013021,-1.800046 C 10.393041,-1.745818 10.775357,-1.656856 11.119488,-1.552028" />
      <line x1="11.119488" y1="-4.111595" x2="11.119488" y2="-1.552028" />
      <path d="M 11.119488,-4.111595 Q 11.197918,-3.748895 11.253007,-3.38304" />
      <path d="M 11.119488,-1.552028 Q 11.197918,-1.189329 11.253007,-0.823473" />
      <line x1="11.253007" y1="-3.38304" x2="11.253007" y2="-0.823473" />
      <path d="M 11.253007,-0.823473 C 10.963015,-0.632887 10.631011,-0.44732 10.288768,-0.295413 C 9.947471,-0.143906 9.59568,-0.027188 9.293368,0.013517" />
      <path d="M 9.293368,0.013517 C 9.114849,0.030315 8.72465,0.110051 8.722773,0.290011" />
      <path d="M 8.722773,0.290011 L 8.722779,0.291264" />
      <path d="M 15.218532,-5.526083 L 15.218532,-2.966517" />
      <path d="M 20.733884,-5.515166 L 20.733884,-2.9556" />
      <path d="M 19.304363,7.478614 L 19.304363,8.670977" />
      <path d="M 13.789011,6.800044 L 13.789011,8.660061" />
      <path d="M 8.741883,0.22437 L 8.741883,0.89553" />
      <path d="M 2.524771,10.403137 L 2.524771,12.527979" />
      <path d="M -1.017718,11.741645 L -1.017718,12.526945" />
      <path d="M -6.734637,11.957084 L -6.734637,12.52911" />
      <path d="M -10.277313,10.736952 L -10.277313,12.521671" />
      <path d="M -17.178117,0.851508 L -17.178117,0.89553" />
      <path d="M -10.961006,-13.296485 L -10.961006,-10.736918" />
      <path d="M -7.418517,-13.295452 L -7.418517,-10.735885" />
      <path d="M -1.701597,-13.297616 L -1.701597,-10.73805" />
      <path d="M 1.841079,-13.290177 L 1.841079,-10.730611" />
    </g>
  </g>
</svg>