<?xml version='1.0' encoding='utf-8'?>
<svg width="100.09mm" height="73.815412mm" viewBox="-19.337458 -16.159235 44.812517 33.0488" version="1.1" xmlns="http://www.w3.org/2000/svg">
  <g transform="scale(1,-1)" stroke-linecap="round">
    <g fill="none" stroke="rgb(0,0,0)" stroke-width="0.0402949997663946" id="Visible">
      <line x1="13.678228" y1="2.226154" x2="13.678228" y2="2.888782" />
      <path d="M 13.678228,2.888782 Q 13.702174,2.586805 13.767202,2.290434" />
      <path d="M 13.767202,2.290434 C 13.574937,2.148973 13.385707,2.026399 13.19951,1.922712 C 13.013492,1.818854 12.825726,1.732631 12.685705,1.690232" />
      <path d="M 12.685705,1.690232 C 12.558791,1.647966 12.405662,1.553646 12.262051,1.437707 C 12.117321,1.320641 11.981371,1.184842 11.854201,1.030311" />
      <line x1="11.854201" y1="0.184114" x2="11.854201" y2="1.030311" />
      <path d="M 11.854201,1.030311 Q 12.011187,0.598784 12.227752,0.191611" />
      <line x1="12.227752" y1="0.180353" x2="12.227752" y2="0.191611" />
      <path d="M 12.227752,0.191611 C 12.4322,0.172638 12.628606,0.172699 12.816971,0.191794 C 13.003713,0.210896 13.180749,0.25154 13.300418,0.310071" />
      <line x1="13.300418" y1="-0.0571" x2="13.300418" y2="0.310071" />
      <path d="M 13.665416,-0.978234 Q 13.964981,-0.882948 14.31149,-0.821496" />
      <path d="M 13.300418,0.310071 C 13.429257,0.377576 13.624158,0.447779 13.83114,0.504571 C 14.038116,0.561604 14.261424,0.607666 14.501065,0.642758" />
      <line x1="14.501065" y1="-0.566061" x2="14.501065" y2="0.642758" />
      <path d="M 14.501065,0.642758 Q 14.679408,0.392708 14.890404,0.167192" />
      <path d="M 14.890404,0.167192 C 14.797728,-0.047413 14.697823,-0.244208 14.590688,-0.423193 C 14.483796,-0.602241 14.366187,-0.766853 14.267053,-0.870642" />
      <path d="M 14.267053,-0.870642 C 14.179202,-0.968039 14.095815,-1.123072 14.031954,-1.292269 C 13.967713,-1.462978 13.920852,-1.645704 13.891371,-1.840447" />
      <line x1="13.891371" y1="-3.274055" x2="13.891371" y2="-1.840447" />
      <path d="M 13.891371,-3.274055 Q 14.252545,-3.572572 14.652605,-3.821458" />
      <path d="M 13.891371,-1.840447 Q 14.252545,-2.138963 14.652605,-2.387849" />
      <line x1="14.652605" y1="-3.821458" x2="14.652605" y2="-2.387849" />
      <path d="M 14.652605,-3.821458 C 14.839564,-3.739957 15.009625,-3.645825 15.162788,-3.539059 C 15.314542,-3.433066 15.446646,-3.313066 15.519735,-3.205054" />
      <path d="M 14.652605,-2.387849 C 14.839564,-2.306349 15.009625,-2.212216 15.162788,-2.105451 C 15.314542,-1.999457 15.446646,-1.879457 15.519735,-1.771445" />
      <line x1="15.519735" y1="-3.205054" x2="15.519735" y2="-1.771445" />
      <path d="M 15.519735,-3.205054 C 15.596081,-3.084878 15.728231,-2.930721 15.877842,-2.782393 C 16.027322,-2.633858 16.196672,-2.487001 16.385892,-2.341821" />
      <path d="M 15.519735,-1.771445 C 15.596081,-1.651269 15.728231,-1.497113 15.877842,-1.348784 C 16.027322,-1.20025 16.196672,-1.053392 16.385892,-0.908212" />
      <line x1="16.385892" y1="-2.341821" x2="16.385892" y2="-0.908212" />
      <path d="M 16.385892,-2.341821 Q 16.664725,-2.470128 16.958453,-2.563137" />
      <path d="M 16.385892,-0.908212 Q 16.670846,-1.039334 16.971274,-1.133567" />
      <line x1="16.971274" y1="-2.340521" x2="16.971274" y2="-1.133567" />
      <path d="M 16.971274,-1.133567 Q 17.019909,-1.48628 17.019864,-1.801741" />
      <path d="M 17.019864,-1.801741 C 17.020048,-2.003095 17.004086,-2.196581 16.973096,-2.330948" />
      <path d="M 16.958453,-3.933782 C 16.959782,-4.191917 17.033459,-4.495199 17.153899,-4.784386" />
      <path d="M 16.973096,-2.330948 Q 16.958356,-2.406285 16.958453,-2.500173" />
      <path d="M 16.958453,-2.500173 C 16.959782,-2.758309 17.033459,-3.061591 17.153899,-3.350777" />
      <line x1="17.153899" y1="-4.784386" x2="17.153899" y2="-3.350777" />
      <path d="M 17.153899,-4.784386 Q 17.622484,-4.869904 18.098843,-4.893814" />
      <path d="M 17.153899,-3.350777 Q 17.622484,-3.436296 18.098843,-3.460206" />
      <line x1="18.098843" y1="-4.893814" x2="18.098843" y2="-3.460206" />
      <path d="M 18.098843,-4.893814 C 18.218218,-4.733678 18.316366,-4.570696 18.393287,-4.404869 C 18.46939,-4.240385 18.521167,-4.073183 18.52809,-3.944631" />
      <path d="M 18.098843,-3.460206 C 18.218218,-3.30007 18.316366,-3.137088 18.393287,-2.97126 C 18.46939,-2.806776 18.521167,-2.639574 18.52809,-2.511023" />
      <line x1="18.52809" y1="-3.944631" x2="18.52809" y2="-2.511023" />
      <path d="M 18.52809,-3.944631 C 18.531486,-3.803986 18.565475,-3.607182 18.617628,-3.407061 C 18.669559,-3.206824 18.739574,-2.998522 18.827672,-2.782154" />
      <path d="M 18.52809,-2.511023 C 18.531486,-2.370377 18.565475,-2.173573 18.617628,-1.973452 C 18.669559,-1.773215 18.739574,-1.564913 18.827672,-1.348546" />
      <line x1="18.827672" y1="-2.782154" x2="18.827672" y2="-1.348546" />
      <path d="M 18.827672,-2.782154 Q 19.142884,-2.759214 19.452243,-2.696916" />
      <path d="M 18.827672,-1.348546 Q 19.142884,-1.325605 19.452243,-1.263308" />
      <line x1="19.452243" y1="-2.696916" x2="19.452243" y2="-1.263308" />
      <path d="M 19.452243,-2.696916 C 19.599904,-2.881109 19.72785,-3.062394 19.836081,-3.240773 C 19.944491,-3.418981 20.034493,-3.598864 20.078749,-3.733006" />
      <path d="M 19.452243,-1.263308 C 19.599904,-1.4475 19.72785,-1.628785 19.836081,-1.807164 C 19.944491,-1.985372 20.034493,-2.165255 20.078749,-2.299397" />
      <line x1="20.078749" y1="-3.733006" x2="20.078749" y2="-2.299397" />
      <path d="M 20.078749,-3.733006 C 20.122868,-3.854591 20.221322,-4.00129 20.342342,-4.138872 C 20.464539,-4.277525 20.606289,-4.407767 20.767592,-4.529598" />
      <path d="M 20.078749,-2.299397 C 20.122868,-2.420982 20.221322,-2.567682 20.342342,-2.705263 C 20.464539,-2.843916 20.606289,-2.974158 20.767592,-3.095989" />
      <line x1="20.767592" y1="-4.529598" x2="20.767592" y2="-3.095989" />
      <path d="M 20.767592,-4.529598 Q 21.218032,-4.379203 21.64305,-4.171731" />
      <path d="M 20.767592,-3.095989 Q 21.218032,-2.945594 21.64305,-2.738122" />
      <line x1="21.64305" y1="-4.171731" x2="21.64305" y2="-2.738122" />
      <path d="M 21.64305,-4.171731 Q 21.657857,-4.024352 21.657838,-3.883257" />
      <path d="M 21.64305,-2.738122 Q 21.657857,-2.590744 21.657838,-2.449648" />
      <path d="M 21.657838,-2.449648 C 21.658602,-2.171546 21.611771,-1.884854 21.519398,-1.710493" />
      <path d="M 21.519398,-1.710493 C 21.448934,-1.587063 21.375655,-1.400345 21.316374,-1.202054 C 21.256842,-1.003768 21.208761,-0.789836 21.172131,-0.560256" />
      <path d="M 21.531402,-1.734253 L 21.668539,-1.620873" />
      <path d="M 21.172131,-0.560256 Q 21.43314,-0.389401 21.668539,-0.187264" />
      <line x1="21.668539" y1="-1.620873" x2="21.668539" y2="-0.187264" />
      <path d="M 21.668539,-1.620873 C 21.892549,-1.709657 22.097969,-1.805368 22.284798,-1.908005 C 22.471693,-2.010409 22.64352,-2.12308 22.751858,-2.218052" />
      <path d="M 21.668539,-0.187264 C 21.892549,-0.276049 22.097969,-0.371759 22.284798,-0.474396 C 22.471693,-0.5768 22.64352,-0.689472 22.751858,-0.784443" />
      <line x1="22.751858" y1="-2.218052" x2="22.751858" y2="-0.784443" />
      <path d="M 22.751858,-2.218052 C 22.853523,-2.302215 23.01535,-2.3821 23.191963,-2.44328 C 23.370153,-2.504824 23.560887,-2.549717 23.764165,-2.57796" />
      <path d="M 22.751858,-0.784443 C 22.853523,-0.868606 23.01535,-0.948491 23.191963,-1.009671 C 23.370153,-1.071215 23.560887,-1.116108 23.764165,-1.144351" />
      <line x1="23.764165" y1="-2.57796" x2="23.764165" y2="-1.144351" />
      <path d="M 23.764165,-2.57796 Q 24.075764,-2.231951 24.335558,-1.848688" />
      <path d="M 23.764165,-1.144351 Q 24.075764,-0.798342 24.335558,-0.415079" />
      <line x1="24.335558" y1="-1.848688" x2="24.335558" y2="-0.415079" />
      <path d="M 24.335558,-0.415079 C 24.250486,-0.23597 24.152227,-0.073049 24.040783,0.073683 C 23.930144,0.219065 23.804885,0.345624 23.692139,0.415644" />
      <path d="M 23.692139,0.415644 C 23.566696,0.488784 23.405784,0.615385 23.250955,0.758715 C 23.09591,0.901919 22.942617,1.064159 22.791074,1.245434" />
      <path d="M 22.791074,1.245434 Q 22.927942,1.518424 23.026306,1.806238" />
      <line x1="23.026306" y1="0.980847" x2="23.026306" y2="1.806238" />
      <path d="M 23.686383,0.419028 C 23.910293,0.42104 24.127484,0.405845 24.276163,0.374374" />
      <path d="M 23.026306,1.806238 C 23.266642,1.836651 23.494494,1.85216 23.70986,1.852767 C 23.925162,1.853606 24.132773,1.838336 24.276163,1.807983" />
      <line x1="24.276163" y1="0.374374" x2="24.276163" y2="1.807983" />
      <path d="M 24.276163,0.374374 C 24.408133,0.350185 24.589973,0.358519 24.774855,0.390135 C 24.961292,0.42219 25.149903,0.474674 25.340688,0.547587" />
      <path d="M 24.276163,1.807983 C 24.408133,1.783794 24.589973,1.792128 24.774855,1.823743 C 24.961292,1.855799 25.149903,1.908283 25.340688,1.981195" />
      <line x1="25.340688" y1="0.547587" x2="25.340688" y2="1.981195" />
      <path d="M 25.340688,0.547587 Q 25.429954,0.996498 25.454912,1.452856" />
      <path d="M 25.340688,1.981195 Q 25.429954,2.430107 25.454912,2.886465" />
      <line x1="25.454912" y1="1.452856" x2="25.454912" y2="2.886465" />
      <path d="M 25.454912,2.886465 C 25.287757,3.000828 25.117633,3.094855 24.944538,3.168546 C 24.772845,3.241454 24.598315,3.291057 24.46413,3.29769" />
      <path d="M 24.46413,3.29769 C 24.31732,3.300943 24.111891,3.333505 23.903,3.383468 C 23.693987,3.433219 23.476556,3.500294 23.250706,3.584693" />
      <path d="M 23.250706,3.584693 Q 23.22676,3.88667 23.161732,4.183041" />
      <path d="M 24.177368,3.32774 Q 24.21187,3.340107 24.243229,3.349634" />
      <path d="M 23.161732,4.183041 C 23.353997,4.324502 23.543227,4.447076 23.729424,4.550764 C 23.915442,4.654621 24.103208,4.740844 24.243229,4.783243" />
      <line x1="24.243229" y1="3.349634" x2="24.243229" y2="4.783243" />
      <path d="M 24.243229,3.349634 C 24.370143,3.3919 24.523272,3.48622 24.666883,3.602159 C 24.811613,3.719226 24.947563,3.855024 25.074733,4.009555" />
      <path d="M 24.243229,4.783243 C 24.370143,4.825509 24.523272,4.919829 24.666883,5.035768 C 24.811613,5.152834 24.947563,5.288633 25.074733,5.443164" />
      <line x1="25.074733" y1="4.009555" x2="25.074733" y2="5.443164" />
      <path d="M 25.074733,5.443164 Q 24.917747,5.874691 24.701182,6.281864" />
      <path d="M 24.701182,6.281864 C 24.496734,6.300838 24.300328,6.300776 24.111963,6.281681 C 23.925221,6.262579 23.748185,6.221935 23.628515,6.163404" />
      <path d="M 23.628515,6.163404 C 23.499677,6.095899 23.304775,6.025696 23.097794,5.968905 C 22.890818,5.911872 22.66751,5.865809 22.427869,5.830718" />
      <path d="M 22.427869,5.830718 Q 22.249525,6.080767 22.03853,6.306283" />
      <path d="M 22.617443,5.861362 L 22.66188,5.910509" />
      <path d="M 22.03853,6.306283 C 22.131205,6.520888 22.231111,6.717683 22.338246,6.896668 C 22.445138,7.075716 22.562747,7.240328 22.66188,7.344118" />
      <line x1="22.66188" y1="5.910509" x2="22.66188" y2="7.344118" />
      <path d="M 22.66188,5.910509 C 22.749732,6.007905 22.833118,6.162939 22.896979,6.332136 C 22.961221,6.502844 23.008082,6.68557 23.037562,6.880313" />
      <path d="M 22.66188,7.344118 C 22.749732,7.441514 22.833118,7.596547 22.896979,7.765744 C 22.961221,7.936453 23.008082,8.119179 23.037562,8.313922" />
      <line x1="23.037562" y1="6.880313" x2="23.037562" y2="8.313922" />
      <path d="M 23.037562,8.313922 Q 22.676389,8.612438 22.276329,8.861324" />
      <path d="M 22.276329,8.861324 C 22.08937,8.779824 21.919309,8.685691 21.766146,8.578926 C 21.614392,8.472932 21.482287,8.352933 21.409199,8.24492" />
      <path d="M 21.409199,8.24492 C 21.332853,8.124744 21.200703,7.970588 21.051092,7.82226 C 20.901612,7.673725 20.732262,7.526867 20.543041,7.381687" />
      <path d="M 20.543041,7.381687 Q 20.258087,7.512809 19.95766,7.607043" />
      <path d="M 19.95766,7.607043 Q 19.909024,7.959755 19.90907,8.275217" />
      <path d="M 19.90907,8.275217 C 19.908885,8.47657 19.924848,8.670057 19.955838,8.804423" />
      <line x1="19.955838" y1="7.62036" x2="19.955838" y2="8.804423" />
      <path d="M 19.955838,8.804423 Q 19.970578,8.87976 19.97048,8.973649" />
      <path d="M 19.97048,8.973649 C 19.969152,9.231784 19.895474,9.535066 19.775035,9.824253" />
      <path d="M 19.775035,9.824253 Q 19.306449,9.909771 18.830091,9.933681" />
      <path d="M 18.830091,9.933681 C 18.710715,9.773545 18.612568,9.610563 18.535647,9.444736 C 18.459544,9.280251 18.407767,9.113049 18.400843,8.984498" />
      <path d="M 18.400843,8.984498 C 18.397447,8.843853 18.363458,8.647048 18.311306,8.446928 C 18.259375,8.246691 18.18936,8.038389 18.101262,7.822021" />
      <path d="M 18.101262,7.822021 Q 17.78605,7.799081 17.476691,7.736783" />
      <path d="M 17.476691,7.736783 C 17.32903,7.920975 17.201083,8.102261 17.092852,8.280639 C 16.984443,8.458848 16.894441,8.63873 16.850184,8.772872" />
      <path d="M 16.850184,8.772872 C 16.806065,8.894458 16.707612,9.041157 16.586592,9.178739 C 16.464395,9.317392 16.322645,9.447634 16.161341,9.569464" />
      <path d="M 16.161341,9.569464 Q 15.710902,9.419069 15.285884,9.211597" />
      <path d="M 15.271096,7.489515 C 15.270517,7.223459 15.312804,6.95107 15.397532,6.77412" />
      <path d="M 15.285884,9.211597 Q 15.271076,9.064219 15.271096,8.923123" />
      <path d="M 15.271096,8.923123 C 15.270331,8.645022 15.317163,8.358329 15.409536,8.183968" />
      <line x1="15.409536" y1="6.783641" x2="15.409536" y2="8.183968" />
      <path d="M 15.409536,8.183968 C 15.48,8.060539 15.553279,7.873821 15.612559,7.675529 C 15.672092,7.477244 15.720173,7.263311 15.756803,7.033732" />
      <path d="M 15.756803,7.033732 Q 15.495794,6.862876 15.260395,6.660739" />
      <path d="M 15.260395,6.660739 C 15.036385,6.749524 14.830965,6.845235 14.644135,6.947872 C 14.457241,7.050276 14.285414,7.162947 14.177076,7.257918" />
      <path d="M 14.177076,7.257918 C 14.075411,7.342081 13.913583,7.421967 13.736971,7.483146 C 13.558781,7.54469 13.368047,7.589584 13.164769,7.617827" />
      <path d="M 13.164769,7.617827 Q 12.85317,7.271817 12.593376,6.888554" />
      <line x1="12.593376" y1="5.964297" x2="12.593376" y2="6.888554" />
      <path d="M 12.820227,5.059845 C 12.947184,4.875136 13.100038,4.709223 13.236795,4.624223" />
      <path d="M 12.593376,6.888554 C 12.678448,6.709445 12.776707,6.546524 12.888151,6.399792 C 12.99879,6.25441 13.124049,6.127852 13.236795,6.057832" />
      <line x1="13.236795" y1="4.624223" x2="13.236795" y2="6.057832" />
      <path d="M 13.236795,4.624223 L 13.24255,4.620839" />
      <path d="M 13.236795,6.057832 C 13.362237,5.984691 13.52315,5.85809 13.677979,5.714761 C 13.833023,5.571557 13.986317,5.409317 14.13786,5.228041" />
      <path d="M 14.13786,5.228041 Q 14.000992,4.955051 13.902628,4.667238" />
      <path d="M 13.902628,4.667238 C 13.662291,4.636825 13.43444,4.621315 13.219073,4.620709 C 13.003772,4.619869 12.796161,4.635139 12.652771,4.665492" />
      <path d="M 12.652771,4.665492 C 12.5208,4.689681 12.33896,4.681347 12.154079,4.649732 C 11.967641,4.617676 11.77903,4.565192 11.588246,4.49228" />
      <path d="M 11.588246,4.49228 Q 11.49898,4.043369 11.474022,3.58701" />
      <line x1="11.474022" y1="2.996475" x2="11.474022" y2="3.58701" />
      <path d="M 11.474022,3.58701 C 11.641176,3.472647 11.811301,3.37862 11.984396,3.304929 C 12.156089,3.232021 12.330619,3.182418 12.464804,3.175785" />
      <line x1="12.464804" y1="3.172674" x2="12.464804" y2="3.175785" />
      <path d="M 12.464804,3.175785 C 12.611614,3.172532 12.817043,3.13997 13.025934,3.090008 C 13.234947,3.040257 13.452378,2.973181 13.678228,2.888782" />
      <path d="M 11.478569,0.187895 L 11.479359,0.331858" />
      <path d="M 11.479359,0.331858 Q 11.479338,0.954547 11.420407,1.574523" />
      <path d="M 11.420407,1.574523 C 11.596675,1.589904 11.840975,1.611221 12.076587,1.631781 C 12.310625,1.652203 12.534734,1.671758 12.61546,1.678802" />
      <line x1="12.61546" y1="1.662787" x2="12.61546" y2="1.678802" />
      <path d="M 12.61546,1.678802 C 12.751983,1.69991 12.923016,1.77352 13.086388,1.873569 C 13.251226,1.97451 13.408379,2.098893 13.557847,2.246716" />
      <line x1="13.557847" y1="2.143058" x2="13.557847" y2="2.246716" />
      <path d="M 13.557847,2.246716 Q 13.517731,2.561633 13.464458,2.874754" />
      <path d="M 13.464458,2.874754 C 13.277848,2.976712 13.090691,3.054105 12.902988,3.106933 C 12.716952,3.159296 12.531267,3.184224 12.394022,3.167969" />
      <path d="M 12.394022,3.167969 C 12.314454,3.153137 12.09356,3.111961 11.862879,3.06896 C 11.630647,3.025671 11.389852,2.980785 11.216113,2.948399" />
      <path d="M 11.216113,2.948399 Q 11.077575,3.630368 10.867783,4.295426" />
      <path d="M 11.213367,2.961883 Q 11.341958,2.999118 11.474022,3.037357" />
      <path d="M 10.867783,4.295426 C 11.03721,4.344485 11.27203,4.412478 11.498499,4.478054 C 11.723456,4.543191 11.938867,4.605565 12.016462,4.628033" />
      <line x1="12.016462" y1="4.622518" x2="12.016462" y2="4.628033" />
      <path d="M 12.016462,4.628033 C 12.145755,4.675036 12.297819,4.780123 12.436825,4.90963 C 12.577079,5.040293 12.704879,5.192436 12.820227,5.366058" />
      <line x1="12.820227" y1="4.639668" x2="12.820227" y2="5.366058" />
      <path d="M 12.820227,5.366058 Q 12.714761,5.666792 12.596786,5.96323" />
      <path d="M 12.596786,5.96323 C 12.392572,6.027113 12.192985,6.066829 11.998024,6.082378 C 11.804794,6.097793 11.617672,6.086402 11.486652,6.044012" />
      <path d="M 11.486652,6.044012 C 11.411829,6.014139 11.204109,5.931208 10.987185,5.844601 C 10.768803,5.757413 10.542368,5.667009 10.378991,5.601781" />
      <path d="M 10.378991,5.601781 Q 10.099993,6.243074 9.754752,6.85406" />
      <path d="M 10.327904,5.717715 C 10.536872,5.826096 10.738009,5.930415 10.81003,5.967769" />
      <path d="M 9.754752,6.85406 C 9.910404,6.934788 10.126129,7.046674 10.334184,7.154581 C 10.540849,7.261767 10.738745,7.364406 10.81003,7.401378" />
      <line x1="10.81003" y1="5.967769" x2="10.81003" y2="7.401378" />
      <path d="M 10.81003,5.967769 C 10.9268,6.038744 11.053671,6.171005 11.16262,6.324667 C 11.272547,6.479703 11.365763,6.653377 11.442268,6.84569" />
      <path d="M 10.81003,7.401378 C 10.9268,7.472353 11.053671,7.604613 11.16262,7.758276 C 11.272547,7.913312 11.365763,8.086986 11.442268,8.279299" />
      <line x1="11.442268" y1="6.84569" x2="11.442268" y2="8.279299" />
      <path d="M 11.442268,8.279299 Q 11.275771,8.553538 11.097923,8.821157" />
      <path d="M 11.097923,8.821157 C 10.884466,8.84435 10.680619,8.844764 10.486382,8.822397 C 10.293868,8.800232 10.11297,8.752988 9.993539,8.6862" />
      <path d="M 9.993539,8.6862 C 9.926524,8.642509 9.740482,8.521217 9.546197,8.39455 C 9.350605,8.267032 9.147801,8.134812 9.001474,8.039412" />
      <path d="M 9.001474,8.039412 Q 8.593438,8.613773 8.126884,9.145674" />
      <path d="M 8.828743,8.27713 C 8.926869,8.356131 9.007377,8.420947 9.045557,8.451686" />
      <path d="M 8.126884,9.145674 C 8.262386,9.254767 8.450187,9.405964 8.631309,9.551785 C 8.811221,9.696632 8.9835,9.835333 9.045557,9.885295" />
      <line x1="9.045557" y1="8.451686" x2="9.045557" y2="9.885295" />
      <path d="M 9.045557,8.451686 C 9.145024,8.543727 9.241507,8.697747 9.315938,8.869275 C 9.391038,9.042336 9.445854,9.230432 9.480384,9.433562" />
      <path d="M 9.045557,9.885295 C 9.145024,9.977336 9.241507,10.131356 9.315938,10.302883 C 9.391038,10.475945 9.445854,10.66404 9.480384,10.86717" />
      <line x1="9.480384" y1="9.433562" x2="9.480384" y2="10.86717" />
      <path d="M 9.480384,10.86717 Q 9.259672,11.103687 9.029232,11.331531" />
      <path d="M 9.029232,11.331531 C 8.815271,11.313085 8.61551,11.274179 8.429949,11.214812 C 8.246033,11.155975 8.078765,11.074812 7.975812,10.986359" />
      <path d="M 7.975812,10.986359 C 7.91935,10.930639 7.762602,10.775952 7.598908,10.614411 C 7.434115,10.451784 7.263245,10.283161 7.139958,10.161495" />
      <path d="M 7.139958,10.161495 Q 6.61959,10.645411 6.050822,11.07645" />
      <path d="M 6.760223,10.502025 Q 6.781697,10.528033 6.795281,10.544485" />
      <path d="M 6.050822,11.07645 C 6.160629,11.209441 6.312815,11.39376 6.459589,11.571524 C 6.605384,11.748102 6.744992,11.917187 6.795281,11.978094" />
      <line x1="6.795281" y1="10.544485" x2="6.795281" y2="11.978094" />
      <path d="M 6.795281,10.544485 C 6.865803,10.643232 6.923627,10.791613 6.96105,10.953615 C 6.998687,11.117628 7.017493,11.290795 7.017467,11.473116" />
      <path d="M 6.795281,11.978094 C 6.865803,12.07684 6.923627,12.225222 6.96105,12.387224 C 6.998687,12.551237 7.017493,12.724404 7.017467,12.906725" />
      <path d="M 7.017467,12.906725 L 7.014895,13.023725" />
      <path d="M 7.014895,13.023725 Q 6.749003,13.212837 6.475406,13.391577" />
      <path d="M 6.475406,13.391577 C 6.269701,13.332247 6.082204,13.255614 5.912915,13.161677 C 5.745127,13.068577 5.598336,12.956819 5.516077,12.850322" />
      <path d="M 5.516077,12.850322 C 5.472478,12.784854 5.351442,12.603105 5.225043,12.413303 C 5.097794,12.222225 4.965853,12.024102 4.870654,11.881151" />
      <path d="M 4.870654,11.881151 Q 4.259257,12.25481 3.611562,12.567341" />
      <path d="M 3.611562,12.567341 C 3.691177,12.718785 3.801518,12.928679 3.907936,13.13111 C 4.013644,13.332189 4.114866,13.524736 4.151328,13.594094" />
      <line x1="4.151328" y1="12.292908" x2="4.151328" y2="13.594094" />
      <path d="M 4.189017,12.272674 Q 4.22831,12.430766 4.228009,12.625661" />
      <path d="M 4.151328,13.594094 C 4.20283,13.711653 4.228241,13.88121 4.228009,14.05927" />
      <path d="M 4.228009,14.05927 Q 4.227484,14.349865 4.146737,14.660673" />
      <path d="M 4.146737,14.660673 Q 3.846552,14.794638 3.540998,14.916956" />
      <path d="M 3.540998,14.916956 C 3.35197,14.819171 3.184414,14.707949 3.038329,14.583288 C 2.893537,14.459737 2.773234,14.321958 2.715036,14.201778" />
      <path d="M 2.715036,14.201778 C 2.686086,14.129242 2.605717,13.927872 2.521786,13.71758 C 2.437291,13.505873 2.349681,13.286361 2.286468,13.127978" />
      <path d="M 2.286468,13.127978 Q 1.609073,13.376082 0.908967,13.557309" />
      <path d="M 0.908967,13.557309 C 0.95513,13.721007 1.01911,13.947884 1.080815,14.166693 C 1.142107,14.384042 1.200799,14.592168 1.221941,14.667137" />
      <line x1="1.221941" y1="13.472636" x2="1.221941" y2="14.667137" />
      <path d="M 1.221941,14.667137 Q 1.236112,14.737265 1.236036,14.82346" />
      <path d="M 1.236036,14.82346 C 1.236037,14.954712 1.211844,15.105619 1.170157,15.256136 C 1.128408,15.40707 1.069467,15.55869 0.993334,15.710998" />
      <path d="M 0.993334,15.710998 Q 0.671145,15.78433 0.346145,15.84522" />
      <path d="M 0.346145,15.84522 C 0.181533,15.712983 0.040776,15.571725 -0.076125,15.421444 C -0.191992,15.272499 -0.280882,15.114341 -0.312636,14.985397" />
      <path d="M -0.312636,14.985397 C -0.325753,14.908763 -0.362165,14.696017 -0.400191,14.473843 C -0.438472,14.250176 -0.478165,14.018262 -0.506804,13.85093" />
      <path d="M -0.506804,13.85093 Q -1.222465,13.963322 -1.946319,14.005827" />
      <path d="M -1.946319,14.005827 C -1.935497,14.175075 -1.920498,14.409647 -1.906033,14.635877 C -1.891664,14.860596 -1.877905,15.07578 -1.872949,15.153292" />
      <line x1="-1.872949" y1="14.001339" x2="-1.872949" y2="15.153292" />
      <path d="M -1.872949,15.153292 C -1.874054,15.285771 -1.924106,15.45888 -2.002596,15.628739 C -2.081785,15.800119 -2.186324,15.967773 -2.316213,16.131699" />
      <path d="M -2.316213,16.131699 Q -2.647216,16.141397 -2.978358,16.138365" />
      <path d="M -2.978358,16.138365 C -3.111814,15.977091 -3.220008,15.811579 -3.302939,15.64183 C -3.385138,15.47359 -3.438976,15.301527 -3.442987,15.169099" />
      <line x1="-3.442987" y1="14.018477" x2="-3.442987" y2="15.169099" />
      <path d="M -3.442987,15.169099 C -3.439732,15.091505 -3.430697,14.876091 -3.421261,14.651132 C -3.411761,14.424661 -3.401912,14.189839 -3.394805,14.02041" />
      <path d="M -3.394805,14.02041 Q -4.119432,13.992488 -4.8374,13.89453" />
      <path d="M -4.8374,13.89453 C -4.862362,14.062401 -4.896959,14.295063 -4.930325,14.519452 C -4.963469,14.742342 -4.995206,14.955775 -5.006638,15.032656" />
      <path d="M -5.006638,15.032656 C -5.035557,15.16221 -5.120958,15.322123 -5.233532,15.473368 C -5.347111,15.625969 -5.484737,15.770031 -5.646412,15.905553" />
      <path d="M -5.646412,15.905553 Q -5.972676,15.85122 -6.296403,15.78439" />
      <path d="M -6.296403,15.78439 C -6.378165,15.629277 -6.44171,15.474526 -6.487039,15.320137 C -6.532261,15.166277 -6.55878,15.011803 -6.558772,14.879378" />
      <path d="M -6.558772,14.879378 Q -6.558825,14.806254 -6.547858,14.745363" />
      <line x1="-6.547858" y1="13.557928" x2="-6.547858" y2="14.745363" />
      <path d="M -6.547858,14.745363 C -6.528366,14.669984 -6.474253,14.460722 -6.417741,14.242188 C -6.36085,14.022185 -6.301861,13.794069 -6.2593,13.629479" />
      <path d="M -6.2593,13.629479 Q -6.963226,13.462387 -7.645914,13.227976" />
      <path d="M -7.645914,13.227976 C -7.705639,13.387597 -7.788414,13.608824 -7.868246,13.822185 C -7.947545,14.034121 -8.02348,14.237065 -8.050832,14.310167" />
      <path d="M -8.050832,14.310167 C -8.106381,14.431493 -8.223635,14.571663 -8.365684,14.698102 C -8.509002,14.825676 -8.674082,14.940248 -8.860923,15.041817" />
      <path d="M -8.860923,15.041817 Q -9.169093,14.925677 -9.47215,14.797786" />
      <path d="M -9.56706,12.722685 Q -9.567274,12.560904 -9.538656,12.425557" />
      <path d="M -9.47215,14.797786 Q -9.566175,14.465794 -9.56706,14.156294" />
      <path d="M -9.56706,14.156294 C -9.567238,13.993909 -9.545159,13.840688 -9.500137,13.731536" />
      <line x1="-9.500137" y1="12.445122" x2="-9.500137" y2="13.731536" />
      <path d="M -9.500137,13.731536 C -9.465205,13.661459 -9.368229,13.466916 -9.266956,13.263753 C -9.165002,13.059225 -9.059289,12.847155 -8.983015,12.694141" />
      <path d="M -8.983015,12.694141 Q -9.637423,12.39472 -10.256881,12.033453" />
      <path d="M -10.256881,12.033453 C -10.348923,12.178289 -10.476489,12.379025 -10.599518,12.572623 C -10.721726,12.764928 -10.838749,12.949074 -10.880902,13.015405" />
      <path d="M -10.880902,13.015405 C -10.960806,13.123534 -11.105112,13.238223 -11.270822,13.334681 C -11.438012,13.432005 -11.623787,13.512396 -11.828145,13.575855" />
      <path d="M -11.828145,13.575855 Q -12.105603,13.402663 -12.375584,13.218946" />
      <path d="M -12.381348,11.611569 C -12.381418,11.440186 -12.364367,11.277133 -12.330195,11.122409 C -12.296168,10.969733 -12.24368,10.83037 -12.178957,10.735515" />
      <path d="M -12.375584,13.218946 Q -12.381369,13.130521 -12.381348,13.045178" />
      <path d="M -12.381348,13.045178 C -12.381418,12.873795 -12.364367,12.710742 -12.330195,12.556018 C -12.296168,12.403342 -12.24368,12.263979 -12.178957,12.169124" />
      <line x1="-12.178957" y1="10.735515" x2="-12.178957" y2="12.169124" />
      <path d="M -12.178957,10.735515 Q -12.170014,10.724203 -12.157425,10.70828" />
      <path d="M -12.178957,12.169124 C -12.130015,12.107218 -11.994147,11.93536 -11.852258,11.755886 C -11.709416,11.575205 -11.561306,11.387863 -11.454442,11.252691" />
      <path d="M -11.454442,11.252691 Q -12.032539,10.833198 -12.563408,10.359866" />
      <path d="M -12.563408,10.359866 C -12.683999,10.483987 -12.851132,10.656013 -13.012322,10.821922 C -13.172435,10.986724 -13.325755,11.144532 -13.380983,11.201377" />
      <path d="M -13.380983,11.201377 C -13.481972,11.291883 -13.647423,11.376396 -13.830008,11.438922 C -14.014226,11.502012 -14.213089,11.544932 -14.426598,11.567681" />
      <path d="M -14.426598,11.567681 Q -14.661985,11.344528 -14.887837,11.112507" />
      <line x1="-14.887837" y1="9.678898" x2="-14.887837" y2="11.112507" />
      <path d="M -14.887837,9.678898 C -14.857771,9.475118 -14.807094,9.28596 -14.735806,9.111425 C -14.665154,8.938437 -14.572071,8.782508 -14.474646,8.688485" />
      <path d="M -14.887837,11.112507 C -14.857771,10.908726 -14.807094,10.719569 -14.735806,10.545033 C -14.665154,10.372045 -14.572071,10.216117 -14.474646,10.122094" />
      <line x1="-14.474646" y1="8.688485" x2="-14.474646" y2="10.122094" />
      <path d="M -14.474646,8.688485 C -14.439663,8.659097 -14.368514,8.599327 -14.280877,8.525705" />
      <path d="M -14.474646,10.122094 C -14.413698,10.070893 -14.2445,9.928754 -14.067805,9.780317 C -13.889922,9.630882 -13.70548,9.475937 -13.5724,9.36414" />
      <path d="M -13.5724,9.36414 Q -14.05052,8.84175 -14.471065,8.275731" />
      <path d="M -14.471065,8.275731 C -14.615267,8.374056 -14.815126,8.510329 -15.007877,8.641757 C -15.199341,8.772308 -15.382681,8.897319 -15.448723,8.942349" />
      <path d="M -15.448723,8.942349 C -15.566662,9.011528 -15.746484,9.062404 -15.938469,9.088439 C -16.132172,9.114712 -16.335984,9.118403 -16.549902,9.099512" />
      <path d="M -16.549902,9.099512 Q -16.733581,8.835533 -16.906058,8.564706" />
      <line x1="-16.906058" y1="7.131097" x2="-16.906058" y2="8.564706" />
      <path d="M -16.906058,7.131097 C -16.833789,6.937287 -16.744403,6.761774 -16.637901,6.604559 C -16.532347,6.448737 -16.408406,6.313951 -16.293218,6.240641" />
      <path d="M -16.906058,8.564706 C -16.833789,8.370896 -16.744403,8.195383 -16.637901,8.038168 C -16.532347,7.882346 -16.408406,7.74756 -16.293218,7.67425" />
      <line x1="-16.293218" y1="6.240641" x2="-16.293218" y2="7.67425" />
      <path d="M -16.293218,6.240641 C -16.224978,6.203451 -16.039027,6.10211 -15.841806,5.994626" />
      <path d="M -16.293218,7.67425 C -16.22276,7.635851 -16.027159,7.529251 -15.822891,7.417927 C -15.61725,7.305855 -15.404026,7.189651 -15.25018,7.105806" />
      <path d="M -15.25018,7.105806 Q -15.608748,6.501906 -15.901752,5.866372" />
      <path d="M -15.901752,5.866372 C -16.063663,5.934876 -16.288064,6.029818 -16.504485,6.121384 C -16.719461,6.212339 -16.925316,6.299434 -16.999467,6.330807" />
      <path d="M -16.999467,6.330807 C -17.129528,6.375825 -17.316359,6.390982 -17.509885,6.37946 C -17.705144,6.36784 -17.905558,6.332151 -18.111129,6.272394" />
      <path d="M -18.111129,6.272394 Q -18.235581,5.978396 -18.34762,5.679852" />
      <line x1="-18.34762" y1="4.246243" x2="-18.34762" y2="5.679852" />
      <path d="M -18.34762,4.246243 C -18.236107,4.070337 -18.111672,3.915655 -17.974316,3.782197 C -17.838182,3.64992 -17.688456,3.541795 -17.560222,3.492199" />
      <path d="M -18.34762,5.679852 C -18.236107,5.503946 -18.111672,5.349263 -17.974316,5.215805 C -17.838182,5.083529 -17.688456,4.975404 -17.560222,4.925807" />
      <line x1="-17.560222" y1="3.492199" x2="-17.560222" y2="4.925807" />
      <path d="M -17.560222,3.492199 C -17.452333,3.458572 -17.092686,3.34648 -16.791841,3.252714" />
      <path d="M -17.560222,4.925807 C -17.483138,4.901782 -17.269142,4.835085 -17.045664,4.765433 C -16.820683,4.695312 -16.587408,4.622606 -16.419093,4.570147" />
      <path d="M -16.419093,4.570147 Q -16.643429,3.90946 -16.796896,3.230431" />
      <path d="M -16.796896,3.230431 C -16.969887,3.266308 -17.209644,3.316031 -17.440875,3.363987 C -17.670562,3.411622 -17.890503,3.457237 -17.969729,3.473667" />
      <path d="M -17.969729,3.473667 C -18.106587,3.492682 -18.292778,3.471499 -18.479921,3.422892 C -18.668742,3.373855 -18.857555,3.300247 -19.046361,3.202069" />
      <path d="M -19.046361,3.202069 Q -19.10649,2.89009 -19.153506,2.57605" />
      <line x1="-19.153506" y1="1.142442" x2="-19.153506" y2="2.57605" />
      <path d="M -19.153506,1.142442 C -19.007314,0.991641 -18.852924,0.864122 -18.690337,0.759885 C -18.529196,0.656569 -18.359816,0.579531 -18.223786,0.55568" />
      <path d="M -19.153506,2.57605 C -19.007314,2.42525 -18.852924,2.297731 -18.690337,2.193493 C -18.529196,2.090177 -18.359816,2.01314 -18.223786,1.989288" />
      <line x1="-18.223786" y1="0.55568" x2="-18.223786" y2="1.989288" />
      <path d="M -18.223786,0.55568 C -18.12335,0.544872 -17.807708,0.510908 -17.518971,0.479839" />
      <path d="M -18.223786,1.989288 C -18.143231,1.98062 -17.919602,1.956557 -17.686063,1.931427 C -17.450954,1.906129 -17.207176,1.879898 -17.031284,1.860971" />
      <path d="M -17.031284,1.860971 Q -17.112204,1.170546 -17.119852,0.475821" />
      <path d="M -17.119852,0.475821 C -17.296839,0.477603 -17.542137,0.480072 -17.778711,0.482454 C -18.013705,0.48482 -18.238729,0.487086 -18.319785,0.487902" />
      <path d="M -18.319785,0.487902 C -18.457837,0.480134 -18.635766,0.423478 -18.808865,0.339777 C -18.983516,0.25533 -19.152998,0.146817 -19.31731,0.014238" />
      <line x1="-19.31731" y1="-1.419371" x2="-19.31731" y2="0.014238" />
      <path d="M -19.31731,-1.419371 Q -19.310655,-1.73656 -19.290723,-2.053238" />
      <path d="M -19.31731,0.014238 Q -19.310655,-0.302951 -19.290723,-0.619629" />
      <line x1="-19.290723" y1="-2.053238" x2="-19.290723" y2="-0.619629" />
      <path d="M -19.290723,-2.053238 C -19.115836,-2.172758 -18.937813,-2.267893 -18.756652,-2.338643 C -18.5771,-2.408768 -18.395,-2.451565 -18.256743,-2.448695" />
      <path d="M -19.290723,-0.619629 C -19.115836,-0.73915 -18.937813,-0.834285 -18.756652,-0.905034 C -18.5771,-0.97516 -18.395,-1.017956 -18.256743,-1.015086" />
      <line x1="-18.256743" y1="-2.448695" x2="-18.256743" y2="-1.015086" />
      <path d="M -18.256743,-2.448695 C -18.191049,-2.442963 -18.029275,-2.428846 -17.845282,-2.412791 C -17.66059,-2.396675 -17.455575,-2.378786 -17.280061,-2.36347" />
      <path d="M -18.256743,-1.015086 C -18.176016,-1.008042 -17.951908,-0.988487 -17.717869,-0.968065 C -17.482257,-0.947505 -17.237958,-0.926188 -17.06169,-0.910807" />
      <line x1="-17.06169" y1="-2.322765" x2="-17.06169" y2="-0.910807" />
      <path d="M -17.06169,-0.910807 Q -16.99588,-1.602704 -16.857396,-2.284683" />
      <path d="M -16.857396,-2.284683 C -17.031135,-2.317069 -17.27193,-2.361955 -17.504162,-2.405244 C -17.734843,-2.448245 -17.955736,-2.489421 -18.035305,-2.504253" />
      <path d="M -18.035305,-2.504253 C -18.168899,-2.538484 -18.33128,-2.628293 -18.483249,-2.743663 C -18.636581,-2.860062 -18.779793,-2.999038 -18.912884,-3.16059" />
      <line x1="-18.912884" y1="-4.594198" x2="-18.912884" y2="-3.16059" />
      <path d="M -18.912884,-4.594198 Q -18.839717,-4.903611 -18.753652,-5.209963" />
      <path d="M -18.912884,-3.16059 Q -18.839717,-3.470002 -18.753652,-3.776354" />
      <line x1="-18.753652" y1="-5.209963" x2="-18.753652" y2="-3.776354" />
      <path d="M -18.753652,-5.209963 C -18.557232,-5.293311 -18.362863,-5.352167 -18.170544,-5.386532 C -17.979933,-5.420596 -17.792568,-5.427399 -17.657744,-5.397925" />
      <path d="M -18.753652,-3.776354 C -18.557232,-3.859702 -18.362863,-3.918558 -18.170544,-3.952923 C -17.979933,-3.986987 -17.792568,-3.99379 -17.657744,-3.964317" />
      <line x1="-17.657744" y1="-5.397925" x2="-17.657744" y2="-3.964317" />
      <path d="M -17.657744,-5.397925 C -17.58015,-5.375458 -17.364738,-5.313084 -17.139781,-5.247946 C -16.913312,-5.182371 -16.678493,-5.114377 -16.509065,-5.065318" />
      <path d="M -17.657744,-3.964317 C -17.58015,-3.941849 -17.364738,-3.879475 -17.139781,-3.814337 C -16.913312,-3.748762 -16.678493,-3.680769 -16.509065,-3.63171" />
      <line x1="-16.509065" y1="-5.065318" x2="-16.509065" y2="-3.63171" />
      <path d="M -16.509065,-5.065318 L -16.489901,-5.125563" />
      <path d="M -16.509065,-3.63171 Q -16.299221,-4.296753 -16.020273,-4.938065" />
      <path d="M -16.020273,-4.938065 C -16.183651,-5.003293 -16.410085,-5.093697 -16.628467,-5.180885 C -16.845391,-5.267492 -17.053111,-5.350423 -17.127934,-5.380296" />
      <path d="M -17.127934,-5.380296 C -17.251601,-5.43959 -17.391788,-5.558875 -17.516404,-5.70119 C -17.64214,-5.844776 -17.753218,-6.008525 -17.849639,-6.192436" />
      <line x1="-17.849639" y1="-7.626045" x2="-17.849639" y2="-6.192436" />
      <path d="M -17.849639,-7.626045 Q -17.712956,-7.915014 -17.564282,-8.198497" />
      <path d="M -17.849639,-6.192436 Q -17.712956,-6.481405 -17.564282,-6.764888" />
      <line x1="-17.564282" y1="-8.198497" x2="-17.564282" y2="-6.764888" />
      <path d="M -17.564282,-8.198497 C -17.35437,-8.24226 -17.151612,-8.262428 -16.95601,-8.259002 C -16.762143,-8.25561 -16.577184,-8.22614 -16.451313,-8.17127" />
      <path d="M -17.564282,-6.764888 C -17.35437,-6.808651 -17.151612,-6.828819 -16.95601,-6.825393 C -16.762143,-6.822001 -16.577184,-6.792532 -16.451313,-6.737661" />
      <line x1="-16.451313" y1="-8.17127" x2="-16.451313" y2="-6.737661" />
      <path d="M -16.451313,-8.17127 C -16.380028,-8.134298 -16.182132,-8.03166 -15.975466,-7.924473 C -15.767412,-7.816566 -15.551686,-7.704681 -15.396035,-7.623952" />
      <path d="M -16.451313,-6.737661 C -16.380028,-6.70069 -16.182132,-6.598051 -15.975466,-6.490865 C -15.767412,-6.382958 -15.551686,-6.271072 -15.396035,-6.190344" />
      <line x1="-15.396035" y1="-7.623952" x2="-15.396035" y2="-6.190344" />
      <path d="M -15.396035,-7.623952 L -15.294459,-7.800581" />
      <path d="M -15.396035,-6.190344 Q -15.050747,-6.801305 -14.642756,-7.375696" />
      <path d="M -14.642756,-7.375696 C -14.789084,-7.471096 -14.991887,-7.603316 -15.187479,-7.730834 C -15.381765,-7.8575 -15.567807,-7.978793 -15.634822,-8.022484" />
      <path d="M -15.634822,-8.022484 C -15.743498,-8.104412 -15.855751,-8.24829 -15.947913,-8.411724 C -16.040904,-8.576619 -16.115302,-8.758436 -16.171106,-8.957177" />
      <line x1="-16.171106" y1="-10.390786" x2="-16.171106" y2="-8.957177" />
      <path d="M -16.171106,-10.390786 Q -15.976502,-10.647481 -15.771306,-10.89649" />
      <path d="M -16.171106,-8.957177 Q -15.976502,-9.213872 -15.771306,-9.462881" />
      <line x1="-15.771306" y1="-10.89649" x2="-15.771306" y2="-9.462881" />
      <path d="M -15.771306,-10.89649 C -15.556495,-10.898876 -15.35365,-10.87953 -15.162771,-10.838453 C -14.973586,-10.797743 -14.798605,-10.733209 -14.68684,-10.655188" />
      <path d="M -15.771306,-9.462881 C -15.556495,-9.465267 -15.35365,-9.445922 -15.162771,-9.404844 C -14.973586,-9.364135 -14.798605,-9.2996 -14.68684,-9.221579" />
      <line x1="-14.68684" y1="-10.655188" x2="-14.68684" y2="-9.221579" />
      <path d="M -14.68684,-10.655188 C -14.624783,-10.605226 -14.452504,-10.466525 -14.272591,-10.321678 C -14.091469,-10.175857 -13.903669,-10.024659 -13.768166,-9.915567" />
      <path d="M -14.68684,-9.221579 C -14.624783,-9.171617 -14.452504,-9.032916 -14.272591,-8.888069 C -14.091469,-8.742248 -13.903669,-8.591051 -13.768166,-8.481958" />
      <line x1="-13.768166" y1="-9.915567" x2="-13.768166" y2="-8.481958" />
      <path d="M -13.768166,-9.915567 Q -13.637614,-10.064395 -13.502635,-10.209688" />
      <path d="M -13.768166,-8.481958 Q -13.301571,-9.013826 -12.78124,-9.497779" />
      <path d="M -12.78124,-9.497779 C -12.904527,-9.619444 -13.075397,-9.788068 -13.240191,-9.950695 C -13.403884,-10.112236 -13.560632,-10.266923 -13.617095,-10.322643" />
      <path d="M -13.617095,-10.322643 C -13.706331,-10.423852 -13.786055,-10.586433 -13.84199,-10.764294 C -13.898429,-10.943747 -13.9331,-11.13619 -13.946003,-11.341624" />
      <line x1="-13.946003" y1="-12.775233" x2="-13.946003" y2="-11.341624" />
      <path d="M -13.946003,-12.775233 Q -13.701446,-12.989145 -13.448128,-13.193485" />
      <path d="M -13.946003,-11.341624 Q -13.701446,-11.555536 -13.448128,-11.759876" />
      <line x1="-13.448128" y1="-13.193485" x2="-13.448128" y2="-11.759876" />
      <path d="M -13.448128,-13.193485 C -13.237212,-13.154397 -13.042585,-13.096329 -12.864245,-13.019282 C -12.687486,-12.942922 -12.529647,-12.845964 -12.436563,-12.747986" />
      <path d="M -13.448128,-11.759876 C -13.237212,-11.720788 -13.042585,-11.66272 -12.864245,-11.585673 C -12.687486,-11.509313 -12.529647,-11.412355 -12.436563,-11.314378" />
      <line x1="-12.436563" y1="-12.747986" x2="-12.436563" y2="-11.314378" />
      <path d="M -12.436563,-12.747986 C -12.386275,-12.68708 -12.246666,-12.517994 -12.100872,-12.341417 C -11.954097,-12.163652 -11.801911,-11.979333 -11.692105,-11.846342" />
      <path d="M -12.436563,-11.314378 C -12.386275,-11.253471 -12.246666,-11.084386 -12.100872,-10.907808 C -11.954097,-10.730043 -11.801911,-10.545724 -11.692105,-10.412734" />
      <line x1="-11.692105" y1="-11.846342" x2="-11.692105" y2="-10.412734" />
      <path d="M -11.692105,-11.846342 Q -11.438084,-12.038839 -11.175058,-12.220233" />
      <path d="M -11.692105,-10.412734 Q -11.123304,-10.843732 -10.511936,-11.217435" />
      <path d="M -10.511936,-11.217435 C -10.607135,-11.360386 -10.739076,-11.558509 -10.866325,-11.749587 C -10.992725,-11.939389 -11.113761,-12.121138 -11.15736,-12.186606" />
      <path d="M -11.294477,-14.30347 Q -11.294557,-14.487413 -11.265426,-14.681766" />
      <path d="M -11.15736,-12.186606 C -11.248136,-12.346779 -11.295164,-12.609027 -11.294477,-12.869861" />
      <path d="M -11.294477,-12.869861 Q -11.294557,-13.053804 -11.265426,-13.248158" />
      <line x1="-11.265426" y1="-14.681766" x2="-11.265426" y2="-13.248158" />
      <path d="M -11.265426,-14.681766 Q -10.980928,-14.844137 -10.689859,-14.995443" />
      <path d="M -11.265426,-13.248158 Q -10.980928,-13.410529 -10.689859,-13.561834" />
      <line x1="-10.689859" y1="-14.995443" x2="-10.689859" y2="-13.561834" />
      <path d="M -10.689859,-14.995443 C -10.491475,-14.916481 -10.313032,-14.822068 -10.154532,-14.712206 C -9.997436,-14.603322 -9.863201,-14.47791 -9.79261,-14.363987" />
      <path d="M -10.689859,-13.561834 C -10.491475,-13.482872 -10.313032,-13.388459 -10.154532,-13.278597 C -9.997436,-13.169713 -9.863201,-13.044301 -9.79261,-12.930378" />
      <line x1="-9.79261" y1="-14.363987" x2="-9.79261" y2="-12.930378" />
      <path d="M -9.79261,-14.363987 C -9.756149,-14.294629 -9.654926,-14.102082 -9.549219,-13.901003 C -9.442801,-13.698572 -9.332459,-13.488677 -9.252845,-13.337233" />
      <path d="M -9.79261,-12.930378 C -9.756149,-12.86102 -9.654926,-12.668473 -9.549219,-12.467394 C -9.442801,-12.264963 -9.332459,-12.055069 -9.252845,-11.903624" />
      <line x1="-9.252845" y1="-13.337233" x2="-9.252845" y2="-11.903624" />
      <path d="M -9.252845,-13.337233 Q -8.827908,-13.542258 -8.389432,-13.719873" />
      <path d="M -9.252845,-11.903624 Q -8.605126,-12.216109 -7.92775,-12.464262" />
      <path d="M -7.92775,-12.464262 C -7.990963,-12.622645 -8.078573,-12.842157 -8.163068,-13.053863 C -8.246999,-13.264156 -8.327369,-13.465526 -8.356319,-13.538062" />
      <path d="M -8.393553,-15.259928 C -8.3927,-15.5022 -8.338351,-15.768286 -8.239119,-16.032332" />
      <path d="M -8.356319,-13.538062 Q -8.393816,-13.659881 -8.393553,-13.826319" />
      <path d="M -8.393553,-13.826319 C -8.3927,-14.068591 -8.338351,-14.334678 -8.239119,-14.598723" />
      <line x1="-8.239119" y1="-16.032332" x2="-8.239119" y2="-14.598723" />
      <path d="M -8.239119,-16.032332 Q -7.926327,-16.136515 -7.609424,-16.228592" />
      <path d="M -8.239119,-14.598723 Q -7.926327,-14.702906 -7.609424,-14.794983" />
      <line x1="-7.609424" y1="-16.228592" x2="-7.609424" y2="-14.794983" />
      <path d="M -7.609424,-16.228592 C -7.431692,-16.112988 -7.27674,-15.986096 -7.144569,-15.847916 C -7.013567,-15.710966 -6.908432,-15.562234 -6.863224,-15.43703" />
      <path d="M -7.609424,-14.794983 C -7.431692,-14.679379 -7.27674,-14.552487 -7.144569,-14.414308 C -7.013567,-14.277357 -6.908432,-14.128625 -6.863224,-14.003421" />
      <line x1="-6.863224" y1="-15.43703" x2="-6.863224" y2="-14.003421" />
      <path d="M -6.863224,-15.43703 C -6.842082,-15.36206 -6.78339,-15.153934 -6.722097,-14.936586 C -6.660392,-14.717777 -6.596413,-14.490899 -6.550249,-14.327202" />
      <path d="M -6.863224,-14.003421 C -6.842082,-13.928452 -6.78339,-13.720325 -6.722097,-13.502977 C -6.660392,-13.284168 -6.596413,-13.057291 -6.550249,-12.893593" />
      <line x1="-6.550249" y1="-14.327202" x2="-6.550249" y2="-12.893593" />
      <path d="M -6.550249,-14.327202 Q -5.946916,-14.483346 -5.33148,-14.588521" />
      <path d="M -6.550249,-12.893593 Q -5.85013,-13.074771 -5.134478,-13.187214" />
      <path d="M -5.134478,-13.187214 C -5.163117,-13.354545 -5.20281,-13.58646 -5.241092,-13.810127 C -5.279118,-14.0323 -5.31553,-14.245047 -5.328646,-14.321681" />
      <path d="M -5.33148,-15.817276 C -5.331535,-15.951412 -5.295377,-16.11685 -5.235909,-16.280697 C -5.176112,-16.445535 -5.094469,-16.609182 -4.990978,-16.771638" />
      <path d="M -5.328646,-14.321681 Q -5.331487,-14.351207 -5.33148,-14.383668" />
      <path d="M -5.33148,-14.383668 C -5.331535,-14.517803 -5.295377,-14.683241 -5.235909,-14.847088 C -5.176112,-15.011926 -5.094469,-15.175573 -4.990978,-15.338029" />
      <line x1="-4.990978" y1="-16.771638" x2="-4.990978" y2="-15.338029" />
      <path d="M -4.990978,-16.771638 Q -4.662698,-16.813368 -4.332935,-16.842446" />
      <path d="M -4.990978,-15.338029 Q -4.662698,-15.379759 -4.332935,-15.408837" />
      <line x1="-4.332935" y1="-16.842446" x2="-4.332935" y2="-15.408837" />
      <path d="M -4.332935,-16.842446 C -4.183132,-16.694933 -4.058015,-16.540757 -3.957584,-16.379917 C -3.85804,-16.220506 -3.786308,-16.054544 -3.768333,-15.923185" />
      <path d="M -4.332935,-15.408837 C -4.183132,-15.261324 -4.058015,-15.107148 -3.957584,-14.946308 C -3.85804,-14.786898 -3.786308,-14.620935 -3.768333,-14.489576" />
      <line x1="-3.768333" y1="-15.923185" x2="-3.768333" y2="-14.489576" />
      <path d="M -3.768333,-15.923185 C -3.763377,-15.845673 -3.749618,-15.630489 -3.735249,-15.405769 C -3.720784,-15.179539 -3.705785,-14.944968 -3.694964,-14.775719" />
      <path d="M -3.768333,-14.489576 C -3.763377,-14.412064 -3.749618,-14.19688 -3.735249,-13.972161 C -3.720784,-13.745931 -3.705785,-13.511359 -3.694964,-13.34211" />
      <line x1="-3.694964" y1="-14.775719" x2="-3.694964" y2="-13.34211" />
      <path d="M -3.694964,-14.775719 Q -2.971106,-14.818172 -2.246477,-14.790302" />
      <path d="M -3.694964,-13.34211 Q -2.971106,-13.384563 -2.246477,-13.356694" />
      <line x1="-2.246477" y1="-14.790302" x2="-2.246477" y2="-13.356694" />
      <path d="M -2.246477,-14.790302 C -2.239371,-14.959732 -2.229521,-15.194553 -2.220022,-15.421024 C -2.210586,-15.645983 -2.20155,-15.861397 -2.198296,-15.938992" />
      <path d="M -2.246477,-13.356694 C -2.239371,-13.526123 -2.229521,-13.760944 -2.220022,-13.987416 C -2.210586,-14.212375 -2.20155,-14.427788 -2.198296,-14.505383" />
      <line x1="-2.198296" y1="-15.938992" x2="-2.198296" y2="-14.505383" />
      <path d="M -2.198296,-15.938992 C -2.183206,-16.070684 -2.115131,-16.238054 -2.019106,-16.399433 C -1.922225,-16.56226 -1.800518,-16.718921 -1.653984,-16.869417" />
      <path d="M -2.198296,-14.505383 C -2.183206,-14.637075 -2.115131,-14.804445 -2.019106,-14.965825 C -1.922225,-15.128651 -1.800518,-15.285312 -1.653984,-15.435808" />
      <line x1="-1.653984" y1="-16.869417" x2="-1.653984" y2="-15.435808" />
      <path d="M -1.653984,-16.869417 Q -1.323656,-16.846985 -0.994533,-16.811874" />
      <path d="M -1.653984,-15.435808 Q -1.323656,-15.413376 -0.994533,-15.378265" />
      <line x1="-0.994533" y1="-16.811874" x2="-0.994533" y2="-15.378265" />
      <path d="M -0.994533,-16.811874 C -0.88535,-16.648315 -0.798882,-16.483083 -0.735128,-16.31618 C -0.671775,-16.150392 -0.632922,-15.98272 -0.632995,-15.8487" />
      <path d="M -0.994533,-15.378265 C -0.88535,-15.214706 -0.798882,-15.049474 -0.735128,-14.882571 C -0.671775,-14.716783 -0.632922,-14.549112 -0.632995,-14.415092" />
      <path d="M -0.632995,-14.415092 L -0.634644,-14.36894" />
      <path d="M -0.634644,-14.36894 C -0.646076,-14.292059 -0.677814,-14.078626 -0.710957,-13.855736 C -0.744324,-13.631347 -0.77892,-13.398685 -0.803883,-13.230814" />
      <path d="M -0.632995,-14.640091 Q -0.001797,-14.546461 0.618017,-14.399371" />
      <path d="M -0.803883,-13.230814 Q -0.085922,-13.132804 0.618017,-12.965762" />
      <line x1="0.618017" y1="-14.399371" x2="0.618017" y2="-12.965762" />
      <path d="M 0.618017,-14.399371 C 0.660579,-14.563962 0.719568,-14.792077 0.776459,-15.01208 C 0.83297,-15.230615 0.887084,-15.439877 0.906576,-15.515255" />
      <path d="M 0.618017,-12.965762 C 0.660579,-13.130353 0.719568,-13.358468 0.776459,-13.578472 C 0.83297,-13.797006 0.887084,-14.006268 0.906576,-14.081647" />
      <line x1="0.906576" y1="-15.515255" x2="0.906576" y2="-14.081647" />
      <path d="M 0.906576,-15.515255 C 0.949028,-15.641342 1.050877,-15.792157 1.178846,-15.931715 C 1.307956,-16.072526 1.46009,-16.202509 1.635247,-16.321666" />
      <path d="M 0.906576,-14.081647 C 0.949028,-14.207733 1.050877,-14.358549 1.178846,-14.498107 C 1.307956,-14.638917 1.46009,-14.7689 1.635247,-14.888057" />
      <line x1="1.635247" y1="-16.321666" x2="1.635247" y2="-14.888057" />
      <path d="M 1.635247,-16.321666 Q 1.9541,-16.23599 2.269108,-16.138128" />
      <path d="M 1.635247,-14.888057 Q 1.9541,-14.802381 2.269108,-14.704519" />
      <line x1="2.269108" y1="-16.138128" x2="2.269108" y2="-14.704519" />
      <path d="M 2.269108,-16.138128 C 2.378643,-15.864961 2.439794,-15.586774 2.440803,-15.337388" />
      <path d="M 2.269108,-14.704519 C 2.378643,-14.431353 2.439794,-14.153166 2.440803,-13.903779" />
      <path d="M 2.440803,-13.903779 Q 2.441017,-13.756496 2.40955,-13.646451" />
      <path d="M 2.40955,-13.646451 C 2.382197,-13.573348 2.306263,-13.370405 2.226964,-13.158469 C 2.147132,-12.945108 2.064356,-12.723881 2.004632,-12.56426" />
      <path d="M 2.439314,-13.840918 Q 2.897422,-13.667306 3.341732,-13.464034" />
      <path d="M 2.004632,-12.56426 Q 2.687301,-12.3298 3.341732,-12.030425" />
      <line x1="3.341732" y1="-13.464034" x2="3.341732" y2="-12.030425" />
      <path d="M 3.341732,-13.464034 C 3.418007,-13.617047 3.52372,-13.829117 3.625674,-14.033646 C 3.726947,-14.236809 3.823923,-14.431351 3.858855,-14.501428" />
      <path d="M 3.341732,-12.030425 C 3.418007,-12.183439 3.52372,-12.395509 3.625674,-12.600037 C 3.726947,-12.8032 3.823923,-12.997743 3.858855,-13.06782" />
      <line x1="3.858855" y1="-14.501428" x2="3.858855" y2="-13.06782" />
      <path d="M 3.858855,-14.501428 C 3.926931,-14.616747 4.058385,-14.744834 4.213058,-14.856857 C 4.369113,-14.969886 4.545445,-15.06787 4.742053,-15.15081" />
      <path d="M 3.858855,-13.06782 C 3.926931,-13.183138 4.058385,-13.311225 4.213058,-13.423248 C 4.369113,-13.536277 4.545445,-13.634262 4.742053,-13.717201" />
      <line x1="4.742053" y1="-15.15081" x2="4.742053" y2="-13.717201" />
      <path d="M 4.742053,-15.15081 Q 5.036377,-15.005398 5.324374,-14.84879" />
      <path d="M 4.742053,-13.717201 Q 5.036377,-13.571789 5.324374,-13.415182" />
      <line x1="5.324374" y1="-14.84879" x2="5.324374" y2="-13.415182" />
      <path d="M 5.324374,-14.84879 Q 5.362334,-14.628501 5.362274,-14.420596" />
      <path d="M 5.324374,-13.415182 Q 5.362334,-13.194892 5.362274,-12.986987" />
      <path d="M 5.362274,-12.986987 C 5.362837,-12.744158 5.32114,-12.502814 5.239619,-12.351689" />
      <path d="M 5.239619,-12.351689 C 5.197466,-12.285357 5.080444,-12.101212 4.958236,-11.908907 C 4.835206,-11.715309 4.707641,-11.514573 4.615599,-11.369737" />
      <path d="M 5.263839,-12.401896 Q 5.543275,-12.21841 5.813159,-12.022583" />
      <path d="M 4.615599,-11.369737 Q 5.23503,-11.008426 5.813159,-10.588975" />
      <line x1="5.813159" y1="-12.022583" x2="5.813159" y2="-10.588975" />
      <path d="M 5.813159,-12.022583 C 5.920024,-12.157755 6.068133,-12.345098 6.210976,-12.525778 C 6.352864,-12.705252 6.488733,-12.877111 6.537674,-12.939017" />
      <path d="M 5.813159,-10.588975 C 5.920024,-10.724147 6.068133,-10.911489 6.210976,-11.09217 C 6.352864,-11.271643 6.488733,-11.443502 6.537674,-11.505408" />
      <line x1="6.537674" y1="-12.939017" x2="6.537674" y2="-11.505408" />
      <path d="M 6.537674,-12.939017 C 6.628588,-13.038847 6.784265,-13.138961 6.95931,-13.218863 C 7.13592,-13.299484 7.329231,-13.361457 7.539242,-13.404783" />
      <path d="M 6.537674,-11.505408 C 6.628588,-11.605238 6.784265,-11.705353 6.95931,-11.785254 C 7.13592,-11.865875 7.329231,-11.927848 7.539242,-11.971175" />
      <line x1="7.539242" y1="-13.404783" x2="7.539242" y2="-11.971175" />
      <path d="M 7.539242,-13.404783 Q 7.796987,-13.205589 8.046182,-12.996648" />
      <path d="M 7.539242,-11.971175 Q 7.796987,-11.77198 8.046182,-11.563039" />
      <line x1="8.046182" y1="-12.996648" x2="8.046182" y2="-11.563039" />
      <path d="M 8.046182,-11.563039 C 8.03779,-11.35739 8.007348,-11.164291 7.954857,-10.983742 C 7.902836,-10.804794 7.826697,-10.640644 7.7397,-10.537661" />
      <path d="M 7.7397,-10.537661 C 7.684473,-10.480816 7.531153,-10.323007 7.371039,-10.158206 C 7.209849,-9.992297 7.042716,-9.820271 6.922126,-9.69615" />
      <path d="M 7.643629,-10.438777 Q 7.789796,-10.288428 7.931118,-10.134032" />
      <path d="M 6.922126,-9.69615 Q 7.452958,-9.22278 7.931118,-8.700424" />
      <line x1="7.931118" y1="-10.134032" x2="7.931118" y2="-8.700424" />
      <path d="M 7.931118,-10.134032 C 8.064197,-10.245829 8.248639,-10.400774 8.426522,-10.550209 C 8.603218,-10.698647 8.772416,-10.840786 8.833363,-10.891986" />
      <path d="M 7.931118,-8.700424 C 8.064197,-8.81222 8.248639,-8.967166 8.426522,-9.116601 C 8.603218,-9.265038 8.772416,-9.407177 8.833363,-9.458377" />
      <line x1="8.833363" y1="-10.891986" x2="8.833363" y2="-9.458377" />
      <path d="M 8.833363,-10.891986 C 8.943392,-10.97224 9.116919,-11.040284 9.305169,-11.084793 C 9.495105,-11.129704 9.69748,-11.15313 9.912296,-11.155069" />
      <path d="M 8.833363,-9.458377 C 8.943392,-9.538631 9.116919,-9.606675 9.305169,-9.651184 C 9.495105,-9.696096 9.69748,-9.719521 9.912296,-9.721461" />
      <line x1="9.912296" y1="-11.155069" x2="9.912296" y2="-9.721461" />
      <path d="M 9.912296,-11.155069 Q 10.12291,-10.910247 10.323101,-10.657527" />
      <path d="M 9.912296,-9.721461 Q 10.12291,-9.476638 10.323101,-9.223918" />
      <line x1="10.323101" y1="-10.657527" x2="10.323101" y2="-9.223918" />
      <path d="M 10.323101,-9.223918 C 10.27167,-9.024097 10.201277,-8.840822 10.111924,-8.674091 C 10.023367,-8.508838 9.914295,-8.362731 9.80744,-8.278633" />
      <path d="M 9.80744,-8.278633 C 9.741399,-8.233603 9.558058,-8.108592 9.366594,-7.978041 C 9.173843,-7.846613 8.973985,-7.710339 8.829782,-7.612014" />
      <path d="M 9.494314,-8.065127 L 9.608898,-7.875699" />
      <path d="M 8.829782,-7.612014 Q 9.250283,-7.045965 9.608898,-6.44209" />
      <line x1="9.608898" y1="-7.875699" x2="9.608898" y2="-6.44209" />
      <path d="M 9.608898,-7.875699 C 9.762744,-7.959543 9.975967,-8.075748 10.181609,-8.18782 C 10.385877,-8.299143 10.581478,-8.405744 10.651936,-8.444142" />
      <path d="M 9.608898,-6.44209 C 9.762744,-6.525935 9.975967,-6.642139 10.181609,-6.754211 C 10.385877,-6.865535 10.581478,-6.972135 10.651936,-7.010534" />
      <line x1="10.651936" y1="-8.444142" x2="10.651936" y2="-7.010534" />
      <path d="M 10.651936,-8.444142 C 10.776575,-8.501535 10.960847,-8.534721 11.154597,-8.542016 C 11.350081,-8.54938 11.553236,-8.533298 11.764062,-8.493771" />
      <path d="M 10.651936,-7.010534 C 10.776575,-7.067926 10.960847,-7.101113 11.154597,-7.108407 C 11.350081,-7.115771 11.553236,-7.09969 11.764062,-7.060163" />
      <line x1="11.764062" y1="-8.493771" x2="11.764062" y2="-7.060163" />
      <path d="M 11.764062,-8.493771 Q 11.918922,-8.213344 12.061914,-7.927191" />
      <path d="M 11.764062,-7.060163 Q 11.918922,-6.779736 12.061914,-6.493582" />
      <line x1="12.061914" y1="-7.927191" x2="12.061914" y2="-6.493582" />
      <path d="M 12.061914,-6.493582 C 11.969549,-6.30777 11.862087,-6.141821 11.739529,-5.995735 C 11.618062,-5.850943 11.480523,-5.728861 11.358185,-5.667091" />
      <path d="M 11.358185,-5.667091 C 11.284033,-5.635718 11.078179,-5.548623 10.863202,-5.457668 C 10.646781,-5.366102 10.42238,-5.271159 10.260469,-5.202656" />
      <path d="M 10.753414,-5.411218 L 10.777811,-5.340039" />
      <path d="M 10.260469,-5.202656 Q 10.553424,-4.567102 10.777811,-3.906431" />
      <line x1="10.777811" y1="-5.340039" x2="10.777811" y2="-3.906431" />
      <path d="M 10.777811,-5.340039 C 10.946125,-5.392499 11.179401,-5.465205 11.404381,-5.535325 C 11.62786,-5.604978 11.841856,-5.671675 11.91894,-5.6957" />
      <path d="M 10.777811,-3.906431 C 10.946125,-3.95889 11.179401,-4.031596 11.404381,-4.101717 C 11.62786,-4.171369 11.841856,-4.238066 11.91894,-4.262091" />
      <line x1="11.91894" y1="-5.6957" x2="11.91894" y2="-4.262091" />
      <path d="M 11.91894,-5.6957 C 12.053087,-5.727881 12.24056,-5.724852 12.431876,-5.694633 C 12.624906,-5.664148 12.820524,-5.609218 13.018729,-5.529843" />
      <path d="M 11.91894,-4.262091 C 12.053087,-4.294273 12.24056,-4.291244 12.431876,-4.261025 C 12.624906,-4.230539 12.820524,-4.175609 13.018729,-4.096234" />
      <line x1="13.018729" y1="-5.529843" x2="13.018729" y2="-4.096234" />
      <path d="M 13.018729,-5.529843 Q 13.111495,-5.225292 13.191433,-4.917421" />
      <path d="M 13.018729,-4.096234 Q 13.111495,-3.791683 13.191433,-3.483812" />
      <line x1="13.191433" y1="-4.917421" x2="13.191433" y2="-3.483812" />
      <path d="M 13.191433,-3.483812 C 13.061916,-3.319616 12.921785,-3.177788 12.77104,-3.058327 C 12.621635,-2.939923 12.46126,-2.846864 12.328447,-2.809951" />
      <path d="M 12.328447,-2.809951 C 12.249221,-2.79352 12.02928,-2.747906 11.799592,-2.700271 C 11.568361,-2.652315 11.328604,-2.602591 11.155614,-2.566714" />
      <path d="M 11.155614,-2.566714 Q 11.309029,-1.887674 11.390002,-1.197255" />
      <line x1="11.390002" y1="-2.615325" x2="11.390002" y2="-1.197255" />
      <path d="M 11.545719,-2.647619 C 11.723946,-2.666797 11.940305,-2.690078 12.138504,-2.711405 C 12.335807,-2.732635 12.512972,-2.751699 12.582503,-2.759181" />
      <path d="M 11.390002,-1.197255 C 11.565893,-1.216181 11.809671,-1.242413 12.04478,-1.267711 C 12.278319,-1.292841 12.501949,-1.316904 12.582503,-1.325572" />
      <line x1="12.582503" y1="-2.759181" x2="12.582503" y2="-1.325572" />
      <path d="M 12.582503,-2.759181 C 12.720667,-2.764833 12.903666,-2.725713 13.084716,-2.659218 C 13.267389,-2.592132 13.44746,-2.500602 13.62493,-2.384628" />
      <path d="M 12.582503,-1.325572 C 12.720667,-1.331225 12.903666,-1.292104 13.084716,-1.225609 C 13.267389,-1.158523 13.44746,-1.066993 13.62493,-0.95102" />
      <line x1="13.62493" y1="-2.384628" x2="13.62493" y2="-0.95102" />
      <path d="M 13.62493,-2.384628 Q 13.651805,-2.068422 13.665416,-1.751437" />
      <path d="M 13.62493,-0.95102 Q 13.651805,-0.634813 13.665416,-0.317828" />
      <line x1="13.665416" y1="-1.751437" x2="13.665416" y2="-0.317828" />
      <path d="M 13.665416,-0.317828 C 13.504049,-0.18197 13.336985,-0.070069 13.164225,0.017876 C 12.993,0.105044 12.816354,0.16527 12.678503,0.175815" />
      <path d="M 12.678503,0.175815 C 12.597446,0.176631 12.372423,0.178896 12.137428,0.181262 C 11.900854,0.183644 11.655557,0.186113 11.478569,0.187895" />
      <path d="M 16.958453,-3.933782 L 16.958453,-2.500173" />
      <path d="M 21.657838,-3.883257 L 21.657838,-2.449648" />
      <path d="M 19.97048,7.603003 L 19.97048,8.973649" />
      <path d="M 15.271096,7.489515 L 15.271096,8.923123" />
      <path d="M 11.479359,0.187887 L 11.479359,0.331858" />
      <path d="M 7.017467,11.473116 L 7.017467,12.906725" />
      <path d="M 4.228009,12.625661 L 4.228009,14.05927" />
      <path d="M 1.236036,13.468649 L 1.236036,14.82346" />
      <path d="M -6.558772,13.555101 L -6.558772,14.879378" />
      <path d="M -9.56706,12.722685 L -9.56706,14.156294" />
      <path d="M -12.381348,11.611569 L -12.381348,13.045178" />
      <path d="M -11.294477,-14.30347 L -11.294477,-12.869861" />
      <path d="M -8.393553,-15.259928 L -8.393553,-13.826319" />
      <path d="M -5.33148,-15.817276 L -5.33148,-14.383668" />
      <path d="M -0.632995,-15.8487 L -0.632995,-14.415092" />
      <path d="M 2.440803,-15.337388 L 2.440803,-13.903779" />
      <path d="M 5.362274,-14.420596 L 5.362274,-12.986987" />
    </g>
  </g>
</svg>