<?xml version='1.0' encoding='utf-8'?>
<svg width="89.043675mm" height="100.090001mm" viewBox="-18.36406 -17.633332 26.609964 29.911067" version="1.1" xmlns="http://www.w3.org/2000/svg">
  <g transform="scale(1,-1)" stroke-linecap="round">
    <g fill="none" stroke="rgb(0,0,0)" stroke-width="0.02689575383412767" id="Visible">
      <path d="M 5.879639,-7.587701 L 5.893259,-7.576783" />
      <path d="M 6.246627,-7.463987 Q 6.125604,-7.583323 6.005706,-7.69539" />
      <path d="M 6.005706,-7.69539 Q 6.022933,-7.673155 6.039396,-7.6289" />
      <path d="M 6.039396,-7.6289 C 6.474266,-7.196553 6.917842,-6.701806 7.333027,-6.202812" />
      <path d="M 7.333027,-6.202812 C 7.359026,-6.171875 7.389738,-6.13442 7.425162,-6.090445 C 7.486895,-6.013593 7.554686,-5.924969 7.560414,-5.906592" />
      <path d="M 7.560414,-5.906592 Q 7.573851,-5.844916 7.586524,-5.764635" />
      <path d="M 7.586524,-5.764635 L 7.58583,-5.762042" />
      <path d="M 7.58583,-5.762042 C 7.571574,-5.756762 7.439336,-5.904096 7.374984,-5.974696" />
      <path d="M 7.374984,-5.974696 C 6.969566,-6.420589 6.550402,-6.782612 6.142329,-7.069265" />
      <path d="M 6.142329,-7.069265 Q 6.155752,-6.95103 6.16818,-6.812034" />
      <path d="M 6.16818,-6.812034 C 6.595928,-6.329606 7.032099,-5.798364 7.44161,-5.311737" />
      <path d="M 7.44161,-5.311737 C 7.467275,-5.282026 7.497541,-5.244955 7.532407,-5.200524 C 7.593151,-5.122451 7.659642,-5.028133 7.664403,-4.989706" />
      <path d="M 7.664403,-4.989706 Q 7.674103,-4.847375 7.682866,-4.688149" />
      <path d="M 7.682866,-4.688149 Q 7.682926,-4.679242 7.678452,-4.676246" />
      <path d="M 7.678452,-4.676246 C 7.650721,-4.661037 7.531823,-4.770353 7.471278,-4.827155" />
      <path d="M 7.471278,-4.827155 C 7.068673,-5.20098 6.649764,-5.450279 6.240965,-5.623213" />
      <path d="M 6.240965,-5.623213 Q 6.24967,-5.417035 6.257216,-5.19277" />
      <path d="M 6.257216,-5.19277 C 6.551439,-4.841279 6.848897,-4.480817 7.140115,-4.139831 C 7.266468,-3.991371 7.390817,-3.850688 7.513161,-3.717781" />
      <path d="M 7.513161,-3.717781 C 7.580094,-3.646887 7.723978,-3.479916 7.731823,-3.391408" />
      <path d="M 7.731823,-3.391408 Q 7.737124,-3.178122 7.74138,-2.950802" />
      <path d="M 7.74138,-2.950802 Q 7.740787,-2.92869 7.727978,-2.922019" />
      <path d="M 7.727978,-2.922019 C 7.688015,-2.90175 7.584306,-2.96996 7.528519,-3.009756" />
      <path d="M 7.528519,-3.009756 C 7.126915,-3.286929 6.706251,-3.407446 6.294892,-3.455779" />
      <path d="M 6.294892,-3.455779 Q 6.298285,-3.175709 6.300435,-2.881458" />
      <path d="M 6.300435,-2.881458 C 6.590716,-2.54013 6.884502,-2.200242 7.17285,-1.894978 C 7.297946,-1.761872 7.421264,-1.640069 7.542804,-1.529569" />
      <path d="M 7.542804,-1.529569 C 7.609328,-1.471139 7.752095,-1.329509 7.758078,-1.220618" />
      <path d="M 7.758078,-1.220618 Q 7.758619,-0.950912 7.758078,-0.67099" />
      <path d="M 7.758078,-0.67099 Q 7.755101,-0.625339 7.722587,-0.614618" />
      <path d="M 7.722587,-0.614618 C 7.673438,-0.596059 7.590831,-0.625153 7.542804,-0.646352" />
      <path d="M 7.542804,-0.646352 C 7.140323,-0.808875 6.716013,-0.793326 6.300435,-0.71467" />
      <path d="M 6.300435,-0.71467 Q 6.298285,-0.379795 6.294892,-0.035611" />
      <path d="M 6.294892,-0.035611 C 6.58219,0.272926 6.873391,0.56972 7.160058,0.819093 C 7.284413,0.92805 7.407233,1.022944 7.528519,1.103776" />
      <path d="M 7.528519,1.103776 C 7.594931,1.145906 7.737244,1.252862 7.74138,1.374727" />
      <path d="M 7.74138,1.374727 Q 7.737124,1.682473 7.731823,1.995921" />
      <path d="M 7.731823,1.995921 C 7.728928,2.064023 7.677958,2.09093 7.62591,2.100834" />
      <path d="M 7.62591,2.100834 Q 7.561613,2.110273 7.513161,2.101996" />
      <path d="M 7.513161,2.101996 Q 7.292289,2.081264 7.06345,2.128876" />
      <path d="M 7.06345,2.128876 C 6.796815,2.181638 6.525664,2.283896 6.257216,2.413311" />
      <path d="M 6.257216,2.413311 Q 6.24967,2.78017 6.240965,3.150832" />
      <path d="M 6.240965,3.150832 C 6.526441,3.406183 6.816319,3.640301 7.102611,3.817423 C 7.226792,3.895081 7.349681,3.956872 7.471278,4.002797" />
      <path d="M 7.471278,4.002797 C 7.537885,4.025903 7.680436,4.091212 7.682866,4.217759" />
      <path d="M 7.682866,4.217759 L 7.664403,4.868185" />
      <path d="M 7.664403,4.868185 C 7.654824,4.994015 7.509207,5.035685 7.44161,5.047992" />
      <path d="M 7.44161,5.047992 C 7.317767,5.074147 7.191719,5.116474 7.063466,5.174974 C 6.768578,5.307607 6.466827,5.499154 6.16818,5.714998" />
      <path d="M 6.16818,5.714998 L 6.142329,6.46072" />
      <path d="M 6.142329,6.46072 C 6.500435,6.692302 6.866445,6.883625 7.225067,6.951924" />
      <path d="M 7.225067,6.951924 Q 7.300413,6.965727 7.374984,6.969929" />
      <path d="M 7.374984,6.969929 Q 7.400381,6.970222 7.433974,6.975909" />
      <path d="M 7.433974,6.975909 C 7.501455,6.988511 7.586917,7.021205 7.586524,7.114729" />
      <path d="M 7.586524,7.114729 Q 7.573851,7.434475 7.560414,7.750064" />
      <path d="M 7.560414,7.750064 C 7.549317,7.873961 7.401526,7.958939 7.333027,7.990871" />
      <path d="M 7.333027,7.990871 C 7.207477,8.053181 7.079572,8.13019 6.949311,8.221898 C 6.649828,8.430964 6.343045,8.690565 6.039396,8.965386" />
      <path d="M 6.039396,8.965386 Q 6.022933,9.320736 6.005706,9.66849" />
      <path d="M 6.005706,9.66849 C 6.414935,9.813495 6.836348,9.900021 7.246197,9.802968" />
      <path d="M 7.246197,9.802968 C 7.290905,9.790555 7.364587,9.777014 7.413492,9.796059" />
      <path d="M 7.413492,9.796059 Q 7.45748,9.810297 7.45892,9.868215" />
      <path d="M 7.45892,9.868215 Q 7.443201,10.161103 7.426942,10.44516" />
      <path d="M 7.426942,10.44516 C 7.414661,10.558669 7.264375,10.680847 7.194811,10.730081" />
      <path d="M 7.194811,10.730081 C 7.067264,10.82403 6.937267,10.9302 6.80482,11.04859 C 6.500324,11.319208 6.188325,11.628529 5.879639,11.942967" />
      <path d="M 5.879639,11.942967 Q 5.860263,12.255607 5.840406,12.555536" />
      <path d="M 5.840406,12.555536 C 6.252595,12.574628 6.678097,12.524711 7.093696,12.308846" />
      <path d="M 7.093696,12.308846 C 7.149384,12.278472 7.250213,12.229852 7.292461,12.253039" />
      <path d="M 7.292461,12.253039 Q 7.309414,12.262163 7.308749,12.290571" />
      <path d="M 7.308749,12.290571 Q 7.291056,12.536641 7.273082,12.769808" />
      <path d="M 7.273082,12.769808 C 7.260034,12.865181 7.1071,13.015916 7.036381,13.07895" />
      <path d="M 7.036381,13.07895 C 6.906684,13.197866 6.774503,13.325688 6.639839,13.462417 C 6.330255,13.775509 6.013208,14.112828 5.699797,14.444823" />
      <path d="M 5.699797,14.444823 Q 5.678828,14.693447 5.657695,14.925113" />
      <path d="M 5.657695,14.925113 C 6.074446,14.817893 6.505598,14.635867 6.927872,14.316792" />
      <path d="M 6.927872,14.316792 C 6.99004,14.269028 7.109836,14.180352 7.140656,14.199765" />
      <path d="M 7.140656,14.199765 Q 7.146939,14.204251 7.146246,14.216717" />
      <path d="M 7.146246,14.216717 Q 7.127783,14.3992 7.109321,14.565587" />
      <path d="M 7.109321,14.565587 C 7.104985,14.594965 7.069465,14.647527 7.027901,14.699788 C 6.974972,14.766425 6.909651,14.83597 6.868535,14.877405" />
      <path d="M 6.868535,14.877405 C 6.43245,15.326979 5.966774,15.835185 5.512126,16.300458" />
      <path d="M 5.512126,16.300458 Q 5.490993,16.468123 5.470023,16.615737" />
      <path d="M 5.470023,16.615737 C 5.892629,16.390418 6.330607,16.089617 6.760026,15.689969" />
      <path d="M 6.760026,15.689969 C 6.827104,15.62747 6.962941,15.500241 6.981254,15.510385" />
      <path d="M 6.981254,15.510385 L 6.982484,15.515389" />
      <path d="M 6.982484,15.515389 Q 6.964511,15.621849 6.946818,15.710118" />
      <path d="M 6.946818,15.710118 C 6.942592,15.726381 6.906616,15.772989 6.864461,15.822958 C 6.810779,15.886677 6.744461,15.958829 6.702711,16.002885" />
      <path d="M 6.702711,16.002885 C 6.259951,16.475375 5.788625,16.958238 5.329414,17.383412" />
      <path d="M 5.329414,17.383412 Q 5.309558,17.458692 5.290181,17.512195" />
      <path d="M 5.290181,17.512195 C 5.719533,17.185035 6.165049,16.786892 6.601597,16.334795" />
      <path d="M 6.601597,16.334795 C 6.629101,16.306328 6.661202,16.272904 6.697901,16.234524 C 6.760431,16.169174 6.827285,16.098094 6.828672,16.097949" />
      <path d="M 6.828672,16.097949 L 6.828625,16.098086" />
      <path d="M 6.828625,16.098086 L 6.818965,16.110229" />
      <path d="M 6.818965,16.110229 L 6.805441,16.121624" />
      <path d="M 5.691004,17.189991 Q 5.426614,17.41803 5.164115,17.619884" />
      <path d="M 7.986697,-5.455853 A 10.505820880163133,0.5026391902315598 91.7450503263243 0,1 7.348029,15.507236" />
      <line x1="2.351016" y1="-3.359729" x2="2.350105" y2="-3.358822" />
      <path d="M 2.335285,-3.251164 L 2.350105,-3.358822" />
      <path d="M 2.320408,-3.136433 L 2.335285,-3.251164" />
      <path d="M 2.350105,-3.358822 Q 2.70031,-3.165291 3.046224,-2.875833" />
      <path d="M 2.6793,-3.642336 Q 2.563207,-3.774887 2.449287,-3.900319" />
      <line x1="5.879639" y1="-7.587701" x2="2.476961" y2="-3.991159" />
      <path d="M 2.449287,-3.900319 Q 2.463293,-3.953419 2.476961,-3.991159" />
      <path d="M 2.476961,-3.991159 Q 2.625736,-3.87221 2.775876,-3.737905" />
      <line x1="6.005706" y1="-7.69539" x2="2.565885" y2="-4.06712" />
      <line x1="6.039396" y1="-7.6289" x2="2.589649" y2="-4.02022" />
      <path d="M 2.565885,-4.06712 Q 2.578036,-4.051436 2.589649,-4.02022" />
      <line x1="7.333027" y1="-6.202812" x2="7.236984" y2="-6.122874" />
      <path d="M 2.589649,-4.02022 Q 2.704965,-3.905262 2.821329,-3.782885" />
      <line x1="7.560414" y1="-5.906592" x2="7.48954" y2="-5.850203" />
      <line x1="7.586524" y1="-5.764635" x2="7.58311" y2="-5.76196" />
      <line x1="6.142329" y1="-7.069265" x2="2.662255" y2="-3.625469" />
      <line x1="6.16818" y1="-6.812034" x2="2.68049" y2="-3.444025" />
      <path d="M 2.662255,-3.625469 Q 2.671723,-3.542069 2.68049,-3.444025" />
      <line x1="7.44161" y1="-5.311737" x2="7.15457" y2="-5.094315" />
      <path d="M 2.68049,-3.444025 Q 2.898238,-3.196933 3.117121,-2.936802" />
      <line x1="7.664403" y1="-4.989706" x2="7.457131" y2="-4.840335" />
      <line x1="7.682866" y1="-4.688149" x2="7.664751" y2="-4.675521" />
      <line x1="6.240965" y1="-5.623213" x2="2.73183" y2="-2.605463" />
      <line x1="6.257216" y1="-5.19277" x2="2.743293" y2="-2.301841" />
      <path d="M 2.73183,-2.605463 Q 2.73797,-2.460031 2.743293,-2.301841" />
      <line x1="7.513161" y1="-3.717781" x2="6.893133" y2="-3.325653" />
      <path d="M 2.743293,-2.301841 C 2.964407,-2.037819 3.191054,-1.762554 3.409632,-1.508414" />
      <line x1="7.731823" y1="-3.391408" x2="7.315203" y2="-3.142367" />
      <line x1="7.74138" y1="-2.950802" x2="7.688969" y2="-2.921217" />
      <line x1="6.294892" y1="-3.455779" x2="2.769869" y2="-1.076616" />
      <line x1="6.300435" y1="-2.881458" x2="2.773778" y2="-0.671506" />
      <path d="M 2.769869,-1.076616 Q 2.772262,-0.879063 2.773778,-0.671506" />
      <line x1="7.542804" y1="-1.529569" x2="3.650111" y2="0.282079" />
      <path d="M 2.773778,-0.671506 C 3.066006,-0.329926 3.370018,0.02636 3.650111,0.282079" />
      <line x1="7.758078" y1="-1.220618" x2="6.717291" y2="-0.767952" />
      <path d="M 3.650111,0.282079 C 3.680462,0.308504 3.732979,0.359802 3.768088,0.4138" />
      <line x1="7.758078" y1="-0.67099" x2="7.623199" y2="-0.617848" />
      <line x1="6.300435" y1="-0.71467" x2="2.773778" y2="0.856886" />
      <line x1="6.294892" y1="-0.035611" x2="2.769869" y2="1.335876" />
      <path d="M 2.773778,0.856886 Q 2.772262,1.093098 2.769869,1.335876" />
      <line x1="7.528519" y1="1.103776" x2="3.640035" y2="2.139568" />
      <path d="M 2.769869,1.335876 C 3.059123,1.644341 3.36054,1.952256 3.640035,2.139568" />
      <line x1="7.74138" y1="1.374727" x2="3.790181" y2="2.330689" />
      <path d="M 3.640035,2.139568 C 3.686237,2.168468 3.788209,2.246125 3.790181,2.330689" />
      <line x1="7.731823" y1="1.995921" x2="3.78344" y2="2.768862" />
      <path d="M 3.790181,2.330689 Q 3.787179,2.547764 3.78344,2.768862" />
      <path d="M 3.78344,2.768862 L 3.783366,2.770445" />
      <line x1="6.257216" y1="2.413311" x2="2.743293" y2="3.063277" />
      <path d="M 3.311988,2.862644 Q 3.027912,2.92267 2.743293,3.063277" />
      <line x1="6.240965" y1="3.150832" x2="2.73183" y2="3.583504" />
      <path d="M 2.743293,3.063277 L 2.73183,3.583504" />
      <line x1="7.471278" y1="4.002797" x2="3.599659" y2="4.184456" />
      <path d="M 2.73183,3.583504 C 3.019276,3.83847 3.319455,4.077696 3.599659,4.184456" />
      <line x1="7.682866" y1="4.217759" x2="3.748907" y2="4.336084" />
      <path d="M 3.599659,4.184456 C 3.646002,4.200106 3.74813,4.247977 3.748907,4.336084" />
      <line x1="7.664403" y1="4.868185" x2="3.735884" y2="4.794877" />
      <path d="M 3.748907,4.336084 L 3.735884,4.794877" />
      <line x1="7.44161" y1="5.047992" x2="3.578732" y2="4.921708" />
      <path d="M 3.735884,4.794877 C 3.730124,4.882636 3.625749,4.913565 3.578732,4.921708" />
      <line x1="6.16818" y1="5.714998" x2="2.68049" y2="5.392195" />
      <path d="M 3.578732,4.921708 C 3.293765,4.98275 2.981287,5.176805 2.68049,5.392195" />
      <line x1="6.142329" y1="6.46072" x2="2.662255" y2="5.918207" />
      <path d="M 2.68049,5.392195 L 2.662255,5.918207" />
      <path d="M 2.662255,5.918207 C 2.913754,6.081106 3.174898,6.217228 3.425988,6.264689" />
      <line x1="7.586524" y1="7.114729" x2="3.68095" y2="6.379527" />
      <path d="M 3.634381,6.302386 Q 3.678004,6.323826 3.68095,6.379527" />
      <line x1="7.560414" y1="7.750064" x2="3.662533" y2="6.827674" />
      <path d="M 3.68095,6.379527 L 3.662533,6.827674" />
      <line x1="7.333027" y1="7.990871" x2="3.50214" y2="6.997533" />
      <path d="M 3.662533,6.827674 C 3.655725,6.913803 3.54978,6.975728 3.50214,6.997533" />
      <line x1="6.039396" y1="8.965386" x2="2.589649" y2="7.684928" />
      <path d="M 3.50214,6.997533 C 3.213231,7.141888 2.895457,7.410213 2.589649,7.684928" />
      <line x1="6.005706" y1="9.66849" x2="2.565885" y2="8.180878" />
      <path d="M 2.589649,7.684928 Q 2.578036,7.935582 2.565885,8.180878" />
      <line x1="7.45892" y1="9.868215" x2="7.276908" y2="9.795445" />
      <line x1="7.426942" y1="10.44516" x2="3.568385" y2="8.72872" />
      <path d="M 3.574714,8.617164 L 3.568385,8.72872" />
      <line x1="7.194811" y1="10.730081" x2="3.404646" y2="8.929695" />
      <path d="M 3.568385,8.72872 C 3.560765,8.807343 3.453023,8.895818 3.404646,8.929695" />
      <line x1="5.879639" y1="11.942967" x2="2.476961" y2="9.785231" />
      <path d="M 3.404646,8.929695 C 3.111128,9.146906 2.787817,9.470548 2.476961,9.785231" />
      <line x1="5.840406" y1="12.555536" x2="2.449287" y2="10.217321" />
      <path d="M 2.476961,9.785231 Q 2.463293,10.005758 2.449287,10.217321" />
      <line x1="7.308749" y1="12.290571" x2="7.239309" y2="12.249526" />
      <line x1="7.273082" y1="12.769808" x2="6.761361" y2="12.447556" />
      <line x1="7.036381" y1="13.07895" x2="6.240972" y2="12.549363" />
      <line x1="5.699797" y1="14.444823" x2="2.350105" y2="11.549971" />
      <path d="M 3.162546,10.709121 C 2.899635,10.965026 2.620654,11.26396 2.350105,11.549971" />
      <line x1="5.657695" y1="14.925113" x2="2.320408" y2="11.888754" />
      <path d="M 2.350105,11.549971 Q 2.335314,11.725343 2.320408,11.888754" />
      <line x1="7.146246" y1="14.216717" x2="7.120786" y2="14.19765" />
      <line x1="7.109321" y1="14.565587" x2="6.857143" y2="14.369307" />
      <line x1="6.868535" y1="14.877405" x2="6.513455" y2="14.586893" />
      <line x1="5.512126" y1="16.300458" x2="2.217727" y2="12.858884" />
      <path d="M 2.760948,12.28957 Q 2.488837,12.579228 2.217727,12.858884" />
      <line x1="5.470023" y1="16.615737" x2="2.188029" y2="13.081273" />
      <path d="M 2.217727,12.858884 Q 2.20282,12.97715 2.188029,13.081273" />
      <line x1="6.982484" y1="15.515389" x2="6.975987" y2="15.509793" />
      <line x1="6.946818" y1="15.710118" x2="6.839996" y2="15.616213" />
      <line x1="6.702711" y1="16.002885" x2="6.558446" y2="15.870147" />
      <line x1="5.329414" y1="17.383412" x2="2.088848" y2="13.622769" />
      <path d="M 2.407694,13.317835 Q 2.247284,13.475544 2.088848,13.622769" />
      <line x1="5.290181" y1="17.512195" x2="2.061174" y2="13.713609" />
      <path d="M 2.088848,13.622769 Q 2.074841,13.67587 2.061174,13.713609" />
      <line x1="6.828625" y1="16.098086" x2="6.828539" y2="16.098007" />
      <line x1="5.164115" y1="17.619884" x2="1.97225" y2="13.78957" />
      <path d="M 2.064508,13.717532 L 1.97225,13.78957" />
      <path d="M 1.97225,13.78957 Q 1.960098,13.773886 1.948486,13.74267" />
      <path d="M 1.948486,13.74267 Q 2.16949,13.536338 2.396817,13.306122" />
      <line x1="2.096202" y1="13.602792" x2="1.87588" y2="13.347919" />
      <path d="M 2.231984,13.128609 Q 2.052486,13.249265 1.87588,13.347919" />
      <path d="M 1.87588,13.347919 Q 1.866411,13.26452 1.857645,13.166475" />
      <path d="M 1.857645,13.166475 C 2.140415,12.875372 2.437377,12.553874 2.723614,12.255602" />
      <line x1="2.235693" y1="12.770675" x2="1.806304" y2="12.327914" />
      <path d="M 2.478258,12.03237 Q 2.140422,12.225689 1.806304,12.327914" />
      <path d="M 1.806304,12.327914 Q 1.800164,12.182482 1.794842,12.024292" />
      <path d="M 1.794842,12.024292 C 2.111395,11.690906 2.446229,11.32944 2.761654,11.040321" />
      <path d="M 2.761654,11.040321 C 2.81373,10.994303 2.929148,10.880612 2.931294,10.819974" />
      <path d="M 2.931294,10.819974 Q 2.927981,10.686642 2.925245,10.545499" />
      <line x1="2.927701" y1="10.665291" x2="2.750821" y2="10.5409" />
      <path d="M 2.850218,10.493767 C 2.815366,10.505611 2.776122,10.526193 2.750821,10.5409" />
      <line x1="2.436699" y1="11.354441" x2="1.768266" y2="10.799066" />
      <path d="M 2.750821,10.5409 C 2.432931,10.716348 2.091731,10.784304 1.768266,10.799066" />
      <path d="M 1.768266,10.799066 Q 1.765873,10.601513 1.764356,10.393957" />
      <path d="M 1.764356,10.393957 C 2.084847,10.071044 2.423454,9.734336 2.740744,9.496817" />
      <path d="M 2.740744,9.496817 C 2.793099,9.459539 2.909334,9.363819 2.912775,9.288759" />
      <path d="M 2.912775,9.288759 Q 2.912393,9.098516 2.912775,8.901067" />
      <line x1="2.912676" y1="8.960795" x2="2.740744" y2="8.87382" />
      <path d="M 2.912775,8.901067 Q 2.910991,8.871495 2.888653,8.861531" />
      <path d="M 2.888653,8.861531 C 2.850336,8.842939 2.77948,8.860885 2.740744,8.87382" />
      <line x1="2.794983" y1="9.454261" x2="1.764356" y2="8.865565" />
      <path d="M 2.740744,8.87382 C 2.423454,8.969541 2.084847,8.940115 1.764356,8.865565" />
      <path d="M 1.764356,8.865565 Q 1.765873,8.629353 1.768266,8.386575" />
      <path d="M 1.768266,8.386575 C 2.037185,8.144428 2.317189,7.908474 2.587345,7.734501" />
      <path d="M 2.925453,7.394057 L 2.931294,7.019902" />
      <line x1="2.917569" y1="6.978039" x2="2.761654" y2="6.935212" />
      <path d="M 2.931294,7.019902 C 2.930912,6.97549 2.896727,6.953582 2.858611,6.943213" />
      <path d="M 2.858611,6.943213 Q 2.8033,6.930981 2.761654,6.935212" />
      <path d="M 2.761654,6.935212 Q 2.548878,6.939805 2.328999,6.874757" />
      <path d="M 2.328999,6.874757 Q 2.058508,6.795883 1.794842,6.659174" />
      <path d="M 1.794842,6.659174 L 1.806304,6.138947" />
      <path d="M 1.806304,6.138947 C 2.091567,5.930717 2.388902,5.739586 2.672346,5.632492" />
      <path d="M 2.97299,5.194743 L 2.97885,4.993887" />
      <path d="M 2.97885,4.993887 C 2.977927,4.905924 2.863732,4.868336 2.812124,4.857189" />
      <path d="M 2.812124,4.857189 C 2.499707,4.777946 2.169567,4.564313 1.857645,4.330256" />
      <path d="M 1.857645,4.330256 L 1.87588,3.804244" />
      <path d="M 1.87588,3.804244 C 2.149533,3.663676 2.433523,3.549097 2.704979,3.511605" />
      <path d="M 2.704979,3.511605 L 2.733584,3.508144" />
      <path d="M 3.04913,2.935302 C 3.029313,2.860847 2.934855,2.803832 2.888716,2.781364" />
      <path d="M 2.888716,2.781364 C 2.580241,2.618808 2.255397,2.330905 1.948486,2.037522" />
      <line x1="2.770966" y1="1.219879" x2="1.97225" y2="1.541573" />
      <path d="M 1.948486,2.037522 Q 1.960098,1.786869 1.97225,1.541573" />
      <path d="M 1.97225,1.541573 C 2.287007,1.460085 2.615952,1.419761 2.920171,1.495008" />
      <path d="M 2.915814,0.793592 C 2.632956,0.559434 2.339929,0.245792 2.061174,-0.06278" />
      <line x1="2.3785" y1="-0.685808" x2="2.088848" y2="-0.49487" />
      <path d="M 2.061174,-0.06278 Q 2.074841,-0.283308 2.088848,-0.49487" />
      <line x1="3.103232" y1="-0.28999" x2="3.057533" y2="-0.264416" />
      <path d="M 2.088848,-0.49487 C 2.411761,-0.490193 2.749426,-0.433623 3.057533,-0.264416" />
      <path d="M 3.057533,-0.264416 C 3.085561,-0.248091 3.131254,-0.224673 3.168819,-0.216071" />
      <path d="M 2.812411,-1.105329 C 2.603066,-1.336077 2.391893,-1.58513 2.188029,-1.82752" />
      <line x1="2.30838" y1="-2.244296" x2="2.217727" y2="-2.166303" />
      <path d="M 2.188029,-1.82752 Q 2.20282,-2.002893 2.217727,-2.166303" />
      <line x1="3.202478" y1="-1.700695" x2="3.174501" y2="-1.680765" />
      <path d="M 2.217727,-2.166303 C 2.537438,-2.072766 2.871045,-1.921701 3.174501,-1.680765" />
      <path d="M 3.174501,-1.680765 C 3.219485,-1.644323 3.312102,-1.573182 3.338512,-1.589636" />
      <path d="M 3.338512,-1.589636 L 3.339417,-1.590325" />
      <path d="M 2.750765,-2.621747 Q 2.532767,-2.883703 2.320408,-3.136433" />
      <path d="M 3.296407,9.012796 A 7.410513719207065,0.3545476986053721 91.7450503263243 0,1 3.297042,8.49708" />
      <path d="M 3.310832,7.107177 A 7.410513719207065,0.3545476986053721 91.7450503263243 0,1 3.326921,6.241928" />
      <path d="M 3.359145,4.991009 A 7.410513719207065,0.3545476986053721 91.7450503263243 0,1 3.38891,4.083129" />
      <path d="M 3.438667,2.837867 A 7.410513719207065,0.3545476986053721 91.7450503263243 0,1 3.477441,2.020129" />
      <path d="M 3.5649,0.504345 A 7.410513719207065,0.3545476986053721 91.7450503263243 0,1 3.584058,0.220925" />
      <path d="M -2.59089,1.294176 Q -2.649121,1.512633 -2.720541,1.726326" />
      <path d="M -6.892685,1.582536 Q -6.982599,1.359915 -7.056869,1.132214" />
      <path d="M -14.880328,-0.213368 Q -15.137959,-0.359324 -15.37909,-0.513182" />
      <path d="M -15.37909,-0.513182 Q -15.354857,-0.660789 -15.324079,-0.808513" />
      <path d="M -16.824153,-1.65186 Q -17.002595,-1.828618 -17.161288,-2.010716" />
      <path d="M -17.161288,-2.010716 Q -17.050023,-2.311328 -16.911467,-2.606574" />
      <path d="M -18.007802,-3.311256 Q -18.094895,-3.506769 -18.160334,-3.704699" />
      <path d="M -18.160334,-3.704699 Q -17.915944,-4.124664 -17.621367,-4.520787" />
      <path d="M -18.350612,-5.078471 Q -18.34042,-5.279416 -18.308147,-5.479688" />
      <path d="M -18.308147,-5.479688 C -18.034013,-5.819599 -17.734489,-6.149497 -17.419954,-6.447613" />
      <path d="M -17.829221,-6.833073 Q -17.722439,-7.025755 -17.594652,-7.214722" />
      <path d="M -17.594652,-7.214722 C -17.189902,-7.603902 -16.751533,-7.97405 -16.327497,-8.272043" />
      <path d="M -16.47916,-8.455487 Q -16.314645,-8.599192 -16.137054,-8.73836" />
      <path d="M -16.137054,-8.73836 L -16.068473,-8.791559" />
      <path d="M -16.068473,-8.791559 L -15.883833,-8.932976" />
      <path d="M -15.883833,-8.932976 C -15.454468,-9.257088 -15.004816,-9.556886 -14.624341,-9.77261" />
      <path d="M -14.624341,-9.77261 C -14.55435,-9.812739 -14.389569,-9.903371 -14.304165,-9.958625" />
      <path d="M -14.304165,-9.958625 L -14.290943,-9.967346" />
      <path d="M -14.01336,-10.15828 C -14.238866,-10.031257 -14.347118,-9.932926 -14.392435,-9.835149" />
      <path d="M -14.392435,-9.835149 Q -14.120389,-9.973372 -13.833617,-10.102742" />
      <path d="M -13.833617,-10.102742 C -13.498906,-10.321213 -13.164511,-10.522731 -12.86288,-10.69139 C -12.731365,-10.764822 -12.610715,-10.830244 -12.500929,-10.887657" />
      <path d="M -12.500929,-10.887657 C -12.442872,-10.918741 -12.30216,-10.987795 -12.19554,-11.029486" />
      <path d="M -12.19554,-11.029486 Q -11.931727,-11.132047 -11.65718,-11.226148" />
      <path d="M -11.65718,-11.226148 Q -11.595627,-11.246491 -11.597147,-11.23848" />
      <path d="M -11.597147,-11.23848 C -11.595145,-11.232783 -11.618029,-11.215824 -11.635818,-11.20368" />
      <path d="M -11.635818,-11.20368 C -11.766002,-11.111489 -11.782335,-11.03295 -11.751579,-10.948763" />
      <path d="M -11.751579,-10.948763 Q -11.737744,-10.913651 -11.711251,-10.878038" />
      <path d="M -11.711251,-10.878038 Q -11.381795,-10.973775 -11.042385,-11.058916" />
      <path d="M -11.042385,-11.058916 C -10.737787,-11.23223 -10.443863,-11.389368 -10.195847,-11.519203 C -10.087488,-11.575692 -9.992859,-11.625908 -9.911961,-11.669852" />
      <path d="M -9.911961,-11.669852 C -9.869796,-11.693858 -9.762742,-11.745411 -9.642171,-11.771055" />
      <path d="M -9.642171,-11.771055 Q -9.337872,-11.833488 -9.027284,-11.886259" />
      <path d="M -9.027284,-11.886259 C -8.943243,-11.899973 -8.923124,-11.887106 -8.919983,-11.872795" />
      <path d="M -8.919983,-11.872795 Q -8.9188,-11.863285 -8.923877,-11.854978" />
      <path d="M -8.923877,-11.854978 Q -8.935419,-11.8287 -8.929719,-11.802064" />
      <path d="M -8.929719,-11.802064 C -8.909941,-11.715111 -8.785336,-11.620218 -8.618327,-11.513082" />
      <path d="M -8.618327,-11.513082 Q -8.253913,-11.559809 -7.884996,-11.594918" />
      <path d="M -7.884996,-11.594918 C -7.631268,-11.728796 -7.397846,-11.848685 -7.220347,-11.948465 C -7.142527,-11.991803 -7.080369,-12.030945 -7.033873,-12.065891" />
      <path d="M -7.033873,-12.065891 C -7.010472,-12.085265 -6.944372,-12.124589 -6.818068,-12.132795" />
      <path d="M -6.818068,-12.132795 Q -6.494019,-12.150845 -6.168557,-12.15869" />
      <path d="M -6.168557,-12.15869 C -6.04284,-12.160536 -6.002112,-12.125464 -5.99015,-12.107504" />
      <path d="M -5.99015,-12.107504 C -5.96467,-12.075373 -5.922856,-12.040312 -5.864709,-12.002318 C -5.732887,-11.914911 -5.541244,-11.812037 -5.324442,-11.697005" />
      <path d="M -5.324442,-11.697005 Q -4.949903,-11.691537 -4.576619,-11.674221" />
      <path d="M -4.576619,-11.674221 C -4.391053,-11.777071 -4.23404,-11.869382 -4.139154,-11.949922 C -4.097178,-11.984799 -4.071727,-12.017753 -4.0628,-12.048784" />
      <path d="M -4.0628,-12.048784 C -4.059758,-12.066291 -4.039116,-12.099487 -3.915686,-12.090054" />
      <path d="M -3.915686,-12.090054 Q -3.593972,-12.062491 -3.275815,-12.024875" />
      <path d="M -3.275815,-12.024875 C -3.150969,-12.009023 -3.066359,-11.965098 -3.034568,-11.944047" />
      <path d="M -3.034568,-11.944047 C -2.972525,-11.905735 -2.895492,-11.862279 -2.803468,-11.813678 C -2.593689,-11.702142 -2.332002,-11.567248 -2.054066,-11.417271" />
      <path d="M -2.054066,-11.417271 Q -1.694928,-11.359981 -1.342716,-11.291421" />
      <path d="M -1.342716,-11.291421 Q -1.199483,-11.399676 -1.166885,-11.496995" />
      <path d="M -1.166885,-11.496995 Q -1.14655,-11.557817 -1.201217,-11.619697" />
      <path d="M -1.201217,-11.619697 Q -1.216871,-11.634022 -1.216529,-11.646938" />
      <path d="M -1.216529,-11.646938 C -1.213991,-11.656124 -1.195383,-11.66044 -1.13282,-11.645744" />
      <path d="M -1.13282,-11.645744 Q -0.835364,-11.574448 -0.546194,-11.493934" />
      <path d="M -0.546194,-11.493934 C -0.430727,-11.461108 -0.308002,-11.402538 -0.258547,-11.375749" />
      <path d="M -0.258547,-11.375749 C -0.164171,-11.326388 -0.057167,-11.269933 0.062463,-11.206382 C 0.335903,-11.060715 0.649799,-10.885165 0.969927,-10.692945" />
      <path d="M 0.969927,-10.692945 Q 1.289191,-10.587737 1.596328,-10.472606" />
      <path d="M 1.596328,-10.472606 C 1.61784,-10.579574 1.570977,-10.679168 1.355865,-10.807871" />
      <path d="M 1.355865,-10.807871 C 1.330539,-10.822875 1.294191,-10.84444 1.295078,-10.847194" />
      <path d="M 1.295078,-10.847194 Q 1.293562,-10.850558 1.340884,-10.830145" />
      <path d="M 1.340884,-10.830145 Q 1.59381,-10.719973 1.834287,-10.602049" />
      <path d="M 1.834287,-10.602049 C 1.932506,-10.55413 2.084983,-10.476121 2.148731,-10.441336" />
      <path d="M 2.148731,-10.441336 C 2.269009,-10.376814 2.39869,-10.303641 2.537774,-10.221816 C 2.85624,-10.034341 3.200955,-9.812271 3.54146,-9.573388" />
      <path d="M 3.54146,-9.573388 Q 3.799091,-9.427432 4.040222,-9.273574" />
      <path d="M 4.040222,-9.273574 Q 3.972578,-9.346689 3.850964,-9.429191" />
      <path d="M 4.001139,-9.217652 L 4.023214,-9.204488" />
      <path d="M 4.023214,-9.204488 C 4.161198,-9.121724 4.304719,-9.029254 4.453778,-8.927077 C 4.795567,-8.692965 5.147609,-8.421681 5.485285,-8.134896" />
      <path d="M 5.485285,-8.134896 Q 5.663727,-7.958139 5.82242,-7.77604" />
      <path d="M 5.567776,-7.501375 L 5.697842,-7.395546" />
      <path d="M -11.880429,-11.17378 A 10.505820880163133,5.6365172807444655 -2.355571160960567e-16 0,1 0.541561,-11.17378" />
      <line x1="3.258232" y1="-1.68604" x2="3.245562" y2="-1.677091" />
      <path d="M 3.248737,-1.697288 L 3.245562,-1.677091" />
      <path d="M 3.245562,-1.677091 C 2.956753,-1.836858 2.61654,-2.024633 2.278577,-2.265648" />
      <line x1="2.09023" y1="-2.358113" x2="2.077708" y2="-2.346853" />
      <path d="M 2.278577,-2.265648 C 2.226943,-2.303929 2.112932,-2.379006 2.082393,-2.354016" />
      <path d="M 2.082393,-2.354016 L 2.077708,-2.346853" />
      <line x1="2.220695" y1="-2.305399" x2="1.992016" y2="-2.104699" />
      <path d="M 2.077708,-2.346853 Q 2.041471,-2.225103 1.992016,-2.104699" />
      <line x1="2.196121" y1="-1.92247" x2="2.140876" y2="-1.876522" />
      <path d="M 1.992016,-2.104699 C 1.977146,-2.055308 2.090412,-1.929847 2.140876,-1.876522" />
      <path d="M 2.140876,-1.876522 C 2.38177,-1.618475 2.594012,-1.303126 2.77093,-0.984637" />
      <line x1="2.886027" y1="-0.539931" x2="2.742283" y2="-0.453247" />
      <path d="M 2.83575,-0.598687 Q 2.791184,-0.525559 2.742283,-0.453247" />
      <path d="M 2.742283,-0.453247 C 2.415467,-0.656497 2.046415,-0.89437 1.714442,-1.182705" />
      <line x1="1.498988" y1="-1.298181" x2="1.49356" y2="-1.2937" />
      <path d="M 1.714442,-1.182705 C 1.661988,-1.230177 1.53894,-1.328529 1.496124,-1.296128" />
      <path d="M 1.496124,-1.296128 L 1.49356,-1.2937" />
      <line x1="1.562042" y1="-1.290786" x2="1.29397" y2="-1.071696" />
      <path d="M 1.49356,-1.2937 Q 1.399824,-1.18113 1.29397,-1.071696" />
      <line x1="1.781568" y1="-1.124974" x2="1.393715" y2="-0.825959" />
      <path d="M 1.29397,-1.071696 C 1.257143,-1.025956 1.350588,-0.885895 1.393715,-0.825959" />
      <line x1="2.321334" y1="0.220537" x2="1.955446" y2="0.421954" />
      <path d="M 1.393715,-0.825959 C 1.652688,-0.456427 1.83325,-0.008895 1.955446,0.421954" />
      <line x1="2.374302" y1="0.276459" x2="1.665759" y2="0.65901" />
      <path d="M 1.955446,0.421954 Q 1.817126,0.542777 1.665759,0.65901" />
      <path d="M 1.665759,0.65901 C 1.323209,0.408481 0.950468,0.118212 0.647108,-0.214998" />
      <path d="M 0.647108,-0.214998 C 0.598704,-0.27062 0.47995,-0.389948 0.421265,-0.357547" />
      <path d="M 0.421265,-0.357547 Q 0.276419,-0.261829 0.12138,-0.170823" />
      <line x1="0.606862" y1="-0.258167" x2="0.165212" y2="0.085055" />
      <path d="M 0.12138,-0.170823 L 0.117583,-0.168044" />
      <path d="M 0.117583,-0.168044 C 0.06835,-0.124406 0.133048,0.02113 0.165212,0.085055" />
      <line x1="2.456121" y1="0.361463" x2="0.483528" y2="1.39513" />
      <path d="M 0.165212,0.085055 C 0.358889,0.48656 0.448421,0.95317 0.483528,1.39513" />
      <path d="M 0.483528,1.39513 Q 0.291635,1.492628 0.089353,1.583882" />
      <path d="M 0.089353,1.583882 C -0.245587,1.285499 -0.596615,0.944109 -0.850688,0.571524" />
      <path d="M -0.850688,0.571524 C -0.890718,0.509656 -0.992418,0.374757 -1.0661,0.397809" />
      <path d="M -1.0661,0.397809 Q -1.252186,0.470152 -1.445844,0.536528" />
      <line x1="-1.02548" y1="0.398694" x2="-1.460912" y2="0.794438" />
      <path d="M -1.445844,0.536528 Q -1.455827,0.540416 -1.463168,0.547591" />
      <path d="M -1.463168,0.547591 C -1.510842,0.59594 -1.479571,0.731229 -1.460912,0.794438" />
      <line x1="-0.129507" y1="1.384358" x2="-1.407704" y2="2.130754" />
      <path d="M -1.460912,0.794438 C -1.34573,1.217759 -1.35333,1.690156 -1.407704,2.130754" />
      <path d="M -1.407704,2.130754 Q -1.640093,2.198284 -1.879504,2.25834" />
      <path d="M -1.879504,2.25834 C -2.184009,1.914791 -2.489402,1.527035 -2.676873,1.123263" />
      <path d="M -2.676873,1.123263 C -2.705802,1.056524 -2.783518,0.908953 -2.867175,0.920891" />
      <path d="M -2.867175,0.920891 Q -3.08182,0.964929 -3.3009,1.002152" />
      <line x1="-3.188836" y1="0.982614" x2="-3.37384" y2="1.253846" />
      <path d="M -3.3009,1.002152 Q -3.329139,1.008783 -3.345264,1.034841" />
      <path d="M -3.345264,1.034841 C -3.381538,1.091782 -3.379036,1.198314 -3.37384,1.253846" />
      <line x1="-2.720541" y1="1.726326" x2="-3.589367" y2="2.578697" />
      <path d="M -3.37384,1.253846 C -3.345003,1.687339 -3.449217,2.151838 -3.589367,2.578697" />
      <path d="M -3.589367,2.578697 Q -3.846414,2.611656 -4.106638,2.636421" />
      <path d="M -4.106638,2.636421 C -4.359957,2.253471 -4.598903,1.827267 -4.706997,1.402618" />
      <path d="M -4.706997,1.402618 C -4.722853,1.332716 -4.771287,1.176234 -4.85922,1.176052" />
      <path d="M -4.85922,1.176052 Q -5.087795,1.188784 -5.317367,1.194318" />
      <path d="M -5.317367,1.194318 C -5.405053,1.201489 -5.435306,1.361124 -5.443209,1.43197" />
      <path d="M -5.443209,1.43197 C -5.502682,1.863299 -5.696407,2.306754 -5.912782,2.708431" />
      <path d="M -5.912782,2.708431 Q -6.176971,2.704573 -6.440275,2.69236" />
      <line x1="-6.886609" y1="1.15151" x2="-6.802709" y2="1.390552" />
      <path d="M -6.440275,2.69236 Q -6.488366,2.586194 -6.532281,2.477272" />
      <path d="M -6.532281,2.477272 C -6.672762,2.124967 -6.786216,1.749867 -6.802709,1.390552" />
      <path d="M -6.802709,1.390552 C -6.803425,1.351161 -6.808926,1.28666 -6.827173,1.233192" />
      <path d="M -6.827173,1.233192 C -6.842413,1.188509 -6.867221,1.150542 -6.906479,1.145903" />
      <path d="M -6.906479,1.145903 Q -7.133407,1.126462 -7.357826,1.099928" />
      <path d="M -7.357826,1.099928 C -7.444621,1.094775 -7.506292,1.247917 -7.527995,1.316673" />
      <path d="M -7.527995,1.316673 C -7.671724,1.733649 -7.941759,2.144347 -8.219614,2.511114" />
      <line x1="-9.93576" y1="1.548139" x2="-8.72138" y2="2.422343" />
      <path d="M -8.219614,2.511114 Q -8.47294,2.470703 -8.72138,2.422343" />
      <line x1="-9.10078" y1="0.77461" x2="-8.82119" y2="1.087885" />
      <path d="M -8.72138,2.422343 C -8.8252,1.988052 -8.888039,1.518463 -8.82119,1.087885" />
      <path d="M -8.82119,1.087885 C -8.810321,1.02757 -8.796486,0.904915 -8.839597,0.85207" />
      <path d="M -8.839597,0.85207 Q -8.851372,0.837743 -8.869435,0.8325" />
      <path d="M -8.869435,0.8325 Q -9.079253,0.782209 -9.283225,0.725417" />
      <path d="M -9.283225,0.725417 C -9.363214,0.708484 -9.452098,0.850992 -9.486123,0.915811" />
      <path d="M -9.486123,0.915811 C -9.704314,1.307223 -10.032256,1.675684 -10.352655,2.000195" />
      <line x1="-12.086532" y1="1.145297" x2="-10.7945" y2="1.844773" />
      <path d="M -10.352655,2.000195 Q -10.577854,1.925984 -10.7945,1.844773" />
      <line x1="-11.077659" y1="0.140256" x2="-10.624884" y2="0.515246" />
      <path d="M -10.7945,1.844773 C -10.810196,1.40204 -10.775376,0.930473 -10.624884,0.515246" />
      <path d="M -10.624884,0.515246 C -10.60027,0.451208 -10.554703,0.310077 -10.603833,0.264151" />
      <path d="M -10.603833,0.264151 L -10.614317,0.257199" />
      <path d="M -10.614317,0.257199 Q -10.792724,0.179487 -10.96235,0.096307" />
      <path d="M -10.96235,0.096307 C -11.030082,0.068939 -11.140122,0.197396 -11.18415,0.256702" />
      <line x1="-14.880328" y1="-0.213368" x2="-12.166542" y2="1.21049" />
      <path d="M -11.18415,0.256702 C -11.461934,0.613082 -11.825434,0.932704 -12.166542,1.21049" />
      <line x1="-15.37909" y1="-0.513182" x2="-12.518355" y2="0.99901" />
      <path d="M -12.166542,1.21049 Q -12.348268,1.107537 -12.518355,0.99901" />
      <line x1="-12.511943" y1="-0.610153" x2="-12.090873" y2="-0.288342" />
      <path d="M -12.518355,0.99901 C -12.444858,0.56036 -12.314752,0.100441 -12.090873,-0.288342" />
      <path d="M -12.090873,-0.288342 C -12.053249,-0.351502 -11.973969,-0.498429 -12.022213,-0.540793" />
      <path d="M -12.022213,-0.540793 Q -12.120517,-0.613579 -12.212953,-0.68856" />
      <path d="M -12.212953,-0.68856 L -12.280771,-0.744531" />
      <path d="M -12.280771,-0.744531 C -12.33163,-0.780275 -12.455328,-0.668328 -12.506358,-0.615736" />
      <line x1="-16.824153" y1="-1.65186" x2="-13.537662" y2="0.195818" />
      <path d="M -12.506358,-0.615736 C -12.824804,-0.301469 -13.199091,-0.03396 -13.537662,0.195818" />
      <line x1="-17.161288" y1="-2.010716" x2="-13.775468" y2="-0.057309" />
      <path d="M -13.537662,0.195818 Q -13.663531,0.071138 -13.775468,-0.057309" />
      <line x1="-13.478555" y1="-1.552069" x2="-13.119251" y2="-1.268116" />
      <path d="M -13.775468,-0.057309 C -13.617786,-0.47963 -13.40126,-0.915065 -13.119251,-1.268116" />
      <line x1="-13.252116" y1="-1.720239" x2="-12.997178" y2="-1.507095" />
      <path d="M -13.119251,-1.268116 C -13.072549,-1.325319 -12.969648,-1.459379 -12.997178,-1.507095" />
      <line x1="-13.157866" y1="-1.747637" x2="-13.14864" y2="-1.739794" />
      <path d="M -12.997178,-1.507095 Q -13.07926,-1.622254 -13.14864,-1.739794" />
      <path d="M -13.14864,-1.739794 L -13.152679,-1.744357" />
      <path d="M -13.152679,-1.744357 C -13.19002,-1.773385 -13.310092,-1.685482 -13.362641,-1.642048" />
      <line x1="-18.007802" y1="-3.311256" x2="-14.372576" y2="-0.974674" />
      <path d="M -13.362641,-1.642048 C -13.700048,-1.374107 -14.059614,-1.158432 -14.372576,-0.974674" />
      <line x1="-18.160334" y1="-3.704699" x2="-14.480168" y2="-1.252197" />
      <path d="M -14.372576,-0.974674 Q -14.434009,-1.112583 -14.480168,-1.252197" />
      <line x1="-13.924579" y1="-2.606456" x2="-13.639936" y2="-2.357305" />
      <path d="M -14.480168,-1.252197 C -14.249047,-1.647056 -13.960857,-2.046841 -13.639936,-2.357305" />
      <line x1="-13.676968" y1="-2.76414" x2="-13.472769" y2="-2.575854" />
      <path d="M -13.639936,-2.357305 C -13.587338,-2.407495 -13.46783,-2.525845 -13.472769,-2.575854" />
      <line x1="-13.520727" y1="-2.834864" x2="-13.506814" y2="-2.821656" />
      <path d="M -13.472769,-2.575854 Q -13.4965,-2.698487 -13.506814,-2.821656" />
      <path d="M -13.506814,-2.821656 L -13.511061,-2.830653" />
      <path d="M -13.511061,-2.830653 C -13.536647,-2.852696 -13.644508,-2.786758 -13.694645,-2.752293" />
      <line x1="-18.350612" y1="-5.078471" x2="-14.614384" y2="-2.221218" />
      <path d="M -13.694645,-2.752293 C -14.028018,-2.531731 -14.34836,-2.36408 -14.614384,-2.221218" />
      <line x1="-18.308147" y1="-5.479688" x2="-14.58443" y2="-2.504225" />
      <path d="M -14.614384,-2.221218 Q -14.607195,-2.362959 -14.58443,-2.504225" />
      <line x1="-13.817408" y1="-3.685497" x2="-13.617445" y2="-3.481683" />
      <path d="M -14.58443,-2.504225 C -14.295621,-2.86236 -13.955408,-3.217758 -13.617445,-3.481683" />
      <line x1="-13.558345" y1="-3.826006" x2="-13.416576" y2="-3.674236" />
      <path d="M -13.617445,-3.481683 C -13.562535,-3.524279 -13.434563,-3.625149 -13.416576,-3.674236" />
      <line x1="-13.34471" y1="-3.931794" x2="-13.330884" y2="-3.916391" />
      <path d="M -13.416576,-3.674236 Q -13.380339,-3.795987 -13.330884,-3.916391" />
      <path d="M -13.330884,-3.916391 Q -13.327629,-3.925319 -13.331088,-3.92895" />
      <path d="M -13.331088,-3.92895 C -13.346384,-3.944241 -13.435512,-3.897048 -13.479744,-3.870809" />
      <line x1="-17.829221" y1="-6.833073" x2="-14.246609" y2="-3.458865" />
      <path d="M -13.479744,-3.870809 C -13.786365,-3.695452 -14.045652,-3.568743 -14.246609,-3.458865" />
      <line x1="-17.594652" y1="-7.214722" x2="-14.081151" y2="-3.728069" />
      <path d="M -14.246609,-3.458865 Q -14.171288,-3.594778 -14.081151,-3.728069" />
      <line x1="-13.155776" y1="-4.692072" x2="-13.05331" y2="-4.564626" />
      <path d="M -14.081151,-3.728069 C -13.754335,-4.042721 -13.385283,-4.348021 -13.05331,-4.564626" />
      <line x1="-12.90966" y1="-4.828168" x2="-12.832427" y2="-4.72739" />
      <path d="M -13.05331,-4.564626 C -12.999831,-4.599566 -12.872116,-4.682376 -12.832427,-4.72739" />
      <line x1="-12.642537" y1="-4.962721" x2="-12.632838" y2="-4.949393" />
      <path d="M -12.832427,-4.72739 Q -12.738692,-4.839959 -12.632838,-4.949393" />
      <path d="M -12.632838,-4.949393 Q -12.621938,-4.961116 -12.624613,-4.964077" />
      <path d="M -12.624613,-4.964077 C -12.631602,-4.972462 -12.69725,-4.940443 -12.732583,-4.921372" />
      <line x1="-16.47916" y1="-8.455487" x2="-13.294314" y2="-4.603271" />
      <path d="M -12.732583,-4.921372 C -12.991556,-4.785965 -13.172118,-4.690323 -13.294314,-4.603271" />
      <line x1="-16.068473" y1="-8.791559" x2="-13.004627" y2="-4.840327" />
      <path d="M -13.294314,-4.603271 Q -13.178271,-4.704635 -13.053002,-4.802802" />
      <path d="M -13.053002,-4.802802 L -13.004627,-4.840327" />
      <line x1="-14.624341" y1="-9.77261" x2="-11.985976" y2="-5.532333" />
      <path d="M -13.004627,-4.840327 L -12.874387,-4.940078" />
      <path d="M -12.874387,-4.940078 C -12.571297,-5.169015 -12.250483,-5.382532 -11.985976,-5.532333" />
      <line x1="-14.304165" y1="-9.958625" x2="-14.302696" y2="-9.956145" />
      <path d="M -11.985976,-5.532333 C -11.955102,-5.549826 -11.898048,-5.581865 -11.844335,-5.612801" />
      <line x1="-14.392435" y1="-9.835149" x2="-11.822396" y2="-5.576446" />
      <line x1="-13.833617" y1="-10.102742" x2="-11.428221" y2="-5.765199" />
      <path d="M -11.822396,-5.576446 Q -11.630503,-5.673945 -11.428221,-5.765199" />
      <line x1="-12.500929" y1="-10.887657" x2="-10.48818" y2="-6.318856" />
      <path d="M -11.428221,-5.765199 C -11.093281,-5.984717 -10.742253,-6.1865 -10.48818,-6.318856" />
      <line x1="-12.19554" y1="-11.029486" x2="-10.272768" y2="-6.418898" />
      <path d="M -10.48818,-6.318856 C -10.448149,-6.340353 -10.34645,-6.390182 -10.272768,-6.418898" />
      <line x1="-11.65718" y1="-11.226148" x2="-11.64595" y2="-11.19643" />
      <path d="M -10.272768,-6.418898 Q -10.147555,-6.467577 -10.018844,-6.513577" />
      <line x1="-11.711251" y1="-10.878038" x2="-9.931164" y2="-6.312071" />
      <path d="M -9.95961,-6.361958 Q -9.949811,-6.337122 -9.931164,-6.312071" />
      <line x1="-11.042385" y1="-11.058916" x2="-9.459364" y2="-6.439657" />
      <path d="M -9.931164,-6.312071 Q -9.698775,-6.379601 -9.459364,-6.439657" />
      <line x1="-9.911961" y1="-11.669852" x2="-8.661995" y2="-6.870595" />
      <path d="M -9.459364,-6.439657 C -9.154859,-6.614009 -8.849466,-6.769427 -8.661995,-6.870595" />
      <line x1="-9.642171" y1="-11.771055" x2="-8.471692" y2="-6.94198" />
      <path d="M -8.661995,-6.870595 C -8.633066,-6.887221 -8.55535,-6.924378 -8.471692,-6.94198" />
      <line x1="-9.027284" y1="-11.886259" x2="-8.037968" y2="-7.023242" />
      <path d="M -8.471692,-6.94198 Q -8.257048,-6.986018 -8.037968,-7.023242" />
      <path d="M -8.037968,-7.023242 Q -7.998055,-7.029517 -7.981566,-7.026398" />
      <line x1="-8.618327" y1="-11.513082" x2="-7.749501" y2="-6.760013" />
      <path d="M -7.969148,-6.963853 C -7.955544,-6.902892 -7.866959,-6.835269 -7.749501,-6.760013" />
      <line x1="-7.884996" y1="-11.594918" x2="-7.232229" y2="-6.817738" />
      <path d="M -7.749501,-6.760013 Q -7.492454,-6.792973 -7.232229,-6.817738" />
      <line x1="-7.033873" y1="-12.065891" x2="-6.631871" y2="-7.149949" />
      <path d="M -7.232229,-6.817738 C -6.978911,-6.952689 -6.739965,-7.069658 -6.631871,-7.149949" />
      <line x1="-6.818068" y1="-12.132795" x2="-6.479648" y2="-7.197141" />
      <path d="M -6.631871,-7.149949 C -6.616015,-7.163413 -6.567581,-7.191659 -6.479648,-7.197141" />
      <line x1="-6.168557" y1="-12.15869" x2="-6.021501" y2="-7.215407" />
      <path d="M -6.479648,-7.197141 Q -6.251073,-7.209873 -6.021501,-7.215407" />
      <line x1="-5.99015" y1="-12.107504" x2="-5.895658" y2="-7.179302" />
      <path d="M -6.021501,-7.215407 C -5.933815,-7.216929 -5.903562,-7.191817 -5.895658,-7.179302" />
      <line x1="-5.324442" y1="-11.697005" x2="-5.426086" y2="-6.889747" />
      <path d="M -5.895658,-7.179302 C -5.836186,-7.105691 -5.642461,-7.005972 -5.426086,-6.889747" />
      <line x1="-4.576619" y1="-11.674221" x2="-4.898593" y2="-6.873676" />
      <path d="M -5.426086,-6.889747 Q -5.161897,-6.88589 -4.898593,-6.873676" />
      <line x1="-4.0628" y1="-12.048784" x2="-4.536159" y2="-7.137883" />
      <path d="M -4.898593,-6.873676 C -4.713725,-6.977677 -4.557509,-7.066735 -4.536159,-7.137883" />
      <line x1="-3.915686" y1="-12.090054" x2="-4.432389" y2="-7.166993" />
      <path d="M -4.536159,-7.137883 C -4.534457,-7.150106 -4.518604,-7.173811 -4.432389,-7.166993" />
      <line x1="-3.275815" y1="-12.024875" x2="-3.981042" y2="-7.121018" />
      <path d="M -4.432389,-7.166993 Q -4.205461,-7.147551 -3.981042,-7.121018" />
      <line x1="-3.034568" y1="-11.944047" x2="-3.810873" y2="-7.064004" />
      <path d="M -3.981042,-7.121018 C -3.894246,-7.110216 -3.832576,-7.078611 -3.810873,-7.064004" />
      <line x1="-2.054066" y1="-11.417271" x2="-3.119254" y2="-6.692431" />
      <path d="M -3.810873,-7.064004 C -3.667143,-6.976041 -3.397109,-6.843565 -3.119254,-6.692431" />
      <line x1="-1.342716" y1="-11.291421" x2="-2.617488" y2="-6.60366" />
      <path d="M -3.119254,-6.692431 Q -2.865928,-6.65202 -2.617488,-6.60366" />
      <path d="M -2.617488,-6.60366 Q -2.516634,-6.679829 -2.493461,-6.748666" />
      <line x1="-1.13282" y1="-11.645744" x2="-1.162337" y2="-11.539917" />
      <line x1="-0.546194" y1="-11.493934" x2="-2.055643" y2="-6.746507" />
      <path d="M -2.46448,-6.852401 Q -2.257205,-6.802628 -2.055643,-6.746507" />
      <line x1="-0.258547" y1="-11.375749" x2="-1.852745" y2="-6.663142" />
      <path d="M -2.055643,-6.746507 C -1.975654,-6.723924 -1.88677,-6.681685 -1.852745,-6.663142" />
      <line x1="0.969927" y1="-10.692945" x2="-0.986213" y2="-6.181511" />
      <path d="M -1.852745,-6.663142 C -1.634553,-6.549615 -1.306611,-6.374902 -0.986213,-6.181511" />
      <line x1="1.596328" y1="-10.472606" x2="-0.544368" y2="-6.02609" />
      <path d="M -0.986213,-6.181511 Q -0.761014,-6.107301 -0.544368,-6.02609" />
      <line x1="1.340884" y1="-10.830145" x2="1.336107" y2="-10.819617" />
      <line x1="1.834287" y1="-10.602049" x2="-0.376518" y2="-6.117396" />
      <path d="M -0.477077,-6.165862 L -0.376518,-6.117396" />
      <line x1="2.148731" y1="-10.441336" x2="-0.154718" y2="-6.004033" />
      <path d="M -0.376518,-6.117396 C -0.308786,-6.084379 -0.198745,-6.02809 -0.154718,-6.004033" />
      <line x1="3.54146" y1="-9.573388" x2="0.827674" y2="-5.391807" />
      <path d="M -0.154718,-6.004033 C 0.123066,-5.855474 0.486566,-5.631922 0.827674,-5.391807" />
      <line x1="4.040222" y1="-9.273574" x2="1.179487" y2="-5.180327" />
      <path d="M 0.827674,-5.391807 Q 1.0094,-5.288854 1.179487,-5.180327" />
      <line x1="0.688235" y1="-5.488069" x2="0.683345" y2="-5.480297" />
      <path d="M 0.681871,-5.492392 Q 0.669985,-5.496919 0.66817,-5.49516" />
      <path d="M 0.66817,-5.49516 Q 0.666155,-5.493308 0.683345,-5.480297" />
      <line x1="0.965525" y1="-5.311916" x2="0.941903" y2="-5.276559" />
      <path d="M 0.683345,-5.480297 Q 0.818185,-5.380459 0.941903,-5.276559" />
      <line x1="4.023214" y1="-9.204488" x2="1.16749" y2="-5.131595" />
      <path d="M 0.941903,-5.276559 C 0.992762,-5.235165 1.11646,-5.162366 1.16749,-5.131595" />
      <line x1="5.485285" y1="-8.134896" x2="2.198794" y2="-4.377135" />
      <path d="M 1.16749,-5.131595 C 1.485936,-4.940922 1.860223,-4.665258 2.198794,-4.377135" />
      <line x1="5.82242" y1="-7.77604" x2="2.4366" y2="-4.124008" />
      <path d="M 2.198794,-4.377135 Q 2.324663,-4.252455 2.4366,-4.124008" />
      <path d="M 2.4366,-4.124008 C 2.278918,-4.219587 2.062392,-4.327327 1.780383,-4.479216" />
      <line x1="1.670255" y1="-4.528883" x2="1.65831" y2="-4.513995" />
      <path d="M 1.780383,-4.479216 C 1.740866,-4.501247 1.664616,-4.539384 1.654303,-4.527989" />
      <path d="M 1.654303,-4.527989 Q 1.651211,-4.52457 1.65831,-4.513995" />
      <line x1="1.915322" y1="-4.406906" x2="1.809773" y2="-4.281296" />
      <path d="M 1.65831,-4.513995 Q 1.740392,-4.398835 1.809773,-4.281296" />
      <line x1="2.170995" y1="-4.272243" x2="2.023773" y2="-4.105283" />
      <path d="M 1.809773,-4.281296 C 1.840293,-4.234154 1.969219,-4.143511 2.023773,-4.105283" />
      <path d="M 2.023773,-4.105283 C 2.234145,-3.957845 2.456941,-3.771233 2.667981,-3.573084" />
      <path d="M 3.109555,-2.945776 C 2.884213,-3.065531 2.607401,-3.204156 2.301068,-3.390026" />
      <line x1="2.148297" y1="-3.460114" x2="2.133901" y2="-3.445236" />
      <path d="M 2.301068,-3.390026 C 2.253869,-3.419718 2.15593,-3.474612 2.136378,-3.456386" />
      <path d="M 2.136378,-3.456386 Q 2.132814,-3.452827 2.133901,-3.445236" />
      <line x1="2.337045" y1="-3.368132" x2="2.167947" y2="-3.199434" />
      <path d="M 2.133901,-3.445236 Q 2.157632,-3.322602 2.167947,-3.199434" />
      <line x1="2.402208" y1="-3.039092" x2="2.355777" y2="-2.995038" />
      <path d="M 2.167947,-3.199434 C 2.176048,-3.149564 2.301416,-3.04096 2.355777,-2.995038" />
      <path d="M 2.355777,-2.995038 Q 2.555165,-2.82448 2.745566,-2.617276" />
      <path d="M 1.729161,-3.088642 A 7.410513719207065,3.975842450957147 -2.355571160960567e-16 1,1 -11.650058,-5.66174" />
      <path d="M -0.482886,-6.153796 A 7.410513719207065,3.975842450957147 -2.355571160960567e-16 0,1 1.729161,-3.088642" />
      <path d="M 7.348029,15.507236 A 16.97056274847714,16.97056274847714 0.4676707217550643 0,1 6.818965,16.110229" />
      <path d="M 6.246627,-7.463987 A 16.97056274847714,16.97056274847714 0.4676707217550643 0,1 7.986697,-5.455853" />
      <path d="M 7.06345,2.128876 L 3.311988,2.862644" />
      <path d="M 7.225067,6.951924 L 3.425988,6.264689" />
      <path d="M 2.930881,7.044475 L 2.328999,6.874757" />
      <path d="M 2.733592,3.50782 L 2.704979,3.511605" />
      <path d="M -16.137054,-8.73836 A 16.97056274847714,16.97056274847714 91.7450503263243 0,1 -15.883833,-8.932976" />
      <path d="M -14.01336,-10.15828 A 16.97056274847714,16.97056274847714 91.7450503263243 0,1 -11.880429,-11.17378" />
      <path d="M 0.541561,-11.17378 A 16.97056274847714,16.97056274847714 91.7450503263243 0,1 3.850964,-9.429191" />
      <path d="M -6.892685,1.582536 L -6.532281,2.477272" />
      <path d="M -12.28592,-0.747748 L -12.212953,-0.68856" />
      <path d="M -11.751579,-10.948763 L -9.95961,-6.361958" />
      <path d="M -8.929719,-11.802064 L -7.969148,-6.963853" />
      <path d="M -1.166885,-11.496995 L -2.493461,-6.748666" />
    </g>
  </g>
</svg>