<?xml version='1.0' encoding='utf-8'?>
<svg width="100.09mm" height="37.374611mm" viewBox="-14.31374 -5.117199 27.518384 10.275641" version="1.1" xmlns="http://www.w3.org/2000/svg">
  <g transform="scale(1,-1)" stroke-linecap="round">
    <g fill="none" stroke="rgb(0,0,0)" stroke-width="0.024744275689087786" id="Visible">
      <line x1="-6.751616" y1="-0.132149" x2="-6.751616" y2="-0.104244" />
      <path d="M -6.751616,-0.104244 Q -6.746128,-0.028433 -6.746125,0.047659" />
      <path d="M -6.746125,0.047659 Q -6.74614,0.183099 -6.763486,0.317464" />
      <path d="M -6.746125,-0.064674 Q -6.70407,0.028802 -6.601752,0.096267" />
      <path d="M -6.763486,0.317464 L -6.765061,0.343766" />
      <path d="M -6.765061,0.343766 C -6.766595,0.496296 -6.603001,0.624244 -6.41473,0.683993 C -6.222218,0.746106 -6.019489,0.757478 -5.792987,0.736175" />
      <line x1="-5.792987" y1="0.727638" x2="-5.792987" y2="0.736175" />
      <path d="M -4.905129,1.033909 L -4.871878,1.087205" />
      <path d="M -5.792987,0.736175 C -5.412728,0.885683 -5.075824,1.248834 -4.871878,1.586139" />
      <line x1="-4.871878" y1="1.087205" x2="-4.871878" y2="1.586139" />
      <path d="M -4.871878,1.586139 Q -4.968069,1.805606 -5.091034,2.014792" />
      <path d="M -5.091034,2.014792 C -5.516347,2.110465 -6.053072,2.138148 -6.436314,1.994475" />
      <path d="M -6.436314,1.994475 C -6.574007,1.830331 -6.725082,1.704649 -6.914518,1.623583 C -7.098746,1.543285 -7.325543,1.533369 -7.446169,1.652742" />
      <path d="M -7.446169,1.652742 Q -7.607792,1.811498 -7.798641,1.943661" />
      <path d="M -7.824824,1.964476 C -7.737544,2.106258 -7.61478,2.223579 -7.454028,2.335528" />
      <path d="M -7.798641,1.943661 C -7.877406,1.998449 -7.915958,2.086009 -7.915356,2.180117" />
      <path d="M -7.915356,2.180117 C -7.915174,2.301253 -7.856918,2.428152 -7.774791,2.537202 C -7.692465,2.645348 -7.585544,2.744435 -7.454028,2.834462" />
      <line x1="-7.454028" y1="2.335528" x2="-7.454028" y2="2.834462" />
      <path d="M -7.454028,2.335528 Q -7.365316,2.548821 -7.367597,2.803523" />
      <path d="M -7.454028,2.834462 Q -7.365316,3.047755 -7.367597,3.302457" />
      <path d="M -7.367597,3.302457 C -7.367671,3.539674 -7.419236,3.785655 -7.496206,3.999939" />
      <path d="M -7.496206,3.999939 Q -7.74329,4.09618 -8.000919,4.168743" />
      <path d="M -8.000919,4.168743 C -8.379722,3.975759 -8.78183,3.666425 -8.935598,3.32998" />
      <line x1="-8.935598" y1="2.888462" x2="-8.935598" y2="3.32998" />
      <path d="M -8.935598,3.32998 Q -8.91294,3.208758 -8.912889,3.09802" />
      <path d="M -8.912889,3.09802 C -8.912956,2.950551 -8.943309,2.801986 -9.020567,2.676787 C -9.095868,2.552488 -9.226335,2.461349 -9.370847,2.469492" />
      <path d="M -9.370847,2.469492 Q -9.614664,2.482705 -9.857448,2.459205" />
      <path d="M -9.857448,2.459205 C -10.011804,2.44383 -10.15487,2.543184 -10.23594,2.67716 C -10.319381,2.81246 -10.351789,2.970443 -10.351968,3.13053" />
      <path d="M -10.351968,3.13053 Q -10.351969,3.211928 -10.340591,3.300278" />
      <line x1="-10.340591" y1="2.973622" x2="-10.340591" y2="3.300278" />
      <path d="M -10.340591,3.300278 C -10.513105,3.629826 -10.932139,3.9218 -11.321348,4.098548" />
      <path d="M -11.321348,4.098548 Q -11.574588,4.015185 -11.815964,3.908618" />
      <path d="M -11.907839,2.80365 C -11.907892,2.603229 -11.874,2.406369 -11.792521,2.243811" />
      <path d="M -11.815964,3.908618 C -11.872089,3.720485 -11.907797,3.5097 -11.907839,3.302584" />
      <path d="M -11.907839,3.302584 C -11.907892,3.102163 -11.874,2.905303 -11.792521,2.742745" />
      <line x1="-11.792521" y1="2.243811" x2="-11.792521" y2="2.742745" />
      <path d="M -11.792521,2.243811 C -11.619649,2.13497 -11.486299,2.018119 -11.390996,1.87335" />
      <path d="M -11.792521,2.742745 C -11.652282,2.656115 -11.537442,2.558663 -11.447998,2.450388 C -11.358838,2.34125 -11.294525,2.21183 -11.294354,2.088496" />
      <path d="M -11.294354,2.088496 C -11.293886,2.002056 -11.328161,1.921445 -11.398201,1.867565" />
      <path d="M -11.398201,1.867565 Q -11.581387,1.727495 -11.733887,1.562098" />
      <path d="M -11.733887,1.562098 C -11.847653,1.43777 -12.074738,1.438091 -12.263265,1.510508 C -12.457036,1.583473 -12.615002,1.702623 -12.761766,1.860753" />
      <path d="M -12.761766,1.860753 C -13.152636,1.988061 -13.687165,1.937732 -14.106589,1.824201" />
      <path d="M -14.106589,1.824201 Q -14.217639,1.610067 -14.301368,1.386796" />
      <line x1="-14.301368" y1="0.887862" x2="-14.301368" y2="1.386796" />
      <path d="M -14.301368,0.887862 C -14.078688,0.559577 -13.721753,0.211093 -13.333535,0.077832" />
      <path d="M -14.301368,1.386796 C -14.078688,1.058511 -13.721753,0.710027 -13.333535,0.576766" />
      <line x1="-13.333535" y1="0.077832" x2="-13.333535" y2="0.576766" />
      <path d="M -13.333535,0.077832 C -13.117837,0.107429 -12.923779,0.105919 -12.73477,0.058786 C -12.550012,0.013224 -12.378689,-0.09229 -12.346125,-0.234564" />
      <path d="M -13.333535,0.576766 C -13.105551,0.608009 -12.899497,0.604792 -12.701661,0.548628 C -12.508181,0.494862 -12.338409,0.368829 -12.340192,0.213528" />
      <path d="M -12.340192,0.213528 L -12.340634,0.199562" />
      <path d="M -12.340634,0.199562 Q -12.346122,0.123751 -12.346125,0.047659" />
      <path d="M -12.346125,0.047659 Q -12.34611,-0.087781 -12.328764,-0.222147" />
      <line x1="-12.328764" y1="-0.274732" x2="-12.328764" y2="-0.222147" />
      <path d="M -12.328764,-0.222147 L -12.327188,-0.248449" />
      <path d="M -12.327188,-0.248449 C -12.325654,-0.400978 -12.489248,-0.528926 -12.67752,-0.588675 C -12.870031,-0.650788 -13.07276,-0.66216 -13.299262,-0.640857" />
      <path d="M -13.299262,-0.640857 C -13.679521,-0.790365 -14.016426,-1.153516 -14.220371,-1.490821" />
      <line x1="-14.220371" y1="-1.989755" x2="-14.220371" y2="-1.490821" />
      <path d="M -14.220371,-1.989755 Q -14.124181,-2.209222 -14.001215,-2.418408" />
      <path d="M -14.220371,-1.490821 Q -14.124181,-1.710288 -14.001215,-1.919474" />
      <line x1="-14.001215" y1="-2.418408" x2="-14.001215" y2="-1.919474" />
      <path d="M -14.001215,-2.418408 C -13.575902,-2.514081 -13.039178,-2.541764 -12.655936,-2.398092" />
      <path d="M -14.001215,-1.919474 C -13.575902,-2.015147 -13.039178,-2.04283 -12.655936,-1.899158" />
      <line x1="-12.655936" y1="-2.398092" x2="-12.655936" y2="-1.899158" />
      <path d="M -12.655936,-2.398092 C -12.518243,-2.233947 -12.367168,-2.108265 -12.177732,-2.027199 C -11.993503,-1.946901 -11.766707,-1.936985 -11.646081,-2.056358" />
      <path d="M -12.655936,-1.899158 C -12.518243,-1.735013 -12.367168,-1.609331 -12.177732,-1.528265 C -11.993503,-1.447967 -11.766707,-1.438051 -11.646081,-1.557424" />
      <line x1="-11.646081" y1="-2.056358" x2="-11.646081" y2="-1.557424" />
      <path d="M -11.646081,-2.056358 Q -11.484457,-2.215115 -11.293609,-2.347277" />
      <path d="M -11.646081,-1.557424 Q -11.484457,-1.716181 -11.293609,-1.848343" />
      <line x1="-11.293609" y1="-2.347277" x2="-11.293609" y2="-1.848343" />
      <path d="M -11.293609,-2.347277 L -11.267426,-2.368092" />
      <path d="M -11.293609,-1.848343 C -11.214844,-1.903131 -11.176292,-1.990691 -11.176894,-2.084799" />
      <path d="M -11.176894,-2.084799 C -11.177076,-2.205936 -11.235332,-2.332834 -11.317459,-2.441885 C -11.399784,-2.550031 -11.506705,-2.649117 -11.638221,-2.739145" />
      <path d="M -11.724653,-3.706073 C -11.724579,-3.94329 -11.673013,-4.189271 -11.596044,-4.403556" />
      <path d="M -11.638221,-2.739145 Q -11.726933,-2.952437 -11.724653,-3.207139" />
      <path d="M -11.724653,-3.207139 C -11.724579,-3.444356 -11.673013,-3.690337 -11.596044,-3.904622" />
      <line x1="-11.596044" y1="-4.403556" x2="-11.596044" y2="-3.904622" />
      <path d="M -11.596044,-4.403556 Q -11.348959,-4.499796 -11.091331,-4.572359" />
      <path d="M -11.596044,-3.904622 Q -11.348959,-4.000862 -11.091331,-4.073425" />
      <line x1="-11.091331" y1="-4.572359" x2="-11.091331" y2="-4.073425" />
      <path d="M -11.091331,-4.572359 C -10.712528,-4.379375 -10.31042,-4.070042 -10.156651,-3.733596" />
      <path d="M -11.091331,-4.073425 C -10.712528,-3.880441 -10.31042,-3.571108 -10.156651,-3.234662" />
      <line x1="-10.156651" y1="-3.733596" x2="-10.156651" y2="-3.234662" />
      <path d="M -10.156651,-3.292078 C -10.13189,-3.183869 -10.08396,-3.078081 -10.008585,-2.997886 C -9.934119,-2.917682 -9.830574,-2.867306 -9.721403,-2.873108" />
      <path d="M -10.156651,-3.234662 Q -10.179309,-3.11344 -10.17936,-3.002702" />
      <path d="M -10.17936,-3.002702 C -10.179293,-2.855233 -10.148941,-2.706668 -10.071683,-2.58147 C -9.996381,-2.457171 -9.865915,-2.366031 -9.721403,-2.374174" />
      <line x1="-9.721403" y1="-2.873108" x2="-9.721403" y2="-2.374174" />
      <path d="M -9.721403,-2.873108 Q -9.477585,-2.886322 -9.234801,-2.862821" />
      <path d="M -9.721403,-2.374174 Q -9.477585,-2.387388 -9.234801,-2.363887" />
      <line x1="-9.234801" y1="-2.862821" x2="-9.234801" y2="-2.363887" />
      <path d="M -9.234801,-2.862821 C -9.106693,-2.850309 -8.983724,-2.91669 -8.901577,-3.017821 C -8.817956,-3.119245 -8.771106,-3.24804 -8.751659,-3.377238" />
      <path d="M -9.234801,-2.363887 C -9.080446,-2.348512 -8.93738,-2.447867 -8.85631,-2.581842 C -8.772868,-2.717142 -8.740461,-2.875125 -8.740282,-3.035212" />
      <path d="M -8.740282,-3.035212 Q -8.740281,-3.11661 -8.751659,-3.20496" />
      <line x1="-8.751659" y1="-3.703894" x2="-8.751659" y2="-3.20496" />
      <path d="M -8.751659,-3.703894 C -8.579144,-4.033442 -8.160111,-4.325417 -7.770901,-4.502164" />
      <path d="M -8.751659,-3.20496 C -8.579144,-3.534508 -8.160111,-3.826483 -7.770901,-4.00323" />
      <line x1="-7.770901" y1="-4.502164" x2="-7.770901" y2="-4.00323" />
      <path d="M -7.770901,-4.502164 Q -7.517662,-4.418802 -7.276286,-4.312235" />
      <path d="M -7.770901,-4.00323 Q -7.517662,-3.919868 -7.276286,-3.813301" />
      <line x1="-7.276286" y1="-4.312235" x2="-7.276286" y2="-3.813301" />
      <path d="M -7.276286,-4.312235 C -7.22016,-4.124102 -7.184453,-3.913316 -7.184411,-3.7062" />
      <path d="M -7.276286,-3.813301 C -7.22016,-3.625168 -7.184453,-3.414382 -7.184411,-3.207266" />
      <path d="M -7.184411,-3.207266 C -7.184357,-3.006845 -7.218249,-2.809985 -7.299729,-2.647427" />
      <path d="M -7.701254,-2.276967 L -7.694049,-2.271181" />
      <path d="M -7.299729,-2.647427 C -7.439967,-2.560797 -7.554808,-2.463345 -7.644251,-2.355071 C -7.733412,-2.245932 -7.797725,-2.116513 -7.797895,-1.993178" />
      <path d="M -7.797895,-1.993178 C -7.798364,-1.906738 -7.764089,-1.826128 -7.694049,-1.772247" />
      <line x1="-7.694049" y1="-2.271181" x2="-7.694049" y2="-1.772247" />
      <path d="M -7.694049,-2.271181 Q -7.510863,-2.131112 -7.358363,-1.965714" />
      <path d="M -7.694049,-1.772247 Q -7.510863,-1.632178 -7.358363,-1.46678" />
      <line x1="-7.358363" y1="-1.965714" x2="-7.358363" y2="-1.46678" />
      <path d="M -7.358363,-1.965714 C -7.244597,-1.841386 -7.017512,-1.841707 -6.828985,-1.914125 C -6.635214,-1.98709 -6.477247,-2.106239 -6.330483,-2.26437" />
      <path d="M -7.358363,-1.46678 C -7.244597,-1.342452 -7.017512,-1.342773 -6.828985,-1.415191 C -6.635214,-1.488156 -6.477247,-1.607305 -6.330483,-1.765436" />
      <line x1="-6.330483" y1="-2.26437" x2="-6.330483" y2="-1.765436" />
      <path d="M -6.330483,-2.26437 C -5.939614,-2.391677 -5.405085,-2.341348 -4.985661,-2.227817" />
      <path d="M -6.330483,-1.765436 C -5.939614,-1.892743 -5.405085,-1.842414 -4.985661,-1.728883" />
      <line x1="-4.985661" y1="-2.227817" x2="-4.985661" y2="-1.728883" />
      <path d="M -4.985661,-2.227817 Q -4.87461,-2.013684 -4.790882,-1.790412" />
      <path d="M -4.985661,-1.728883 Q -4.87461,-1.51475 -4.790882,-1.291478" />
      <line x1="-4.790882" y1="-1.790412" x2="-4.790882" y2="-1.291478" />
      <path d="M -4.790882,-1.291478 C -5.013562,-0.963193 -5.370496,-0.61471 -5.758715,-0.481448" />
      <path d="M -5.758715,-0.481448 C -5.986699,-0.512692 -6.192753,-0.509474 -6.390589,-0.453311 C -6.584069,-0.399544 -6.75384,-0.273512 -6.752058,-0.11821" />
      <path d="M -6.752058,-0.11821 L -6.751616,-0.104244" />
      <path d="M 2.323927,-1.282289 Q 2.358463,-1.19773 2.387131,-1.111699" />
      <line x1="2.167745" y1="-1.155281" x2="2.167745" y2="-1.105427" />
      <path d="M 2.167745,-1.105427 Q 2.302221,-0.867384 2.387131,-0.612765" />
      <line x1="2.387131" y1="-1.111699" x2="2.387131" y2="-0.612765" />
      <path d="M 2.387131,-1.111699 C 2.419493,-1.034684 2.595187,-1.058724 2.666222,-1.077833" />
      <path d="M 2.387131,-0.612765 C 2.419493,-0.53575 2.595187,-0.55979 2.666222,-0.578899" />
      <line x1="2.666222" y1="-1.077833" x2="2.666222" y2="-0.578899" />
      <path d="M 2.666222,-1.077833 C 2.804505,-1.096306 2.978243,-1.081113 3.160328,-1.037835" />
      <path d="M 2.666222,-0.578899 C 2.92987,-0.614483 3.309617,-0.526308 3.655669,-0.364267 C 4.007908,-0.199036 4.327979,0.023491 4.650858,0.347788" />
      <path d="M 4.650858,0.347788 C 4.310117,0.658055 3.977908,0.866792 3.616792,1.016943 C 3.262035,1.164169 2.877779,1.236193 2.616446,1.18951" />
      <path d="M 2.616446,1.18951 C 2.546571,1.167422 2.372438,1.135987 2.335782,1.211543" />
      <path d="M 2.335782,1.211543 Q 2.236647,1.462271 2.08894,1.694348" />
      <path d="M 2.257922,1.390055 L 2.258654,1.39039" />
      <path d="M 2.08894,1.694348 Q 2.081844,1.707553 2.081956,1.721339" />
      <path d="M 2.081956,1.721339 C 2.082321,1.789519 2.200504,1.862757 2.258654,1.889324" />
      <line x1="2.258654" y1="1.39039" x2="2.258654" y2="1.889324" />
      <path d="M 2.258654,1.39039 C 2.449224,1.511008 2.627206,1.758132 2.741717,2.039325 C 2.858473,2.322264 2.917334,2.637019 2.918299,2.983589" />
      <path d="M 2.258654,1.889324 C 2.449224,2.009942 2.627206,2.257066 2.741717,2.538259 C 2.858473,2.821198 2.917334,3.135953 2.918299,3.482522" />
      <path d="M 2.918299,3.482522 Q 2.918416,3.615459 2.905905,3.76079" />
      <path d="M 2.905905,3.76079 C 2.411812,3.771373 2.006592,3.715393 1.628734,3.600271 C 1.257759,3.486978 0.927283,3.302431 0.780582,3.109275" />
      <path d="M 0.780582,3.109275 C 0.749195,3.050836 0.651713,2.921898 0.564146,2.952862" />
      <path d="M 0.564146,2.952862 Q 0.289473,3.069403 -0.004328,3.14299" />
      <path d="M -0.004328,3.14299 C -0.051102,3.157456 -0.065574,3.207048 -0.065556,3.259205" />
      <path d="M -0.065556,3.259205 C -0.065543,3.306228 -0.053917,3.355438 -0.043405,3.384861" />
      <line x1="-0.043405" y1="3.17115" x2="-0.043405" y2="3.384861" />
      <path d="M -0.043405,3.384861 Q -0.034486,3.435649 -0.0345,3.493011" />
      <path d="M -0.0345,3.493011 C -0.034258,3.731694 -0.150033,4.033973 -0.334299,4.309832 C -0.521899,4.589813 -0.765639,4.845376 -1.112692,5.104827" />
      <path d="M -1.112692,5.104827 C -1.434804,4.83924 -1.659236,4.582052 -1.8297,4.30412 C -1.997228,4.029994 -2.100265,3.733608 -2.100142,3.493719" />
      <path d="M -2.100142,3.493719 Q -2.100172,3.411402 -2.083939,3.341724" />
      <line x1="-2.083939" y1="3.113782" x2="-2.083939" y2="3.341724" />
      <path d="M -2.083939,3.341724 C -2.070511,3.309739 -2.054341,3.253642 -2.05432,3.20241" />
      <path d="M -2.05432,3.20241 C -2.054305,3.15587 -2.067815,3.113348 -2.109363,3.098489" />
      <path d="M -2.109363,3.098489 Q -2.398674,3.012575 -2.666463,2.884565" />
      <path d="M -2.666463,2.884565 C -2.752185,2.849939 -2.856804,2.974604 -2.891442,3.031647" />
      <path d="M -2.891442,3.031647 C -3.048836,3.218375 -3.389302,3.388737 -3.766209,3.48622 C -4.150095,3.585238 -4.557982,3.62403 -5.050892,3.59258" />
      <path d="M -5.05247,2.990619 C -5.051921,2.594064 -4.982208,2.257744 -4.849192,1.947835 C -4.718185,1.642725 -4.512718,1.373572 -4.299121,1.251757" />
      <path d="M -5.050892,3.59258 L -5.05247,3.489553" />
      <path d="M -5.05247,3.489553 C -5.051921,3.092998 -4.982208,2.756678 -4.849192,2.446769 C -4.718185,2.141659 -4.512718,1.872506 -4.299121,1.750691" />
      <line x1="-4.299121" y1="1.251757" x2="-4.299121" y2="1.750691" />
      <path d="M -4.299121,1.251757 L -4.274821,1.241047" />
      <path d="M -4.299121,1.750691 C -4.238625,1.726244 -4.113486,1.656278 -4.113091,1.587168" />
      <path d="M -4.113091,1.587168 Q -4.113013,1.575026 -4.118639,1.563118" />
      <path d="M -4.118639,1.563118 Q -4.253114,1.325076 -4.338024,1.070456" />
      <path d="M -4.338024,1.070456 C -4.370386,0.993441 -4.54608,1.017481 -4.617115,1.03659" />
      <path d="M -4.617115,1.03659 C -4.880763,1.072175 -5.260511,0.983999 -5.606562,0.821958 C -5.958801,0.656727 -6.278872,0.4342 -6.601752,0.109904" />
      <line x1="-6.601752" y1="-0.357227" x2="-6.601752" y2="0.109904" />
      <path d="M -4.825193,-1.2423 Q -4.682534,-1.250751 -4.56734,-1.230752" />
      <path d="M -6.601752,0.109904 C -6.261011,-0.200364 -5.928802,-0.409101 -5.567685,-0.559251 C -5.212929,-0.706477 -4.828672,-0.778501 -4.56734,-0.731818" />
      <line x1="-4.56734" y1="-1.230752" x2="-4.56734" y2="-0.731818" />
      <path d="M -4.56734,-1.230752 C -4.497464,-1.208664 -4.323331,-1.177229 -4.286675,-1.252785" />
      <path d="M -4.56734,-0.731818 C -4.497464,-0.70973 -4.323331,-0.678295 -4.286675,-0.753851" />
      <line x1="-4.286675" y1="-1.252785" x2="-4.286675" y2="-0.753851" />
      <path d="M -4.286675,-1.252785 Q -4.25102,-1.343025 -4.208816,-1.431297" />
      <path d="M -4.286675,-0.753851 Q -4.187541,-1.00458 -4.039833,-1.236657" />
      <line x1="-4.039833" y1="-1.293425" x2="-4.039833" y2="-1.236657" />
      <path d="M -4.039833,-1.236657 Q -4.032738,-1.249861 -4.032849,-1.263647" />
      <path d="M -4.032849,-1.263647 C -4.033214,-1.331828 -4.151397,-1.405065 -4.209548,-1.431633" />
      <path d="M -4.869193,-3.523765 Q -4.869309,-3.656701 -4.856798,-3.802032" />
      <path d="M -4.209548,-1.431633 C -4.400117,-1.552251 -4.578099,-1.799375 -4.69261,-2.080567 C -4.809366,-2.363507 -4.868227,-2.678261 -4.869193,-3.024831" />
      <path d="M -4.869193,-3.024831 Q -4.869309,-3.157767 -4.856798,-3.303098" />
      <line x1="-4.856798" y1="-3.802032" x2="-4.856798" y2="-3.303098" />
      <path d="M -4.856798,-3.802032 C -4.362706,-3.812616 -3.957486,-3.756635 -3.579627,-3.641513 C -3.208653,-3.52822 -2.878177,-3.343674 -2.731476,-3.150517" />
      <path d="M -4.856798,-3.303098 C -4.362706,-3.313682 -3.957486,-3.257701 -3.579627,-3.142579 C -3.208653,-3.029286 -2.878177,-2.84474 -2.731476,-2.651583" />
      <line x1="-2.731476" y1="-3.150517" x2="-2.731476" y2="-2.651583" />
      <path d="M -2.731476,-3.150517 C -2.700088,-3.092079 -2.602607,-2.963141 -2.515039,-2.994104" />
      <path d="M -2.731476,-2.651583 C -2.700088,-2.593145 -2.602607,-2.464207 -2.515039,-2.49517" />
      <line x1="-2.515039" y1="-2.994104" x2="-2.515039" y2="-2.49517" />
      <path d="M -2.515039,-2.994104 Q -2.240367,-3.110646 -1.946566,-3.184232" />
      <path d="M -2.515039,-2.49517 Q -2.240367,-2.611712 -1.946566,-2.685298" />
      <line x1="-1.946566" y1="-3.184232" x2="-1.946566" y2="-2.685298" />
      <path d="M -1.946566,-3.184232 Q -1.928466,-3.189991 -1.916394,-3.201993" />
      <path d="M -1.946566,-2.685298 C -1.899791,-2.699765 -1.885319,-2.749357 -1.885338,-2.801513" />
      <path d="M -1.885338,-2.801513 C -1.885351,-2.848536 -1.896976,-2.897747 -1.907488,-2.92717" />
      <path d="M -1.916394,-3.534253 C -1.916635,-3.772937 -1.800861,-4.075215 -1.616594,-4.351074 C -1.428995,-4.631056 -1.185254,-4.886619 -0.838202,-5.146069" />
      <path d="M -1.907488,-2.92717 Q -1.916407,-2.977957 -1.916394,-3.035319" />
      <path d="M -1.916394,-3.035319 C -1.916635,-3.274003 -1.800861,-3.576281 -1.616594,-3.85214 C -1.428995,-4.132122 -1.185254,-4.387685 -0.838202,-4.647135" />
      <line x1="-0.838202" y1="-5.146069" x2="-0.838202" y2="-4.647135" />
      <path d="M -0.838202,-5.146069 C -0.51609,-4.880483 -0.291657,-4.623295 -0.121194,-4.345363 C 0.046335,-4.071237 0.149371,-3.77485 0.149248,-3.534961" />
      <path d="M -0.838202,-4.647135 C -0.51609,-4.381549 -0.291657,-4.124361 -0.121194,-3.846429 C 0.046335,-3.572303 0.149371,-3.275916 0.149248,-3.036027" />
      <path d="M 0.149248,-3.036027 Q 0.149278,-2.95371 0.133046,-2.884032" />
      <path d="M 0.149248,-3.143703 L 0.158469,-3.139731" />
      <path d="M 0.133046,-2.884032 C 0.119617,-2.852048 0.103448,-2.795951 0.103426,-2.744718" />
      <path d="M 0.103426,-2.744718 C 0.103411,-2.698178 0.116921,-2.655656 0.158469,-2.640797" />
      <line x1="0.158469" y1="-3.139731" x2="0.158469" y2="-2.640797" />
      <path d="M 0.158469,-3.139731 Q 0.447781,-3.053818 0.71557,-2.925808" />
      <path d="M 0.158469,-2.640797 Q 0.447781,-2.554884 0.71557,-2.426874" />
      <line x1="0.71557" y1="-2.925808" x2="0.71557" y2="-2.426874" />
      <path d="M 0.71557,-2.925808 C 0.801291,-2.891181 0.905911,-3.015847 0.940549,-3.07289" />
      <path d="M 0.71557,-2.426874 C 0.801291,-2.392248 0.905911,-2.516913 0.940549,-2.573956" />
      <line x1="0.940549" y1="-3.07289" x2="0.940549" y2="-2.573956" />
      <path d="M 0.940549,-3.07289 C 1.097942,-3.259617 1.438408,-3.42998 1.815316,-3.527462 C 2.199201,-3.626481 2.607089,-3.665272 3.099998,-3.633823" />
      <path d="M 0.940549,-2.573956 C 1.097942,-2.760683 1.438408,-2.931046 1.815316,-3.028528 C 2.199201,-3.127547 2.607089,-3.166338 3.099998,-3.134889" />
      <line x1="3.099998" y1="-3.633823" x2="3.099998" y2="-3.134889" />
      <path d="M 3.099998,-3.633823 L 3.101577,-3.530796" />
      <path d="M 3.099998,-3.134889 L 3.101577,-3.031862" />
      <path d="M 3.101577,-3.031862 C 3.101028,-2.635306 3.031314,-2.298987 2.898299,-1.989078 C 2.767292,-1.683967 2.561825,-1.414815 2.348228,-1.292999" />
      <path d="M 2.348228,-1.292999 C 2.287732,-1.268552 2.162593,-1.198587 2.162197,-1.129476" />
      <path d="M 2.162197,-1.129476 Q 2.162119,-1.117335 2.167745,-1.105427" />
      <path d="M 4.56284,0.610043 Q 4.555951,0.515085 4.555947,0.419772" />
      <path d="M 4.555947,0.419772 Q 4.555966,0.250275 4.577699,0.082125" />
      <line x1="4.577699" y1="0.075687" x2="4.577699" y2="0.082125" />
      <path d="M 4.577699,0.082125 L 4.577793,0.078894" />
      <path d="M 4.577793,0.078894 C 4.577186,-0.000731 4.407914,-0.035889 4.334807,-0.041724" />
      <path d="M 4.334807,-0.041724 C 4.105359,-0.088556 3.823223,-0.265439 3.593933,-0.4887 C 3.360418,-0.716242 3.172944,-0.977419 3.011317,-1.316681" />
      <line x1="3.011317" y1="-1.815615" x2="3.011317" y2="-1.316681" />
      <path d="M 3.011317,-1.815615 Q 3.08952,-1.986241 3.182823,-2.151069" />
      <path d="M 3.011317,-1.316681 Q 3.08952,-1.487307 3.182823,-1.652135" />
      <line x1="3.182823" y1="-2.151069" x2="3.182823" y2="-1.652135" />
      <path d="M 3.182823,-2.151069 C 3.58138,-2.275224 3.930558,-2.330329 4.281918,-2.333283 C 4.626781,-2.336072 4.967503,-2.273781 5.161672,-2.157946" />
      <path d="M 3.182823,-1.652135 C 3.58138,-1.77629 3.930558,-1.831395 4.281918,-1.834349 C 4.626781,-1.837138 4.967503,-1.774847 5.161672,-1.659012" />
      <line x1="5.161672" y1="-2.157946" x2="5.161672" y2="-1.659012" />
      <path d="M 5.161672,-2.157946 C 5.216476,-2.114366 5.363472,-2.027572 5.430702,-2.08522" />
      <path d="M 5.161672,-1.659012 C 5.216476,-1.615432 5.363472,-1.528638 5.430702,-1.586286" />
      <line x1="5.430702" y1="-2.08522" x2="5.430702" y2="-1.586286" />
      <path d="M 5.430702,-2.08522 Q 5.567177,-2.219357 5.721146,-2.338867" />
      <path d="M 5.430702,-1.586286 Q 5.633004,-1.785052 5.871947,-1.950475" />
      <line x1="5.871947" y1="-2.088632" x2="5.871947" y2="-1.950475" />
      <path d="M 5.871947,-1.950475 Q 5.897924,-1.972228 5.897043,-2.005261" />
      <path d="M 5.897043,-2.005261 C 5.896899,-2.068079 5.836798,-2.149771 5.801247,-2.186895" />
      <path d="M 5.638274,-3.335945 Q 5.638746,-3.588979 5.70448,-3.852223 Q 5.768163,-4.111651 5.905658,-4.398404" />
      <path d="M 5.801247,-2.186895 C 5.694274,-2.336721 5.637399,-2.581902 5.638274,-2.837011" />
      <path d="M 5.638274,-2.837011 Q 5.638746,-3.090045 5.70448,-3.353289 Q 5.768163,-3.612718 5.905658,-3.89947" />
      <line x1="5.905658" y1="-4.398404" x2="5.905658" y2="-3.89947" />
      <path d="M 5.905658,-4.398404 Q 6.100172,-4.471132 6.300634,-4.530506" />
      <path d="M 5.905658,-3.89947 Q 6.100172,-3.972198 6.300634,-4.031572" />
      <line x1="6.300634" y1="-4.530506" x2="6.300634" y2="-4.031572" />
      <path d="M 6.300634,-4.530506 C 6.683756,-4.374058 6.975624,-4.199044 7.226483,-3.985817 C 7.472613,-3.776456 7.662716,-3.523612 7.705503,-3.322716" />
      <path d="M 6.300634,-4.031572 C 6.683756,-3.875124 6.975624,-3.70011 7.226483,-3.486883 C 7.472613,-3.277522 7.662716,-3.024678 7.705503,-2.823782" />
      <line x1="7.705503" y1="-3.322716" x2="7.705503" y2="-2.823782" />
      <path d="M 7.705503,-3.322716 C 7.708696,-3.258316 7.741822,-3.106864 7.836397,-3.106428" />
      <path d="M 7.705503,-2.823782 C 7.708696,-2.759382 7.741822,-2.60793 7.836397,-2.607494" />
      <line x1="7.836397" y1="-3.106428" x2="7.836397" y2="-2.607494" />
      <path d="M 7.836397,-3.106428 Q 8.141622,-3.123004 8.445552,-3.09355" />
      <path d="M 7.836397,-2.607494 Q 8.141622,-2.62407 8.445552,-2.594616" />
      <line x1="8.445552" y1="-3.09355" x2="8.445552" y2="-2.594616" />
      <path d="M 8.445552,-3.09355 C 8.540039,-3.089989 8.581646,-3.239862 8.588459,-3.30405" />
      <path d="M 8.445552,-2.594616 C 8.540039,-2.591055 8.581646,-2.740928 8.588459,-2.805116" />
      <line x1="8.588459" y1="-3.30405" x2="8.588459" y2="-2.805116" />
      <path d="M 8.588459,-3.30405 C 8.642497,-3.502899 8.8466,-3.747409 9.104216,-3.946122 C 9.366773,-4.148495 9.66814,-4.310967 10.059609,-4.45104" />
      <path d="M 8.588459,-2.805116 C 8.642497,-3.003965 8.8466,-3.248475 9.104216,-3.447188 C 9.366773,-3.649561 9.66814,-3.812033 10.059609,-3.952106" />
      <line x1="10.059609" y1="-4.45104" x2="10.059609" y2="-3.952106" />
      <path d="M 10.059609,-4.45104 Q 10.256491,-4.383266 10.446683,-4.302406" />
      <path d="M 10.059609,-3.952106 Q 10.256491,-3.884332 10.446683,-3.803472" />
      <line x1="10.446683" y1="-4.302406" x2="10.446683" y2="-3.803472" />
      <path d="M 10.446683,-4.302406 C 10.591799,-3.952504 10.65534,-3.646014 10.656973,-3.337766" />
      <path d="M 10.446683,-3.803472 C 10.591799,-3.45357 10.65534,-3.14708 10.656973,-2.838832" />
      <path d="M 10.656973,-2.838832 C 10.658312,-2.544321 10.586427,-2.254454 10.454619,-2.088522" />
      <path d="M 10.454619,-2.088522 C 10.415984,-2.051962 10.348737,-1.969411 10.348568,-1.905945" />
      <path d="M 10.348568,-1.905945 Q 10.347856,-1.876244 10.370701,-1.85537" />
      <line x1="10.370701" y1="-1.979502" x2="10.370701" y2="-1.85537" />
      <path d="M 10.53529,-2.220106 Q 10.671083,-2.101974 10.790932,-1.971903" />
      <path d="M 10.370701,-1.85537 Q 10.600053,-1.680047 10.790932,-1.472969" />
      <line x1="10.790932" y1="-1.971903" x2="10.790932" y2="-1.472969" />
      <path d="M 10.790932,-1.971903 C 10.854838,-1.911483 11.006543,-1.991962 11.063733,-2.033175" />
      <path d="M 10.790932,-1.472969 C 10.854838,-1.412549 11.006543,-1.493028 11.063733,-1.534241" />
      <line x1="11.063733" y1="-2.033175" x2="11.063733" y2="-1.534241" />
      <path d="M 11.063733,-2.033175 C 11.264188,-2.140667 11.60801,-2.188487 11.952305,-2.171129 C 12.303081,-2.153331 12.648744,-2.083537 13.039842,-1.942689" />
      <path d="M 11.063733,-1.534241 C 11.264188,-1.641733 11.60801,-1.689553 11.952305,-1.672195 C 12.303081,-1.654397 12.648744,-1.584603 13.039842,-1.443755" />
      <line x1="13.039842" y1="-1.942689" x2="13.039842" y2="-1.443755" />
      <path d="M 13.039842,-1.942689 Q 13.123761,-1.774114 13.192271,-1.600386" />
      <path d="M 13.039842,-1.443755 Q 13.123761,-1.27518 13.192271,-1.101453" />
      <line x1="13.192271" y1="-1.600386" x2="13.192271" y2="-1.101453" />
      <path d="M 13.192271,-1.101453 C 13.011749,-0.769424 12.809804,-0.516479 12.563765,-0.299075 C 12.322187,-0.085768 12.030435,0.078983 11.798625,0.116063" />
      <path d="M 11.798625,0.116063 C 11.724343,0.11883 11.549691,0.147517 11.549054,0.229408" />
      <path d="M 11.549054,0.229408 L 11.549054,0.229501" />
      <line x1="11.549054" y1="0.229408" x2="11.549054" y2="0.229501" />
      <path d="M 11.549054,0.229501 Q 11.555943,0.32446 11.555947,0.419772" />
      <path d="M 11.555947,0.419772 Q 11.555928,0.58927 11.534195,0.75742" />
      <path d="M 11.555947,0.307811 C 11.604661,0.355427 11.719721,0.377714 11.777087,0.382335" />
      <path d="M 11.534195,0.75742 L 11.534101,0.760651" />
      <path d="M 11.534101,0.760651 C 11.534708,0.840275 11.70398,0.875433 11.777087,0.881269" />
      <line x1="11.777087" y1="0.382335" x2="11.777087" y2="0.881269" />
      <path d="M 11.777087,0.382335 C 12.006535,0.429166 12.28867,0.606049 12.517961,0.82931 C 12.751476,1.056853 12.93895,1.318029 13.100577,1.657292" />
      <path d="M 11.777087,0.881269 C 12.006535,0.9281 12.28867,1.104983 12.517961,1.328244 C 12.751476,1.555787 12.93895,1.816963 13.100577,2.156226" />
      <line x1="13.100577" y1="1.657292" x2="13.100577" y2="2.156226" />
      <path d="M 13.100577,2.156226 Q 13.022374,2.326852 12.929071,2.49168" />
      <path d="M 12.929071,2.49168 C 12.530514,2.615834 12.181335,2.670939 11.829976,2.673894 C 11.485113,2.676683 11.144391,2.614392 10.950221,2.498557" />
      <path d="M 10.950221,2.498557 C 10.895418,2.454976 10.748422,2.368183 10.681192,2.425831" />
      <path d="M 10.681192,2.425831 Q 10.478889,2.624596 10.239947,2.79002" />
      <path d="M 10.239947,2.79002 Q 10.21397,2.811773 10.214851,2.844806" />
      <path d="M 10.214851,2.844806 C 10.214995,2.907624 10.275096,2.989315 10.310647,3.02644" />
      <line x1="10.310647" y1="2.739767" x2="10.310647" y2="3.02644" />
      <path d="M 10.390748,2.679478 C 10.446206,2.820573 10.473786,2.995958 10.473619,3.177622" />
      <path d="M 10.310647,3.02644 C 10.41762,3.176266 10.474495,3.421446 10.473619,3.676556" />
      <path d="M 10.473619,3.676556 Q 10.473148,3.92959 10.407414,4.192833 Q 10.343731,4.452262 10.206236,4.739015" />
      <path d="M 10.206236,4.739015 Q 10.011722,4.811743 9.81126,4.871116" />
      <path d="M 9.81126,4.871116 C 9.428138,4.714668 9.13627,4.539655 8.885411,4.326428 C 8.639281,4.117066 8.449178,3.864223 8.406391,3.663327" />
      <path d="M 8.406391,3.663327 C 8.403198,3.598927 8.370072,3.447474 8.275497,3.447039" />
      <path d="M 8.275497,3.447039 Q 7.970272,3.463614 7.666341,3.434161" />
      <path d="M 7.666341,3.434161 C 7.571855,3.4306 7.530248,3.580472 7.523435,3.644661" />
      <path d="M 7.523435,3.644661 C 7.469396,3.84351 7.265294,4.08802 7.007678,4.286732 C 6.745121,4.489105 6.443754,4.651578 6.052285,4.791651" />
      <path d="M 6.052285,4.791651 Q 5.855403,4.723877 5.665211,4.643016" />
      <path d="M 5.454921,3.179443 C 5.454559,2.951537 5.495587,2.728691 5.576604,2.560716" />
      <path d="M 5.665211,4.643016 C 5.520095,4.293115 5.456554,3.986624 5.454921,3.678377" />
      <path d="M 5.454921,3.678377 C 5.453582,3.383865 5.525467,3.093998 5.657275,2.928066" />
      <line x1="5.657275" y1="2.628663" x2="5.657275" y2="2.928066" />
      <path d="M 5.657275,2.928066 C 5.69591,2.891507 5.763157,2.808955 5.763325,2.74549" />
      <path d="M 5.763325,2.74549 Q 5.764038,2.715788 5.741193,2.694915" />
      <path d="M 5.741193,2.694915 Q 5.511841,2.519591 5.320962,2.312514" />
      <path d="M 5.320962,2.312514 C 5.257055,2.252094 5.105351,2.332572 5.048161,2.373786" />
      <path d="M 5.048161,2.373786 C 4.847706,2.481278 4.503884,2.529097 4.159588,2.511739 C 3.808813,2.493942 3.46315,2.424147 3.072052,2.283299" />
      <path d="M 3.072052,2.283299 Q 2.988133,2.114725 2.919623,1.940997" />
      <line x1="2.919623" y1="1.442063" x2="2.919623" y2="1.940997" />
      <path d="M 2.919623,1.442063 Q 2.997107,1.299245 3.079724,1.176413" />
      <path d="M 2.919623,1.940997 C 3.100145,1.608968 3.30209,1.356024 3.548129,1.138619 C 3.789707,0.925313 4.081459,0.760562 4.313269,0.723481" />
      <line x1="4.313269" y1="0.624512" x2="4.313269" y2="0.723481" />
      <path d="M 4.313269,0.723481 C 4.387551,0.720714 4.562203,0.692027 4.56284,0.610136" />
      <path d="M 4.56284,0.610136 L 4.56284,0.610043" />
      <path d="M -6.746125,-0.169052 L -6.746125,0.047659" />
      <path d="M -7.367597,2.803523 L -7.367597,3.302457" />
      <path d="M -11.907839,2.80365 L -11.907839,3.302584" />
      <path d="M -12.346125,-0.338942 L -12.346125,0.047659" />
      <path d="M -11.724653,-3.706073 L -11.724653,-3.207139" />
      <path d="M -7.184411,-3.7062 L -7.184411,-3.207266" />
      <path d="M 2.918299,2.983589 L 2.918299,3.482522" />
      <path d="M -0.0345,3.160751 L -0.0345,3.493011" />
      <path d="M -2.100142,3.102461 L -2.100142,3.493719" />
      <path d="M -5.05247,2.990619 L -5.05247,3.489553" />
      <path d="M -4.869193,-3.523765 L -4.869193,-3.024831" />
      <path d="M -1.916394,-3.534253 L -1.916394,-3.035319" />
      <path d="M 0.149248,-3.534961 L 0.149248,-3.036027" />
      <path d="M 3.101577,-3.530796 L 3.101577,-3.031862" />
      <path d="M 5.638274,-3.335945 L 5.638274,-2.837011" />
      <path d="M 10.656973,-3.337766 L 10.656973,-2.838832" />
      <path d="M 11.555947,0.202696 L 11.555947,0.419772" />
      <path d="M 10.473619,3.177622 L 10.473619,3.676556" />
      <path d="M 5.454921,3.179443 L 5.454921,3.678377" />
      <path d="M 4.56284,0.610096 L 4.56284,0.610136" />
    </g>
  </g>
</svg>