<?xml version='1.0' encoding='utf-8'?>
<svg width="100.09mm" height="73.815411mm" viewBox="-19.337456 -16.159236 44.812517 33.0488" version="1.1" xmlns="http://www.w3.org/2000/svg">
  <g transform="scale(1,-1)" stroke-linecap="round">
    <g fill="none" stroke="rgb(0,0,0)" stroke-width="0.040294999969331266" id="Visible">
      <path d="M 14.137862,5.22804 Q 14.000993,4.95505 13.90263,4.667237" />
      <path d="M 13.90263,4.667237 C 13.654713,4.635964 13.430171,4.621233 13.212875,4.620687 C 12.998009,4.620151 12.792886,4.635758 12.652773,4.665491" />
      <path d="M 12.652773,4.665491 C 12.523227,4.689297 12.343568,4.68172 12.158982,4.650557 C 11.972979,4.619159 11.782734,4.5664 11.588248,4.492279" />
      <path d="M 11.588248,4.492279 Q 11.498982,4.043368 11.474024,3.58701" />
      <line x1="11.474024" y1="2.996474" x2="11.474024" y2="3.58701" />
      <path d="M 11.474024,3.58701 C 11.644473,3.470628 11.816116,3.375961 11.988952,3.303008 C 12.160471,3.230606 12.333071,3.182236 12.464806,3.175785" />
      <line x1="12.464806" y1="3.172694" x2="12.464806" y2="3.175785" />
      <path d="M 12.464806,3.175785 C 12.608279,3.172678 12.811375,3.141011 13.01992,3.091442 C 13.230821,3.041309 13.445232,2.975746 13.67823,2.888781" />
      <line x1="13.67823" y1="2.226167" x2="13.67823" y2="2.888781" />
      <path d="M 13.67823,2.888781 Q 13.702175,2.586804 13.767204,2.290434" />
      <path d="M 13.767204,2.290434 C 13.568823,2.144597 13.382052,2.024282 13.194153,1.919723 C 13.008353,1.816336 12.822567,1.731597 12.685706,1.690232" />
      <path d="M 12.685706,1.690232 C 12.561092,1.648795 12.409457,1.556175 12.265865,1.440769 C 12.121169,1.324481 11.983948,1.187661 11.854203,1.030311" />
      <line x1="11.854203" y1="0.184113" x2="11.854203" y2="1.030311" />
      <path d="M 11.854203,1.030311 Q 12.011189,0.598783 12.227754,0.19161" />
      <line x1="12.227754" y1="0.180352" x2="12.227754" y2="0.19161" />
      <path d="M 12.227754,0.19161 C 12.436108,0.172467 12.634163,0.172701 12.821919,0.192312 C 13.008246,0.211769 13.182967,0.252556 13.30042,0.310071" />
      <line x1="13.30042" y1="-0.057078" x2="13.30042" y2="0.310071" />
      <path d="M 13.665418,-0.978241 Q 13.961784,-0.883692 14.311498,-0.821505" />
      <path d="M 13.30042,0.310071 C 13.426293,0.376105 13.618706,0.445965 13.825182,0.502931 C 14.033993,0.560538 14.253896,0.606463 14.501066,0.642757" />
      <line x1="14.501066" y1="-0.56605" x2="14.501066" y2="0.642757" />
      <path d="M 14.501066,0.642757 Q 14.67941,0.392707 14.890406,0.167192" />
      <path d="M 14.890406,0.167192 C 14.794717,-0.054133 14.695762,-0.247792 14.587608,-0.428348 C 14.48066,-0.606883 14.36399,-0.769263 14.267055,-0.870643" />
      <path d="M 14.267055,-0.870643 C 14.180762,-0.96622 14.097782,-1.119065 14.03366,-1.287791 C 13.969041,-1.45781 13.921612,-1.642029 13.891373,-1.840448" />
      <line x1="13.891373" y1="-3.274056" x2="13.891373" y2="-1.840448" />
      <path d="M 13.891373,-3.274056 Q 14.252546,-3.572573 14.652606,-3.821459" />
      <path d="M 13.891373,-1.840448 Q 14.252546,-2.138964 14.652606,-2.38785" />
      <line x1="14.652606" y1="-3.821459" x2="14.652606" y2="-2.38785" />
      <path d="M 14.652606,-3.821459 C 14.843037,-3.738234 15.014436,-3.643161 15.166802,-3.536242 C 15.318011,-3.43014 15.448037,-3.311125 15.519736,-3.205055" />
      <path d="M 14.652606,-2.38785 C 14.843037,-2.304625 15.014436,-2.209553 15.166802,-2.102633 C 15.318011,-1.996531 15.448037,-1.877516 15.519736,-1.771446" />
      <line x1="15.519736" y1="-3.205055" x2="15.519736" y2="-1.771446" />
      <path d="M 15.519736,-3.205055 C 15.594282,-3.087573 15.724456,-2.934905 15.873537,-2.786668 C 16.024307,-2.636757 16.19078,-2.491649 16.385894,-2.341822" />
      <path d="M 15.519736,-1.771446 C 15.594282,-1.653964 15.724456,-1.501296 15.873537,-1.353059 C 16.024307,-1.203148 16.19078,-1.058041 16.385894,-0.908213" />
      <line x1="16.385894" y1="-2.341822" x2="16.385894" y2="-0.908213" />
      <path d="M 16.385894,-2.341822 Q 16.66473,-2.470131 16.958464,-2.563141" />
      <path d="M 16.385894,-0.908213 Q 16.670848,-1.039335 16.971275,-1.133568" />
      <line x1="16.971275" y1="-2.340499" x2="16.971275" y2="-1.133568" />
      <path d="M 16.971275,-1.133568 C 17.004284,-1.37374 17.019657,-1.591192 17.019871,-1.801443" />
      <path d="M 17.019871,-1.801443 C 17.020062,-2.004637 17.003772,-2.198281 16.973097,-2.330949" />
      <path d="M 16.958464,-3.933618 C 16.959748,-4.188235 17.031446,-4.490179 17.1539,-4.784387" />
      <path d="M 16.973097,-2.330949 Q 16.958384,-2.405871 16.958464,-2.500009" />
      <path d="M 16.958464,-2.500009 C 16.959748,-2.754627 17.031446,-3.05657 17.1539,-3.350778" />
      <line x1="17.1539" y1="-4.784387" x2="17.1539" y2="-3.350778" />
      <path d="M 17.1539,-4.784387 Q 17.622485,-4.869905 18.098844,-4.893816" />
      <path d="M 17.1539,-3.350778 Q 17.622485,-3.436297 18.098844,-3.460207" />
      <line x1="18.098844" y1="-4.893816" x2="18.098844" y2="-3.460207" />
      <path d="M 18.098844,-4.893816 C 18.220326,-4.730523 18.319142,-4.566087 18.395293,-4.400507 C 18.470867,-4.23619 18.521357,-4.070836 18.528092,-3.944632" />
      <path d="M 18.098844,-3.460207 C 18.220326,-3.296914 18.319142,-3.132478 18.395293,-2.966898 C 18.470867,-2.802581 18.521357,-2.637228 18.528092,-2.511024" />
      <line x1="18.528092" y1="-3.944632" x2="18.528092" y2="-2.511024" />
      <path d="M 18.528092,-3.944632 C 18.531335,-3.807183 18.564389,-3.612614 18.61613,-3.412826 C 18.668461,-3.210779 18.736897,-3.005371 18.827673,-2.782156" />
      <path d="M 18.528092,-2.511024 C 18.531335,-2.373574 18.564389,-2.179005 18.61613,-1.979217 C 18.668461,-1.777171 18.736897,-1.571762 18.827673,-1.348547" />
      <line x1="18.827673" y1="-2.782156" x2="18.827673" y2="-1.348547" />
      <path d="M 18.827673,-2.782156 Q 19.142885,-2.759215 19.452244,-2.696917" />
      <path d="M 18.827673,-1.348547 Q 19.142885,-1.325607 19.452244,-1.263309" />
      <line x1="19.452244" y1="-2.696917" x2="19.452244" y2="-1.263309" />
      <path d="M 19.452244,-2.696917 C 19.604473,-2.886969 19.73006,-3.065898 19.839202,-3.245908 C 19.94712,-3.423906 20.035573,-3.601892 20.078751,-3.733007" />
      <path d="M 19.452244,-1.263309 C 19.604473,-1.45336 19.73006,-1.632289 19.839202,-1.812299 C 19.94712,-1.990298 20.035573,-2.168284 20.078751,-2.299398" />
      <line x1="20.078751" y1="-3.733007" x2="20.078751" y2="-2.299398" />
      <path d="M 20.078751,-3.733007 C 20.122004,-3.852389 20.218683,-3.997657 20.339147,-4.13522 C 20.460531,-4.273841 20.603347,-4.405301 20.767593,-4.529599" />
      <path d="M 20.078751,-2.299398 C 20.122004,-2.41878 20.218683,-2.564049 20.339147,-2.701611 C 20.460531,-2.840233 20.603347,-2.971692 20.767593,-3.09599" />
      <line x1="20.767593" y1="-4.529599" x2="20.767593" y2="-3.09599" />
      <path d="M 20.767593,-4.529599 Q 21.218033,-4.379204 21.643051,-4.171732" />
      <path d="M 20.767593,-3.09599 Q 21.218033,-2.945595 21.643051,-2.738123" />
      <line x1="21.643051" y1="-4.171732" x2="21.643051" y2="-2.738123" />
      <path d="M 21.643051,-4.171732 Q 21.65789,-4.023446 21.657838,-3.883065" />
      <path d="M 21.643051,-2.738123 Q 21.65789,-2.589837 21.657838,-2.449457" />
      <path d="M 21.657838,-2.449457 C 21.658598,-2.167633 21.610579,-1.882396 21.519399,-1.710494" />
      <path d="M 21.519399,-1.710494 C 21.450471,-1.589906 21.377549,-1.405571 21.318086,-1.207765 C 21.258311,-1.010303 21.20966,-0.794468 21.172132,-0.560258" />
      <path d="M 21.53141,-1.73425 L 21.66854,-1.620874" />
      <path d="M 21.172132,-0.560258 Q 21.433141,-0.389402 21.66854,-0.187266" />
      <line x1="21.66854" y1="-1.620874" x2="21.66854" y2="-0.187266" />
      <path d="M 21.66854,-1.620874 C 21.899564,-1.712545 22.101711,-1.807345 22.29018,-1.910958 C 22.47654,-2.013416 22.646035,-2.125187 22.751859,-2.218053" />
      <path d="M 21.66854,-0.187266 C 21.899564,-0.278936 22.101711,-0.373736 22.29018,-0.47735 C 22.47654,-0.579808 22.646035,-0.691579 22.751859,-0.784444" />
      <line x1="22.751859" y1="-2.218053" x2="22.751859" y2="-0.784444" />
      <path d="M 22.751859,-2.218053 C 22.851624,-2.300722 23.011168,-2.380219 23.187289,-2.441649 C 23.364759,-2.503554 23.557052,-2.548992 23.764166,-2.577962" />
      <path d="M 22.751859,-0.784444 C 22.851624,-0.867114 23.011168,-0.94661 23.187289,-1.00804 C 23.364759,-1.069945 23.557052,-1.115383 23.764166,-1.144353" />
      <line x1="23.764166" y1="-2.577962" x2="23.764166" y2="-1.144353" />
      <path d="M 23.764166,-2.577962 Q 24.075766,-2.231952 24.335559,-1.848689" />
      <path d="M 23.764166,-1.144353 Q 24.075766,-0.798343 24.335559,-0.415081" />
      <line x1="24.335559" y1="-1.848689" x2="24.335559" y2="-0.415081" />
      <path d="M 24.335559,-0.415081 C 24.248687,-0.232645 24.149448,-0.068443 24.037842,0.077526 C 23.92709,0.222386 23.802859,0.346953 23.69214,0.415642" />
      <path d="M 23.69214,0.415642 C 23.56951,0.487058 23.410151,0.611766 23.255417,0.754588 C 23.098936,0.899028 22.947469,1.058511 22.791075,1.245433" />
      <path d="M 22.791075,1.245433 Q 22.927944,1.518423 23.026307,1.806236" />
      <line x1="23.026307" y1="0.98084" x2="23.026307" y2="1.806236" />
      <path d="M 23.686366,0.419034 C 23.912303,0.421059 24.129502,0.405495 24.276165,0.374373" />
      <path d="M 23.026307,1.806236 C 23.274224,1.837509 23.498766,1.85224 23.716062,1.852786 C 23.930928,1.853322 24.136051,1.837715 24.276165,1.807982" />
      <line x1="24.276165" y1="0.374373" x2="24.276165" y2="1.807982" />
      <path d="M 24.276165,0.374373 C 24.40571,0.350567 24.585369,0.358144 24.769955,0.389308 C 24.955958,0.420705 25.146203,0.473465 25.340689,0.547585" />
      <path d="M 24.276165,1.807982 C 24.40571,1.784176 24.585369,1.791753 24.769955,1.822916 C 24.955958,1.854314 25.146203,1.907073 25.340689,1.981194" />
      <line x1="25.340689" y1="0.547585" x2="25.340689" y2="1.981194" />
      <path d="M 25.340689,0.547585 Q 25.429955,0.996496 25.454913,1.452855" />
      <path d="M 25.340689,1.981194 Q 25.429955,2.430105 25.454913,2.886463" />
      <line x1="25.454913" y1="1.452855" x2="25.454913" y2="2.886463" />
      <path d="M 25.454913,2.886463 C 25.284464,3.002845 25.112821,3.097512 24.939985,3.170465 C 24.768467,3.242867 24.595866,3.291237 24.464131,3.297688" />
      <path d="M 24.464131,3.297688 C 24.320658,3.300795 24.117562,3.332462 23.909018,3.382031 C 23.698116,3.432164 23.483705,3.497727 23.250707,3.584692" />
      <path d="M 23.250707,3.584692 Q 23.226762,3.886669 23.161734,4.183039" />
      <path d="M 24.177369,3.327748 Q 24.211971,3.340153 24.243231,3.349633" />
      <path d="M 23.161734,4.183039 C 23.360114,4.328876 23.546885,4.449191 23.734784,4.55375 C 23.920584,4.657137 24.10637,4.741876 24.243231,4.783241" />
      <line x1="24.243231" y1="3.349633" x2="24.243231" y2="4.783241" />
      <path d="M 24.243231,3.349633 C 24.367845,3.391069 24.51948,3.483689 24.663072,3.599096 C 24.807768,3.715384 24.944989,3.852203 25.074735,4.009553" />
      <path d="M 24.243231,4.783241 C 24.367845,4.824678 24.51948,4.917298 24.663072,5.032704 C 24.807768,5.148992 24.944989,5.285812 25.074735,5.443162" />
      <line x1="25.074735" y1="4.009553" x2="25.074735" y2="5.443162" />
      <path d="M 25.074735,5.443162 Q 24.917749,5.87469 24.701184,6.281863" />
      <path d="M 24.701184,6.281863 C 24.492829,6.301006 24.294774,6.300772 24.107018,6.281161 C 23.920692,6.261704 23.74597,6.220917 23.628517,6.163402" />
      <path d="M 23.628517,6.163402 C 23.502644,6.097368 23.310231,6.027508 23.103755,5.970542 C 22.894944,5.912935 22.675041,5.86701 22.427871,5.830716" />
      <path d="M 22.427871,5.830716 Q 22.249527,6.080766 22.038532,6.306281" />
      <path d="M 22.61744,5.861369 Q 22.640314,5.887907 22.661882,5.910508" />
      <path d="M 22.038532,6.306281 C 22.13422,6.527606 22.233175,6.721265 22.341329,6.901821 C 22.448277,7.080356 22.564947,7.242736 22.661882,7.344116" />
      <line x1="22.661882" y1="5.910508" x2="22.661882" y2="7.344116" />
      <path d="M 22.661882,5.910508 C 22.748175,6.006084 22.831155,6.158929 22.895277,6.327655 C 22.959896,6.497674 23.007325,6.681893 23.037564,6.880312" />
      <path d="M 22.661882,7.344116 C 22.748175,7.439693 22.831155,7.592538 22.895277,7.761264 C 22.959896,7.931283 23.007325,8.115502 23.037564,8.313921" />
      <line x1="23.037564" y1="6.880312" x2="23.037564" y2="8.313921" />
      <path d="M 23.037564,8.313921 Q 22.676391,8.612437 22.276331,8.861323" />
      <path d="M 22.276331,8.861323 C 22.0859,8.778098 21.914501,8.683026 21.762135,8.576106 C 21.610926,8.470004 21.4809,8.350989 21.409201,8.244919" />
      <path d="M 21.409201,8.244919 C 21.334655,8.127437 21.204482,7.974769 21.0554,7.826532 C 20.90463,7.676621 20.738157,7.531514 20.543044,7.381686" />
      <path d="M 20.543044,7.381686 Q 20.258089,7.512808 19.957662,7.607041" />
      <path d="M 19.957662,7.607041 C 19.924653,7.847213 19.90928,8.064665 19.909066,8.274916" />
      <path d="M 19.909066,8.274916 C 19.908875,8.47811 19.925165,8.671754 19.95584,8.804422" />
      <line x1="19.95584" y1="7.620376" x2="19.95584" y2="8.804422" />
      <path d="M 19.95584,8.804422 Q 19.970553,8.879344 19.970474,8.973482" />
      <path d="M 19.970474,8.973482 C 19.969189,9.2281 19.897491,9.530043 19.775037,9.824252" />
      <path d="M 19.775037,9.824252 Q 19.306452,9.90977 18.830093,9.93368" />
      <path d="M 18.830093,9.93368 C 18.708611,9.770387 18.609795,9.605951 18.533645,9.440371 C 18.45807,9.276054 18.40758,9.110701 18.400845,8.984497" />
      <path d="M 18.400845,8.984497 C 18.397603,8.847047 18.364548,8.652478 18.312807,8.45269 C 18.260476,8.250644 18.19204,8.045235 18.101264,7.82202" />
      <path d="M 18.101264,7.82202 Q 17.786052,7.79908 17.476693,7.736782" />
      <path d="M 17.476693,7.736782 C 17.324464,7.926833 17.198877,8.105762 17.089735,8.285772 C 16.981817,8.463771 16.893365,8.641757 16.850186,8.772871" />
      <path d="M 16.850186,8.772871 C 16.806934,8.892253 16.710254,9.037522 16.58979,9.175084 C 16.468406,9.313706 16.32559,9.445165 16.161344,9.569463" />
      <path d="M 16.161344,9.569463 Q 15.710904,9.419068 15.285886,9.211596" />
      <path d="M 15.271099,7.489321 C 15.270525,7.219875 15.313844,6.948816 15.397527,6.774114" />
      <path d="M 15.285886,9.211596 Q 15.271047,9.06331 15.271099,8.92293" />
      <path d="M 15.271099,8.92293 C 15.270339,8.641106 15.318359,8.355869 15.409538,8.183967" />
      <line x1="15.409538" y1="6.78364" x2="15.409538" y2="8.183967" />
      <path d="M 15.409538,8.183967 C 15.478466,8.063379 15.551388,7.879044 15.610851,7.681238 C 15.670626,7.483776 15.719277,7.267941 15.756805,7.033731" />
      <path d="M 15.756805,7.033731 Q 15.495796,6.862875 15.260397,6.660739" />
      <path d="M 15.260397,6.660739 C 15.029373,6.752409 14.827226,6.847209 14.638757,6.950823 C 14.452397,7.053281 14.282902,7.165052 14.177078,7.257917" />
      <path d="M 14.177078,7.257917 C 14.077313,7.340587 13.917769,7.420083 13.741648,7.481513 C 13.564178,7.543418 13.371885,7.588856 13.164771,7.617826" />
      <path d="M 13.164771,7.617826 Q 12.853172,7.271816 12.593378,6.888554" />
      <line x1="12.593378" y1="5.964294" x2="12.593378" y2="6.888554" />
      <path d="M 12.820229,5.059837 C 12.948462,4.873289 13.101525,4.708213 13.236797,4.624222" />
      <path d="M 12.593378,6.888554 C 12.68025,6.706118 12.779489,6.541916 12.891095,6.395947 C 13.001847,6.251087 13.126078,6.12652 13.236797,6.057831" />
      <line x1="13.236797" y1="4.624222" x2="13.236797" y2="6.057831" />
      <path d="M 13.236797,4.624222 L 13.242572,4.62083" />
      <path d="M 13.236797,6.057831 C 13.359427,5.986415 13.518786,5.861707 13.67352,5.718885 C 13.830001,5.574445 13.981468,5.414962 14.137862,5.22804" />
      <path d="M 11.478571,0.187895 L 11.47936,0.331858" />
      <path d="M 11.47936,0.331858 Q 11.479339,0.954547 11.420409,1.574522" />
      <path d="M 11.420409,1.574522 C 11.598106,1.590028 11.845897,1.61165 12.08244,1.632291 C 12.317529,1.652804 12.539952,1.672213 12.615462,1.678802" />
      <line x1="12.615462" y1="1.662794" x2="12.615462" y2="1.678802" />
      <path d="M 12.615462,1.678802 C 12.748909,1.699274 12.918554,1.771375 13.081791,1.870761 C 13.246308,1.970612 13.404993,2.095931 13.557849,2.246716" />
      <line x1="13.557849" y1="2.143063" x2="13.557849" y2="2.246716" />
      <path d="M 13.557849,2.246716 Q 13.517732,2.561632 13.46446,2.874754" />
      <path d="M 13.46446,2.874754 C 13.273734,2.978648 13.084833,3.05653 12.897756,3.108398 C 12.712043,3.160161 12.52813,3.18401 12.394024,3.167968" />
      <path d="M 12.394024,3.167968 C 12.319597,3.154094 12.100365,3.113228 11.868648,3.070035 C 11.635499,3.026574 11.391262,2.981047 11.216115,2.948398" />
      <path d="M 11.216115,2.948398 Q 11.077577,3.630367 10.867784,4.295425" />
      <path d="M 11.213369,2.961883 Q 11.342161,2.999175 11.474024,3.037357" />
      <path d="M 10.867784,4.295425 C 11.038586,4.344882 11.276761,4.413847 11.504125,4.479682 C 11.730092,4.545112 11.943883,4.607016 12.016463,4.628032" />
      <line x1="12.016463" y1="4.622522" x2="12.016463" y2="4.628032" />
      <path d="M 12.016463,4.628032 C 12.142877,4.67382 12.2939,4.777161 12.432912,4.905992 C 12.57308,5.035526 12.702186,5.188881 12.820229,5.366057" />
      <line x1="12.820229" y1="4.63967" x2="12.820229" y2="5.366057" />
      <path d="M 12.820229,5.366057 Q 12.714763,5.666791 12.596788,5.963229" />
      <path d="M 12.596788,5.963229 C 12.388136,6.028217 12.186737,6.068075 11.992591,6.082804 C 11.799804,6.097693 11.614644,6.085587 11.486654,6.044012" />
      <path d="M 11.486654,6.044012 C 11.416665,6.016069 11.210508,5.933761 10.99261,5.846766 C 10.773365,5.759233 10.543695,5.667538 10.378992,5.601781" />
      <path d="M 10.378992,5.601781 Q 10.099995,6.243073 9.754754,6.854059" />
      <path d="M 10.327906,5.717715 C 10.53976,5.827592 10.742105,5.932538 10.810032,5.967768" />
      <path d="M 9.754754,6.854059 C 9.911667,6.935442 10.130477,7.048927 10.339353,7.15726 C 10.546946,7.264928 10.743354,7.366794 10.810032,7.401377" />
      <line x1="10.810032" y1="5.967768" x2="10.810032" y2="7.401377" />
      <path d="M 10.810032,5.967768 C 10.924237,6.036997 11.050455,6.167347 11.159551,6.320349 C 11.269632,6.474262 11.363872,6.649376 11.44227,6.845689" />
      <path d="M 10.810032,7.401377 C 10.924237,7.470606 11.050455,7.600956 11.159551,7.753958 C 11.269632,7.907871 11.363872,8.082985 11.44227,8.279298" />
      <line x1="11.44227" y1="6.845689" x2="11.44227" y2="8.279298" />
      <path d="M 11.44227,8.279298 Q 11.275773,8.553537 11.097925,8.821156" />
      <path d="M 11.097925,8.821156 C 10.879889,8.844575 10.674237,8.844778 10.480971,8.821765 C 10.289001,8.799172 10.110175,8.751606 9.993541,8.686199" />
      <path d="M 9.993541,8.686199 C 9.930857,8.645331 9.746214,8.524952 9.551056,8.397716 C 9.354692,8.269695 9.148989,8.135585 9.001476,8.039412" />
      <path d="M 9.001476,8.039412 Q 8.59344,8.613773 8.126886,9.145674" />
      <path d="M 8.828745,8.277129 C 8.928389,8.357352 9.009287,8.422483 9.04556,8.451686" />
      <path d="M 8.126886,9.145674 C 8.263487,9.255651 8.453972,9.409009 8.635809,9.555406 C 8.816529,9.700903 8.987512,9.838561 9.04556,9.885295" />
      <line x1="9.04556" y1="8.451686" x2="9.04556" y2="9.885295" />
      <path d="M 9.04556,8.451686 C 9.14288,8.541522 9.239125,8.693544 9.313839,8.864453 C 9.389326,9.036445 9.444842,9.226147 9.480386,9.433561" />
      <path d="M 9.04556,9.885295 C 9.14288,9.975131 9.239125,10.127153 9.313839,10.298062 C 9.389326,10.470053 9.444842,10.659756 9.480386,10.86717" />
      <line x1="9.480386" y1="9.433561" x2="9.480386" y2="10.86717" />
      <path d="M 9.480386,10.86717 Q 9.259674,11.103687 9.029234,11.33153" />
      <path d="M 9.029234,11.33153 C 8.810741,11.312422 8.609256,11.272962 8.424781,11.213149 C 8.241489,11.153997 8.076318,11.072919 7.975815,10.986359" />
      <path d="M 7.975815,10.986359 C 7.923,10.934239 7.767432,10.780716 7.603003,10.61845 C 7.437559,10.45518 7.264246,10.284146 7.13996,10.161494" />
      <path d="M 7.13996,10.161494 Q 6.619592,10.64541 6.050825,11.07645" />
      <path d="M 6.760225,10.502025 Q 6.782086,10.528501 6.795283,10.544485" />
      <path d="M 6.050825,11.07645 C 6.161521,11.210518 6.315883,11.397472 6.463237,11.575939 C 6.609686,11.753309 6.748244,11.921123 6.795283,11.978094" />
      <line x1="6.795283" y1="10.544485" x2="6.795283" y2="11.978094" />
      <path d="M 6.795283,10.544485 C 6.864467,10.641106 6.922401,10.788038 6.960135,10.949699 C 6.998229,11.113104 7.017331,11.287558 7.017442,11.473062" />
      <path d="M 6.795283,11.978094 C 6.864467,12.074715 6.922401,12.221647 6.960135,12.383308 C 6.998229,12.546713 7.017331,12.721167 7.017442,12.90667" />
      <path d="M 7.017442,12.90667 L 7.014897,13.023725" />
      <path d="M 7.014897,13.023725 Q 6.749006,13.212837 6.475408,13.391577" />
      <path d="M 6.475408,13.391577 C 6.265402,13.330724 6.076333,13.253216 5.908203,13.159052 C 5.741091,13.065763 5.596338,12.954492 5.51608,12.850322" />
      <path d="M 5.51608,12.850322 C 5.475298,12.789084 5.355172,12.608703 5.228205,12.418048 C 5.100454,12.226216 4.966627,12.02526 4.870656,11.881151" />
      <path d="M 4.870656,11.881151 Q 4.25926,12.25481 3.611565,12.567341" />
      <path d="M 3.611565,12.567341 C 3.691824,12.720012 3.803743,12.932907 3.910582,13.136137 C 4.016764,13.338119 4.117225,13.529218 4.15133,13.594094" />
      <line x1="4.15133" y1="12.292908" x2="4.15133" y2="13.594094" />
      <path d="M 4.189026,12.27267 Q 4.228192,12.429997 4.228015,12.626034" />
      <path d="M 4.15133,13.594094 C 4.202337,13.710127 4.228262,13.880043 4.228015,14.059643" />
      <path d="M 4.228015,14.059643 Q 4.227959,14.346265 4.14674,14.660673" />
      <path d="M 4.14674,14.660673 Q 3.846555,14.794637 3.541001,14.916956" />
      <path d="M 3.541001,14.916956 C 3.34808,14.81685 3.179168,14.704467 3.034264,14.579808 C 2.890175,14.456202 2.771765,14.319293 2.715039,14.201778" />
      <path d="M 2.715039,14.201778 C 2.687959,14.133929 2.608194,13.934074 2.523887,13.722837 C 2.439058,13.510295 2.350195,13.287645 2.28647,13.127978" />
      <path d="M 2.28647,13.127978 Q 1.609075,13.376082 0.908969,13.557309" />
      <path d="M 0.908969,13.557309 C 0.955507,13.722334 1.020401,13.952454 1.08235,14.172128 C 1.143918,14.390452 1.202168,14.597012 1.221944,14.667138" />
      <line x1="1.221944" y1="13.472636" x2="1.221944" y2="14.667138" />
      <path d="M 1.221944,14.667138 Q 1.236089,14.736645 1.236033,14.823119" />
      <path d="M 1.236033,14.823119 C 1.236034,14.952544 1.212533,15.102138 1.171211,15.252395 C 1.130035,15.402859 1.070743,15.555727 0.993337,15.710998" />
      <path d="M 0.993337,15.710998 Q 0.671148,15.78433 0.346147,15.84522" />
      <path d="M 0.346147,15.84522 C 0.17821,15.709959 0.036369,15.567303 -0.079374,15.417251 C -0.194542,15.268388 -0.281761,15.111447 -0.312634,14.985398" />
      <path d="M -0.312634,14.985398 C -0.324902,14.913715 -0.361041,14.702569 -0.399237,14.479398 C -0.43767,14.254847 -0.47793,14.019618 -0.506802,13.85093" />
      <path d="M -0.506802,13.85093 Q -1.222462,13.963322 -1.946316,14.005827" />
      <path d="M -1.946316,14.005827 C -1.935407,14.176448 -1.920194,14.414372 -1.905671,14.641495 C -1.891238,14.867224 -1.877583,15.080789 -1.872947,15.153293" />
      <line x1="-1.872947" y1="14.00134" x2="-1.872947" y2="15.153293" />
      <path d="M -1.872947,15.153293 C -1.873862,15.282763 -1.922566,15.454329 -2.000393,15.623959 C -2.078506,15.794871 -2.183779,15.964117 -2.31621,16.131699" />
      <path d="M -2.31621,16.131699 Q -2.647213,16.141398 -2.978355,16.138366" />
      <path d="M -2.978355,16.138366 C -3.114434,15.973487 -3.223396,15.806397 -3.305241,15.637096 C -3.386772,15.469071 -3.439229,15.298523 -3.442984,15.1691" />
      <line x1="-3.442984" y1="14.018477" x2="-3.442984" y2="15.1691" />
      <path d="M -3.442984,15.1691 C -3.43994,15.096519 -3.430972,14.882726 -3.421494,14.656757 C -3.411957,14.429391 -3.401967,14.191213 -3.394803,14.02041" />
      <path d="M -3.394803,14.02041 Q -4.119429,13.992489 -4.837397,13.89453" />
      <path d="M -4.837397,13.89453 C -4.862562,14.063762 -4.897653,14.29975 -4.931151,14.525025 C -4.964444,14.748916 -4.995942,14.960743 -5.006636,15.032657" />
      <path d="M -5.006636,15.032657 C -5.034737,15.1593 -5.118493,15.317962 -5.23037,15.469111 C -5.342796,15.62146 -5.481476,15.766941 -5.646409,15.905553" />
      <path d="M -5.646409,15.905553 Q -5.972674,15.85122 -6.2964,15.784391" />
      <path d="M -6.2964,15.784391 C -6.379562,15.626201 -6.443493,15.470152 -6.488193,15.316245 C -6.533018,15.162646 -6.55878,15.009521 -6.55877,14.879028" />
      <path d="M -6.55877,14.879028 Q -6.558811,14.80573 -6.547856,14.745363" />
      <line x1="-6.547856" y1="13.557929" x2="-6.547856" y2="14.745363" />
      <path d="M -6.547856,14.745363 C -6.529623,14.674855 -6.475917,14.467168 -6.419152,14.247652 C -6.362036,14.02678 -6.302204,13.795404 -6.259297,13.629479" />
      <path d="M -6.259297,13.629479 Q -6.963224,13.462387 -7.645912,13.227977" />
      <path d="M -7.645912,13.227977 C -7.70612,13.388891 -7.790079,13.613281 -7.870227,13.827485 C -7.949881,14.040372 -8.025245,14.241789 -8.05083,14.310168" />
      <path d="M -8.05083,14.310168 C -8.104966,14.4288 -8.220346,14.568062 -8.361692,14.694541 C -8.503829,14.822091 -8.670238,14.93785 -8.860921,15.041818" />
      <path d="M -8.860921,15.041818 Q -9.16909,14.925678 -9.472148,14.797787" />
      <path d="M -9.567053,12.723059 Q -9.567192,12.560408 -9.538655,12.425557" />
      <path d="M -9.472148,14.797787 Q -9.566761,14.461795 -9.567053,14.156668" />
      <path d="M -9.567053,14.156668 C -9.567242,13.992924 -9.544759,13.839343 -9.500135,13.731537" />
      <line x1="-9.500135" y1="12.445123" x2="-9.500135" y2="13.731537" />
      <path d="M -9.500135,13.731537 C -9.46746,13.665988 -9.371213,13.472909 -9.269486,13.268834 C -9.167129,13.063497 -9.059905,12.848396 -8.983013,12.694142" />
      <path d="M -8.983013,12.694142 Q -9.63742,12.394721 -10.256879,12.033454" />
      <path d="M -10.256879,12.033454 C -10.349667,12.179464 -10.479056,12.383069 -10.602571,12.577432 C -10.725328,12.7706 -10.84147,12.953361 -10.880899,13.015406" />
      <path d="M -10.880899,13.015406 C -10.958854,13.121169 -11.101135,13.23533 -11.266163,13.331962 C -11.432191,13.429491 -11.619517,13.510788 -11.828142,13.575856" />
      <path d="M -11.828142,13.575856 Q -12.1056,13.402664 -12.375581,13.218947" />
      <path d="M -12.381324,11.611167 C -12.381272,11.437152 -12.363957,11.27304 -12.329378,11.118831 C -12.295074,10.966467 -12.242493,10.828391 -12.178954,10.735517" />
      <path d="M -12.375581,13.218947 Q -12.381351,13.129897 -12.381324,13.044776" />
      <path d="M -12.381324,13.044776 C -12.381272,12.870761 -12.363957,12.706649 -12.329378,12.55244 C -12.295074,12.400075 -12.242493,12.262 -12.178954,12.169125" />
      <line x1="-12.178954" y1="10.735517" x2="-12.178954" y2="12.169125" />
      <path d="M -12.178954,10.735517 Q -12.170215,10.724463 -12.157422,10.708281" />
      <path d="M -12.178954,12.169125 C -12.133175,12.11122 -11.998329,11.940654 -11.855803,11.760374 C -11.712397,11.57898 -11.56217,11.388959 -11.45444,11.252692" />
      <path d="M -11.45444,11.252692 Q -12.032537,10.833199 -12.563406,10.359867" />
      <path d="M -12.563406,10.359867 C -12.684974,10.484994 -12.854496,10.659479 -13.016323,10.826044 C -13.177155,10.991585 -13.329321,11.148207 -13.380981,11.201378" />
      <path d="M -13.380981,11.201378 C -13.479563,11.289943 -13.642918,11.374328 -13.824873,11.437158 C -14.007995,11.500671 -14.208569,11.54418 -14.426596,11.567683" />
      <path d="M -14.426596,11.567683 Q -14.661983,11.344529 -14.887835,11.112508" />
      <line x1="-14.887835" y1="9.678899" x2="-14.887835" y2="11.112508" />
      <path d="M -14.887835,9.678899 C -14.856849,9.470815 -14.805507,9.280037 -14.733809,9.106564 C -14.66286,8.934188 -14.569972,8.780262 -14.474643,8.688486" />
      <path d="M -14.887835,11.112508 C -14.856849,10.904424 -14.805507,10.713646 -14.733809,10.540172 C -14.66286,10.367797 -14.569972,10.213871 -14.474643,10.122095" />
      <line x1="-14.474643" y1="8.688486" x2="-14.474643" y2="10.122095" />
      <path d="M -14.474643,8.688486 C -14.441372,8.660536 -14.369892,8.600488 -14.280875,8.525706" />
      <path d="M -14.474643,10.122095 C -14.417634,10.074203 -14.249709,9.933133 -14.07222,9.784029 C -13.893635,9.634004 -13.706556,9.476844 -13.572398,9.364141" />
      <path d="M -13.572398,9.364141 Q -14.050518,8.841751 -14.471063,8.275732" />
      <path d="M -14.471063,8.275732 C -14.616434,8.374854 -14.819149,8.513076 -15.012662,8.645023 C -15.204985,8.776159 -15.386946,8.90023 -15.448721,8.942351" />
      <path d="M -15.448721,8.942351 C -15.563894,9.010091 -15.741637,9.061247 -15.933068,9.087701 C -16.125788,9.1146 -16.331398,9.118537 -16.5499,9.099513" />
      <path d="M -16.5499,9.099513 Q -16.733579,8.835534 -16.906056,8.564708" />
      <line x1="-16.906056" y1="7.131099" x2="-16.906056" y2="8.564708" />
      <path d="M -16.906056,7.131099 C -16.831981,6.93325 -16.741604,6.756278 -16.634923,6.600183 C -16.529207,6.445018 -16.405877,6.312156 -16.293216,6.240642" />
      <path d="M -16.906056,8.564708 C -16.831981,8.366859 -16.741604,8.189887 -16.634923,8.033791 C -16.529207,7.878626 -16.405877,7.745764 -16.293216,7.674251" />
      <line x1="-16.293216" y1="6.240642" x2="-16.293216" y2="7.674251" />
      <path d="M -16.293216,6.240642 C -16.228818,6.205546 -16.041767,6.103606 -15.841804,5.994628" />
      <path d="M -16.293216,7.674251 C -16.227311,7.638334 -16.033181,7.532535 -15.827996,7.420712 C -15.621543,7.308197 -15.405271,7.190332 -15.250178,7.105808" />
      <path d="M -15.250178,7.105808 Q -15.608746,6.501907 -15.90175,5.866374" />
      <path d="M -15.90175,5.866374 C -16.064973,5.935432 -16.292582,6.031732 -16.509858,6.12366 C -16.725799,6.215023 -16.930105,6.301463 -16.999465,6.330809" />
      <path d="M -16.999465,6.330809 C -17.126515,6.374952 -17.311368,6.390783 -17.50444,6.379778 C -17.698866,6.368962 -17.901095,6.333167 -18.111127,6.272395" />
      <path d="M -18.111127,6.272395 Q -18.235579,5.978398 -18.347618,5.679854" />
      <line x1="-18.347618" y1="4.246245" x2="-18.347618" y2="5.679854" />
      <path d="M -18.347618,4.246245 C -18.233488,4.066731 -18.107775,3.910811 -17.970479,3.778483 C -17.834324,3.646882 -17.685602,3.540523 -17.56022,3.4922" />
      <path d="M -18.347618,5.679854 C -18.233488,5.50034 -18.107775,5.344419 -17.970479,5.212092 C -17.834324,5.080491 -17.685602,4.974132 -17.56022,4.925809" />
      <line x1="-17.56022" y1="3.4922" x2="-17.56022" y2="4.925809" />
      <path d="M -17.56022,3.4922 C -17.458902,3.460622 -17.096731,3.347742 -16.791839,3.252715" />
      <path d="M -17.56022,4.925809 C -17.488117,4.903336 -17.275731,4.837141 -17.051249,4.767176 C -16.82538,4.696778 -16.58877,4.623033 -16.419092,4.570148" />
      <path d="M -16.419092,4.570148 Q -16.643427,3.909461 -16.796895,3.230432" />
      <path d="M -16.796895,3.230432 C -16.971287,3.2666 -17.214471,3.317034 -17.446616,3.365179 C -17.677334,3.413029 -17.895621,3.4583 -17.969727,3.473669" />
      <path d="M -17.969727,3.473669 C -18.103452,3.492407 -18.287847,3.472266 -18.474654,3.424253 C -18.662828,3.376164 -18.853396,3.302103 -19.046359,3.202071" />
      <path d="M -19.046359,3.202071 Q -19.106488,2.890091 -19.153504,2.576052" />
      <line x1="-19.153504" y1="1.142443" x2="-19.153504" y2="2.576052" />
      <path d="M -19.153504,1.142443 C -19.003991,0.988614 -18.848089,0.860129 -18.685799,0.756987 C -18.524779,0.654336 -18.356753,0.578836 -18.223784,0.555681" />
      <path d="M -19.153504,2.576052 C -19.003991,2.422223 -18.848089,2.293737 -18.685799,2.190596 C -18.524779,2.087945 -18.356753,2.012444 -18.223784,1.98929" />
      <line x1="-18.223784" y1="0.555681" x2="-18.223784" y2="1.98929" />
      <path d="M -18.223784,0.555681 C -18.129325,0.545517 -17.811612,0.51133 -17.518969,0.479841" />
      <path d="M -18.223784,1.98929 C -18.148435,1.981182 -17.926487,1.9573 -17.6919,1.932057 C -17.455862,1.906659 -17.2086,1.880052 -17.031283,1.860972" />
      <path d="M -17.031283,1.860972 Q -17.112202,1.170547 -17.11985,0.475822" />
      <path d="M -17.11985,0.475822 C -17.298273,0.477619 -17.547076,0.480124 -17.784585,0.482515 C -18.020634,0.484891 -18.243965,0.48714 -18.319784,0.487903" />
      <path d="M -18.319784,0.487903 C -18.454708,0.48047 -18.631097,0.425181 -18.803992,0.342126 C -18.978209,0.258732 -19.149314,0.149436 -19.317309,0.01424" />
      <line x1="-19.317309" y1="-1.419369" x2="-19.317309" y2="0.01424" />
      <path d="M -19.317309,-1.419369 Q -19.310654,-1.736558 -19.290721,-2.053236" />
      <path d="M -19.317309,0.01424 Q -19.310654,-0.302949 -19.290721,-0.619627" />
      <line x1="-19.290721" y1="-2.053236" x2="-19.290721" y2="-0.619627" />
      <path d="M -19.290721,-2.053236 C -19.111945,-2.175083 -18.932237,-2.270873 -18.751598,-2.340607 C -18.572304,-2.410104 -18.391853,-2.451655 -18.256741,-2.448693" />
      <path d="M -19.290721,-0.619627 C -19.111945,-0.741474 -18.932237,-0.837265 -18.751598,-0.906998 C -18.572304,-0.976495 -18.391853,-1.018047 -18.256741,-1.015085" />
      <line x1="-18.256741" y1="-2.448693" x2="-18.256741" y2="-1.015085" />
      <path d="M -18.256741,-2.448693 C -18.195151,-2.443319 -18.034818,-2.429329 -17.850286,-2.413226 C -17.665109,-2.397068 -17.457641,-2.378965 -17.28006,-2.363469" />
      <path d="M -18.256741,-1.015085 C -18.181231,-1.008496 -17.958809,-0.989087 -17.723719,-0.968574 C -17.487176,-0.947933 -17.239385,-0.926311 -17.061688,-0.910805" />
      <line x1="-17.061688" y1="-2.322763" x2="-17.061688" y2="-0.910805" />
      <path d="M -17.061688,-0.910805 Q -16.995879,-1.602703 -16.857394,-2.284681" />
      <path d="M -16.857394,-2.284681 C -17.032542,-2.31733 -17.276778,-2.362857 -17.509928,-2.406318 C -17.741645,-2.449511 -17.960877,-2.490378 -18.035304,-2.504251" />
      <path d="M -18.035304,-2.504251 C -18.165904,-2.537552 -18.327065,-2.625726 -18.478969,-2.740423 C -18.632097,-2.855707 -18.776735,-2.995762 -18.912883,-3.160588" />
      <line x1="-18.912883" y1="-4.594197" x2="-18.912883" y2="-3.160588" />
      <path d="M -18.912883,-4.594197 Q -18.839716,-4.90361 -18.753651,-5.209961" />
      <path d="M -18.912883,-3.160588 Q -18.839716,-3.470001 -18.753651,-3.776352" />
      <line x1="-18.753651" y1="-5.209961" x2="-18.753651" y2="-3.776352" />
      <path d="M -18.753651,-5.209961 C -18.552932,-5.294838 -18.356775,-5.354011 -18.165181,-5.387481 C -17.974955,-5.420979 -17.789467,-5.426881 -17.657743,-5.397924" />
      <path d="M -18.753651,-3.776352 C -18.552932,-3.861229 -18.356775,-3.920402 -18.165181,-3.953872 C -17.974955,-3.987371 -17.789467,-3.993273 -17.657743,-3.964315" />
      <line x1="-17.657743" y1="-5.397924" x2="-17.657743" y2="-3.964315" />
      <path d="M -17.657743,-5.397924 C -17.585163,-5.376908 -17.371371,-5.315003 -17.145404,-5.249573 C -16.918041,-5.183739 -16.679865,-5.114774 -16.509064,-5.065317" />
      <path d="M -17.657743,-3.964315 C -17.585163,-3.943299 -17.371371,-3.881395 -17.145404,-3.815965 C -16.918041,-3.75013 -16.679865,-3.681165 -16.509064,-3.631708" />
      <line x1="-16.509064" y1="-5.065317" x2="-16.509064" y2="-3.631708" />
      <path d="M -16.509064,-5.065317 L -16.489899,-5.125561" />
      <path d="M -16.509064,-3.631708 Q -16.29922,-4.296751 -16.020272,-4.938064" />
      <path d="M -16.020272,-4.938064 C -16.184974,-5.003821 -16.414645,-5.095516 -16.63389,-5.183049 C -16.851788,-5.270044 -17.057945,-5.352352 -17.127933,-5.380295" />
      <path d="M -17.127933,-5.380295 C -17.248863,-5.4381 -17.388198,-5.555548 -17.512892,-5.697191 C -17.638662,-5.839646 -17.750911,-6.004727 -17.849638,-6.192435" />
      <line x1="-17.849638" y1="-7.626043" x2="-17.849638" y2="-6.192435" />
      <path d="M -17.849638,-7.626043 Q -17.712955,-7.915013 -17.564281,-8.198496" />
      <path d="M -17.849638,-6.192435 Q -17.712955,-6.481404 -17.564281,-6.764887" />
      <line x1="-17.564281" y1="-8.198496" x2="-17.564281" y2="-6.764887" />
      <path d="M -17.564281,-8.198496 C -17.349837,-8.242927 -17.145262,-8.263061 -16.950556,-8.258897 C -16.757186,-8.255025 -16.574254,-8.225036 -16.451312,-8.171269" />
      <path d="M -17.564281,-6.764887 C -17.349837,-6.809318 -17.145262,-6.829452 -16.950556,-6.825288 C -16.757186,-6.821417 -16.574254,-6.791427 -16.451312,-6.73766" />
      <line x1="-16.451312" y1="-8.171269" x2="-16.451312" y2="-6.73766" />
      <path d="M -16.451312,-8.171269 C -16.384633,-8.136686 -16.188225,-8.03482 -15.980632,-7.927152 C -15.771756,-7.818819 -15.552947,-7.705334 -15.396034,-7.623951" />
      <path d="M -16.451312,-6.73766 C -16.384633,-6.703077 -16.188225,-6.601211 -15.980632,-6.493543 C -15.771756,-6.38521 -15.552947,-6.271725 -15.396034,-6.190342" />
      <line x1="-15.396034" y1="-7.623951" x2="-15.396034" y2="-6.190342" />
      <path d="M -15.396034,-7.623951 L -15.294459,-7.800579" />
      <path d="M -15.396034,-6.190342 Q -15.050746,-6.801304 -14.642755,-7.375695" />
      <path d="M -14.642755,-7.375695 C -14.790269,-7.471868 -14.995971,-7.605978 -15.192336,-7.733999 C -15.387494,-7.861235 -15.572136,-7.981614 -15.634821,-8.022482" />
      <path d="M -15.634821,-8.022482 C -15.741129,-8.102425 -15.852934,-8.244339 -15.945313,-8.40713 C -16.038576,-8.570922 -16.11384,-8.754271 -16.171105,-8.957176" />
      <line x1="-16.171105" y1="-10.390785" x2="-16.171105" y2="-8.957176" />
      <path d="M -16.171105,-10.390785 Q -15.976502,-10.64748 -15.771305,-10.896489" />
      <path d="M -16.171105,-8.957176 Q -15.976502,-9.213871 -15.771305,-9.46288" />
      <line x1="-15.771305" y1="-10.896489" x2="-15.771305" y2="-9.46288" />
      <path d="M -15.771305,-10.896489 C -15.551914,-10.898655 -15.347297,-10.878925 -15.157452,-10.837299 C -14.968853,-10.796215 -14.795968,-10.731562 -14.686839,-10.655186" />
      <path d="M -15.771305,-9.46288 C -15.551914,-9.465047 -15.347297,-9.445317 -15.157452,-9.40369 C -14.968853,-9.362607 -14.795968,-9.297953 -14.686839,-9.221578" />
      <line x1="-14.686839" y1="-10.655186" x2="-14.686839" y2="-9.221578" />
      <path d="M -14.686839,-10.655186 C -14.628792,-10.608453 -14.457809,-10.470795 -14.277089,-10.325298 C -14.095251,-10.178901 -13.904766,-10.025542 -13.768166,-9.915566" />
      <path d="M -14.686839,-9.221578 C -14.628792,-9.174844 -14.457809,-9.037186 -14.277089,-8.891689 C -14.095251,-8.745292 -13.904766,-8.591934 -13.768166,-8.481957" />
      <line x1="-13.768166" y1="-9.915566" x2="-13.768166" y2="-8.481957" />
      <path d="M -13.768166,-9.915566 Q -13.637613,-10.064393 -13.502634,-10.209687" />
      <path d="M -13.768166,-8.481957 Q -13.30157,-9.013824 -12.78124,-9.497777" />
      <path d="M -12.78124,-9.497777 C -12.905526,-9.620429 -13.078838,-9.791463 -13.244283,-9.954733 C -13.408711,-10.116999 -13.56428,-10.270522 -13.617094,-10.322642" />
      <path d="M -13.617094,-10.322642 C -13.704429,-10.42145 -13.784126,-10.58202 -13.840408,-10.759293 C -13.897346,-10.937718 -13.932543,-11.131828 -13.946002,-11.341623" />
      <line x1="-13.946002" y1="-12.775232" x2="-13.946002" y2="-11.341623" />
      <path d="M -13.946002,-12.775232 Q -13.701445,-12.989144 -13.448127,-13.193484" />
      <path d="M -13.946002,-11.341623 Q -13.701445,-11.555535 -13.448127,-11.759875" />
      <line x1="-13.448127" y1="-13.193484" x2="-13.448127" y2="-11.759875" />
      <path d="M -13.448127,-13.193484 C -13.232772,-13.153297 -13.036489,-13.094512 -12.859276,-13.017126 C -12.683171,-12.940513 -12.52741,-12.843843 -12.436563,-12.747985" />
      <path d="M -13.448127,-11.759875 C -13.232772,-11.719689 -13.036489,-11.660903 -12.859276,-11.583517 C -12.683171,-11.506904 -12.52741,-11.410234 -12.436563,-11.314377" />
      <line x1="-12.436563" y1="-12.747985" x2="-12.436563" y2="-11.314377" />
      <path d="M -12.436563,-12.747985 C -12.389524,-12.691014 -12.250966,-12.523201 -12.104516,-12.34583 C -11.957162,-12.167364 -11.802801,-11.98041 -11.692104,-11.846341" />
      <path d="M -12.436563,-11.314377 C -12.389524,-11.257406 -12.250966,-11.089592 -12.104516,-10.912222 C -11.957162,-10.733755 -11.802801,-10.546801 -11.692104,-10.412733" />
      <line x1="-11.692104" y1="-11.846341" x2="-11.692104" y2="-10.412733" />
      <path d="M -11.692104,-11.846341 Q -11.438093,-12.038831 -11.175076,-12.220218" />
      <path d="M -11.692104,-10.412733 Q -11.123304,-10.843731 -10.511936,-11.217434" />
      <path d="M -10.511936,-11.217434 C -10.607906,-11.361543 -10.741733,-11.562499 -10.869485,-11.754331 C -10.996452,-11.944986 -11.116578,-12.125367 -11.157359,-12.186605" />
      <path d="M -11.294493,-14.30321 Q -11.294666,-14.485515 -11.265425,-14.681765" />
      <path d="M -11.157359,-12.186605 C -11.246857,-12.344103 -11.295224,-12.60595 -11.294493,-12.869601" />
      <path d="M -11.294493,-12.869601 Q -11.294666,-13.051906 -11.265425,-13.248157" />
      <line x1="-11.265425" y1="-14.681765" x2="-11.265425" y2="-13.248157" />
      <path d="M -11.265425,-14.681765 Q -10.980927,-14.844136 -10.689859,-14.995442" />
      <path d="M -11.265425,-13.248157 Q -10.980927,-13.410528 -10.689859,-13.561833" />
      <line x1="-10.689859" y1="-14.995442" x2="-10.689859" y2="-13.561833" />
      <path d="M -10.689859,-14.995442 C -10.487356,-14.914548 -10.307443,-14.819113 -10.150118,-14.709136 C -9.993716,-14.60013 -9.861455,-14.475401 -9.79261,-14.363986" />
      <path d="M -10.689859,-13.561833 C -10.487356,-13.480939 -10.307443,-13.385504 -10.150118,-13.275528 C -9.993716,-13.166521 -9.861455,-13.041792 -9.79261,-12.930377" />
      <line x1="-9.79261" y1="-14.363986" x2="-9.79261" y2="-12.930377" />
      <path d="M -9.79261,-14.363986 C -9.758504,-14.29911 -9.658043,-14.108011 -9.551861,-13.906029 C -9.445023,-13.702799 -9.333104,-13.489904 -9.252844,-13.337232" />
      <path d="M -9.79261,-12.930377 C -9.758504,-12.865501 -9.658043,-12.674402 -9.551861,-12.47242 C -9.445023,-12.26919 -9.333104,-12.056295 -9.252844,-11.903624" />
      <line x1="-9.252844" y1="-13.337232" x2="-9.252844" y2="-11.903624" />
      <path d="M -9.252844,-13.337232 Q -8.8279,-13.54226 -8.389417,-13.719878" />
      <path d="M -9.252844,-11.903624 Q -8.605125,-12.216108 -7.92775,-12.464261" />
      <path d="M -7.92775,-12.464261 C -7.991475,-12.623928 -8.080338,-12.846578 -8.165166,-13.05912 C -8.249474,-13.270357 -8.329239,-13.470212 -8.356318,-13.538061" />
      <path d="M -8.393527,-15.259984 C -8.392649,-15.499494 -8.339953,-15.763565 -8.239118,-16.032331" />
      <path d="M -8.356318,-13.538061 Q -8.393687,-13.658737 -8.393527,-13.826376" />
      <path d="M -8.393527,-13.826376 C -8.392649,-14.065885 -8.339953,-14.329956 -8.239118,-14.598723" />
      <line x1="-8.239118" y1="-16.032331" x2="-8.239118" y2="-14.598723" />
      <path d="M -8.239118,-16.032331 Q -7.926326,-16.136514 -7.609424,-16.228591" />
      <path d="M -8.239118,-14.598723 Q -7.926326,-14.702905 -7.609424,-14.794982" />
      <line x1="-7.609424" y1="-16.228591" x2="-7.609424" y2="-14.794982" />
      <path d="M -7.609424,-16.228591 C -7.428064,-16.110301 -7.271886,-15.982123 -7.14089,-15.844059 C -7.010594,-15.707122 -6.907249,-15.55944 -6.863223,-15.437029" />
      <path d="M -7.609424,-14.794982 C -7.428064,-14.676692 -7.271886,-14.548514 -7.14089,-14.41045 C -7.010594,-14.273513 -6.907249,-14.125831 -6.863223,-14.003421" />
      <line x1="-6.863223" y1="-15.437029" x2="-6.863223" y2="-14.003421" />
      <path d="M -6.863223,-15.437029 C -6.843448,-15.366904 -6.785197,-15.160343 -6.723629,-14.942019 C -6.661681,-14.722346 -6.596786,-14.492225 -6.550249,-14.327201" />
      <path d="M -6.863223,-14.003421 C -6.843448,-13.933295 -6.785197,-13.726735 -6.723629,-13.508411 C -6.661681,-13.288737 -6.596786,-13.058617 -6.550249,-12.893592" />
      <line x1="-6.550249" y1="-14.327201" x2="-6.550249" y2="-12.893592" />
      <path d="M -6.550249,-14.327201 Q -5.946927,-14.483342 -5.331503,-14.588516" />
      <path d="M -6.550249,-12.893592 Q -5.850129,-13.07477 -5.134478,-13.187213" />
      <path d="M -5.134478,-13.187213 C -5.163349,-13.355901 -5.20361,-13.59113 -5.242042,-13.815681 C -5.280239,-14.038852 -5.316377,-14.249998 -5.328646,-14.321681" />
      <path d="M -5.331503,-15.817174 C -5.331561,-15.948917 -5.296407,-16.112865 -5.237466,-16.276417 C -5.178511,-16.440718 -5.096348,-16.605791 -4.990978,-16.771638" />
      <path d="M -5.328646,-14.321681 Q -5.331509,-14.351057 -5.331503,-14.383566" />
      <path d="M -5.331503,-14.383566 C -5.331561,-14.515308 -5.296407,-14.679256 -5.237466,-14.842808 C -5.178511,-15.007109 -5.096348,-15.172183 -4.990978,-15.338029" />
      <line x1="-4.990978" y1="-16.771638" x2="-4.990978" y2="-15.338029" />
      <path d="M -4.990978,-16.771638 Q -4.662698,-16.813367 -4.332935,-16.842445" />
      <path d="M -4.990978,-15.338029 Q -4.662698,-15.379758 -4.332935,-15.408837" />
      <line x1="-4.332935" y1="-16.842445" x2="-4.332935" y2="-15.408837" />
      <path d="M -4.332935,-16.842445 C -4.180143,-16.691602 -4.054095,-16.53593 -3.954791,-16.375429 C -3.855935,-16.216168 -3.785736,-16.051579 -3.768333,-15.923184" />
      <path d="M -4.332935,-15.408837 C -4.180143,-15.257993 -4.054095,-15.102321 -3.954791,-14.941821 C -3.855935,-14.78256 -3.785736,-14.617971 -3.768333,-14.489576" />
      <line x1="-3.768333" y1="-15.923184" x2="-3.768333" y2="-14.489576" />
      <path d="M -3.768333,-15.923184 C -3.763697,-15.850681 -3.750041,-15.637115 -3.735608,-15.411387 C -3.721086,-15.184264 -3.705873,-14.946339 -3.694963,-14.775719" />
      <path d="M -3.768333,-14.489576 C -3.763697,-14.417072 -3.750041,-14.203507 -3.735608,-13.977778 C -3.721086,-13.750655 -3.705873,-13.512731 -3.694963,-13.34211" />
      <line x1="-3.694963" y1="-14.775719" x2="-3.694963" y2="-13.34211" />
      <path d="M -3.694963,-14.775719 Q -2.971106,-14.818172 -2.246477,-14.790302" />
      <path d="M -3.694963,-13.34211 Q -2.971106,-13.384563 -2.246477,-13.356693" />
      <line x1="-2.246477" y1="-14.790302" x2="-2.246477" y2="-13.356693" />
      <path d="M -2.246477,-14.790302 C -2.239313,-14.961105 -2.229322,-15.199283 -2.219785,-15.426648 C -2.210307,-15.652617 -2.20134,-15.866411 -2.198295,-15.938992" />
      <path d="M -2.246477,-13.356693 C -2.239313,-13.527496 -2.229322,-13.765674 -2.219785,-13.99304 C -2.210307,-14.219009 -2.20134,-14.432802 -2.198295,-14.505383" />
      <line x1="-2.198295" y1="-15.938992" x2="-2.198295" y2="-14.505383" />
      <path d="M -2.198295,-15.938992 C -2.183712,-16.067708 -2.11714,-16.233674 -2.0218,-16.394891 C -1.926039,-16.557355 -1.803433,-16.71553 -1.653984,-16.869417" />
      <path d="M -2.198295,-14.505383 C -2.183712,-14.6341 -2.11714,-14.800066 -2.0218,-14.961282 C -1.926039,-15.123746 -1.803433,-15.281921 -1.653984,-15.435808" />
      <line x1="-1.653984" y1="-16.869417" x2="-1.653984" y2="-15.435808" />
      <path d="M -1.653984,-16.869417 Q -1.323656,-16.846984 -0.994533,-16.811874" />
      <path d="M -1.653984,-15.435808 Q -1.323656,-15.413376 -0.994533,-15.378265" />
      <line x1="-0.994533" y1="-16.811874" x2="-0.994533" y2="-15.378265" />
      <path d="M -0.994533,-16.811874 C -0.883348,-16.644872 -0.796327,-16.478197 -0.73347,-16.311848 C -0.670678,-16.146369 -0.632894,-15.980229 -0.632971,-15.848732" />
      <path d="M -0.994533,-15.378265 C -0.883348,-15.211264 -0.796327,-15.044588 -0.73347,-14.87824 C -0.670678,-14.71276 -0.632894,-14.54662 -0.632971,-14.415123" />
      <path d="M -0.632971,-14.415123 L -0.634644,-14.36894" />
      <path d="M -0.634644,-14.36894 C -0.645337,-14.297026 -0.676836,-14.085199 -0.710128,-13.861308 C -0.743627,-13.636033 -0.778718,-13.400045 -0.803882,-13.230813" />
      <path d="M -0.632971,-14.640087 Q -0.001785,-14.546458 0.618018,-14.399371" />
      <path d="M -0.803882,-13.230813 Q -0.085922,-13.132804 0.618018,-12.965762" />
      <line x1="0.618018" y1="-14.399371" x2="0.618018" y2="-12.965762" />
      <path d="M 0.618018,-14.399371 C 0.660924,-14.565296 0.720756,-14.796672 0.777872,-15.017544 C 0.834637,-15.237059 0.888343,-15.444747 0.906576,-15.515255" />
      <path d="M 0.618018,-12.965762 C 0.660924,-13.131687 0.720756,-13.363063 0.777872,-13.583935 C 0.834637,-13.803451 0.888343,-14.011138 0.906576,-14.081647" />
      <line x1="0.906576" y1="-15.515255" x2="0.906576" y2="-14.081647" />
      <path d="M 0.906576,-15.515255 C 0.947907,-15.638525 1.047989,-15.788255 1.175253,-15.927785 C 1.303191,-16.068457 1.456522,-16.19975 1.635247,-16.321666" />
      <path d="M 0.906576,-14.081647 C 0.947907,-14.204916 1.047989,-14.354647 1.175253,-14.494177 C 1.303191,-14.634848 1.456522,-14.766141 1.635247,-14.888057" />
      <line x1="1.635247" y1="-16.321666" x2="1.635247" y2="-14.888057" />
      <path d="M 1.635247,-16.321666 Q 1.9541,-16.23599 2.269108,-16.138128" />
      <path d="M 1.635247,-14.888057 Q 1.9541,-14.802381 2.269108,-14.704519" />
      <line x1="2.269108" y1="-16.138128" x2="2.269108" y2="-14.704519" />
      <path d="M 2.269108,-16.138128 C 2.380495,-15.859896 2.439739,-15.583836 2.440778,-15.337332" />
      <path d="M 2.269108,-14.704519 C 2.380495,-14.426288 2.439739,-14.150227 2.440778,-13.903723" />
      <path d="M 2.440778,-13.903723 Q 2.440916,-13.755478 2.40955,-13.646451" />
      <path d="M 2.40955,-13.646451 C 2.383965,-13.578072 2.308602,-13.376655 2.228947,-13.163768 C 2.1488,-12.949564 2.064841,-12.725174 2.004632,-12.56426" />
      <path d="M 2.439297,-13.840924 Q 2.897414,-13.66731 3.341733,-13.464034" />
      <path d="M 2.004632,-12.56426 Q 2.687302,-12.3298 3.341733,-12.030425" />
      <line x1="3.341733" y1="-13.464034" x2="3.341733" y2="-12.030425" />
      <path d="M 3.341733,-13.464034 C 3.418626,-13.618288 3.52585,-13.833389 3.628206,-14.038725 C 3.729934,-14.242801 3.82618,-14.43588 3.858855,-14.501428" />
      <path d="M 3.341733,-12.030425 C 3.418626,-12.184679 3.52585,-12.39978 3.628206,-12.605117 C 3.729934,-12.809192 3.82618,-13.002271 3.858855,-13.06782" />
      <line x1="3.858855" y1="-14.501428" x2="3.858855" y2="-13.06782" />
      <path d="M 3.858855,-14.501428 C 3.925241,-14.614204 4.054736,-14.741569 4.208713,-14.8537 C 4.36359,-14.96682 4.54137,-15.065856 4.742054,-15.15081" />
      <path d="M 3.858855,-13.06782 C 3.925241,-13.180596 4.054736,-13.307961 4.208713,-13.420092 C 4.36359,-13.533211 4.54137,-13.632248 4.742054,-13.717201" />
      <line x1="4.742054" y1="-15.15081" x2="4.742054" y2="-13.717201" />
      <path d="M 4.742054,-15.15081 Q 5.036377,-15.005398 5.324374,-14.848791" />
      <path d="M 4.742054,-13.717201 Q 5.036377,-13.571789 5.324374,-13.415182" />
      <line x1="5.324374" y1="-14.848791" x2="5.324374" y2="-13.415182" />
      <path d="M 5.324374,-14.848791 Q 5.362497,-14.62628 5.362295,-14.420521" />
      <path d="M 5.324374,-13.415182 Q 5.362497,-13.192671 5.362295,-12.986912" />
      <path d="M 5.362295,-12.986912 C 5.362894,-12.741635 5.32007,-12.500409 5.23962,-12.351689" />
      <path d="M 5.23962,-12.351689 C 5.20019,-12.289644 5.084048,-12.106883 4.961292,-11.913715 C 4.837776,-11.719352 4.708387,-11.515747 4.615599,-11.369737" />
      <path d="M 5.26386,-12.401883 Q 5.543285,-12.218403 5.81316,-12.022583" />
      <path d="M 4.615599,-11.369737 Q 5.23503,-11.008426 5.81316,-10.588975" />
      <line x1="5.81316" y1="-12.022583" x2="5.81316" y2="-10.588975" />
      <path d="M 5.81316,-12.022583 C 5.920891,-12.158851 6.071117,-12.348872 6.214524,-12.530266 C 6.35705,-12.710545 6.491896,-12.881111 6.537675,-12.939017" />
      <path d="M 5.81316,-10.588975 C 5.920891,-10.725243 6.071117,-10.915263 6.214524,-11.096657 C 6.35705,-11.276937 6.491896,-11.447503 6.537675,-11.505408" />
      <line x1="6.537675" y1="-12.939017" x2="6.537675" y2="-11.505408" />
      <path d="M 6.537675,-12.939017 C 6.626399,-13.036682 6.780005,-13.136467 6.954391,-13.216609 C 7.129866,-13.297545 7.324817,-13.36027 7.539243,-13.404784" />
      <path d="M 6.537675,-11.505408 C 6.626399,-11.603073 6.780005,-11.702858 6.954391,-11.783 C 7.129866,-11.863937 7.324817,-11.926662 7.539243,-11.971175" />
      <line x1="7.539243" y1="-13.404784" x2="7.539243" y2="-11.971175" />
      <path d="M 7.539243,-13.404784 Q 7.796987,-13.205589 8.046183,-12.996648" />
      <path d="M 7.539243,-11.971175 Q 7.796987,-11.77198 8.046183,-11.563039" />
      <line x1="8.046183" y1="-12.996648" x2="8.046183" y2="-11.563039" />
      <path d="M 8.046183,-11.563039 C 8.037329,-11.35302 8.006398,-11.158244 7.953387,-10.978712 C 7.901006,-10.800345 7.824849,-10.638205 7.739701,-10.537661" />
      <path d="M 7.739701,-10.537661 C 7.688042,-10.48449 7.535875,-10.327868 7.375043,-10.162327 C 7.213217,-9.995763 7.043694,-9.821277 6.922126,-9.69615" />
      <path d="M 7.64363,-10.438777 Q 7.789797,-10.288429 7.931118,-10.134033" />
      <path d="M 6.922126,-9.69615 Q 7.452958,-9.22278 7.931118,-8.700424" />
      <line x1="7.931118" y1="-10.134033" x2="7.931118" y2="-8.700424" />
      <path d="M 7.931118,-10.134033 C 8.065277,-10.246736 8.252355,-10.403896 8.430941,-10.553921 C 8.608429,-10.703025 8.776355,-10.844095 8.833364,-10.891987" />
      <path d="M 7.931118,-8.700424 C 8.065277,-8.813127 8.252355,-8.970287 8.430941,-9.120312 C 8.608429,-9.269416 8.776355,-9.410486 8.833364,-9.458378" />
      <line x1="8.833364" y1="-10.891987" x2="8.833364" y2="-9.458378" />
      <path d="M 8.833364,-10.891987 C 8.940793,-10.970542 9.112222,-11.038662 9.299878,-11.083534 C 9.488767,-11.128974 9.692907,-11.152819 9.912297,-11.15507" />
      <path d="M 8.833364,-9.458378 C 8.940793,-9.536934 9.112222,-9.605054 9.299878,-9.649925 C 9.488767,-9.695365 9.692907,-9.71921 9.912297,-9.721461" />
      <line x1="9.912297" y1="-11.15507" x2="9.912297" y2="-9.721461" />
      <path d="M 9.912297,-11.15507 Q 10.122911,-10.910247 10.323102,-10.657527" />
      <path d="M 9.912297,-9.721461 Q 10.122911,-9.476639 10.323102,-9.223918" />
      <line x1="10.323102" y1="-10.657527" x2="10.323102" y2="-9.223918" />
      <path d="M 10.323102,-9.223918 C 10.270301,-9.019905 10.199076,-8.835082 10.109427,-8.669448 C 10.020639,-8.504833 9.911972,-8.360699 9.807441,-8.278634" />
      <path d="M 9.807441,-8.278634 C 9.745667,-8.236513 9.563706,-8.112442 9.371382,-7.981306 C 9.17787,-7.849359 8.975155,-7.711137 8.829783,-7.612015" />
      <path d="M 9.494315,-8.065128 L 9.608899,-7.8757" />
      <path d="M 8.829783,-7.612015 Q 9.250284,-7.045966 9.608899,-6.442091" />
      <line x1="9.608899" y1="-7.8757" x2="9.608899" y2="-6.442091" />
      <path d="M 9.608899,-7.8757 C 9.763992,-7.960223 9.980263,-8.078089 10.186717,-8.190603 C 10.391902,-8.302427 10.586032,-8.408225 10.651937,-8.444143" />
      <path d="M 9.608899,-6.442091 C 9.763992,-6.526615 9.980263,-6.64448 10.186717,-6.756995 C 10.391902,-6.868818 10.586032,-6.974617 10.651937,-7.010534" />
      <line x1="10.651937" y1="-8.444143" x2="10.651937" y2="-7.010534" />
      <path d="M 10.651937,-8.444143 C 10.773673,-8.500373 10.955906,-8.534039 11.149149,-8.541804 C 11.34372,-8.549886 11.548691,-8.533876 11.764063,-8.493772" />
      <path d="M 10.651937,-7.010534 C 10.773673,-7.066764 10.955906,-7.100431 11.149149,-7.108195 C 11.34372,-7.116278 11.548691,-7.100267 11.764063,-7.060163" />
      <line x1="11.764063" y1="-8.493772" x2="11.764063" y2="-7.060163" />
      <path d="M 11.764063,-8.493772 Q 11.918923,-8.213345 12.061915,-7.927191" />
      <path d="M 11.764063,-7.060163 Q 11.918923,-6.779736 12.061915,-6.493583" />
      <line x1="12.061915" y1="-7.927191" x2="12.061915" y2="-6.493583" />
      <path d="M 12.061915,-6.493583 C 11.967327,-6.303929 11.858725,-6.136624 11.736108,-5.991669 C 11.614549,-5.847546 11.477821,-5.727319 11.358186,-5.667092" />
      <path d="M 11.358186,-5.667092 C 11.288826,-5.637746 11.08452,-5.551306 10.868578,-5.459943 C 10.651302,-5.368015 10.423693,-5.271715 10.26047,-5.202657" />
      <path d="M 10.753416,-5.411218 L 10.777812,-5.34004" />
      <path d="M 10.26047,-5.202657 Q 10.553425,-4.567102 10.777812,-3.906431" />
      <line x1="10.777812" y1="-5.34004" x2="10.777812" y2="-3.906431" />
      <path d="M 10.777812,-5.34004 C 10.94749,-5.392924 11.184101,-5.46667 11.40997,-5.537067 C 11.634451,-5.607033 11.846838,-5.673228 11.918941,-5.695701" />
      <path d="M 10.777812,-3.906431 C 10.94749,-3.959316 11.184101,-4.033061 11.40997,-4.103459 C 11.634451,-4.173424 11.846838,-4.239619 11.918941,-4.262092" />
      <line x1="11.918941" y1="-5.695701" x2="11.918941" y2="-4.262092" />
      <path d="M 11.918941,-5.695701 C 12.05,-5.727303 12.235577,-5.725137 12.426496,-5.695477 C 12.618782,-5.665871 12.816193,-5.61066 13.01873,-5.529844" />
      <path d="M 11.918941,-4.262092 C 12.05,-4.293695 12.235577,-4.291529 12.426496,-4.261868 C 12.618782,-4.232263 12.816193,-4.177052 13.01873,-4.096235" />
      <line x1="13.01873" y1="-5.529844" x2="13.01873" y2="-4.096235" />
      <path d="M 13.01873,-5.529844 Q 13.111497,-5.225293 13.191435,-4.917421" />
      <path d="M 13.01873,-4.096235 Q 13.111497,-3.791684 13.191435,-3.483813" />
      <line x1="13.191435" y1="-4.917421" x2="13.191435" y2="-3.483813" />
      <path d="M 13.191435,-3.483813 C 13.058933,-3.316282 12.917399,-3.173345 12.766834,-3.055004 C 12.61748,-2.937274 12.458289,-2.845875 12.328448,-2.809952" />
      <path d="M 12.328448,-2.809952 C 12.254341,-2.794583 12.036055,-2.749312 11.805336,-2.701462 C 11.573192,-2.653317 11.330008,-2.602883 11.155615,-2.566715" />
      <path d="M 11.155615,-2.566715 Q 11.30903,-1.887675 11.390003,-1.197256" />
      <line x1="11.390003" y1="-2.615325" x2="11.390003" y2="-1.197256" />
      <path d="M 11.54572,-2.64762 C 11.72594,-2.667012 11.945004,-2.690584 12.143779,-2.711973 C 12.341723,-2.733273 12.517363,-2.752172 12.582505,-2.759181" />
      <path d="M 11.390003,-1.197256 C 11.56732,-1.216335 11.814583,-1.242942 12.05062,-1.26834 C 12.285208,-1.293583 12.507155,-1.317465 12.582505,-1.325573" />
      <line x1="12.582505" y1="-2.759181" x2="12.582505" y2="-1.325573" />
      <path d="M 12.582505,-2.759181 C 12.717522,-2.764863 12.898844,-2.726954 13.079623,-2.661082 C 13.261752,-2.595001 13.443522,-2.50285 13.624931,-2.384629" />
      <path d="M 12.582505,-1.325573 C 12.717522,-1.331254 12.898844,-1.293345 13.079623,-1.227473 C 13.261752,-1.161392 13.443522,-1.069241 13.624931,-0.95102" />
      <line x1="13.624931" y1="-2.384629" x2="13.624931" y2="-0.95102" />
      <path d="M 13.624931,-2.384629 Q 13.651806,-2.068422 13.665418,-1.751437" />
      <path d="M 13.624931,-0.95102 Q 13.651806,-0.634814 13.665418,-0.317829" />
      <line x1="13.665418" y1="-1.751437" x2="13.665418" y2="-0.317829" />
      <path d="M 13.665418,-0.317829 C 13.500427,-0.17928 13.331756,-0.066564 13.159407,0.02032 C 12.988373,0.106837 12.813236,0.165666 12.678504,0.175814" />
      <path d="M 12.678504,0.175814 C 12.602686,0.176577 12.379355,0.178826 12.143305,0.181202 C 11.905796,0.183593 11.656993,0.186098 11.478571,0.187895" />
      <path d="M 16.958464,-3.933618 L 16.958464,-2.500009" />
      <path d="M 21.657838,-3.883065 L 21.657838,-2.449457" />
      <path d="M 19.970474,7.603005 L 19.970474,8.973482" />
      <path d="M 15.271099,7.489321 L 15.271099,8.92293" />
      <path d="M 11.47936,0.187887 L 11.47936,0.331858" />
      <path d="M 7.017442,11.473062 L 7.017442,12.90667" />
      <path d="M 4.228015,12.626034 L 4.228015,14.059643" />
      <path d="M 1.236033,13.46865 L 1.236033,14.823119" />
      <path d="M -6.55877,13.555101 L -6.55877,14.879028" />
      <path d="M -9.567053,12.723059 L -9.567053,14.156668" />
      <path d="M -12.381324,11.611167 L -12.381324,13.044776" />
      <path d="M -11.294493,-14.30321 L -11.294493,-12.869601" />
      <path d="M -8.393527,-15.259984 L -8.393527,-13.826376" />
      <path d="M -5.331503,-15.817174 L -5.331503,-14.383566" />
      <path d="M -0.632971,-15.848732 L -0.632971,-14.415123" />
      <path d="M 2.440778,-15.337332 L 2.440778,-13.903723" />
      <path d="M 5.362295,-14.420521 L 5.362295,-12.986912" />
    </g>
  </g>
</svg>