<?xml version='1.0' encoding='utf-8'?>
<svg width="100.090001mm" height="37.846163mm" viewBox="-18.969904 -8.055175 43.499179 16.447967" version="1.1" xmlns="http://www.w3.org/2000/svg">
  <g transform="scale(1,-1)" stroke-linecap="round">
    <g fill="none" stroke="rgb(0,0,0)" stroke-width="0.039114058038767434" id="Visible">
      <path d="M 11.310943,1.436986 Q 11.376541,1.696059 11.451523,1.956099" />
      <path d="M 11.451523,1.956099 Q 11.599795,1.83702 11.781636,1.725595" />
      <path d="M 11.737272,1.596974 L 11.781636,1.725595" />
      <path d="M 11.781636,1.725595 Q 11.821866,1.699579 11.809197,1.666652" />
      <path d="M 11.809197,1.666652 C 11.79508,1.62813 11.732348,1.588907 11.658504,1.556951 C 11.582787,1.525156 11.499788,1.498038 11.409505,1.475597" />
      <path d="M 11.409505,1.475597 C 11.080389,1.360547 10.825281,1.130611 10.698119,0.918989" />
      <path d="M 10.698119,0.918989 L 10.668283,0.865701" />
      <path d="M 10.036836,-0.229831 Q 10.253772,0.178877 10.50313,0.595005" />
      <path d="M 10.50313,0.595005 L 10.668283,0.865701" />
      <path d="M 10.668283,0.865701 Q 10.943189,0.742879 11.248541,0.6321" />
      <path d="M 10.239322,-1.008085 Q 10.686535,-0.204506 11.248541,0.6321" />
      <path d="M 10.599277,-2.920128 Q 10.842113,-2.906645 11.028608,-2.873296" />
      <path d="M 11.248541,0.6321 C 11.537477,0.654787 11.836513,0.69139 12.109892,0.74076 C 12.382341,0.789971 12.628193,0.852449 12.783383,0.922501" />
      <path d="M 11.028608,-2.873296 Q 11.699337,-1.048601 12.783383,0.922501" />
      <path d="M 11.028608,-2.873296 C 11.141882,-2.842451 11.267737,-2.820279 11.406176,-2.80678 C 11.542161,-2.794789 11.690555,-2.801853 11.752834,-2.841224" />
      <path d="M 12.783383,0.922501 C 12.855682,0.969001 12.948284,1.009602 13.061187,1.044303 C 13.173376,1.077231 13.316239,1.094736 13.413119,1.068792" />
      <path d="M 11.752834,-2.841224 Q 12.406241,-0.955478 13.413119,1.068792" />
      <path d="M 11.752834,-2.841224 L 11.858622,-2.904994" />
      <path d="M 13.413119,1.068792 Q 13.690731,0.99525 13.987822,0.935035" />
      <path d="M 13.205143,-0.635394 Q 13.573526,0.138451 13.987822,0.935035" />
      <path d="M 13.987822,0.935035 C 14.116563,0.909019 14.132007,0.829439 14.092284,0.764044" />
      <path d="M 14.092284,0.764044 Q 14.053658,0.700291 13.978788,0.644281" />
      <path d="M 11.361517,-3.73144 Q 11.292791,-3.845568 11.265702,-3.958753" />
      <path d="M 13.978788,0.644281 Q 13.961488,0.624212 13.948247,0.602322" />
      <path d="M 13.948247,0.602322 C 13.840989,0.421881 13.930827,0.172203 14.101058,-0.031797" />
      <path d="M 11.265702,-3.958753 Q 12.511082,-2.113558 14.101058,-0.031797" />
      <path d="M 11.265702,-3.958753 Q 11.571887,-4.069165 11.905124,-4.166306" />
      <path d="M 14.101058,-0.031797 Q 14.493025,-0.083313 14.896271,-0.118325" />
      <path d="M 11.905124,-4.166306 Q 13.260105,-2.267097 14.896271,-0.118325" />
      <path d="M 11.905124,-4.166306 C 12.186342,-4.131443 12.47388,-4.082313 12.732493,-4.021582 C 12.990224,-3.961048 13.217962,-3.888456 13.353529,-3.812195" />
      <path d="M 14.896271,-0.118325 C 15.32297,0.029966 15.739781,0.241229 15.853125,0.424184" />
      <path d="M 15.853125,0.424184 L 15.861617,0.439409" />
      <path d="M 13.353529,-3.812195 Q 14.030097,-2.640216 14.765336,-1.397877" />
      <path d="M 14.765336,-1.397877 Q 15.194747,-0.672298 15.644171,0.077281" />
      <path d="M 15.644171,0.077281 L 15.843891,0.409928" />
      <path d="M 13.353529,-3.812195 C 13.412979,-3.762882 13.494192,-3.718569 13.59717,-3.679256 C 13.699911,-3.641739 13.837276,-3.618249 13.940542,-3.639919" />
      <path d="M 15.861617,0.439409 Q 15.867416,0.486046 15.893305,0.532374" />
      <path d="M 15.893305,0.532374 C 15.914471,0.572208 15.952787,0.608526 16.008251,0.64133 C 16.063927,0.672532 16.141579,0.693881 16.223686,0.691749" />
      <path d="M 13.940542,-3.639919 Q 15.01584,-1.569331 16.223686,0.691749" />
      <path d="M 13.940542,-3.639919 Q 14.236237,-3.701218 14.547736,-3.748435" />
      <path d="M 16.223686,0.691749 Q 16.556251,0.68345 16.888987,0.69058" />
      <path d="M 14.547736,-3.748435 Q 15.68021,-1.626598 16.888987,0.69058" />
      <path d="M 14.547736,-3.748435 C 14.671528,-3.766994 14.713968,-3.835734 14.700998,-3.897971" />
      <path d="M 16.888987,0.69058 C 17.00546,0.693309 17.106281,0.649288 17.161057,0.598193 C 17.21779,0.546232 17.23873,0.490878 17.245472,0.436977" />
      <path d="M 14.616518,-4.037913 Q 15.03614,-3.343472 15.461886,-2.625668" />
      <path d="M 15.461886,-2.625668 Q 16.340631,-1.144112 17.245472,0.436977" />
      <path d="M 14.616518,-4.037913 C 14.513241,-4.223165 14.677085,-4.494024 14.91891,-4.704922" />
      <path d="M 17.245472,0.436977 C 17.290072,0.345186 17.42242,0.241555 17.59456,0.143968 C 17.7673,0.046056 17.978384,-0.046055 18.19847,-0.124128" />
      <path d="M 14.91891,-4.704922 Q 16.557681,-2.551339 18.19847,-0.124128" />
      <path d="M 14.91891,-4.704922 Q 15.322418,-4.739451 15.732725,-4.757088" />
      <path d="M 18.19847,-0.124128 Q 18.602473,-0.090535 18.995563,-0.040399" />
      <path d="M 15.732725,-4.757088 Q 17.398736,-2.534859 18.995563,-0.040399" />
      <path d="M 15.732725,-4.757088 C 16.081184,-4.606802 16.404499,-4.408027 16.5132,-4.231575" />
      <path d="M 18.995563,-0.040399 Q 19.055672,0.029672 19.100727,0.103676" />
      <path d="M 19.100727,0.103676 C 19.213415,0.288354 19.250548,0.494016 19.13275,0.635224" />
      <path d="M 16.70176,-3.919742 Q 16.760795,-3.89715 16.835898,-3.895107" />
      <path d="M 19.13275,0.635224 C 19.051508,0.699728 18.981868,0.778933 19.011422,0.852714" />
      <path d="M 19.011422,0.852714 Q 19.032816,0.904166 19.130135,0.925998" />
      <path d="M 16.835898,-3.895107 Q 17.183761,-3.229097 17.521369,-2.547242" />
      <path d="M 19.042298,0.723913 L 19.130135,0.925998" />
      <path d="M 16.835898,-3.895107 Q 17.168783,-3.889194 17.497712,-3.867934" />
      <path d="M 19.130135,0.925998 Q 19.428543,0.985166 19.707767,1.05773" />
      <path d="M 17.497712,-3.867934 Q 18.692077,-1.497299 19.707767,1.05773" />
      <path d="M 17.497712,-3.867934 C 17.612789,-3.86026 17.724808,-3.899736 17.792937,-3.948206 C 17.863243,-3.997453 17.898869,-4.0516 17.919988,-4.104906" />
      <path d="M 19.707767,1.05773 C 19.805216,1.083332 19.947687,1.065325 20.059145,1.032005 C 20.171278,0.996907 20.26298,0.955983 20.33425,0.909231" />
      <path d="M 17.919988,-4.104906 Q 19.239635,-1.698553 20.33425,0.909231" />
      <path d="M 17.919988,-4.104906 C 17.988884,-4.194273 18.148193,-4.291675 18.34545,-4.381373 C 18.54339,-4.471369 18.777904,-4.553963 19.017614,-4.622218" />
      <path d="M 20.33425,0.909231 C 20.487887,0.838636 20.732351,0.775296 21.003703,0.725129 C 21.275982,0.674801 21.574198,0.637148 21.862622,0.613446" />
      <path d="M 19.017614,-4.622218 Q 20.610668,-2.123071 21.862622,0.613446" />
      <path d="M 19.017614,-4.622218 Q 19.410325,-4.57161 19.78776,-4.505018" />
      <path d="M 21.862622,0.613446 Q 22.170408,0.723147 22.448014,0.844998" />
      <path d="M 19.78776,-4.505018 Q 21.318394,-1.940988 22.448014,0.844998" />
      <path d="M 22.448014,0.844998 C 22.33677,1.072637 22.07462,1.330894 21.720283,1.457476" />
      <path d="M 21.720283,1.457476 C 21.620487,1.482564 21.530384,1.513518 21.449972,1.550338 C 21.372375,1.587192 21.312899,1.633294 21.323467,1.673992" />
      <path d="M 21.323467,1.673992 Q 21.328203,1.693086 21.353684,1.708773" />
      <path d="M 21.334428,1.631853 L 21.353684,1.708773" />
      <path d="M 21.353684,1.708773 Q 21.537978,1.819554 21.688872,1.938108" />
      <path d="M 21.596221,1.49346 L 21.688872,1.938108" />
      <path d="M 20.438487,-3.372157 C 20.611562,-3.394436 20.754888,-3.449561 20.864817,-3.503798" />
      <path d="M 21.688872,1.938108 C 21.741186,1.979724 21.887132,1.992556 22.025407,1.985938 C 22.166493,1.977916 22.297187,1.960771 22.417488,1.934503" />
      <path d="M 20.864817,-3.503798 Q 21.389681,-2.110572 21.791322,-0.681656" />
      <path d="M 22.246078,1.122179 Q 22.336576,1.526953 22.417488,1.934503" />
      <path d="M 20.864817,-3.503798 C 21.036457,-3.567446 21.296466,-3.620013 21.579685,-3.658336 C 21.863869,-3.696781 22.170453,-3.721518 22.463568,-3.7328" />
      <path d="M 22.417488,1.934503 C 22.638995,1.904021 22.930071,1.897943 23.227926,1.908639 C 23.526787,1.91938 23.832228,1.946273 24.111708,1.983295" />
      <path d="M 22.463568,-3.7328 Q 23.584049,-0.943508 24.111708,1.983295" />
      <path d="M 22.463568,-3.7328 Q 22.740256,-3.610617 22.983686,-3.477639" />
      <path d="M 24.111708,1.983295 Q 24.240805,2.139709 24.328543,2.300625" />
      <path d="M 22.983686,-3.477639 Q 23.968812,-0.64461 24.328543,2.300625" />
      <path d="M 24.328543,2.300625 C 24.13484,2.389134 23.905884,2.474175 23.662052,2.543967 C 23.419029,2.613516 23.160511,2.66724 22.930888,2.685846" />
      <path d="M 22.930888,2.685846 C 22.795601,2.687595 22.662763,2.699014 22.532373,2.720104 C 22.406029,2.741833 22.295914,2.781187 22.298245,2.826962" />
      <path d="M 22.298245,2.826962 L 22.298537,2.830329" />
      <path d="M 22.298345,2.823562 L 22.298537,2.830329" />
      <path d="M 22.298537,2.830329 Q 22.309637,2.901093 22.309724,2.972054" />
      <path d="M 22.309724,2.972054 Q 22.309794,3.034006 22.301467,3.095818" />
      <path d="M 22.301467,3.095818 L 22.301256,3.098713" />
      <path d="M 22.301256,3.098713 C 22.299172,3.144595 22.410069,3.183736 22.53706,3.205101 C 22.668106,3.225811 22.801413,3.236802 22.936983,3.238073" />
      <path d="M 22.958632,2.683439 Q 22.950452,2.960645 22.936983,3.238073" />
      <path d="M 23.335584,-2.396619 C 23.6736,-2.375956 24.023313,-2.331354 24.333433,-2.274987" />
      <path d="M 22.936983,3.238073 C 23.167007,3.25587 23.426701,3.308684 23.67125,3.377376 C 23.916613,3.446308 24.147437,3.530541 24.343086,3.618367" />
      <path d="M 24.333433,-2.274987 Q 24.509752,-0.780821 24.509717,0.713553" />
      <path d="M 24.509717,0.713553 Q 24.509684,2.165862 24.343086,3.618367" />
      <path d="M 24.333433,-2.274987 Q 24.419959,-2.113968 24.464157,-1.950235" />
      <path d="M 24.343086,3.618367 Q 24.258904,3.779584 24.133263,3.936446" />
      <path d="M 24.464157,-1.950235 Q 24.509073,-1.194071 24.509382,-0.439712" />
      <path d="M 24.133263,3.936446 C 23.854612,3.974449 23.549776,4.002415 23.251164,4.014205 C 22.953556,4.025948 22.662357,4.020893 22.440187,3.991191" />
      <path d="M 22.440187,3.991191 C 22.31931,3.965347 22.188243,3.948662 22.046985,3.941136 C 21.908569,3.935004 21.762913,3.948349 21.71152,3.990147" />
      <path d="M 21.71152,3.990147 Q 21.563248,4.109227 21.381407,4.220651" />
      <path d="M 21.381407,4.220651 Q 21.35666,4.236176 21.352101,4.254949" />
      <path d="M 21.352101,4.254949 C 21.341729,4.29571 21.402105,4.341773 21.480613,4.378471 C 21.561961,4.41513 21.652936,4.445856 21.753537,4.470649" />
      <path d="M 21.901614,3.942333 Q 21.829933,4.206911 21.753537,4.470649" />
      <path d="M 21.753537,4.470649 C 22.110655,4.595982 22.378495,4.853307 22.494759,5.080546" />
      <path d="M 22.894515,4.019662 Q 22.705274,4.552538 22.494759,5.080546" />
      <path d="M 22.494759,5.080546 Q 22.219854,5.203368 21.914501,5.314146" />
      <path d="M 21.914501,5.314146 C 21.625565,5.29146 21.326529,5.254856 21.053151,5.205487 C 20.780702,5.156276 20.534849,5.093797 20.37966,5.023746" />
      <path d="M 20.37966,5.023746 C 20.30736,4.977246 20.214759,4.936645 20.101855,4.901943 C 19.989666,4.869016 19.846804,4.85151 19.749923,4.877455" />
      <path d="M 19.749923,4.877455 Q 19.472312,4.950997 19.175221,5.011211" />
      <path d="M 19.175221,5.011211 Q 19.07954,5.033056 19.058644,5.083735" />
      <path d="M 19.058644,5.083735 C 19.029343,5.157836 19.101178,5.237442 19.184254,5.301965" />
      <path d="M 19.342358,4.975944 L 19.184254,5.301965" />
      <path d="M 19.184254,5.301965 C 19.307951,5.44612 19.271014,5.657939 19.15626,5.84656" />
      <path d="M 19.15626,5.84656 Q 19.115376,5.913957 19.061985,5.978043" />
      <path d="M 19.735435,4.881281 L 19.712483,4.919922" />
      <path d="M 19.061985,5.978043 Q 18.670017,6.02956 18.266771,6.064571" />
      <path d="M 18.266771,6.064571 C 18.044971,5.987274 17.831862,5.89591 17.656967,5.798609 C 17.48268,5.70163 17.34805,5.598468 17.301425,5.506838" />
      <path d="M 17.301425,5.506838 C 17.293494,5.452963 17.271332,5.397684 17.213455,5.345925 C 17.157553,5.295024 17.055765,5.251359 16.939356,5.254498" />
      <path d="M 16.939356,5.254498 Q 16.606791,5.262797 16.274055,5.255667" />
      <path d="M 16.274055,5.255667 C 16.193164,5.253858 16.117003,5.27479 16.062259,5.305439 C 16.007717,5.337654 15.970022,5.373413 15.949175,5.412717" />
      <path d="M 15.949175,5.412717 Q 15.922442,5.460876 15.917571,5.50927" />
      <path d="M 16.025568,5.328859 L 15.917571,5.50927" />
      <path d="M 15.917571,5.50927 L 15.907119,5.528392" />
      <path d="M 15.907119,5.528392 C 15.794087,5.71099 15.385059,5.921603 14.964573,6.070375" />
      <path d="M 14.964573,6.070375 Q 14.56057,6.036782 14.16748,5.986645" />
      <path d="M 14.16748,5.986645 C 13.991301,5.781604 13.895775,5.529579 14.003346,5.348601" />
      <path d="M 14.003346,5.348601 L 14.030293,5.311023" />
      <path d="M 14.154882,5.101986 L 14.030293,5.311023" />
      <path d="M 14.030293,5.311023 Q 14.10173,5.25631 14.139175,5.194433" />
      <path d="M 14.139175,5.194433 C 14.179761,5.128043 14.164651,5.046341 14.032908,5.020249" />
      <path d="M 14.032908,5.020249 Q 13.734499,4.961081 13.455275,4.888517" />
      <path d="M 13.455275,4.888517 C 13.357826,4.862914 13.215356,4.880921 13.103897,4.914242 C 12.991764,4.949339 12.900062,4.990264 12.828792,5.037016" />
      <path d="M 12.828792,5.037016 C 12.675155,5.10761 12.430691,5.170951 12.159339,5.221117 C 11.887061,5.271446 11.588844,5.309099 11.30042,5.3328" />
      <path d="M 11.30042,5.3328 Q 10.992634,5.223099 10.715029,5.101248" />
      <path d="M 10.715029,5.101248 Q 10.731925,5.066927 10.752878,5.032379" />
      <path d="M 10.752878,5.032379 C 10.87797,4.825051 11.124203,4.602013 11.44276,4.48877" />
      <path d="M 11.61029,4.108781 Q 11.524627,4.299629 11.44276,4.48877" />
      <path d="M 11.44276,4.48877 C 11.532004,4.46614 11.613972,4.438921 11.688665,4.407113 C 11.76153,4.375145 11.823407,4.336056 11.837741,4.297659" />
      <path d="M 11.837741,4.297659 Q 11.850971,4.26392 11.809358,4.237474" />
      <path d="M 11.809358,4.237474 Q 11.625065,4.126693 11.47417,4.008139" />
      <path d="M 11.47417,4.008139 C 11.421856,3.966523 11.275911,3.953691 11.137636,3.960309 C 10.996549,3.96833 10.865855,3.985475 10.745554,4.011744" />
      <path d="M 10.745554,4.011744 C 10.524048,4.042226 10.232972,4.048303 9.935116,4.037608 C 9.636256,4.026867 9.330815,3.999974 9.051335,3.962952" />
      <path d="M 9.051335,3.962952 Q 8.922237,3.806537 8.8345,3.645622" />
      <path d="M 8.900589,3.36445 Q 8.865258,3.505446 8.8345,3.645622" />
      <path d="M 8.8345,3.645622 C 9.028203,3.557113 9.257158,3.472072 9.50099,3.40228 C 9.744013,3.332731 10.002532,3.279006 10.232154,3.260401" />
      <path d="M 10.232402,3.257592 L 10.232154,3.260401" />
      <path d="M 10.232154,3.260401 C 10.366309,3.258644 10.498137,3.247403 10.627639,3.226678 C 10.753201,3.205313 10.863673,3.166756 10.86478,3.121434" />
      <path d="M 10.86478,3.121434 L 10.864506,3.115917" />
      <path d="M 10.864506,3.115917 Q 10.853238,3.044086 10.853319,2.972054" />
      <path d="M 10.853319,2.972054 Q 10.853393,2.911172 10.861576,2.850429" />
      <path d="M 10.861265,2.841313 L 10.861576,2.850429" />
      <path d="M 10.861576,2.850429 L 10.861775,2.845821" />
      <path d="M 10.861775,2.845821 C 10.861108,2.800306 10.749925,2.761802 10.623561,2.740727 C 10.493227,2.720305 10.360727,2.709454 10.226059,2.708174" />
      <path d="M 10.226059,2.708174 C 9.996035,2.690376 9.736341,2.637563 9.491792,2.56887 C 9.246429,2.499938 9.015606,2.415705 8.819957,2.32788" />
      <path d="M 8.764752,2.033616 Q 8.789587,2.180751 8.819957,2.32788" />
      <path d="M 8.819957,2.32788 Q 8.904139,2.166663 9.029779,2.0098" />
      <path d="M 9.029179,2.00784 L 9.029779,2.0098" />
      <path d="M 9.029779,2.0098 C 9.308431,1.971798 9.613267,1.943832 9.911878,1.932041 C 10.209486,1.920299 10.500685,1.925353 10.722856,1.955056" />
      <path d="M 10.647941,1.694629 L 10.722856,1.955056" />
      <path d="M 10.722856,1.955056 C 10.843732,1.9809 10.974799,1.997585 11.116057,2.005111 C 11.254473,2.011242 11.40013,1.997898 11.451523,1.956099" />
      <path d="M 8.12363,0.769514 L 8.118147,0.797759" />
      <path d="M 8.118147,0.797759 Q 8.214746,0.93938 8.290577,1.083001" />
      <path d="M 8.347556,0.689928 L 8.290577,1.083001" />
      <path d="M 8.290577,1.083001 C 8.320094,1.131563 8.538145,1.138257 8.642551,1.137126" />
      <path d="M 8.714161,0.605415 Q 8.681552,0.871158 8.642551,1.137126" />
      <path d="M 8.642551,1.137126 C 9.271643,1.134439 10.013919,1.218208 10.625853,1.322105" />
      <path d="M 10.675384,0.881352 Q 10.653395,1.101694 10.625853,1.322105" />
      <path d="M 10.625853,1.322105 Q 10.685995,1.497863 10.719703,1.674742" />
      <path d="M 10.753851,1.001707 Q 10.743278,1.338298 10.719703,1.674742" />
      <path d="M 10.719703,1.674742 C 10.176103,1.827611 9.494476,1.971725 8.878002,2.021824" />
      <path d="M 8.878002,2.021824 C 8.77533,2.02947 8.565665,2.05429 8.562367,2.104243" />
      <path d="M 8.562367,2.104243 L 8.562466,2.123908" />
      <path d="M 8.562466,2.123908 Q 8.562486,2.260845 8.543917,2.397574" />
      <path d="M 8.543917,2.397574 L 8.543885,2.399568" />
      <path d="M 8.543885,2.399568 C 8.546494,2.448315 8.748549,2.476641 8.848793,2.486207" />
      <path d="M 8.84018,2.336894 L 8.848793,2.486207" />
      <path d="M 8.848793,2.486207 C 9.458192,2.548586 10.120844,2.706164 10.64454,2.869723" />
      <path d="M 10.629151,2.7417 L 10.64454,2.869723" />
      <path d="M 10.64454,2.869723 Q 10.588638,3.045704 10.506476,3.220036" />
      <path d="M 10.506476,3.220036 C 9.88225,3.311553 9.130378,3.380356 8.502416,3.365078" />
      <path d="M 8.502416,3.365078 C 8.398284,3.361859 8.179665,3.364179 8.144081,3.412089" />
      <path d="M 8.144081,3.412089 Q 8.050289,3.554011 7.936008,3.69352" />
      <path d="M 7.936008,3.69352 Q 7.929832,3.701937 7.931913,3.710374" />
      <path d="M 7.931913,3.710374 C 7.942113,3.752717 8.091787,3.793044 8.173009,3.810621" />
      <path d="M 8.09129,3.489474 L 8.173009,3.810621" />
      <path d="M 8.173009,3.810621 C 8.721186,3.933814 9.259054,4.154462 9.658824,4.366536" />
      <path d="M 9.535572,4.014237 L 9.658824,4.366536" />
      <path d="M 9.658824,4.366536 Q 9.490688,4.530747 9.298255,4.690654" />
      <path d="M 9.298255,4.690654 C 8.635943,4.714581 7.865065,4.703385 7.268409,4.623771" />
      <path d="M 7.268409,4.623771 C 7.169913,4.609906 6.957239,4.589568 6.891793,4.63217" />
      <path d="M 6.891793,4.63217 Q 6.709149,4.759569 6.508278,4.882521" />
      <path d="M 6.508278,4.882521 Q 6.485268,4.89831 6.493627,4.917115" />
      <path d="M 6.493627,4.917115 C 6.508951,4.955456 6.60374,4.998347 6.661253,5.02011" />
      <path d="M 6.584664,4.835192 L 6.661253,5.02011" />
      <path d="M 6.661253,5.02011 C 7.110849,5.195722 7.487281,5.464404 7.73588,5.710541" />
      <path d="M 7.143735,4.610482 Q 7.450624,5.164563 7.73588,5.710541" />
      <path d="M 7.73588,5.710541 Q 7.466968,5.851791 7.177378,5.986374" />
      <path d="M 7.177378,5.986374 C 6.522115,5.941081 5.784765,5.850649 5.260077,5.712124" />
      <path d="M 5.260077,5.712124 C 5.17393,5.688559 4.981693,5.646949 4.890846,5.68134" />
      <path d="M 4.890846,5.68134 Q 4.631796,5.785534 4.358024,5.88355" />
      <path d="M 4.358024,5.88355 C 4.317851,5.898679 4.314063,5.922722 4.326976,5.947715" />
      <path d="M 4.326976,5.947715 C 4.343294,5.97927 4.385898,6.012315 4.416548,6.032251" />
      <path d="M 4.341854,5.891221 L 4.416548,6.032251" />
      <path d="M 4.416548,6.032251 C 4.618225,6.168065 4.7692,6.338222 4.872163,6.510285" />
      <path d="M 4.872163,6.510285 Q 4.96221,6.662542 5.006753,6.810145" />
      <path d="M 5.006753,6.810145 Q 4.65539,6.918808 4.288379,7.018896" />
      <path d="M 4.288379,7.018896 C 3.684821,6.907469 3.031248,6.743964 2.614284,6.555969" />
      <path d="M 2.614284,6.555969 C 2.546356,6.524309 2.387658,6.464262 2.277601,6.488099" />
      <path d="M 2.277601,6.488099 Q 1.959799,6.561987 1.631783,6.628388" />
      <path d="M 1.631783,6.628388 C 1.536456,6.649057 1.554127,6.716516 1.579783,6.759888" />
      <path d="M 1.579783,6.759888 L 1.591867,6.778066" />
      <path d="M 1.570434,6.741944 L 1.591867,6.778066" />
      <path d="M 1.591867,6.778066 L 1.61922,6.820202" />
      <path d="M 1.61922,6.820202 C 1.759796,7.055356 1.745135,7.342553 1.657429,7.590411" />
      <path d="M 1.657429,7.590411 Q 1.247561,7.659083 0.82814,7.717855" />
      <path d="M 0.82814,7.717855 C 0.317417,7.547888 -0.207839,7.322453 -0.488663,7.097798" />
      <path d="M -0.488663,7.097798 C -0.533742,7.060202 -0.648087,6.98581 -0.769855,6.997467" />
      <path d="M -0.769855,6.997467 Q -1.124751,7.036015 -1.484657,7.066275" />
      <path d="M -1.484657,7.066275 C -1.606351,7.078054 -1.623125,7.165067 -1.620292,7.206731" />
      <path d="M -1.620292,7.206731 C -1.613558,7.45777 -1.823479,7.753975 -2.083842,7.998167" />
      <path d="M -2.083842,7.998167 Q -2.524283,8.022167 -2.967532,8.035618" />
      <path d="M -2.967532,8.035618 C -3.331262,7.829577 -3.674715,7.574491 -3.816446,7.338304" />
      <path d="M -3.816446,7.338304 L -3.837304,7.300687" />
      <path d="M -3.855573,7.269943 L -3.837304,7.300687" />
      <path d="M -3.837304,7.300687 L -3.845335,7.285585" />
      <path d="M -3.845335,7.285585 C -3.870968,7.242272 -3.932615,7.175826 -4.043841,7.174733" />
      <path d="M -4.043841,7.174733 Q -4.411646,7.175313 -4.778915,7.167371" />
      <path d="M -4.778915,7.167371 C -4.904102,7.166179 -4.976741,7.248495 -5.001026,7.289031" />
      <path d="M -5.001026,7.289031 C -5.157342,7.532212 -5.552226,7.796643 -5.962097,8.005624" />
      <path d="M -5.962097,8.005624 Q -6.403097,7.983316 -6.839966,7.95053" />
      <path d="M -6.839966,7.95053 Q -6.973372,7.806353 -7.068838,7.649133" />
      <path d="M -7.068838,7.649133 C -7.170024,7.480368 -7.227287,7.305309 -7.203435,7.15081" />
      <path d="M -7.275286,7.018429 L -7.203435,7.15081" />
      <path d="M -7.203435,7.15081 Q -7.194281,7.115925 -7.214218,7.069221" />
      <path d="M -7.214218,7.069221 Q -7.234223,7.022138 -7.321241,7.007816" />
      <path d="M -7.321241,7.007816 Q -7.67689,6.970389 -8.026493,6.924785" />
      <path d="M -8.026493,6.924785 C -8.146642,6.910704 -8.270195,6.982713 -8.319944,7.01936" />
      <path d="M -8.319944,7.01936 C -8.628658,7.23811 -9.181593,7.452746 -9.713041,7.612274" />
      <path d="M -9.713041,7.612274 Q -10.124545,7.545179 -10.525263,7.468389" />
      <path d="M -11.124627,6.352279 Q -10.828918,6.912909 -10.525263,7.468389" />
      <path d="M -10.525263,7.468389 C -10.585223,7.204094 -10.557168,6.896475 -10.357658,6.658379" />
      <path d="M -10.43316,6.495588 L -10.357658,6.658379" />
      <path d="M -10.357658,6.658379 C -10.333863,6.631413 -10.302774,6.583657 -10.31914,6.547404" />
      <path d="M -10.31914,6.547404 Q -10.329218,6.521269 -10.378707,6.508091" />
      <path d="M -10.378707,6.508091 Q -10.697962,6.435207 -11.006074,6.355049" />
      <path d="M -11.006074,6.355049 C -11.112996,6.329039 -11.279044,6.385834 -11.350866,6.416094" />
      <path d="M -11.350866,6.416094 C -11.79094,6.595505 -12.464245,6.74572 -13.081052,6.844923" />
      <path d="M -13.081052,6.844923 Q -13.435018,6.737614 -13.772277,6.622053" />
      <path d="M -14.214404,5.587309 Q -13.997624,6.106296 -13.772277,6.622053" />
      <path d="M -13.772277,6.622053 C -13.658774,6.360571 -13.432157,6.066331 -13.08502,5.856955" />
      <path d="M -13.161296,5.647818 L -13.08502,5.856955" />
      <path d="M -13.08502,5.856955 C -13.038007,5.829553 -12.962956,5.775852 -12.976748,5.736441" />
      <path d="M -12.976748,5.736441 Q -12.98167,5.720933 -13.007875,5.709613" />
      <path d="M -13.007875,5.709613 Q -13.26898,5.606239 -13.514605,5.496991" />
      <path d="M -13.514605,5.496991 C -13.601014,5.460824 -13.79824,5.498533 -13.887241,5.520344" />
      <path d="M -13.887241,5.520344 C -14.428684,5.648191 -15.176474,5.723747 -15.836606,5.755866" />
      <path d="M -15.836606,5.755866 Q -16.108911,5.615654 -16.359727,5.469199" />
      <path d="M -16.669733,4.444598 Q -16.519441,4.957914 -16.359727,5.469199" />
      <path d="M -16.359727,5.469199 C -16.080497,5.228349 -15.670762,4.967541 -15.199654,4.801151" />
      <path d="M -15.278411,4.488155 L -15.199654,4.801151" />
      <path d="M -15.199654,4.801151 C -15.130077,4.777356 -15.0065,4.726065 -15.01641,4.683998" />
      <path d="M -15.01641,4.683998 Q -15.018459,4.675001 -15.029574,4.666798" />
      <path d="M -15.029574,4.666798 Q -15.214735,4.539979 -15.381133,4.409084" />
      <path d="M -15.381133,4.409084 C -15.441141,4.365225 -15.656104,4.38128 -15.756219,4.393156" />
      <path d="M -15.756219,4.393156 C -16.362132,4.460725 -17.133447,4.456474 -17.791917,4.419318" />
      <path d="M -17.791917,4.419318 Q -17.964005,4.25576 -18.111285,4.08839" />
      <path d="M -18.29363,3.004897 Q -18.208002,3.54717 -18.111285,4.08839" />
      <path d="M -18.111285,4.08839 C -17.685357,3.884586 -17.120426,3.674983 -16.557452,3.56292" />
      <path d="M -16.614887,3.121068 L -16.557452,3.56292" />
      <path d="M -16.557452,3.56292 C -16.468497,3.545924 -16.297839,3.504445 -16.303012,3.458932" />
      <path d="M -16.303012,3.458932 L -16.306028,3.450711" />
      <path d="M -16.306028,3.450711 Q -16.402626,3.30909 -16.478457,3.165469" />
      <path d="M -16.478457,3.165469 C -16.507974,3.116907 -16.726026,3.110213 -16.830432,3.111344" />
      <path d="M -16.830432,3.111344 C -17.459523,3.114031 -18.201799,3.030262 -18.813734,2.926365" />
      <path d="M -18.911195,-2.890529 Q -18.950281,-1.87706 -18.950328,-0.864084" />
      <path d="M -18.911195,-2.890529 Q -18.878941,-3.06745 -18.820242,-3.243286" />
      <path d="M -18.813734,2.926365 Q -18.873876,2.750606 -18.907583,2.573728" />
      <path d="M -18.820242,-3.243286 Q -18.950413,-1.39455 -18.950332,0.455656" />
      <path d="M -18.950332,0.455656 Q -18.950285,1.514451 -18.907583,2.573728" />
      <path d="M -18.820242,-3.243286 Q -18.573784,-3.285566 -18.30802,-3.321526" />
      <path d="M -18.907583,2.573728 C -18.363984,2.420859 -17.682356,2.276745 -17.065882,2.226646" />
      <path d="M -17.068339,1.758947 L -17.065882,2.226646" />
      <path d="M -17.065882,2.226646 C -16.96321,2.219 -16.753546,2.19418 -16.750248,2.144227" />
      <path d="M -16.749924,1.825076 L -16.750334,2.035991" />
      <path d="M -16.750334,2.035991 L -16.750297,2.110013" />
      <path d="M -16.750248,2.144227 L -16.750347,2.123908" />
      <path d="M -16.750347,2.123908 Q -16.750322,1.987298 -16.731797,1.850896" />
      <path d="M -16.731755,1.849241 L -16.731797,1.850896" />
      <path d="M -16.731797,1.850896 L -16.731757,1.850069" />
      <path d="M -16.731757,1.850069 C -16.731117,1.800615 -16.935645,1.771902 -17.036673,1.762263" />
      <path d="M -17.036673,1.762263 C -17.646072,1.699884 -18.308724,1.542306 -18.832421,1.378747" />
      <path d="M -18.12734,-4.406224 Q -18.636686,-1.528406 -18.832421,1.378747" />
      <path d="M -18.12734,-4.406224 Q -17.981435,-4.573786 -17.810692,-4.737568" />
      <path d="M -18.832421,1.378747 Q -18.776519,1.202766 -18.694356,1.028434" />
      <path d="M -17.810692,-4.737568 Q -18.406852,-1.87295 -18.694356,1.028434" />
      <path d="M -17.810692,-4.737568 C -17.455729,-4.757975 -17.07175,-4.768952 -16.695561,-4.7644" />
      <path d="M -18.694356,1.028434 C -18.070131,0.936917 -17.318258,0.868114 -16.690296,0.883392" />
      <path d="M -16.628764,0.36998 L -16.690296,0.883392" />
      <path d="M -16.690296,0.883392 C -16.586164,0.886611 -16.367546,0.884291 -16.331961,0.836381" />
      <path d="M -16.284976,0.456446 L -16.331961,0.836381" />
      <path d="M -16.331961,0.836381 Q -16.23817,0.694459 -16.123888,0.55495" />
      <path d="M -16.120898,0.534667 L -16.123888,0.55495" />
      <path d="M -16.123888,0.55495 L -16.119487,0.545015" />
      <path d="M -16.119487,0.545015 C -16.113326,0.500261 -16.275306,0.456364 -16.360889,0.437849" />
      <path d="M -16.360889,0.437849 C -16.909066,0.314656 -17.446935,0.094008 -17.846704,-0.118066" />
      <path d="M -16.387132,-5.789316 Q -17.258868,-2.984054 -17.846704,-0.118066" />
      <path d="M -16.387132,-5.789316 Q -16.137521,-5.936099 -15.866368,-6.076665" />
      <path d="M -17.846704,-0.118066 Q -17.678568,-0.282277 -17.486136,-0.442184" />
      <path d="M -15.866368,-6.076665 Q -16.813398,-3.29312 -17.486136,-0.442184" />
      <path d="M -15.866368,-6.076665 C -15.33225,-6.051282 -14.744519,-5.998205 -14.2495,-5.911412" />
      <path d="M -17.486136,-0.442184 C -16.823824,-0.466111 -16.052945,-0.454915 -15.45629,-0.375301" />
      <path d="M -15.306712,-0.99384 L -15.45629,-0.375301" />
      <path d="M -15.45629,-0.375301 C -15.357794,-0.361436 -15.14512,-0.341098 -15.079673,-0.3837" />
      <path d="M -14.973128,-0.823155 L -15.079673,-0.3837" />
      <path d="M -15.079673,-0.3837 Q -14.89703,-0.511099 -14.696158,-0.634051" />
      <path d="M -14.685139,-0.675683 L -14.696158,-0.634051" />
      <path d="M -14.696158,-0.634051 Q -14.682683,-0.642937 -14.6802,-0.653002" />
      <path d="M -14.6802,-0.653002 C -14.669466,-0.694528 -14.783699,-0.746884 -14.849133,-0.771641" />
      <path d="M -14.849133,-0.771641 C -15.29873,-0.947252 -15.675161,-1.215934 -15.92376,-1.462071" />
      <path d="M -13.809164,-6.945548 Q -14.983882,-4.247799 -15.92376,-1.462071" />
      <path d="M -13.809164,-6.945548 Q -13.472855,-7.061549 -13.119773,-7.169321" />
      <path d="M -15.92376,-1.462071 Q -15.654848,-1.603321 -15.365259,-1.737904" />
      <path d="M -13.119773,-7.169321 Q -14.353135,-4.500324 -15.365259,-1.737904" />
      <path d="M -13.119773,-7.169321 C -12.502154,-7.070925 -11.827619,-6.921591 -11.386075,-6.742756" />
      <path d="M -15.365259,-1.737904 C -14.709996,-1.692611 -13.972646,-1.602179 -13.447958,-1.463654" />
      <path d="M -11.386075,-6.742756 Q -11.958428,-5.417753 -12.483538,-4.070413" />
      <path d="M -13.121844,-2.376487 Q -13.287542,-1.921319 -13.447958,-1.463654" />
      <path d="M -11.386075,-6.742756 C -11.338711,-6.722953 -11.251861,-6.692164 -11.166942,-6.680254" />
      <path d="M -13.447958,-1.463654 C -13.36181,-1.440089 -13.169574,-1.398479 -13.078726,-1.43287" />
      <path d="M -12.873347,-2.013582 L -13.078726,-1.43287" />
      <path d="M -13.078726,-1.43287 Q -12.819677,-1.537064 -12.545905,-1.63508" />
      <path d="M -12.519183,-1.706728 L -12.545905,-1.63508" />
      <path d="M -12.545905,-1.63508 Q -12.515967,-1.646856 -12.51028,-1.663963" />
      <path d="M -12.51028,-1.663963 C -12.495853,-1.702869 -12.561909,-1.756116 -12.604428,-1.783781" />
      <path d="M -12.604428,-1.783781 C -12.924806,-1.999843 -13.114146,-2.298249 -13.194633,-2.561675" />
      <path d="M -10.569118,-7.796126 Q -11.966764,-5.233518 -13.194633,-2.561675" />
      <path d="M -10.569118,-7.796126 Q -10.169033,-7.87344 -9.758082,-7.941072" />
      <path d="M -13.194633,-2.561675 Q -12.843271,-2.670338 -12.47626,-2.770426" />
      <path d="M -9.758082,-7.941072 Q -11.193724,-5.412294 -12.47626,-2.770426" />
      <path d="M -9.758082,-7.941072 C -9.225327,-7.78224 -8.670632,-7.568328 -8.360123,-7.349983" />
      <path d="M -12.47626,-2.770426 C -11.872701,-2.658999 -11.219129,-2.495495 -10.802165,-2.307499" />
      <path d="M -8.360123,-7.349983 Q -9.640954,-4.879542 -10.802165,-2.307499" />
      <path d="M -8.360123,-7.349983 C -8.310073,-7.313401 -8.185929,-7.241555 -8.065897,-7.255792" />
      <path d="M -10.802165,-2.307499 C -10.734237,-2.275839 -10.575539,-2.215792 -10.465481,-2.239629" />
      <path d="M -8.065897,-7.255792 Q -9.322061,-4.797628 -10.465481,-2.239629" />
      <path d="M -8.065897,-7.255792 Q -7.788702,-7.292353 -7.507538,-7.32378" />
      <path d="M -10.465481,-2.239629 Q -10.147679,-2.313517 -9.819664,-2.379918" />
      <path d="M -9.762555,-2.502215 L -9.819664,-2.379918" />
      <path d="M -9.819664,-2.379918 Q -9.764427,-2.393314 -9.752928,-2.422358" />
      <path d="M -9.752928,-2.422358 C -9.736338,-2.457722 -9.760183,-2.503279 -9.779748,-2.529596" />
      <path d="M -7.109482,-7.989316 Q -7.016568,-8.142452 -6.887801,-8.283083" />
      <path d="M -9.779748,-2.529596 C -9.949073,-2.771386 -9.93842,-3.079179 -9.845309,-3.341941" />
      <path d="M -6.887801,-8.283083 Q -7.730143,-6.952716 -8.54408,-5.584824" />
      <path d="M -8.54408,-5.584824 Q -9.204032,-4.475717 -9.845309,-3.341941" />
      <path d="M -6.887801,-8.283083 Q -6.451203,-8.316441 -6.010389,-8.339325" />
      <path d="M -9.845309,-3.341941 Q -9.435441,-3.410613 -9.01602,-3.469385" />
      <path d="M -6.010389,-8.339325 Q -7.550474,-5.96688 -9.01602,-3.469385" />
      <path d="M -6.010389,-8.339325 C -5.598804,-8.130882 -5.20175,-7.866968 -5.043438,-7.623993" />
      <path d="M -9.01602,-3.469385 C -8.505297,-3.299418 -7.980042,-3.073983 -7.699217,-2.849328" />
      <path d="M -5.043438,-7.623993 Q -6.396151,-5.291908 -7.699217,-2.849328" />
      <path d="M -5.043438,-7.623993 C -5.01882,-7.583489 -4.945505,-7.501269 -4.820328,-7.502624" />
      <path d="M -7.699217,-2.849328 C -7.654138,-2.811732 -7.539793,-2.73734 -7.418026,-2.748997" />
      <path d="M -4.820328,-7.502624 Q -6.141252,-5.179849 -7.418026,-2.748997" />
      <path d="M -4.820328,-7.502624 Q -4.453127,-7.511047 -4.085319,-7.510948" />
      <path d="M -7.418026,-2.748997 Q -7.06313,-2.787545 -6.703224,-2.817805" />
      <path d="M -4.085319,-7.510948 Q -5.131024,-5.699425 -6.159022,-3.81987" />
      <path d="M -6.550421,-3.1006 L -6.703224,-2.817805" />
      <path d="M -4.085319,-7.510948 C -3.99767,-7.511848 -3.940945,-7.553624 -3.908692,-7.592303" />
      <path d="M -6.703224,-2.817805 C -6.63609,-2.824167 -6.60076,-2.853841 -6.583233,-2.885872" />
      <path d="M -6.583233,-2.885872 Q -6.563789,-2.927485 -6.567589,-2.958261" />
      <path d="M -3.857007,-7.678618 C -3.715779,-7.91396 -3.376188,-8.167816 -3.016086,-8.373235" />
      <path d="M -6.567589,-2.958261 C -6.570992,-3.078155 -6.524199,-3.209637 -6.446028,-3.340073" />
      <path d="M -6.446028,-3.340073 C -6.361148,-3.481741 -6.239847,-3.622087 -6.104039,-3.749697" />
      <path d="M -3.016086,-8.373235 Q -4.565143,-6.125704 -6.104039,-3.749697" />
      <path d="M -3.016086,-8.373235 Q -2.572729,-8.360364 -2.132093,-8.33694" />
      <path d="M -6.104039,-3.749697 Q -5.663597,-3.773697 -5.220349,-3.787148" />
      <path d="M -2.132093,-8.33694 Q -3.671668,-6.126288 -5.220349,-3.787148" />
      <path d="M -2.132093,-8.33694 C -1.869727,-8.09309 -1.657374,-7.797161 -1.662046,-7.546114" />
      <path d="M -5.220349,-3.787148 C -4.837266,-3.570224 -4.476124,-3.298221 -4.350576,-3.052217" />
      <path d="M -1.662046,-7.546114 Q -2.994456,-5.355094 -4.350576,-3.052217" />
      <path d="M -1.662046,-7.546114 C -1.664537,-7.504448 -1.647048,-7.417457 -1.525258,-7.405837" />
      <path d="M -4.350576,-3.052217 C -4.331418,-3.011246 -4.269219,-2.927579 -4.144039,-2.926263" />
      <path d="M -1.525258,-7.405837 Q -2.820922,-5.220528 -4.144039,-2.926263" />
      <path d="M -1.525258,-7.405837 Q -1.165105,-7.376048 -0.809895,-7.337964" />
      <path d="M -4.144039,-2.926263 Q -3.776235,-2.926843 -3.408966,-2.918901" />
      <path d="M -0.809895,-7.337964 Q -2.087799,-5.1825 -3.408966,-2.918901" />
      <path d="M -0.809895,-7.337964 C -0.688032,-7.326466 -0.574299,-7.401007 -0.529529,-7.438662" />
      <path d="M -3.408966,-2.918901 C -3.283835,-2.917709 -3.211204,-2.999953 -3.186887,-3.040507" />
      <path d="M -3.186887,-3.040507 L -3.186855,-3.040561" />
      <path d="M -0.529529,-7.438662 Q -1.832587,-5.296921 -3.184292,-3.04483" />
      <path d="M -3.184292,-3.04483 L -3.186855,-3.040561" />
      <path d="M -0.529529,-7.438662 C -0.25055,-7.663683 0.272851,-7.889805 0.782175,-8.060438" />
      <path d="M -3.186855,-3.040561 C -3.030538,-3.283742 -2.635654,-3.548173 -2.225783,-3.757154" />
      <path d="M 0.782175,-8.060438 Q -0.685048,-5.971369 -2.225783,-3.757154" />
      <path d="M 0.782175,-8.060438 Q 1.202077,-8.002215 1.612506,-7.93408" />
      <path d="M -2.225783,-3.757154 Q -1.784784,-3.734847 -1.347914,-3.70206" />
      <path d="M 1.612506,-7.93408 Q 0.178362,-5.879654 -1.347914,-3.70206" />
      <path d="M 1.612506,-7.93408 C 1.702736,-7.685017 1.719441,-7.396036 1.578372,-7.160039" />
      <path d="M -1.347914,-3.70206 C -1.118579,-3.452962 -0.94616,-3.152928 -0.984446,-2.90234" />
      <path d="M 1.12889,-6.407997 L 0.946935,-6.10325" />
      <path d="M 0.946935,-6.10325 Q 0.008377,-4.532811 -0.984446,-2.90234" />
      <path d="M 1.529654,-7.078682 C 1.513863,-7.037863 1.516049,-6.988891 1.594761,-6.972028" />
      <path d="M -0.984446,-2.90234 C -0.992514,-2.860786 -0.986699,-2.773546 -0.866639,-2.759346" />
      <path d="M 1.594761,-6.972028 Q 0.412653,-4.91689 -0.866639,-2.759346" />
      <path d="M 1.594761,-6.972028 Q 1.923321,-6.906056 2.241728,-6.832584" />
      <path d="M -0.866639,-2.759346 Q -0.510991,-2.721919 -0.161388,-2.676315" />
      <path d="M 2.241728,-6.832584 Q 1.096131,-4.80444 -0.161388,-2.676315" />
      <path d="M 2.241728,-6.832584 C 2.35198,-6.808891 2.510184,-6.869146 2.577852,-6.900894" />
      <path d="M -0.161388,-2.676315 C -0.041239,-2.662234 0.082314,-2.734243 0.132063,-2.77089" />
      <path d="M 2.577852,-6.900894 Q 1.41435,-4.886771 0.132063,-2.77089" />
      <path d="M 2.577852,-6.900894 C 2.99327,-7.089434 3.645496,-7.253793 4.248136,-7.366008" />
      <path d="M 0.132063,-2.77089 C 0.440777,-2.98964 0.993713,-3.204276 1.52516,-3.363804" />
      <path d="M 4.248136,-7.366008 Q 2.962736,-5.421551 1.52516,-3.363804" />
      <path d="M 4.248136,-7.366008 Q 4.615967,-7.266401 4.96822,-7.158197" />
      <path d="M 1.52516,-3.363804 Q 1.936665,-3.29671 2.337383,-3.219919" />
      <path d="M 4.96822,-7.158197 Q 3.737241,-5.243786 2.337383,-3.219919" />
      <path d="M 4.96822,-7.158197 Q 4.923779,-7.006602 4.831386,-6.850248" />
      <path d="M 2.337383,-3.219919 C 2.388773,-2.992389 2.375648,-2.734175 2.24389,-2.513911" />
      <path d="M 2.24389,-2.513911 Q 2.211663,-2.459954 2.169778,-2.409909" />
      <path d="M 2.169778,-2.409909 Q 2.156212,-2.394895 2.143708,-2.374052" />
      <path d="M 2.143708,-2.374052 C 2.11957,-2.332479 2.110329,-2.279162 2.190826,-2.259621" />
      <path d="M 3.373717,-4.406488 Q 2.805216,-3.345776 2.190826,-2.259621" />
      <path d="M 4.437212,-6.191134 Q 4.654118,-6.112149 4.861585,-6.029247" />
      <path d="M 2.190826,-2.259621 Q 2.510081,-2.186737 2.818194,-2.106579" />
      <path d="M 4.861585,-6.029247 Q 3.926367,-4.110421 2.818194,-2.106579" />
      <path d="M 4.861585,-6.029247 C 4.952714,-5.994975 5.144608,-6.036836 5.230561,-6.060514" />
      <path d="M 2.818194,-2.106579 C 2.925116,-2.080569 3.091163,-2.137364 3.162986,-2.167624" />
      <path d="M 5.230561,-6.060514 Q 4.287141,-4.15708 3.162986,-2.167624" />
      <path d="M 5.230561,-6.060514 C 5.754109,-6.199725 6.490712,-6.29112 7.145599,-6.33727" />
      <path d="M 3.162986,-2.167624 C 3.603059,-2.347035 4.276364,-2.49725 4.893171,-2.596453" />
      <path d="M 7.145599,-6.33727 Q 6.12962,-4.513718 4.893171,-2.596453" />
      <path d="M 7.145599,-6.33727 Q 7.436292,-6.203066 7.706363,-6.062169" />
      <path d="M 4.893171,-2.596453 Q 5.247137,-2.489144 5.584396,-2.373583" />
      <path d="M 7.706363,-6.062169 Q 7.03938,-4.790173 6.255505,-3.474097" />
      <path d="M 6.255505,-3.474097 Q 5.930027,-2.92764 5.584396,-2.373583" />
      <path d="M 5.584396,-2.373583 Q 5.547997,-2.289704 5.496588,-2.203571" />
      <path d="M 5.496588,-2.203571 C 5.369814,-1.991568 5.170105,-1.772938 4.897139,-1.608485" />
      <path d="M 4.897139,-1.608485 C 4.86119,-1.587535 4.809166,-1.551407 4.792458,-1.517847" />
      <path d="M 4.792458,-1.517847 Q 4.772537,-1.483768 4.819995,-1.461143" />
      <path d="M 4.88961,-1.604014 L 4.819995,-1.461143" />
      <path d="M 4.819995,-1.461143 Q 5.0811,-1.357769 5.326724,-1.248521" />
      <path d="M 6.375853,-3.677059 Q 5.897713,-2.476215 5.326724,-1.248521" />
      <path d="M 7.111364,-4.960497 Q 7.192193,-4.966523 7.24782,-4.974793" />
      <path d="M 5.326724,-1.248521 C 5.413134,-1.212354 5.610359,-1.250064 5.699361,-1.271874" />
      <path d="M 7.24782,-4.974793 Q 6.588776,-3.155546 5.699361,-1.271874" />
      <path d="M 7.24782,-4.974793 C 7.843819,-5.055187 8.614601,-5.067391 9.277106,-5.04433" />
      <path d="M 5.699361,-1.271874 C 6.240803,-1.399721 6.988594,-1.475277 7.648726,-1.507396" />
      <path d="M 9.277106,-5.04433 Q 8.599785,-3.309737 7.648726,-1.507396" />
      <path d="M 9.277106,-5.04433 Q 9.470851,-4.884676 9.640335,-4.720686" />
      <path d="M 7.648726,-1.507396 Q 7.921031,-1.367185 8.171847,-1.220729" />
      <path d="M 9.640335,-4.720686 Q 9.04779,-3.001256 8.171847,-1.220729" />
      <path d="M 8.171847,-1.220729 C 7.892617,-0.979879 7.482881,-0.719071 7.011773,-0.552681" />
      <path d="M 7.011773,-0.552681 C 6.94941,-0.531349 6.844088,-0.488108 6.829548,-0.449008" />
      <path d="M 6.829548,-0.449008 Q 6.822884,-0.432671 6.841694,-0.418328" />
      <path d="M 6.866338,-0.486514 L 6.841694,-0.418328" />
      <path d="M 6.841694,-0.418328 Q 7.026855,-0.291509 7.193252,-0.160614" />
      <path d="M 7.364825,-0.699231 Q 7.28185,-0.430352 7.193252,-0.160614" />
      <path d="M 7.193252,-0.160614 C 7.25326,-0.116756 7.468223,-0.13281 7.568338,-0.144686" />
      <path d="M 7.823231,-0.958497 Q 7.702527,-0.552572 7.568338,-0.144686" />
      <path d="M 9.266503,-3.702017 C 9.687069,-3.677525 10.114005,-3.630828 10.497398,-3.575301" />
      <path d="M 7.568338,-0.144686 C 8.174252,-0.212255 8.945567,-0.208004 9.604037,-0.170848" />
      <path d="M 10.497398,-3.575301 Q 10.204893,-1.891659 9.604037,-0.170848" />
      <path d="M 10.497398,-3.575301 Q 10.580992,-3.401076 10.638339,-3.22517" />
      <path d="M 9.604037,-0.170848 Q 9.776124,-0.007291 9.923404,0.16008" />
      <path d="M 10.638339,-3.22517 Q 10.437556,-1.547418 9.923404,0.16008" />
      <path d="M 9.923404,0.16008 C 9.497476,0.363883 8.932545,0.573486 8.369572,0.68555" />
      <path d="M 8.369572,0.68555 C 8.284298,0.701848 8.12427,0.740551 8.115344,0.783833" />
      <path d="M 8.115344,0.783833 Q 8.113914,0.790751 8.118147,0.797759" />
      <path d="M 10.698119,0.918989 L 10.50313,0.595005" />
      <path d="M 11.361517,-3.73144 C 12.228957,-2.300239 13.067013,-0.848497 13.948247,0.602322" />
      <path d="M 15.853125,0.424184 L 15.644171,0.077281" />
      <path d="M 16.5132,-4.231575 C 16.644322,-4.014094 16.775444,-3.796614 16.906566,-3.579133 C 17.381526,-2.787384 17.850968,-1.988959 18.314199,-1.208317 C 18.575563,-0.767246 18.83774,-0.329915 19.100727,0.103676" />
      <path d="M 22.309724,2.972054 L 22.309558,2.80052" />
      <path d="M 24.509717,0.713553 L 24.509382,-0.439712" />
      <path d="M 19.15626,5.84656 Q 19.432706,5.390181 19.712483,4.919922" />
      <path d="M 16.029303,5.326154 L 15.907119,5.528392" />
      <path d="M 14.003346,5.348601 L 14.154011,5.099441" />
      <path d="M 11.388622,3.974449 Q 11.069407,4.510409 10.752878,5.032379" />
      <path d="M 10.853319,2.972054 L 10.853465,2.824906" />
      <path d="M 8.562463,2.103118 L 8.562466,2.123908" />
      <path d="M 4.472532,5.842048 L 4.872163,6.510285" />
      <path d="M 1.566294,6.73182 L 1.61922,6.820202" />
      <path d="M -3.863899,7.259053 L -3.816446,7.338304" />
      <path d="M -7.461436,6.992719 L -7.068838,7.649133" />
      <path d="M -18.950328,-0.864084 L -18.950332,0.455656" />
      <path d="M -16.750334,2.035991 L -16.750347,2.123908" />
      <path d="M -7.109482,-7.989316 Q -7.82547,-6.793028 -8.54408,-5.584824" />
      <path d="M -3.857007,-7.678618 C -4.721404,-6.235744 -5.585453,-4.777351 -6.446028,-3.340073" />
      <path d="M -3.184811,-3.043965 L -3.184292,-3.04483" />
      <path d="M 1.578372,-7.160039 L 1.12889,-6.407997" />
      <path d="M 4.831386,-6.850248 Q 3.541409,-4.687815 2.24389,-2.513911" />
      <path d="M 6.255505,-3.474097 Q 5.879113,-2.84215 5.496588,-2.203571" />
    </g>
  </g>
</svg>