<?xml version='1.0' encoding='utf-8'?>
<svg width="100.089999mm" height="62.287987mm" viewBox="-18.799894 -14.131346 33.585416 20.900869" version="1.1" xmlns="http://www.w3.org/2000/svg">
  <g transform="scale(1,-1)" stroke-linecap="round">
    <g fill="none" stroke="rgb(0,0,0)" stroke-width="0.030199695020871723" id="Visible">
      <path d="M 13.499584,0.264619 Q 13.61665,0.406415 13.725025,0.572659" />
      <path d="M 13.725025,0.572659 C 13.816371,0.908157 13.891442,1.260999 13.936899,1.595026 C 13.959154,1.759796 13.974092,1.920688 13.975883,2.05916" />
      <path d="M 13.975883,2.05916 C 13.964151,2.212228 13.955529,2.398862 13.975848,2.612491" />
      <path d="M 14.497824,2.534899 L 14.498574,2.534781" />
      <path d="M 14.498574,2.534781 L 14.499323,2.534676" />
      <path d="M 14.499323,2.534676 Q 14.558851,2.793887 14.606125,3.068516" />
      <path d="M 14.606125,3.068516 C 14.629315,3.383614 14.636943,3.695282 14.624919,3.961408 C 14.618919,4.092263 14.607996,4.2122 14.591181,4.299279" />
      <path d="M 14.591181,4.299279 C 14.566577,4.365137 14.539336,4.457471 14.519901,4.60887 C 14.5092,4.693287 14.502626,4.80467 14.510831,4.897524" />
      <path d="M 14.510831,4.897524 Q 14.534144,5.161158 14.54319,5.435112" />
      <path d="M 14.54319,5.435112 L 14.545248,5.472473" />
      <path d="M 14.690477,5.47601 C 14.737553,5.482191 14.765031,5.619512 14.770422,5.797976" />
      <path d="M 14.770422,5.797976 Q 14.758776,6.115219 14.734118,6.435319" />
      <path d="M 14.734118,6.435319 C 14.708726,6.661103 14.672981,6.86359 14.631343,7.004149 C 14.610906,7.072746 14.588991,7.125877 14.569179,7.143158" />
      <path d="M 14.528815,7.13822 C 14.516854,7.146611 14.503362,7.166794 14.48834,7.198767 C 14.468386,7.241948 14.444468,7.32067 14.430072,7.420985" />
      <path d="M 14.430072,7.420985 Q 14.389192,7.705897 14.334874,7.986572" />
      <path d="M 14.334874,7.986572 C 14.308752,8.123168 14.309372,8.237973 14.317524,8.298211 C 14.326066,8.363556 14.341264,8.390231 14.357581,8.400293" />
      <path d="M 14.357581,8.400293 C 14.37297,8.478908 14.361901,8.64613 14.336854,8.82979 C 14.316573,8.97734 14.28788,9.136389 14.250775,9.306936" />
      <path d="M 14.250775,9.306936 Q 14.170622,9.609535 14.079682,9.901774" />
      <path d="M 14.079682,9.901774 C 14.03761,9.987365 13.993961,10.037014 13.95783,10.027322" />
      <path d="M 13.751064,9.96479 Q 13.678485,10.139396 13.600824,10.304023" />
      <path d="M 13.600824,10.304023 C 13.549713,10.413474 13.513625,10.571911 13.495764,10.683385 C 13.477874,10.800578 13.46871,10.896341 13.46827,10.970675" />
      <path d="M 13.46827,10.970675 C 13.440952,11.15226 13.371593,11.401159 13.287804,11.651552 C 13.220627,11.851492 13.144502,12.05354 13.059428,12.257697" />
      <path d="M 13.059428,12.257697 Q 12.92913,12.47633 12.792741,12.67376" />
      <path d="M 12.256473,12.406241 Q 12.223818,12.515272 12.198905,12.61648" />
      <path d="M 12.198905,12.61648 C 12.115214,12.856819 11.982097,13.127571 11.837549,13.384547 C 11.722064,13.588864 11.599315,13.785439 11.469302,13.974273" />
      <path d="M 11.469302,13.974273 Q 11.318709,14.058854 11.168116,14.116246" />
      <path d="M 10.364733,13.582801 Q 10.112168,13.851569 9.844678,14.063418" />
      <path d="M 9.844678,14.063418 Q 9.709243,13.995052 9.579809,13.900113" />
      <path d="M 9.579809,13.900113 L 9.577991,13.898777" />
      <line x1="8.017509" y1="1.122981" x2="8.01743" y2="1.12301" />
      <path d="M 7.914103,1.113912 Q 7.96608,1.115987 8.01743,1.12301" />
      <path d="M 7.809662,1.114717 Q 7.862126,1.111838 7.914103,1.113912" />
      <line x1="7.975371" y1="1.051176" x2="7.809662" y2="1.114717" />
      <line x1="8.559001" y1="2.092972" x2="8.423523" y2="2.12938" />
      <path d="M 8.01743,1.12301 C 8.139968,1.334509 8.255095,1.578044 8.339921,1.826232 C 8.375543,1.92974 8.40341,2.030789 8.423523,2.12938" />
      <line x1="8.815437" y1="2.651382" x2="8.580644" y2="2.701433" />
      <path d="M 8.423523,2.12938 C 8.437446,2.261989 8.457782,2.407244 8.498079,2.544176 C 8.520532,2.619804 8.551269,2.687451 8.580644,2.701433" />
      <line x1="8.78595" y1="2.79839" x2="8.749533" y2="2.805698" />
      <path d="M 8.580644,2.701433 Q 8.667461,2.743069 8.749533,2.805698" />
      <path d="M 8.749533,2.805698 Q 8.759846,2.813328 8.768928,2.811469" />
      <path d="M 8.768928,2.811469 C 8.798421,2.80505 8.812537,2.730187 8.815521,2.64932 C 8.817961,2.55913 8.812425,2.463067 8.798914,2.361131" />
      <line x1="13.499584" y1="0.264619" x2="8.87492" y2="1.652387" />
      <path d="M 8.798914,2.361131 C 8.790927,2.060528 8.835487,1.818887 8.87492,1.652387" />
      <line x1="13.725025" y1="0.572659" x2="9.035091" y2="1.871243" />
      <path d="M 8.87492,1.652387 Q 8.958093,1.753131 9.035091,1.871243" />
      <line x1="13.975883" y1="2.05916" x2="9.213321" y2="2.927372" />
      <path d="M 9.035091,1.871243 C 9.103599,2.122605 9.160351,2.39333 9.191402,2.642127 C 9.204533,2.746173 9.211839,2.841255 9.213321,2.927372" />
      <line x1="9.470367" y1="3.457918" x2="9.248605" y2="3.487625" />
      <path d="M 9.213321,2.927372 C 9.203301,3.027934 9.202253,3.147368 9.210177,3.285674 C 9.215921,3.362387 9.228835,3.443962 9.248605,3.487625" />
      <line x1="9.422842" y1="3.754962" x2="9.356956" y2="3.762178" />
      <path d="M 9.248605,3.487625 Q 9.306982,3.616905 9.356956,3.762178" />
      <path d="M 9.356956,3.762178 Q 9.373059,3.806485 9.389774,3.803878" />
      <path d="M 9.389774,3.803878 Q 9.412,3.797533 9.426548,3.742672 Q 9.448138,3.659255 9.454153,3.537624" />
      <line x1="14.499323" y1="2.534676" x2="9.585214" y2="3.265215" />
      <path d="M 9.454153,3.537624 C 9.488125,3.34184 9.545382,3.274576 9.584682,3.26529" />
      <path d="M 9.584682,3.26529 L 9.585214,3.265215" />
      <line x1="14.606125" y1="3.068516" x2="9.661094" y2="3.644497" />
      <path d="M 9.585214,3.265215 Q 9.627507,3.449379 9.661094,3.644497" />
      <line x1="14.591181" y1="4.299279" x2="9.650477" y2="4.518929" />
      <path d="M 9.661094,3.644497 C 9.678537,3.880589 9.683675,4.119082 9.672651,4.313963 C 9.668123,4.395742 9.660731,4.464064 9.650477,4.518929" />
      <line x1="14.510831" y1="4.897524" x2="9.59339" y2="4.94397" />
      <path d="M 9.650477,4.518929 C 9.632835,4.566119 9.613156,4.632963 9.599396,4.742471 C 9.591866,4.80332 9.58776,4.88063 9.59339,4.94397" />
      <line x1="14.54319" y1="5.435112" x2="9.61638" y2="5.325915" />
      <path d="M 9.59339,4.94397 Q 9.609953,5.131277 9.61638,5.325915" />
      <path d="M 9.61638,5.325915 C 9.619282,5.41235 9.636636,5.447781 9.652222,5.446845" />
      <path d="M 9.652222,5.446845 C 9.670359,5.44656 9.687023,5.413092 9.701579,5.367882" />
      <line x1="14.770422" y1="5.797976" x2="9.777824" y2="5.583722" />
      <path d="M 9.701579,5.367882 Q 9.711726,5.354406 9.721025,5.354972" />
      <path d="M 9.721025,5.354972 C 9.754187,5.358715 9.774135,5.457292 9.777824,5.583722" />
      <line x1="14.734118" y1="6.435319" x2="9.752031" y2="6.036541" />
      <path d="M 9.777824,5.583722 Q 9.769549,5.809117 9.752031,6.036541" />
      <line x1="14.569179" y1="7.143158" x2="9.634845" y2="6.539446" />
      <path d="M 9.752031,6.036541 C 9.73307,6.205729 9.705177,6.359949 9.673421,6.458743 C 9.660109,6.50055 9.64725,6.527451 9.634845,6.539446" />
      <line x1="14.430072" y1="7.420985" x2="9.536012" y2="6.736836" />
      <path d="M 9.634845,6.539446 Q 9.62874,6.531766 9.621243,6.53069" />
      <path d="M 9.621243,6.53069 Q 9.603657,6.524894 9.576569,6.580833 Q 9.552899,6.631207 9.536012,6.736836" />
      <line x1="14.334874" y1="7.986572" x2="9.468376" y2="7.138674" />
      <path d="M 9.536012,6.736836 Q 9.506968,6.939261 9.468376,7.138674" />
      <line x1="14.357581" y1="8.400293" x2="9.484509" y2="7.432615" />
      <path d="M 9.468376,7.138674 C 9.449062,7.239294 9.450152,7.325501 9.457188,7.368289 C 9.463994,7.406638 9.473101,7.428079 9.484509,7.432615" />
      <line x1="14.250775" y1="9.306936" x2="9.408626" y2="8.076766" />
      <path d="M 9.484509,7.432615 C 9.495993,7.49066 9.486854,7.620983 9.466036,7.764406 C 9.451752,7.862446 9.432615,7.966566 9.408626,8.076766" />
      <line x1="14.079682" y1="9.901774" x2="9.287068" y2="8.499386" />
      <path d="M 9.408626,8.076766 Q 9.351678,8.291756 9.287068,8.499386" />
      <path d="M 9.287068,8.499386 C 9.257402,8.559855 9.226101,8.595598 9.200494,8.588584" />
      <path d="M 9.200494,8.588584 Q 9.178531,8.584557 9.170005,8.526047" />
      <line x1="9.171511" y1="8.479562" x2="9.089617" y2="8.455501" />
      <path d="M 9.170005,8.526047 C 9.174202,8.452439 9.170445,8.388642 9.147312,8.379718" />
      <path d="M 9.147312,8.379718 Q 9.126073,8.37022 9.089617,8.455501" />
      <line x1="13.600824" y1="10.304023" x2="8.946848" y2="8.785175" />
      <path d="M 9.089617,8.455501 Q 9.021618,8.62667 8.946848,8.785175" />
      <line x1="13.46827" y1="10.970675" x2="8.852672" y2="9.258817" />
      <path d="M 8.946848,8.785175 C 8.909179,8.865585 8.882279,8.986357 8.869782,9.069969 C 8.858785,9.146173 8.853081,9.209122 8.852672,9.258817" />
      <line x1="13.059428" y1="12.257697" x2="8.562198" y2="10.173219" />
      <path d="M 8.852672,9.258817 C 8.832548,9.39321 8.778342,9.585665 8.712271,9.778535 C 8.667206,9.909746 8.617182,10.041308 8.562198,10.173219" />
      <line x1="12.792741" y1="12.67376" x2="8.372722" y2="10.468823" />
      <path d="M 8.562198,10.173219 Q 8.469624,10.328553 8.372722,10.468823" />
      <path d="M 8.372722,10.468823 C 8.346849,10.39727 8.323953,10.258608 8.362447,10.023625" />
      <line x1="8.40913" y1="9.72884" x2="8.356468" y2="9.706238" />
      <path d="M 8.362447,10.023625 C 8.380617,9.957789 8.394107,9.89644 8.402916,9.839578 C 8.413729,9.767469 8.414912,9.699633 8.391672,9.688652" />
      <path d="M 8.391672,9.688652 Q 8.378541,9.68265 8.356468,9.706238" />
      <line x1="8.373854" y1="9.980145" x2="8.171274" y2="9.888224" />
      <path d="M 8.356468,9.706238 Q 8.265093,9.806938 8.171274,9.888224" />
      <line x1="12.198905" y1="12.61648" x2="7.950814" y2="10.428128" />
      <path d="M 8.171274,9.888224 C 8.123816,9.929996 8.067345,10.056647 8.030471,10.160916 C 7.997108,10.256587 7.970556,10.345658 7.950814,10.428128" />
      <line x1="11.469302" y1="13.974273" x2="7.432447" y2="11.392811" />
      <path d="M 7.950814,10.428128 C 7.888937,10.606142 7.785664,10.814483 7.673226,11.010481 C 7.596727,11.143361 7.516467,11.270804 7.432447,11.392811" />
      <line x1="11.168116" y1="14.116246" x2="7.218461" y2="11.49368" />
      <path d="M 7.432447,11.392811 Q 7.325454,11.452904 7.218461,11.49368" />
      <path d="M 7.218461,11.49368 C 7.242985,11.280203 7.287538,10.992396 7.397173,10.689103" />
      <line x1="7.526742" y1="10.213975" x2="7.504521" y2="10.202518" />
      <path d="M 7.397173,10.689103 C 7.432409,10.616647 7.46283,10.544539 7.488438,10.472777 C 7.528806,10.359642 7.556819,10.228025 7.517158,10.204952" />
      <path d="M 7.517158,10.204952 L 7.504521,10.202518" />
      <line x1="7.532559" y1="10.30698" x2="7.319326" y2="10.195126" />
      <path d="M 7.504521,10.202518 Q 7.410702,10.209681 7.319326,10.195126" />
      <line x1="7.335193" y1="10.880211" x2="6.98554" y2="10.672672" />
      <path d="M 7.319326,10.195126 C 7.272892,10.188681 7.192043,10.291181 7.131529,10.391206 C 7.076364,10.483498 7.027701,10.57732 6.98554,10.672672" />
      <line x1="9.844678" y1="14.063418" x2="6.278185" y2="11.456147" />
      <path d="M 6.98554,10.672672 C 6.807913,10.973224 6.533808,11.25191 6.278185,11.456147" />
      <line x1="9.577991" y1="13.898777" x2="6.091294" y2="11.341069" />
      <path d="M 6.278185,11.456147 Q 6.181962,11.407574 6.090002,11.340122" />
      <path d="M 6.090002,11.340122 L 6.08871,11.339173" />
      <path d="M 6.08871,11.339173 C 6.155659,11.122542 6.242246,10.880724 6.349296,10.646702 C 6.393648,10.548946 6.442321,10.456722 6.495315,10.370029" />
      <path d="M 6.495315,10.370029 C 6.581899,10.261633 6.665581,10.137553 6.715871,10.005724 C 6.743451,9.932806 6.754304,9.860342 6.728946,9.830651" />
      <path d="M 6.728946,9.830651 Q 6.654176,9.742635 6.586177,9.635573" />
      <line x1="6.624391" y1="10.188141" x2="6.177982" y2="9.936428" />
      <path d="M 6.586177,9.635573 Q 6.579065,9.6247 6.568398,9.619344" />
      <path d="M 6.568398,9.619344 C 6.524071,9.59758 6.446526,9.646599 6.378894,9.708084 C 6.307484,9.774922 6.240513,9.851037 6.177982,9.936428" />
      <line x1="6.22923" y1="10.932886" x2="5.36384" y2="10.348718" />
      <path d="M 6.177982,9.936428 C 5.945157,10.163639 5.637614,10.289133 5.36384,10.348718" />
      <path d="M 5.36384,10.348718 Q 5.299229,10.202001 5.242282,10.040698" />
      <path d="M 5.242282,10.040698 C 5.363352,9.811402 5.506579,9.572181 5.662988,9.36561 C 5.728016,9.279044 5.794846,9.203673 5.863478,9.139497" />
      <path d="M 5.863478,9.139497 C 5.966316,9.075089 6.070605,8.991388 6.148732,8.873682 C 6.191753,8.808375 6.220548,8.730934 6.207419,8.675825" />
      <path d="M 6.207419,8.675825 Q 6.168827,8.512795 6.139782,8.337752" />
      <line x1="6.185855" y1="8.580336" x2="5.713143" y2="8.388059" />
      <path d="M 6.139782,8.337752 Q 6.128053,8.280585 6.079802,8.26354" />
      <path d="M 6.079802,8.26354 Q 6.019853,8.24473 5.944986,8.268044 Q 5.827419,8.305758 5.713143,8.388059" />
      <line x1="6.14658" y1="8.876975" x2="4.898877" y2="8.324222" />
      <path d="M 5.713143,8.388059 C 5.559227,8.449625 5.386684,8.447111 5.221848,8.418982 C 5.110323,8.398971 5.002666,8.367385 4.898877,8.324222" />
      <path d="M 4.898877,8.324222 Q 4.881358,8.113314 4.873084,7.89572" />
      <path d="M 4.873084,7.89572 C 5.039197,7.708741 5.226013,7.529516 5.414766,7.400191 C 5.493411,7.345676 5.570626,7.305415 5.646409,7.279409" />
      <path d="M 5.646409,7.279409 C 5.752068,7.275074 5.863381,7.252281 5.960054,7.176793 C 6.013411,7.134683 6.057314,7.070501 6.059414,7.002599" />
      <path d="M 6.059414,7.002599 Q 6.065841,6.801901 6.082405,6.598978" />
      <line x1="5.989365" y1="6.42958" x2="5.697511" y2="6.38228" />
      <path d="M 6.082405,6.598978 C 6.084389,6.543354 6.067162,6.497848 6.030722,6.462461 C 5.98505,6.416737 5.922369,6.393836 5.860446,6.38391" />
      <path d="M 5.860446,6.38391 Q 5.780791,6.372266 5.697511,6.38228" />
      <path d="M 5.697511,6.38228 C 5.547611,6.352479 5.395731,6.247623 5.255779,6.12447 C 5.161328,6.040102 5.072673,5.947428 4.989813,5.846447" />
      <path d="M 4.989813,5.846447 Q 5.0234,5.619665 5.065694,5.395628" />
      <line x1="6.307859" y1="5.223702" x2="5.893834" y2="5.215888" />
      <path d="M 5.065694,5.395628 C 5.287676,5.28124 5.531816,5.19558 5.75398,5.196803" />
      <path d="M 5.75398,5.196803 Q 5.827184,5.197562 5.893834,5.215888" />
      <path d="M 5.893834,5.215888 C 5.974292,5.265498 6.058094,5.303397 6.145617,5.306855" />
      <path d="M 6.145617,5.306855 C 6.218852,5.310351 6.296844,5.278268 6.318839,5.194287" />
      <path d="M 6.318839,5.194287 Q 6.368813,5.0019 6.42719,4.817584" />
      <path d="M 6.42719,4.817584 C 6.455992,4.724289 6.400663,4.608686 6.335172,4.534619 C 6.27459,4.467385 6.207754,4.415374 6.134667,4.378588" />
      <path d="M 6.134667,4.378588 C 6.008367,4.262309 5.895529,4.076976 5.796271,3.884876 C 5.729553,3.754037 5.669401,3.620085 5.615817,3.483022" />
      <line x1="6.292703" y1="2.991355" x2="5.775988" y2="3.113162" />
      <path d="M 5.615817,3.483022 Q 5.692815,3.292318 5.775988,3.113162" />
      <line x1="7.117434" y1="3.318592" x2="6.549073" y2="3.421662" />
      <path d="M 5.775988,3.113162 C 6.045185,3.134192 6.340914,3.215393 6.549073,3.421662" />
      <path d="M 6.549073,3.421662 C 6.589682,3.484651 6.633271,3.541256 6.679842,3.591478 C 6.740359,3.655334 6.812942,3.709866 6.873223,3.702157" />
      <path d="M 6.873223,3.702157 Q 6.906126,3.697738 6.926261,3.665152" />
      <path d="M 6.926261,3.665152 Q 7.008333,3.525149 7.095151,3.401665" />
      <path d="M 7.095151,3.401665 C 7.138446,3.338675 7.112759,3.202244 7.069881,3.096517 C 7.029983,2.999763 6.981511,2.912927 6.924464,2.836007" />
      <path d="M 6.924464,2.836007 C 6.835943,2.657948 6.77158,2.432439 6.719504,2.213264 C 6.684824,2.064484 6.656148,1.918522 6.633478,1.775378" />
      <line x1="7.00153" y1="1.511213" x2="6.841246" y2="1.571209" />
      <path d="M 6.633478,1.775378 Q 6.736248,1.664441 6.841246,1.571209" />
      <line x1="7.468974" y1="2.30584" x2="7.462018" y2="2.307766" />
      <path d="M 6.841246,1.571209 C 7.075142,1.748632 7.318921,2.001746 7.462018,2.307766" />
      <path d="M 7.462018,2.307766 C 7.485892,2.385732 7.513362,2.461039 7.544428,2.533686 C 7.595105,2.651638 7.671836,2.78041 7.732539,2.769368" />
      <path d="M 7.732539,2.769368 L 7.742529,2.765501" />
      <path d="M 7.742529,2.765501 Q 7.837897,2.709955 7.933266,2.675592" />
      <path d="M 7.933266,2.675592 C 7.981075,2.657328 7.98317,2.530307 7.965018,2.416128 C 7.947865,2.31109 7.921516,2.208355 7.88597,2.107923" />
      <path d="M 7.88597,2.107923 C 7.812926,1.768916 7.805527,1.404323 7.809662,1.114717" />
      <path d="M 8.348978,3.18109 A 3.2736515093018457,1.4803604701861444 97.48584628082547 0,1 7.617412,9.682961 A 3.2736515093018457,1.4803604701861444 97.48584628082547 0,1 8.348978,3.18109" />
      <path d="M 0.006283,2.521821 Q -0.165599,3.118973 -0.391419,3.705674" />
      <path d="M -4.391025,3.710748 Q -4.622057,3.116978 -4.798083,2.512359" />
      <path d="M -13.088488,2.764656 L -13.093599,2.718865" />
      <path d="M -14.800208,2.342969 Q -15.06288,2.267945 -15.310505,2.189815" />
      <path d="M -15.310505,2.189815 L -15.311555,2.0127" />
      <path d="M -16.658782,1.69312 Q -16.857597,1.606784 -17.03922,1.518133" />
      <path d="M -17.03922,1.518133 L -17.009537,1.219726" />
      <path d="M -17.97224,0.965518 Q -18.099558,0.871188 -18.208199,0.775422" />
      <path d="M -18.208199,0.775422 Q -18.169539,0.566393 -18.123847,0.358175" />
      <path d="M -18.690106,0.188124 Q -18.741034,0.089424 -18.772518,-0.009777" />
      <path d="M -18.772518,-0.009777 Q -18.69713,-0.280297 -18.611058,-0.548824" />
      <path d="M -18.784794,-0.609188 L -18.760663,-0.685941" />
      <path d="M -18.760663,-0.685941 Q -18.739231,-0.746711 -18.710492,-0.807287" />
      <path d="M -18.710492,-0.807287 Q -18.310937,-1.899466 -17.770047,-2.93724" />
      <path d="M -17.770047,-2.93724 Q -17.705971,-3.032243 -17.622938,-3.126333" />
      <path d="M -17.622938,-3.126333 Q -18.041392,-2.245938 -18.252665,-1.395777" />
      <path d="M -18.252665,-1.395777 Q -18.147952,-1.491814 -18.024504,-1.586463" />
      <path d="M -18.024504,-1.586463 Q -17.549306,-2.657199 -16.975244,-3.667643" />
      <path d="M -16.975244,-3.667643 Q -16.837929,-3.75771 -16.682736,-3.84596" />
      <path d="M -16.682736,-3.84596 Q -17.013347,-2.983927 -17.114167,-2.141416" />
      <path d="M -17.114167,-2.141416 Q -16.936185,-2.230523 -16.740916,-2.317359" />
      <path d="M -16.740916,-2.317359 C -16.388908,-3.01273 -16.010235,-3.69272 -15.623164,-4.345421" />
      <path d="M -15.623164,-4.345421 Q -15.417886,-4.42709 -15.196497,-4.506109" />
      <path d="M -15.196497,-4.506109 Q -15.42656,-3.65782 -15.413054,-2.817449" />
      <path d="M -15.413054,-2.817449 Q -15.168641,-2.896202 -14.909056,-2.971889" />
      <path d="M -14.909056,-2.971889 C -14.533195,-3.649418 -14.144496,-4.310598 -13.765767,-4.944528" />
      <path d="M -13.765767,-4.944528 Q -13.500414,-5.01466 -13.221337,-5.081412" />
      <path d="M -13.221337,-5.081412 C -13.305254,-4.521606 -13.296106,-3.960456 -13.214697,-3.397897" />
      <path d="M -13.214697,-3.397897 Q -12.913247,-3.46327 -12.59932,-3.524898" />
      <path d="M -12.59932,-3.524898 C -12.214051,-4.183771 -11.830263,-4.826015 -11.47443,-5.441939" />
      <path d="M -11.47443,-5.441939 Q -11.1592,-5.49784 -10.83316,-5.549759" />
      <path d="M -10.83316,-5.549759 C -10.841741,-4.992221 -10.756915,-4.428767 -10.603578,-3.860454" />
      <path d="M -10.603578,-3.860454 Q -10.256676,-3.909935 -9.900472,-3.955136" />
      <path d="M -9.900472,-3.955136 C -9.5206,-4.595254 -9.156471,-5.219164 -8.837209,-5.81854" />
      <path d="M -8.837209,-5.81854 Q -8.484216,-5.858062 -8.123743,-5.893153" />
      <path d="M -8.123743,-5.893153 C -8.056658,-5.33418 -7.899414,-4.764793 -7.680041,-4.187344" />
      <path d="M -7.680041,-4.187344 Q -7.301018,-4.21903 -6.916225,-4.246069" />
      <path d="M -6.916225,-4.246069 C -6.556349,-4.868053 -6.225873,-5.474938 -5.955451,-6.059859" />
      <path d="M -5.955451,-6.059859 Q -5.57826,-6.081482 -5.197206,-6.098397" />
      <path d="M -5.197206,-6.098397 C -5.057034,-5.534344 -4.833415,-4.955621 -4.556437,-4.366005" />
      <path d="M -4.556437,-4.366005 Q -4.159858,-4.378679 -3.761264,-4.386515" />
      <path d="M -3.761264,-4.386515 C -3.435213,-4.991686 -3.15109,-5.583505 -2.939899,-6.156621" />
      <path d="M -2.939899,-6.156621 Q -2.553007,-6.159515 -2.166015,-6.157603" />
      <path d="M -2.166015,-6.157603 C -1.958142,-5.585018 -1.676742,-4.993916 -1.352803,-4.38957" />
      <path d="M -1.352803,-4.38957 Q -0.953908,-4.382746 -0.556831,-4.371078" />
      <path d="M -0.556831,-4.371078 C -0.277135,-4.961401 -0.050284,-5.540695 0.093559,-6.105108" />
      <path d="M 0.093559,-6.105108 Q 0.475286,-6.089161 0.853343,-6.068496" />
      <path d="M 0.853343,-6.068496 C 1.120928,-5.484257 1.449296,-4.878208 1.807748,-4.257135" />
      <path d="M 1.807748,-4.257135 Q 2.193628,-4.231075 2.573929,-4.200351" />
      <path d="M 2.573929,-4.200351 C 2.796521,-4.778361 2.957382,-5.348152 3.02835,-5.9073" />
      <path d="M 3.02835,-5.9073 Q 3.390242,-5.873125 3.744835,-5.834501" />
      <path d="M 3.744835,-5.834501 C 4.061849,-5.235932 4.424566,-4.612943 4.803755,-3.973789" />
      <path d="M 4.803755,-3.973789 Q 5.161792,-3.929493 5.510703,-3.880895" />
      <path d="M 5.510703,-3.880895 C 5.667637,-4.449602 5.756327,-5.013276 5.751692,-5.570798" />
      <path d="M 5.751692,-5.570798 Q 6.079841,-5.519709 6.397344,-5.46461" />
      <path d="M 6.397344,-5.46461 C 6.751605,-4.849587 7.134732,-4.208315 7.520086,-3.55042" />
      <path d="M 7.520086,-3.55042 Q 7.83652,-3.489592 8.140632,-3.424987" />
      <path d="M 8.140632,-3.424987 C 8.225877,-3.987758 8.238987,-4.548936 8.158927,-5.108534" />
      <path d="M 8.158927,-5.108534 Q 8.440724,-5.042493 8.708935,-4.973037" />
      <path d="M 8.708935,-4.973037 C 9.086828,-4.340067 9.475641,-3.679874 9.852352,-3.003299" />
      <path d="M 9.852352,-3.003299 Q 10.115024,-2.928275 10.362649,-2.850146" />
      <path d="M 10.362649,-2.850146 Q 10.382115,-3.690559 10.157549,-4.538272" />
      <path d="M 10.157549,-4.538272 Q 10.382162,-4.459818 10.590775,-4.378674" />
      <path d="M 10.590775,-4.378674 C 10.977779,-3.726955 11.357336,-3.047927 11.710926,-2.353451" />
      <path d="M 11.710926,-2.353451 Q 11.909741,-2.267115 12.091364,-2.178464" />
      <path d="M 12.091364,-2.178464 Q 11.996421,-3.020726 11.670749,-3.881927" />
      <path d="M 11.670749,-3.881927 Q 11.829549,-3.794075 11.970546,-3.704362" />
      <path d="M 11.970546,-3.704362 Q 12.545735,-2.695375 13.024384,-1.625849" />
      <path d="M 13.024384,-1.625849 Q 13.151701,-1.531519 13.260343,-1.435752" />
      <path d="M 13.260343,-1.435752 Q 13.05464,-2.285385 12.640378,-3.164723" />
      <path d="M 12.640378,-3.164723 Q 12.72726,-3.070849 12.795224,-2.976013" />
      <path d="M 12.795224,-2.976013 Q 13.338362,-1.939614 13.74225,-0.848454" />
      <path d="M 13.74225,-0.848454 Q 13.784086,-0.767376 13.812807,-0.685941" />
      <path d="M 13.812807,-0.685941 L 13.824662,-0.650554" />
      <path d="M 13.67088,-0.596692 Q 13.759347,-0.324955 13.836938,-0.051142" />
      <path d="M 13.836938,-0.051142 Q 13.809519,0.048133 13.762636,0.146957" />
      <path d="M 13.216996,0.311994 L 13.224833,0.347066" />
      <path d="M -17.464531,-3.517122 A 15.141754700203615,3.768439681827867 0.0 0,1 12.516675,-3.517122" />
      <line x1="7.974974" y1="2.567172" x2="7.66247" y2="2.641665" />
      <path d="M 7.798134,2.579567 L 7.66247,2.641665" />
      <path d="M 7.927657,2.516661 L 7.798134,2.579567" />
      <line x1="7.974505" y1="2.505215" x2="7.927657" y2="2.516661" />
      <path d="M 7.66247,2.641665 Q 7.283748,1.983374 6.868331,1.285994" />
      <path d="M 6.868331,1.285994 Q 6.722485,1.344018 6.565193,1.400159" />
      <line x1="6.990369" y1="2.936142" x2="6.719052" y2="2.996969" />
      <path d="M 6.565193,1.400159 Q 6.728585,2.192455 6.719052,2.996969" />
      <line x1="7.00656" y1="2.964112" x2="6.360971" y2="3.106695" />
      <path d="M 6.719052,2.996969 Q 6.545402,3.052921 6.360971,3.106695" />
      <path d="M 6.360971,3.106695 Q 5.956014,2.429194 5.548688,1.711646" />
      <path d="M 5.548688,1.711646 Q 5.360161,1.761474 5.161882,1.8089" />
      <line x1="5.695263" y1="3.293117" x2="5.157165" y2="3.409365" />
      <path d="M 5.161882,1.8089 Q 5.247624,2.607302 5.157165,3.409365" />
      <path d="M 5.157165,3.409365 L 5.140509,3.41297" />
      <path d="M 5.140509,3.41297 Q 4.934319,3.457514 4.719952,3.499597" />
      <path d="M 4.719952,3.499597 Q 4.304322,2.801981 3.920741,2.065047" />
      <path d="M 3.920741,2.065047 Q 3.696777,2.104764 3.465132,2.141651" />
      <line x1="4.675557" y1="3.424115" x2="3.302019" y2="3.738002" />
      <path d="M 3.465132,2.141651 Q 3.469927,2.942273 3.302019,3.738002" />
      <path d="M 3.302019,3.738002 Q 3.055552,3.773157 2.802477,3.805272" />
      <path d="M 2.802477,3.805272 Q 2.392146,3.08741 2.047051,2.332614" />
      <path d="M 2.047051,2.332614 Q 1.796256,2.360693 1.540148,2.385625" />
      <line x1="2.659326" y1="3.548439" x2="1.224907" y2="3.970251" />
      <path d="M 1.540148,2.385625 Q 1.463812,3.184493 1.224907,3.970251" />
      <path d="M 1.224907,3.970251 Q 0.955619,3.992763 0.682232,4.011973" />
      <path d="M 0.682232,4.011973 C 0.426286,3.520781 0.191624,3.017247 -0.000379,2.504066" />
      <path d="M -0.000379,2.504066 Q -0.268365,2.519429 -0.539096,2.531446" />
      <line x1="-0.391419" y1="3.705674" x2="-0.994349" y2="4.097185" />
      <path d="M -0.539096,2.531446 C -0.638623,3.059444 -0.797363,3.582973 -0.994349,4.097185" />
      <path d="M -0.994349,4.097185 L -1.559303,4.111758" />
      <path d="M -1.559303,4.111758 C -1.791191,3.608608 -1.992915,3.094377 -2.142865,2.572813" />
      <path d="M -2.142865,2.572813 L -2.692694,2.573511" />
      <path d="M -2.692694,2.573511 C -2.840288,3.095452 -3.040079,3.610192 -3.270464,4.113928" />
      <line x1="-4.391025" y1="3.710748" x2="-3.835986" y2="4.10079" />
      <path d="M -3.270464,4.113928 L -3.835986,4.10079" />
      <path d="M -3.835986,4.10079 C -4.034904,3.58708 -4.19594,3.063957 -4.298074,2.536215" />
      <path d="M -4.298074,2.536215 Q -4.569283,2.524885 -4.837885,2.510203" />
      <path d="M -4.837885,2.510203 C -5.027873,3.023868 -5.261037,3.527996 -5.51597,4.019836" />
      <line x1="-7.494553" y1="3.54821" x2="-6.060326" y2="3.979492" />
      <path d="M -5.51597,4.019836 Q -5.790129,4.00132 -6.060326,3.979492" />
      <path d="M -6.060326,3.979492 Q -6.302688,3.194345 -6.383182,2.395676" />
      <path d="M -6.383182,2.395676 Q -6.640299,2.371395 -6.89223,2.343954" />
      <path d="M -6.89223,2.343954 C -7.117312,2.847445 -7.374888,3.339544 -7.644571,3.818524" />
      <line x1="-9.525981" y1="3.435165" x2="-8.146842" y2="3.752525" />
      <path d="M -7.644571,3.818524 Q -7.898949,3.787053 -8.146842,3.752525" />
      <path d="M -8.146842,3.752525 Q -8.31862,2.957227 -8.31806,2.156598" />
      <path d="M -8.31806,2.156598 Q -8.551203,2.1203 -8.776783,2.081154" />
      <path d="M -8.776783,2.081154 Q -9.158718,2.819059 -9.574467,3.51773" />
      <line x1="-13.088488" y1="2.764656" x2="-10.015352" y2="3.428612" />
      <path d="M -9.574467,3.51773 Q -9.799287,3.474512 -10.015352,3.428612" />
      <path d="M -10.015352,3.428612 Q -10.109944,2.626784 -10.028351,1.828169" />
      <path d="M -10.028351,1.828169 Q -10.228561,1.781249 -10.41912,1.731902" />
      <line x1="-14.800208" y1="2.342969" x2="-11.231493" y2="3.129012" />
      <path d="M -10.41912,1.731902 Q -10.825593,2.450482 -11.231493,3.129012" />
      <line x1="-15.310505" y1="2.189815" x2="-11.594049" y2="3.020199" />
      <path d="M -11.231493,3.129012 Q -11.418116,3.075709 -11.594049,3.020199" />
      <path d="M -11.594049,3.020199 Q -11.60782,2.215715 -11.448329,1.42301" />
      <path d="M -11.448329,1.42301 Q -11.607913,1.36727 -11.756128,1.309619" />
      <line x1="-16.658782" y1="1.69312" x2="-12.551971" y2="2.667308" />
      <path d="M -11.756128,1.309619 Q -12.171518,2.008053 -12.551971,2.667308" />
      <line x1="-17.03922" y1="1.518133" x2="-12.822265" y2="2.542983" />
      <path d="M -12.551971,2.667308 Q -12.693226,2.605968 -12.822265,2.542983" />
      <line x1="-12.755279" y1="0.862071" x2="-12.523427" y2="0.956691" />
      <path d="M -12.822265,2.542983 Q -12.754686,1.739818 -12.523427,0.956691" />
      <path d="M -12.523427,0.956691 Q -12.636251,0.894274 -12.736426,0.830534" />
      <line x1="-17.97224" y1="0.965518" x2="-13.485156" y2="2.150362" />
      <path d="M -12.736426,0.830534 Q -13.14477,1.508777 -13.485156,2.150362" />
      <line x1="-18.208199" y1="0.775422" x2="-13.6528" y2="2.015302" />
      <path d="M -13.485156,2.150362 Q -13.575613,2.083342 -13.6528,2.015302" />
      <line x1="-13.362672" y1="0.382578" x2="-13.212328" y2="0.447132" />
      <path d="M -13.6528,2.015302 Q -13.506468,1.21738 -13.212328,0.447132" />
      <path d="M -13.212328,0.447132 Q -13.274056,0.380436 -13.322343,0.313058" />
      <line x1="-18.690106" y1="0.188124" x2="-13.995185" y2="1.598039" />
      <path d="M -13.322343,0.313058 Q -13.707948,0.971839 -13.995185,1.598039" />
      <line x1="-18.772518" y1="-0.009777" x2="-14.053737" y2="1.457435" />
      <path d="M -13.995185,1.598039 Q -14.031368,1.527915 -14.053737,1.457435" />
      <path d="M -14.053737,1.457435 Q -13.91291,0.951705 -13.719846,0.458209" />
      <line x1="-18.784794" y1="-0.609188" x2="-14.062459" y2="1.031566" />
      <path d="M -13.812377,0.420363 Q -13.917784,0.65233 -14.005976,0.880724" />
      <path d="M -14.010719,0.89304 L -14.062459,1.031566" />
      <line x1="-18.710492" y1="-0.807287" x2="-14.009669" y2="0.89082" />
      <path d="M -14.062459,1.031566 L -14.045315,0.977034" />
      <path d="M -14.045315,0.977034 Q -14.030087,0.933858 -14.009669,0.89082" />
      <line x1="-17.770047" y1="-2.93724" x2="-17.722023" y2="-2.912138" />
      <path d="M -14.009669,0.89082 Q -13.922234,0.651519 -13.824827,0.415271" />
      <line x1="-18.252665" y1="-1.395777" x2="-13.684392" y2="0.47271" />
      <line x1="-18.024504" y1="-1.586463" x2="-13.522289" y2="0.337232" />
      <path d="M -13.684392,0.47271 Q -13.609996,0.404478 -13.522289,0.337232" />
      <line x1="-16.975244" y1="-3.667643" x2="-16.788359" y2="-3.555192" />
      <path d="M -13.522289,0.337232 Q -13.392909,0.044762 -13.252034,-0.242205" />
      <line x1="-17.114167" y1="-2.141416" x2="-12.875514" y2="-0.05705" />
      <line x1="-16.740916" y1="-2.317359" x2="-12.610326" y2="-0.182054" />
      <path d="M -12.875514,-0.05705 Q -12.749061,-0.120359 -12.610326,-0.182054" />
      <line x1="-15.623164" y1="-4.345421" x2="-15.291799" y2="-4.108453" />
      <path d="M -12.610326,-0.182054 Q -12.429713,-0.538352 -12.238415,-0.885206" />
      <line x1="-15.413054" y1="-2.817449" x2="-11.666908" y2="-0.537358" />
      <line x1="-14.909056" y1="-2.971889" x2="-11.308828" y2="-0.647084" />
      <path d="M -11.666908,-0.537358 Q -11.493258,-0.59331 -11.308828,-0.647084" />
      <line x1="-13.765767" y1="-4.944528" x2="-13.275466" y2="-4.510212" />
      <path d="M -11.308828,-0.647084 Q -11.064517,-1.086269 -10.815901,-1.509406" />
      <line x1="-13.214697" y1="-3.397897" x2="-10.105021" y2="-0.949754" />
      <line x1="-12.59932" y1="-3.524898" x2="-9.667809" y2="-1.039986" />
      <path d="M -10.105021,-0.949754 Q -9.890847,-0.9962 -9.667809,-1.039986" />
      <line x1="-11.47443" y1="-5.441939" x2="-10.765131" y2="-4.614479" />
      <path d="M -9.667809,-1.039986 Q -9.33886,-1.599364 -9.026527,-2.130395" />
      <line x1="-10.603578" y1="-3.860454" x2="-8.249875" y2="-1.278391" />
      <line x1="-9.900472" y1="-3.955136" x2="-7.750333" y2="-1.345661" />
      <path d="M -8.249875,-1.278391 Q -8.003409,-1.313546 -7.750333,-1.345661" />
      <line x1="-8.837209" y1="-5.81854" x2="-6.994907" y2="-2.669571" />
      <path d="M -7.750333,-1.345661 C -7.480165,-1.800915 -7.221585,-2.24401 -6.994907,-2.669571" />
      <path d="M -6.994907,-2.669571 L -6.835224,-2.687072" />
      <line x1="-7.680041" y1="-4.187344" x2="-6.172763" y2="-1.51064" />
      <line x1="-6.916225" y1="-4.246069" x2="-5.630088" y2="-1.552363" />
      <path d="M -6.172763,-1.51064 Q -5.903475,-1.533152 -5.630088,-1.552363" />
      <line x1="-5.955451" y1="-6.059859" x2="-4.947477" y2="-2.841023" />
      <path d="M -5.630088,-1.552363 C -5.374142,-1.99472 -5.139481,-2.425724 -4.947477,-2.841023" />
      <line x1="-5.197206" y1="-6.098397" x2="-4.40876" y2="-2.868403" />
      <path d="M -4.947477,-2.841023 Q -4.679491,-2.856386 -4.40876,-2.868403" />
      <line x1="-4.556437" y1="-4.366005" x2="-3.953507" y2="-1.637574" />
      <path d="M -4.40876,-2.868403 C -4.309233,-2.467921 -4.150493,-2.056912 -3.953507,-1.637574" />
      <line x1="-3.761264" y1="-4.386515" x2="-3.388553" y2="-1.652147" />
      <path d="M -3.953507,-1.637574 L -3.388553,-1.652147" />
      <line x1="-2.939899" y1="-6.156621" x2="-2.804991" y2="-2.90977" />
      <path d="M -3.388553,-1.652147 C -3.156666,-2.082546 -2.954941,-2.502854 -2.804991,-2.90977" />
      <line x1="-2.166015" y1="-6.157603" x2="-2.255162" y2="-2.910468" />
      <path d="M -2.804991,-2.90977 L -2.255162,-2.910468" />
      <line x1="-1.352803" y1="-4.38957" x2="-1.677392" y2="-1.654317" />
      <path d="M -2.255162,-2.910468 C -2.107568,-2.503929 -1.907778,-2.084131 -1.677392,-1.654317" />
      <line x1="-0.556831" y1="-4.371078" x2="-1.11187" y2="-1.641179" />
      <path d="M -1.677392,-1.654317 L -1.11187,-1.641179" />
      <line x1="0.093559" y1="-6.105108" x2="-0.649782" y2="-2.873171" />
      <path d="M -1.11187,-1.641179 C -0.912952,-2.061019 -0.751916,-2.472434 -0.649782,-2.873171" />
      <line x1="0.853343" y1="-6.068496" x2="-0.109972" y2="-2.847159" />
      <path d="M -0.649782,-2.873171 Q -0.378573,-2.861841 -0.109972,-2.847159" />
      <line x1="1.807748" y1="-4.257135" x2="0.568113" y2="-1.560225" />
      <path d="M -0.109972,-2.847159 C 0.080017,-2.432345 0.313181,-2.001935 0.568113,-1.560225" />
      <line x1="2.573929" y1="-4.200351" x2="1.11247" y2="-1.519881" />
      <path d="M 0.568113,-1.560225 Q 0.842273,-1.54171 1.11247,-1.519881" />
      <line x1="3.744835" y1="-5.834501" x2="1.944374" y2="-2.680911" />
      <path d="M 1.756376,-2.700874 L 1.944374,-2.680911" />
      <line x1="4.803755" y1="-3.973789" x2="2.696714" y2="-1.358914" />
      <path d="M 1.944374,-2.680911 C 2.169456,-2.255922 2.427032,-1.813483 2.696714,-1.358914" />
      <line x1="5.510703" y1="-3.880895" x2="3.198986" y2="-1.292914" />
      <path d="M 2.696714,-1.358914 Q 2.951092,-1.327442 3.198986,-1.292914" />
      <line x1="6.397344" y1="-5.46461" x2="5.67209" y2="-4.604358" />
      <line x1="7.520086" y1="-3.55042" x2="4.626611" y2="-1.058119" />
      <path d="M 3.976594,-2.163451 Q 4.292357,-1.625419 4.626611,-1.058119" />
      <line x1="8.140632" y1="-3.424987" x2="5.067496" y2="-0.969001" />
      <path d="M 4.626611,-1.058119 Q 4.851431,-1.014901 5.067496,-0.969001" />
      <line x1="8.708935" y1="-4.973037" x2="8.209507" y2="-4.525052" />
      <line x1="9.852352" y1="-3.003299" x2="6.283637" y2="-0.669401" />
      <path d="M 5.783785,-1.541444 Q 6.035562,-1.113674 6.283637,-0.669401" />
      <line x1="10.362649" y1="-2.850146" x2="6.646193" y2="-0.560588" />
      <path d="M 6.283637,-0.669401 Q 6.47026,-0.616098 6.646193,-0.560588" />
      <line x1="10.590775" y1="-4.378674" x2="10.25166" y2="-4.133731" />
      <line x1="11.710926" y1="-2.353451" x2="7.604115" y2="-0.207697" />
      <path d="M 7.226439,-0.918055 Q 7.420543,-0.567729 7.604115,-0.207697" />
      <line x1="12.091364" y1="-2.178464" x2="7.874409" y2="-0.083372" />
      <path d="M 7.604115,-0.207697 Q 7.745369,-0.146357 7.874409,-0.083372" />
      <line x1="11.970546" y1="-3.704362" x2="11.776323" y2="-3.586542" />
      <line x1="13.024384" y1="-1.625849" x2="8.5373" y2="0.309249" />
      <path d="M 8.262182,-0.276028 Q 8.405505,0.013778 8.5373,0.309249" />
      <line x1="13.260343" y1="-1.435752" x2="8.704944" y2="0.444309" />
      <path d="M 8.5373,0.309249 Q 8.627757,0.376269 8.704944,0.444309" />
      <line x1="12.795224" y1="-2.976013" x2="12.740105" y2="-2.947012" />
      <line x1="13.74225" y1="-0.848454" x2="9.047329" y2="0.861572" />
      <path d="M 8.858431,0.380963 Q 8.957921,0.61969 9.047329,0.861572" />
      <line x1="13.824662" y1="-0.650554" x2="9.105881" y2="1.002176" />
      <path d="M 9.047329,0.861572 Q 9.077053,0.919176 9.097458,0.977034" />
      <path d="M 9.097458,0.977034 L 9.105881,1.002176" />
      <path d="M 9.105881,1.002176 L 9.082661,0.938102" />
      <path d="M 8.912661,0.513182 L 8.854892,0.382424" />
      <line x1="13.836938" y1="-0.051142" x2="9.114603" y2="1.428045" />
      <path d="M 8.771525,0.41683 Q 8.969624,0.916072 9.114603,1.428045" />
      <line x1="13.762636" y1="0.146957" x2="9.061813" y2="1.568791" />
      <path d="M 9.114603,1.428045 Q 9.095122,1.498579 9.061813,1.568791" />
      <path d="M 9.061813,1.568791 Q 8.777656,0.943315 8.393646,0.28551" />
      <line x1="8.434999" y1="0.356997" x2="8.289128" y2="0.419857" />
      <path d="M 8.393646,0.28551 Q 8.348122,0.353008 8.289128,0.419857" />
      <line x1="8.81851" y1="1.964444" x2="8.736536" y2="1.986901" />
      <path d="M 8.289128,0.419857 Q 8.586244,1.189355 8.736536,1.986901" />
      <line x1="8.80821" y1="2.060263" x2="8.574433" y2="2.122379" />
      <path d="M 8.736536,1.986901 Q 8.66214,2.055133 8.574433,2.122379" />
      <path d="M 8.574433,2.122379 Q 8.2365,1.481654 7.828955,0.804446" />
      <line x1="7.848997" y1="0.837988" x2="7.621134" y2="0.931137" />
      <path d="M 7.828955,0.804446 Q 7.731396,0.868437 7.621134,0.931137" />
      <path d="M 7.621134,0.931137 Q 7.855899,1.713673 7.927657,2.516661" />
      <path d="M 7.039419,0.592967 A 10.75790168497759,2.677397990229446 0.0 0,1 -13.019601,-0.127906" />
      <path d="M 8.134766,-0.212724 A 10.75790168497759,2.677397990229446 0.0 0,1 7.039419,0.592967" />
      <path d="M 14.498574,2.534781 L 9.584682,3.26529" />
      <path d="M 14.690477,5.47601 L 9.721025,5.354972" />
      <path d="M 13.95783,10.027322 L 9.200494,8.588584" />
      <path d="M 9.579809,13.900113 L 6.090002,11.340122" />
      <path d="M 6.315165,5.206273 L 5.753981,5.196803" />
      <path d="M -18.760663,-0.685941 A 17.269916039170543,17.269916039170543 97.48584628082548 0,1 -17.464531,-3.517122" />
      <path d="M 12.516675,-3.517122 A 17.269916039170543,17.269916039170543 97.48584628082548 0,1 13.812807,-0.685941" />
      <path d="M 5.69526,3.293125 L 5.140509,3.41297" />
    </g>
  </g>
</svg>