<?xml version='1.0' encoding='utf-8'?>
<svg width="87.734317mm" height="100.090001mm" viewBox="-18.197858 -17.494483 26.118967 29.797319" version="1.1" xmlns="http://www.w3.org/2000/svg">
  <g transform="scale(1,-1)" stroke-linecap="round">
    <g fill="none" stroke="rgb(0,0,0)" stroke-width="0.026793472658748936" id="Visible">
      <line x1="7.010541" y1="-2.361374" x2="7.010378" y2="-2.361285" />
      <path d="M 2.984121,-1.246145 Q 2.814307,-1.433136 2.642555,-1.634189" />
      <line x1="2.656831" y1="-2.215188" x2="2.656793" y2="-2.215157" />
      <path d="M 2.386688,-2.307789 Q 2.37222,-2.144604 2.357864,-1.969445" />
      <line x1="2.476982" y1="-2.38561" x2="2.386688" y2="-2.307789" />
      <path d="M 2.386688,-2.307789 C 2.702501,-2.217714 3.060484,-2.049877 3.343446,-1.821454" />
      <line x1="3.371453" y1="-1.841442" x2="3.343446" y2="-1.821454" />
      <path d="M 3.343446,-1.821454 C 3.379228,-1.792408 3.447127,-1.740182 3.485449,-1.730014" />
      <line x1="7.24513" y1="-4.322575" x2="7.245076" y2="-4.322538" />
      <path d="M 2.916873,-2.76227 L 2.767067,-2.941789" />
      <line x1="2.640062" y1="-3.425714" x2="2.639908" y2="-3.425565" />
      <path d="M 2.515174,-3.49812 Q 2.500818,-3.394263 2.486349,-3.276255" />
      <line x1="2.516081" y1="-3.499025" x2="2.515174" y2="-3.49812" />
      <path d="M 2.515174,-3.49812 L 2.564322,-3.470377" />
      <path d="M 2.607338,-3.445291 C 2.806153,-3.327656 3.01592,-3.17983 3.210657,-3.015383" />
      <line x1="2.671792" y1="-4.101162" x2="2.671709" y2="-4.101075" />
      <path d="M 2.638299,-4.127987 Q 2.625034,-4.090536 2.611439,-4.03772" />
      <line x1="6.038734" y1="-7.728371" x2="2.638299" y2="-4.127987" />
      <path d="M 6.038734,-7.728371 L 6.051923,-7.717867" />
      <path d="M 2.638299,-4.127987 Q 2.784708,-4.01155 2.936627,-3.875214" />
      <path d="M 7.586246,-6.220828 L 7.586263,-6.220853" />
      <line x1="7.58575" y1="-6.221493" x2="7.585728" y2="-6.221475" />
      <path d="M 6.509314,-7.496217 Q 6.331411,-7.675612 6.161094,-7.833226" />
      <line x1="6.161094" y1="-7.833226" x2="2.724608" y2="-4.201949" />
      <path d="M 6.161094,-7.833226 Q 6.177814,-7.810576 6.193793,-7.765909" />
      <path d="M 2.747674,-4.154465 Q 2.736402,-4.185973 2.724608,-4.201949" />
      <line x1="6.193793" y1="-7.765909" x2="2.747674" y2="-4.154465" />
      <path d="M 6.193793,-7.765909 C 6.622633,-7.341531 7.106725,-6.799667 7.489195,-6.339231" />
      <path d="M 2.747674,-4.154465 Q 2.861547,-4.041604 2.979273,-3.917494" />
      <line x1="7.489195" y1="-6.339231" x2="7.392003" y2="-6.258204" />
      <path d="M 7.489195,-6.339231 C 7.555959,-6.260415 7.707857,-6.071584 7.715598,-6.044347" />
      <line x1="7.715598" y1="-6.044347" x2="7.643619" y2="-5.986973" />
      <path d="M 7.715598,-6.044347 Q 7.72864,-5.982315 7.74094,-5.901682" />
      <line x1="7.74094" y1="-5.901682" x2="7.737482" y2="-5.898968" />
      <path d="M 7.74094,-5.901682 L 7.740253,-5.899096" />
      <path d="M 7.740253,-5.899096 Q 7.733753,-5.896862 7.700845,-5.928738" />
      <path d="M 7.606899,-6.02609 Q 7.562026,-6.074711 7.529896,-6.110102" />
      <path d="M 7.529896,-6.110102 Q 7.352376,-6.306293 7.154832,-6.494684" />
      <path d="M 6.682702,-6.910674 Q 6.483907,-7.071851 6.293699,-7.203487" />
      <line x1="6.293699" y1="-7.203487" x2="2.818145" y2="-3.757748" />
      <path d="M 6.293699,-7.203487 Q 6.306728,-7.084855 6.318791,-6.94547" />
      <path d="M 2.835844,-3.575751 Q 2.827335,-3.674069 2.818145,-3.757748" />
      <line x1="6.318791" y1="-6.94547" x2="2.835844" y2="-3.575751" />
      <path d="M 6.318791,-6.94547 C 6.740794,-6.470666 7.217121,-5.892072 7.594572,-5.445037" />
      <path d="M 2.835844,-3.575751 Q 3.050454,-3.333085 3.272645,-3.06879" />
      <line x1="7.594572" y1="-5.445037" x2="7.306272" y2="-5.226307" />
      <path d="M 7.594572,-5.445037 C 7.660496,-5.369026 7.810186,-5.181585 7.81653,-5.124388" />
      <line x1="7.81653" y1="-5.124388" x2="7.608113" y2="-4.973917" />
      <path d="M 7.81653,-5.124388 Q 7.825944,-4.98173 7.834449,-4.822185" />
      <line x1="7.834449" y1="-4.822185" x2="7.816272" y2="-4.809491" />
      <path d="M 7.834449,-4.822185 Q 7.834529,-4.813282 7.83004,-4.810274" />
      <path d="M 7.83004,-4.810274 Q 7.819614,-4.804337 7.793614,-4.819604" />
      <path d="M 7.699888,-4.890513 Q 7.655245,-4.929412 7.623352,-4.959677" />
      <line x1="7.053121" y1="-4.549083" x2="7.052939" y2="-4.548952" />
      <path d="M 7.623352,-4.959677 Q 7.447058,-5.124713 7.250139,-5.267985" />
      <path d="M 6.778773,-5.567305 Q 6.580006,-5.675915 6.389435,-5.754099" />
      <line x1="6.389435" y1="-5.754099" x2="2.885674" y2="-2.735391" />
      <path d="M 6.389435,-5.754099 Q 6.397884,-5.54757 6.405208,-5.322966" />
      <path d="M 2.8968,-2.431282 Q 2.891634,-2.589711 2.885674,-2.735391" />
      <line x1="6.405208" y1="-5.322966" x2="2.8968" y2="-2.431282" />
      <path d="M 6.405208,-5.322966 C 6.820879,-4.82923 7.290358,-4.25235 7.664009,-3.848386" />
      <path d="M 2.8968,-2.431282 C 3.113445,-2.173963 3.348435,-1.887455 3.56431,-1.638406" />
      <line x1="7.664009" y1="-3.848386" x2="7.042441" y2="-3.45467" />
      <path d="M 7.664009,-3.848386 C 7.729306,-3.78022 7.87725,-3.606629 7.881967,-3.523365" />
      <line x1="7.881967" y1="-3.523365" x2="7.463978" y2="-3.273063" />
      <path d="M 7.881967,-3.523365 Q 7.887112,-3.309801 7.891243,-3.082217" />
      <line x1="7.891243" y1="-3.082217" x2="7.838611" y2="-3.052455" />
      <path d="M 7.891243,-3.082217 Q 7.890714,-3.060134 7.877816,-3.053381" />
      <path d="M 7.877816,-3.053381 Q 7.866715,-3.047466 7.849242,-3.050278" />
      <path d="M 7.755323,-3.090106 Q 7.710697,-3.116727 7.678906,-3.139871" />
      <path d="M 7.678906,-3.139871 Q 7.50307,-3.262883 7.305892,-3.351695" />
      <path d="M 6.833172,-3.514956 Q 6.63354,-3.564025 6.441776,-3.583836" />
      <line x1="6.441776" y1="-3.583836" x2="2.922594" y2="-1.204548" />
      <path d="M 6.441776,-3.583836 Q 6.44507,-3.303484 6.447156,-3.008968" />
      <path d="M 2.926389,-0.799052 Q 2.924917,-1.006795 2.922594,-1.204548" />
      <line x1="6.447156" y1="-3.008968" x2="2.926389" y2="-0.799052" />
      <path d="M 6.447156,-3.008968 C 6.857428,-2.529083 7.321444,-1.992246 7.692774,-1.658087" />
      <path d="M 2.926389,-0.799052 C 3.215783,-0.460554 3.543087,-0.081884 3.805013,0.153822" />
      <line x1="7.692774" y1="-1.658087" x2="3.805013" y2="0.153822" />
      <path d="M 7.692774,-1.658087 C 7.7577,-1.602273 7.904478,-1.454046 7.90745,-1.350384" />
      <path d="M 3.805013,0.153822 C 3.834829,0.179502 3.888086,0.231693 3.923139,0.285681" />
      <line x1="7.90745" y1="-1.350384" x2="6.861347" y2="-0.894651" />
      <path d="M 7.90745,-1.350384 Q 7.907975,-1.080469 7.90745,-0.800354" />
      <line x1="7.90745" y1="-0.800354" x2="7.771996" y2="-0.7469" />
      <path d="M 7.90745,-0.800354 Q 7.90476,-0.754938 7.871814,-0.743826" />
      <path d="M 7.871814,-0.743826 L 7.864331,-0.741355" />
      <path d="M 7.769483,-0.747551 Q 7.724627,-0.760177 7.692774,-0.774701" />
      <path d="M 7.692774,-0.774701 Q 7.516595,-0.847684 7.318289,-0.876404" />
      <path d="M 6.842193,-0.893493 Q 6.640862,-0.880101 6.447156,-0.840598" />
      <line x1="6.447156" y1="-0.840598" x2="2.926389" y2="0.730456" />
      <path d="M 6.447156,-0.840598 Q 6.44507,-0.505528 6.441776,-0.161171" />
      <path d="M 2.922594,1.209705 Q 2.924917,0.966805 2.926389,0.730456" />
      <line x1="6.441776" y1="-0.161171" x2="2.922594" y2="1.209705" />
      <path d="M 6.441776,-0.161171 C 6.847952,0.273024 7.308261,0.734218 7.678906,0.976595" />
      <path d="M 2.922594,1.209705 C 3.209099,1.515974 3.533788,1.841288 3.795231,2.012253" />
      <line x1="7.678906" y1="0.976595" x2="3.795231" y2="2.012253" />
      <path d="M 7.678906,0.976595 C 7.743744,1.016392 7.890013,1.129467 7.891243,1.24647" />
      <path d="M 3.795231,2.012253 C 3.840966,2.040325 3.94414,2.120085 3.945007,2.202616" />
      <line x1="7.891243" y1="1.24647" x2="3.945007" y2="2.202616" />
      <path d="M 7.891243,1.24647 Q 7.887112,1.554342 7.881967,1.867897" />
      <path d="M 3.945007,2.202616 Q 3.942093,2.41978 3.938464,2.640953" />
      <line x1="7.881967" y1="1.867897" x2="3.938464" y2="2.640953" />
      <path d="M 7.881967,1.867897 C 7.879572,1.934547 7.829472,1.962983 7.775429,1.973191" />
      <path d="M 7.775429,1.973191 Q 7.710521,1.982564 7.664009,1.97465" />
      <path d="M 3.938464,2.640953 L 3.938343,2.643431" />
      <path d="M 7.664009,1.97465 Q 7.486663,1.95629 7.28638,1.989219" />
      <path d="M 7.216096,2.001735 C 6.948487,2.054193 6.667748,2.161417 6.405208,2.288669" />
      <path d="M 3.468778,2.735359 C 3.280014,2.772361 3.081988,2.847994 2.8968,2.937754" />
      <line x1="6.405208" y1="2.288669" x2="2.8968" y2="2.937754" />
      <path d="M 6.405208,2.288669 Q 6.397884,2.655621 6.389435,3.026353" />
      <path d="M 2.885674,3.458096 L 2.8968,2.937754" />
      <line x1="6.389435" y1="3.026353" x2="2.885674" y2="3.458096" />
      <path d="M 6.389435,3.026353 C 6.793095,3.386131 7.251708,3.741239 7.623352,3.87611" />
      <path d="M 2.885674,3.458096 C 3.170405,3.711873 3.493897,3.962356 3.756045,4.057491" />
      <line x1="7.623352" y1="3.87611" x2="3.756045" y2="4.057491" />
      <path d="M 7.623352,3.87611 C 7.688389,3.897318 7.834843,3.96785 7.834449,4.090226" />
      <path d="M 3.756045,4.057491 C 3.80192,4.07245 3.905225,4.122201 3.904947,4.208522" />
      <line x1="7.834449" y1="4.090226" x2="3.904947" y2="4.208522" />
      <path d="M 7.834449,4.090226 L 7.81653,4.740701" />
      <path d="M 3.904947,4.208522 L 3.892307,4.667349" />
      <line x1="7.81653" y1="4.740701" x2="3.892307" y2="4.667349" />
      <path d="M 7.81653,4.740701 C 7.810186,4.862873 7.660496,4.909822 7.594572,4.920819" />
      <path d="M 3.892307,4.667349 C 3.887833,4.753526 3.782245,4.786642 3.735744,4.7944" />
      <line x1="7.594572" y1="4.920819" x2="3.735744" y2="4.7944" />
      <path d="M 7.594572,4.920819 C 7.217121,4.996707 6.740794,5.28464 6.318791,5.590709" />
      <path d="M 3.735744,4.7944 C 3.469501,4.847929 3.133513,5.051029 2.835844,5.266921" />
      <line x1="6.318791" y1="5.590709" x2="2.835844" y2="5.266921" />
      <path d="M 6.318791,5.590709 L 6.293699,6.336378" />
      <path d="M 2.818145,5.792895 L 2.835844,5.266921" />
      <line x1="6.293699" y1="6.336378" x2="2.818145" y2="5.792895" />
      <path d="M 6.293699,6.336378 C 6.643058,6.563075 7.032131,6.76218 7.374921,6.824487" />
      <path d="M 7.374921,6.824487 Q 7.454678,6.839018 7.529896,6.842862" />
      <path d="M 2.818145,5.792895 C 3.064573,5.952801 3.339014,6.093244 3.580808,6.137194" />
      <path d="M 7.529896,6.842862 Q 7.554857,6.843109 7.589058,6.848857" />
      <path d="M 7.589058,6.848857 C 7.657982,6.861199 7.742579,6.896854 7.74094,6.987086" />
      <path d="M 3.793781,6.175774 Q 3.836526,6.197706 3.838988,6.251886" />
      <line x1="7.74094" y1="6.987086" x2="3.838988" y2="6.251886" />
      <path d="M 7.74094,6.987086 Q 7.72864,7.306772 7.715598,7.622281" />
      <path d="M 3.838988,6.251886 L 3.821113,6.699935" />
      <line x1="7.715598" y1="7.622281" x2="3.821113" y2="6.699935" />
      <path d="M 7.715598,7.622281 C 7.707857,7.741668 7.555959,7.832893 7.489195,7.863029" />
      <path d="M 3.821113,6.699935 C 3.815652,6.784148 3.708508,6.848495 3.661414,6.869753" />
      <line x1="7.489195" y1="7.863029" x2="3.661414" y2="6.869753" />
      <path d="M 7.489195,7.863029 C 7.106725,8.049867 6.622633,8.451996 6.193793,8.840495" />
      <path d="M 3.661414,6.869753 C 3.391631,7.001543 3.050165,7.285193 2.747674,7.559229" />
      <line x1="6.193793" y1="8.840495" x2="2.747674" y2="7.559229" />
      <path d="M 6.193793,8.840495 Q 6.177814,9.195723 6.161094,9.543333" />
      <path d="M 2.724608,8.054992 Q 2.736402,7.809798 2.747674,7.559229" />
      <line x1="6.161094" y1="9.543333" x2="2.724608" y2="8.054992" />
      <path d="M 6.161094,9.543333 Q 6.351797,9.612874 6.551512,9.658198" />
      <path d="M 7.026453,9.716906 Q 7.225472,9.71985 7.404908,9.67467" />
      <path d="M 7.404908,9.67467 Q 7.437412,9.665068 7.482737,9.659838" />
      <path d="M 7.571749,9.667756 Q 7.616067,9.682551 7.617088,9.739634" />
      <line x1="7.617088" y1="9.739634" x2="7.435845" y2="9.667137" />
      <path d="M 7.617088,9.739634 Q 7.601832,10.032372 7.58605,10.31626" />
      <path d="M 3.735648,8.492873 L 3.729733,8.600194" />
      <line x1="7.58605" y1="10.31626" x2="3.729733" y2="8.600194" />
      <path d="M 7.58605,10.31626 C 7.577235,10.424722 7.422821,10.55369 7.355059,10.600774" />
      <path d="M 3.729733,8.600194 C 3.723515,8.6767 3.614596,8.76767 3.566799,8.800881" />
      <line x1="7.355059" y1="10.600774" x2="3.566799" y2="8.800881" />
      <path d="M 7.355059,10.600774 C 6.966693,10.885034 6.474446,11.372969 6.038734,11.816558" />
      <path d="M 3.566799,8.800881 C 3.292856,9.00139 2.945639,9.345566 2.638299,9.658462" />
      <line x1="6.038734" y1="11.816558" x2="2.638299" y2="9.658462" />
      <path d="M 6.038734,11.816558 Q 6.019927,12.128978 6.000655,12.428668" />
      <path d="M 2.611439,10.090227 Q 2.625034,9.878834 2.638299,9.658462" />
      <line x1="6.000655" y1="12.428668" x2="2.611439" y2="10.090227" />
      <path d="M 6.000655,12.428668 Q 6.192667,12.439432 6.394125,12.422255" />
      <path d="M 6.873782,12.333661 Q 7.075007,12.275583 7.256906,12.178553" />
      <path d="M 7.256906,12.178553 Q 7.289848,12.159966 7.335748,12.140391" />
      <path d="M 7.431482,12.116827 Q 7.445356,12.117382 7.455081,12.122944" />
      <path d="M 7.455081,12.122944 Q 7.472045,12.13213 7.471333,12.160288" />
      <line x1="7.471333" y1="12.160288" x2="7.402135" y2="12.119387" />
      <path d="M 7.471333,12.160288 Q 7.45416,12.406129 7.436715,12.639051" />
      <line x1="7.436715" y1="12.639051" x2="6.926243" y2="12.317632" />
      <path d="M 7.436715,12.639051 C 7.427222,12.729189 7.270153,12.886797 7.201306,12.94748" />
      <line x1="7.201306" y1="12.94748" x2="6.410052" y2="12.420825" />
      <path d="M 7.201306,12.94748 C 6.806568,13.308995 6.306334,13.848499 5.86418,14.316085" />
      <path d="M 3.324732,10.582374 C 3.071115,10.828302 2.77946,11.142101 2.515174,11.421559" />
      <line x1="5.86418" y1="14.316085" x2="2.515174" y2="11.421559" />
      <path d="M 5.86418,14.316085 Q 5.843827,14.564406 5.823316,14.795753" />
      <path d="M 2.486349,11.759903 Q 2.500818,11.596718 2.515174,11.421559" />
      <line x1="5.823316" y1="14.795753" x2="2.486349" y2="11.759903" />
      <path d="M 5.823316,14.795753 Q 6.017372,14.747415 6.221283,14.669333" />
      <path d="M 6.707199,14.440483 Q 6.911225,14.325765 7.095974,14.183874" />
      <line x1="6.455594" y1="13.691232" x2="6.455446" y2="13.691118" />
      <path d="M 7.095974,14.183874 Q 7.129425,14.157637 7.176036,14.125151" />
      <path d="M 7.273246,14.069494 Q 7.297343,14.06026 7.308047,14.06727" />
      <path d="M 7.308047,14.06727 Q 7.314302,14.07173 7.313608,14.084085" />
      <line x1="7.313608" y1="14.084085" x2="7.288269" y2="14.06512" />
      <path d="M 7.313608,14.084085 Q 7.295689,14.266275 7.277769,14.432357" />
      <line x1="7.277769" y1="14.432357" x2="7.025826" y2="14.236397" />
      <path d="M 7.277769,14.432357 C 7.268041,14.498023 7.10836,14.673215 7.038414,14.743223" />
      <line x1="7.038414" y1="14.743223" x2="6.683994" y2="14.45351" />
      <path d="M 7.038414,14.743223 C 6.637262,15.156562 6.129752,15.709884 5.682027,16.168738" />
      <path d="M 2.92705,12.160837 C 2.746827,12.352193 2.561405,12.549282 2.386688,12.728369" />
      <line x1="5.682027" y1="16.168738" x2="2.386688" y2="12.728369" />
      <path d="M 5.682027,16.168738 Q 5.661516,16.336037 5.641163,16.483275" />
      <path d="M 2.357864,12.950234 Q 2.37222,12.846377 2.386688,12.728369" />
      <line x1="5.641163" y1="16.483275" x2="2.357864" y2="12.950234" />
      <path d="M 5.641163,16.483275 C 6.057772,16.263918 6.537128,15.9273 6.933082,15.553975" />
      <line x1="6.572007" y1="15.232781" x2="6.57194" y2="15.232722" />
      <path d="M 6.933082,15.553975 Q 6.96707,15.521944 7.01447,15.478857" />
      <path d="M 7.113403,15.395103 Q 7.145656,15.370732 7.153453,15.375001" />
      <path d="M 7.153453,15.375001 L 7.154662,15.379922" />
      <line x1="7.154662" y1="15.379922" x2="7.148252" y2="15.374407" />
      <path d="M 7.154662,15.379922 Q 7.137218,15.486044 7.120044,15.573969" />
      <line x1="7.120044" y1="15.573969" x2="7.01311" y2="15.480085" />
      <path d="M 7.120044,15.573969 C 7.110541,15.610681 6.948469,15.791204 6.877483,15.865627" />
      <line x1="6.877483" y1="15.865627" x2="6.733434" y2="15.733287" />
      <path d="M 6.877483,15.865627 C 6.470312,16.301826 5.956734,16.830272 5.504689,17.248261" />
      <path d="M 2.577801,13.186901 Q 2.416486,13.34629 2.261598,13.489834" />
      <line x1="5.504689" y1="17.248261" x2="2.261598" y2="13.489834" />
      <path d="M 5.504689,17.248261 Q 5.485416,17.323137 5.466609,17.376231" />
      <path d="M 2.234738,13.580101 Q 2.248004,13.54265 2.261598,13.489834" />
      <line x1="5.466609" y1="17.376231" x2="2.234738" y2="13.580101" />
      <path d="M 5.466609,17.376231 Q 5.66635,17.224571 5.876587,17.045682" />
      <path d="M 6.377895,16.594563 Q 6.588508,16.394584 6.779329,16.195484" />
      <path d="M 6.779329,16.195484 Q 6.813846,16.159911 6.862058,16.109256" />
      <path d="M 6.962846,16.003315 Q 7.002779,15.961346 7.005377,15.959368" />
      <path d="M 7.005377,15.959368 L 7.005327,15.959489" />
      <path d="M 7.005327,15.959489 Q 6.993815,15.97614 6.982576,15.982654" />
      <path d="M 5.864629,17.055837 Q 5.598735,17.286035 5.344249,17.481086" />
      <path d="M 2.238186,13.58415 L 2.148429,13.654062" />
      <line x1="5.344249" y1="17.481086" x2="2.148429" y2="13.654062" />
      <path d="M 2.125364,13.606579 Q 2.136635,13.638086 2.148429,13.654062" />
      <line x1="2.158585" y1="13.646275" x2="2.158558" y2="13.646243" />
      <path d="M 2.419275,13.323891 L 2.567273,13.175572" />
      <path d="M 2.401099,12.996758 Q 2.224069,13.115822 2.054893,13.209862" />
      <line x1="2.275402" y1="13.464232" x2="2.054893" y2="13.209862" />
      <path d="M 2.037194,13.027864 Q 2.045703,13.126183 2.054893,13.209862" />
      <line x1="2.149886" y1="13.155446" x2="2.149747" y2="13.155288" />
      <path d="M 2.33573,12.715501 Q 2.519341,12.520648 2.700409,12.328582" />
      <path d="M 2.641917,11.901433 C 2.425112,12.025735 2.197589,12.122584 1.987364,12.187504" />
      <line x1="2.417204" y1="12.629149" x2="1.987364" y2="12.187504" />
      <path d="M 1.976238,11.883395 Q 1.981404,12.041824 1.987364,12.187504" />
      <line x1="2.206133" y1="12.110607" x2="2.206041" y2="12.110516" />
      <path d="M 2.278985,11.563231 Q 2.46511,11.366579 2.648331,11.181844" />
      <path d="M 3.003395,10.839898 Q 3.044912,10.797735 3.078093,10.752067" />
      <path d="M 3.111376,10.678253 Q 3.10848,10.558044 3.106039,10.431484" />
      <path d="M 3.004708,10.361569 Q 2.962209,10.380482 2.932262,10.398233" />
      <line x1="3.107843" y1="10.521182" x2="2.932262" y2="10.398233" />
      <path d="M 2.932262,10.398233 C 2.635972,10.565895 2.269686,10.644798 1.950444,10.656661" />
      <line x1="2.619934" y1="11.210434" x2="1.950444" y2="10.656661" />
      <path d="M 1.946649,10.251165 Q 1.948121,10.458909 1.950444,10.656661" />
      <path d="M 2.252905,9.945607 Q 2.441077,9.760918 2.625901,9.596456" />
      <path d="M 2.983498,9.304367 C 3.035063,9.258826 3.092177,9.195786 3.093401,9.145493" />
      <path d="M 3.093401,9.145493 Q 3.093031,8.955102 3.093401,8.757517" />
      <path d="M 3.069158,8.717867 C 3.031293,8.699325 2.960095,8.717364 2.92248,8.729908" />
      <line x1="3.093308" y1="8.81584" x2="2.92248" y2="8.729908" />
      <path d="M 2.92248,8.729908 C 2.626673,8.823446 2.263002,8.798181 1.946649,8.721657" />
      <line x1="2.979316" y1="9.308029" x2="1.946649" y2="8.721657" />
      <path d="M 1.950444,8.242409 Q 1.948121,8.485309 1.946649,8.721657" />
      <line x1="2.920453" y1="8.730548" x2="2.920447" y2="8.730545" />
      <path d="M 2.259271,7.972867 Q 2.44888,7.813088 2.634647,7.68046" />
      <line x1="6.622101" y1="8.466889" x2="6.622083" y2="8.466883" />
      <path d="M 6.701374,8.401621 L 6.701376,8.401503" />
      <path d="M 3.105709,7.249577 L 3.111376,6.875407" />
      <path d="M 3.078092,6.815627 Q 3.060282,6.804244 3.038173,6.798505" />
      <path d="M 3.038173,6.798505 Q 2.983173,6.786507 2.94277,6.790592" />
      <line x1="3.096882" y1="6.832541" x2="2.94277" y2="6.790592" />
      <path d="M 2.94277,6.790592 Q 2.742052,6.796632 2.515769,6.731721" />
      <path d="M 2.515769,6.731721 Q 2.397393,6.698385 2.27912,6.651754" />
      <line x1="3.002467" y1="6.791895" x2="3.002466" y2="6.791895" />
      <path d="M 1.987364,5.994018 L 1.976238,6.51436" />
      <path d="M 2.29765,5.779449 Q 2.487991,5.65583 2.673975,5.564426" />
      <path d="M 6.7666,5.289675 L 6.766601,5.289641" />
      <path d="M 3.151716,5.054556 L 3.157534,4.849011" />
      <path d="M 3.125405,4.777029 Q 3.092809,4.746832 3.051733,4.731009" />
      <path d="M 2.700407,4.604896 Q 2.519351,4.517518 2.335752,4.396542" />
      <path d="M 2.054893,3.659218 L 2.037194,4.185193" />
      <path d="M 2.365453,3.514823 Q 2.55475,3.436582 2.739292,3.392999" />
      <path d="M 2.880238,3.367052 L 2.887749,3.366066" />
      <path d="M 3.197731,2.737081 Q 3.165803,2.698491 3.125309,2.671679" />
      <path d="M 2.778585,2.455571 Q 2.600081,2.324587 2.419287,2.16441" />
      <path d="M 2.148429,1.397122 Q 2.136635,1.642316 2.125364,1.892884" />
      <line x1="2.923747" y1="1.083533" x2="2.148429" y2="1.397122" />
      <path d="M 2.148429,1.397122 C 2.440478,1.319356 2.767982,1.281192 3.044724,1.338998" />
      <path d="M 2.877534,0.462276 Q 2.701815,0.296261 2.523934,0.10744" />
      <path d="M 2.261598,-0.638114 Q 2.248004,-0.426721 2.234738,-0.206348" />
      <line x1="2.550283" y1="-0.828846" x2="2.261598" y2="-0.638114" />
      <path d="M 2.261598,-0.638114 C 2.580459,-0.636099 2.942723,-0.569001 3.229929,-0.406957" />
      <line x1="3.254067" y1="-0.420497" x2="3.229929" y2="-0.406957" />
      <path d="M 3.229929,-0.406957 Q 3.256743,-0.391022 3.295102,-0.374206" />
      <path d="M 3.114266,10.792368 L 3.111376,10.678253" />
      <path d="M 3.093543,9.207861 L 3.093401,9.145493" />
      <path d="M 3.093401,8.757517 Q 3.093898,8.492471 3.095724,8.215722" />
      <path d="M 3.111376,6.875407 Q 3.118681,6.430274 3.128805,5.973245" />
      <path d="M 3.157534,4.849011 Q 3.173975,4.280396 3.194096,3.716442" />
      <path d="M 3.229407,2.800025 Q 3.255372,2.173616 3.284987,1.581861" />
      <path d="M 3.34136,0.545286 Q 3.366439,0.120812 3.392808,-0.265541" />
      <path d="M 3.498085,-1.593632 L 3.508522,-1.703088" />
      <path d="M 3.485464,-1.729996 C 3.447015,-1.740468 3.380222,-1.791505 3.343446,-1.821454" />
      <path d="M 3.343446,-1.821454 C 3.040046,-2.062655 2.706525,-2.214025 2.386688,-2.307789" />
      <path d="M 2.357864,-1.969445 C 2.562483,-1.726578 2.77432,-1.477112 2.984128,-1.246151" />
      <path d="M 3.210613,-3.015346 Q 2.865102,-3.304504 2.515174,-3.49812" />
      <path d="M 2.486349,-3.276255 Q 2.69895,-3.023865 2.916993,-2.762374" />
      <path d="M 2.93663,-3.875217 Q 2.786798,-4.009221 2.638299,-4.127987" />
      <path d="M 2.611439,-4.03772 Q 2.725312,-3.912742 2.841302,-3.780707" />
      <path d="M 2.9792,-3.917422 Q 2.862921,-4.039623 2.747674,-4.154465" />
      <path d="M 3.27277,-3.068898 Q 3.05377,-3.328735 2.835844,-3.575751" />
      <path d="M 3.564245,-1.638363 C 3.345347,-1.892157 3.118342,-2.167242 2.8968,-2.431282" />
      <path d="M 3.923144,0.285679 C 3.888222,0.231759 3.835613,0.180414 3.805013,0.153822" />
      <path d="M 3.805013,0.153822 C 3.524283,-0.101235 3.21951,-0.457326 2.926389,-0.799052" />
      <path d="M 3.945007,2.202616 C 3.94306,2.1185 3.841686,2.041242 3.795231,2.012253" />
      <path d="M 3.795231,2.012253 C 3.515078,1.825732 3.212825,1.518172 2.922594,1.209705" />
      <path d="M 3.938338,2.643432 L 3.938464,2.640953" />
      <path d="M 3.904947,4.208522 C 3.904153,4.120888 3.802635,4.073178 3.756045,4.057491" />
      <path d="M 3.756045,4.057491 C 3.475199,3.951615 3.174147,3.712898 2.885674,3.458096" />
      <path d="M 2.8968,2.937754 Q 3.18336,2.795703 3.469176,2.735281" />
      <path d="M 3.735744,4.7944 C 3.782999,4.786026 3.886685,4.754677 3.892307,4.667349" />
      <path d="M 3.838988,6.251886 Q 3.836184,6.197278 3.793804,6.175778" />
      <path d="M 3.580712,6.137177 C 3.330093,6.089799 3.06941,5.954793 2.818145,5.792895" />
      <path d="M 2.835844,5.266921 C 3.137295,5.050621 3.450288,4.855833 3.735744,4.7944" />
      <path d="M 3.661414,6.869753 C 3.709278,6.847672 3.814479,6.785603 3.821113,6.699935" />
      <path d="M 2.747674,7.559229 C 3.053996,7.283585 3.372134,7.014516 3.661414,6.869753" />
      <path d="M 3.566799,8.800881 C 3.615381,8.766698 3.722317,8.678357 3.729733,8.600194" />
      <path d="M 2.638299,9.658462 C 2.949529,9.342875 3.273045,9.018508 3.566799,8.800881" />
      <path d="M 2.515174,11.421559 C 2.784765,11.136041 3.062574,10.837918 3.324569,10.582262" />
      <path d="M 2.386688,12.728369 Q 2.656468,12.449578 2.927161,12.160938" />
      <path d="M 2.261598,13.489834 Q 2.418751,13.343527 2.577811,13.186911" />
      <path d="M 2.567386,13.175693 Q 2.343372,13.402704 2.125364,13.606579" />
      <path d="M 2.148429,13.654062 L 2.238047,13.583987" />
      <path d="M 2.891008,12.128046 C 2.608732,12.423196 2.316229,12.740058 2.037194,13.027864" />
      <path d="M 2.054893,13.209862 Q 2.226651,13.113756 2.401134,12.996796" />
      <path d="M 3.111376,10.678253 C 3.109268,10.738593 2.994947,10.851735 2.94277,10.898" />
      <path d="M 2.94277,10.898 C 2.627728,11.187174 2.293006,11.549194 1.976238,11.883395" />
      <path d="M 1.987364,12.187504 Q 2.312846,12.087695 2.641951,11.901464" />
      <path d="M 2.932262,10.398233 Q 2.962688,10.380148 3.00472,10.361577" />
      <path d="M 3.093401,9.145493 C 3.090042,9.220172 2.974929,9.31553 2.92248,9.353024" />
      <path d="M 2.92248,9.353024 C 2.605629,9.590444 2.267244,9.927553 1.946649,10.251165" />
      <path d="M 1.950444,10.656661 C 2.273931,10.641959 2.614832,10.57394 2.932262,10.398233" />
      <path d="M 2.92248,8.729908 C 2.974932,8.712758 3.090033,8.684256 3.093401,8.757517" />
      <path d="M 2.745618,7.604787 C 2.482998,7.777495 2.211628,8.006668 1.950444,8.242409" />
      <path d="M 1.946649,8.721657 C 2.267245,8.7964 2.605628,8.825855 2.92248,8.729908" />
      <path d="M 2.94277,6.790592 C 2.994949,6.78751 3.109259,6.792183 3.111376,6.875407" />
      <path d="M 2.828295,5.496585 C 2.552518,5.605551 2.264415,5.791272 1.987364,5.994018" />
      <path d="M 1.976238,6.51436 C 2.293007,6.674071 2.627726,6.799639 2.94277,6.790592" />
      <path d="M 2.991749,4.712447 C 3.043472,4.723742 3.156587,4.761489 3.157534,4.849011" />
      <path d="M 2.887749,3.366067 C 2.615313,3.402633 2.329961,3.517734 2.054893,3.659218" />
      <path d="M 2.037194,4.185193 C 2.349461,4.419606 2.679621,4.633376 2.991749,4.712447" />
      <path d="M 3.066079,2.637094 C 3.11423,2.660675 3.214631,2.721895 3.227659,2.800616" />
      <path d="M 3.044831,1.33911 C 2.754982,1.280708 2.445762,1.319727 2.148429,1.397122" />
      <path d="M 2.125364,1.892884 C 2.432759,2.186642 2.757776,2.474693 3.066079,2.637094" />
      <path d="M 3.295092,-0.374217 Q 3.257143,-0.390737 3.229929,-0.406957" />
      <path d="M 3.229929,-0.406957 C 2.922012,-0.576508 2.584548,-0.633336 2.261598,-0.638114" />
      <path d="M 2.234738,-0.206348 C 2.515873,0.10449 2.811249,0.420505 3.095792,0.654864" />
      <path d="M 7.651037,-6.23107 Q 7.685136,-6.18916 7.715598,-6.044347" />
      <path d="M 7.74094,-5.901682 Q 7.783744,-5.620689 7.81653,-5.124388" />
      <path d="M 7.834449,-4.822185 Q 7.864041,-4.266532 7.881967,-3.523365" />
      <path d="M 7.891243,-3.082217 Q 7.905605,-2.289771 7.90745,-1.350384" />
      <path d="M 7.90745,-0.800354 Q 7.905605,0.17488 7.891243,1.24647" />
      <path d="M 7.881967,1.867897 Q 7.864041,2.95946 7.834449,4.090226" />
      <path d="M 7.81653,4.740701 Q 7.783744,5.874204 7.74094,6.987086" />
      <path d="M 7.715598,7.622281 Q 7.670186,8.720477 7.617088,9.739634" />
      <path d="M 7.58605,10.31626 Q 7.531108,11.304311 7.471333,12.160288" />
      <path d="M 7.436715,12.639051 Q 7.375986,13.449621 7.313608,14.084085" />
      <path d="M 7.277769,14.432357 Q 7.215392,15.010207 7.154662,15.379922" />
      <path d="M 7.120044,15.573969 Q 7.06027,15.87972 7.005327,15.959489" />
      <path d="M 6.713512,13.424251 L 6.713508,13.424087" />
      <path d="M 6.684129,11.178005 L 6.684129,11.177745" />
      <path d="M 6.826683,3.392609 L 6.826684,3.392559" />
      <path d="M 6.955538,0.366432 L 6.955546,0.366266" />
      <path d="M 7.108394,-2.252615 L 7.108412,-2.252889" />
      <path d="M 7.272441,-4.290613 L 7.272444,-4.290644" />
      <path d="M 6.051885,-7.717826 L 6.038734,-7.728371" />
      <path d="M 7.715598,-6.044347 C 7.712227,-6.056272 7.678841,-6.102338 7.639457,-6.153323 C 7.589829,-6.217656 7.528317,-6.292642 7.489195,-6.339231" />
      <path d="M 7.489195,-6.339231 C 7.073407,-6.838081 6.629264,-7.333159 6.193793,-7.765909" />
      <path d="M 6.161094,-7.833226 Q 6.300524,-7.703427 6.441382,-7.563899" />
      <path d="M 7.529896,-6.110102 C 7.555284,-6.08196 7.584832,-6.049793 7.618542,-6.013601 C 7.677947,-5.950189 7.741692,-5.884242 7.74094,-5.901682" />
      <path d="M 7.81653,-5.124388 C 7.813787,-5.14989 7.781203,-5.202996 7.742551,-5.257404 C 7.693847,-5.326052 7.633196,-5.400077 7.594572,-5.445037" />
      <path d="M 7.594572,-5.445037 C 7.184289,-5.931269 6.74734,-6.462708 6.318791,-6.94547" />
      <path d="M 6.293699,-7.203487 C 6.70313,-6.917332 7.123561,-6.555737 7.529896,-6.110102" />
      <path d="M 7.623352,-4.959677 C 7.690263,-4.897419 7.831998,-4.767334 7.834449,-4.822185" />
      <path d="M 7.881967,-3.523365 C 7.874304,-3.611408 7.731231,-3.777331 7.664009,-3.848386" />
      <path d="M 7.664009,-3.848386 C 7.532863,-3.990456 7.399494,-4.141202 7.263899,-4.300623 C 6.980419,-4.63249 6.691281,-4.981791 6.405208,-5.322966" />
      <path d="M 6.389435,-5.754099 C 6.799571,-5.581868 7.219753,-5.333181 7.623352,-4.959677" />
      <path d="M 7.678906,-3.139871 C 7.74563,-3.093053 7.887144,-2.999987 7.891243,-3.082217" />
      <path d="M 7.90745,-1.350384 C 7.901584,-1.458696 7.759597,-1.599533 7.692774,-1.658087" />
      <path d="M 7.692774,-1.658087 C 7.562464,-1.776152 7.430178,-1.906885 7.295915,-2.050286 C 7.015186,-2.348269 6.729512,-2.677744 6.447156,-3.008968" />
      <path d="M 6.441776,-3.583836 C 6.8544,-3.536389 7.276286,-3.416655 7.678906,-3.139871" />
      <path d="M 7.692774,-0.774701 C 7.759607,-0.74637 7.901567,-0.696361 7.90745,-0.800354" />
      <path d="M 7.891243,1.24647 C 7.88716,1.125257 7.74562,1.018801 7.678906,0.976595" />
      <path d="M 7.678906,0.976595 C 7.548862,0.890303 7.417108,0.788209 7.283642,0.670313 C 7.004548,0.425926 6.721318,0.138124 6.441776,-0.161171" />
      <path d="M 6.447156,-0.840598 C 6.863879,-0.92029 7.289306,-0.936766 7.692774,-0.774701" />
      <path d="M 7.664009,1.97465 C 7.731242,1.982706 7.874287,1.986555 7.881967,1.867897" />
      <path d="M 7.834449,4.090226 C 7.832014,3.964361 7.690253,3.899235 7.623352,3.87611" />
      <path d="M 7.623352,3.87611 C 7.492985,3.827192 7.361174,3.760413 7.227918,3.675772 C 6.949232,3.501036 6.667259,3.273917 6.389435,3.026353" />
      <path d="M 6.405208,2.288669 C 6.691876,2.150137 6.981621,2.041988 7.265668,1.992643 C 7.400658,1.968177 7.533438,1.962179 7.664009,1.97465" />
      <path d="M 7.594572,4.920819 C 7.662468,4.908194 7.807161,4.865925 7.81653,4.740701" />
      <path d="M 7.74094,6.987086 C 7.739905,6.865134 7.597269,6.845472 7.529896,6.842862" />
      <path d="M 7.529896,6.842862 C 7.39864,6.834373 7.266188,6.807177 7.132539,6.761273 C 6.853005,6.667499 6.571017,6.515935 6.293699,6.336378" />
      <path d="M 6.318791,5.590709 C 6.609835,5.379844 6.903837,5.192333 7.191569,5.059408 C 7.328324,4.995188 7.462658,4.948992 7.594572,4.920819" />
      <path d="M 7.489195,7.863029 C 7.557971,7.830727 7.704764,7.745524 7.715598,7.622281" />
      <path d="M 7.617088,9.739634 C 7.61711,9.629894 7.473006,9.656731 7.404908,9.67467" />
      <path d="M 7.404908,9.67467 C 6.994266,9.773097 6.571647,9.687579 6.161094,9.543333" />
      <path d="M 6.193793,8.840495 C 6.489568,8.572263 6.788322,8.318772 7.080419,8.111926 C 7.21926,8.012614 7.355519,7.929649 7.489195,7.863029" />
      <path d="M 7.355059,10.600774 C 7.424874,10.551138 7.574074,10.429113 7.58605,10.31626" />
      <path d="M 7.471333,12.160288 C 7.471997,12.070226 7.325931,12.14143 7.256906,12.178553" />
      <path d="M 7.256906,12.178553 C 6.840677,12.39576 6.414085,12.446822 6.000655,12.428668" />
      <path d="M 6.038734,11.816558 C 6.33927,11.509834 6.642949,11.208246 6.939793,10.942174 C 7.080899,10.814822 7.219321,10.701022 7.355059,10.600774" />
      <path d="M 7.201306,12.94748 C 7.272245,12.884036 7.423999,12.733809 7.436715,12.639051" />
      <path d="M 7.313608,14.084085 C 7.314455,14.019827 7.166068,14.130241 7.095974,14.183874" />
      <path d="M 7.095974,14.183874 C 6.673262,14.504196 6.24118,14.687456 5.823316,14.795753" />
      <path d="M 5.86418,14.316085 C 6.169184,13.992368 6.477623,13.663842 6.779275,13.357273 C 6.92267,13.210845 7.063347,13.074247 7.201306,12.94748" />
      <path d="M 7.038414,14.743223 C 7.110488,14.670439 7.264764,14.502551 7.277769,14.432357" />
      <path d="M 7.154662,15.379922 C 7.156398,15.363172 7.124947,15.384672 7.085992,15.416736 C 7.036905,15.457204 6.973675,15.515699 6.933082,15.553975" />
      <path d="M 6.933082,15.553975 C 6.503431,15.954718 6.064716,16.256784 5.641163,16.483275" />
      <path d="M 5.682027,16.168738 C 6.136718,15.702572 6.602332,15.193458 7.038414,14.743223" />
      <path d="M 6.877483,15.865627 C 6.904969,15.836661 6.937377,15.801325 6.974706,15.759617 C 7.040647,15.685605 7.113233,15.598715 7.120044,15.573969" />
      <path d="M 7.005327,15.959489 C 7.006762,15.956956 6.974591,15.990951 6.934882,16.032762 C 6.884844,16.085526 6.820564,16.15275 6.779329,16.195484" />
      <path d="M 6.779329,16.195484 C 6.342756,16.648475 5.896717,17.04786 5.466609,17.376231" />
      <path d="M 5.504689,17.248261 C 5.963813,16.822376 6.434917,16.338755 6.877483,15.865627" />
      <path d="M 5.344249,17.481086 Q 5.608567,17.277469 5.874747,17.047246" />
      <line x1="2.313568" y1="-3.599454" x2="2.299247" y2="-3.58463" />
      <path d="M 2.299247,-3.58463 Q 2.32336,-3.46224 2.334058,-3.339303" />
      <line x1="2.502236" y1="-3.507358" x2="2.334058" y2="-3.339303" />
      <path d="M 2.334058,-3.339303 C 2.34084,-3.291413 2.467544,-3.180953 2.521229,-3.135829" />
      <line x1="2.56755" y1="-3.179862" x2="2.521229" y2="-3.135829" />
      <path d="M 2.521229,-3.135829 Q 2.713428,-2.973061 2.911718,-2.757829" />
      <path d="M 3.127627,-1.978312 Q 2.945896,-2.081509 2.756514,-2.199951" />
      <path d="M 2.38039,-2.452277 Q 2.334331,-2.481291 2.294161,-2.495454" />
      <path d="M 2.251134,-2.495335 L 2.246472,-2.488185" />
      <line x1="2.258944" y1="-2.499419" x2="2.246472" y2="-2.488185" />
      <path d="M 2.246472,-2.488185 Q 2.210614,-2.366623 2.161534,-2.246393" />
      <line x1="2.389338" y1="-2.44667" x2="2.161534" y2="-2.246393" />
      <path d="M 2.161534,-2.246393 C 2.145804,-2.199134 2.259914,-2.071695 2.309873,-2.019264" />
      <line x1="2.365855" y1="-2.065919" x2="2.309873" y2="-2.019264" />
      <path d="M 2.309873,-2.019264 Q 2.356977,-1.969442 2.403941,-1.914728" />
      <path d="M 2.440065,-1.871941 C 2.614071,-1.662377 2.781301,-1.411238 2.923101,-1.160372" />
      <path d="M 2.914077,-0.596265 L 2.993894,-0.719959" />
      <line x1="3.036522" y1="-0.670283" x2="2.914077" y2="-0.596265" />
      <path d="M 2.595665,-0.798844 Q 2.396726,-0.928879 2.199446,-1.074582" />
      <line x1="2.494015" y1="-1.80538" x2="2.493909" y2="-1.805296" />
      <path d="M 1.81997,-1.380181 Q 1.773385,-1.415727 1.728449,-1.435892" />
      <path d="M 1.668162,-1.438842 L 1.665603,-1.436416" />
      <line x1="2.336218" y1="-1.99101" x2="2.336147" y2="-1.990952" />
      <line x1="1.671002" y1="-1.440882" x2="1.665603" y2="-1.436416" />
      <path d="M 1.665603,-1.436416 Q 1.572217,-1.323966 1.466705,-1.214636" />
      <line x1="1.733995" y1="-1.433485" x2="1.466705" y2="-1.214636" />
      <path d="M 1.466705,-1.214636 C 1.429532,-1.171106 1.523272,-1.029013 1.566102,-0.97004" />
      <line x1="1.952543" y1="-1.268626" x2="1.566102" y2="-0.97004" />
      <path d="M 1.566102,-0.97004 C 1.811391,-0.626868 2.010954,-0.148418 2.129965,0.278056" />
      <line x1="2.494816" y1="0.076637" x2="2.129965" y2="0.278056" />
      <path d="M 1.841016,0.514942 Q 1.992021,0.398784 2.129965,0.278056" />
      <line x1="2.547563" y1="0.132332" x2="1.841016" y2="0.514942" />
      <path d="M 1.511811,0.2667 Q 1.309221,0.108355 1.117489,-0.064773" />
      <line x1="1.584072" y1="-0.944562" x2="1.584018" y2="-0.944521" />
      <path d="M 0.760521,-0.422293 Q 0.716586,-0.464223 0.669943,-0.490846" />
      <line x1="1.464528" y1="-1.211813" x2="1.46452" y2="-1.211807" />
      <path d="M 0.596223,-0.500999 Q 0.451675,-0.405325 0.29692,-0.314345" />
      <line x1="2.329278" y1="-1.998531" x2="2.329224" y2="-1.998486" />
      <path d="M 0.29692,-0.314345 L 0.293147,-0.311579" />
      <path d="M 0.277305,-0.282822 C 0.264824,-0.22273 0.313866,-0.112209 0.340602,-0.059661" />
      <line x1="0.780898" y1="-0.40261" x2="0.340602" y2="-0.059661" />
      <path d="M 0.340602,-0.059661 C 0.525672,0.313853 0.628428,0.813619 0.661078,1.250786" />
      <line x1="2.62838" y1="0.216371" x2="0.661078" y2="1.250786" />
      <path d="M 0.267491,1.439549 Q 0.469488,1.34828 0.661078,1.250786" />
      <line x1="0.659631" y1="1.232125" x2="0.659603" y2="1.23214" />
      <path d="M -0.050074,1.145702 Q -0.242507,0.959508 -0.415626,0.760658" />
      <path d="M -0.725694,0.356184 C -0.773858,0.297735 -0.839563,0.237286 -0.88879,0.254319" />
      <path d="M -0.88879,0.254319 Q -1.07465,0.326698 -1.268101,0.393127" />
      <path d="M -1.285365,0.404165 C -1.332721,0.450615 -1.3017,0.587969 -1.283112,0.649833" />
      <line x1="-0.849298" y1="0.254851" x2="-1.283112" y2="0.649833" />
      <path d="M -1.283112,0.649833 C -1.170872,1.044309 -1.171926,1.551245 -1.227863,1.98677" />
      <line x1="0.047672" y1="1.239338" x2="-1.227863" y2="1.98677" />
      <path d="M -1.699264,2.114547 Q -1.460041,2.054386 -1.227863,1.98677" />
      <line x1="-1.208484" y1="1.807806" x2="-1.208565" y2="1.807856" />
      <path d="M -1.983551,1.778257 Q -2.152712,1.566573 -2.295417,1.34546" />
      <path d="M -2.537574,0.901984 Q -2.567614,0.849429 -2.608236,0.810277" />
      <path d="M -2.688234,0.778065 Q -2.902741,0.822215 -3.121705,0.859567" />
      <path d="M -3.165904,0.892112 L -3.165908,0.892119" />
      <path d="M -3.165908,0.892119 C -3.201992,0.947994 -3.199591,1.056034 -3.194384,1.11009" />
      <line x1="-3.010035" y1="0.840024" x2="-3.194384" y2="1.11009" />
      <path d="M -2.4076,1.158188 Q -2.465161,1.373208 -2.533233,1.577128" />
      <path d="M -3.194384,1.11009 C -3.162625,1.514719 -3.267417,2.014193 -3.408128,2.435853" />
      <line x1="-2.533233" y1="1.577128" x2="-3.408128" y2="2.435853" />
      <path d="M -3.925219,2.493935 Q -3.665072,2.468983 -3.408128,2.435853" />
      <path d="M -4.156863,2.121239 Q -4.291217,1.88817 -4.393781,1.64978" />
      <path d="M -4.551285,1.178615 Q -4.57093,1.122664 -4.604096,1.078199" />
      <path d="M -4.679482,1.034545 Q -4.908017,1.047459 -5.137571,1.053188" />
      <path d="M -5.207612,1.102763 C -5.242584,1.157712 -5.258032,1.243149 -5.262967,1.289745" />
      <path d="M -5.351771,1.688776 Q -5.427672,1.934378 -5.537469,2.177336" />
      <path d="M -6.258679,2.551859 Q -5.995337,2.563815 -5.731136,2.567429" />
      <path d="M -6.730493,1.373543 Q -6.804405,1.186284 -6.867712,0.993659" />
      <path d="M -6.367114,2.29642 L -6.368758,2.292249" />
      <path d="M -6.381435,2.259734 C -6.510888,1.92483 -6.6105,1.560866 -6.622763,1.249612" />
      <line x1="-6.704481" y1="1.013069" x2="-6.622763" y2="1.249612" />
      <path d="M -6.622763,1.249612 C -6.623549,1.211742 -6.628942,1.148302 -6.646803,1.09521" />
      <path d="M -6.646803,1.09521 L -6.661219,1.060744" />
      <path d="M -6.726832,1.006282 Q -6.95382,0.987079 -7.178322,0.960794" />
      <path d="M -7.256061,0.999426 Q -7.292754,1.041731 -7.317033,1.096506" />
      <path d="M -7.511905,1.557753 Q -7.632376,1.789569 -7.782639,2.014247" />
      <line x1="-8.621263" y1="1.885586" x2="-8.621258" y2="1.885591" />
      <path d="M -8.540621,2.284371 Q -8.29203,2.332422 -8.038579,2.372533" />
      <line x1="-9.750756" y1="1.405076" x2="-8.540621" y2="2.284371" />
      <path d="M -8.540621,2.284371 C -8.646522,1.855433 -8.708151,1.351047 -8.641955,0.949309" />
      <line x1="-8.916938" y1="0.639009" x2="-8.641955" y2="0.949309" />
      <path d="M -8.641955,0.949309 C -8.631277,0.890568 -8.61803,0.766401 -8.660671,0.714985" />
      <path d="M -8.660671,0.714985 L -8.660711,0.714938" />
      <path d="M -8.690761,0.695201 Q -8.900734,0.645189 -9.104883,0.588683" />
      <path d="M -9.104883,0.588683 C -9.158622,0.575846 -9.219345,0.641384 -9.262063,0.703509" />
      <path d="M -9.535118,1.131787 Q -9.691937,1.344062 -9.872401,1.54543" />
      <line x1="-10.618579" y1="1.61391" x2="-10.618496" y2="1.613957" />
      <path d="M -10.615535,1.709701 Q -10.398637,1.790571 -10.173207,1.864446" />
      <line x1="-11.904511" y1="1.00833" x2="-10.615535" y2="1.709701" />
      <path d="M -10.615535,1.709701 C -10.634331,1.27197 -10.591319,0.766272 -10.447213,0.379362" />
      <line x1="-10.898519" y1="0.004007" x2="-10.447213" y2="0.379362" />
      <path d="M -10.447213,0.379362 C -10.422877,0.316581 -10.37795,0.173458 -10.426813,0.129541" />
      <path d="M -10.426813,0.129541 L -10.437431,0.122502" />
      <path d="M -10.437431,0.122502 Q -10.61608,0.04509 -10.785963,-0.037788" />
      <path d="M -10.86372,-0.02147 Q -10.909894,0.008931 -10.950904,0.054319" />
      <path d="M -11.006982,0.121925 C -11.264014,0.4569 -11.651576,0.80414 -11.989549,1.077793" />
      <line x1="-14.69904" y1="-0.348182" x2="-11.989549" y2="1.077793" />
      <path d="M -14.69904,-0.348182 Q -14.957125,-0.493643 -15.198735,-0.647007" />
      <path d="M -12.34202,0.86701 Q -12.171596,0.975188 -11.989549,1.077793" />
      <line x1="-15.198735" y1="-0.647007" x2="-12.34202" y2="0.86701" />
      <path d="M -15.198735,-0.647007 Q -15.175714,-0.79014 -15.145433,-0.936806" />
      <path d="M -12.34202,0.86701 C -12.272429,0.432861 -12.127707,-0.059601 -11.915513,-0.42139" />
      <line x1="-12.335932" y1="-0.743492" x2="-11.915513" y2="-0.42139" />
      <path d="M -11.915513,-0.42139 C -11.87821,-0.483592 -11.799373,-0.632576 -11.847727,-0.67272" />
      <path d="M -11.847727,-0.67272 L -11.847808,-0.672786" />
      <path d="M -11.847808,-0.672786 Q -11.954063,-0.751041 -12.053493,-0.831843" />
      <path d="M -12.053493,-0.831843 L -12.107,-0.875924" />
      <path d="M -12.176723,-0.870005 Q -12.223033,-0.846126 -12.268463,-0.806834" />
      <line x1="-13.033139" y1="-1.285729" x2="-13.032996" y2="-1.285619" />
      <path d="M -12.63799,-0.470755 Q -12.833691,-0.30906 -13.036435,-0.162678" />
      <line x1="-16.647339" y1="-1.782332" x2="-13.363826" y2="0.066183" />
      <path d="M -16.647339,-1.782332 Q -16.826332,-1.95861 -16.985591,-2.140236" />
      <path d="M -13.602419,-0.186273 Q -13.490082,-0.058158 -13.363826,0.066183" />
      <line x1="-16.985591" y1="-2.140236" x2="-13.602419" y2="-0.186273" />
      <path d="M -16.985591,-2.140236 Q -16.878285,-2.433221 -16.738443,-2.731927" />
      <path d="M -13.602419,-0.186273 C -13.449183,-0.604711 -13.212614,-1.07029 -12.946792,-1.398376" />
      <line x1="-13.305522" y1="-1.682222" x2="-12.946792" y2="-1.398376" />
      <path d="M -12.946792,-1.398376 C -12.900575,-1.454722 -12.797398,-1.591003 -12.825779,-1.636467" />
      <line x1="-13.080359" y1="-1.849509" x2="-12.825779" y2="-1.636467" />
      <path d="M -12.825779,-1.636467 Q -12.908219,-1.751345 -12.977965,-1.868609" />
      <line x1="-13.577012" y1="-2.378311" x2="-13.576857" y2="-2.37818" />
      <line x1="-12.987058" y1="-1.876346" x2="-12.977965" y2="-1.868609" />
      <path d="M -12.977965,-1.868609 L -12.981969,-1.873114" />
      <path d="M -13.034905,-1.87162 Q -13.078195,-1.85406 -13.124948,-1.821269" />
      <line x1="-13.72872" y1="-2.209059" x2="-13.728686" y2="-2.209031" />
      <path d="M -13.506194,-1.538121 Q -13.70178,-1.404013 -13.895086,-1.285554" />
      <line x1="-17.836151" y1="-3.437665" x2="-14.202381" y2="-1.101443" />
      <path d="M -17.836151,-3.437665 Q -17.923853,-3.632747 -17.989908,-3.830259" />
      <path d="M -14.310836,-1.378368 Q -14.264242,-1.239048 -14.202381,-1.101443" />
      <line x1="-17.989908" y1="-3.830259" x2="-14.310836" y2="-1.378368" />
      <path d="M -17.989908,-3.830259 C -17.833623,-4.100202 -17.651015,-4.378902 -17.454159,-4.643179" />
      <path d="M -14.310836,-1.378368 C -14.084398,-1.770037 -13.772104,-2.196918 -13.470769,-2.485017" />
      <line x1="-13.754923" y1="-2.73382" x2="-13.470769" y2="-2.485017" />
      <path d="M -13.470769,-2.485017 C -13.418808,-2.53444 -13.298391,-2.654956 -13.304695,-2.702866" />
      <line x1="-13.508755" y1="-2.89104" x2="-13.304695" y2="-2.702866" />
      <path d="M -13.304695,-2.702866 Q -13.328808,-2.825257 -13.339506,-2.948193" />
      <line x1="-13.353329" y1="-2.961316" x2="-13.339506" y2="-2.948193" />
      <path d="M -13.339506,-2.948193 L -13.343759,-2.957131" />
      <path d="M -13.379781,-2.958058 Q -13.417102,-2.946182 -13.461992,-2.919853" />
      <path d="M -13.828974,-2.689458 Q -14.011116,-2.581981 -14.181811,-2.489186" />
      <line x1="-18.184461" y1="-5.201375" x2="-14.448068" y2="-2.345515" />
      <path d="M -18.184461,-5.201375 Q -18.174894,-5.401965 -18.143244,-5.601904" />
      <path d="M -14.418995,-2.628036 Q -14.44132,-2.487005 -14.448068,-2.345515" />
      <line x1="-18.143244" y1="-5.601904" x2="-14.418995" y2="-2.628036" />
      <path d="M -18.143244,-5.601904 C -17.879497,-5.931643 -17.569559,-6.271987 -17.258779,-6.567792" />
      <path d="M -14.418995,-2.628036 C -14.134787,-2.983702 -13.76805,-3.362708 -13.451738,-3.607259" />
      <line x1="-13.651226" y1="-3.810511" x2="-13.451738" y2="-3.607259" />
      <path d="M -13.451738,-3.607259 C -13.397573,-3.649199 -13.268122,-3.752099 -13.25192,-3.799311" />
      <line x1="-13.393563" y1="-3.950858" x2="-13.25192" y2="-3.799311" />
      <path d="M -13.25192,-3.799311 Q -13.216062,-3.920873 -13.166982,-4.041103" />
      <line x1="-13.180749" y1="-4.05643" x2="-13.166982" y2="-4.041103" />
      <path d="M -13.166982,-4.041103 Q -13.163809,-4.049989 -13.167231,-4.053608" />
      <path d="M -13.187848,-4.055279 Q -13.216657,-4.048066 -13.256626,-4.027721" />
      <path d="M -13.584334,-3.846304 Q -13.74062,-3.762688 -13.87707,-3.691548" />
      <line x1="-17.668531" y1="-6.953266" x2="-14.084146" y2="-3.58125" />
      <path d="M -17.668531,-6.953266 Q -17.562348,-7.145695 -17.43515,-7.334434" />
      <path d="M -13.919525,-3.850115 Q -14.009247,-3.716984 -14.084146,-3.58125" />
      <line x1="-17.43515" y1="-7.334434" x2="-13.919525" y2="-3.850115" />
      <path d="M -17.43515,-7.334434 C -17.042448,-7.715118 -16.576063,-8.106447 -16.172105,-8.391122" />
      <path d="M -13.919525,-3.850115 C -13.596915,-4.162997 -13.200728,-4.488212 -12.890994,-4.688623" />
      <line x1="-12.993242" y1="-4.815673" x2="-12.890994" y2="-4.688623" />
      <path d="M -12.890994,-4.688623 C -12.838317,-4.723031 -12.708655,-4.807662 -12.671051,-4.85108" />
      <line x1="-12.748143" y1="-4.951558" x2="-12.671051" y2="-4.85108" />
      <path d="M -12.671051,-4.85108 Q -12.577665,-4.96353 -12.472153,-5.07286" />
      <line x1="-12.481796" y1="-5.086094" x2="-12.472153" y2="-5.07286" />
      <path d="M -12.472153,-5.07286 Q -12.461374,-5.084566 -12.464017,-5.087506" />
      <path d="M -12.472188,-5.08851 Q -12.490521,-5.08462 -12.522845,-5.069373" />
      <line x1="-12.631058" y1="-5.1251" x2="-12.63096" y2="-5.124968" />
      <path d="M -12.788946,-4.929822 Q -12.908724,-4.86567 -13.00163,-4.8107" />
      <line x1="-16.323521" y1="-8.573951" x2="-13.135413" y2="-4.724436" />
      <path d="M -16.323521,-8.573951 Q -16.159744,-8.717288 -15.982916,-8.856131" />
      <path d="M -15.982916,-8.856131 L -15.91388,-8.909782" />
      <path d="M -12.846464,-4.961322 L -12.895192,-4.923453" />
      <path d="M -12.895192,-4.923453 Q -13.019903,-4.82553 -13.135413,-4.724436" />
      <line x1="-15.91388" y1="-8.909782" x2="-12.846464" y2="-4.961322" />
      <path d="M -15.91388,-8.909782 C -15.433245,-9.287218 -14.868099,-9.668825 -14.468244,-9.893795" />
      <path d="M -12.846464,-4.961322 C -12.507438,-5.227555 -12.108799,-5.49673 -11.826752,-5.655417" />
      <line x1="-14.468244" y1="-9.893795" x2="-11.826752" y2="-5.655417" />
      <path d="M -14.468244,-9.893795 C -14.400763,-9.932552 -14.229168,-10.027473 -14.149148,-10.079626" />
      <path d="M -11.826752,-5.655417 C -11.797397,-5.672275 -11.741378,-5.703496 -11.688781,-5.733955" />
      <line x1="-14.149148" y1="-10.079626" x2="-14.14784" y2="-10.077421" />
      <path d="M -14.149148,-10.079626 L -14.137067,-10.087608" />
      <path d="M -13.820619,-10.300582 Q -13.923062,-10.244697 -14.000776,-10.192582" />
      <path d="M -14.168259,-10.05677 Q -14.219313,-10.002985 -14.241092,-9.952982" />
      <line x1="-14.241092" y1="-9.952982" x2="-11.666526" y2="-5.697166" />
      <path d="M -14.241092,-9.952982 Q -13.969477,-10.091198 -13.683108,-10.22059" />
      <path d="M -11.272939,-5.885929 Q -11.474936,-5.794659 -11.666526,-5.697166" />
      <line x1="-13.683108" y1="-10.22059" x2="-11.272939" y2="-5.885929" />
      <path d="M -13.683108,-10.22059 C -13.211954,-10.53092 -12.681847,-10.835305 -12.348492,-11.00858" />
      <path d="M -11.272939,-5.885929 C -10.9406,-6.104827 -10.566677,-6.319532 -10.331538,-6.441755" />
      <line x1="-12.348492" y1="-11.00858" x2="-10.331538" y2="-6.441755" />
      <path d="M -12.348492,-11.00858 C -12.292808,-11.038652 -12.145134,-11.111063 -12.043859,-11.150434" />
      <path d="M -10.331538,-6.441755 C -10.29226,-6.462968 -10.188095,-6.514044 -10.116658,-6.541815" />
      <line x1="-12.043859" y1="-11.150434" x2="-10.116658" y2="-6.541815" />
      <path d="M -12.043859,-11.150434 Q -11.780366,-11.253045 -11.506112,-11.347221" />
      <path d="M -10.116658,-6.541815 Q -9.99275,-6.590069 -9.865393,-6.635704" />
      <line x1="-11.506112" y1="-11.347221" x2="-11.494876" y2="-11.317578" />
      <path d="M -11.506112,-11.347221 Q -11.445446,-11.36752 -11.446301,-11.35945" />
      <path d="M -11.456941,-11.345537 L -11.484832,-11.324634" />
      <path d="M -11.484832,-11.324634 Q -11.55934,-11.272986 -11.590087,-11.220935" />
      <path d="M -11.612117,-11.098487 L -11.602176,-11.065549" />
      <path d="M -11.602176,-11.065549 Q -11.588445,-11.031031 -11.563158,-10.99638" />
      <path d="M -9.805108,-6.48194 Q -9.795422,-6.457591 -9.777585,-6.43315" />
      <line x1="-11.563158" y1="-10.99638" x2="-9.777585" y2="-6.43315" />
      <path d="M -11.563158,-10.99638 Q -11.234001,-11.092238 -10.894856,-11.177528" />
      <path d="M -9.306184,-6.560927 Q -9.545407,-6.500766 -9.777585,-6.43315" />
      <line x1="-10.894856" y1="-11.177528" x2="-9.306184" y2="-6.560927" />
      <path d="M -10.894856,-11.177528 C -10.465291,-11.424353 -10.006349,-11.659005 -9.762212,-11.791562" />
      <path d="M -9.306184,-6.560927 C -9.00318,-6.73503 -8.679455,-6.900547 -8.507248,-6.99405" />
      <line x1="-9.762212" y1="-11.791562" x2="-8.507248" y2="-6.99405" />
      <path d="M -9.762212,-11.791562 C -9.722121,-11.814883 -9.608431,-11.868866 -9.492802,-11.892944" />
      <path d="M -8.507248,-6.99405 C -8.478969,-7.010499 -8.398776,-7.048577 -8.317214,-7.065561" />
      <line x1="-9.492802" y1="-11.892944" x2="-8.317214" y2="-7.065561" />
      <path d="M -9.492802,-11.892944 Q -9.188697,-11.955535 -8.878274,-12.008489" />
      <path d="M -8.317214,-7.065561 Q -8.102707,-7.109711 -7.883743,-7.147064" />
      <line x1="-8.878274" y1="-12.008489" x2="-7.883743" y2="-7.147064" />
      <path d="M -8.878274,-12.008489 C -8.796986,-12.022197 -8.774203,-12.009648 -8.771366,-11.99503" />
      <path d="M -8.771366,-11.99503 Q -8.770248,-11.985412 -8.775237,-11.977136" />
      <path d="M -7.883743,-7.147064 Q -7.844894,-7.153317 -7.828187,-7.150314" />
      <line x1="-8.752158" y1="-11.86099" x2="-8.752135" y2="-11.860874" />
      <path d="M -8.775237,-11.977136 Q -8.787358,-11.951255 -8.781481,-11.922825" />
      <path d="M -8.781481,-11.922825 C -8.764277,-11.837575 -8.635491,-11.738392 -8.472215,-11.633041" />
      <path d="M -7.815468,-7.086638 C -7.803333,-7.026505 -7.71249,-6.956545 -7.59732,-6.882233" />
      <line x1="-8.472215" y1="-11.633041" x2="-7.59732" y2="-6.882233" />
      <path d="M -8.472215,-11.633041 Q -8.107947,-11.680008 -7.739139,-11.715384" />
      <path d="M -7.080229,-6.940315 Q -7.340376,-6.915362 -7.59732,-6.882233" />
      <line x1="-7.739139" y1="-11.715384" x2="-7.080229" y2="-6.940315" />
      <path d="M -7.739139,-11.715384 C -7.380437,-11.906631 -7.023936,-12.083789 -6.885655,-12.189385" />
      <path d="M -7.080229,-6.940315 C -6.827211,-7.075215 -6.575745,-7.200178 -6.478205,-7.274662" />
      <line x1="-6.885655" y1="-12.189385" x2="-6.478205" y2="-7.274662" />
      <path d="M -6.885655,-12.189385 C -6.863888,-12.208343 -6.791931,-12.249238 -6.669827,-12.256554" />
      <path d="M -6.478205,-7.274662 C -6.462851,-7.288035 -6.412095,-7.316881 -6.325966,-7.322042" />
      <line x1="-6.669827" y1="-12.256554" x2="-6.325966" y2="-7.322042" />
      <path d="M -6.669827,-12.256554 Q -6.345835,-12.274861 -6.020398,-12.282983" />
      <path d="M -6.325966,-7.322042 Q -6.097431,-7.334955 -5.867877,-7.340684" />
      <line x1="-6.020398" y1="-12.282983" x2="-5.867877" y2="-7.340684" />
      <path d="M -6.020398,-12.282983 C -5.898346,-12.285603 -5.853012,-12.249482 -5.842626,-12.231832" />
      <path d="M -5.867877,-7.340684 C -5.781785,-7.342532 -5.749807,-7.317053 -5.742481,-7.304603" />
      <line x1="-5.842626" y1="-12.231832" x2="-5.742481" y2="-7.304603" />
      <path d="M -5.842626,-12.231832 C -5.770486,-12.1348 -5.48498,-11.983768 -5.178906,-11.819575" />
      <path d="M -5.742481,-7.304603 C -5.691596,-7.23616 -5.490208,-7.129626 -5.274312,-7.013809" />
      <line x1="-5.178906" y1="-11.819575" x2="-5.274312" y2="-7.013809" />
      <path d="M -5.178906,-11.819575 Q -4.804351,-11.814452 -4.431014,-11.797502" />
      <path d="M -4.746769,-6.998239 Q -5.010111,-7.010195 -5.274312,-7.013809" />
      <line x1="-4.431014" y1="-11.797502" x2="-4.746769" y2="-6.998239" />
      <path d="M -4.431014,-11.797502 C -4.16762,-11.944888 -3.937855,-12.080711 -3.914854,-12.174935" />
      <path d="M -4.746769,-6.998239 C -4.560979,-7.102201 -4.398909,-7.198007 -4.382685,-7.26447" />
      <line x1="-3.914854" y1="-12.174935" x2="-4.382685" y2="-7.26447" />
      <path d="M -3.914854,-12.174935 C -3.912895,-12.192221 -3.887573,-12.226257 -3.767317,-12.216485" />
      <path d="M -4.382685,-7.26447 C -4.381303,-7.276663 -4.363442,-7.300671 -4.278616,-7.293778" />
      <line x1="-3.767317" y1="-12.216485" x2="-4.278616" y2="-7.293778" />
      <path d="M -3.767317,-12.216485 Q -3.445517,-12.189261 -3.127244,-12.151998" />
      <path d="M -4.278616,-7.293778 Q -4.051628,-7.274575 -3.827126,-7.24829" />
      <line x1="-3.127244" y1="-12.151998" x2="-3.827126" y2="-7.24829" />
      <path d="M -3.127244,-12.151998 C -3.006862,-12.137525 -2.916581,-12.091842 -2.886851,-12.071363" />
      <path d="M -3.827126,-7.24829 C -3.742212,-7.238081 -3.678531,-7.205858 -3.65756,-7.191413" />
      <line x1="-2.886851" y1="-12.071363" x2="-3.65756" y2="-7.191413" />
      <path d="M -2.886851,-12.071363 C -2.702464,-11.956245 -2.29947,-11.75667 -1.907665,-11.543273" />
      <path d="M -3.65756,-7.191413 C -3.527498,-7.110212 -3.243238,-6.969437 -2.966869,-6.818913" />
      <line x1="-1.907665" y1="-11.543273" x2="-2.966869" y2="-6.818913" />
      <path d="M -1.907665,-11.543273 Q -1.548349,-11.486407 -1.195924,-11.418287" />
      <path d="M -2.464827,-6.730751 Q -2.713418,-6.778802 -2.966869,-6.818913" />
      <line x1="-1.195924" y1="-11.418287" x2="-2.464827" y2="-6.730751" />
      <path d="M -1.195924,-11.418287 C -1.104688,-11.490332 -1.036894,-11.559844 -1.018384,-11.626158" />
      <path d="M -1.018384,-11.626158 L -1.018367,-11.62622" />
      <path d="M -1.0138,-11.651496 Q -1.008861,-11.702421 -1.052263,-11.749199" />
      <path d="M -2.464827,-6.730751 Q -2.363805,-6.807049 -2.33962,-6.877291" />
      <path d="M -1.052263,-11.749199 Q -1.061597,-11.758299 -1.066265,-11.768402" />
      <path d="M -1.067093,-11.776258 C -1.064483,-11.785864 -1.044314,-11.789986 -0.983072,-11.775469" />
      <line x1="-0.983072" y1="-11.775469" x2="-1.013526" y2="-11.665858" />
      <path d="M -0.983072,-11.775469 Q -0.685394,-11.704567 -0.395974,-11.624458" />
      <path d="M -2.310566,-6.981715 Q -2.102708,-6.93213 -1.900565,-6.876179" />
      <line x1="-0.395974" y1="-11.624458" x2="-1.900565" y2="-6.876179" />
      <path d="M -0.395974,-11.624458 C -0.285467,-11.593706 -0.156392,-11.532558 -0.109343,-11.506666" />
      <path d="M -1.900565,-6.876179 C -1.822616,-6.854487 -1.73157,-6.811355 -1.698383,-6.793091" />
      <line x1="-0.109343" y1="-11.506666" x2="-1.698383" y2="-6.793091" />
      <path d="M -0.109343,-11.506666 C 0.174726,-11.358518 0.667743,-11.09577 1.118579,-10.822962" />
      <path d="M -1.698383,-6.793091 C -1.498009,-6.688592 -1.150248,-6.503257 -0.832241,-6.310825" />
      <line x1="1.118579" y1="-10.822962" x2="-0.832241" y2="-6.310825" />
      <path d="M 1.118579,-10.822962 Q 1.43817,-10.71823 1.745664,-10.603581" />
      <path d="M -0.389913,-6.156081 Q -0.606811,-6.23695 -0.832241,-6.310825" />
      <line x1="1.745664" y1="-10.603581" x2="-0.389913" y2="-6.156081" />
      <path d="M 1.745664,-10.603581 Q 1.758411,-10.653217 1.743325,-10.704311" />
      <path d="M 1.659355,-10.829888 Q 1.603046,-10.884509 1.507036,-10.941189" />
      <path d="M 1.507036,-10.941189 L 1.469446,-10.964024" />
      <path d="M 1.447171,-10.980411 Q 1.446074,-10.983915 1.493167,-10.963558" />
      <line x1="1.493167" y1="-10.963558" x2="1.488189" y2="-10.952561" />
      <path d="M 1.493167,-10.963558 Q 1.746436,-10.853812 1.987279,-10.736317" />
      <path d="M -0.321478,-6.298601 L -0.219485,-6.249708" />
      <line x1="1.987279" y1="-10.736317" x2="-0.219485" y2="-6.249708" />
      <path d="M 1.987279,-10.736317 C 2.080381,-10.691209 2.239453,-10.609744 2.300614,-10.576223" />
      <path d="M -0.219485,-6.249708 C -0.153812,-6.217891 -0.041607,-6.160428 0.001534,-6.136783" />
      <line x1="2.300614" y1="-10.576223" x2="0.001534" y2="-6.136783" />
      <path d="M 2.300614,-10.576223 C 2.665007,-10.382355 3.21445,-10.046108 3.693592,-9.707731" />
      <path d="M 0.001534,-6.136783 C 0.258566,-6.000034 0.646128,-5.762854 0.984101,-5.524173" />
      <line x1="3.693592" y1="-9.707731" x2="0.984101" y2="-5.524173" />
      <path d="M 3.693592,-9.707731 Q 3.951677,-9.562269 4.193287,-9.408906" />
      <path d="M 1.336572,-5.31339 Q 1.166148,-5.421568 0.984101,-5.524173" />
      <line x1="4.193287" y1="-9.408906" x2="1.336572" y2="-5.31339" />
      <path d="M 4.193287,-9.408906 Q 4.146714,-9.460926 4.070239,-9.518476" />
      <path d="M 0.830942,-5.629734 L 0.830232,-5.629867" />
      <path d="M 0.827105,-5.62951 Q 0.825222,-5.627695 0.84236,-5.61471" />
      <line x1="0.845563" y1="-5.619811" x2="0.84236" y2="-5.61471" />
      <path d="M 0.84236,-5.61471 Q 0.97751,-5.515173 1.101552,-5.411572" />
      <line x1="1.123165" y1="-5.443981" x2="1.101552" y2="-5.411572" />
      <path d="M 4.156828,-9.356637 L 4.178787,-9.343443" />
      <path d="M 1.101552,-5.411572 C 1.150471,-5.371675 1.276189,-5.297437 1.326345,-5.267214" />
      <line x1="4.178787" y1="-9.343443" x2="1.326345" y2="-5.267214" />
      <path d="M 4.178787,-9.343443 C 4.598671,-9.094279 5.167095,-8.679216 5.641891,-8.273581" />
      <path d="M 1.326345,-5.267214 C 1.622519,-5.091461 2.02347,-4.798687 2.358377,-4.512563" />
      <line x1="5.641891" y1="-8.273581" x2="2.358377" y2="-4.512563" />
      <path d="M 5.641891,-8.273581 Q 5.820884,-8.097303 5.980142,-7.915676" />
      <path d="M 2.59697,-4.260107 Q 2.484634,-4.388222 2.358377,-4.512563" />
      <line x1="5.980142" y1="-7.915676" x2="2.59697" y2="-4.260107" />
      <path d="M 2.430944,-4.355221 Q 2.318769,-4.416243 2.182483,-4.487953" />
      <line x1="2.057105" y1="-4.758122" x2="2.05708" y2="-4.758092" />
      <path d="M 1.888017,-4.644034 Q 1.852158,-4.661305 1.82921,-4.666416" />
      <path d="M 1.816291,-4.665012 Q 1.81323,-4.661621 1.820331,-4.651029" />
      <line x1="1.832167" y1="-4.665807" x2="1.820331" y2="-4.651029" />
      <path d="M 1.820331,-4.651029 Q 1.902771,-4.536152 1.972517,-4.418887" />
      <line x1="2.077107" y1="-4.54356" x2="1.972517" y2="-4.418887" />
      <path d="M 1.972517,-4.418887 C 2.001351,-4.373508 2.132014,-4.281194 2.185766,-4.243645" />
      <line x1="2.331312" y1="-4.409009" x2="2.185766" y2="-4.243645" />
      <path d="M 5.728684,-7.643972 L 5.858844,-7.537902" />
      <path d="M 2.185766,-4.243645 C 2.381205,-4.108025 2.607009,-3.92015 2.822265,-3.719166" />
      <path d="M 3.071444,-3.191327 Q 2.919306,-3.270984 2.750728,-3.364188" />
      <path d="M 2.403589,-3.565522 Q 2.361195,-3.588298 2.328529,-3.597326" />
      <path d="M 2.301698,-3.595768 Q 2.298165,-3.592221 2.299247,-3.58463" />
      <path d="M 2.161534,-2.246393 Q 1.990464,-1.827901 1.665603,-1.436416" />
      <path d="M 1.466705,-1.214636 Q 1.099213,-0.834116 0.596223,-0.500999" />
      <path d="M 0.29692,-0.314345 Q -0.241949,0.002272 -0.88879,0.254319" />
      <path d="M -1.268101,0.393127 Q -1.941624,0.624264 -2.688234,0.778065" />
      <path d="M -3.121705,0.859567 Q -3.883982,0.989472 -4.679482,1.034545" />
      <path d="M -5.137571,1.053188 Q -5.936654,1.073008 -6.726832,1.006282" />
      <path d="M -7.178322,0.960794 Q -7.959756,0.869179 -8.690761,0.695201" />
      <path d="M -9.104883,0.588683 Q -9.815414,0.391875 -10.437431,0.122502" />
      <path d="M -10.785963,-0.037788 Q -11.37717,-0.326375 -11.847808,-0.672786" />
      <path d="M -12.107,-0.875924 Q -12.538592,-1.236625 -12.825779,-1.636467" />
      <path d="M -12.977965,-1.868609 Q -13.220531,-2.276842 -13.304695,-2.702866" />
      <path d="M -13.339506,-2.948193 Q -13.376514,-3.376137 -13.25192,-3.799311" />
      <path d="M -13.166982,-4.041103 Q -12.995912,-4.459595 -12.671051,-4.85108" />
      <path d="M -12.472153,-5.07286 Q -12.136223,-5.420765 -11.68614,-5.729588" />
      <path d="M -0.219485,-6.249708 L -0.186584,-6.233566" />
      <path d="M 0.673576,-5.734461 Q 0.759982,-5.67538 0.84236,-5.61471" />
      <path d="M 1.101552,-5.411572 Q 1.533144,-5.050872 1.820331,-4.651029" />
      <path d="M 1.972517,-4.418887 Q 2.215083,-4.010655 2.299247,-3.58463" />
      <path d="M 2.334058,-3.339303 Q 2.371052,-2.91136 2.246472,-2.488185" />
      <path d="M 2.521229,-3.135829 C 2.46664,-3.181936 2.342211,-3.28981 2.334058,-3.339303" />
      <path d="M 2.246472,-2.488185 C 2.264151,-2.531363 2.391163,-2.448446 2.44629,-2.4076" />
      <path d="M 2.44629,-2.4076 C 2.781923,-2.168135 3.119888,-1.981155 3.407437,-1.821687" />
      <path d="M 2.911805,-2.757904 Q 2.720938,-2.965272 2.521229,-3.135829" />
      <path d="M 2.309873,-2.019264 C 2.259198,-2.072792 2.146833,-2.197361 2.161534,-2.246393" />
      <path d="M 1.665603,-1.436416 C 1.704884,-1.475578 1.83181,-1.374757 1.885546,-1.326235" />
      <path d="M 1.885546,-1.326235 C 2.217661,-1.037859 2.586934,-0.799827 2.914077,-0.596265" />
      <path d="M 2.923103,-1.160168 C 2.749392,-1.467366 2.54287,-1.77035 2.309873,-2.019264" />
      <path d="M 1.566102,-0.97004 C 1.522794,-1.030195 1.43015,-1.169218 1.466705,-1.214636" />
      <path d="M 0.596223,-0.500999 C 0.654432,-0.533287 0.772621,-0.415184 0.821304,-0.359441" />
      <path d="M 0.821304,-0.359441 C 1.124867,-0.026246 1.497969,0.264127 1.841016,0.514942" />
      <path d="M 2.129965,0.278056 C 2.007042,-0.153221 1.82569,-0.600791 1.566102,-0.97004" />
      <path d="M 0.340602,-0.059661 C 0.307612,-0.125195 0.241003,-0.275446 0.29692,-0.314345" />
      <path d="M -0.88879,0.254319 C -0.815621,0.231294 -0.714222,0.364879 -0.67391,0.426897" />
      <path d="M -0.67391,0.426897 C -0.419585,0.799426 -0.068083,1.140888 0.267491,1.439549" />
      <path d="M 0.661078,1.250786 C 0.625341,0.808323 0.535026,0.341598 0.340602,-0.059661" />
      <path d="M -1.283112,0.649833 C -1.303534,0.580533 -1.339569,0.423044 -1.268101,0.393127" />
      <path d="M -2.688234,0.778065 C -2.605092,0.76606 -2.527394,0.912273 -2.4982,0.979191" />
      <path d="M -2.4982,0.979191 C -2.310445,1.382889 -2.004496,1.770705 -1.699264,2.114547" />
      <path d="M -1.227863,1.98677 C -1.173977,1.545587 -1.167101,1.072979 -1.283112,0.649833" />
      <path d="M -3.194384,1.11009 C -3.200849,1.038894 -3.203853,0.878654 -3.121705,0.859567" />
      <path d="M -4.679482,1.034545 C -4.592032,1.034568 -4.54333,1.189693 -4.527243,1.259804" />
      <path d="M -4.527243,1.259804 C -4.418854,1.684382 -4.179308,2.110658 -3.925219,2.493935" />
      <path d="M -3.408128,2.435853 C -3.268292,2.008328 -3.164693,1.543509 -3.194384,1.11009" />
      <path d="M -5.262967,1.289745 C -5.255032,1.218653 -5.224802,1.060332 -5.137571,1.053188" />
      <path d="M -6.726832,1.006282 C -6.641034,1.01852 -6.624647,1.178234 -6.622763,1.249612" />
      <path d="M -6.622763,1.249612 C -6.601127,1.683357 -6.444308,2.13758 -6.258679,2.551859" />
      <path d="M -5.731136,2.567429 C -5.51488,2.165011 -5.321618,1.721123 -5.262967,1.289745" />
      <path d="M -7.347888,1.176555 C -7.326096,1.107559 -7.264691,0.955698 -7.178322,0.960794" />
      <path d="M -8.690761,0.695201 C -8.612462,0.719009 -8.629507,0.878676 -8.641955,0.949309" />
      <path d="M -8.641955,0.949309 C -8.708545,1.379885 -8.645141,1.849635 -8.540621,2.284371" />
      <path d="M -8.038579,2.372533 C -7.760639,2.004958 -7.490886,1.593715 -7.347888,1.176555" />
      <path d="M -9.307065,0.778233 C -9.272899,0.713182 -9.184504,0.571884 -9.104883,0.588683" />
      <path d="M -10.437431,0.122502 C -10.371967,0.156446 -10.421281,0.311434 -10.447213,0.379362" />
      <path d="M -10.447213,0.379362 C -10.597492,0.794647 -10.631823,1.266446 -10.615535,1.709701" />
      <path d="M -10.173207,1.864446 C -9.852525,1.539077 -9.524663,1.169969 -9.307065,0.778233" />
      <path d="M -11.006982,0.121925 C -10.962771,0.0624 -10.85341,-0.064956 -10.785963,-0.037788" />
      <path d="M -11.847808,-0.672786 C -11.799641,-0.630831 -11.877864,-0.484835 -11.915513,-0.42139" />
      <path d="M -11.915513,-0.42139 C -12.139239,-0.032474 -12.268966,0.427758 -12.34202,0.86701" />
      <path d="M -11.989549,1.077793 C -11.64798,0.799116 -11.284352,0.478763 -11.006982,0.121925" />
      <path d="M -12.331793,-0.747644 C -12.28055,-0.800439 -12.157676,-0.911421 -12.107,-0.875924" />
      <path d="M -12.825779,-1.636467 C -12.79819,-1.589171 -12.899992,-1.455867 -12.946792,-1.398376" />
      <path d="M -12.946792,-1.398376 C -13.228718,-1.045112 -13.445001,-0.609275 -13.602419,-0.186273" />
      <path d="M -13.363826,0.066183 C -13.024645,-0.164496 -12.650033,-0.4328 -12.331793,-0.747644" />
      <path d="M -13.191214,-1.771213 C -13.136432,-1.816533 -13.008418,-1.909826 -12.977965,-1.868609" />
      <path d="M -13.304695,-2.702866 C -13.299565,-2.653263 -13.418008,-2.535488 -13.470769,-2.485017" />
      <path d="M -13.470769,-2.485017 C -13.791684,-2.174256 -14.079782,-1.773981 -14.310836,-1.378368" />
      <path d="M -14.202381,-1.101443 C -13.888704,-1.286093 -13.528636,-1.502597 -13.191214,-1.771213" />
      <path d="M -13.526677,-2.879029 C -13.472089,-2.916637 -13.347659,-2.992131 -13.339506,-2.948193" />
      <path d="M -13.25192,-3.799311 C -13.269599,-3.750592 -13.396611,-3.650123 -13.451738,-3.607259" />
      <path d="M -13.451738,-3.607259 C -13.789771,-3.342958 -14.130051,-2.986987 -14.418995,-2.628036" />
      <path d="M -14.448068,-2.345515 C -14.181272,-2.489238 -13.860287,-2.657724 -13.526677,-2.879029" />
      <path d="M -13.315321,-3.995594 C -13.264646,-4.025781 -13.152281,-4.08458 -13.166982,-4.041103" />
      <path d="M -12.671051,-4.85108 C -12.710332,-4.806377 -12.837258,-4.723812 -12.890994,-4.688623" />
      <path d="M -12.890994,-4.688623 C -13.223109,-4.471571 -13.592382,-4.165628 -13.919525,-3.850115" />
      <path d="M -14.084146,-3.58125 C -13.882412,-3.691939 -13.622383,-3.819461 -13.315321,-3.995594" />
      <path d="M -12.57155,-5.044818 C -12.528242,-5.068379 -12.435598,-5.112723 -12.472153,-5.07286" />
      <path d="M -11.68879,-5.733969 C -11.741223,-5.703739 -11.796386,-5.672664 -11.826752,-5.655417" />
      <path d="M -11.826752,-5.655417 C -12.09054,-5.505684 -12.410451,-5.292473 -12.713002,-5.063694" />
      <path d="M -12.713002,-5.063694 L -12.846464,-4.961322" />
      <path d="M -13.135413,-4.724436 C -13.01249,-4.812235 -12.831138,-4.908637 -12.57155,-5.044818" />
      <path d="M -10.116658,-6.541815 C -10.189827,-6.513249 -10.291226,-6.463448 -10.331538,-6.441755" />
      <path d="M -10.331538,-6.441755 C -10.585863,-6.308856 -10.937365,-6.106343 -11.272939,-5.885929" />
      <path d="M -8.317214,-7.065561 C -8.400356,-7.048016 -8.478054,-7.010842 -8.507248,-6.99405" />
      <path d="M -8.507248,-6.99405 C -8.695003,-6.89232 -9.000952,-6.736161 -9.306184,-6.560927" />
      <path d="M -9.777585,-6.43315 Q -9.795484,-6.45759 -9.805067,-6.481837" />
      <path d="M -7.828186,-7.15031 Q -7.844698,-7.153238 -7.883743,-7.147064" />
      <path d="M -6.325966,-7.322042 C -6.413416,-7.316524 -6.462118,-7.288262 -6.478205,-7.274662" />
      <path d="M -6.478205,-7.274662 C -6.586594,-7.193812 -6.82614,-7.076114 -7.080229,-6.940315" />
      <path d="M -7.59732,-6.882233 C -7.714029,-6.957574 -7.801828,-7.025351 -7.815447,-7.086534" />
      <path d="M -5.742481,-7.304603 C -5.750416,-7.317226 -5.780646,-7.342273 -5.867877,-7.340684" />
      <path d="M -4.278616,-7.293778 C -4.364414,-7.300476 -4.380801,-7.276803 -4.382685,-7.26447" />
      <path d="M -4.382685,-7.26447 C -4.404321,-7.192788 -4.56114,-7.103035 -4.746769,-6.998239" />
      <path d="M -5.274312,-7.013809 C -5.490569,-7.130466 -5.68383,-7.230551 -5.742481,-7.304603" />
      <path d="M -3.65756,-7.191413 C -3.679353,-7.206132 -3.740757,-7.23764 -3.827126,-7.24829" />
      <path d="M -2.363493,-6.964168 C -2.296903,-6.889316 -2.360307,-6.81509 -2.464827,-6.730751" />
      <path d="M -2.966869,-6.818913 C -3.244809,-6.970414 -3.514562,-7.103143 -3.65756,-7.191413" />
      <path d="M -1.698383,-6.793091 C -1.732549,-6.811756 -1.820944,-6.853825 -1.900565,-6.876179" />
      <path d="M -0.832241,-6.310825 C -1.152923,-6.504533 -1.480785,-6.679397 -1.698383,-6.793091" />
      <path d="M 0.001534,-6.136783 C -0.042677,-6.160973 -0.152038,-6.216985 -0.219485,-6.249708" />
      <path d="M 0.84236,-5.61471 Q 0.8186,-5.632833 0.830934,-5.629739" />
      <path d="M 0.984101,-5.524173 C 0.642532,-5.764572 0.278904,-5.988191 0.001534,-6.136783" />
      <path d="M 1.326345,-5.267214 C 1.275102,-5.298134 1.152228,-5.37052 1.101552,-5.411572" />
      <path d="M 1.820331,-4.651029 C 1.792742,-4.692785 1.894544,-4.642703 1.941343,-4.616482" />
      <path d="M 1.941343,-4.616482 C 2.22327,-4.464319 2.439553,-4.35618 2.59697,-4.260107" />
      <path d="M 2.358377,-4.512563 C 2.019197,-4.800959 1.644585,-5.076628 1.326345,-5.267214" />
      <path d="M 2.185766,-4.243645 C 2.130984,-4.28204 2.00297,-4.372115 1.972517,-4.418887" />
      <path d="M 2.299247,-3.58463 C 2.294117,-3.628693 2.41256,-3.563082 2.465321,-3.529841" />
      <path d="M 2.465321,-3.529841 C 2.759901,-3.350748 3.027338,-3.215764 3.247607,-3.098438" />
      <path d="M 2.822251,-3.719305 C 2.613398,-3.914565 2.393393,-4.098255 2.185766,-4.243645" />
      <path d="M 2.264065,-2.069476 L 2.264047,-2.069466" />
      <path d="M -13.093222,-10.68668 Q -12.59494,-10.935805 -12.043859,-11.150434" />
      <path d="M -11.506112,-11.347221 Q -10.551267,-11.674903 -9.492802,-11.892944" />
      <path d="M -8.878274,-12.008489 Q -7.797602,-12.192655 -6.669827,-12.256554" />
      <path d="M -6.020398,-12.282983 Q -4.887544,-12.311083 -3.767317,-12.216485" />
      <path d="M -3.127244,-12.151998 Q -2.019411,-12.022117 -0.983072,-11.775469" />
      <path d="M -0.395974,-11.624458 Q 0.607747,-11.346445 1.48694,-10.966254" />
      <path d="M 1.987279,-10.736317 L 2.088821,-10.686157" />
      <path d="M -2.533233,1.577128 Q -2.464226,1.36988 -2.407617,1.158157" />
      <path d="M -6.867714,0.993659 Q -6.74144,1.375628 -6.574434,1.741589" />
      <path d="M -15.145259,-0.936708 Q -15.175149,-0.791798 -15.198735,-0.647007" />
      <path d="M -16.738463,-2.73194 Q -16.87548,-2.438726 -16.985591,-2.140236" />
      <path d="M -17.454331,-4.643311 Q -17.746995,-4.248597 -17.989908,-3.830259" />
      <path d="M -17.258829,-6.567839 C -17.572,-6.270192 -17.870238,-5.941039 -18.143244,-5.601904" />
      <path d="M -16.171904,-8.390879 C -16.594766,-8.092747 -17.031629,-7.72311 -17.43515,-7.334434" />
      <path d="M -14.149148,-10.079626 C -14.233852,-10.024718 -14.397927,-9.934204 -14.468244,-9.893795" />
      <path d="M -14.468244,-9.893795 C -14.847953,-9.67802 -15.296681,-9.378388 -15.725381,-9.05438" />
      <path d="M -15.725381,-9.05438 L -15.91388,-8.909782" />
      <path d="M -12.043859,-11.150434 C -12.149731,-11.108963 -12.290096,-11.039913 -12.348492,-11.00858" />
      <path d="M -12.348492,-11.00858 C -12.466213,-10.94685 -12.596069,-10.876067 -12.738059,-10.796231 C -13.033133,-10.630012 -13.357836,-10.433341 -13.683108,-10.22059" />
      <path d="M -14.241092,-9.952982 C -14.194869,-10.051811 -14.085339,-10.1512 -13.857825,-10.279597" />
      <path d="M -11.484832,-11.324634 C -11.455984,-11.345156 -11.404419,-11.381706 -11.506112,-11.347221" />
      <path d="M -9.492802,-11.892944 C -9.612628,-11.867386 -9.719716,-11.815783 -9.762212,-11.791562" />
      <path d="M -9.762212,-11.791562 C -9.84907,-11.744257 -9.951326,-11.689839 -10.068979,-11.628309 C -10.312886,-11.500091 -10.598683,-11.346464 -10.894856,-11.177528" />
      <path d="M -11.563158,-10.99638 C -11.63895,-11.107142 -11.650392,-11.206519 -11.484832,-11.324634" />
      <path d="M -8.775237,-11.977136 C -8.766512,-11.995009 -8.760892,-12.027527 -8.878274,-12.008489" />
      <path d="M -6.669827,-12.256554 C -6.795441,-12.248301 -6.861956,-12.208938 -6.885655,-12.189385" />
      <path d="M -6.885655,-12.189385 C -6.935731,-12.151734 -7.003417,-12.109298 -7.088716,-12.062077 C -7.264834,-11.963473 -7.492249,-11.84603 -7.739139,-11.715384" />
      <path d="M -8.472215,-11.633041 C -8.609007,-11.720804 -8.71476,-11.80099 -8.761316,-11.874694 C -8.784447,-11.909546 -8.789087,-11.943694 -8.775237,-11.977136" />
      <path d="M -5.842626,-12.231832 C -5.854619,-12.249935 -5.895327,-12.284927 -6.020398,-12.282983" />
      <path d="M -3.767317,-12.216485 C -3.890158,-12.225749 -3.911566,-12.192586 -3.914854,-12.174935" />
      <path d="M -3.914854,-12.174935 C -3.924734,-12.141511 -3.953239,-12.105858 -4.000371,-12.067974 C -4.096697,-11.988579 -4.250232,-11.897995 -4.431014,-11.797502" />
      <path d="M -5.178906,-11.819575 C -5.389708,-11.931847 -5.576254,-12.032641 -5.707295,-12.118866 C -5.770619,-12.159814 -5.815729,-12.197469 -5.842626,-12.231832" />
      <path d="M -2.886851,-12.071363 C -2.918744,-12.092561 -3.003006,-12.136364 -3.127244,-12.151998" />
      <path d="M -0.983072,-11.775469 C -1.094769,-11.801269 -1.069611,-11.767841 -1.052263,-11.749199" />
      <path d="M -1.052263,-11.749199 C -0.957751,-11.641668 -1.048138,-11.538148 -1.195924,-11.418287" />
      <path d="M -1.907665,-11.543273 C -2.178112,-11.689475 -2.432737,-11.821374 -2.639332,-11.931404 C -2.738534,-11.983811 -2.821041,-12.030464 -2.886851,-12.071363" />
      <path d="M -0.109343,-11.506666 C -0.158963,-11.53361 -0.281037,-11.591962 -0.395974,-11.624458" />
      <path d="M 1.493167,-10.963558 C 1.400226,-11.003787 1.470235,-10.963649 1.507036,-10.941189" />
      <path d="M 1.507036,-10.941189 C 1.721878,-10.811847 1.76801,-10.711447 1.745664,-10.603581" />
      <path d="M 1.118579,-10.822962 C 0.806918,-11.010205 0.501565,-11.181587 0.233494,-11.325083 C 0.105175,-11.393532 -0.009104,-11.454059 -0.109343,-11.506666" />
      <path d="M 2.300614,-10.576223 C 2.236649,-10.611176 2.085082,-10.68882 1.987279,-10.736317" />
      <path d="M 3.996455,-9.571179 Q 4.123868,-9.485008 4.193287,-9.408906" />
      <path d="M 3.693592,-9.707731 C 3.361956,-9.940331 3.026685,-10.156879 2.715407,-10.341223 C 2.566716,-10.429203 2.428451,-10.507536 2.300614,-10.576223" />
      <path d="M 4.178787,-9.343443 L 4.156785,-9.356576" />
      <path d="M 5.641891,-8.273581 C 5.312881,-8.55276 4.97054,-8.817084 4.637268,-9.046873 C 4.478337,-9.156541 4.32551,-9.255398 4.178787,-9.343443" />
      <path d="M 5.858859,-7.537919 L 5.728565,-7.643843" />
      <path d="M 7.25018,-4.316665 L 7.250132,-4.316632" />
      <path d="M 7.202568,-4.372499 L 7.202467,-4.372429" />
      <path d="M 7.877816,-3.053381 L 7.877766,-3.053353" />
      <path d="M 6.890373,-2.496574 L 6.890314,-2.496541" />
      <path d="M 7.216096,2.001735 L 3.468778,2.735359" />
      <path d="M 7.374921,6.824487 L 3.580808,6.137194" />
      <path d="M 7.455081,12.122944 L 7.455039,12.122919" />
      <path d="M 6.601682,13.53929 L 6.601515,13.539166" />
      <path d="M 3.038199,6.798512 L 3.038173,6.798505" />
      <path d="M 3.111007,6.898002 L 2.515769,6.731721" />
      <path d="M 2.887749,3.366044 L 2.880238,3.367052" />
      <path d="M 7.024362,-2.345958 L 7.024193,-2.345866" />
      <path d="M 7.651036,-6.231071 Q 7.08156,-6.929686 6.441383,-7.563897" />
      <path d="M 2.739789,-2.935666 L 2.739694,-2.93558" />
      <path d="M 2.336041,-1.991202 L 2.335971,-1.991144" />
      <path d="M 2.329023,-1.998807 L 2.328969,-1.998762" />
      <path d="M -6.730493,1.373543 L -6.368758,2.292249" />
      <path d="M -6.646806,1.0952 L -6.646803,1.09521" />
      <path d="M -8.660692,0.71496 L -8.660671,0.714985" />
      <path d="M -11.847806,-0.672785 L -11.847727,-0.67272" />
      <path d="M -12.110777,-0.878396 L -12.053493,-0.831843" />
      <path d="M -13.576389,-2.378966 L -13.576235,-2.378835" />
      <path d="M -13.754659,-3.34748 L -13.754651,-3.347472" />
      <path d="M -12.539715,-5.191672 L -12.539695,-5.191644" />
      <path d="M -11.602176,-11.065549 L -9.805108,-6.48194" />
      <path d="M -8.742191,-11.847871 L -8.742156,-11.847695" />
      <path d="M -8.781481,-11.922825 L -7.815468,-7.086638" />
      <path d="M -1.018384,-11.626158 L -2.339595,-6.877378" />
      <path d="M -12.713003,-5.063694 L -12.819081,-4.98272" />
      <path d="M -15.875286,-8.939941 L -15.982917,-8.856131" />
      <path d="M -13.093224,-10.686679 Q -13.480722,-10.492919 -13.857826,-10.279596" />
      <path d="M 2.088823,-10.686155 Q 3.079588,-10.190558 3.996456,-9.571178" />
    </g>
  </g>
</svg>