<?xml version='1.0' encoding='utf-8'?>
<svg width="100.09mm" height="60.784073mm" viewBox="-16.51424 -11.233298 37.881869 23.005438" version="1.1" xmlns="http://www.w3.org/2000/svg">
  <g transform="scale(1,-1)" stroke-linecap="round">
    <g fill="none" stroke="rgb(0,0,0)" stroke-width="0.03406302539074028" id="Visible">
      <path d="M 9.432503,0.931002 C 9.534559,0.884963 9.608374,0.811539 9.611203,0.727576" />
      <path d="M 7.467479,1.63395 L 7.494083,1.612154" />
      <path d="M 10.181917,3.321713 Q 10.049645,3.108794 9.946749,2.884043" />
      <path d="M 9.580707,3.42625 C 9.767484,3.36254 9.943812,3.27921 10.080383,3.148736" />
      <path d="M 8.84879,4.534461 C 8.918578,4.32917 9.004787,4.132937 9.129002,3.932813 C 9.250848,3.735861 9.416847,3.53811 9.580707,3.42625" />
      <path d="M 9.946749,2.884043 C 9.893587,2.766196 9.704467,2.72569 9.527968,2.744086 C 9.347028,2.761595 9.183977,2.81827 9.025187,2.892653" />
      <path d="M 9.025187,2.892653 C 8.820822,2.929129 8.539201,2.911695 8.286725,2.865534 C 8.029922,2.818898 7.801036,2.749596 7.574727,2.663584" />
      <path d="M 9.611203,0.727576 L 9.617657,0.603435" />
      <path d="M 9.42053,-1.481251 C 9.561794,-1.383909 9.710839,-1.303353 9.885428,-1.258641 C 10.055466,-1.213729 10.24986,-1.224889 10.326066,-1.332837" />
      <path d="M 9.161788,-1.541106 Q 9.306584,-1.519836 9.42053,-1.481251" />
      <path d="M 7.574727,2.663584 Q 7.507545,2.400967 7.467479,2.134231" />
      <line x1="7.467479" y1="1.63395" x2="7.467479" y2="2.134231" />
      <line x1="8.741284" y1="1.484017" x2="8.741284" y2="1.491361" />
      <path d="M 8.741284,1.491361 C 8.919833,1.514505 9.095427,1.519741 9.272445,1.482878 C 9.445637,1.448159 9.607542,1.354334 9.611203,1.227856" />
      <line x1="9.611203" y1="0.727576" x2="9.611203" y2="1.227856" />
      <path d="M 7.467479,2.134231 C 7.646464,1.986656 7.83444,1.854036 8.057576,1.7345 C 8.27683,1.616686 8.534782,1.517294 8.741284,1.491361" />
      <line x1="9.580707" y1="3.42625" x2="9.580707" y2="3.926531" />
      <path d="M 9.580707,3.926531 C 9.728493,3.879072 9.863493,3.812943 9.985707,3.728143 C 10.105528,3.642535 10.207008,3.523558 10.206724,3.41114" />
      <path d="M 10.206724,3.41114 Q 10.206841,3.363146 10.181917,3.321713" />
      <line x1="10.886437" y1="2.993539" x2="10.181917" y2="3.321713" />
      <path d="M 10.410843,1.248659 C 10.387476,1.846293 10.556935,2.468013 10.886437,2.993539" />
      <line x1="9.611203" y1="1.227856" x2="10.410843" y2="1.248659" />
      <path d="M 11.885284,4.887966 Q 11.647782,4.760838 11.428886,4.610744" />
      <path d="M 11.713878,5.171755 Q 11.83167,5.046779 11.911258,4.904671" />
      <path d="M 11.614024,5.734462 C 11.613411,5.532897 11.644959,5.321416 11.713878,5.171755" />
      <path d="M 11.428886,4.610744 C 11.314795,4.531701 11.127622,4.578498 10.985392,4.670842 C 10.838805,4.764339 10.730326,4.884011 10.635763,5.017174" />
      <path d="M 10.635763,5.017174 C 10.47984,5.137239 10.225882,5.244064 9.980575,5.313392 C 9.731247,5.384182 9.493008,5.423257 9.247349,5.446745" />
      <path d="M 9.247349,5.446745 Q 9.037517,5.248397 8.84879,5.034742" />
      <line x1="8.84879" y1="4.534461" x2="8.84879" y2="5.034742" />
      <path d="M 8.84879,5.034742 C 8.918578,4.829451 9.004787,4.633218 9.129002,4.433094 C 9.250848,4.236141 9.416847,4.038391 9.580707,3.926531" />
      <path d="M 10.326066,-1.332837 Q 10.435606,-1.486278 10.560165,-1.631019" />
      <path d="M 9.680723,-3.616928 Q 9.909799,-3.798614 10.156552,-3.962025" />
      <path d="M 11.436444,-3.328285 C 11.50257,-3.182827 11.58513,-3.048538 11.710509,-2.93423 C 11.831831,-2.821721 12.006626,-2.747227 12.134958,-2.80772" />
      <path d="M 10.156552,-3.962025 C 10.393646,-3.901599 10.620279,-3.826954 10.851406,-3.719401 C 11.078869,-3.613898 11.307255,-3.470166 11.436444,-3.328285" />
      <path d="M 12.134958,-2.80772 Q 12.380861,-2.922249 12.640431,-3.011343" />
      <path d="M 12.640431,-3.011343 Q 12.704886,-3.034629 12.744995,-3.088166" />
      <path d="M 12.607765,-4.029945 C 12.607748,-4.205547 12.642741,-4.396536 12.694406,-4.570198 C 12.746785,-4.742832 12.813664,-4.90783 12.895042,-5.06519" />
      <path d="M 12.895042,-5.06519 Q 13.198343,-5.123361 13.506401,-5.158052" />
      <path d="M 14.248862,-3.633267 C 14.282626,-3.469345 14.393969,-3.305479 14.553188,-3.30188" />
      <path d="M 13.506401,-5.158052 C 13.676837,-5.003076 13.830002,-4.840315 13.968056,-4.647109 C 14.104122,-4.457265 14.218911,-4.233914 14.248862,-4.055112" />
      <path d="M 16.073082,5.293225 Q 16.118738,5.405844 16.187591,5.514068" />
      <path d="M 16.187591,5.514068 Q 16.210504,5.613522 16.210312,5.734723" />
      <path d="M 14.553188,-3.30188 Q 14.832282,-3.294606 15.108524,-3.259388" />
      <path d="M 15.108524,-3.259388 C 15.252973,-3.240328 15.388047,-3.361889 15.457897,-3.503437 C 15.530855,-3.64787 15.555695,-3.798473 15.560692,-3.954735" />
      <path d="M 15.560692,-3.954735 C 15.626393,-4.126218 15.78464,-4.328677 15.957048,-4.494918 C 16.132094,-4.664166 16.315851,-4.801148 16.515035,-4.927842" />
      <path d="M 16.515035,-4.927842 Q 16.811292,-4.84691 17.098111,-4.743586" />
      <path d="M 16.906819,-2.699611 L 16.932793,-2.682907" />
      <path d="M 17.098111,-4.743586 C 17.16213,-4.514383 17.20326,-4.283094 17.204053,-4.029684" />
      <path d="M 18.257912,3.836079 C 18.364264,3.953719 18.494985,4.041702 18.641235,4.11953" />
      <path d="M 18.641235,4.11953 C 18.7799,4.254538 18.903274,4.474431 18.983342,4.686833 C 19.065099,4.902717 19.110227,5.109 19.137354,5.321707" />
      <path d="M 16.932793,-2.682907 Q 17.170295,-2.555779 17.38919,-2.405685" />
      <path d="M 17.38919,-2.405685 C 17.503281,-2.326642 17.690455,-2.373439 17.832684,-2.465783 C 17.979272,-2.55928 18.087751,-2.678952 18.182314,-2.812115" />
      <path d="M 18.182314,-2.812115 C 18.338237,-2.93218 18.592194,-3.039005 18.837501,-3.108332 C 19.08683,-3.179123 19.325069,-3.218198 19.570728,-3.241685" />
      <path d="M 19.570728,-3.241685 Q 19.780559,-3.043337 19.969286,-2.829683" />
      <path d="M 19.200419,1.601624 C 19.26975,1.691779 19.405095,1.756538 19.54036,1.793731 C 19.676622,1.82956 19.81679,1.848171 19.960866,1.849564" />
      <path d="M 19.960866,1.849564 C 20.158915,1.906452 20.392739,2.043472 20.584733,2.192754 C 20.780201,2.34432 20.938403,2.503429 21.084724,2.675894" />
      <path d="M 18.737693,-0.943676 Q 18.809851,-0.813287 18.871328,-0.678983" />
      <path d="M 18.871328,-0.678983 C 18.92449,-0.561137 19.11361,-0.520631 19.290109,-0.539027 C 19.471049,-0.556536 19.6341,-0.613211 19.792889,-0.687594" />
      <path d="M 19.792889,-0.687594 C 19.997255,-0.724069 20.278876,-0.706636 20.531352,-0.660474 C 20.788155,-0.613838 21.01704,-0.544537 21.24335,-0.458525" />
      <path d="M 21.24335,-0.458525 Q 21.310532,-0.195907 21.350598,0.070829" />
      <path d="M 9.611203,1.227856 Q 9.619604,0.986199 9.660279,0.747011" />
      <line x1="9.660279" y1="0.696727" x2="9.660279" y2="0.747011" />
      <path d="M 9.660279,0.747011 L 9.662278,0.721941" />
      <path d="M 9.662278,0.721941 C 9.663613,0.600905 9.520565,0.494224 9.361617,0.438178 C 9.199203,0.379903 9.031845,0.359663 8.85721,0.355495" />
      <path d="M 8.85721,0.355495 C 8.659162,0.298607 8.425338,0.161587 8.233344,0.012305 C 8.037876,-0.139261 7.879674,-0.29837 7.733353,-0.470835" />
      <line x1="7.733353" y1="-0.932403" x2="7.733353" y2="-0.470835" />
      <path d="M 7.733353,-0.470835 Q 7.826822,-0.727353 7.946153,-0.975699" />
      <line x1="7.946153" y1="-0.978169" x2="7.946153" y2="-0.975699" />
      <line x1="9.42053" y1="-1.481251" x2="9.42053" y2="-0.98097" />
      <path d="M 9.42053,-0.98097 C 9.561794,-0.883628 9.710839,-0.803073 9.885428,-0.75836 C 10.055466,-0.713448 10.24986,-0.724609 10.326066,-0.832556" />
      <line x1="10.326066" y1="-1.332837" x2="10.326066" y2="-0.832556" />
      <path d="M 7.946153,-0.975699 C 8.186376,-1.026015 8.425751,-1.059486 8.68802,-1.066404 C 8.945932,-1.073513 9.226719,-1.047913 9.42053,-0.98097" />
      <line x1="11.885284" y1="4.887966" x2="12.30591" y2="4.29875" />
      <path d="M 10.886437,2.993539 C 11.21131,3.521222 11.717083,3.986283 12.30591,4.29875" />
      <path d="M 11.006561,-0.468352 C 10.641216,0.039098 10.428955,0.650888 10.410843,1.248659" />
      <path d="M 12.513971,-1.697421 C 11.904541,-1.416126 11.367435,-0.978196 11.006561,-0.468352" />
      <path d="M 12.30591,4.29875 C 12.891973,4.615089 13.598538,4.798878 14.288914,4.814561" />
      <path d="M 14.529163,-2.109221 C 13.838945,-2.129454 13.12091,-1.982725 12.513971,-1.697421" />
      <path d="M 14.288914,4.814561 C 14.979132,4.834794 15.697166,4.688065 16.304106,4.402761" />
      <path d="M 16.512167,-1.59341 C 15.926104,-1.909749 15.219539,-2.093538 14.529163,-2.109221" />
      <path d="M 16.304106,4.402761 C 16.913535,4.121466 17.450642,3.683535 17.811515,3.173692" />
      <path d="M 17.93164,-0.288199 C 17.606767,-0.815882 17.100994,-1.280943 16.512167,-1.59341" />
      <path d="M 17.811515,3.173692 C 18.176861,2.666242 18.389122,2.054452 18.407234,1.456681" />
      <path d="M 18.407234,1.456681 C 18.430601,0.859047 18.261142,0.237327 17.93164,-0.288199" />
      <line x1="10.326066" y1="-0.832556" x2="11.006561" y2="-0.468352" />
      <line x1="11.713878" y1="5.171755" x2="11.713878" y2="5.672036" />
      <path d="M 11.713878,5.672036 C 11.791548,5.589586 11.856774,5.501593 11.909556,5.408057 C 11.961481,5.313823 11.999574,5.207592 11.99973,5.107535" />
      <path d="M 11.99973,5.107535 C 12.00051,5.014261 11.963222,4.929681 11.885284,4.887966" />
      <path d="M 14.264889,5.506939 Q 13.985795,5.499665 13.709553,5.464447" />
      <path d="M 13.709553,5.464447 C 13.565103,5.445387 13.43003,5.566948 13.36018,5.708496 C 13.287222,5.85293 13.262382,6.003532 13.257385,6.159794" />
      <path d="M 13.257385,6.159794 C 13.191684,6.331277 13.033437,6.533737 12.861029,6.699977 C 12.685982,6.869226 12.502225,7.006207 12.303042,7.132901" />
      <path d="M 12.303042,7.132901 Q 12.006785,7.05197 11.719966,6.948645" />
      <path d="M 11.719966,6.948645 C 11.655946,6.719442 11.614817,6.488153 11.614024,6.234743" />
      <path d="M 11.614024,6.234743 C 11.613411,6.033177 11.644959,5.821697 11.713878,5.672036" />
      <path d="M 10.326066,-0.832556 Q 10.472888,-1.038201 10.646234,-1.227734" />
      <line x1="10.646234" y1="-1.511819" x2="10.646234" y2="-1.227734" />
      <path d="M 10.646234,-1.227734 Q 10.693213,-1.281352 10.692867,-1.353423" />
      <path d="M 10.692867,-1.353423 C 10.692868,-1.46286 10.613665,-1.582561 10.516482,-1.676622 C 10.417407,-1.770008 10.304193,-1.84929 10.176841,-1.914471" />
      <path d="M 10.176841,-1.914471 C 10.038176,-2.049479 9.914802,-2.269371 9.834735,-2.481774 C 9.752978,-2.697658 9.707849,-2.903941 9.680723,-3.116647" />
      <line x1="9.680723" y1="-3.616928" x2="9.680723" y2="-3.116647" />
      <path d="M 9.680723,-3.116647 Q 9.909799,-3.298333 10.156552,-3.461745" />
      <line x1="10.156552" y1="-3.962025" x2="10.156552" y2="-3.461745" />
      <line x1="11.436444" y1="-3.328285" x2="11.436444" y2="-2.828005" />
      <path d="M 11.436444,-2.828005 C 11.50257,-2.682546 11.58513,-2.548257 11.710509,-2.433949 C 11.831831,-2.32144 12.006626,-2.246946 12.134958,-2.30744" />
      <line x1="12.134958" y1="-2.80772" x2="12.134958" y2="-2.30744" />
      <path d="M 10.156552,-3.461745 C 10.393646,-3.401319 10.620279,-3.326673 10.851406,-3.21912 C 11.078869,-3.113618 11.307255,-2.969885 11.436444,-2.828005" />
      <path d="M 12.134958,-2.30744 Q 12.380861,-2.421969 12.640431,-2.511063" />
      <line x1="12.640431" y1="-3.011343" x2="12.640431" y2="-2.511063" />
      <path d="M 12.640431,-2.511063 C 12.754398,-2.549689 12.808299,-2.673449 12.806476,-2.802332" />
      <path d="M 12.806476,-2.802332 C 12.803728,-2.983388 12.728629,-3.151831 12.630486,-3.309009" />
      <path d="M 12.630486,-3.309009 Q 12.607573,-3.408462 12.607765,-3.529664" />
      <path d="M 12.607765,-3.529664 C 12.607748,-3.705266 12.642741,-3.896255 12.694406,-4.069917 C 12.746785,-4.242552 12.813664,-4.407549 12.895042,-4.56491" />
      <line x1="12.895042" y1="-5.06519" x2="12.895042" y2="-4.56491" />
      <path d="M 12.895042,-4.56491 Q 13.198343,-4.62308 13.506401,-4.657772" />
      <line x1="13.506401" y1="-5.158052" x2="13.506401" y2="-4.657772" />
      <line x1="14.248862" y1="-4.055112" x2="14.248862" y2="-3.554831" />
      <path d="M 14.248862,-3.554831 Q 14.228359,-3.441481 14.227859,-3.330927" />
      <path d="M 14.227859,-3.330927 C 14.227878,-3.216214 14.246548,-3.094237 14.299879,-2.989114 C 14.351843,-2.884615 14.444146,-2.80418 14.553188,-2.801599" />
      <line x1="14.553188" y1="-3.30188" x2="14.553188" y2="-2.801599" />
      <path d="M 13.506401,-4.657772 C 13.676837,-4.502796 13.830002,-4.340034 13.968056,-4.146828 C 14.104122,-3.956984 14.218911,-3.733633 14.248862,-3.554831" />
      <path d="M 16.683119,5.012779 Q 16.437216,5.127309 16.177646,5.216403" />
      <path d="M 16.177646,5.216403 C 16.063679,5.255029 16.009778,5.378789 16.0116,5.507672" />
      <path d="M 16.0116,5.507672 C 16.014349,5.688728 16.089447,5.857171 16.187591,6.014349" />
      <line x1="16.187591" y1="5.514068" x2="16.187591" y2="6.014349" />
      <path d="M 16.187591,6.014349 Q 16.210504,6.113802 16.210312,6.235004" />
      <path d="M 16.210312,6.235004 C 16.210329,6.410607 16.175335,6.601595 16.123671,6.775257 C 16.071292,6.947892 16.004413,7.112889 15.923035,7.27025" />
      <path d="M 15.923035,7.27025 Q 15.619734,7.32842 15.311676,7.363111" />
      <line x1="14.569215" y1="5.838326" x2="14.569215" y2="6.260171" />
      <path d="M 14.569215,6.260171 Q 14.589718,6.146821 14.590218,6.036266" />
      <path d="M 14.590218,6.036266 C 14.590198,5.921554 14.571528,5.799577 14.518197,5.694454 C 14.466233,5.589955 14.373931,5.50952 14.264889,5.506939" />
      <path d="M 15.311676,7.363111 C 15.14124,7.208135 14.988075,7.045374 14.85002,6.852168 C 14.713954,6.662324 14.599166,6.438973 14.569215,6.260171" />
      <path d="M 14.553188,-2.801599 Q 14.832282,-2.794325 15.108524,-2.759107" />
      <line x1="15.108524" y1="-3.259388" x2="15.108524" y2="-2.759107" />
      <path d="M 15.108524,-2.759107 C 15.252973,-2.740048 15.388047,-2.861608 15.457897,-3.003156 C 15.530855,-3.14759 15.555695,-3.298192 15.560692,-3.454454" />
      <line x1="15.560692" y1="-3.954735" x2="15.560692" y2="-3.454454" />
      <path d="M 15.560692,-3.454454 C 15.626393,-3.625937 15.78464,-3.828397 15.957048,-3.994637 C 16.132094,-4.163886 16.315851,-4.300867 16.515035,-4.427561" />
      <line x1="16.515035" y1="-4.927842" x2="16.515035" y2="-4.427561" />
      <path d="M 16.515035,-4.427561 Q 16.811292,-4.34663 17.098111,-4.243305" />
      <line x1="17.098111" y1="-4.743586" x2="17.098111" y2="-4.243305" />
      <path d="M 17.104198,-2.966696 C 17.026529,-2.884246 16.961303,-2.796253 16.908521,-2.702718 C 16.856596,-2.608484 16.818503,-2.502252 16.818347,-2.402195" />
      <path d="M 16.818347,-2.402195 C 16.817567,-2.308921 16.854855,-2.224341 16.932793,-2.182626" />
      <line x1="16.932793" y1="-2.682907" x2="16.932793" y2="-2.182626" />
      <path d="M 17.098111,-4.243305 C 17.16213,-4.014102 17.20326,-3.782813 17.204053,-3.529403" />
      <path d="M 17.204053,-3.529403 C 17.204666,-3.327837 17.173118,-3.116357 17.104198,-2.966696" />
      <path d="M 18.492011,3.537896 Q 18.345188,3.743541 18.171842,3.933074" />
      <path d="M 18.171842,3.933074 Q 18.124864,3.986692 18.12521,4.058763" />
      <path d="M 18.12521,4.058763 C 18.125208,4.168199 18.204412,4.287901 18.301595,4.381962 C 18.40067,4.475347 18.513884,4.55463 18.641235,4.619811" />
      <line x1="18.641235" y1="4.11953" x2="18.641235" y2="4.619811" />
      <path d="M 18.641235,4.619811 C 18.7799,4.754819 18.903274,4.974711 18.983342,5.187114 C 19.065099,5.402998 19.110227,5.609281 19.137354,5.821987" />
      <line x1="19.137354" y1="5.321707" x2="19.137354" y2="5.821987" />
      <path d="M 19.137354,5.821987 Q 18.908278,6.003673 18.661525,6.167085" />
      <path d="M 17.381633,5.533345 C 17.315506,5.387886 17.232947,5.253597 17.107568,5.139289 C 16.986246,5.02678 16.811451,4.952286 16.683119,5.012779" />
      <path d="M 18.661525,6.167085 C 18.424431,6.106658 18.197798,6.032013 17.966671,5.92446 C 17.739207,5.818958 17.510822,5.675226 17.381633,5.533345" />
      <path d="M 16.932793,-2.182626 Q 17.170295,-2.055498 17.38919,-1.905404" />
      <line x1="17.38919" y1="-2.405685" x2="17.38919" y2="-1.905404" />
      <path d="M 17.38919,-1.905404 C 17.503281,-1.826361 17.690455,-1.873158 17.832684,-1.965502 C 17.979272,-2.058999 18.087751,-2.178671 18.182314,-2.311834" />
      <line x1="18.182314" y1="-2.812115" x2="18.182314" y2="-2.311834" />
      <path d="M 18.182314,-2.311834 C 18.338237,-2.431899 18.592194,-2.538724 18.837501,-2.608052 C 19.08683,-2.678842 19.325069,-2.717917 19.570728,-2.741405" />
      <line x1="19.570728" y1="-3.241685" x2="19.570728" y2="-2.741405" />
      <path d="M 19.570728,-2.741405 Q 19.780559,-2.543057 19.969286,-2.329402" />
      <line x1="19.969286" y1="-2.829683" x2="19.969286" y2="-2.329402" />
      <path d="M 19.23737,-1.221191 C 19.089583,-1.173732 18.954584,-1.107603 18.83237,-1.022803 C 18.712549,-0.937195 18.611069,-0.818219 18.611353,-0.7058" />
      <path d="M 18.611353,-0.7058 Q 18.611236,-0.657806 18.63616,-0.616373" />
      <line x1="18.63616" y1="-0.80738" x2="18.63616" y2="-0.616373" />
      <path d="M 19.969286,-2.329402 C 19.899499,-2.124111 19.81329,-1.927878 19.689075,-1.727754 C 19.567229,-1.530801 19.40123,-1.33305 19.23737,-1.221191" />
      <path d="M 19.206873,1.477483 Q 19.198473,1.719141 19.157798,1.958329" />
      <path d="M 19.157798,1.958329 L 19.155799,1.983398" />
      <path d="M 19.155799,1.983398 C 19.154464,2.104435 19.297512,2.211116 19.45646,2.267162 C 19.618874,2.325437 19.786231,2.345677 19.960866,2.349845" />
      <line x1="19.960866" y1="1.849564" x2="19.960866" y2="2.349845" />
      <path d="M 19.960866,2.349845 C 20.158915,2.406733 20.392739,2.543753 20.584733,2.693035 C 20.780201,2.844601 20.938403,3.003709 21.084724,3.176175" />
      <line x1="21.084724" y1="2.675894" x2="21.084724" y2="3.176175" />
      <path d="M 21.084724,3.176175 Q 20.991255,3.432693 20.871924,3.681039" />
      <path d="M 19.397546,3.68631 C 19.256283,3.588968 19.107238,3.508412 18.932648,3.4637 C 18.762611,3.418788 18.568217,3.429948 18.492011,3.537896" />
      <path d="M 20.871924,3.681039 C 20.631701,3.731354 20.392326,3.764826 20.130057,3.771744 C 19.872144,3.778853 19.591357,3.753253 19.397546,3.68631" />
      <path d="M 18.63616,-0.616373 Q 18.768432,-0.403455 18.871328,-0.178703" />
      <line x1="18.871328" y1="-0.678983" x2="18.871328" y2="-0.178703" />
      <path d="M 18.871328,-0.178703 C 18.92449,-0.060856 19.11361,-0.02035 19.290109,-0.038746 C 19.471049,-0.056255 19.6341,-0.11293 19.792889,-0.187313" />
      <line x1="19.792889" y1="-0.687594" x2="19.792889" y2="-0.187313" />
      <path d="M 19.792889,-0.187313 C 19.997255,-0.223788 20.278876,-0.206355 20.531352,-0.160194 C 20.788155,-0.113558 21.01704,-0.044257 21.24335,0.041756" />
      <line x1="21.24335" y1="-0.458525" x2="21.24335" y2="0.041756" />
      <path d="M 21.24335,0.041756 Q 21.310532,0.304373 21.350598,0.571109" />
      <line x1="21.350598" y1="0.070829" x2="21.350598" y2="0.571109" />
      <path d="M 20.076793,1.213979 C 19.898244,1.190835 19.72265,1.185599 19.545631,1.222462 C 19.37244,1.257181 19.210535,1.351006 19.206873,1.477483" />
      <path d="M 21.350598,0.571109 C 21.171613,0.718683 20.983637,0.851304 20.760501,0.97084 C 20.541247,1.088655 20.283295,1.188046 20.076793,1.213979" />
      <line x1="14.264889" y1="5.506939" x2="14.288914" y2="4.814561" />
      <line x1="12.134958" y1="-2.30744" x2="12.513971" y2="-1.697421" />
      <line x1="14.553188" y1="-2.801599" x2="14.529163" y2="-2.109221" />
      <line x1="16.683119" y1="5.012779" x2="16.304106" y2="4.402761" />
      <line x1="16.932793" y1="-2.182626" x2="16.512167" y2="-1.59341" />
      <line x1="18.492011" y1="3.537896" x2="17.811515" y2="3.173692" />
      <line x1="18.63616" y1="-0.616373" x2="17.93164" y2="-0.288199" />
      <line x1="19.206873" y1="1.477483" x2="18.407234" y2="1.456681" />
      <path d="M 7.275314,-0.760963 L 7.277899,-0.647723" />
      <path d="M 7.277899,-0.647723 C 7.278541,-0.578677 7.36749,-0.523031 7.466103,-0.492366 C 7.566019,-0.460721 7.670569,-0.449126 7.75649,-0.443759" />
      <line x1="7.251078" y1="-0.703369" x2="7.251078" y2="-0.690234" />
      <path d="M 7.251078,-0.690234 Q 7.273595,-0.419176 7.277899,-0.147443" />
      <line x1="7.277899" y1="-0.647723" x2="7.277899" y2="-0.147443" />
      <path d="M 6.797156,-3.281361 L 6.871623,-3.06343" />
      <path d="M 6.871623,-3.06343 C 6.893495,-2.994985 7.001027,-2.961387 7.108443,-2.954901 C 7.217604,-2.947735 7.323508,-2.961266 7.408747,-2.976046" />
      <path d="M 7.408747,-2.976046 C 7.652647,-3.015942 8.005809,-3.002064 8.321916,-2.95916 C 8.643962,-2.915845 8.929967,-2.850307 9.216724,-2.768836" />
      <path d="M 9.216724,-2.768836 Q 9.288232,-2.465223 9.340346,-2.158663" />
      <path d="M 7.277899,-0.147443 C 7.278566,-0.076428 7.372392,-0.019877 7.474209,0.01046 C 7.577508,0.041845 7.683848,0.052508 7.7706,0.057334" />
      <line x1="7.7706" y1="-0.427484" x2="7.7706" y2="0.057334" />
      <path d="M 7.7706,0.057334 C 8.018116,0.073456 8.355096,0.166005 8.647607,0.278288 C 8.945731,0.392298 9.202401,0.519697 9.455034,0.662654" />
      <line x1="9.455034" y1="0.478402" x2="9.455034" y2="0.662654" />
      <path d="M 7.039429,1.939082 C 7.138037,2.011982 7.265147,2.056268 7.362944,2.084932" />
      <path d="M 7.362944,2.084932 Q 7.413219,2.100331 7.467479,2.121198" />
      <path d="M 8.662629,2.90964 L 8.809043,3.047111" />
      <path d="M 9.455034,0.662654 Q 9.433352,0.971948 9.392054,1.27974" />
      <path d="M 7.611124,1.619902 C 7.524739,1.61148 7.417887,1.605831 7.309832,1.621045 C 7.203448,1.635451 7.099624,1.676878 7.084583,1.746691" />
      <path d="M 9.392054,1.27974 C 9.114382,1.38212 8.835887,1.46857 8.519291,1.535544 C 8.208571,1.60167 7.858069,1.641615 7.611124,1.619902" />
      <path d="M 7.721779,-0.930701 C 7.637114,-0.91965 7.53431,-0.901573 7.435748,-0.863893 C 7.338585,-0.827274 7.250154,-0.766318 7.250822,-0.696795" />
      <path d="M 7.250822,-0.696795 L 7.251078,-0.690234" />
      <line x1="6.45314" y1="-0.640534" x2="7.251078" y2="-0.690234" />
      <path d="M 6.298978,1.615878 C 6.463724,0.876023 6.515993,0.110979 6.45314,-0.640534" />
      <line x1="7.084583" y1="1.746691" x2="6.298978" y2="1.615878" />
      <line x1="6.683468" y1="-3.148974" x2="6.683468" y2="-3.081435" />
      <path d="M 6.683468,-3.081435 Q 6.786241,-2.824659 6.871623,-2.563149" />
      <line x1="6.871623" y1="-3.06343" x2="6.871623" y2="-2.563149" />
      <path d="M 5.562462,-5.577948 Q 5.662482,-5.443291 5.757101,-5.305776" />
      <path d="M 5.757101,-5.305776 C 5.798687,-5.244564 5.912598,-5.23621 6.018292,-5.254017 C 6.125876,-5.271558 6.224127,-5.308361 6.302043,-5.34174" />
      <path d="M 6.302043,-5.34174 C 6.525708,-5.434935 6.870984,-5.500675 7.189145,-5.530072 C 7.513164,-5.560404 7.809015,-5.561194 8.110353,-5.546762" />
      <path d="M 8.110353,-5.546762 Q 8.270179,-5.269519 8.412152,-4.985084" />
      <path d="M 6.871623,-2.563149 C 6.893495,-2.494704 7.001027,-2.461106 7.108443,-2.454621 C 7.217604,-2.447454 7.323508,-2.460985 7.408747,-2.475765" />
      <line x1="7.408747" y1="-2.976046" x2="7.408747" y2="-2.475765" />
      <path d="M 7.408747,-2.475765 C 7.652647,-2.515661 8.005809,-2.501784 8.321916,-2.458879 C 8.643962,-2.415564 8.929967,-2.350026 9.216724,-2.268556" />
      <line x1="9.216724" y1="-2.768836" x2="9.216724" y2="-2.268556" />
      <path d="M 9.216724,-2.268556 Q 9.288232,-1.964942 9.340346,-1.658383" />
      <line x1="9.340346" y1="-2.158663" x2="9.340346" y2="-1.658383" />
      <path d="M 9.340346,-1.658383 C 9.102738,-1.497264 8.859573,-1.351348 8.573785,-1.215707 C 8.293419,-1.082202 7.966799,-0.96507 7.721779,-0.930701" />
      <path d="M 6.044865,4.321499 Q 6.131945,4.390086 6.213559,4.435318" />
      <path d="M 6.213559,4.435318 C 6.418603,4.556437 6.656994,4.782476 6.845478,5.006353 C 7.037825,5.234156 7.18654,5.455608 7.322774,5.688785" />
      <path d="M 4.344078,6.38923 Q 4.372865,6.42081 4.400774,6.448037" />
      <path d="M 4.400774,6.448037 C 4.562627,6.610981 4.725328,6.882741 4.84047,7.141229 C 4.958169,7.404376 5.035622,7.651609 5.097514,7.907371" />
      <path d="M 3.653222,-7.50946 Q 3.835515,-7.369184 4.010286,-7.221949" />
      <path d="M 4.010286,-7.221949 C 4.068752,-7.172143 4.181279,-7.189601 4.278049,-7.230488 C 4.376724,-7.27154 4.460626,-7.329108 4.52591,-7.37881" />
      <path d="M 4.52591,-7.37881 C 4.714095,-7.518953 5.027956,-7.65983 5.326488,-7.759527 C 5.630401,-7.861438 5.915934,-7.928502 6.211318,-7.982092" />
      <path d="M 6.211318,-7.982092 Q 6.448571,-7.750113 6.670728,-7.507187" />
      <path d="M 2.051067,7.991293 C 2.135892,8.146401 2.202174,8.370043 2.240997,8.59155 C 2.278863,8.816355 2.296991,9.032849 2.295384,9.241033" />
      <path d="M 1.199175,-8.930439 Q 1.478839,-8.812769 1.75022,-8.681366" />
      <path d="M 1.75022,-8.681366 C 1.821582,-8.646359 1.925056,-8.68844 2.006307,-8.74962 C 2.089348,-8.811387 2.153184,-8.885795 2.201386,-8.948434" />
      <path d="M 2.201386,-8.948434 C 2.341269,-9.125975 2.602325,-9.332388 2.860884,-9.49559 C 3.123978,-9.662136 3.379737,-9.790903 3.649037,-9.908863" />
      <path d="M 3.649037,-9.908863 Q 3.947547,-9.737958 4.234748,-9.553094" />
      <path d="M -0.667527,9.045088 Q -0.656551,9.138369 -0.656636,9.243847" />
      <path d="M -1.481537,-9.702622 Q -1.173326,-9.651299 -0.869076,-9.584569" />
      <path d="M -0.869076,-9.584569 C -0.789682,-9.566748 -0.702313,-9.630583 -0.642117,-9.707887 C -0.580369,-9.786159 -0.540951,-9.872338 -0.513114,-9.943645" />
      <path d="M -0.513114,-9.943645 C -0.431067,-10.146484 -0.240606,-10.404367 -0.03964,-10.619951 C 0.164706,-10.839782 0.373259,-11.021477 0.598123,-11.195769" />
      <path d="M 0.598123,-11.195769 Q 0.937547,-11.097584 1.270221,-10.983382" />
      <path d="M 1.270221,-10.983382 C 1.307724,-10.754422 1.330705,-10.530703 1.331045,-10.285506" />
      <path d="M -4.295982,-9.846784 Q -3.982932,-9.866281 -3.669103,-9.870007" />
      <path d="M -3.669103,-9.870007 C -3.587087,-9.870585 -3.521776,-9.951825 -3.486739,-10.039985 C -3.450491,-10.129428 -3.438176,-10.221504 -3.432603,-10.296619" />
      <path d="M -3.432603,-10.296619 C -3.413983,-10.510934 -3.307097,-10.802713 -3.17742,-11.055987 C -3.045748,-11.314122 -2.898612,-11.536363 -2.733508,-11.755109" />
      <path d="M -2.733508,-11.755109 Q -2.3763,-11.736335 -2.020826,-11.700577" />
      <path d="M -1.621186,-9.872756 C -1.601545,-9.790002 -1.554596,-9.714423 -1.481537,-9.702622" />
      <path d="M -2.020826,-11.700577 C -1.913404,-11.482203 -1.822167,-11.265261 -1.747614,-11.021013 C -1.674061,-10.780434 -1.620977,-10.510087 -1.621186,-10.2876" />
      <path d="M -8.373219,9.246382 C -8.374379,8.952621 -8.333439,8.618363 -8.241349,8.391596" />
      <path d="M -7.05762,-9.355311 Q -6.761064,-9.444299 -6.459043,-9.518228" />
      <path d="M -6.459043,-9.518228 Q -6.405222,-9.533026 -6.374647,-9.58393" />
      <path d="M -6.385538,-10.282971 C -6.385546,-10.497269 -6.352741,-10.73012 -6.304724,-10.941897 C -6.256143,-11.155931 -6.194,-11.350502 -6.118812,-11.548765" />
      <path d="M -6.118812,-11.548765 Q -5.768163,-11.610681 -5.414113,-11.655804" />
      <path d="M -4.573701,-10.254347 C -4.560738,-10.179918 -4.539385,-10.089089 -4.494447,-10.002654 C -4.450842,-9.917407 -4.377755,-9.841295 -4.295982,-9.846784" />
      <path d="M -5.414113,-11.655804 C -5.228035,-11.450069 -5.059514,-11.239521 -4.902859,-10.992067 C -4.748672,-10.749309 -4.613394,-10.466501 -4.573701,-10.254347" />
      <path d="M -10.726683,7.008442 L -10.695396,6.970617" />
      <path d="M -11.276922,8.513971 C -11.240485,8.254566 -11.187704,8.002508 -11.096392,7.731619 C -11.00717,7.46556 -10.871872,7.18276 -10.726683,7.008442" />
      <path d="M -9.578248,-8.261697 Q -9.339884,-8.401508 -9.093241,-8.530136" />
      <path d="M -9.337558,-10.280156 Q -9.337384,-10.434837 -9.327084,-10.590799" />
      <path d="M -9.327084,-10.590799 Q -9.006892,-10.729186 -8.678393,-10.852116" />
      <path d="M -7.447702,-9.686749 C -7.412933,-9.617761 -7.365158,-9.534813 -7.295914,-9.461393 C -7.228313,-9.388824 -7.134966,-9.331683 -7.05762,-9.355311" />
      <path d="M -8.678393,-10.852116 C -8.437158,-10.69509 -8.211444,-10.529483 -7.986159,-10.325568 C -7.764662,-10.125634 -7.549458,-9.882779 -7.447702,-9.686749" />
      <path d="M -12.731387,5.137144 Q -12.669845,5.095706 -12.604636,5.039106" />
      <path d="M -13.712902,6.468063 C -13.600166,6.225663 -13.47384,5.994022 -13.304667,5.752826 C -13.138957,5.515828 -12.923735,5.272985 -12.731387,5.137144" />
      <path d="M -11.686091,-6.640468 Q -11.539625,-6.786947 -11.386252,-6.928073" />
      <path d="M -12.139688,-8.946494 Q -11.871772,-9.151922 -11.591212,-9.34428" />
      <path d="M -10.054111,-8.494423 C -9.999905,-8.435578 -9.928963,-8.366162 -9.840132,-8.310762 C -9.753143,-8.255814 -9.645896,-8.22154 -9.578248,-8.261697" />
      <path d="M -11.591212,-9.34428 C -11.31126,-9.246667 -11.043734,-9.137285 -10.765172,-8.990805 C -10.491459,-8.847322 -10.210996,-8.66097 -10.054111,-8.494423" />
      <path d="M -14.108425,2.88035 C -14.026058,2.849218 -13.925883,2.805852 -13.83933,2.742519" />
      <path d="M -15.454326,3.945961 C -15.272975,3.737084 -15.081712,3.541646 -14.846207,3.346581 C -14.615301,3.154794 -14.334823,2.968457 -14.108425,2.88035" />
      <path d="M -13.237503,-4.60211 Q -13.164585,-4.73222 -13.087039,-4.860341" />
      <path d="M -14.364948,-6.727909 Q -14.167566,-6.986377 -13.954065,-7.235055" />
      <path d="M -12.215304,-6.758623 C -12.145356,-6.71393 -12.056082,-6.662778 -11.953718,-6.629173 C -11.853268,-6.595592 -11.739431,-6.58652 -11.686091,-6.640468" />
      <path d="M -13.954065,-7.235055 C -13.654474,-7.203505 -13.363368,-7.157804 -13.050513,-7.078741 C -12.743237,-7.001487 -12.416627,-6.884336 -12.215304,-6.758623" />
      <path d="M -14.763953,0.391858 C -14.690872,0.383832 -14.611469,0.367152 -14.525743,0.341818 C -14.442806,0.315603 -14.358439,0.275174 -14.317488,0.22212" />
      <path d="M -16.38252,1.11954 C -16.144912,0.958422 -15.901747,0.812506 -15.615959,0.676864 C -15.335592,0.543359 -15.008973,0.426227 -14.763953,0.391858" />
      <path d="M -14.126757,-2.285533 L -14.081603,-2.477924" />
      <path d="M -15.851217,-4.086234 Q -15.737821,-4.38013 -15.605927,-4.668179" />
      <path d="M -13.784002,-4.597641 C -13.703077,-4.570147 -13.601555,-4.540744 -13.492634,-4.531224 C -13.385569,-4.521299 -13.272899,-4.538047 -13.237503,-4.60211" />
      <path d="M -15.605927,-4.668179 C -15.307114,-4.704844 -15.012267,-4.725937 -14.686439,-4.71968 C -14.366541,-4.713919 -14.016042,-4.673954 -13.784002,-4.597641" />
      <path d="M -16.497208,-1.201497 Q -16.475525,-1.51079 -16.434228,-1.818583" />
      <path d="M -14.653298,-2.158745 C -14.566913,-2.150323 -14.460061,-2.144674 -14.352006,-2.159887 C -14.245622,-2.174293 -14.141797,-2.215721 -14.126757,-2.285533" />
      <path d="M -16.434228,-1.818583 C -16.156556,-1.920963 -15.878061,-2.007413 -15.561465,-2.074387 C -15.250745,-2.140513 -14.900243,-2.180457 -14.653298,-2.158745" />
      <path d="M 7.084583,1.746691 Q 7.02531,2.013559 6.948242,2.276998" />
      <path d="M 6.948242,2.276998 L 6.944901,2.300815" />
      <path d="M 6.944901,2.300815 C 6.944518,2.367502 7.020876,2.435149 7.10622,2.482528 C 7.192773,2.530941 7.28515,2.56246 7.362944,2.585212" />
      <line x1="7.362944" y1="2.084932" x2="7.362944" y2="2.585212" />
      <path d="M 7.362944,2.585212 C 7.597206,2.656254 7.89504,2.821167 8.144021,2.995176 C 8.397908,3.172111 8.607751,3.35269 8.809043,3.547392" />
      <line x1="8.809043" y1="3.047111" x2="8.809043" y2="3.547392" />
      <path d="M 8.809043,3.547392 Q 8.695647,3.841287 8.563753,4.129337" />
      <path d="M 6.741828,4.058799 C 6.660904,4.031304 6.559381,4.001902 6.45046,3.992382 C 6.343395,3.982456 6.230725,3.999204 6.195329,4.063267" />
      <path d="M 8.563753,4.129337 C 8.26494,4.166001 7.970093,4.187095 7.644265,4.180837 C 7.324367,4.175076 6.973868,4.135112 6.741828,4.058799" />
      <line x1="6.683468" y1="-3.081435" x2="5.927575" y2="-2.854609" />
      <path d="M 6.45314,-0.640534 C 6.391119,-1.392099 6.212925,-2.142788 5.927575,-2.854609" />
      <path d="M 5.475595,3.760856 C 5.855881,3.083131 6.135051,2.35587 6.298978,1.615878" />
      <path d="M 4.039102,5.648225 C 4.609012,5.078815 5.096059,4.438897 5.475595,3.760856" />
      <path d="M 5.927575,-2.854609 C 5.643014,-3.566666 5.246499,-4.251842 4.758099,-4.875461" />
      <path d="M 2.087396,7.149362 C 2.808091,6.727073 3.469823,6.218108 4.039102,5.648225" />
      <path d="M 4.758099,-4.875461 C 4.27039,-5.499484 3.682577,-6.072454 3.02441,-6.565372" />
      <path d="M -0.24652,8.161968 C 0.575847,7.915577 1.367168,7.57225 2.087396,7.149362" />
      <path d="M 3.02441,-6.565372 C 2.36679,-7.058836 1.627738,-7.480552 0.844657,-7.809178" />
      <path d="M -2.803591,8.617036 C -1.935596,8.563334 -1.068613,8.409042 -0.24652,8.161968" />
      <path d="M 0.844657,-7.809178 C 0.061941,-8.138453 -0.777986,-8.380177 -1.632615,-8.522115" />
      <path d="M -5.409559,8.483553 C -4.555088,8.6262 -3.671527,8.671458 -2.803591,8.617036" />
      <path d="M -1.632615,-8.522115 C -2.487086,-8.664762 -3.370647,-8.71002 -4.238583,-8.655598" />
      <path d="M -7.886831,7.770615 C -7.104115,8.099891 -6.264188,8.341615 -5.409559,8.483553" />
      <path d="M -4.238583,-8.655598 C -5.106578,-8.601896 -5.973561,-8.447604 -6.795654,-8.200531" />
      <path d="M -10.066584,6.52681 C -9.408964,7.020274 -8.669912,7.44199 -7.886831,7.770615" />
      <path d="M -6.795654,-8.200531 C -7.618021,-7.954139 -8.409342,-7.610812 -9.12957,-7.187924" />
      <path d="M -11.800273,4.836898 C -11.312564,5.460922 -10.724751,6.033892 -10.066584,6.52681" />
      <path d="M -9.12957,-7.187924 C -9.850265,-6.765635 -10.511997,-6.25667 -11.081276,-5.686787" />
      <path d="M -12.969749,2.816047 C -12.685187,3.528104 -12.288673,4.21328 -11.800273,4.836898" />
      <path d="M -11.081276,-5.686787 C -11.651186,-5.117377 -12.138233,-4.477459 -12.517769,-3.799419" />
      <path d="M -13.495314,0.601972 C -13.433293,1.353537 -13.255098,2.104226 -12.969749,2.816047" />
      <path d="M -12.517769,-3.799419 C -12.898054,-3.121693 -13.177225,-2.394432 -13.341152,-1.65444" />
      <path d="M -13.341152,-1.65444 C -13.505898,-0.914585 -13.558167,-0.149541 -13.495314,0.601972" />
      <line x1="6.195329" y1="4.063267" x2="5.475595" y2="3.760856" />
      <path d="M 7.066251,-3.419193 C 6.992633,-3.391398 6.906181,-3.354291 6.82609,-3.301571 C 6.747103,-3.249866 6.67708,-3.179666 6.67735,-3.113902" />
      <path d="M 6.67735,-3.113902 Q 6.677316,-3.097136 6.683468,-3.081435" />
      <line x1="5.420434" y1="-5.404399" x2="5.420434" y2="-5.263955" />
      <path d="M 5.420434,-5.263955 Q 5.596459,-5.03896 5.757101,-4.805495" />
      <line x1="5.757101" y1="-5.305776" x2="5.757101" y2="-4.805495" />
      <path d="M 5.757101,-4.805495 C 5.798687,-4.744284 5.912598,-4.735929 6.018292,-4.753736 C 6.125876,-4.771277 6.224127,-4.808081 6.302043,-4.841459" />
      <line x1="6.302043" y1="-5.34174" x2="6.302043" y2="-4.841459" />
      <path d="M 6.302043,-4.841459 C 6.525708,-4.934654 6.870984,-5.000394 7.189145,-5.029792 C 7.513164,-5.060124 7.809015,-5.060913 8.110353,-5.046481" />
      <line x1="8.110353" y1="-5.546762" x2="8.110353" y2="-5.046481" />
      <path d="M 8.110353,-5.046481 Q 8.270179,-4.769238 8.412152,-4.484803" />
      <line x1="8.412152" y1="-4.985084" x2="8.412152" y2="-4.484803" />
      <path d="M 8.412152,-4.484803 C 8.230801,-4.275927 8.039538,-4.080489 7.804033,-3.885423 C 7.573127,-3.693637 7.292649,-3.5073 7.066251,-3.419193" />
      <path d="M 6.195329,4.063267 Q 6.058305,4.307759 5.905117,4.54495" />
      <path d="M 5.905117,4.54495 Q 5.890341,4.568442 5.89048,4.596537" />
      <path d="M 5.89048,4.596537 C 5.890389,4.661058 5.946685,4.73469 6.011579,4.793184 C 6.080052,4.852081 6.147379,4.899552 6.213559,4.935599" />
      <line x1="6.213559" y1="4.435318" x2="6.213559" y2="4.935599" />
      <path d="M 6.213559,4.935599 C 6.418603,5.056718 6.656994,5.282757 6.845478,5.506634 C 7.037825,5.734437 7.18654,5.955889 7.322774,6.189066" />
      <line x1="7.322774" y1="5.688785" x2="7.322774" y2="6.189066" />
      <path d="M 7.322774,6.189066 Q 7.125393,6.447535 6.911891,6.696212" />
      <path d="M 5.17313,6.21978 C 5.103182,6.175088 5.013908,6.123935 4.911544,6.09033 C 4.811094,6.05675 4.697257,6.047678 4.643918,6.101625" />
      <path d="M 6.911891,6.696212 C 6.6123,6.664663 6.321194,6.618961 6.008339,6.539898 C 5.701064,6.462644 5.374453,6.345494 5.17313,6.21978" />
      <path d="M 4.643918,6.101625 Q 4.43848,6.307079 4.219612,6.501858" />
      <path d="M 4.219612,6.501858 Q 4.183708,6.535675 4.184339,6.588776" />
      <path d="M 4.184339,6.588776 C 4.184387,6.651937 4.219811,6.724868 4.262461,6.787131 C 4.307462,6.850048 4.353566,6.903777 4.400774,6.948318" />
      <line x1="4.400774" y1="6.448037" x2="4.400774" y2="6.948318" />
      <path d="M 4.400774,6.948318 C 4.562627,7.111261 4.725328,7.383022 4.84047,7.64151 C 4.958169,7.904656 5.035622,8.151889 5.097514,8.407652" />
      <line x1="5.097514" y1="7.907371" x2="5.097514" y2="8.407652" />
      <path d="M 5.097514,8.407652 Q 4.829598,8.61308 4.549038,8.805437" />
      <path d="M 3.011937,7.95558 C 2.957731,7.896735 2.886789,7.827319 2.797958,7.771919 C 2.710969,7.716972 2.603722,7.682698 2.536074,7.722854" />
      <path d="M 4.549038,8.805437 C 4.269086,8.707824 4.00156,8.598443 3.722999,8.451962 C 3.449285,8.308479 3.168822,8.122127 3.011937,7.95558" />
      <line x1="3.54805" y1="-7.348824" x2="3.54805" y2="-7.089059" />
      <path d="M 3.54805,-7.089059 Q 3.785332,-6.911178 4.010286,-6.721668" />
      <line x1="4.010286" y1="-7.221949" x2="4.010286" y2="-6.721668" />
      <path d="M 4.010286,-6.721668 C 4.068752,-6.671862 4.181279,-6.68932 4.278049,-6.730207 C 4.376724,-6.77126 4.460626,-6.828827 4.52591,-6.87853" />
      <line x1="4.52591" y1="-7.37881" x2="4.52591" y2="-6.87853" />
      <path d="M 4.52591,-6.87853 C 4.714095,-7.018673 5.027956,-7.15955 5.326488,-7.259246 C 5.630401,-7.361158 5.915934,-7.428221 6.211318,-7.481812" />
      <line x1="6.211318" y1="-7.982092" x2="6.211318" y2="-7.481812" />
      <path d="M 6.211318,-7.481812 Q 6.448571,-7.249833 6.670728,-7.006906" />
      <line x1="6.670728" y1="-7.507187" x2="6.670728" y2="-7.006906" />
      <path d="M 5.689213,-5.675987 C 5.628875,-5.63639 5.568252,-5.586008 5.507344,-5.524839 C 5.449627,-5.46421 5.400172,-5.389955 5.400201,-5.325844" />
      <path d="M 5.400201,-5.325844 Q 5.399961,-5.290987 5.420434,-5.263955" />
      <path d="M 6.670728,-7.006906 C 6.557992,-6.764506 6.431666,-6.532865 6.262493,-6.291669 C 6.096783,-6.054671 5.881561,-5.811828 5.689213,-5.675987" />
      <path d="M 2.536074,7.722854 Q 2.276224,7.875268 2.006592,8.014361" />
      <path d="M 2.006592,8.014361 C 1.957802,8.039355 1.936935,8.095408 1.937333,8.157781" />
      <path d="M 1.937333,8.157781 C 1.938937,8.27719 1.998922,8.400029 2.048127,8.486207" />
      <line x1="2.048127" y1="7.992826" x2="2.048127" y2="8.486207" />
      <path d="M 2.048127,8.486207 C 2.133799,8.640554 2.200991,8.865188 2.240307,9.087956 C 2.278661,9.314106 2.297019,9.531892 2.295384,9.741314" />
      <path d="M 2.295384,9.741314 Q 2.295211,9.895994 2.284911,10.051956" />
      <path d="M 2.284911,10.051956 Q 1.964718,10.190344 1.636219,10.313273" />
      <path d="M 0.405528,9.147906 C 0.370759,9.078919 0.322984,8.99597 0.25374,8.922551 C 0.186139,8.849981 0.092792,8.79284 0.015446,8.816468" />
      <path d="M 1.636219,10.313273 C 1.394984,10.156248 1.16927,9.99064 0.943985,9.786725 C 0.722488,9.586792 0.507284,9.343936 0.405528,9.147906" />
      <line x1="1.193917" y1="-8.91765" x2="1.193917" y2="-8.432369" />
      <path d="M 1.193917,-8.432369 Q 1.476284,-8.313725 1.75022,-8.181085" />
      <line x1="1.75022" y1="-8.681366" x2="1.75022" y2="-8.181085" />
      <path d="M 1.75022,-8.181085 C 1.821582,-8.146079 1.925056,-8.188159 2.006307,-8.249339 C 2.089348,-8.311106 2.153184,-8.385515 2.201386,-8.448154" />
      <line x1="2.201386" y1="-8.948434" x2="2.201386" y2="-8.448154" />
      <path d="M 2.201386,-8.448154 C 2.341269,-8.625694 2.602325,-8.832108 2.860884,-8.995309 C 3.123978,-9.161855 3.379737,-9.290622 3.649037,-9.408583" />
      <line x1="3.649037" y1="-9.908863" x2="3.649037" y2="-9.408583" />
      <path d="M 3.649037,-9.408583 Q 3.947547,-9.237677 4.234748,-9.052814" />
      <line x1="4.234748" y1="-9.553094" x2="4.234748" y2="-9.052814" />
      <path d="M 3.684509,-7.547285 C 3.644047,-7.501683 3.605144,-7.447806 3.567798,-7.385654 C 3.532389,-7.324132 3.503535,-7.253326 3.503471,-7.191001" />
      <path d="M 3.503471,-7.191001 Q 3.502504,-7.125987 3.54805,-7.089059" />
      <path d="M 4.234748,-9.052814 C 4.198311,-8.793409 4.14553,-8.541351 4.054219,-8.270462 C 3.964997,-8.004403 3.829698,-7.721603 3.684509,-7.547285" />
      <path d="M 0.015446,8.816468 Q -0.281109,8.905456 -0.583131,8.979385" />
      <path d="M -0.583131,8.979385 C -0.677839,9.002354 -0.712449,9.128034 -0.710802,9.237178" />
      <path d="M -0.710802,9.237178 Q -0.707806,9.352667 -0.684053,9.444461" />
      <line x1="-0.684053" y1="9.077734" x2="-0.684053" y2="9.444461" />
      <path d="M -0.684053,9.444461 Q -0.656397,9.576208 -0.656636,9.744128" />
      <path d="M -0.656636,9.744128 C -0.656628,9.958426 -0.689433,10.191278 -0.73745,10.403054 C -0.786031,10.617088 -0.848174,10.81166 -0.923362,11.009922" />
      <path d="M -0.923362,11.009922 Q -1.27401,11.071839 -1.628061,11.116962" />
      <path d="M -2.468473,9.715504 C -2.481435,9.641075 -2.502788,9.550246 -2.547727,9.463811 C -2.591332,9.378565 -2.664418,9.302452 -2.746192,9.307941" />
      <path d="M -1.628061,11.116962 C -1.814139,10.911226 -1.98266,10.700678 -2.139315,10.453225 C -2.293502,10.210466 -2.42878,9.927658 -2.468473,9.715504" />
      <line x1="-1.481537" y1="-9.702622" x2="-1.481537" y2="-9.202342" />
      <path d="M -1.481537,-9.202342 Q -1.173326,-9.151019 -0.869076,-9.084288" />
      <line x1="-0.869076" y1="-9.584569" x2="-0.869076" y2="-9.084288" />
      <path d="M -0.869076,-9.084288 C -0.789682,-9.066467 -0.702313,-9.130302 -0.642117,-9.207606 C -0.580369,-9.285878 -0.540951,-9.372057 -0.513114,-9.443364" />
      <line x1="-0.513114" y1="-9.943645" x2="-0.513114" y2="-9.443364" />
      <path d="M -0.513114,-9.443364 C -0.431067,-9.646203 -0.240606,-9.904086 -0.03964,-10.11967 C 0.164706,-10.339501 0.373259,-10.521197 0.598123,-10.695488" />
      <line x1="0.598123" y1="-11.195769" x2="0.598123" y2="-10.695488" />
      <path d="M 0.598123,-10.695488 Q 0.937547,-10.597303 1.270221,-10.483101" />
      <line x1="1.270221" y1="-10.983382" x2="1.270221" y2="-10.483101" />
      <path d="M 1.188755,-8.905562 C 1.15177,-8.823844 1.110126,-8.71429 1.109161,-8.60389" />
      <path d="M 1.109161,-8.60389 C 1.108524,-8.528304 1.133488,-8.457446 1.193917,-8.432369" />
      <path d="M 1.270221,-10.483101 C 1.307724,-10.254142 1.330705,-10.030422 1.331045,-9.785225" />
      <path d="M 1.331045,-9.785225 C 1.332453,-9.480696 1.287732,-9.131284 1.188755,-8.905562" />
      <path d="M -2.746192,9.307941 Q -3.059242,9.327438 -3.373071,9.331164" />
      <path d="M -3.373071,9.331164 C -3.455087,9.331743 -3.520398,9.412982 -3.555435,9.501142 C -3.591683,9.590585 -3.603998,9.682661 -3.609571,9.757777" />
      <path d="M -3.609571,9.757777 C -3.628191,9.972091 -3.735077,10.26387 -3.864754,10.517144 C -3.996426,10.775279 -4.143562,10.997521 -4.308665,11.216266" />
      <path d="M -4.308665,11.216266 Q -4.665873,11.197492 -5.021348,11.161734" />
      <line x1="-5.414207" y1="9.365933" x2="-5.414207" y2="9.619692" />
      <path d="M -5.414207,9.619692 Q -5.405322,9.55743 -5.40457,9.483798" />
      <path d="M -5.40457,9.483798 C -5.403017,9.416509 -5.413594,9.350321 -5.436298,9.285235 C -5.460096,9.223227 -5.502685,9.173246 -5.560637,9.163779" />
      <path d="M -5.021348,11.161734 C -5.128769,10.94336 -5.220007,10.726418 -5.29456,10.48217 C -5.368113,10.241592 -5.421197,9.971244 -5.420988,9.748758" />
      <path d="M -5.420988,9.748758 Q -5.421013,9.679765 -5.414207,9.619692" />
      <line x1="-4.295982" y1="-9.846784" x2="-4.295982" y2="-9.346503" />
      <path d="M -4.295982,-9.346503 Q -3.982932,-9.366 -3.669103,-9.369727" />
      <line x1="-3.669103" y1="-9.870007" x2="-3.669103" y2="-9.369727" />
      <path d="M -3.669103,-9.369727 C -3.587087,-9.370305 -3.521776,-9.451544 -3.486739,-9.539704 C -3.450491,-9.629147 -3.438176,-9.721223 -3.432603,-9.796339" />
      <line x1="-3.432603" y1="-10.296619" x2="-3.432603" y2="-9.796339" />
      <path d="M -3.432603,-9.796339 C -3.413983,-10.010653 -3.307097,-10.302432 -3.17742,-10.555707 C -3.045748,-10.813842 -2.898612,-11.036083 -2.733508,-11.254828" />
      <line x1="-2.733508" y1="-11.755109" x2="-2.733508" y2="-11.254828" />
      <path d="M -2.733508,-11.254828 Q -2.3763,-11.236054 -2.020826,-11.200296" />
      <line x1="-2.020826" y1="-11.700577" x2="-2.020826" y2="-11.200296" />
      <path d="M -1.627966,-9.658254 Q -1.636851,-9.595992 -1.637604,-9.52236" />
      <path d="M -1.637604,-9.52236 C -1.639156,-9.455071 -1.62858,-9.388883 -1.605876,-9.323797 C -1.582078,-9.261789 -1.539489,-9.211808 -1.481537,-9.202342" />
      <path d="M -2.020826,-11.200296 C -1.913404,-10.981922 -1.822167,-10.76498 -1.747614,-10.520732 C -1.674061,-10.280154 -1.620977,-10.009806 -1.621186,-9.78732" />
      <path d="M -1.621186,-9.78732 Q -1.621161,-9.718327 -1.627966,-9.658254" />
      <path d="M -5.560637,9.163779 Q -5.868848,9.112457 -6.173098,9.045726" />
      <path d="M -6.173098,9.045726 C -6.252492,9.027905 -6.339861,9.09174 -6.400056,9.169044 C -6.461805,9.247316 -6.501223,9.333495 -6.52906,9.404802" />
      <path d="M -6.52906,9.404802 C -6.611107,9.607641 -6.801568,9.865524 -7.002534,10.081108 C -7.20688,10.300939 -7.415433,10.482634 -7.640297,10.656926" />
      <path d="M -7.640297,10.656926 Q -7.979721,10.558741 -8.312395,10.444539" />
      <line x1="-8.230929" y1="8.396145" x2="-8.230929" y2="8.867" />
      <path d="M -8.230929,8.867 C -8.193944,8.785282 -8.152299,8.675728 -8.151335,8.565328" />
      <path d="M -8.151335,8.565328 C -8.150698,8.489742 -8.175662,8.418884 -8.23609,8.393807" />
      <path d="M -8.312395,10.444539 C -8.349898,10.21558 -8.372879,9.99186 -8.373219,9.746663" />
      <path d="M -8.373219,9.746663 C -8.374627,9.442133 -8.329905,9.092722 -8.230929,8.867" />
      <line x1="-7.05762" y1="-9.355311" x2="-7.05762" y2="-8.855031" />
      <path d="M -7.05762,-8.855031 Q -6.761064,-8.944018 -6.459043,-9.017947" />
      <line x1="-6.459043" y1="-9.518228" x2="-6.459043" y2="-9.017947" />
      <path d="M -6.459043,-9.017947 C -6.364335,-9.040916 -6.329725,-9.166596 -6.331371,-9.27574" />
      <path d="M -6.331371,-9.27574 Q -6.334368,-9.391229 -6.358121,-9.483023" />
      <path d="M -6.358121,-9.483023 Q -6.385776,-9.61477 -6.385538,-9.78269" />
      <path d="M -6.385538,-9.78269 C -6.385546,-9.996988 -6.352741,-10.22984 -6.304724,-10.441617 C -6.256143,-10.65565 -6.194,-10.850222 -6.118812,-11.048484" />
      <line x1="-6.118812" y1="-11.548765" x2="-6.118812" y2="-11.048484" />
      <path d="M -6.118812,-11.048484 Q -5.768163,-11.110401 -5.414113,-11.155524" />
      <line x1="-5.414113" y1="-11.655804" x2="-5.414113" y2="-11.155524" />
      <line x1="-4.573701" y1="-10.254347" x2="-4.573701" y2="-9.754066" />
      <path d="M -4.573701,-9.754066 C -4.560738,-9.679637 -4.539385,-9.588809 -4.494447,-9.502373 C -4.450842,-9.417127 -4.377755,-9.341014 -4.295982,-9.346503" />
      <path d="M -5.414113,-11.155524 C -5.228035,-10.949788 -5.059514,-10.739241 -4.902859,-10.491787 C -4.748672,-10.249028 -4.613394,-9.96622 -4.573701,-9.754066" />
      <path d="M -8.23609,8.393807 Q -8.518458,8.275163 -8.792394,8.142523" />
      <path d="M -8.792394,8.142523 C -8.863756,8.107517 -8.96723,8.149597 -9.048481,8.210777 C -9.131522,8.272544 -9.195357,8.346953 -9.24356,8.409592" />
      <path d="M -9.24356,8.409592 C -9.383443,8.587132 -9.644499,8.793546 -9.903058,8.956747 C -10.166152,9.123293 -10.42191,9.25206 -10.691211,9.370021" />
      <path d="M -10.691211,9.370021 Q -10.98972,9.199115 -11.276922,9.014252" />
      <line x1="-11.276922" y1="8.513971" x2="-11.276922" y2="9.014252" />
      <line x1="-10.726683" y1="7.008442" x2="-10.726683" y2="7.508723" />
      <path d="M -10.726683,7.508723 C -10.686221,7.463121 -10.647318,7.409244 -10.609972,7.347092 C -10.574563,7.28557 -10.545708,7.214764 -10.545645,7.152439" />
      <path d="M -10.545645,7.152439 Q -10.544678,7.087425 -10.590224,7.050497" />
      <path d="M -11.276922,9.014252 C -11.240485,8.754847 -11.187704,8.502789 -11.096392,8.231899 C -11.00717,7.965841 -10.871872,7.683041 -10.726683,7.508723" />
      <line x1="-9.578248" y1="-8.261697" x2="-9.578248" y2="-7.761416" />
      <path d="M -9.578248,-7.761416 Q -9.318398,-7.91383 -9.048765,-8.052924" />
      <line x1="-9.048765" y1="-8.446337" x2="-9.048765" y2="-8.052924" />
      <path d="M -9.048765,-8.052924 C -8.999975,-8.077917 -8.979109,-8.13397 -8.979507,-8.196343" />
      <path d="M -8.979507,-8.196343 C -8.981111,-8.315752 -9.041096,-8.438592 -9.090301,-8.524769" />
      <path d="M -9.090301,-8.524769 C -9.175972,-8.679117 -9.243164,-8.90375 -9.282481,-9.126518 C -9.320834,-9.352669 -9.339193,-9.570454 -9.337558,-9.779876" />
      <path d="M -9.337558,-9.779876 Q -9.337384,-9.934556 -9.327084,-10.090518" />
      <line x1="-9.327084" y1="-10.590799" x2="-9.327084" y2="-10.090518" />
      <path d="M -9.327084,-10.090518 Q -9.006892,-10.228906 -8.678393,-10.351835" />
      <line x1="-8.678393" y1="-10.852116" x2="-8.678393" y2="-10.351835" />
      <line x1="-7.447702" y1="-9.686749" x2="-7.447702" y2="-9.186468" />
      <path d="M -7.447702,-9.186468 C -7.412933,-9.117481 -7.365158,-9.034532 -7.295914,-8.961113 C -7.228313,-8.888543 -7.134966,-8.831403 -7.05762,-8.855031" />
      <path d="M -8.678393,-10.351835 C -8.437158,-10.19481 -8.211444,-10.029202 -7.986159,-9.825287 C -7.764662,-9.625354 -7.549458,-9.382498 -7.447702,-9.186468" />
      <path d="M -10.590224,7.050497 Q -10.827506,6.872616 -11.05246,6.683106" />
      <path d="M -11.05246,6.683106 C -11.110926,6.6333 -11.223452,6.650758 -11.320223,6.691645 C -11.418897,6.732698 -11.502799,6.790265 -11.568083,6.839967" />
      <path d="M -11.568083,6.839967 C -11.756269,6.980111 -12.07013,7.120987 -12.368662,7.220684 C -12.672574,7.322596 -12.958108,7.389659 -13.253492,7.443249" />
      <path d="M -13.253492,7.443249 Q -13.490745,7.211271 -13.712902,6.968344" />
      <line x1="-13.712902" y1="6.468063" x2="-13.712902" y2="6.968344" />
      <line x1="-12.731387" y1="5.137144" x2="-12.731387" y2="5.637424" />
      <path d="M -12.731387,5.637424 C -12.671049,5.597828 -12.610426,5.547445 -12.549518,5.486277 C -12.491801,5.425648 -12.442346,5.351393 -12.442375,5.287282" />
      <path d="M -12.442375,5.287282 Q -12.442135,5.252425 -12.462608,5.225393" />
      <path d="M -13.712902,6.968344 C -13.600166,6.725944 -13.47384,6.494303 -13.304667,6.253107 C -13.138957,6.016109 -12.923735,5.773265 -12.731387,5.637424" />
      <line x1="-11.686091" y1="-6.640468" x2="-11.686091" y2="-6.140188" />
      <path d="M -11.686091,-6.140188 Q -11.480654,-6.345641 -11.261786,-6.54042" />
      <line x1="-11.261786" y1="-6.753438" x2="-11.261786" y2="-6.54042" />
      <path d="M -11.261786,-6.54042 Q -11.225882,-6.574238 -11.226513,-6.627338" />
      <path d="M -11.226513,-6.627338 C -11.226561,-6.690499 -11.261985,-6.76343 -11.304635,-6.825693 C -11.349636,-6.88861 -11.39574,-6.942339 -11.442948,-6.98688" />
      <path d="M -11.442948,-6.98688 C -11.604801,-7.149823 -11.767502,-7.421584 -11.882644,-7.680072 C -12.000343,-7.943218 -12.077795,-8.190452 -12.139688,-8.446214" />
      <line x1="-12.139688" y1="-8.946494" x2="-12.139688" y2="-8.446214" />
      <path d="M -12.139688,-8.446214 Q -11.871772,-8.651642 -11.591212,-8.843999" />
      <line x1="-11.591212" y1="-9.34428" x2="-11.591212" y2="-8.843999" />
      <line x1="-10.054111" y1="-8.494423" x2="-10.054111" y2="-7.994142" />
      <path d="M -10.054111,-7.994142 C -9.999905,-7.935297 -9.928963,-7.865881 -9.840132,-7.810481 C -9.753143,-7.755534 -9.645896,-7.72126 -9.578248,-7.761416" />
      <path d="M -11.591212,-8.843999 C -11.31126,-8.746386 -11.043734,-8.637005 -10.765172,-8.490524 C -10.491459,-8.347041 -10.210996,-8.160689 -10.054111,-7.994142" />
      <path d="M -12.462608,5.225393 Q -12.638633,5.000398 -12.799275,4.766933" />
      <path d="M -12.799275,4.766933 C -12.840861,4.705722 -12.954772,4.697367 -13.060466,4.715174 C -13.16805,4.732715 -13.266301,4.769518 -13.344217,4.802897" />
      <path d="M -13.344217,4.802897 C -13.567881,4.896092 -13.913158,4.961832 -14.231318,4.99123 C -14.555338,5.021561 -14.851189,5.022351 -15.152527,5.007919" />
      <path d="M -15.152527,5.007919 Q -15.312353,4.730676 -15.454326,4.446241" />
      <line x1="-15.454326" y1="3.945961" x2="-15.454326" y2="4.446241" />
      <line x1="-14.108425" y1="2.88035" x2="-14.108425" y2="3.380631" />
      <path d="M -14.108425,3.380631 C -14.034807,3.352836 -13.948354,3.315729 -13.868264,3.263009 C -13.789277,3.211303 -13.719254,3.141104 -13.719524,3.07534" />
      <path d="M -13.719524,3.07534 Q -13.719489,3.058574 -13.725642,3.042873" />
      <path d="M -15.454326,4.446241 C -15.272975,4.237365 -15.081712,4.041927 -14.846207,3.846861 C -14.615301,3.655075 -14.334823,3.468738 -14.108425,3.380631" />
      <line x1="-13.237503" y1="-4.60211" x2="-13.237503" y2="-4.10183" />
      <path d="M -13.237503,-4.10183 Q -13.100478,-4.346321 -12.947291,-4.583513" />
      <line x1="-12.947291" y1="-4.696784" x2="-12.947291" y2="-4.583513" />
      <path d="M -12.947291,-4.583513 Q -12.932514,-4.607004 -12.932654,-4.635099" />
      <path d="M -12.932654,-4.635099 C -12.932563,-4.69962 -12.988859,-4.773252 -13.053753,-4.831746 C -13.122226,-4.890643 -13.189553,-4.938114 -13.255733,-4.974161" />
      <path d="M -13.255733,-4.974161 C -13.460777,-5.09528 -13.699168,-5.321319 -13.887651,-5.545196 C -14.079999,-5.772999 -14.228713,-5.994451 -14.364948,-6.227628" />
      <line x1="-14.364948" y1="-6.727909" x2="-14.364948" y2="-6.227628" />
      <path d="M -14.364948,-6.227628 Q -14.167566,-6.486097 -13.954065,-6.734774" />
      <line x1="-13.954065" y1="-7.235055" x2="-13.954065" y2="-6.734774" />
      <line x1="-12.215304" y1="-6.758623" x2="-12.215304" y2="-6.258342" />
      <path d="M -12.215304,-6.258342 C -12.145356,-6.21365 -12.056082,-6.162498 -11.953718,-6.128892 C -11.853268,-6.095312 -11.739431,-6.08624 -11.686091,-6.140188" />
      <path d="M -13.954065,-6.734774 C -13.654474,-6.703225 -13.363368,-6.657523 -13.050513,-6.57846 C -12.743237,-6.501206 -12.416627,-6.384056 -12.215304,-6.258342" />
      <path d="M -13.725642,3.042873 Q -13.828415,2.786097 -13.913797,2.524587" />
      <path d="M -13.913797,2.524587 C -13.935669,2.456142 -14.043201,2.422544 -14.150617,2.416059 C -14.259778,2.408892 -14.365682,2.422423 -14.450921,2.437203" />
      <path d="M -14.450921,2.437203 C -14.694821,2.477099 -15.047983,2.463221 -15.36409,2.420317 C -15.686136,2.377002 -15.972141,2.311464 -16.258898,2.229994" />
      <path d="M -16.258898,2.229994 Q -16.330406,1.92638 -16.38252,1.619821" />
      <line x1="-16.38252" y1="1.11954" x2="-16.38252" y2="1.619821" />
      <line x1="-14.763953" y1="0.391858" x2="-14.763953" y2="0.892139" />
      <path d="M -14.763953,0.892139 C -14.679287,0.881088 -14.576483,0.863011 -14.477922,0.825331 C -14.380759,0.788712 -14.292328,0.727756 -14.292995,0.658233" />
      <path d="M -14.292995,0.658233 L -14.293252,0.651672" />
      <path d="M -16.38252,1.619821 C -16.144912,1.458702 -15.901747,1.312786 -15.615959,1.177145 C -15.335592,1.04364 -15.008973,0.926507 -14.763953,0.892139" />
      <line x1="-14.126757" y1="-2.285533" x2="-14.126757" y2="-1.785253" />
      <path d="M -14.126757,-1.785253 Q -14.067483,-2.052121 -13.990415,-2.31556" />
      <line x1="-13.990415" y1="-2.364202" x2="-13.990415" y2="-2.31556" />
      <path d="M -13.990415,-2.31556 L -13.987075,-2.339377" />
      <path d="M -13.987075,-2.339377 C -13.986692,-2.406065 -14.06305,-2.473711 -14.148394,-2.52109 C -14.234947,-2.569503 -14.327324,-2.601022 -14.405118,-2.623775" />
      <path d="M -14.405118,-2.623775 C -14.63938,-2.694816 -14.937214,-2.859729 -15.186195,-3.033738 C -15.440082,-3.210674 -15.649925,-3.391252 -15.851217,-3.585954" />
      <line x1="-15.851217" y1="-4.086234" x2="-15.851217" y2="-3.585954" />
      <path d="M -15.851217,-3.585954 Q -15.737821,-3.879849 -15.605927,-4.167899" />
      <line x1="-15.605927" y1="-4.668179" x2="-15.605927" y2="-4.167899" />
      <line x1="-13.784002" y1="-4.597641" x2="-13.784002" y2="-4.097361" />
      <path d="M -13.784002,-4.097361 C -13.703077,-4.069867 -13.601555,-4.040464 -13.492634,-4.030944 C -13.385569,-4.021018 -13.272899,-4.037766 -13.237503,-4.10183" />
      <path d="M -15.605927,-4.167899 C -15.307114,-4.204563 -15.012267,-4.225657 -14.686439,-4.219399 C -14.366541,-4.213638 -14.016042,-4.173674 -13.784002,-4.097361" />
      <path d="M -14.293252,0.651672 Q -14.315769,0.380614 -14.320073,0.108881" />
      <path d="M -14.320073,0.108881 C -14.32074,0.037866 -14.414565,-0.018685 -14.516383,-0.049022 C -14.619682,-0.080407 -14.726022,-0.091071 -14.812774,-0.095896" />
      <path d="M -14.812774,-0.095896 C -15.060289,-0.112019 -15.39727,-0.204567 -15.689781,-0.31685 C -15.987905,-0.43086 -16.244575,-0.558259 -16.497208,-0.701216" />
      <line x1="-16.497208" y1="-1.201497" x2="-16.497208" y2="-0.701216" />
      <path d="M -16.497208,-0.701216 Q -16.475525,-1.01051 -16.434228,-1.318302" />
      <line x1="-16.434228" y1="-1.818583" x2="-16.434228" y2="-1.318302" />
      <line x1="-14.653298" y1="-2.158745" x2="-14.653298" y2="-1.658465" />
      <path d="M -14.653298,-1.658465 C -14.566913,-1.650043 -14.460061,-1.644393 -14.352006,-1.659607 C -14.245622,-1.674013 -14.141797,-1.71544 -14.126757,-1.785253" />
      <path d="M -16.434228,-1.318302 C -16.156556,-1.420682 -15.878061,-1.507133 -15.561465,-1.574107 C -15.250745,-1.640232 -14.900243,-1.680177 -14.653298,-1.658465" />
      <line x1="5.420434" y1="-5.263955" x2="4.758099" y2="-4.875461" />
      <line x1="4.643918" y1="6.101625" x2="4.039102" y2="5.648225" />
      <line x1="2.536074" y1="7.722854" x2="2.087396" y2="7.149362" />
      <line x1="3.54805" y1="-7.089059" x2="3.02441" y2="-6.565372" />
      <line x1="0.015446" y1="8.816468" x2="-0.24652" y2="8.161968" />
      <line x1="1.193917" y1="-8.432369" x2="0.844657" y2="-7.809178" />
      <line x1="-2.746192" y1="9.307941" x2="-2.803591" y2="8.617036" />
      <line x1="-1.481537" y1="-9.202342" x2="-1.632615" y2="-8.522115" />
      <line x1="-5.560637" y1="9.163779" x2="-5.409559" y2="8.483553" />
      <line x1="-4.295982" y1="-9.346503" x2="-4.238583" y2="-8.655598" />
      <line x1="-8.23609" y1="8.393807" x2="-7.886831" y2="7.770615" />
      <line x1="-7.05762" y1="-8.855031" x2="-6.795654" y2="-8.200531" />
      <line x1="-10.590224" y1="7.050497" x2="-10.066584" y2="6.52681" />
      <line x1="-9.578248" y1="-7.761416" x2="-9.12957" y2="-7.187924" />
      <line x1="-12.462608" y1="5.225393" x2="-11.800273" y2="4.836898" />
      <line x1="-11.686091" y1="-6.140188" x2="-11.081276" y2="-5.686787" />
      <line x1="-13.725642" y1="3.042873" x2="-12.969749" y2="2.816047" />
      <line x1="-13.237503" y1="-4.10183" x2="-12.517769" y2="-3.799419" />
      <line x1="-14.293252" y1="0.651672" x2="-13.495314" y2="0.601972" />
      <line x1="-14.126757" y1="-1.785253" x2="-13.341152" y2="-1.65444" />
      <path d="M 11.614024,5.734462 L 11.614024,6.234743" />
      <path d="M 12.607765,-4.029945 L 12.607765,-3.529664" />
      <path d="M 16.210312,5.734723 L 16.210312,6.235004" />
      <path d="M 17.204053,-4.029684 L 17.204053,-3.529403" />
      <path d="M 2.295384,9.241033 L 2.295384,9.741314" />
      <path d="M -0.656636,9.243847 L -0.656636,9.744128" />
      <path d="M 1.331045,-10.285506 L 1.331045,-9.785225" />
      <path d="M -5.420988,9.333913 L -5.420988,9.748758" />
      <path d="M -1.621186,-10.2876 L -1.621186,-9.78732" />
      <path d="M -8.373219,9.246382 L -8.373219,9.746663" />
      <path d="M -6.385538,-10.282971 L -6.385538,-9.78269" />
      <path d="M -9.337558,-10.280156 L -9.337558,-9.779876" />
    </g>
    <g fill="none" stroke="rgb(99,99,99)" stroke-width="0.03406302539074028" id="Hidden" stroke-dasharray="0.000865 0.102622">
      <path d="M 10.181917,2.821432 Q 10.049645,2.608514 9.946749,2.383762" />
      <line x1="10.886437" y1="2.493258" x2="10.181917" y2="2.821432" />
      <path d="M 9.946749,2.383762 C 9.893587,2.265915 9.704467,2.22541 9.527968,2.243806 C 9.347028,2.261314 9.183977,2.317989 9.025187,2.392373" />
      <path d="M 10.410843,0.748378 C 10.387476,1.346012 10.556935,1.967732 10.886437,2.493258" />
      <path d="M 9.025187,2.392373 C 8.820822,2.428848 8.539201,2.411415 8.286725,2.365253 C 8.029922,2.318617 7.801036,2.249316 7.574727,2.163303" />
      <line x1="9.611203" y1="0.727576" x2="10.410843" y2="0.748378" />
      <path d="M 7.574727,2.163303 Q 7.507545,1.900686 7.467479,1.63395" />
      <path d="M 8.741284,0.991081 C 8.859379,1.007584 8.976743,1.01271 9.093374,1.006458 C 9.210367,0.999293 9.332159,0.977018 9.432503,0.931002" />
      <path d="M 7.494083,1.612154 C 7.668958,1.470235 7.855153,1.341018 8.073938,1.225557 C 8.289196,1.1116 8.540008,1.01636 8.741284,0.991081" />
      <line x1="10.181917" y1="2.821432" x2="10.181917" y2="3.321713" />
      <line x1="9.946749" y1="2.383762" x2="9.946749" y2="2.884043" />
      <path d="M 11.885284,4.387685 Q 11.647782,4.260557 11.428886,4.110463" />
      <line x1="11.885284" y1="4.387685" x2="12.30591" y2="3.798469" />
      <path d="M 11.428886,4.110463 C 11.314795,4.03142 11.127622,4.078218 10.985392,4.170561 C 10.838805,4.264059 10.730326,4.383731 10.635763,4.516893" />
      <path d="M 10.886437,2.493258 C 11.21131,3.020941 11.717083,3.486002 12.30591,3.798469" />
      <path d="M 10.635763,4.516893 C 10.47984,4.636959 10.225882,4.743783 9.980575,4.813111 C 9.731247,4.883901 9.493008,4.922976 9.247349,4.946464" />
      <path d="M 9.247349,4.946464 Q 9.037517,4.748116 8.84879,4.534461" />
      <path d="M 10.080383,3.148736 C 10.154388,3.076854 10.207016,2.990981 10.206724,2.910859" />
      <path d="M 10.206724,2.910859 Q 10.206841,2.862865 10.181917,2.821432" />
      <line x1="9.025187" y1="2.392373" x2="9.025187" y2="2.892653" />
      <path d="M 11.006561,-0.968633 C 10.641216,-0.461182 10.428955,0.150607 10.410843,0.748378" />
      <path d="M 12.513971,-2.197702 C 11.904541,-1.916407 11.367435,-1.478476 11.006561,-0.968633" />
      <path d="M 12.30591,3.798469 C 12.891973,4.114808 13.598538,4.298598 14.288914,4.31428" />
      <path d="M 14.529163,-2.609502 C 13.838945,-2.629734 13.12091,-2.483006 12.513971,-2.197702" />
      <path d="M 14.288914,4.31428 C 14.979132,4.334513 15.697166,4.187784 16.304106,3.902481" />
      <path d="M 16.512167,-2.093691 C 15.926104,-2.41003 15.219539,-2.593819 14.529163,-2.609502" />
      <path d="M 16.304106,3.902481 C 16.913535,3.621185 17.450642,3.183255 17.811515,2.673411" />
      <path d="M 17.93164,-0.78848 C 17.606767,-1.316163 17.100994,-1.781223 16.512167,-2.093691" />
      <path d="M 17.811515,2.673411 C 18.176861,2.165961 18.389122,1.554172 18.407234,0.956401" />
      <path d="M 18.407234,0.956401 C 18.430601,0.358766 18.261142,-0.262953 17.93164,-0.78848" />
      <line x1="7.574727" y1="2.163303" x2="7.574727" y2="2.663584" />
      <path d="M 9.617657,0.603435 Q 9.630085,0.424229 9.660279,0.246731" />
      <path d="M 9.660279,0.246731 L 9.662278,0.221661" />
      <path d="M 9.662278,0.221661 C 9.663613,0.100624 9.520565,-0.006056 9.361617,-0.062103 C 9.199203,-0.120377 9.031845,-0.140618 8.85721,-0.144786" />
      <path d="M 8.85721,-0.144786 C 8.659162,-0.201673 8.425338,-0.338693 8.233344,-0.487975 C 8.037876,-0.639542 7.879674,-0.79865 7.733353,-0.971116" />
      <line x1="10.326066" y1="-1.332837" x2="11.006561" y2="-0.968633" />
      <path d="M 7.733353,-0.971116 Q 7.826822,-1.227634 7.946153,-1.47598" />
      <path d="M 7.946153,-1.47598 C 8.140587,-1.516746 8.331647,-1.545841 8.537984,-1.559798 C 8.742287,-1.573569 8.962988,-1.570579 9.161788,-1.541106" />
      <line x1="8.741284" y1="0.991081" x2="8.741284" y2="1.484017" />
      <line x1="11.885284" y1="4.387685" x2="11.885284" y2="4.887966" />
      <line x1="11.428886" y1="4.110463" x2="11.428886" y2="4.610744" />
      <path d="M 14.264889,5.006659 Q 13.985795,4.999385 13.709553,4.964166" />
      <line x1="14.264889" y1="5.006659" x2="14.288914" y2="4.31428" />
      <path d="M 13.709553,4.964166 C 13.565103,4.945107 13.43003,5.066668 13.36018,5.208215 C 13.287222,5.352649 13.262382,5.503252 13.257385,5.659513" />
      <path d="M 13.257385,5.659513 C 13.191684,5.830997 13.033437,6.033456 12.861029,6.199697 C 12.685982,6.368945 12.502225,6.505926 12.303042,6.632621" />
      <path d="M 12.303042,6.632621 Q 12.006785,6.551689 11.719966,6.448365" />
      <path d="M 11.911258,4.904671 C 11.962292,4.811263 11.999584,4.7062 11.99973,4.607254" />
      <path d="M 11.99973,4.607254 C 12.00051,4.513981 11.963222,4.429401 11.885284,4.387685" />
      <path d="M 11.719966,6.448365 C 11.655946,6.219161 11.614817,5.987873 11.614024,5.734462" />
      <line x1="10.635763" y1="4.516893" x2="10.635763" y2="5.017174" />
      <line x1="9.247349" y1="4.946464" x2="9.247349" y2="5.446745" />
      <path d="M 10.560165,-1.631019 L 10.646234,-1.728015" />
      <path d="M 10.646234,-1.728015 Q 10.693213,-1.781633 10.692867,-1.853703" />
      <path d="M 10.692867,-1.853703 C 10.692868,-1.96314 10.613665,-2.082842 10.516482,-2.176903 C 10.417407,-2.270288 10.304193,-2.349571 10.176841,-2.414751" />
      <path d="M 10.176841,-2.414751 C 10.038176,-2.549759 9.914802,-2.769652 9.834735,-2.982054 C 9.752978,-3.197939 9.707849,-3.404221 9.680723,-3.616928" />
      <line x1="12.134958" y1="-2.80772" x2="12.513971" y2="-2.197702" />
      <path d="M 12.744995,-3.088166 Q 12.808244,-3.178301 12.806476,-3.302613" />
      <path d="M 12.806476,-3.302613 C 12.803728,-3.483669 12.728629,-3.652112 12.630486,-3.80929" />
      <path d="M 12.630486,-3.80929 Q 12.607573,-3.908743 12.607765,-4.029945" />
      <line x1="14.553188" y1="-3.30188" x2="14.529163" y2="-2.609502" />
      <path d="M 14.248862,-4.055112 Q 14.228359,-3.941762 14.227859,-3.831207" />
      <path d="M 14.227859,-3.831207 Q 14.227155,-3.732237 14.248862,-3.633267" />
      <path d="M 16.683119,4.512499 Q 16.437216,4.627028 16.177646,4.716122" />
      <line x1="16.683119" y1="4.512499" x2="16.304106" y2="3.902481" />
      <path d="M 16.177646,4.716122 C 16.063679,4.754749 16.009778,4.878508 16.0116,5.007392" />
      <path d="M 16.0116,5.007392 Q 16.015315,5.154795 16.073082,5.293225" />
      <path d="M 16.210312,5.734723 C 16.210329,5.910326 16.175335,6.101314 16.123671,6.274977 C 16.071292,6.447611 16.004413,6.612608 15.923035,6.769969" />
      <path d="M 15.923035,6.769969 Q 15.619734,6.828139 15.311676,6.862831" />
      <path d="M 14.569215,5.75989 Q 14.589718,5.64654 14.590218,5.535986" />
      <path d="M 14.590218,5.535986 C 14.590198,5.421274 14.571528,5.299297 14.518197,5.194174 C 14.466233,5.089674 14.373931,5.009239 14.264889,5.006659" />
      <path d="M 15.311676,6.862831 C 15.14124,6.707855 14.988075,6.545093 14.85002,6.351887 C 14.713954,6.162043 14.599166,5.938692 14.569215,5.75989" />
      <line x1="16.932793" y1="-2.682907" x2="16.512167" y2="-2.093691" />
      <path d="M 17.104198,-3.466977 C 17.026529,-3.384527 16.961303,-3.296534 16.908521,-3.202998 C 16.856596,-3.108764 16.818503,-3.002533 16.818347,-2.902476" />
      <path d="M 16.818347,-2.902476 C 16.817906,-2.820367 16.846136,-2.744797 16.906819,-2.699611" />
      <path d="M 17.204053,-4.029684 C 17.204666,-3.828118 17.173118,-3.616637 17.104198,-3.466977" />
      <path d="M 18.492011,3.037616 Q 18.345188,3.24326 18.171842,3.432794" />
      <line x1="18.492011" y1="3.037616" x2="17.811515" y2="2.673411" />
      <path d="M 18.171842,3.432794 Q 18.124864,3.486412 18.12521,3.558482" />
      <path d="M 18.12521,3.558482 C 18.125079,3.65053 18.181975,3.751447 18.257912,3.836079" />
      <path d="M 19.137354,5.321707 Q 18.908278,5.503392 18.661525,5.666804" />
      <path d="M 17.381633,5.033064 C 17.315506,4.887606 17.232947,4.753316 17.107568,4.639009 C 16.986246,4.526499 16.811451,4.452005 16.683119,4.512499" />
      <path d="M 18.661525,5.666804 C 18.424431,5.606378 18.197798,5.531732 17.966671,5.424179 C 17.739207,5.318677 17.510822,5.174945 17.381633,5.033064" />
      <line x1="18.63616" y1="-1.116654" x2="17.93164" y2="-0.78848" />
      <path d="M 19.23737,-1.721471 C 19.089583,-1.674012 18.954584,-1.607883 18.83237,-1.523084 C 18.712549,-1.437476 18.611069,-1.318499 18.611353,-1.20608" />
      <path d="M 18.611353,-1.20608 Q 18.611236,-1.158086 18.63616,-1.116654" />
      <path d="M 19.969286,-2.829683 C 19.899499,-2.624392 19.81329,-2.428159 19.689075,-2.228034 C 19.567229,-2.031082 19.40123,-1.833331 19.23737,-1.721471" />
      <path d="M 19.206873,0.977203 Q 19.198473,1.21886 19.157798,1.458048" />
      <line x1="19.206873" y1="0.977203" x2="18.407234" y2="0.956401" />
      <path d="M 19.157798,1.458048 L 19.155799,1.483118" />
      <path d="M 19.155799,1.483118 Q 19.156638,1.545203 19.200419,1.601624" />
      <path d="M 21.084724,2.675894 Q 20.991255,2.932413 20.871924,3.180759" />
      <path d="M 19.397546,3.18603 C 19.256283,3.088687 19.107238,3.008132 18.932648,2.963419 C 18.762611,2.918507 18.568217,2.929668 18.492011,3.037616" />
      <path d="M 20.871924,3.180759 C 20.631701,3.231074 20.392326,3.264545 20.130057,3.271464 C 19.872144,3.278572 19.591357,3.252972 19.397546,3.18603" />
      <path d="M 18.63616,-1.116654 Q 18.689238,-1.031226 18.737693,-0.943676" />
      <path d="M 20.076793,0.713698 C 19.898244,0.690555 19.72265,0.685318 19.545631,0.722181 C 19.37244,0.756901 19.210535,0.850725 19.206873,0.977203" />
      <path d="M 21.350598,0.070829 C 21.171613,0.218403 20.983637,0.351023 20.760501,0.470559 C 20.541247,0.588374 20.283295,0.687765 20.076793,0.713698" />
      <line x1="9.660279" y1="0.246731" x2="9.660279" y2="0.696727" />
      <line x1="8.85721" y1="-0.144786" x2="8.85721" y2="0.355495" />
      <line x1="7.733353" y1="-0.971116" x2="7.733353" y2="-0.932403" />
      <line x1="7.946153" y1="-1.47598" x2="7.946153" y2="-0.978169" />
      <line x1="14.264889" y1="5.006659" x2="14.264889" y2="5.506939" />
      <line x1="13.709553" y1="4.964166" x2="13.709553" y2="5.464447" />
      <line x1="13.257385" y1="5.659513" x2="13.257385" y2="6.159794" />
      <line x1="12.303042" y1="6.632621" x2="12.303042" y2="7.132901" />
      <line x1="11.719966" y1="6.448365" x2="11.719966" y2="6.948645" />
      <line x1="10.646234" y1="-1.728015" x2="10.646234" y2="-1.511819" />
      <line x1="10.176841" y1="-2.414751" x2="10.176841" y2="-1.914471" />
      <line x1="12.630486" y1="-3.80929" x2="12.630486" y2="-3.309009" />
      <line x1="16.683119" y1="4.512499" x2="16.683119" y2="5.012779" />
      <line x1="16.177646" y1="4.716122" x2="16.177646" y2="5.216403" />
      <line x1="15.923035" y1="6.769969" x2="15.923035" y2="7.27025" />
      <line x1="15.311676" y1="6.862831" x2="15.311676" y2="7.363111" />
      <line x1="14.569215" y1="5.75989" x2="14.569215" y2="5.838326" />
      <line x1="17.104198" y1="-3.466977" x2="17.104198" y2="-2.966696" />
      <line x1="18.492011" y1="3.037616" x2="18.492011" y2="3.537896" />
      <line x1="18.171842" y1="3.432794" x2="18.171842" y2="3.933074" />
      <line x1="18.661525" y1="5.666804" x2="18.661525" y2="6.167085" />
      <line x1="17.381633" y1="5.033064" x2="17.381633" y2="5.533345" />
      <line x1="19.23737" y1="-1.721471" x2="19.23737" y2="-1.221191" />
      <line x1="18.63616" y1="-1.116654" x2="18.63616" y2="-0.80738" />
      <line x1="19.206873" y1="0.977203" x2="19.206873" y2="1.477483" />
      <line x1="19.157798" y1="1.458048" x2="19.157798" y2="1.958329" />
      <line x1="20.871924" y1="3.180759" x2="20.871924" y2="3.681039" />
      <line x1="19.397546" y1="3.18603" x2="19.397546" y2="3.68631" />
      <line x1="20.076793" y1="0.713698" x2="20.076793" y2="1.213979" />
      <path d="M 7.251078,-1.190515 Q 7.2689,-0.975995 7.275314,-0.760963" />
      <line x1="6.45314" y1="-1.140815" x2="7.251078" y2="-1.190515" />
      <path d="M 7.75649,-0.443759 L 7.7706,-0.442946" />
      <path d="M 6.298978,1.115597 C 6.463724,0.375742 6.515993,-0.389301 6.45314,-1.140815" />
      <path d="M 7.7706,-0.442946 C 8.018116,-0.426824 8.355096,-0.334276 8.647607,-0.221993 C 8.945731,-0.107983 9.202401,0.019417 9.455034,0.162374" />
      <line x1="7.084583" y1="1.24641" x2="6.298978" y2="1.115597" />
      <path d="M 9.455034,0.162374 Q 9.433352,0.471667 9.392054,0.779459" />
      <path d="M 7.611124,1.119622 C 7.524739,1.1112 7.417887,1.10555 7.309832,1.120764 C 7.203448,1.13517 7.099624,1.176597 7.084583,1.24641" />
      <path d="M 9.392054,0.779459 C 9.114382,0.881839 8.835887,0.96829 8.519291,1.035264 C 8.208571,1.101389 7.858069,1.141334 7.611124,1.119622" />
      <line x1="7.251078" y1="-1.190515" x2="7.251078" y2="-0.703369" />
      <path d="M 6.683468,-3.581716 Q 6.743237,-3.432386 6.797156,-3.281361" />
      <line x1="6.683468" y1="-3.581716" x2="5.927575" y2="-3.354889" />
      <path d="M 6.45314,-1.140815 C 6.391119,-1.89238 6.212925,-2.643069 5.927575,-3.354889" />
      <path d="M 7.721779,-1.430982 C 7.637114,-1.419931 7.53431,-1.401854 7.435748,-1.364173 C 7.338585,-1.327554 7.250154,-1.266598 7.250822,-1.197076" />
      <path d="M 7.250822,-1.197076 L 7.251078,-1.190515" />
      <path d="M 9.340346,-2.158663 C 9.102738,-1.997545 8.859573,-1.851629 8.573785,-1.715987 C 8.293419,-1.582482 7.966799,-1.46535 7.721779,-1.430982" />
      <line x1="7.7706" y1="-0.442946" x2="7.7706" y2="-0.427484" />
      <path d="M 5.475595,3.260576 C 5.855881,2.58285 6.135051,1.855589 6.298978,1.115597" />
      <path d="M 4.039102,5.147944 C 4.609012,4.578535 5.096059,3.938617 5.475595,3.260576" />
      <path d="M 5.927575,-3.354889 C 5.643014,-4.066947 5.246499,-4.752123 4.758099,-5.375741" />
      <path d="M 2.087396,6.649082 C 2.808091,6.226792 3.469823,5.717827 4.039102,5.147944" />
      <path d="M 4.758099,-5.375741 C 4.27039,-5.999765 3.682577,-6.572734 3.02441,-7.065652" />
      <path d="M -0.24652,7.661688 C 0.575847,7.415297 1.367168,7.071969 2.087396,6.649082" />
      <path d="M 3.02441,-7.065652 C 2.36679,-7.559116 1.627738,-7.980833 0.844657,-8.309458" />
      <path d="M -2.803591,8.116755 C -1.935596,8.063054 -1.068613,7.908762 -0.24652,7.661688" />
      <path d="M 0.844657,-8.309458 C 0.061941,-8.638734 -0.777986,-8.880457 -1.632615,-9.022395" />
      <path d="M -5.409559,7.983272 C -4.555088,8.12592 -3.671527,8.171178 -2.803591,8.116755" />
      <path d="M -1.632615,-9.022395 C -2.487086,-9.165043 -3.370647,-9.210301 -4.238583,-9.155879" />
      <path d="M -7.886831,7.270335 C -7.104115,7.59961 -6.264188,7.841334 -5.409559,7.983272" />
      <path d="M -4.238583,-9.155879 C -5.106578,-9.102177 -5.973561,-8.947885 -6.795654,-8.700811" />
      <path d="M -10.066584,6.026529 C -9.408964,6.519993 -8.669912,6.941709 -7.886831,7.270335" />
      <path d="M -6.795654,-8.700811 C -7.618021,-8.45442 -8.409342,-8.111093 -9.12957,-7.688205" />
      <path d="M -11.800273,4.336618 C -11.312564,4.960642 -10.724751,5.533611 -10.066584,6.026529" />
      <path d="M -9.12957,-7.688205 C -9.850265,-7.265916 -10.511997,-6.75695 -11.081276,-6.187068" />
      <path d="M -12.969749,2.315766 C -12.685187,3.027823 -12.288673,3.712999 -11.800273,4.336618" />
      <path d="M -11.081276,-6.187068 C -11.651186,-5.617658 -12.138233,-4.97774 -12.517769,-4.299699" />
      <path d="M -13.495314,0.101691 C -13.433293,0.853257 -13.255098,1.603945 -12.969749,2.315766" />
      <path d="M -12.517769,-4.299699 C -12.898054,-3.621974 -13.177225,-2.894712 -13.341152,-2.154721" />
      <path d="M -13.341152,-2.154721 C -13.505898,-1.414865 -13.558167,-0.649822 -13.495314,0.101691" />
      <line x1="9.455034" y1="0.162374" x2="9.455034" y2="0.478402" />
      <path d="M 7.084583,1.24641 Q 7.02531,1.513278 6.948242,1.776717" />
      <path d="M 6.948242,1.776717 L 6.944901,1.800534" />
      <path d="M 6.944901,1.800534 C 6.944641,1.848541 6.984724,1.898274 7.039429,1.939082" />
      <path d="M 7.467479,2.121198 C 7.671067,2.199219 7.903264,2.330447 8.107988,2.470128 C 8.313218,2.611658 8.498098,2.758161 8.662629,2.90964" />
      <line x1="6.195329" y1="3.562987" x2="5.475595" y2="3.260576" />
      <path d="M 8.809043,3.047111 Q 8.695647,3.341006 8.563753,3.629056" />
      <path d="M 6.741828,3.558518 C 6.660904,3.531024 6.559381,3.501621 6.45046,3.492101 C 6.343395,3.482175 6.230725,3.498924 6.195329,3.562987" />
      <path d="M 8.563753,3.629056 C 8.26494,3.665721 7.970093,3.686814 7.644265,3.680556 C 7.324367,3.674795 6.973868,3.634831 6.741828,3.558518" />
      <line x1="9.392054" y1="0.779459" x2="9.392054" y2="1.27974" />
      <line x1="7.611124" y1="1.119622" x2="7.611124" y2="1.619902" />
      <line x1="7.084583" y1="1.24641" x2="7.084583" y2="1.746691" />
      <line x1="7.721779" y1="-1.430982" x2="7.721779" y2="-0.930701" />
      <line x1="6.683468" y1="-3.581716" x2="6.683468" y2="-3.148974" />
      <path d="M 5.420434,-5.764236 L 5.562462,-5.577948" />
      <line x1="5.420434" y1="-5.764236" x2="4.758099" y2="-5.375741" />
      <path d="M 7.066251,-3.919474 C 6.992633,-3.891679 6.906181,-3.854572 6.82609,-3.801852 C 6.747103,-3.750146 6.67708,-3.679947 6.67735,-3.614183" />
      <path d="M 6.67735,-3.614183 Q 6.677316,-3.597417 6.683468,-3.581716" />
      <path d="M 8.412152,-4.985084 C 8.230801,-4.776207 8.039538,-4.58077 7.804033,-4.385704 C 7.573127,-4.193918 7.292649,-4.007581 7.066251,-3.919474" />
      <path d="M 6.195329,3.562987 Q 6.058305,3.807479 5.905117,4.04467" />
      <path d="M 5.905117,4.04467 Q 5.890341,4.068161 5.89048,4.096256" />
      <path d="M 5.89048,4.096256 C 5.89059,4.171979 5.966558,4.258259 6.044865,4.321499" />
      <line x1="4.643918" y1="5.601345" x2="4.039102" y2="5.147944" />
      <path d="M 7.322774,5.688785 Q 7.125393,5.947254 6.911891,6.195931" />
      <path d="M 5.17313,5.719499 C 5.103182,5.674807 5.013908,5.623655 4.911544,5.59005 C 4.811094,5.556469 4.697257,5.547397 4.643918,5.601345" />
      <path d="M 6.911891,6.195931 C 6.6123,6.164382 6.321194,6.118681 6.008339,6.039617 C 5.701064,5.962363 5.374453,5.845213 5.17313,5.719499" />
      <path d="M 4.643918,5.601345 Q 4.43848,5.806798 4.219612,6.001578" />
      <path d="M 4.219612,6.001578 Q 4.183708,6.035395 4.184339,6.088495" />
      <path d="M 4.184339,6.088495 C 4.185723,6.19133 4.271093,6.309052 4.344078,6.38923" />
      <line x1="2.536074" y1="7.222573" x2="2.087396" y2="6.649082" />
      <path d="M 5.097514,7.907371 Q 4.829598,8.112799 4.549038,8.305157" />
      <path d="M 3.011937,7.455299 C 2.957731,7.396454 2.886789,7.327039 2.797958,7.271639 C 2.710969,7.216691 2.603722,7.182417 2.536074,7.222573" />
      <path d="M 4.549038,8.305157 C 4.269086,8.207543 4.00156,8.098162 3.722999,7.951681 C 3.449285,7.808199 3.168822,7.621846 3.011937,7.455299" />
      <path d="M 3.54805,-7.58934 L 3.653222,-7.50946" />
      <line x1="3.54805" y1="-7.58934" x2="3.02441" y2="-7.065652" />
      <path d="M 5.689213,-6.176267 C 5.628875,-6.136671 5.568252,-6.086288 5.507344,-6.02512 C 5.449627,-5.964491 5.400172,-5.890236 5.400201,-5.826124" />
      <path d="M 5.400201,-5.826124 Q 5.399961,-5.791267 5.420434,-5.764236" />
      <path d="M 6.670728,-7.507187 C 6.557992,-7.264786 6.431666,-7.033146 6.262493,-6.79195 C 6.096783,-6.554951 5.881561,-6.312108 5.689213,-6.176267" />
      <path d="M 2.536074,7.222573 Q 2.276224,7.374987 2.006592,7.514081" />
      <path d="M 2.006592,7.514081 C 1.957802,7.539075 1.936935,7.595128 1.937333,7.6575" />
      <path d="M 1.937333,7.6575 C 1.938937,7.776909 1.998922,7.899749 2.048127,7.985926" />
      <path d="M 2.048127,7.985926 L 2.051067,7.991293" />
      <path d="M 2.295384,9.241033 Q 2.295211,9.395713 2.284911,9.551675" />
      <line x1="0.015446" y1="8.316188" x2="-0.24652" y2="7.661688" />
      <path d="M 2.284911,9.551675 Q 1.964718,9.690063 1.636219,9.812992" />
      <path d="M 0.405528,8.647626 C 0.370759,8.578638 0.322984,8.495689 0.25374,8.42227 C 0.186139,8.3497 0.092792,8.29256 0.015446,8.316188" />
      <path d="M 1.636219,9.812992 C 1.394984,9.655967 1.16927,9.49036 0.943985,9.286444 C 0.722488,9.086511 0.507284,8.843656 0.405528,8.647626" />
      <path d="M 1.193917,-8.93265 L 1.199175,-8.930439" />
      <line x1="1.193917" y1="-8.93265" x2="0.844657" y2="-8.309458" />
      <path d="M 3.684509,-8.047566 C 3.644047,-8.001964 3.605144,-7.948087 3.567798,-7.885935 C 3.532389,-7.824413 3.503535,-7.753607 3.503471,-7.691282" />
      <path d="M 3.503471,-7.691282 Q 3.502504,-7.626268 3.54805,-7.58934" />
      <path d="M 4.234748,-9.553094 C 4.198311,-9.293689 4.14553,-9.041632 4.054219,-8.770742 C 3.964997,-8.504683 3.829698,-8.221883 3.684509,-8.047566" />
      <path d="M 0.015446,8.316188 Q -0.281109,8.405175 -0.583131,8.479104" />
      <path d="M -0.583131,8.479104 C -0.677839,8.502073 -0.712449,8.627754 -0.710802,8.736897" />
      <path d="M -0.710802,8.736897 Q -0.707806,8.852386 -0.684053,8.94418" />
      <path d="M -0.684053,8.94418 Q -0.673899,8.991538 -0.667527,9.045088" />
      <path d="M -0.656636,9.243847 C -0.656628,9.458145 -0.689433,9.690997 -0.73745,9.902774 C -0.786031,10.116808 -0.848174,10.311379 -0.923362,10.509641" />
      <line x1="-2.746192" y1="8.807661" x2="-2.803591" y2="8.116755" />
      <path d="M -0.923362,10.509641 Q -1.27401,10.571558 -1.628061,10.616681" />
      <path d="M -2.468473,9.215223 C -2.481435,9.140795 -2.502788,9.049966 -2.547727,8.96353 C -2.591332,8.878284 -2.664418,8.802171 -2.746192,8.807661" />
      <path d="M -1.628061,10.616681 C -1.814139,10.410945 -1.98266,10.200398 -2.139315,9.952944 C -2.293502,9.710185 -2.42878,9.427377 -2.468473,9.215223" />
      <line x1="-1.481537" y1="-9.702622" x2="-1.632615" y2="-9.022395" />
      <path d="M 1.188755,-9.405843 C 1.15177,-9.324125 1.110126,-9.214571 1.109161,-9.104171" />
      <path d="M 1.109161,-9.104171 C 1.108524,-9.028585 1.133488,-8.957727 1.193917,-8.93265" />
      <path d="M 1.331045,-10.285506 C 1.332453,-9.980976 1.287732,-9.631565 1.188755,-9.405843" />
      <path d="M -2.746192,8.807661 Q -3.059242,8.827157 -3.373071,8.830884" />
      <path d="M -3.373071,8.830884 C -3.455087,8.831462 -3.520398,8.912702 -3.555435,9.000861 C -3.591683,9.090304 -3.603998,9.182381 -3.609571,9.257496" />
      <path d="M -3.609571,9.257496 C -3.628191,9.47181 -3.735077,9.763589 -3.864754,10.016864 C -3.996426,10.274999 -4.143562,10.49724 -4.308665,10.715986" />
      <line x1="-5.560637" y1="8.663499" x2="-5.409559" y2="7.983272" />
      <path d="M -4.308665,10.715986 Q -4.665873,10.697211 -5.021348,10.661454" />
      <path d="M -5.414207,9.119411 Q -5.405322,9.057149 -5.40457,8.983518" />
      <path d="M -5.40457,8.983518 C -5.403017,8.916228 -5.413594,8.85004 -5.436298,8.784955 C -5.460096,8.722946 -5.502685,8.672966 -5.560637,8.663499" />
      <path d="M -5.021348,10.661454 C -5.128769,10.44308 -5.220007,10.226137 -5.29456,9.981889 C -5.368113,9.741311 -5.421197,9.470964 -5.420988,9.248477" />
      <path d="M -5.420988,9.248477 Q -5.421013,9.179484 -5.414207,9.119411" />
      <line x1="-4.295982" y1="-9.846784" x2="-4.238583" y2="-9.155879" />
      <path d="M -1.627966,-10.158535 Q -1.636851,-10.096272 -1.637604,-10.022641" />
      <path d="M -1.637604,-10.022641 Q -1.638574,-9.9486 -1.621186,-9.872756" />
      <path d="M -1.621186,-10.2876 Q -1.621161,-10.218608 -1.627966,-10.158535" />
      <path d="M -5.560637,8.663499 Q -5.868848,8.612176 -6.173098,8.545446" />
      <path d="M -6.173098,8.545446 C -6.252492,8.527624 -6.339861,8.591459 -6.400056,8.668763 C -6.461805,8.747036 -6.501223,8.833214 -6.52906,8.904521" />
      <path d="M -6.52906,8.904521 C -6.611107,9.10736 -6.801568,9.365244 -7.002534,9.580827 C -7.20688,9.800659 -7.415433,9.982354 -7.640297,10.156646" />
      <line x1="-8.23609" y1="7.893527" x2="-7.886831" y2="7.270335" />
      <path d="M -7.640297,10.156646 Q -7.979721,10.05846 -8.312395,9.944258" />
      <path d="M -8.230929,8.36672 C -8.193944,8.285002 -8.152299,8.175447 -8.151335,8.065048" />
      <path d="M -8.151335,8.065048 C -8.150698,7.989462 -8.175662,7.918604 -8.23609,7.893527" />
      <path d="M -8.312395,9.944258 C -8.349898,9.715299 -8.372879,9.491579 -8.373219,9.246382" />
      <path d="M -8.241349,8.391596 L -8.230929,8.36672" />
      <line x1="-7.05762" y1="-9.355311" x2="-6.795654" y2="-8.700811" />
      <path d="M -6.374647,-9.58393 C -6.342316,-9.636365 -6.331285,-9.708425 -6.331371,-9.776021" />
      <path d="M -6.331371,-9.776021 Q -6.334368,-9.891509 -6.358121,-9.983304" />
      <path d="M -6.358121,-9.983304 Q -6.385776,-10.115051 -6.385538,-10.282971" />
      <path d="M -8.23609,7.893527 Q -8.518458,7.774882 -8.792394,7.642242" />
      <path d="M -8.792394,7.642242 C -8.863756,7.607236 -8.96723,7.649316 -9.048481,7.710496 C -9.131522,7.772263 -9.195357,7.846672 -9.24356,7.909311" />
      <path d="M -9.24356,7.909311 C -9.383443,8.086852 -9.644499,8.293265 -9.903058,8.456466 C -10.166152,8.623012 -10.42191,8.751779 -10.691211,8.86974" />
      <line x1="-10.590224" y1="6.550216" x2="-10.066584" y2="6.026529" />
      <path d="M -10.691211,8.86974 Q -10.98972,8.698834 -11.276922,8.513971" />
      <path d="M -10.695396,6.970617 C -10.628479,6.886851 -10.547351,6.763041 -10.545645,6.652158" />
      <path d="M -10.545645,6.652158 Q -10.544678,6.587144 -10.590224,6.550216" />
      <path d="M -9.093241,-8.530136 L -9.048765,-8.553204" />
      <line x1="-9.578248" y1="-8.261697" x2="-9.12957" y2="-7.688205" />
      <path d="M -9.048765,-8.553204 C -8.999975,-8.578198 -8.979109,-8.634251 -8.979507,-8.696624" />
      <path d="M -8.979507,-8.696624 C -8.981111,-8.816032 -9.041096,-8.938872 -9.090301,-9.02505" />
      <path d="M -9.090301,-9.02505 C -9.175972,-9.179397 -9.243164,-9.404031 -9.282481,-9.626799 C -9.320834,-9.852949 -9.339193,-10.070735 -9.337558,-10.280156" />
      <path d="M -10.590224,6.550216 Q -10.827506,6.372335 -11.05246,6.182826" />
      <path d="M -11.05246,6.182826 C -11.110926,6.13302 -11.223452,6.150477 -11.320223,6.191364 C -11.418897,6.232417 -11.502799,6.289985 -11.568083,6.339687" />
      <path d="M -11.568083,6.339687 C -11.756269,6.47983 -12.07013,6.620707 -12.368662,6.720403 C -12.672574,6.822315 -12.958108,6.889378 -13.253492,6.942969" />
      <line x1="-12.462608" y1="4.725112" x2="-11.800273" y2="4.336618" />
      <path d="M -13.253492,6.942969 Q -13.490745,6.71099 -13.712902,6.468063" />
      <path d="M -12.604636,5.039106 C -12.52545,4.969513 -12.442862,4.871646 -12.442375,4.787001" />
      <path d="M -12.442375,4.787001 Q -12.442135,4.752144 -12.462608,4.725112" />
      <path d="M -11.386252,-6.928073 L -11.261786,-7.040701" />
      <line x1="-11.686091" y1="-6.640468" x2="-11.081276" y2="-6.187068" />
      <path d="M -11.261786,-7.040701 Q -11.225882,-7.074518 -11.226513,-7.127618" />
      <path d="M -11.226513,-7.127618 C -11.226561,-7.190779 -11.261985,-7.263711 -11.304635,-7.325973 C -11.349636,-7.38889 -11.39574,-7.442619 -11.442948,-7.487161" />
      <path d="M -11.442948,-7.487161 C -11.604801,-7.650104 -11.767502,-7.921865 -11.882644,-8.180353 C -12.000343,-8.443499 -12.077795,-8.690732 -12.139688,-8.946494" />
      <path d="M -12.462608,4.725112 Q -12.638633,4.500117 -12.799275,4.266652" />
      <path d="M -12.799275,4.266652 C -12.840861,4.205441 -12.954772,4.197086 -13.060466,4.214894 C -13.16805,4.232434 -13.266301,4.269238 -13.344217,4.302616" />
      <path d="M -13.344217,4.302616 C -13.567881,4.395811 -13.913158,4.461551 -14.231318,4.490949 C -14.555338,4.521281 -14.851189,4.52207 -15.152527,4.507639" />
      <line x1="-13.725642" y1="2.542592" x2="-12.969749" y2="2.315766" />
      <path d="M -15.152527,4.507639 Q -15.312353,4.230396 -15.454326,3.945961" />
      <path d="M -13.83933,2.742519 C -13.773027,2.693996 -13.719248,2.632426 -13.719524,2.57506" />
      <path d="M -13.719524,2.57506 Q -13.719489,2.558294 -13.725642,2.542592" />
      <path d="M -13.087039,-4.860341 L -12.947291,-5.083793" />
      <line x1="-13.237503" y1="-4.60211" x2="-12.517769" y2="-4.299699" />
      <path d="M -12.947291,-5.083793 Q -12.932514,-5.107285 -12.932654,-5.135379" />
      <path d="M -12.932654,-5.135379 C -12.932563,-5.199901 -12.988859,-5.273533 -13.053753,-5.332027 C -13.122226,-5.390923 -13.189553,-5.438395 -13.255733,-5.474441" />
      <path d="M -13.255733,-5.474441 C -13.460777,-5.595561 -13.699168,-5.8216 -13.887651,-6.045477 C -14.079999,-6.27328 -14.228713,-6.494732 -14.364948,-6.727909" />
      <path d="M -13.725642,2.542592 Q -13.828415,2.285816 -13.913797,2.024306" />
      <path d="M -13.913797,2.024306 C -13.935669,1.955861 -14.043201,1.922264 -14.150617,1.915778 C -14.259778,1.908611 -14.365682,1.922142 -14.450921,1.936922" />
      <path d="M -14.450921,1.936922 C -14.694821,1.976818 -15.047983,1.962941 -15.36409,1.920037 C -15.686136,1.876721 -15.972141,1.811183 -16.258898,1.729713" />
      <line x1="-14.293252" y1="0.151392" x2="-13.495314" y2="0.101691" />
      <path d="M -16.258898,1.729713 Q -16.330406,1.426099 -16.38252,1.11954" />
      <path d="M -14.317488,0.22212 Q -14.293473,0.191438 -14.292995,0.157952" />
      <path d="M -14.292995,0.157952 L -14.293252,0.151392" />
      <path d="M -14.081603,-2.477924 Q -14.039626,-2.647631 -13.990415,-2.81584" />
      <line x1="-14.126757" y1="-2.285533" x2="-13.341152" y2="-2.154721" />
      <path d="M -13.990415,-2.81584 L -13.987075,-2.839657" />
      <path d="M -13.987075,-2.839657 C -13.986692,-2.906345 -14.06305,-2.973992 -14.148394,-3.02137 C -14.234947,-3.069784 -14.327324,-3.101302 -14.405118,-3.124055" />
      <path d="M -14.405118,-3.124055 C -14.63938,-3.195097 -14.937214,-3.36001 -15.186195,-3.534019 C -15.440082,-3.710954 -15.649925,-3.891533 -15.851217,-4.086234" />
      <path d="M -14.293252,0.151392 Q -14.315769,-0.119667 -14.320073,-0.3914" />
      <path d="M -14.320073,-0.3914 C -14.32074,-0.462415 -14.414565,-0.518965 -14.516383,-0.549302 C -14.619682,-0.580688 -14.726022,-0.591351 -14.812774,-0.596177" />
      <path d="M -14.812774,-0.596177 C -15.060289,-0.612299 -15.39727,-0.704848 -15.689781,-0.81713 C -15.987905,-0.931141 -16.244575,-1.05854 -16.497208,-1.201497" />
      <line x1="6.948242" y1="1.776717" x2="6.948242" y2="2.276998" />
      <line x1="8.563753" y1="3.629056" x2="8.563753" y2="4.129337" />
      <line x1="6.741828" y1="3.558518" x2="6.741828" y2="4.058799" />
      <line x1="6.195329" y1="3.562987" x2="6.195329" y2="4.063267" />
      <line x1="7.066251" y1="-3.919474" x2="7.066251" y2="-3.419193" />
      <line x1="5.420434" y1="-5.764236" x2="5.420434" y2="-5.404399" />
      <line x1="5.905117" y1="4.04467" x2="5.905117" y2="4.54495" />
      <line x1="6.911891" y1="6.195931" x2="6.911891" y2="6.696212" />
      <line x1="5.17313" y1="5.719499" x2="5.17313" y2="6.21978" />
      <line x1="4.643918" y1="5.601345" x2="4.643918" y2="6.101625" />
      <line x1="4.219612" y1="6.001578" x2="4.219612" y2="6.501858" />
      <line x1="4.549038" y1="8.305157" x2="4.549038" y2="8.805437" />
      <line x1="3.011937" y1="7.455299" x2="3.011937" y2="7.95558" />
      <line x1="2.536074" y1="7.222573" x2="2.536074" y2="7.722854" />
      <line x1="3.54805" y1="-7.58934" x2="3.54805" y2="-7.348824" />
      <line x1="5.689213" y1="-6.176267" x2="5.689213" y2="-5.675987" />
      <line x1="2.006592" y1="7.514081" x2="2.006592" y2="8.014361" />
      <line x1="2.048127" y1="7.985926" x2="2.048127" y2="7.992826" />
      <line x1="2.284911" y1="9.551675" x2="2.284911" y2="10.051956" />
      <line x1="1.636219" y1="9.812992" x2="1.636219" y2="10.313273" />
      <line x1="0.405528" y1="8.647626" x2="0.405528" y2="9.147906" />
      <line x1="0.015446" y1="8.316188" x2="0.015446" y2="8.816468" />
      <line x1="1.193917" y1="-8.93265" x2="1.193917" y2="-8.91765" />
      <line x1="3.684509" y1="-8.047566" x2="3.684509" y2="-7.547285" />
      <line x1="-0.583131" y1="8.479104" x2="-0.583131" y2="8.979385" />
      <line x1="-0.684053" y1="8.94418" x2="-0.684053" y2="9.077734" />
      <line x1="-0.923362" y1="10.509641" x2="-0.923362" y2="11.009922" />
      <line x1="-1.628061" y1="10.616681" x2="-1.628061" y2="11.116962" />
      <line x1="-2.468473" y1="9.215223" x2="-2.468473" y2="9.715504" />
      <line x1="-2.746192" y1="8.807661" x2="-2.746192" y2="9.307941" />
      <line x1="1.188755" y1="-9.405843" x2="1.188755" y2="-8.905562" />
      <line x1="-3.373071" y1="8.830884" x2="-3.373071" y2="9.331164" />
      <line x1="-3.609571" y1="9.257496" x2="-3.609571" y2="9.757777" />
      <line x1="-4.308665" y1="10.715986" x2="-4.308665" y2="11.216266" />
      <line x1="-5.021348" y1="10.661454" x2="-5.021348" y2="11.161734" />
      <line x1="-5.414207" y1="9.119411" x2="-5.414207" y2="9.365933" />
      <line x1="-5.560637" y1="8.663499" x2="-5.560637" y2="9.163779" />
      <line x1="-1.627966" y1="-10.158535" x2="-1.627966" y2="-9.658254" />
      <line x1="-6.173098" y1="8.545446" x2="-6.173098" y2="9.045726" />
      <line x1="-6.52906" y1="8.904521" x2="-6.52906" y2="9.404802" />
      <line x1="-7.640297" y1="10.156646" x2="-7.640297" y2="10.656926" />
      <line x1="-8.312395" y1="9.944258" x2="-8.312395" y2="10.444539" />
      <line x1="-8.230929" y1="8.36672" x2="-8.230929" y2="8.396145" />
      <line x1="-8.23609" y1="7.893527" x2="-8.23609" y2="8.393807" />
      <line x1="-6.358121" y1="-9.983304" x2="-6.358121" y2="-9.483023" />
      <line x1="-8.792394" y1="7.642242" x2="-8.792394" y2="8.142523" />
      <line x1="-9.24356" y1="7.909311" x2="-9.24356" y2="8.409592" />
      <line x1="-10.691211" y1="8.86974" x2="-10.691211" y2="9.370021" />
      <line x1="-10.590224" y1="6.550216" x2="-10.590224" y2="7.050497" />
      <line x1="-9.048765" y1="-8.553204" x2="-9.048765" y2="-8.446337" />
      <line x1="-9.090301" y1="-9.02505" x2="-9.090301" y2="-8.524769" />
      <line x1="-11.05246" y1="6.182826" x2="-11.05246" y2="6.683106" />
      <line x1="-11.568083" y1="6.339687" x2="-11.568083" y2="6.839967" />
      <line x1="-13.253492" y1="6.942969" x2="-13.253492" y2="7.443249" />
      <line x1="-12.462608" y1="4.725112" x2="-12.462608" y2="5.225393" />
      <line x1="-11.261786" y1="-7.040701" x2="-11.261786" y2="-6.753438" />
      <line x1="-11.442948" y1="-7.487161" x2="-11.442948" y2="-6.98688" />
      <line x1="-12.799275" y1="4.266652" x2="-12.799275" y2="4.766933" />
      <line x1="-13.344217" y1="4.302616" x2="-13.344217" y2="4.802897" />
      <line x1="-15.152527" y1="4.507639" x2="-15.152527" y2="5.007919" />
      <line x1="-13.725642" y1="2.542592" x2="-13.725642" y2="3.042873" />
      <line x1="-12.947291" y1="-5.083793" x2="-12.947291" y2="-4.696784" />
      <line x1="-13.255733" y1="-5.474441" x2="-13.255733" y2="-4.974161" />
      <line x1="-13.913797" y1="2.024306" x2="-13.913797" y2="2.524587" />
      <line x1="-14.450921" y1="1.936922" x2="-14.450921" y2="2.437203" />
      <line x1="-16.258898" y1="1.729713" x2="-16.258898" y2="2.229994" />
      <line x1="-14.293252" y1="0.151392" x2="-14.293252" y2="0.651672" />
      <line x1="-13.990415" y1="-2.81584" x2="-13.990415" y2="-2.364202" />
      <line x1="-14.405118" y1="-3.124055" x2="-14.405118" y2="-2.623775" />
      <line x1="-14.320073" y1="-0.3914" x2="-14.320073" y2="0.108881" />
      <line x1="-14.812774" y1="-0.596177" x2="-14.812774" y2="-0.095896" />
      <path d="M 10.206724,2.910859 L 10.206724,3.41114" />
      <path d="M 9.662278,0.221661 L 9.662278,0.721941" />
      <path d="M 11.99973,4.607254 L 11.99973,5.107535" />
      <path d="M 10.692867,-1.853703 L 10.692867,-1.353423" />
      <path d="M 12.806476,-3.302613 L 12.806476,-2.802332" />
      <path d="M 14.227859,-3.831207 L 14.227859,-3.330927" />
      <path d="M 16.0116,5.007392 L 16.0116,5.507672" />
      <path d="M 14.590218,5.535986 L 14.590218,6.036266" />
      <path d="M 16.818347,-2.902476 L 16.818347,-2.402195" />
      <path d="M 18.12521,3.558482 L 18.12521,4.058763" />
      <path d="M 18.611353,-1.20608 L 18.611353,-0.7058" />
      <path d="M 19.155799,1.483118 L 19.155799,1.983398" />
      <path d="M 7.250822,-1.197076 L 7.250822,-0.696795" />
      <path d="M 6.944901,1.800534 L 6.944901,2.300815" />
      <path d="M 6.67735,-3.614183 L 6.67735,-3.113902" />
      <path d="M 5.89048,4.096256 L 5.89048,4.596537" />
      <path d="M 4.184339,6.088495 L 4.184339,6.588776" />
      <path d="M 5.400201,-5.826124 L 5.400201,-5.325844" />
      <path d="M 1.937333,7.6575 L 1.937333,8.157781" />
      <path d="M 3.503471,-7.691282 L 3.503471,-7.191001" />
      <path d="M -0.710802,8.736897 L -0.710802,9.237178" />
      <path d="M 1.109161,-9.104171 L 1.109161,-8.60389" />
      <path d="M -5.40457,8.983518 L -5.40457,9.483798" />
      <path d="M -5.420988,9.248477 L -5.420988,9.333913" />
      <path d="M -1.637604,-10.022641 L -1.637604,-9.52236" />
      <path d="M -8.151335,8.065048 L -8.151335,8.565328" />
      <path d="M -6.331371,-9.776021 L -6.331371,-9.27574" />
      <path d="M -10.545645,6.652158 L -10.545645,7.152439" />
      <path d="M -8.979507,-8.696624 L -8.979507,-8.196343" />
      <path d="M -12.442375,4.787001 L -12.442375,5.287282" />
      <path d="M -11.226513,-7.127618 L -11.226513,-6.627338" />
      <path d="M -13.719524,2.57506 L -13.719524,3.07534" />
      <path d="M -12.932654,-5.135379 L -12.932654,-4.635099" />
      <path d="M -14.292995,0.157952 L -14.292995,0.658233" />
      <path d="M -13.987075,-2.839657 L -13.987075,-2.339377" />
    </g>
  </g>
</svg>