<?xml version='1.0' encoding='utf-8'?>
<svg width="100.09mm" height="85.537857mm" viewBox="-17.551004 -15.683355 31.666701 27.062661" version="1.1" xmlns="http://www.w3.org/2000/svg">
  <g transform="scale(1,-1)" stroke-linecap="round">
    <g fill="none" stroke="rgb(0,0,0)" stroke-width="0.028474403893228774" id="Visible">
      <path d="M 6.694493,4.770316 Q 6.831921,4.743221 6.963572,4.737389" />
      <path d="M 6.963572,4.737389 C 7.028107,4.735162 7.084503,4.626083 7.110932,4.509391 C 7.136709,4.39054 7.146424,4.271447 7.140075,4.152112" />
      <path d="M 7.140075,4.152112 C 7.160277,4.00833 7.216626,3.82374 7.278576,3.66599 C 7.341508,3.505267 7.407791,3.369056 7.479202,3.235764" />
      <path d="M 7.920399,3.189978 Q 7.709808,3.205402 7.479202,3.235764" />
      <path d="M 11.874939,3.30692 Q 12.053003,3.373696 12.217327,3.465948" />
      <path d="M 12.229155,4.955704 Q 12.164371,5.11095 12.115271,5.282034" />
      <path d="M 12.217327,3.465948 C 12.260061,3.708822 12.286041,3.947185 12.291647,4.211533 C 12.29736,4.471161 12.277624,4.757115 12.229155,4.955704" />
      <path d="M 7.479202,3.235764 Q 7.613606,3.261141 7.739628,3.304773" />
      <path d="M 7.975491,3.266847 Q 7.859964,3.284273 7.739628,3.304773" />
      <path d="M 8.475828,4.320857 Q 8.160862,4.319895 7.820258,4.33235" />
      <path d="M 7.820258,4.33235 C 7.781493,4.439731 7.752759,4.553783 7.734055,4.674509 C 7.716927,4.793665 7.723596,4.919455 7.771459,4.951466" />
      <path d="M 8.129926,4.970542 Q 7.953577,4.959682 7.771459,4.951466" />
      <path d="M 7.739628,3.304773 C 7.782413,3.468325 7.812923,3.630185 7.829839,3.812066 C 7.846607,3.990675 7.846097,4.190062 7.820258,4.33235" />
      <path d="M 6.704247,4.27929 Q 6.61612,4.251558 6.524982,4.227381" />
      <path d="M 6.524982,4.227381 C 6.519745,4.338318 6.526158,4.446226 6.54422,4.551107 C 6.563398,4.654237 6.605011,4.751962 6.663599,4.768755" />
      <path d="M 6.663599,4.768755 Q 6.678719,4.773236 6.694493,4.770316" />
      <path d="M 6.687543,5.318382 Q 6.695897,5.04533 6.694493,4.770316" />
      <path d="M 7.594036,5.470857 C 7.351431,5.303852 7.028437,5.249523 6.687543,5.318382" />
      <path d="M 7.771459,4.951466 Q 7.688201,5.212239 7.594036,5.470857" />
      <path d="M 5.428374,5.413586 Q 5.568097,5.299888 5.710701,5.203639" />
      <path d="M 5.710701,5.203639 C 5.780746,5.1572 5.80363,5.027793 5.791094,4.912267 C 5.779044,4.793713 5.743514,4.690708 5.696699,4.592208" />
      <path d="M 5.696699,4.592208 C 5.668403,4.456544 5.666998,4.257392 5.682013,4.074894 C 5.697103,3.889096 5.725118,3.720074 5.760979,3.546898" />
      <path d="M 5.760979,3.546898 Q 5.920194,3.468362 6.078109,3.407214" />
      <path d="M 6.124594,3.420579 L 6.078109,3.407214" />
      <path d="M 6.078109,3.407214 C 6.181307,3.51914 6.271161,3.636244 6.353305,3.779215 C 6.434147,3.919491 6.50355,4.088693 6.524982,4.227381" />
      <path d="M 13.403034,4.861122 Q 13.486092,5.059954 13.549417,5.27721" />
      <path d="M 13.132017,6.654941 C 13.055666,6.744156 12.978839,6.845461 12.905199,6.982261 C 12.832949,7.114982 12.77096,7.289518 12.783272,7.396496" />
      <path d="M 13.549417,5.27721 C 13.508573,5.528664 13.456825,5.766199 13.384538,6.013659 C 13.313657,6.256867 13.218888,6.506816 13.132017,6.654941" />
      <path d="M 12.783272,7.396496 Q 12.80025,7.543788 12.806518,7.698067" />
      <path d="M 13.410765,7.58768 C 13.528465,7.565039 13.617218,7.594679 13.689001,7.649122" />
      <path d="M 13.689001,7.649122 Q 13.654799,7.926733 13.600157,8.21078" />
      <path d="M 12.961252,9.163173 C 12.899841,9.176694 12.831089,9.205388 12.748516,9.275926 C 12.668083,9.343568 12.573589,9.467375 12.53447,9.59438" />
      <path d="M 13.600157,8.21078 C 13.50296,8.412921 13.402636,8.594884 13.288656,8.768953 C 13.176695,8.940197 13.050348,9.097689 12.961252,9.163173" />
      <path d="M 12.53447,9.59438 Q 12.454598,9.855156 12.353186,10.115431" />
      <path d="M 12.353186,10.115431 C 12.307515,10.233216 12.321142,10.320512 12.361167,10.354706" />
      <path d="M 12.546854,10.354249 C 12.6079,10.369386 12.649526,10.455401 12.665286,10.560661 C 12.680603,10.667176 12.67758,10.788248 12.656218,10.923877" />
      <path d="M 12.656218,10.923877 Q 12.513919,11.205882 12.355952,11.480609" />
      <path d="M 11.472429,11.781417 Q 11.446252,11.808355 11.421711,11.842507" />
      <path d="M 12.355952,11.480609 C 12.255273,11.579386 12.155875,11.659893 12.057757,11.72213 C 11.959936,11.783737 11.86064,11.823962 11.795433,11.817095" />
      <path d="M 4.284548,14.06862 L 4.131674,14.070316" />
      <path d="M 11.421711,11.842507 Q 11.257983,12.073837 11.080912,12.289467" />
      <path d="M 11.080912,12.289467 C 10.99475,12.394748 10.94793,12.532956 10.94151,12.62635 C 10.933958,12.722917 10.95428,12.784019 10.98358,12.830036" />
      <path d="M 10.98358,12.830036 C 10.985396,12.926381 10.932134,13.101906 10.857803,13.276073 C 10.782361,13.453216 10.69134,13.626033 10.581416,13.80792" />
      <path d="M 10.581416,13.80792 Q 10.36915,14.018756 10.150185,14.21055" />
      <path d="M 10.150185,14.21055 Q 10.102902,14.207605 10.061095,14.195042" />
      <path d="M 6.674158,15.023837 C 6.51932,15.145941 6.343167,15.262692 6.173275,15.361835 C 6.001773,15.461847 5.836313,15.545627 5.659769,15.624518" />
      <path d="M 5.659769,15.624518 Q 5.481705,15.557742 5.317381,15.465489" />
      <path d="M 9.195022,13.913804 C 9.118587,14.003126 9.056384,14.110668 9.013548,14.203783 C 8.971874,14.296747 8.941476,14.382222 8.922353,14.460207" />
      <path d="M 8.922353,14.460207 C 8.851551,14.60443 8.69961,14.811913 8.538582,14.998695 C 8.374845,15.188854 8.206773,15.358893 8.020538,15.528474" />
      <path d="M 8.020538,15.528474 Q 7.795181,15.611647 7.573889,15.669118" />
      <path d="M 7.771459,4.951466 Q 7.869769,5.018234 7.955193,5.104381" />
      <path d="M 8.022554,5.105964 L 7.955193,5.104381" />
      <path d="M 7.955193,5.104381 Q 7.96883,5.117616 7.985887,5.117865" />
      <path d="M 7.985887,5.117865 C 8.032587,5.118969 8.090203,5.047137 8.133928,4.963029 C 8.177673,4.877147 8.213116,4.783437 8.240257,4.681901" />
      <path d="M 8.240257,4.681901 C 8.294524,4.563273 8.3809,4.435349 8.461634,4.337888 C 8.543778,4.238451 8.619882,4.165323 8.696324,4.100999" />
      <path d="M 11.874939,3.30692 Q 10.623377,3.661613 8.696324,4.100999" />
      <path d="M 8.696324,4.100999 Q 8.769904,4.22349 8.830266,4.36021" />
      <path d="M 12.217327,3.465948 Q 10.848899,3.912489 8.830266,4.36021" />
      <path d="M 12.229155,4.955704 Q 10.661669,5.19444 8.590086,5.358909" />
      <path d="M 8.590086,5.358909 C 8.536612,5.428455 8.485792,5.513337 8.437627,5.613556 C 8.390943,5.713389 8.354726,5.839263 8.370702,5.908496" />
      <path d="M 8.913965,5.910614 Q 8.646013,5.910435 8.370702,5.908496" />
      <path d="M 8.830266,4.36021 C 8.812556,4.538196 8.786235,4.707666 8.745158,4.886578 C 8.70491,5.062389 8.647253,5.245892 8.590086,5.358909" />
      <path d="M 5.428374,5.413586 Q 5.529311,5.638031 5.62184,5.859828" />
      <path d="M 6.687543,5.318382 C 6.34743,5.383836 5.967708,5.57676 5.62184,5.859828" />
      <path d="M 8.098424,6.276399 C 8.018333,5.921682 7.838614,5.634659 7.594036,5.470857" />
      <path d="M 8.065558,7.519162 C 8.169441,7.071781 8.181151,6.628971 8.098424,6.276399" />
      <path d="M 5.62184,5.859828 C 5.275352,6.140204 4.940648,6.528685 4.68248,6.950116" />
      <path d="M 7.504243,8.86615 C 7.764265,8.445979 7.964267,7.966033 8.065558,7.519162" />
      <path d="M 4.68248,6.950116 C 4.422459,7.370287 4.222456,7.850233 4.121165,8.297104" />
      <path d="M 6.564883,9.956438 C 6.911372,9.676062 7.246075,9.287581 7.504243,8.86615" />
      <path d="M 4.121165,8.297104 C 4.017283,8.744485 4.005572,9.187295 4.088299,9.539867" />
      <path d="M 5.49918,10.497884 C 5.839293,10.43243 6.219015,10.239507 6.564883,9.956438" />
      <path d="M 4.088299,9.539867 C 4.16839,9.894584 4.348109,10.181607 4.592687,10.345409" />
      <path d="M 4.592687,10.345409 C 4.835293,10.512414 5.158286,10.566743 5.49918,10.497884" />
      <path d="M 8.370702,5.908496 Q 8.240337,6.094036 8.098424,6.276399" />
      <path d="M 5.051627,5.072427 L 5.051326,5.072128" />
      <path d="M 5.051326,5.072128 C 5.09481,5.190856 5.148843,5.30229 5.232369,5.380442" />
      <path d="M 5.232369,5.380442 C 5.293186,5.437367 5.37081,5.461132 5.428374,5.413586" />
      <path d="M 4.31236,6.708912 Q 4.416939,6.539076 4.532284,6.3782" />
      <path d="M 4.532284,6.3782 C 4.597355,6.288452 4.557663,6.150472 4.487896,6.058837" />
      <path d="M 4.487896,6.058837 Q 4.407408,5.953124 4.296882,5.884265" />
      <path d="M 4.560061,6.315809 Q 4.430619,6.089126 4.296882,5.884265" />
      <path d="M 4.296882,5.884265 Q 4.277149,5.85975 4.257844,5.829454" />
      <path d="M 4.257844,5.829454 C 4.187994,5.720159 4.128621,5.564204 4.087825,5.412619 C 4.046355,5.258788 4.021008,5.109979 4.002052,4.951034" />
      <path d="M 4.535724,6.373169 L 4.522292,6.324592" />
      <path d="M 4.002052,4.951034 Q 4.143417,4.789629 4.290911,4.640086" />
      <path d="M 4.290911,4.640086 C 4.418692,4.670783 4.542159,4.714563 4.661311,4.771426 C 4.780861,4.829309 4.901576,4.908199 4.988658,4.997537" />
      <path d="M 4.988658,4.997537 Q 5.024911,5.034636 5.051326,5.072128" />
      <path d="M 8.370702,5.908496 Q 8.403552,6.051237 8.419858,6.206281" />
      <path d="M 8.570272,6.208629 L 8.419858,6.206281" />
      <path d="M 8.419858,6.206281 Q 8.428347,6.266502 8.468023,6.266161" />
      <path d="M 8.468023,6.266161 C 8.501998,6.266426 8.545722,6.234769 8.585996,6.193057 C 8.626353,6.150564 8.665172,6.099417 8.702452,6.039617" />
      <path d="M 8.702452,6.039617 C 8.78618,5.953266 8.891241,5.907622 8.96741,5.900084" />
      <path d="M 8.96741,5.900084 Q 9.033096,5.893301 9.086219,5.910765" />
      <path d="M 13.403034,4.861122 Q 12.409286,5.230108 11.292683,5.497638" />
      <path d="M 11.292683,5.497638 Q 10.243667,5.748974 9.086219,5.910765" />
      <path d="M 9.086219,5.910765 Q 9.079259,6.097548 9.057786,6.290722" />
      <path d="M 13.549417,5.27721 Q 11.50854,6.011928 9.057786,6.290722" />
      <path d="M 13.132017,6.654941 Q 11.022637,7.061645 8.628191,7.031992" />
      <path d="M 8.628191,7.031992 C 8.581915,7.049483 8.52988,7.086676 8.472087,7.14357 C 8.415201,7.201317 8.351947,7.297126 8.331655,7.384972" />
      <path d="M 12.783272,7.396496 Q 10.667222,7.592692 8.331655,7.384972" />
      <path d="M 9.057786,6.290722 C 8.99697,6.440345 8.929041,6.581716 8.854001,6.714836 C 8.779074,6.84747 8.692348,6.973275 8.628191,7.031992" />
      <path d="M 8.331655,7.384972 Q 8.290242,7.565439 8.233062,7.747835" />
      <path d="M 10.545326,7.914416 Q 9.409481,7.887699 8.233062,7.747835" />
      <path d="M 8.233062,7.747835 C 8.201748,7.848524 8.234521,7.900531 8.280573,7.903046" />
      <path d="M 8.280573,7.903046 Q 8.336068,7.905831 8.402816,7.861463" />
      <path d="M 8.402816,7.861463 L 8.412653,7.861621" />
      <path d="M 8.412653,7.861621 C 8.459074,7.864993 8.496377,7.909943 8.517302,7.968799 C 8.537939,8.02844 8.546976,8.098886 8.544415,8.180136" />
      <path d="M 13.689001,7.649122 Q 11.179174,8.287479 8.544415,8.180136" />
      <path d="M 8.544415,8.180136 Q 8.458779,8.381163 8.361226,8.579031" />
      <path d="M 13.600157,8.21078 Q 11.010551,8.790336 8.361226,8.579031" />
      <path d="M 12.961252,9.163173 Q 12.50617,9.201191 12.051424,9.217047" />
      <path d="M 12.051424,9.217047 Q 9.984417,9.289117 7.924363,8.903297" />
      <path d="M 7.924363,8.903297 Q 7.902302,8.865889 7.8606,8.855577" />
      <path d="M 7.8606,8.855577 C 7.815415,8.842959 7.730564,8.879416 7.66478,8.985273" />
      <path d="M 12.53447,9.59438 Q 10.080873,9.58966 7.66478,8.985273" />
      <path d="M 8.361226,8.579031 C 8.283661,8.66965 8.205655,8.745626 8.127206,8.806959 C 8.049227,8.867606 7.9693,8.90936 7.924363,8.903297" />
      <path d="M 3.645485,8.309212 Q 3.686898,8.128746 3.744078,7.94635" />
      <path d="M 3.744078,7.94635 Q 3.761087,7.887303 3.731682,7.836273" />
      <path d="M 3.731682,7.836273 C 3.698168,7.777262 3.626881,7.737076 3.552775,7.714411 C 3.478059,7.692795 3.399034,7.682017 3.315702,7.682076" />
      <path d="M 3.625282,8.357001 Q 3.467542,8.009147 3.315702,7.682076" />
      <path d="M 3.315702,7.682076 C 3.199475,7.645433 3.064562,7.54675 2.955733,7.436602 C 2.844764,7.32466 2.756789,7.205533 2.673724,7.071935" />
      <path d="M 3.094124,8.512015 Q 2.874717,7.737018 2.673724,7.071935" />
      <path d="M 2.673724,7.071935 Q 2.759359,6.870908 2.856913,6.67304" />
      <path d="M 3.794155,6.640242 C 3.87186,6.705489 3.95398,6.758341 4.052732,6.783562 C 4.148822,6.809145 4.261884,6.79221 4.31236,6.708912" />
      <path d="M 2.856913,6.67304 C 3.020304,6.631727 3.176366,6.602594 3.343502,6.592232 C 3.507702,6.581809 3.681893,6.594963 3.794155,6.640242" />
      <path d="M 7.66478,8.985273 Q 7.560201,9.155109 7.444856,9.315985" />
      <path d="M 12.353186,10.115431 Q 9.850937,10.026977 7.444856,9.315985" />
      <path d="M 7.444856,9.315985 C 7.388716,9.39457 7.365755,9.486492 7.369654,9.544126 C 7.372988,9.603868 7.394424,9.637202 7.421636,9.659274" />
      <path d="M 12.546854,10.354249 Q 10.901375,10.366375 9.312231,10.092307" />
      <path d="M 9.312231,10.092307 Q 8.356751,9.927521 7.421636,9.659274" />
      <path d="M 7.421636,9.659274 C 7.432545,9.716507 7.409693,9.829307 7.370965,9.944158 C 7.33185,10.059612 7.280224,10.178571 7.216087,10.301037" />
      <path d="M 12.656218,10.923877 Q 9.813284,11.067435 7.216087,10.301037" />
      <path d="M 7.216087,10.301037 Q 7.074722,10.462442 6.927227,10.611985" />
      <path d="M 12.355952,11.480609 Q 9.48837,11.503242 6.927227,10.611985" />
      <path d="M 6.667192,10.471411 C 6.692645,10.37499 6.699742,10.278002 6.647575,10.249711" />
      <path d="M 6.647575,10.249711 Q 6.611856,10.232283 6.548765,10.280599" />
      <path d="M 11.421711,11.842507 Q 10.846885,11.739168 10.286193,11.604289" />
      <path d="M 6.686553,10.34587 L 6.548765,10.280599" />
      <path d="M 6.927227,10.611985 Q 6.838036,10.631524 6.766444,10.60527" />
      <path d="M 6.766444,10.60527 C 6.71466,10.585588 6.672078,10.538495 6.667192,10.471411" />
      <path d="M 3.606437,9.785688 Q 3.573588,9.642947 3.557281,9.487904" />
      <path d="M 3.557281,9.487904 Q 3.555158,9.469388 3.545986,9.454518" />
      <path d="M 3.545986,9.454518 C 3.512569,9.399326 3.412201,9.390727 3.31366,9.407552 C 3.213924,9.426127 3.114726,9.45825 3.016066,9.503922" />
      <path d="M 3.326309,10.098117 Q 3.166693,9.798436 3.016066,9.503922" />
      <path d="M 3.016066,9.503922 C 2.883968,9.531647 2.709076,9.521075 2.556521,9.488639 C 2.401113,9.45584 2.266495,9.406048 2.131919,9.341306" />
      <path d="M 4.131674,14.070316 Q 3.942677,13.677975 3.764574,13.29463" />
      <path d="M 2.614145,10.627683 Q 2.353789,9.968603 2.131919,9.341306" />
      <path d="M 2.131919,9.341306 Q 2.13888,9.154523 2.160352,8.961349" />
      <path d="M 3.090327,8.511547 C 3.194219,8.524216 3.298298,8.524141 3.408847,8.494576 C 3.516821,8.466587 3.62594,8.397495 3.645485,8.309212" />
      <path d="M 2.160352,8.961349 C 2.307395,8.859483 2.452581,8.768053 2.616706,8.684356 C 2.777856,8.601945 2.958845,8.531048 3.090327,8.511547" />
      <path d="M 6.548765,10.280599 Q 6.409042,10.394297 6.266439,10.490546" />
      <path d="M 11.080912,12.289467 Q 8.507995,11.699357 6.266439,10.490546" />
      <path d="M 6.266439,10.490546 C 6.197141,10.537421 6.128392,10.640111 6.089841,10.725879 C 6.052214,10.812472 6.02954,10.887622 6.021818,10.951331" />
      <path d="M 10.98358,12.830036 Q 8.297619,12.244395 6.021818,10.951331" />
      <path d="M 6.021818,10.951331 C 5.982791,11.047779 5.889932,11.192023 5.788695,11.324297 C 5.685777,11.458936 5.577989,11.58149 5.45716,11.705173" />
      <path d="M 10.581416,13.80792 Q 7.744009,13.171743 5.45716,11.705173" />
      <path d="M 5.45716,11.705173 Q 5.297944,11.783708 5.14003,11.844857" />
      <path d="M 10.150185,14.21055 Q 9.529573,14.036173 8.937964,13.822893" />
      <path d="M 8.937964,13.822893 Q 6.860117,13.073813 5.14003,11.844857" />
      <path d="M 5.193536,11.316158 C 5.246642,11.241125 5.288203,11.167577 5.318221,11.095515 C 5.347002,11.024521 5.358157,10.95489 5.326651,10.930954" />
      <path d="M 5.326651,10.930954 Q 5.310964,10.918814 5.282647,10.923869" />
      <path d="M 5.345277,10.972359 L 5.282647,10.923869" />
      <path d="M 5.14003,11.844857 C 5.12053,11.784586 5.112988,11.709626 5.117403,11.619976 C 5.122783,11.529924 5.147643,11.415629 5.193536,11.316158" />
      <path d="M 4.220882,10.760142 L 4.20568,10.742719" />
      <path d="M 4.20568,10.742719 Q 4.10737,10.675951 4.021947,10.589804" />
      <path d="M 4.220256,10.831932 L 4.021947,10.589804" />
      <path d="M 4.021947,10.589804 C 3.980862,10.547599 3.866345,10.583986 3.76379,10.644805 C 3.660278,10.707862 3.565101,10.78014 3.478261,10.861638" />
      <path d="M 3.808985,11.321264 Q 3.639994,11.092366 3.478261,10.861638" />
      <path d="M 3.478261,10.861638 C 3.356669,10.94105 3.17603,11.014066 3.009074,11.061303 C 2.839102,11.109581 2.683224,11.136241 2.521815,11.151072" />
      <path d="M 5.659769,15.624518 Q 3.753046,13.430141 2.521815,11.151072" />
      <path d="M 2.521815,11.151072 Q 2.486283,11.091928 2.453787,11.029364" />
      <path d="M 2.453787,11.029364 Q 2.419038,10.962459 2.387873,10.891861" />
      <path d="M 5.317381,15.465489 Q 3.769703,13.488606 2.708181,11.510841" />
      <path d="M 3.128432,10.18463 C 3.238475,10.148035 3.343433,10.094688 3.443307,10.02459 C 3.541079,9.954515 3.623161,9.855357 3.606437,9.785688" />
      <path d="M 2.387873,10.891861 C 2.490551,10.763369 2.596645,10.640366 2.72555,10.512613 C 2.85202,10.387026 3.00394,10.258431 3.128432,10.18463" />
      <path d="M 5.282647,10.923869 Q 5.145219,10.950964 5.013567,10.956796" />
      <path d="M 5.278616,11.179283 L 5.013567,10.956796" />
      <path d="M 5.013567,10.956796 C 4.94978,10.959459 4.847519,11.041822 4.770003,11.128755 C 4.692516,11.217485 4.628663,11.305043 4.578443,11.391427" />
      <path d="M 8.922353,14.460207 Q 6.467411,13.171558 4.578443,11.391427" />
      <path d="M 4.578443,11.391427 C 4.490916,11.495993 4.340304,11.625675 4.192132,11.733201 C 4.041372,11.842765 3.895315,11.932508 3.738937,12.016307" />
      <path d="M 8.020538,15.528474 Q 5.525808,14.036553 3.738937,12.016307" />
      <path d="M 3.738937,12.016307 Q 3.604532,11.99093 3.47851,11.947298" />
      <path d="M 7.573889,15.669118 Q 5.168042,14.037191 3.47851,11.947298" />
      <path d="M 3.89826,11.211189 C 3.990095,11.139353 4.070584,11.059985 4.139727,10.973085 C 4.20685,10.887207 4.250595,10.790545 4.214334,10.750457" />
      <path d="M 4.214334,10.750457 L 4.20568,10.742719" />
      <path d="M 3.47851,11.947298 C 3.520694,11.833239 3.569957,11.717847 3.640869,11.587125 C 3.710323,11.45874 3.805096,11.314261 3.89826,11.211189" />
      <path d="M 4.31236,6.708912 Q 4.501028,6.831529 4.68248,6.950116" />
      <path d="M 8.331655,7.384972 Q 8.204359,7.454444 8.065558,7.519162" />
      <path d="M 7.66478,8.985273 Q 7.589908,8.928942 7.504243,8.86615" />
      <path d="M 3.645485,8.309212 Q 3.886578,8.306027 4.121165,8.297104" />
      <path d="M 6.548765,10.280599 Q 6.561626,10.12244 6.564883,9.956438" />
      <path d="M 3.606437,9.785688 Q 3.8506,9.666435 4.088299,9.539867" />
      <path d="M 5.282647,10.923869 Q 5.39504,10.715141 5.49918,10.497884" />
      <path d="M 4.20568,10.742719 Q 4.402735,10.548231 4.592687,10.345409" />
      <path d="M 13.626423,-2.234223 Q 13.897982,-1.580768 14.100946,-0.902061" />
      <path d="M 14.100946,-0.902061 Q 14.104179,-0.67605 14.087042,-0.450236" />
      <path d="M 12.861665,-4.571597 C 13.189647,-3.992813 13.49671,-3.344323 13.751197,-2.69381" />
      <path d="M 13.751197,-2.69381 Q 13.835222,-2.47279 13.899222,-2.249659" />
      <path d="M 11.938142,-6.104679 Q 11.561913,-6.648464 11.054856,-7.156052" />
      <path d="M 11.054856,-7.156052 C 10.570298,-7.641344 9.994944,-8.101164 9.346355,-8.521477" />
      <path d="M 9.346355,-8.521477 C 8.698098,-8.941952 7.970017,-9.327193 7.184334,-9.66544" />
      <path d="M 7.184334,-9.66544 C 6.398919,-10.003884 5.547919,-10.298773 4.657308,-10.541107" />
      <path d="M 4.657308,-10.541107 C 3.766889,-10.783664 2.827809,-10.976129 1.868732,-11.112629" />
      <path d="M 1.868732,-11.112629 C 0.909763,-11.249368 -0.078949,-11.33153 -1.067228,-11.356607" />
      <path d="M -1.067228,-11.356607 C -2.055486,-11.381931 -3.053354,-11.350426 -4.030374,-11.263053" />
      <path d="M -4.030374,-11.263053 C -5.007463,-11.175925 -5.973633,-11.032042 -6.899395,-10.835797" />
      <path d="M -6.899395,-10.835797 C -7.825311,-10.639783 -8.720229,-10.389414 -9.556831,-10.09233" />
      <path d="M -9.556831,-10.09233 C -10.393669,-9.795457 -11.180696,-9.448851 -11.893889,-9.063092" />
      <path d="M -11.893889,-9.063092 C -12.607388,-8.677511 -13.254302,-8.248859 -13.814888,-7.790217" />
      <path d="M -13.814888,-7.790217 C -14.375836,-7.331717 -14.856155,-6.838566 -15.241182,-6.325819" />
      <path d="M -15.241182,-6.325819 Q -15.323319,-6.216507 -15.399928,-6.105772" />
      <path d="M 8.785395,-1.542633 Q 9.00412,-1.094168 9.18018,-0.6224" />
      <path d="M 14.100946,-0.902061 Q 11.693665,-0.981599 9.18018,-0.6224" />
      <path d="M 13.441347,-0.482496 Q 13.661059,0.196773 13.802522,0.892624" />
      <path d="M 13.802522,0.892624 Q 13.724831,1.114375 13.627258,1.333625" />
      <path d="M 9.18018,-0.6224 Q 9.227512,-0.466635 9.260747,-0.309719" />
      <path d="M 14.087042,-0.450236 Q 11.746699,-0.597548 9.260747,-0.309719" />
      <path d="M 8.787519,-1.106732 C 8.778898,-1.119374 8.759457,-1.146564 8.753946,-1.145516" />
      <path d="M 8.753946,-1.145516 Q 8.752215,-1.14526 8.752629,-1.140799" />
      <path d="M 8.759663,-1.142278 L 8.752629,-1.140799" />
      <path d="M 9.260747,-0.309719 Q 9.082995,-0.680524 8.787519,-1.106732" />
      <path d="M 8.50207,-1.544711 Q 8.444569,-2.03832 8.23852,-2.519894" />
      <path d="M 8.752629,-1.140799 Q 8.633351,-1.345474 8.50207,-1.544711" />
      <path d="M 11.367919,-6.664175 Q 11.535064,-6.496863 11.688545,-6.325456" />
      <path d="M 11.367919,-6.664175 Q 11.218885,-6.916058 11.054856,-7.156052" />
      <path d="M 11.688545,-6.325456 C 11.710088,-6.301212 11.758241,-6.227015 11.776567,-6.19801" />
      <path d="M 11.776567,-6.19801 C 12.123359,-5.653259 12.468199,-5.035117 12.767594,-4.409267" />
      <path d="M 12.767594,-4.409267 Q 12.92897,-4.202289 13.071488,-3.990973" />
      <path d="M 12.608947,-5.052284 C 12.599463,-5.068408 12.578902,-5.102418 12.578376,-5.102423" />
      <path d="M 13.071488,-3.990973 Q 12.944236,-4.476531 12.632488,-5.012319" />
      <path d="M 8.097701,-2.771822 Q 8.357231,-2.321152 8.581272,-1.836784" />
      <path d="M 13.751197,-2.69381 Q 11.139769,-2.486189 8.581272,-1.836784" />
      <path d="M 8.581272,-1.836784 Q 8.683361,-1.689568 8.772054,-1.539629" />
      <path d="M 13.899222,-2.249659 Q 11.329114,-2.116007 8.772054,-1.539629" />
      <path d="M 12.623002,1.16406 C 12.73527,1.641742 12.816318,2.133285 12.868143,2.616771" />
      <path d="M 12.868143,2.616771 Q 12.712709,2.825183 12.538695,3.028894" />
      <path d="M 11.214287,2.612756 Q 11.277238,3.035009 11.306978,3.46297" />
      <path d="M 9.617586,-8.063031 Q 9.841166,-7.918075 10.052828,-7.767561" />
      <path d="M 9.617586,-8.063031 Q 9.488466,-8.298999 9.346355,-8.521477" />
      <path d="M 10.052828,-7.767561 C 10.08227,-7.746234 10.130991,-7.677581 10.149348,-7.650675" />
      <path d="M 10.149348,-7.650675 C 10.496675,-7.145639 10.86117,-6.568084 11.190406,-5.978202" />
      <path d="M 11.190406,-5.978202 Q 11.422527,-5.793739 11.637727,-5.602891" />
      <path d="M 11.374582,-6.622679 C 11.367804,-6.637474 11.353816,-6.668189 11.358909,-6.670116" />
      <path d="M 11.358909,-6.670116 Q 11.360866,-6.671096 11.367919,-6.664175" />
      <path d="M 11.637727,-5.602891 Q 11.613595,-6.097659 11.374582,-6.622679" />
      <path d="M 7.402629,-9.235003 Q 7.673492,-9.118339 7.934669,-8.994879" />
      <path d="M 7.402629,-9.235003 Q 7.29871,-9.457637 7.184334,-9.66544" />
      <path d="M 7.934669,-8.994879 C 7.970805,-8.977304 8.018099,-8.914145 8.035734,-8.889298" />
      <path d="M 8.035734,-8.889298 C 8.369378,-8.423225 8.738605,-7.887652 9.084203,-7.336383" />
      <path d="M 9.084203,-7.336383 Q 9.377565,-7.181986 9.656638,-7.01942" />
      <path d="M 9.603662,-8.02112 C 9.599779,-8.034753 9.592551,-8.062475 9.602186,-8.0672" />
      <path d="M 9.602186,-8.0672 Q 9.606698,-8.069784 9.617586,-8.063031" />
      <path d="M 9.656638,-7.01942 C 9.708312,-7.350715 9.700203,-7.686334 9.603662,-8.02112" />
      <path d="M 4.81373,-10.132111 Q 5.120786,-10.048513 5.420785,-9.957163" />
      <path d="M 4.81373,-10.132111 Q 4.739265,-10.344538 4.657308,-10.541107" />
      <path d="M 5.420785,-9.957163 C 5.462136,-9.944022 5.506066,-9.886082 5.522258,-9.86317" />
      <path d="M 5.522258,-9.86317 C 5.828558,-9.433714 6.187403,-8.939799 6.535213,-8.428205" />
      <path d="M 6.535213,-8.428205 Q 6.877807,-8.310196 7.209326,-8.182566" />
      <path d="M 7.368688,-9.190354 C 7.367662,-9.202909 7.366723,-9.227699 7.379376,-9.235784" />
      <path d="M 7.379376,-9.235784 Q 7.386901,-9.241221 7.402629,-9.235003" />
      <path d="M 7.209326,-8.182566 C 7.329353,-8.523686 7.395771,-8.862641 7.368688,-9.190354" />
      <path d="M 2.210165,5.769065 C 2.196499,5.73423 2.158778,5.646983 2.113485,5.65245" />
      <path d="M 2.737859,6.925532 Q 2.44688,6.36226 2.210165,5.769065" />
      <path d="M 1.956877,-10.717626 Q 2.287555,-10.670518 2.614095,-10.615017" />
      <path d="M 1.956877,-10.717626 Q 1.914916,-10.923392 1.868732,-11.112629" />
      <path d="M 2.614095,-10.615017 C 2.658967,-10.606809 2.697736,-10.553601 2.711822,-10.532422" />
      <path d="M 2.711822,-10.532422 C 2.978239,-10.135735 3.312008,-9.68145 3.647792,-9.208969" />
      <path d="M 3.647792,-9.208969 Q 4.025592,-9.13218 4.395986,-9.044711" />
      <path d="M 4.761161,-10.082512 C 4.762635,-10.093837 4.766627,-10.115146 4.780175,-10.126507" />
      <path d="M 4.780175,-10.126507 Q 4.791392,-10.137116 4.81373,-10.132111" />
      <path d="M 4.395986,-9.044711 C 4.579452,-9.403196 4.717676,-9.75386 4.761161,-10.082512" />
      <path d="M 2.113485,5.65245 L 1.955585,5.675449" />
      <path d="M 0.792181,7.964327 Q 0.395622,8.000349 -0.003672,8.025012" />
      <path d="M -0.003672,8.025012 Q -0.302211,7.421375 -0.553642,6.769793" />
      <path d="M -1.050969,-10.967578 Q -0.710206,-10.958888 -0.370495,-10.941508" />
      <path d="M -1.050969,-10.967578 Q -1.058709,-11.1705 -1.067228,-11.356607" />
      <path d="M -0.370495,-10.941508 C -0.323938,-10.938532 -0.291918,-10.889374 -0.280515,-10.869653" />
      <path d="M -0.280515,-10.869653 C -0.064889,-10.500548 0.230142,-10.082241 0.540152,-9.646711" />
      <path d="M 0.540152,-9.646711 Q 0.93769,-9.614284 1.331795,-9.570559" />
      <path d="M 1.887833,-10.661069 Q 1.891888,-10.677434 1.908266,-10.698977" />
      <path d="M 1.908266,-10.698977 Q 1.924124,-10.719721 1.956877,-10.717626" />
      <path d="M 1.331795,-9.570559 C 1.571188,-9.953238 1.775561,-10.323505 1.887833,-10.661069" />
      <path d="M -2.405838,8.070115 Q -2.807167,8.060484 -3.207112,8.039417" />
      <path d="M -3.207112,8.039417 Q -3.392668,7.582067 -3.550085,7.100114" />
      <path d="M -4.086667,-10.871733 Q -3.74977,-10.901817 -3.410795,-10.92327" />
      <path d="M -4.086667,-10.871733 Q -4.059869,-11.075746 -4.030374,-11.263053" />
      <path d="M -3.410795,-10.92327 C -3.364459,-10.925609 -3.3405,-10.879654 -3.332246,-10.861058" />
      <path d="M -3.332246,-10.861058 C -3.176238,-10.513216 -2.932025,-10.125764 -2.660481,-9.723509" />
      <path d="M -2.660481,-9.723509 Q -2.25948,-9.736773 -1.857799,-9.73858" />
      <path d="M -1.133661,-10.902338 L -1.125357,-10.917434" />
      <path d="M -1.125357,-10.917434 C -1.112167,-10.938871 -1.087679,-10.968142 -1.050969,-10.967578" />
      <path d="M -1.857799,-9.73858 Q -1.633237,-10.060989 -1.440702,-10.364866" />
      <path d="M -1.440702,-10.364866 Q -1.262636,-10.646265 -1.133661,-10.902338" />
      <path d="M -5.576241,7.811518 Q -5.965909,7.756629 -6.35013,7.690694" />
      <path d="M -6.35013,7.690694 Q -6.476869,7.28632 -6.579754,6.865893" />
      <path d="M -7.025934,-10.434016 Q -6.706697,-10.501643 -6.382335,-10.56105" />
      <path d="M -7.025934,-10.434016 Q -6.965695,-10.643008 -6.899395,-10.835797" />
      <path d="M -6.382335,-10.56105 C -6.338118,-10.56857 -6.323199,-10.524839 -6.318433,-10.506988" />
      <path d="M -6.318433,-10.506988 C -6.228431,-10.173223 -6.045033,-9.810237 -5.823071,-9.436219" />
      <path d="M -5.823071,-9.436219 Q -5.435024,-9.49463 -5.042212,-9.541897" />
      <path d="M -4.179622,-10.796444 C -4.167278,-10.81661 -4.132878,-10.867015 -4.086667,-10.871733" />
      <path d="M -5.042212,-9.541897 C -4.722255,-9.989255 -4.413051,-10.418907 -4.179622,-10.796444" />
      <path d="M -8.58923,7.199123 Q -8.951284,7.101222 -9.304051,6.993118" />
      <path d="M -9.304051,6.993118 Q -9.389168,6.603202 -9.450528,6.201493" />
      <path d="M -9.748437,-9.672346 Q -9.459929,-9.774746 -9.16346,-9.869676" />
      <path d="M -9.748437,-9.672346 Q -9.657223,-9.890004 -9.556831,-10.09233" />
      <path d="M -9.16346,-9.869676 C -9.123171,-9.882031 -9.117904,-9.839456 -9.116821,-9.821939" />
      <path d="M -9.116821,-9.821939 C -9.096509,-9.494486 -8.981435,-9.148578 -8.818143,-8.796603" />
      <path d="M -8.818143,-8.796603 Q -8.458936,-8.897771 -8.091075,-8.988561" />
      <path d="M -7.125347,-10.34772 C -7.110499,-10.369442 -7.069845,-10.424141 -7.025934,-10.434016" />
      <path d="M -8.091075,-8.988561 C -7.749779,-9.473754 -7.406185,-9.940757 -7.125347,-10.34772" />
      <path d="M -11.321454,6.258002 Q -11.641072,6.121097 -11.947942,5.97525" />
      <path d="M -11.947942,5.97525 Q -11.99628,5.577054 -12.018596,5.169887" />
      <path d="M -12.142717,-8.617907 Q -11.896749,-8.750889 -11.640311,-8.877454" />
      <path d="M -12.142717,-8.617907 Q -12.024262,-8.847562 -11.893889,-9.063092" />
      <path d="M -11.640311,-8.877454 Q -11.615288,-8.887414 -11.612474,-8.868127" />
      <path d="M -11.612474,-8.868127 Q -11.609631,-8.849588 -11.612844,-8.833957" />
      <path d="M -11.612844,-8.833957 C -11.654441,-8.561244 -11.632727,-8.282989 -11.568301,-8.004028" />
      <path d="M -11.568301,-8.004028 Q -11.548284,-7.917499 -11.523078,-7.830847" />
      <path d="M -11.523078,-7.830847 Q -11.207417,-7.970629 -10.879567,-8.101226" />
      <path d="M -9.850237,-9.574537 C -9.833494,-9.598067 -9.788249,-9.657681 -9.748437,-9.672346" />
      <path d="M -10.879567,-8.101226 C -10.530906,-8.625897 -10.166988,-9.133382 -9.850237,-9.574537" />
      <path d="M -13.661054,5.026683 Q -13.925151,4.856379 -14.173562,4.678761" />
      <path d="M -14.173562,4.678761 Q -14.183533,4.255945 -14.16332,3.826853" />
      <path d="M -14.11075,-7.313867 Q -13.917393,-7.471986 -13.711484,-7.625005" />
      <path d="M -14.11075,-7.313867 Q -13.969905,-7.558358 -13.814888,-7.790217" />
      <path d="M -13.711484,-7.625005 Q -13.698454,-7.634121 -13.696088,-7.627625" />
      <path d="M -13.696088,-7.627625 C -13.692206,-7.619594 -13.70003,-7.595866 -13.704314,-7.583491" />
      <path d="M -13.704314,-7.583491 C -13.822989,-7.244664 -13.855707,-6.908278 -13.827134,-6.578489" />
      <path d="M -13.827134,-6.578489 Q -13.567944,-6.751162 -13.293527,-6.916219" />
      <path d="M -12.242737,-8.50855 C -12.224782,-8.534065 -12.176801,-8.599014 -12.142717,-8.617907" />
      <path d="M -13.293527,-6.916219 C -12.951774,-7.480394 -12.582432,-8.029835 -12.242737,-8.50855" />
      <path d="M -15.512248,3.555577 Q -15.71001,3.358847 -15.889792,3.156729" />
      <path d="M -15.889792,3.156729 Q -15.85549,2.695592 -15.785057,2.231762" />
      <path d="M -15.571967,-5.813614 Q -15.439135,-5.990396 -15.292186,-6.163606" />
      <path d="M -15.571967,-5.813614 Q -15.414497,-6.075174 -15.241182,-6.325819" />
      <path d="M -15.292186,-6.163606 Q -15.285568,-6.171293 -15.28479,-6.169706" />
      <path d="M -15.28479,-6.169706 C -15.282706,-6.166748 -15.29814,-6.136486 -15.305606,-6.121733" />
      <path d="M -15.305606,-6.121733 Q -15.576036,-5.587148 -15.635985,-5.090801" />
      <path d="M -15.635985,-5.090801 Q -15.443875,-5.289296 -15.234126,-5.482056" />
      <path d="M -14.204895,-7.1934 C -14.186465,-7.220997 -14.13771,-7.291481 -14.11075,-7.313867" />
      <path d="M -15.234126,-5.482056 C -14.913273,-6.084144 -14.553628,-6.675295 -14.204895,-7.1934" />
      <path d="M -16.799247,1.904912 Q -16.922579,1.68981 -17.026371,1.471466" />
      <path d="M -17.026371,1.471466 Q -16.938268,0.958671 -16.806427,0.448898" />
      <path d="M -16.651568,-3.973104 Q -16.789374,-3.692584 -16.875575,-3.428689" />
      <path d="M -16.875575,-3.428689 Q -16.758411,-3.64488 -16.621917,-3.857451" />
      <path d="M -15.656382,-5.68293 C -15.638231,-5.71262 -15.590699,-5.788613 -15.571967,-5.813614" />
      <path d="M -16.621917,-3.857451 C -16.3351,-4.494308 -15.999875,-5.125218 -15.656382,-5.68293" />
      <path d="M -17.469361,0.142266 Q -17.513214,-0.082403 -17.536767,-0.308033" />
      <path d="M -17.536767,-0.308033 Q -17.381478,-0.887683 -17.173646,-1.454438" />
      <path d="M -17.495156,-1.660199 Q -17.457734,-1.885235 -17.400084,-2.108914" />
      <path d="M -17.400084,-2.108914 C -17.240581,-2.550241 -17.05682,-2.991126 -16.856671,-3.411867" />
      <path d="M 8.752629,-1.140799 Q 8.768199,-1.006891 8.772955,-0.872724" />
      <path d="M 8.925071,-0.90089 L 8.772955,-0.872724" />
      <path d="M 8.772955,-0.872724 C 8.774022,-0.853712 8.802054,-0.793949 8.813002,-0.770633" />
      <path d="M 8.988419,-0.801162 L 8.813002,-0.770633" />
      <path d="M 8.813002,-0.770633 C 9.020215,-0.332279 9.197565,0.153395 9.332372,0.63496" />
      <path d="M 13.802522,0.892624 Q 11.697943,0.554929 9.332372,0.63496" />
      <path d="M 9.332372,0.63496 Q 9.323009,0.792898 9.299426,0.950366" />
      <path d="M 13.627258,1.333625 Q 11.612494,0.937125 9.299426,0.950366" />
      <path d="M 8.72276,0.093281 C 8.712893,0.079408 8.690157,0.049208 8.680134,0.050186" />
      <path d="M 8.680134,0.050186 Q 8.677269,0.050411 8.676095,0.054547" />
      <path d="M 8.687906,0.053257 L 8.676095,0.054547" />
      <path d="M 9.299426,0.950366 Q 9.058483,0.555604 8.72276,0.093281" />
      <path d="M 8.427365,-0.377933 Q 8.569843,-0.959191 8.50207,-1.544711" />
      <path d="M 7.936764,0.7565 Q 8.284275,0.203278 8.427365,-0.377933" />
      <path d="M 7.050352,1.812143 Q 7.58867,1.309606 7.936764,0.7565" />
      <path d="M 5.80442,2.745779 Q 6.511506,2.314501 7.050352,1.812143" />
      <path d="M 4.249975,3.519185 Q 5.096881,3.176822 5.80442,2.745779" />
      <path d="M 2.450658,4.100697 Q 3.40271,3.861266 4.249975,3.519185" />
      <path d="M 0.480132,4.466507 C 1.155571,4.382669 1.819165,4.259479 2.450658,4.100697" />
      <path d="M -1.580929,4.60164 C -0.889322,4.596021 -0.19524,4.550514 0.480132,4.466507" />
      <path d="M -3.648145,4.500564 C -2.968685,4.573394 -2.272531,4.607432 -1.580929,4.60164" />
      <path d="M -5.636884,4.167416 C -4.997389,4.315713 -4.327662,4.427904 -3.648145,4.500564" />
      <path d="M -7.465726,3.615835 Q -6.601002,3.943792 -5.636884,4.167416" />
      <path d="M -9.0598,2.868403 Q -8.330106,3.28759 -7.465726,3.615835" />
      <path d="M -10.353843,1.955721 Q -9.789053,2.448974 -9.0598,2.868403" />
      <path d="M -11.294876,0.915153 Q -10.918113,1.46228 -10.353843,1.955721" />
      <path d="M -11.764625,-2.361769 Q -11.94785,-1.873654 -11.979841,-1.375743" />
      <path d="M -11.844374,-0.210699 Q -11.671063,0.367901 -11.294876,0.915153" />
      <path d="M -11.979841,-1.375743 Q -12.017077,-0.789357 -11.844374,-0.210699" />
      <path d="M 8.676095,0.054547 Q 8.557687,-0.163727 8.427365,-0.377933" />
      <path d="M 11.367919,-6.664175 L 11.358988,-6.661002" />
      <path d="M 11.688545,-6.325456 L 11.513506,-6.267219" />
      <path d="M 11.776567,-6.19801 L 11.55447,-6.126188" />
      <path d="M 6.986576,-3.919756 C 7.182519,-3.618766 7.379564,-3.291292 7.560166,-2.958475" />
      <path d="M 12.767594,-4.409267 Q 10.05893,-3.897244 7.560166,-2.958475" />
      <path d="M 7.560166,-2.958475 Q 7.712834,-2.825836 7.853354,-2.689011" />
      <path d="M 13.071488,-3.990973 Q 10.376836,-3.556085 7.853354,-2.689011" />
      <path d="M 8.676095,0.054547 Q 8.643439,0.187477 8.600098,0.319436" />
      <path d="M 8.868134,0.297687 L 8.600098,0.319436" />
      <path d="M 8.600098,0.319436 C 8.594575,0.338194 8.618126,0.400908 8.627479,0.425386" />
      <path d="M 8.942281,0.40381 L 8.627479,0.425386" />
      <path d="M 8.627479,0.425386 C 8.804549,0.885728 8.940455,1.389325 9.031618,1.88382" />
      <path d="M 12.868143,2.616771 Q 11.152428,2.060488 9.031618,1.88382" />
      <path d="M 9.031618,1.88382 Q 8.965942,2.037464 8.886506,2.189038" />
      <path d="M 12.538695,3.028894 Q 10.931993,2.425182 8.886506,2.189038" />
      <path d="M 8.230012,1.261395 C 8.219361,1.246275 8.194474,1.213095 8.180069,1.213014" />
      <path d="M 8.180069,1.213014 Q 8.176099,1.212944 8.173482,1.216756" />
      <path d="M 8.189928,1.216717 L 8.173482,1.216756" />
      <path d="M 8.886506,2.189038 C 8.694636,1.906367 8.467187,1.595314 8.230012,1.261395" />
      <path d="M 8.173482,1.216756 Q 8.093937,1.343266 8.004274,1.467615" />
      <path d="M 8.386287,1.480396 Q 8.198073,1.472102 8.004274,1.467615" />
      <path d="M 8.004274,1.467615 C 7.992386,1.485377 8.010492,1.550474 8.017868,1.57591" />
      <path d="M 8.470639,1.598171 Q 8.248254,1.584345 8.017868,1.57591" />
      <path d="M 8.017868,1.57591 C 8.157546,2.054374 8.246444,2.570835 8.290229,3.07305" />
      <path d="M 10.342335,3.710705 Q 9.42303,3.326548 8.290229,3.07305" />
      <path d="M 8.290229,3.07305 Q 8.17093,3.216111 8.038894,3.355585" />
      <path d="M 9.606573,3.889229 Q 8.894279,3.58285 8.038894,3.355585" />
      <path d="M 7.329448,2.349786 C 7.318569,2.333535 7.293006,2.297822 7.274742,2.295437" />
      <path d="M 7.274742,2.295437 Q 7.269501,2.294696 7.265367,2.298247" />
      <path d="M 7.287193,2.300979 L 7.265367,2.298247" />
      <path d="M 8.038894,3.355585 C 7.820681,3.04945 7.573229,2.711225 7.329448,2.349786" />
      <path d="M 9.617586,-8.063031 L 9.597413,-8.053337" />
      <path d="M 10.052828,-7.767561 L 9.6808,-7.59718" />
      <path d="M 10.149348,-7.650675 Q 9.917095,-7.548609 9.687937,-7.443505" />
      <path d="M 5.494855,-4.944694 C 5.71122,-4.637626 5.942297,-4.293953 6.158669,-3.941551" />
      <path d="M 11.190406,-5.978202 Q 8.4954,-5.156995 6.158669,-3.941551" />
      <path d="M 6.158669,-3.941551 Q 6.355665,-3.828918 6.542258,-3.71081" />
      <path d="M 11.637727,-5.602891 Q 8.92885,-4.858826 6.542258,-3.71081" />
      <path d="M 7.265367,2.298247 Q 7.142191,2.413157 7.009876,2.524805" />
      <path d="M 7.51249,2.61642 Q 7.271007,2.566161 7.009876,2.524805" />
      <path d="M 7.009876,2.524805 C 6.99211,2.54087 7.004029,2.607686 7.009126,2.633835" />
      <path d="M 7.611832,2.757924 Q 7.325105,2.689329 7.009126,2.633835" />
      <path d="M 7.009126,2.633835 C 7.105693,3.125817 7.143944,3.649553 7.138559,4.153965" />
      <path d="M 7.140171,4.154643 L 7.138559,4.153965" />
      <path d="M 7.138559,4.153965 Q 6.970521,4.280586 6.79129,4.402249" />
      <path d="M 7.097233,4.559839 Q 6.949352,4.479192 6.79129,4.402249" />
      <path d="M 6.057937,3.313897 C 6.047532,3.296937 6.023322,3.26016 6.002404,3.253642" />
      <path d="M 6.002404,3.253642 Q 5.995199,3.251291 5.988928,3.254742" />
      <path d="M 6.019286,3.264154 L 5.988928,3.254742" />
      <path d="M 6.79129,4.402249 C 6.555668,4.070147 6.298343,3.70304 6.057937,3.313897" />
      <path d="M 7.402629,-9.235003 L 7.368748,-9.21353" />
      <path d="M 7.934669,-8.994879 Q 7.629478,-8.813197 7.33238,-8.626413" />
      <path d="M 3.677162,-5.813518 Q 3.705605,-5.785382 3.718449,-5.765635" />
      <path d="M 8.035734,-8.889298 Q 7.656131,-8.667892 7.288869,-8.438618" />
      <path d="M 4.644841,-6.557367 Q 4.16792,-6.170253 3.718449,-5.765635" />
      <path d="M 3.718449,-5.765635 C 3.937253,-5.460329 4.19048,-5.109126 4.434156,-4.745764" />
      <path d="M 9.084203,-7.336383 Q 6.513188,-6.213867 4.434156,-4.745764" />
      <path d="M 4.434156,-4.745764 Q 4.667415,-4.657749 4.892442,-4.563193" />
      <path d="M 9.656638,-7.01942 Q 7.044438,-5.970896 4.892442,-4.563193" />
      <path d="M 5.988928,3.254742 Q 5.827163,3.35335 5.657614,3.447726" />
      <path d="M 5.829467,3.51389 Q 5.746169,3.480047 5.657614,3.447726" />
      <path d="M 5.657614,3.447726 C 5.634697,3.461463 5.639941,3.52926 5.642551,3.55585" />
      <path d="M 5.750314,3.599411 L 5.642551,3.55585" />
      <path d="M 5.642551,3.55585 C 5.692054,4.05619 5.678092,4.581316 5.623758,5.082311" />
      <path d="M 5.740341,5.175602 L 5.623758,5.082311" />
      <path d="M 5.623758,5.082311 Q 5.41386,5.187307 5.194771,5.28618" />
      <path d="M 5.350865,5.438929 Q 5.276653,5.361715 5.194771,5.28618" />
      <path d="M 4.467535,4.114256 C 4.458849,4.098244 4.439886,4.065735 4.41982,4.051997" />
      <path d="M 4.41982,4.051997 Q 4.407844,4.043367 4.396424,4.047084" />
      <path d="M 4.965599,4.97487 L 4.966526,4.942702" />
      <path d="M 4.449568,4.084614 L 4.396424,4.047084" />
      <path d="M 5.194771,5.28618 C 4.951387,4.92667 4.694724,4.530154 4.467535,4.114256" />
      <path d="M 4.81373,-10.132111 L 4.762145,-10.088952" />
      <path d="M 1.487592,-6.382127 L 1.720473,-6.338257" />
      <path d="M 5.420785,-9.957163 Q 4.921167,-9.565787 4.453918,-9.160865" />
      <path d="M 3.843815,-8.613565 Q 2.669808,-7.52292 1.720473,-6.338257" />
      <path d="M 1.720473,-6.338257 C 1.751445,-6.331792 1.779384,-6.29395 1.789568,-6.278908" />
      <path d="M 5.522258,-9.86317 Q 3.356414,-8.197856 1.789568,-6.278908" />
      <path d="M 1.789568,-6.278908 C 1.982196,-5.997143 2.219944,-5.674033 2.45723,-5.33819" />
      <path d="M 6.535213,-8.428205 Q 4.193447,-7.024592 2.45723,-5.33819" />
      <path d="M 2.45723,-5.33819 Q 2.717202,-5.278397 2.971452,-5.211264" />
      <path d="M 7.209326,-8.182566 Q 4.800747,-6.846766 2.971452,-5.211264" />
      <path d="M 4.396424,4.047084 Q 4.202693,4.125351 4.00285,4.198591" />
      <path d="M 4.343773,4.653908 Q 4.255083,4.413387 4.00285,4.198591" />
      <path d="M 4.00285,4.198591 C 3.975721,4.209465 3.974076,4.277468 3.974091,4.304209" />
      <path d="M 4.259646,4.671988 Q 4.167233,4.480349 3.974091,4.304209" />
      <path d="M 3.974091,4.304209 C 3.974503,4.807404 3.9089,5.327978 3.80784,5.820082" />
      <path d="M 4.040503,6.780366 Q 4.056081,6.283679 3.80784,5.820082" />
      <path d="M 3.80784,5.820082 Q 3.564676,5.899155 3.314699,5.971189" />
      <path d="M 3.426922,6.589103 Q 3.426504,6.274812 3.314699,5.971189" />
      <path d="M 2.210165,5.769065 Q 2.788851,5.21813 2.623353,4.718097" />
      <path d="M 2.623353,4.718097 C 2.612533,4.694668 2.583031,4.636208 2.553051,4.642834" />
      <path d="M 2.113485,5.65245 Q 2.704231,5.123465 2.553051,4.642834" />
      <path d="M 3.314699,5.971189 C 3.073517,5.583953 2.828024,5.158705 2.623353,4.718097" />
      <path d="M 1.956877,-10.717626 L 1.87573,-10.625572" />
      <path d="M -0.42689,-7.394975 Q -0.635304,-7.022148 -0.821712,-6.644212" />
      <path d="M -0.821712,-6.644212 Q -0.584111,-6.632594 -0.347692,-6.614922" />
      <path d="M 2.614095,-10.615017 Q 0.794818,-8.703858 -0.347692,-6.614922" />
      <path d="M -0.347692,-6.614922 C -0.315273,-6.612085 -0.291841,-6.577181 -0.283456,-6.563202" />
      <path d="M 2.711822,-10.532422 Q 0.875444,-8.63811 -0.283456,-6.563202" />
      <path d="M -0.283456,-6.563202 C -0.124891,-6.301532 0.087645,-6.004185 0.308826,-5.694575" />
      <path d="M 3.647792,-9.208969 Q 1.631148,-7.555978 0.308826,-5.694575" />
      <path d="M 0.308826,-5.694575 Q 0.584868,-5.665451 0.857931,-5.62849" />
      <path d="M 4.395986,-9.044711 Q 2.289635,-7.450578 0.857931,-5.62849" />
      <path d="M 2.553051,4.642834 Q 2.335285,4.697556 2.113331,4.746662" />
      <path d="M 2.055325,5.078052 Q 2.127263,4.910665 2.113331,4.746662" />
      <path d="M 2.113331,4.746662 C 2.0831,4.754254 2.074633,4.821678 2.072053,4.848272" />
      <path d="M 2.069225,4.957468 L 2.069325,4.956514" />
      <path d="M 2.069325,4.956514 Q 2.074993,4.902237 2.072053,4.848272" />
      <path d="M 2.072053,4.848272 C 2.023357,5.348705 1.908798,5.85897 1.765151,6.337073" />
      <path d="M 0.792181,7.964327 Q 1.489517,7.316595 1.692657,6.673492" />
      <path d="M 1.692657,6.673492 Q 1.745841,6.505124 1.765151,6.337073" />
      <path d="M 1.765151,6.337073 Q 1.498675,6.386985 1.228045,6.429231" />
      <path d="M -0.003672,8.025012 Q 1.00543,7.234667 1.228045,6.429231" />
      <path d="M -0.115377,5.7096 Q 0.393146,5.412079 0.600892,5.100699" />
      <path d="M 0.600892,5.100699 C 0.591704,5.076124 0.566247,5.01452 0.534278,5.017601" />
      <path d="M -0.066044,5.524198 Q 0.347048,5.276465 0.534278,5.017601" />
      <path d="M 1.228045,6.429231 C 0.998938,6.015087 0.774666,5.56296 0.600892,5.100699" />
      <path d="M -1.050969,-10.967578 Q -2.365946,-8.836545 -2.947296,-6.626677" />
      <path d="M -2.947296,-6.626677 Q -2.710402,-6.642208 -2.4725,-6.651676" />
      <path d="M -0.370495,-10.941508 Q -1.784755,-8.845335 -2.4725,-6.651676" />
      <path d="M -2.4725,-6.651676 C -2.439963,-6.652555 -2.421997,-6.62002 -2.415754,-6.606878" />
      <path d="M -0.280515,-10.869653 Q -1.712244,-8.788349 -2.415754,-6.606878" />
      <path d="M -2.415754,-6.606878 C -2.297743,-6.361033 -2.11912,-6.086067 -1.923099,-5.800328" />
      <path d="M 0.540152,-9.646711 Q -1.068809,-7.786272 -1.923099,-5.800328" />
      <path d="M -1.923099,-5.800328 Q -1.642289,-5.803066 -1.361593,-5.797789" />
      <path d="M 1.331795,-9.570559 Q 0.278928,-8.459433 -0.495077,-7.293136" />
      <path d="M -0.495077,-7.293136 Q -0.983961,-6.556468 -1.361593,-5.797789" />
      <path d="M -0.869781,-6.61448 Q -0.856331,-6.640595 -0.821712,-6.644212" />
      <path d="M -1.361593,-5.797789 C -1.180388,-6.063501 -1.01503,-6.319844 -0.900634,-6.552298" />
      <path d="M 0.534278,5.017601 Q 0.301392,5.046538 0.066413,5.0695" />
      <path d="M 0.033293,5.102398 L 0.066413,5.0695" />
      <path d="M 0.066413,5.0695 Q 0.056349,5.070912 0.048413,5.079251" />
      <path d="M 0.048413,5.079251 C 0.028451,5.099682 0.018335,5.144963 0.014306,5.165766" />
      <path d="M 0.014306,5.165766 C -0.081503,5.657931 -0.240329,6.152554 -0.420682,6.612118" />
      <path d="M -2.405838,8.070115 Q -1.026578,7.382068 -0.420682,6.612118" />
      <path d="M -0.420682,6.612118 Q -0.69956,6.630826 -0.979765,6.641555" />
      <path d="M -3.207112,8.039417 Q -1.710943,7.392418 -0.979765,6.641555" />
      <path d="M -2.209628,5.544238 Q -1.814465,5.403356 -1.517048,5.246396" />
      <path d="M -1.517048,5.246396 C -1.524228,5.220885 -1.544597,5.156659 -1.577248,5.156043" />
      <path d="M -2.16171,5.397995 Q -1.834102,5.28296 -1.577248,5.156043" />
      <path d="M -0.979765,6.641555 C -1.187416,6.20242 -1.381285,5.726369 -1.517048,5.246396" />
      <path d="M -4.086667,-10.871733 Q -4.928288,-8.617305 -5.023095,-6.368749" />
      <path d="M -5.023095,-6.368749 Q -4.796608,-6.410794 -4.566963,-6.447013" />
      <path d="M -3.410795,-10.92327 Q -4.362138,-8.691743 -4.566963,-6.447013" />
      <path d="M -4.566963,-6.447013 C -4.535639,-6.451546 -4.523874,-6.420713 -4.520029,-6.408148" />
      <path d="M -3.332246,-10.861058 Q -4.300711,-8.642421 -4.520029,-6.408148" />
      <path d="M -4.520029,-6.408148 C -4.447404,-6.17321 -4.310007,-5.916327 -4.147171,-5.65112" />
      <path d="M -2.660481,-9.723509 Q -3.795888,-7.706044 -4.147171,-5.65112" />
      <path d="M -4.147171,-5.65112 Q -3.873088,-5.685608 -3.59625,-5.712232" />
      <path d="M -1.857799,-9.73858 Q -3.116894,-7.755298 -3.59625,-5.712232" />
      <path d="M -1.730447,-9.855564 L -1.766259,-9.787033" />
      <path d="M -1.766259,-9.787033 Q -2.589823,-8.20224 -3.01103,-6.575535" />
      <path d="M -3.01103,-6.575535 C -3.002804,-6.589439 -2.979772,-6.624132 -2.947296,-6.626677" />
      <path d="M -3.59625,-5.712232 C -3.376745,-6.01985 -3.166596,-6.315285 -3.01103,-6.575535" />
      <path d="M -1.577248,5.156043 Q -1.815718,5.15801 -2.054102,5.153887" />
      <path d="M -2.073499,5.161883 L -2.054102,5.153887" />
      <path d="M -2.054102,5.153887 L -2.063922,5.155902" />
      <path d="M -2.063922,5.155902 C -2.090986,5.167293 -2.108295,5.220821 -2.114905,5.243693" />
      <path d="M -2.114905,5.243693 C -2.253906,5.722423 -2.450494,6.196709 -2.660171,6.633957" />
      <path d="M -5.576241,7.811518 Q -3.754089,7.306648 -2.660171,6.633957" />
      <path d="M -2.660171,6.633957 Q -2.940033,6.620696 -3.21834,6.599468" />
      <path d="M -6.35013,7.690694 Q -4.428149,7.239272 -3.21834,6.599468" />
      <path d="M -4.313466,5.291161 Q -3.957817,5.226391 -3.643758,5.149226" />
      <path d="M -3.643758,5.149226 C -3.648636,5.123025 -3.663084,5.056807 -3.695079,5.052492" />
      <path d="M -4.261953,5.164795 Q -3.963588,5.113153 -3.695079,5.052492" />
      <path d="M -3.21834,6.599468 C -3.396035,6.138285 -3.551565,5.642241 -3.643758,5.149226" />
      <path d="M -7.025934,-10.434016 Q -7.359744,-8.112333 -6.964127,-5.880988" />
      <path d="M -6.964127,-5.880988 Q -6.757318,-5.947825 -6.545332,-6.009314" />
      <path d="M -6.382335,-10.56105 Q -6.831814,-8.249371 -6.545332,-6.009314" />
      <path d="M -6.545332,-6.009314 C -6.521159,-6.016054 -6.513682,-5.996003 -6.511137,-5.982259" />
      <path d="M -6.318433,-10.506988 Q -6.765733,-8.2965 -6.530469,-6.150203" />
      <path d="M -6.530469,-6.150203 L -6.527596,-6.124222" />
      <path d="M -6.50786,-5.955206 C -6.480599,-5.73162 -6.391761,-5.494721 -6.272336,-5.25306" />
      <path d="M -5.823071,-9.436219 Q -6.438441,-7.318579 -6.272336,-5.25306" />
      <path d="M -6.272336,-5.25306 Q -6.016202,-5.317885 -5.754556,-5.37532" />
      <path d="M -5.042212,-9.541897 Q -5.790967,-7.44373 -5.754556,-5.37532" />
      <path d="M -4.179622,-10.796444 Q -5.010523,-8.549094 -5.091907,-6.310024" />
      <path d="M -5.091907,-6.310024 C -5.081851,-6.324973 -5.05423,-6.362565 -5.023095,-6.368749" />
      <path d="M -5.754556,-5.37532 C -5.518198,-5.709021 -5.282105,-6.029989 -5.091907,-6.310024" />
      <path d="M -3.695079,5.052492 Q -3.929371,5.027408 -4.1614,4.996369" />
      <path d="M -4.175651,4.999007 L -4.1614,4.996369" />
      <path d="M -4.1614,4.996369 L -4.168482,4.996623" />
      <path d="M -4.168482,4.996623 C -4.197102,5.002148 -4.219756,5.056157 -4.22841,5.078863" />
      <path d="M -4.22841,5.078863 C -4.404912,5.53954 -4.631215,5.98963 -4.861631,6.401696" />
      <path d="M -8.58923,7.199123 Q -6.398787,6.923843 -4.861631,6.401696" />
      <path d="M -4.861631,6.401696 Q -5.13102,6.357008 -5.396036,6.304693" />
      <path d="M -9.304051,6.993118 Q -7.034944,6.7815 -5.396036,6.304693" />
      <path d="M -6.326465,4.856727 Q -5.999284,4.839604 -5.69217,4.813165" />
      <path d="M -5.69217,4.813165 C -5.694547,4.786549 -5.702482,4.719051 -5.732511,4.711187" />
      <path d="M -6.270086,4.74183 Q -5.994114,4.729882 -5.732511,4.711187" />
      <path d="M -5.396036,6.304693 C -5.536499,5.825305 -5.647322,5.314022 -5.69217,4.813165" />
      <path d="M -9.748437,-9.672346 Q -9.560769,-7.342301 -8.690925,-5.183363" />
      <path d="M -8.690925,-5.183363 Q -8.560195,-5.248407 -8.425684,-5.310978" />
      <path d="M -9.16346,-9.869676 Q -9.127831,-8.695236 -8.916061,-7.559686" />
      <path d="M -9.116821,-9.821939 Q -9.11258,-9.647232 -9.104387,-9.473383" />
      <path d="M -9.104387,-9.473383 L -9.103421,-9.45317" />
      <path d="M -8.818143,-8.796603 Q -8.887427,-6.666022 -8.227969,-4.671626" />
      <path d="M -8.227969,-4.671626 L -8.211589,-4.622444" />
      <path d="M -8.211589,-4.622444 Q -7.98389,-4.714953 -7.748147,-4.800847" />
      <path d="M -8.091075,-8.988561 Q -8.298835,-6.835665 -7.748147,-4.800847" />
      <path d="M -7.125347,-10.34772 Q -7.445879,-8.034488 -7.035198,-5.814259" />
      <path d="M -7.035198,-5.814259 C -7.023725,-5.83044 -6.992645,-5.871391 -6.964127,-5.880988" />
      <path d="M -7.748147,-4.800847 C -7.504615,-5.162006 -7.252242,-5.510923 -7.035198,-5.814259" />
      <path d="M -5.732511,4.711187 Q -5.953034,4.66008 -6.169209,4.603396" />
      <path d="M -6.181362,4.603917 L -6.169209,4.603396" />
      <path d="M -6.169209,4.603396 L -6.175174,4.602817" />
      <path d="M -6.175174,4.602817 C -6.202932,4.604238 -6.229457,4.656204 -6.239681,4.678022" />
      <path d="M -6.239681,4.678022 C -6.446458,5.11677 -6.693212,5.539792 -6.934933,5.924844" />
      <path d="M -11.321454,6.258002 Q -8.852396,6.249327 -6.934933,5.924844" />
      <path d="M -6.934933,5.924844 Q -7.18282,5.850559 -7.423695,5.769298" />
      <path d="M -11.947942,5.97525 Q -9.424606,6.037844 -7.423695,5.769298" />
      <path d="M -8.161566,4.22607 Q -7.865047,4.242476 -7.578423,4.251973" />
      <path d="M -7.578423,4.251973 C -7.578201,4.225234 -7.579299,4.157218 -7.606132,4.146101" />
      <path d="M -8.100602,4.119023 Q -7.849832,4.135059 -7.606132,4.146101" />
      <path d="M -7.423695,5.769298 C -7.521176,5.276296 -7.582755,4.755148 -7.578423,4.251973" />
      <path d="M -12.142717,-8.617907 Q -11.534287,-6.641017 -10.469194,-4.848352" />
      <path d="M -11.640311,-8.877454 L -11.618554,-8.793432" />
      <path d="M -11.523078,-7.830847 Q -11.459891,-7.548795 -11.384791,-7.270609" />
      <path d="M -11.384791,-7.270609 Q -10.891817,-5.444522 -9.885537,-3.78509" />
      <path d="M -9.885537,-3.78509 Q -9.695595,-3.901495 -9.495407,-4.012332" />
      <path d="M -10.879567,-8.101226 Q -10.537827,-5.955996 -9.495407,-4.012332" />
      <path d="M -9.850237,-9.574537 Q -9.647279,-7.254578 -8.761347,-5.108538" />
      <path d="M -8.761347,-5.108538 C -8.748925,-5.126086 -8.715659,-5.170718 -8.690925,-5.183363" />
      <path d="M -9.495407,-4.012332 C -9.254669,-4.4012 -8.99635,-4.779337 -8.761347,-5.108538" />
      <path d="M -7.606132,4.146101 Q -7.803857,4.071063 -7.995328,3.991054" />
      <path d="M -8.006579,3.990274 L -7.995328,3.991054" />
      <path d="M -7.995328,3.991054 L -8.000768,3.989822" />
      <path d="M -8.000768,3.989822 C -8.026155,3.98829 -8.055086,4.037013 -8.066378,4.057583" />
      <path d="M -8.066378,4.057583 C -8.294964,4.47142 -8.552066,4.865613 -8.795197,5.222923" />
      <path d="M -13.661054,5.026683 Q -11.014465,5.310713 -8.795197,5.222923" />
      <path d="M -8.795197,5.222923 Q -9.011433,5.122082 -9.218305,5.015202" />
      <path d="M -14.173562,4.678761 Q -11.499302,5.038748 -9.218305,5.015202" />
      <path d="M -9.741656,3.41326 Q -9.4812,3.453427 -9.225293,3.488624" />
      <path d="M -9.225293,3.488624 C -9.222481,3.462059 -9.216696,3.394311 -9.239236,3.380369" />
      <path d="M -9.677181,3.312224 Q -9.456588,3.348091 -9.239236,3.380369" />
      <path d="M -9.218305,5.015202 C -9.268814,4.513732 -9.278628,3.988499 -9.225293,3.488624" />
      <path d="M -14.11075,-7.313867 Q -13.976934,-7.069008 -13.836669,-6.828074" />
      <path d="M -13.711484,-7.625005 L -13.699078,-7.599813" />
      <path d="M -13.827134,-6.578489 Q -12.820635,-4.529899 -11.225649,-2.775278" />
      <path d="M -11.225649,-2.775278 Q -11.081239,-2.910814 -10.924803,-3.042056" />
      <path d="M -13.293527,-6.916219 Q -12.416277,-4.840737 -10.924803,-3.042056" />
      <path d="M -12.242737,-8.50855 Q -11.524596,-6.241294 -10.199683,-4.221753" />
      <path d="M -10.199683,-4.221753 Q -10.187824,-4.239683 -10.165817,-4.268475" />
      <path d="M -10.924803,-3.042056 C -10.696715,-3.457749 -10.443025,-3.865183 -10.199683,-4.221753" />
      <path d="M -9.239236,3.380369 Q -9.406068,3.284471 -9.564996,3.184414" />
      <path d="M -9.57572,3.182578 L -9.564996,3.184414" />
      <path d="M -9.564996,3.184414 L -9.570063,3.182523" />
      <path d="M -9.570063,3.182523 C -9.592031,3.178982 -9.621887,3.223829 -9.633715,3.242946" />
      <path d="M -9.633715,3.242946 C -9.874752,3.629912 -10.131676,3.994694 -10.366263,4.32467" />
      <path d="M -15.512248,3.555577 Q -12.796479,4.146428 -10.366263,4.32467" />
      <path d="M -10.366263,4.32467 Q -10.541996,4.201402 -10.706396,4.073278" />
      <path d="M -15.889792,3.156729 Q -13.174094,3.825116 -10.706396,4.073278" />
      <path d="M -11.000865,2.447211 L -10.565357,2.554371" />
      <path d="M -10.565357,2.554371 C -10.56007,2.528268 -10.547639,2.461563 -10.564963,2.44534" />
      <path d="M -10.934451,2.350929 L -10.564963,2.44534" />
      <path d="M -10.706396,4.073278 C -10.707864,3.568835 -10.665511,3.045463 -10.565357,2.554371" />
      <path d="M -15.571967,-5.813614 L -15.485924,-5.707622" />
      <path d="M -15.292186,-6.163606 L -15.288075,-6.158099" />
      <path d="M -15.635985,-5.090801 Q -14.142158,-3.185273 -12.177059,-1.634352" />
      <path d="M -12.177059,-1.634352 Q -12.084095,-1.78347 -11.977814,-1.929744" />
      <path d="M -15.234126,-5.482056 Q -13.857282,-3.535548 -11.977814,-1.929744" />
      <path d="M -14.204895,-7.1934 Q -13.979277,-6.78912 -13.735898,-6.395775" />
      <path d="M -11.977814,-1.929744 C -11.80711,-2.294592 -11.614237,-2.65581 -11.41559,-2.987642" />
      <path d="M -10.564963,2.44534 Q -10.694072,2.33251 -10.81395,2.2165" />
      <path d="M -10.824051,2.213741 L -10.81395,2.2165" />
      <path d="M -10.81395,2.2165 L -10.818539,2.213903" />
      <path d="M -10.818539,2.213903 C -10.836385,2.209238 -10.865705,2.249904 -10.877525,2.267462" />
      <path d="M -10.877525,2.267462 C -11.121145,2.626697 -11.367373,2.96269 -11.583811,3.26686" />
      <path d="M -16.799247,1.904912 Q -14.125482,2.804138 -11.583811,3.26686" />
      <path d="M -11.583811,3.26686 Q -11.711847,3.12621 -11.827044,2.982089" />
      <path d="M -17.026371,1.471466 Q -14.380415,2.446633 -11.827044,2.982089" />
      <path d="M -11.886618,1.366648 L -11.543752,1.48746" />
      <path d="M -11.543752,1.48746 C -11.536207,1.462092 -11.51764,1.397161 -11.529037,1.379294" />
      <path d="M -11.820223,1.273854 L -11.529037,1.379294" />
      <path d="M -11.827044,2.982089 C -11.779411,2.480287 -11.686625,1.964648 -11.543752,1.48746" />
      <path d="M -12.344918,-1.039685 L -12.230773,-0.967694" />
      <path d="M -12.230773,-0.967694 Q -12.222186,-1.101801 -12.202794,-1.23555" />
      <path d="M -12.20749,-1.238679 L -12.202794,-1.23555" />
      <path d="M -12.202794,-1.23555 L -12.20347,-1.240111" />
      <path d="M -12.20347,-1.240111 C -12.207897,-1.242904 -12.227935,-1.2147 -12.236682,-1.201794" />
      <path d="M -12.236682,-1.201794 Q -12.528424,-0.778241 -12.700818,-0.409019" />
      <path d="M -16.875575,-3.428689 Q -14.955577,-1.718491 -12.700818,-0.409019" />
      <path d="M -12.700818,-0.409019 Q -12.663105,-0.565614 -12.61133,-0.720932" />
      <path d="M -16.621917,-3.857451 Q -14.801846,-2.093862 -12.61133,-0.720932" />
      <path d="M -15.656382,-5.68293 L -15.540067,-5.542539" />
      <path d="M -12.61133,-0.720932 Q -12.42888,-1.200477 -12.203117,-1.654949" />
      <path d="M -11.529037,1.379294 Q -11.615137,1.25415 -11.691058,1.126937" />
      <path d="M -11.700115,1.123468 L -11.691058,1.126937" />
      <path d="M -11.691058,1.126937 L -11.69487,1.123608" />
      <path d="M -11.69487,1.123608 C -11.708209,1.118694 -11.735608,1.155099 -11.746886,1.171068" />
      <path d="M -11.746886,1.171068 C -11.983115,1.502847 -12.208566,1.811851 -12.397995,2.092799" />
      <path d="M -17.469361,0.142266 Q -14.947065,1.338797 -12.397995,2.092799" />
      <path d="M -12.397995,2.092799 Q -12.473091,1.940526 -12.53437,1.786308" />
      <path d="M -17.536767,-0.308033 Q -15.068879,0.959736 -12.53437,1.786308" />
      <path d="M -12.36141,0.217621 L -12.120423,0.331573" />
      <path d="M -12.120423,0.331573 C -12.110929,0.30718 -12.086985,0.244681 -12.09199,0.225876" />
      <path d="M -12.297358,0.126591 L -12.09199,0.225876" />
      <path d="M -12.53437,1.786308 C -12.439586,1.292654 -12.300166,0.790301 -12.120423,0.331573" />
      <path d="M -12.09199,0.225876 Q -12.131556,0.093542 -12.160411,-0.039666" />
      <path d="M -12.167743,-0.043405 L -12.160411,-0.039666" />
      <path d="M -12.160411,-0.039666 L -12.162979,-0.04369" />
      <path d="M -12.162979,-0.04369 C -12.171737,-0.047977 -12.195972,-0.015756 -12.206207,-0.001351" />
      <path d="M -12.206207,-0.001351 Q -12.539222,0.457949 -12.775482,0.850553" />
      <path d="M -17.495156,-1.660199 Q -15.227591,-0.189603 -12.775482,0.850553" />
      <path d="M -12.775482,0.850553 Q -12.794564,0.692892 -12.799415,0.534889" />
      <path d="M -17.400084,-2.108914 Q -15.211299,-0.574702 -12.799415,0.534889" />
      <path d="M -12.403783,-0.947619 L -12.271761,-0.865969" />
      <path d="M -12.271761,-0.865969 C -12.260706,-0.889186 -12.232365,-0.948694 -12.230773,-0.967694" />
      <path d="M -12.799415,0.534889 C -12.661361,0.054559 -12.481015,-0.429498 -12.271761,-0.865969" />
      <path d="M 8.173482,1.216756 Q 8.060792,0.985259 7.936764,0.7565" />
      <path d="M 7.265367,2.298247 Q 7.163009,2.054445 7.050352,1.812143" />
      <path d="M 5.988928,3.254742 Q 5.901093,3.000058 5.80442,2.745779" />
      <path d="M 4.396424,4.047084 Q 4.326707,3.783385 4.249975,3.519185" />
      <path d="M 2.553051,4.642834 Q 2.504307,4.372357 2.450658,4.100697" />
      <path d="M 0.534278,5.017601 L 0.480132,4.466507" />
      <path d="M -1.577248,5.156043 L -1.580929,4.60164" />
      <path d="M -3.695079,5.052492 L -3.648145,4.500564" />
      <path d="M -5.732511,4.711187 Q -5.686988,4.439932 -5.636884,4.167416" />
      <path d="M -7.606132,4.146101 Q -7.539292,3.881275 -7.465726,3.615835" />
      <path d="M -9.239236,3.380369 Q -9.153815,3.124255 -9.0598,2.868403" />
      <path d="M -10.564963,2.44534 Q -10.464459,2.199864 -10.353843,1.955721" />
      <path d="M -11.529037,1.379294 Q -11.417565,1.145947 -11.294876,0.915153" />
      <path d="M -12.230773,-0.967694 Q -12.111317,-1.174338 -11.979841,-1.375743" />
      <path d="M -12.09199,0.225876 Q -11.974112,0.005652 -11.844374,-0.210699" />
      <path d="M 4.257844,5.829454 C 4.408022,6.062908 4.50135,6.266498 4.521391,6.322266 C 4.525598,6.333287 4.52775,6.339045 4.527847,6.339541" />
      <path d="M 4.988658,4.997537 L 5.03132,5.041674" />
      <path d="M 8.96741,5.900084 Q 10.159614,5.765911 11.292683,5.497638" />
      <path d="M 13.410765,7.58768 C 12.236748,7.825362 11.023088,7.934233 9.791662,7.922484 C 9.334369,7.918133 8.874699,7.897845 8.412653,7.861621" />
      <path d="M 11.795433,11.817095 C 10.072261,11.641255 8.379411,11.243753 6.766444,10.60527" />
      <path d="M 10.061095,14.195042 Q 9.490304,14.021985 8.937964,13.822893" />
      <path d="M 2.453787,11.029364 Q 2.580635,11.273394 2.708181,11.510841" />
      <path d="M 11.938143,-6.104683 Q 12.306454,-5.571905 12.632476,-5.012307" />
      <path d="M -15.399936,-6.105773 Q -15.768922,-5.572142 -16.094537,-5.012472 Q -16.391251,-4.502852 -16.651581,-3.973111" />
      <path d="M 4.265152,5.840956 Q 4.195368,6.317813 4.08467,6.790057" />
      <path d="M 2.069225,4.957468 C 2.008082,5.530816 1.870748,6.108598 1.692657,6.673492" />
      <path d="M -0.483054,-7.311224 C -0.493301,-7.295575 -0.515703,-7.25909 -0.55026,-7.201769 C -0.632682,-7.064367 -0.764473,-6.829691 -0.900634,-6.552298" />
      <path d="M -1.440702,-10.364866 C -1.48404,-10.296317 -1.598796,-10.106732 -1.730447,-9.855564" />
      <path d="M -6.527596,-6.124222 L -6.50786,-5.955206" />
      <path d="M -9.103421,-9.45317 L -9.104387,-9.473383" />
      <path d="M -9.103421,-9.45317 C -9.026384,-7.830527 -8.736431,-6.204089 -8.227969,-4.671626" />
      <path d="M -11.568301,-8.004028 Q -11.483247,-7.635413 -11.384791,-7.270609" />
    </g>
  </g>
</svg>