<?xml version='1.0' encoding='utf-8'?>
<svg width="100.090001mm" height="85.537447mm" viewBox="-17.551421 -15.682687 31.666604 27.062448" version="1.1" xmlns="http://www.w3.org/2000/svg">
  <g transform="scale(1,-1)" stroke-linecap="round">
    <g fill="none" stroke="rgb(0,0,0)" stroke-width="0.028474316346187065" id="Visible">
      <path d="M 11.874917,3.306655 Q 12.052429,3.37327 12.216282,3.465211" />
      <path d="M 12.216282,3.465211 C 12.275153,3.793814 12.304083,4.150122 12.287238,4.500374 C 12.280092,4.662904 12.259608,4.818552 12.225785,4.96732" />
      <path d="M 12.225785,4.96732 Q 12.151749,5.144533 12.100575,5.342413" />
      <path d="M 13.40273,4.861264 Q 13.485511,5.05953 13.548676,5.276112" />
      <path d="M 13.548676,5.276112 C 13.49372,5.617498 13.410024,5.965731 13.298504,6.277103 C 13.247094,6.422164 13.189686,6.550986 13.12628,6.663567" />
      <path d="M 13.12628,6.663567 C 13.072948,6.724684 13.020317,6.795484 12.968387,6.875969 C 12.924517,6.943702 12.884203,7.020064 12.847444,7.105055 C 12.805739,7.203067 12.773949,7.319035 12.783039,7.39824" />
      <path d="M 12.783039,7.39824 Q 12.800913,7.554137 12.806797,7.71777" />
      <path d="M 13.396418,7.590034 C 13.515253,7.562997 13.613647,7.591 13.688346,7.649503" />
      <path d="M 13.688346,7.649503 Q 13.654216,7.926294 13.599767,8.209483" />
      <path d="M 13.599767,8.209483 C 13.467586,8.484922 13.316495,8.745054 13.162281,8.946987 C 13.090602,9.041664 13.021617,9.114945 12.955327,9.166831" />
      <path d="M 12.955327,9.166831 C 12.912601,9.17538 12.865568,9.195755 12.814227,9.227955 C 12.770949,9.254894 12.725136,9.295093 12.676789,9.348551 C 12.621327,9.410852 12.561867,9.502891 12.533137,9.5966" />
      <path d="M 12.533137,9.5966 Q 12.45398,9.854677 12.353727,10.112262" />
      <path d="M 12.353727,10.112262 C 12.30125,10.249094 12.328551,10.331631 12.371817,10.359264" />
      <path d="M 12.54271,10.352778 C 12.632085,10.379652 12.667206,10.507047 12.673387,10.654037 C 12.676233,10.73687 12.670183,10.826946 12.655236,10.924264" />
      <path d="M 12.655236,10.924264 Q 12.513339,11.205415 12.355866,11.479331" />
      <path d="M 12.355866,11.479331 C 12.305298,11.528816 12.254995,11.573897 12.204958,11.614574 C 12.057669,11.733599 11.907755,11.820908 11.800919,11.81677" />
      <path d="M 11.461675,11.792207 Q 11.439935,11.815794 11.419475,11.844473" />
      <path d="M 11.419475,11.844473 Q 11.257371,12.07333 11.082198,12.286809" />
      <path d="M 11.082198,12.286809 C 11.03383,12.345718 10.996603,12.417464 10.97503,12.479614 C 10.956003,12.535969 10.945233,12.585822 10.942722,12.629172 C 10.936597,12.718919 10.954871,12.778821 10.983045,12.823671" />
      <path d="M 10.983045,12.823671 C 10.981432,12.972637 10.89855,13.198409 10.789554,13.424661 C 10.728221,13.551113 10.658443,13.678918 10.58022,13.808078" />
      <path d="M 10.58022,13.808078 Q 10.368577,14.018254 10.150275,14.209503" />
      <path d="M 10.150275,14.209503 Q 10.111613,14.207842 10.076302,14.198811" />
      <path d="M 9.171332,13.942989 C 9.079005,14.06216 9.018163,14.186921 8.977107,14.292629 C 8.956057,14.347858 8.939092,14.400643 8.926211,14.450986" />
      <path d="M 8.926211,14.450986 C 8.814201,14.670569 8.614229,14.921819 8.398238,15.154464 C 8.277524,15.283873 8.15121,15.408462 8.019297,15.52823" />
      <path d="M 8.019297,15.52823 Q 7.794618,15.611115 7.57398,15.66845" />
      <path d="M 6.649306,15.042301 C 6.347105,15.27626 5.998424,15.472288 5.658664,15.623806" />
      <path d="M 5.658664,15.623806 Q 5.481151,15.55719 5.317298,15.465249" />
      <path d="M 4.263536,14.068328 L 4.130851,14.069196" />
      <path d="M 8.17142,3.287956 C 8.065748,3.30542 7.956388,3.324244 7.843307,3.344123" />
      <path d="M 7.719292,3.29757 Q 7.782444,3.318611 7.843307,3.344123" />
      <path d="M 7.590896,3.260027 Q 7.656145,3.276532 7.719292,3.29757" />
      <path d="M 8.066455,3.203825 C 7.917329,3.218117 7.758878,3.237254 7.590896,3.260027" />
      <path d="M 8.578541,4.365346 C 8.361883,4.369593 8.134511,4.377293 7.896264,4.386666" />
      <path d="M 7.843307,3.344123 C 7.898286,3.579767 7.931586,3.844489 7.925422,4.10158 C 7.923268,4.201038 7.913548,4.296067 7.896264,4.386666" />
      <path d="M 8.19585,5.013654 C 8.077915,5.008044 7.957723,5.002796 7.835256,4.997721" />
      <path d="M 7.896264,4.386666 C 7.86739,4.464176 7.843122,4.544701 7.823459,4.628243 C 7.807733,4.694855 7.798219,4.761115 7.794917,4.827022 C 7.79172,4.902789 7.803326,4.972986 7.835256,4.997721" />
      <path d="M 8.081569,5.162886 C 8.057311,5.162452 8.032974,5.162014 8.008559,5.161571" />
      <path d="M 7.835256,4.997721 Q 7.928417,5.070333 8.008559,5.161571" />
      <path d="M 8.008559,5.161571 Q 8.022715,5.177114 8.041166,5.177251" />
      <path d="M 8.041166,5.177251 C 8.087072,5.177246 8.140968,5.111983 8.18305,5.03715 C 8.227816,4.955262 8.265078,4.864044 8.294834,4.763496" />
      <path d="M 11.874917,3.306655 C 11.09498,3.534668 10.043723,3.901415 8.755685,4.206733" />
      <path d="M 8.294834,4.763496 C 8.426166,4.500808 8.608546,4.320762 8.755685,4.206733" />
      <path d="M 12.216282,3.465211 C 11.356077,3.762047 10.228487,4.164835 8.878017,4.476939" />
      <path d="M 8.755685,4.206733 Q 8.823534,4.334996 8.878017,4.476939" />
      <path d="M 12.225785,4.96732 C 11.218223,5.130206 10.00313,5.352071 8.615193,5.471098" />
      <path d="M 8.878017,4.476939 C 8.847534,4.729636 8.793215,4.996134 8.715294,5.229005 C 8.685278,5.319276 8.651911,5.399974 8.615193,5.471098" />
      <path d="M 9.384698,5.988775 C 9.062176,5.998903 8.730591,6.004935 8.390325,6.004808" />
      <path d="M 8.615193,5.471098 C 8.57612,5.520564 8.538197,5.577127 8.501424,5.640788 C 8.472072,5.691518 8.445994,5.747192 8.42319,5.807812 C 8.397313,5.877971 8.380995,5.955069 8.390325,6.004808" />
      <path d="M 8.587731,6.308376 C 8.534718,6.308191 8.481526,6.307838 8.428157,6.307311" />
      <path d="M 8.390325,6.004808 Q 8.417391,6.150369 8.428157,6.307311" />
      <path d="M 8.428157,6.307311 Q 8.435477,6.373529 8.477481,6.372061" />
      <path d="M 8.477481,6.372061 C 8.54667,6.36761 8.630656,6.272432 8.702202,6.16681" />
      <path d="M 13.40273,4.861264 C 12.94583,5.048068 12.460004,5.227525 11.94916,5.39178" />
      <path d="M 11.94916,5.39178 C 11.060668,5.677461 10.096494,5.917151 9.077193,6.069508" />
      <path d="M 8.702202,6.16681 C 8.78451,6.08777 8.865679,6.056708 8.934948,6.048084" />
      <path d="M 8.934948,6.048084 Q 9.016627,6.039626 9.077193,6.069508" />
      <path d="M 13.548676,5.276112 C 12.216633,5.807245 10.684282,6.249886 9.036668,6.453422" />
      <path d="M 9.077193,6.069508 Q 9.064113,6.258623 9.036668,6.453422" />
      <path d="M 13.12628,6.663567 C 11.737005,6.971199 10.206026,7.18005 8.596078,7.172185" />
      <path d="M 9.036668,6.453422 C 8.94496,6.664823 8.834704,6.871665 8.722143,7.027376 C 8.678581,7.087927 8.63656,7.136197 8.596078,7.172185" />
      <path d="M 12.783039,7.39824 C 11.382829,7.564153 9.873108,7.633279 8.301691,7.505399" />
      <path d="M 8.596078,7.172185 C 8.562783,7.183561 8.526687,7.204105 8.487791,7.233818 C 8.456769,7.257454 8.424867,7.289812 8.392085,7.330891 C 8.35437,7.378916 8.317468,7.443988 8.301691,7.505399" />
      <path d="M 11.031962,7.973747 C 10.108162,8.0021 9.158526,7.9725 8.193916,7.865499" />
      <path d="M 8.301691,7.505399 Q 8.25541,7.684907 8.193916,7.865499" />
      <path d="M 8.193916,7.865499 C 8.156322,7.978675 8.196239,8.028787 8.242486,8.030972" />
      <path d="M 8.242486,8.030972 Q 8.290017,8.033725 8.348212,8.000363" />
      <path d="M 13.688346,7.649503 C 12.016434,8.142315 10.245975,8.40446 8.469272,8.349222" />
      <path d="M 8.348212,8.000363 L 8.349578,8.00045" />
      <path d="M 8.349578,8.00045 C 8.452401,8.014473 8.481787,8.177784 8.469272,8.349222" />
      <path d="M 13.599767,8.209483 C 11.868735,8.667126 10.064214,8.86908 8.276749,8.743974" />
      <path d="M 8.469272,8.349222 Q 8.378769,8.548517 8.276749,8.743974" />
      <path d="M 12.955327,9.166831 C 12.720893,9.194365 12.485853,9.217556 12.250369,9.23627" />
      <path d="M 12.250369,9.23627 C 10.881974,9.345019 9.498588,9.302621 8.132175,9.083095" />
      <path d="M 8.132175,9.083095 C 8.038845,9.068101 7.945594,9.05228 7.852433,9.035625" />
      <path d="M 8.276749,8.743974 C 8.164458,8.866795 8.044936,8.968535 7.944132,9.014821 C 7.907069,9.032046 7.875097,9.038771 7.848215,9.034996" />
      <path d="M 7.848215,9.034996 L 7.844041,9.034122" />
      <path d="M 12.533137,9.5966 C 10.883875,9.645481 9.222628,9.492481 7.593105,9.097412" />
      <path d="M 7.844041,9.034122 Q 7.822499,8.989564 7.777353,8.978203" />
      <path d="M 7.777353,8.978203 C 7.735901,8.967683 7.659344,8.996605 7.593105,9.097412" />
      <path d="M 12.353727,10.112262 C 10.666987,10.107722 8.992179,9.885121 7.368601,9.418621" />
      <path d="M 7.593105,9.097412 Q 7.485877,9.262768 7.368601,9.418621" />
      <path d="M 12.54271,10.352778 C 11.628571,10.391801 10.720605,10.361196 9.825757,10.258678" />
      <path d="M 9.825757,10.258678 C 8.979383,10.161714 8.144744,10.000417 7.327715,9.772856" />
      <path d="M 7.368601,9.418621 C 7.302576,9.507057 7.281427,9.60717 7.285962,9.665371 C 7.290298,9.715009 7.304216,9.750837 7.327715,9.772856" />
      <path d="M 12.655236,10.924264 C 10.726896,11.100666 8.850981,10.936195 7.094815,10.435028" />
      <path d="M 7.327715,9.772856 C 7.33674,9.871223 7.284211,10.037038 7.210299,10.203618 C 7.176189,10.280136 7.137695,10.357273 7.094815,10.435028" />
      <path d="M 12.355866,11.479331 C 10.405604,11.575389 8.534429,11.320606 6.80188,10.734845" />
      <path d="M 7.094815,10.435028 Q 6.951138,10.591101 6.80188,10.734845" />
      <path d="M 6.80188,10.734845 Q 6.730763,10.744126 6.672472,10.722662" />
      <path d="M 6.672472,10.722662 C 6.612951,10.699443 6.562842,10.650993 6.56059,10.558005" />
      <path d="M 11.419475,11.844473 C 11.118397,11.800684 10.820118,11.749562 10.524714,11.691225" />
      <path d="M 6.58471,10.41502 C 6.541197,10.394947 6.497771,10.374696 6.454431,10.354269" />
      <path d="M 6.56059,10.558005 C 6.589548,10.457117 6.600841,10.356599 6.547204,10.327388" />
      <path d="M 6.547204,10.327388 Q 6.514403,10.311 6.454431,10.354269" />
      <path d="M 11.082198,12.286809 C 9.32669,11.946287 7.688411,11.355582 6.173353,10.550519" />
      <path d="M 6.454431,10.354269 Q 6.314989,10.461165 6.173353,10.550519" />
      <path d="M 10.983045,12.823671 C 9.146058,12.493142 7.453082,11.870537 5.914153,11.009352" />
      <path d="M 6.173353,10.550519 C 6.093163,10.601772 6.019139,10.718254 5.979834,10.806205 C 5.946557,10.881603 5.924664,10.949319 5.914153,11.009352" />
      <path d="M 10.58022,13.808078 C 8.628078,13.455334 6.871356,12.74638 5.322106,11.768035" />
      <path d="M 5.914153,11.009352 C 5.843402,11.165284 5.700624,11.357102 5.544849,11.533748 C 5.473349,11.614591 5.399101,11.692687 5.322106,11.768035" />
      <path d="M 10.150275,14.209503 C 9.76622,14.118662 9.39073,14.014038 9.023809,13.896406" />
      <path d="M 9.023809,13.896406 C 7.545887,13.422597 6.206977,12.737751 5.00725,11.892582" />
      <path d="M 5.322106,11.768035 Q 5.163753,11.839067 5.00725,11.892582" />
      <path d="M 5.00725,11.892582 C 4.979565,11.761681 4.980266,11.566331 5.089624,11.335509" />
      <path d="M 5.249027,10.983961 C 5.229579,10.969071 5.210162,10.954149 5.190776,10.939195" />
      <path d="M 5.089624,11.335509 C 5.136166,11.271464 5.174668,11.208586 5.20513,11.146875 C 5.24485,11.065194 5.268524,10.977324 5.230834,10.946965" />
      <path d="M 5.230834,10.946965 Q 5.216356,10.935809 5.190776,10.939195" />
      <path d="M 5.190193,11.176344 C 5.102243,11.104128 5.014996,11.031306 4.92844,10.957902" />
      <path d="M 5.190776,10.939195 Q 5.056483,10.95899 4.92844,10.957902" />
      <path d="M 8.926211,14.450986 C 7.567684,13.794806 6.358087,12.985681 5.273582,12.076012" />
      <path d="M 4.997684,11.840116 C 4.823969,11.688742 4.653538,11.534805 4.486288,11.378532" />
      <path d="M 4.92844,10.957902 C 4.855505,10.958202 4.741071,11.055548 4.661223,11.145467 C 4.59306,11.222817 4.534748,11.300506 4.486288,11.378532" />
      <path d="M 8.019297,15.52823 C 6.282358,14.575386 4.837538,13.349977 3.62614,11.991066" />
      <path d="M 4.486288,11.378532 C 4.34027,11.54183 4.12936,11.698852 3.917665,11.829032 C 3.820743,11.888349 3.723568,11.94236 3.62614,11.991066" />
      <path d="M 7.57398,15.66845 C 5.895595,14.615831 4.519251,13.314055 3.37373,11.90697" />
      <path d="M 3.62614,11.991066 Q 3.495543,11.958024 3.37373,11.90697" />
      <path d="M 3.37373,11.90697 C 3.464956,11.679948 3.607055,11.395764 3.825287,11.158304" />
      <path d="M 4.152016,10.708367 C 4.148254,10.704065 4.144494,10.699763 4.140736,10.695461" />
      <path d="M 3.825287,11.158304 C 3.895274,11.104743 3.959254,11.04735 4.017227,10.986124 C 4.108861,10.889831 4.192997,10.75744 4.146936,10.70138" />
      <path d="M 4.146936,10.70138 L 4.140736,10.695461" />
      <path d="M 4.157718,10.764484 C 4.093759,10.686935 4.030338,10.609304 3.967434,10.531611" />
      <path d="M 4.140736,10.695461 Q 4.047576,10.622849 3.967434,10.531611" />
      <path d="M 3.754501,11.238905 C 3.64317,11.086552 3.533955,10.934023 3.426716,10.781475" />
      <path d="M 3.967434,10.531611 C 3.921232,10.48084 3.789681,10.528674 3.683451,10.592254 C 3.592474,10.647224 3.506896,10.710297 3.426716,10.781475" />
      <path d="M 5.658664,15.623806 C 4.344667,14.189522 3.334935,12.647267 2.5108,11.135442" />
      <path d="M 2.5108,11.135442 C 2.494243,11.105069 2.47776,11.074708 2.461352,11.04436" />
      <path d="M 3.426716,10.781475 C 3.138359,10.952696 2.774305,11.026917 2.461352,11.04436" />
      <path d="M 5.317298,15.465249 C 4.333344,14.269067 3.540032,13.02437 2.872647,11.799421" />
      <path d="M 2.461352,11.04436 Q 2.393503,10.916097 2.339019,10.774154" />
      <path d="M 2.339019,10.774154 C 2.489449,10.591325 2.671609,10.399295 2.870721,10.237017 C 2.947566,10.174024 3.026112,10.119642 3.106358,10.073872" />
      <path d="M 3.106358,10.073872 C 3.186544,10.048355 3.264179,10.014924 3.339262,9.973578 C 3.399156,9.94064 3.453243,9.90128 3.501522,9.855499 C 3.556563,9.802329 3.59504,9.738138 3.585668,9.688374" />
      <path d="M 3.585668,9.688374 Q 3.558602,9.542813 3.547835,9.385872" />
      <path d="M 3.327529,9.980078 C 3.222668,9.77689 3.120088,9.576159 3.019348,9.378161" />
      <path d="M 3.547835,9.385872 Q 3.54615,9.364901 3.535936,9.348237" />
      <path d="M 3.535936,9.348237 C 3.500276,9.291056 3.402274,9.282343 3.308511,9.294798 C 3.212906,9.309052 3.116519,9.33684 3.019348,9.378161" />
      <path d="M 4.130851,14.069196 C 4.009993,13.826192 3.894212,13.584765 3.783046,13.345207" />
      <path d="M 2.604376,10.480001 C 2.439638,10.033585 2.286099,9.599957 2.139844,9.181585" />
      <path d="M 3.019348,9.378161 C 2.71434,9.42405 2.396182,9.319173 2.139844,9.181585" />
      <path d="M 2.139844,9.181585 Q 2.152923,8.992469 2.180368,8.797671" />
      <path d="M 2.180368,8.797671 C 2.392023,8.656138 2.63012,8.523763 2.863873,8.438646 C 2.954263,8.405373 3.041463,8.383419 3.125472,8.372785" />
      <path d="M 3.125472,8.372785 C 3.199881,8.385358 3.275688,8.387946 3.352895,8.380549 C 3.414459,8.374703 3.47437,8.358661 3.532627,8.332421 C 3.599507,8.301383 3.658568,8.24922 3.674302,8.187783" />
      <path d="M 3.674302,8.187783 Q 3.720583,8.008276 3.782076,7.827683" />
      <path d="M 3.666135,8.210847 C 3.568417,7.981249 3.471159,7.759096 3.373338,7.544608" />
      <path d="M 3.782076,7.827683 Q 3.801273,7.764626 3.770479,7.710874" />
      <path d="M 3.770479,7.710874 Q 3.724663,7.637767 3.636868,7.600751 Q 3.515659,7.54992 3.373338,7.544608" />
      <path d="M 3.133896,8.37407 C 3.00421,7.84248 2.878877,7.351132 2.747764,6.901871" />
      <path d="M 3.373338,7.544608 C 3.19355,7.475754 3.037425,7.319601 2.90756,7.148244 C 2.848663,7.069481 2.795398,6.987357 2.747764,6.901871" />
      <path d="M 2.747764,6.901871 Q 2.838268,6.702576 2.940288,6.507118" />
      <path d="M 2.940288,6.507118 C 3.172524,6.454166 3.419888,6.426893 3.641884,6.451201 C 3.727874,6.460218 3.806416,6.480101 3.877509,6.510848" />
      <path d="M 3.877509,6.510848 C 3.93171,6.561351 3.990698,6.602364 4.054474,6.633887 C 4.105304,6.659083 4.158738,6.672842 4.214776,6.675163 C 4.279482,6.676851 4.346269,6.652421 4.382888,6.59577" />
      <path d="M 4.382888,6.59577 Q 4.490115,6.430415 4.607392,6.274561" />
      <path d="M 4.640005,6.19655 C 4.560873,6.047991 4.479039,5.906571 4.393835,5.772115" />
      <path d="M 4.607392,6.274561 C 4.641616,6.229144 4.649713,6.166364 4.638797,6.10785 C 4.625943,6.046231 4.601314,5.990446 4.564909,5.940493" />
      <path d="M 4.564909,5.940493 Q 4.492941,5.841665 4.393835,5.772115" />
      <path d="M 4.594633,6.291584 C 4.578927,6.217956 4.562854,6.145893 4.546366,6.075376" />
      <path d="M 4.393835,5.772115 L 4.362367,5.72562" />
      <path d="M 4.362367,5.72562 C 4.217379,5.483616 4.151119,5.136181 4.122222,4.816065" />
      <path d="M 4.122222,4.816065 Q 4.265899,4.659992 4.415157,4.516248" />
      <path d="M 5.162059,4.98809 C 5.161693,4.987715 5.161327,4.987341 5.160961,4.986966" />
      <path d="M 4.415157,4.516248 C 4.659575,4.587059 4.908842,4.706203 5.083935,4.889278" />
      <path d="M 5.083935,4.889278 Q 5.127064,4.935106 5.160961,4.986966" />
      <path d="M 5.160961,4.986966 C 5.202041,5.10993 5.255158,5.226168 5.337347,5.304828" />
      <path d="M 5.337347,5.304828 C 5.391876,5.35709 5.464229,5.382995 5.521562,5.338913" />
      <path d="M 5.521562,5.338913 Q 5.661004,5.232017 5.802639,5.142663" />
      <path d="M 5.802639,5.142663 C 5.882345,5.091127 5.901359,4.942603 5.886667,4.823199 C 5.873733,4.720883 5.84731,4.625023 5.807397,4.535619" />
      <path d="M 5.807397,4.535619 C 5.770291,4.31686 5.792601,4.05487 5.830469,3.809543 C 5.848304,3.69744 5.869791,3.588612 5.894931,3.483058" />
      <path d="M 6.236461,3.36642 C 6.227624,3.363738 6.218732,3.361101 6.209787,3.358511" />
      <path d="M 5.894931,3.483058 Q 6.053283,3.412026 6.209787,3.358511" />
      <path d="M 6.859591,4.278302 C 6.785864,4.253709 6.71,4.230807 6.631927,4.209461" />
      <path d="M 6.209787,3.358511 C 6.403268,3.585988 6.58428,3.887185 6.631927,4.209461" />
      <path d="M 6.631927,4.209461 C 6.626498,4.297455 6.627707,4.383465 6.635555,4.467492 C 6.647639,4.590992 6.68496,4.727883 6.758255,4.751894" />
      <path d="M 6.758255,4.751894 Q 6.771404,4.755843 6.785216,4.753987" />
      <path d="M 6.785216,4.753987 Q 6.919509,4.734193 7.047553,4.73528" />
      <path d="M 7.047553,4.73528 C 7.120002,4.734698 7.179427,4.605309 7.205278,4.483936 C 7.22723,4.379669 7.237225,4.273836 7.235262,4.166439" />
      <path d="M 7.235262,4.166439 C 7.293715,3.836552 7.448784,3.511473 7.590896,3.260027" />
      <path d="M 7.341975,5.346318 A 2.8637893902790856,1.7027846362760337 -59.77932744410501 0,0 4.843637,10.468967 A 2.8637893902790856,1.7027846362760337 -59.77932744410501 0,0 7.341975,5.346318" />
      <path d="M 14.098571,-0.676552 Q 14.095108,-0.564061 14.086599,-0.451666" />
      <path d="M 13.43472,-0.501804 Q 13.657418,0.18121 13.801657,0.893118" />
      <path d="M 13.801657,0.893118 Q 13.724257,1.113905 13.627146,1.332212" />
      <path d="M 12.614584,1.129982 Q 12.788037,1.862904 12.866926,2.617195" />
      <path d="M 12.866926,2.617195 Q 12.712121,2.824695 12.538897,3.027534" />
      <path d="M 11.205599,2.557593 Q 11.276101,3.015735 11.307565,3.479379" />
      <path d="M 2.776298,7.000611 Q 2.436087,6.349072 2.156665,5.645351" />
      <path d="M 2.156665,5.645351 L 2.093877,5.654733" />
      <path d="M 0.789874,7.963939 Q 0.395022,7.99978 -0.002543,8.02436" />
      <path d="M -0.002543,8.02436 Q -0.281225,7.464603 -0.514695,6.871593" />
      <path d="M -2.408167,8.069521 Q -2.807759,8.059906 -3.205979,8.038953" />
      <path d="M -3.205979,8.038953 Q -3.384703,7.602761 -3.533742,7.151318" />
      <path d="M -5.578517,7.810721 Q -5.96649,7.756044 -6.349062,7.690416" />
      <path d="M -6.349062,7.690416 Q -6.472826,7.300226 -6.571484,6.901414" />
      <path d="M -8.591381,7.198135 Q -8.951851,7.100634 -9.303113,6.993019" />
      <path d="M -9.303113,6.993019 Q -9.387134,6.613839 -9.446693,6.229647" />
      <path d="M -11.323413,6.256842 Q -11.641622,6.12051 -11.947193,5.975312" />
      <path d="M -11.947193,5.975312 Q -11.995571,5.585562 -12.017817,5.193643" />
      <path d="M -13.662762,5.02538 Q -13.925683,4.855796 -14.173053,4.678961" />
      <path d="M -14.173053,4.678961 Q -14.183766,4.262605 -14.164872,3.847243" />
      <path d="M -15.513656,3.554163 Q -15.710524,3.358272 -15.889566,3.157039" />
      <path d="M -15.889566,3.157039 Q -15.856291,2.700239 -15.788308,2.248817" />
      <path d="M -16.800318,1.903425 Q -16.923074,1.689246 -17.026457,1.471853" />
      <path d="M -17.026457,1.471853 Q -16.939136,0.960817 -16.810515,0.461909" />
      <path d="M -17.470073,0.140746 Q -17.513691,-0.082953 -17.537183,-0.307605" />
      <path d="M -17.537183,-0.307605 Q -17.381678,-0.888835 -17.177151,-1.446979" />
      <path d="M -17.4955,-1.66171 Q -17.458195,-1.885769 -17.400834,-2.108484" />
      <path d="M -17.400834,-2.108484 Q -17.157337,-2.781434 -16.857068,-3.412669" />
      <path d="M -16.653252,-3.971347 Q -16.789419,-3.693831 -16.875559,-3.430149" />
      <path d="M -16.875559,-3.430149 Q -16.758857,-3.645397 -16.622993,-3.857055" />
      <path d="M -16.622993,-3.857055 C -16.313328,-4.542537 -15.964434,-5.193842 -15.590025,-5.790649" />
      <path d="M -15.590025,-5.790649 Q -15.440616,-5.991172 -15.273091,-6.187109" />
      <path d="M -15.273091,-6.187109 Q -15.572892,-5.618615 -15.63563,-5.092171" />
      <path d="M -15.63563,-5.092171 Q -15.44431,-5.289795 -15.235503,-5.481733" />
      <path d="M -15.235503,-5.481733 C -14.888654,-6.129651 -14.516143,-6.739679 -14.136838,-7.293361" />
      <path d="M -14.136838,-7.293361 Q -13.918749,-7.472856 -13.684555,-7.645808" />
      <path d="M -13.684555,-7.645808 Q -13.879713,-7.105634 -13.826476,-6.579734" />
      <path d="M -13.826476,-6.579734 Q -13.56837,-6.751643 -13.29517,-6.916002" />
      <path d="M -13.29517,-6.916002 C -12.925337,-7.522913 -12.544459,-8.089834 -12.175787,-8.600719" />
      <path d="M -12.175787,-8.600719 Q -11.897946,-8.751838 -11.60667,-8.894724" />
      <path d="M -11.60667,-8.894724 Q -11.668423,-8.513468 -11.593993,-8.126254" />
      <path d="M -11.593993,-8.126254 Q -11.566553,-7.979952 -11.522164,-7.831936" />
      <path d="M -11.522164,-7.831936 Q -11.207839,-7.971092 -10.88143,-8.101143" />
      <path d="M -10.88143,-8.101143 C -10.503755,-8.665284 -10.130103,-9.189033 -9.787158,-9.659201" />
      <path d="M -9.787158,-9.659201 Q -9.460939,-9.775758 -9.124507,-9.882728" />
      <path d="M -9.124507,-9.882728 C -9.106387,-9.534355 -8.995491,-9.174056 -8.817032,-8.797511" />
      <path d="M -8.817032,-8.797511 Q -8.459358,-8.898218 -8.093103,-8.988636" />
      <path d="M -8.093103,-8.988636 C -7.723047,-9.509994 -7.371919,-9.992273 -7.06874,-10.425472" />
      <path d="M -7.06874,-10.425472 Q -6.7075,-10.502694 -6.339685,-10.56937" />
      <path d="M -6.339685,-10.56937 C -6.245615,-10.214577 -6.063638,-9.837521 -5.82183,-9.43693" />
      <path d="M -5.82183,-9.43693 Q -5.435448,-9.495063 -5.044343,-9.542148" />
      <path d="M -5.044343,-9.542148 C -4.697057,-10.022461 -4.382827,-10.466671 -4.131827,-10.868161" />
      <path d="M -4.131827,-10.868161 Q -3.750355,-10.902888 -3.366214,-10.926538" />
      <path d="M -3.366214,-10.926538 C -3.200047,-10.556856 -2.95444,-10.155335 -2.659181,-9.724014" />
      <path d="M -2.659181,-9.724014 Q -2.25991,-9.737194 -1.859966,-9.739017" />
      <path d="M -1.859966,-9.739017 L -1.81862,-9.798213" />
      <path d="M -1.81862,-9.798213 C -1.526184,-10.21837 -1.276764,-10.609643 -1.096656,-10.969144" />
      <path d="M -1.096656,-10.969144 Q -0.710568,-10.959953 -0.32583,-10.939611" />
      <path d="M -0.32583,-10.939611 C -0.094367,-10.547177 0.204815,-10.114485 0.541436,-9.647009" />
      <path d="M 0.541436,-9.647009 Q 0.937249,-9.614698 1.329659,-9.571184" />
      <path d="M 1.329659,-9.571184 C 1.590266,-9.981207 1.794142,-10.365508 1.912513,-10.724288" />
      <path d="M 1.912513,-10.724288 Q 2.287409,-10.671555 2.656994,-10.608053" />
      <path d="M 2.656994,-10.608053 C 2.944276,-10.185938 3.284784,-9.716644 3.648987,-9.20907" />
      <path d="M 3.648987,-9.20907 Q 4.025138,-9.132588 4.393947,-9.04552" />
      <path d="M 4.393947,-9.04552 C 4.594195,-9.429174 4.729133,-9.794089 4.772484,-10.143616" />
      <path d="M 4.772484,-10.143616 Q 5.12084,-10.049501 5.460141,-9.945438" />
      <path d="M 5.460141,-9.945438 C 5.791481,-9.487927 6.159375,-8.9781 6.536248,-8.428124" />
      <path d="M 6.536248,-8.428124 Q 6.877338,-8.310604 7.207448,-8.183545" />
      <path d="M 7.207448,-8.183545 C 7.339137,-8.548207 7.399613,-8.901941 7.366169,-9.250901" />
      <path d="M 7.366169,-9.250901 Q 7.673724,-9.119256 7.968849,-8.978893" />
      <path d="M 7.968849,-8.978893 C 8.330682,-8.481721 8.710901,-7.92909 9.085016,-7.336143" />
      <path d="M 9.085016,-7.336143 Q 9.377079,-7.182397 9.654975,-7.02055" />
      <path d="M 9.654975,-7.02055 Q 9.746136,-7.54916 9.587383,-8.082691" />
      <path d="M 9.587383,-8.082691 Q 9.841545,-7.918906 10.080413,-7.74799" />
      <path d="M 10.080413,-7.74799 C 10.457925,-7.208515 10.834902,-6.612558 11.190942,-5.977835" />
      <path d="M 11.190942,-5.977835 Q 11.422022,-5.794155 11.636327,-5.604146" />
      <path d="M 11.636327,-5.604146 Q 11.611706,-6.12895 11.345189,-6.686812" />
      <path d="M 11.345189,-6.686812 Q 11.535553,-6.497594 11.708384,-6.303121" />
      <path d="M 11.708384,-6.303121 C 12.08612,-5.720432 12.444422,-5.082406 12.76781,-4.408807" />
      <path d="M 12.76781,-4.408807 Q 12.928446,-4.202715 13.070387,-3.992322" />
      <path d="M 13.070387,-3.992322 Q 12.943911,-4.476381 12.634655,-5.008114" />
      <path d="M 12.860839,-4.572907 Q 13.361649,-3.686001 13.751063,-2.693297" />
      <path d="M 13.751063,-2.693297 Q 13.83468,-2.473229 13.898445,-2.251066" />
      <path d="M 13.622708,-2.242439 Q 13.894584,-1.590411 14.100447,-0.901537" />
      <path d="M 14.100447,-0.901537 Q 14.102034,-0.789043 14.098571,-0.676552" />
      <path d="M -15.400426,-6.106281 A 14.667671033984679,8.252946301101538 0.0 0,1 11.936856,-6.106281" />
      <path d="M 14.086599,-0.451666 C 12.538074,-0.593475 10.901478,-0.579014 9.239289,-0.403146" />
      <path d="M 9.198539,-0.55877 L 9.239289,-0.403146" />
      <path d="M 9.150817,-0.713766 L 9.198539,-0.55877" />
      <path d="M 14.100447,-0.901537 C 12.503508,-0.998637 10.83277,-0.937167 9.150817,-0.713766" />
      <path d="M 9.239289,-0.403146 Q 9.055863,-0.795171 8.738119,-1.247085" />
      <path d="M 8.923479,-0.970332 C 8.872112,-0.961608 8.820684,-0.952713 8.769198,-0.943645" />
      <path d="M 8.738119,-1.247085 Q 8.760592,-1.09559 8.769198,-0.943645" />
      <path d="M 13.801657,0.893118 C 12.422307,0.625723 10.913391,0.505262 9.336112,0.542179" />
      <path d="M 8.769198,-0.943645 Q 9.112924,-0.238064 9.336112,0.542179" />
      <path d="M 13.627146,1.332212 C 12.311215,1.026507 10.852559,0.863866 9.311645,0.856462" />
      <path d="M 9.336112,0.542179 Q 9.330932,0.699494 9.311645,0.856462" />
      <path d="M 9.311645,0.856462 Q 9.060171,0.439553 8.699718,-0.051165" />
      <path d="M 8.901586,0.230658 C 8.808749,0.236311 8.715416,0.242618 8.621603,0.249583" />
      <path d="M 8.699718,-0.051165 Q 8.667532,0.099774 8.621603,0.249583" />
      <path d="M 12.866926,2.617195 C 11.761637,2.207636 10.476318,1.927296 9.068287,1.793402" />
      <path d="M 8.621603,0.249583 Q 8.916753,0.991719 9.068287,1.793402" />
      <path d="M 12.538897,3.027534 C 11.509433,2.587633 10.288437,2.271669 8.931882,2.098481" />
      <path d="M 9.068287,1.793402 Q 9.006932,1.946911 8.931882,2.098481" />
      <path d="M 8.931882,2.098481 Q 8.622655,1.64949 8.234251,1.115924" />
      <path d="M 8.455068,1.422151 C 8.3222,1.413616 8.187197,1.406776 8.050138,1.401668" />
      <path d="M 8.234251,1.115924 Q 8.148723,1.260128 8.050138,1.401668" />
      <path d="M 10.499226,3.729713 C 9.874442,3.428466 9.155565,3.179052 8.358305,2.988678" />
      <path d="M 8.050138,1.401668 Q 8.28463,2.174109 8.358305,2.988678" />
      <path d="M 9.83397,3.925323 C 9.326497,3.670332 8.750673,3.451054 8.115548,3.272062" />
      <path d="M 8.358305,2.988678 Q 8.243287,3.132095 8.115548,3.272062" />
      <path d="M 8.115548,3.272062 Q 7.761228,2.785105 7.360773,2.206403" />
      <path d="M 7.619863,2.578961 C 7.447568,2.536801 7.266894,2.498885 7.078201,2.465445" />
      <path d="M 7.360773,2.206403 Q 7.225405,2.337968 7.078201,2.465445" />
      <path d="M 7.250757,4.085971 C 7.245589,4.083668 7.240415,4.081368 7.235234,4.079072" />
      <path d="M 7.078201,2.465445 Q 7.242433,3.260699 7.235234,4.079072" />
      <path d="M 7.202322,4.496667 C 7.10391,4.439233 7.001795,4.383377 6.896062,4.329159" />
      <path d="M 7.235234,4.079072 Q 7.071261,4.206526 6.896062,4.329159" />
      <path d="M 6.896062,4.329159 Q 6.511155,3.799906 6.115044,3.175627" />
      <path d="M 5.920671,3.471621 C 5.864362,3.446135 5.805989,3.421373 5.745582,3.397361" />
      <path d="M 6.115044,3.175627 Q 5.935379,3.289166 5.745582,3.397361" />
      <path d="M 5.842451,5.102574 C 5.810766,5.07478 5.778297,5.047234 5.745052,5.019943" />
      <path d="M 5.745582,3.397361 Q 5.832831,4.207004 5.745052,5.019943" />
      <path d="M 5.452813,5.361395 C 5.411657,5.315868 5.368497,5.270894 5.323352,5.226495" />
      <path d="M 5.745052,5.019943 Q 5.538838,5.126215 5.323352,5.226495" />
      <path d="M 5.033736,4.839753 C 5.03461,4.824559 5.035056,4.80942 5.035076,4.79434" />
      <path d="M 5.323352,5.226495 Q 4.923615,4.652347 4.548066,3.983915" />
      <path d="M 4.373911,4.556309 C 4.326474,4.41637 4.236957,4.283267 4.106838,4.159264" />
      <path d="M 4.548066,3.983915 Q 4.331458,4.074781 4.106838,4.159264" />
      <path d="M 4.125667,6.661145 C 4.144715,6.354224 4.084698,6.056313 3.948767,5.772771" />
      <path d="M 4.106838,4.159264 Q 4.113533,4.974283 3.948767,5.772771" />
      <path d="M 3.54076,6.443493 C 3.541328,6.267975 3.514826,6.095555 3.461803,5.927333" />
      <path d="M 3.948767,5.772771 Q 3.708754,5.853512 3.461803,5.927333" />
      <path d="M 2.156665,5.645351 C 2.619948,5.286189 2.804235,4.924881 2.723989,4.598177" />
      <path d="M 3.461803,5.927333 Q 3.063603,5.307528 2.723989,4.598177" />
      <path d="M 2.226607,4.768396 C 2.228069,4.75219 2.228886,4.736044 2.229061,4.719962" />
      <path d="M 2.723989,4.598177 Q 2.479308,4.66265 2.229061,4.719962" />
      <path d="M 0.789874,7.963939 C 1.362314,7.494117 1.718788,7.010755 1.865002,6.537928" />
      <path d="M 1.865002,6.537928 C 1.888931,6.460547 1.907229,6.383448 1.91992,6.306737" />
      <path d="M 2.229061,4.719962 Q 2.154927,5.531122 1.91992,6.306737" />
      <path d="M -0.002543,8.02436 C 0.749455,7.497805 1.210894,6.944629 1.387628,6.402979" />
      <path d="M 1.91992,6.306737 Q 1.655934,6.35864 1.387628,6.402979" />
      <path d="M 0.094962,5.493826 C 0.378381,5.329576 0.585765,5.160864 0.717493,4.993265" />
      <path d="M 1.387628,6.402979 Q 1.007266,5.738627 0.717493,4.993265" />
      <path d="M 0.717493,4.993265 Q 0.454754,5.028704 0.189126,5.056499" />
      <path d="M -2.408167,8.069521 C -1.409925,7.618039 -0.692126,7.115445 -0.258428,6.599978" />
      <path d="M 0.189126,5.056499 C 0.091178,5.587652 -0.064682,6.10414 -0.258428,6.599978" />
      <path d="M -3.205979,8.038953 C -2.130833,7.616942 -1.331322,7.135914 -0.814256,6.633961" />
      <path d="M -0.258428,6.599978 Q -0.535579,6.620919 -0.814256,6.633961" />
      <path d="M -2.001992,5.398165 C -1.771819,5.319838 -1.567484,5.237734 -1.389277,5.153003" />
      <path d="M -0.814256,6.633961 C -1.042108,6.1639 -1.240678,5.669081 -1.389277,5.153003" />
      <path d="M -1.389277,5.153003 Q -1.659316,5.157958 -1.929452,5.155099" />
      <path d="M -5.578517,7.810721 C -4.289025,7.490137 -3.256498,7.087691 -2.497096,6.64049" />
      <path d="M -1.929452,5.155099 C -2.075007,5.672318 -2.271113,6.168668 -2.497096,6.64049" />
      <path d="M -6.349062,7.690416 C -4.994783,7.40741 -3.889933,7.035344 -3.053703,6.610823" />
      <path d="M -2.497096,6.64049 Q -2.776066,6.629612 -3.053703,6.610823" />
      <path d="M -4.107097,5.184983 C -3.896486,5.149822 -3.697405,5.111658 -3.510069,5.070852" />
      <path d="M -3.053703,6.610823 C -3.249911,6.116499 -3.408733,5.60123 -3.510069,5.070852" />
      <path d="M -3.510069,5.070852 Q -3.776354,5.04512 -4.039936,5.011723" />
      <path d="M -8.591381,7.198135 C -7.063432,7.038757 -5.758448,6.770057 -4.704432,6.426615" />
      <path d="M -4.039936,5.011723 Q -4.325861,5.759319 -4.704432,6.426615" />
      <path d="M -9.303113,6.993019 C -7.725146,6.877787 -6.360189,6.647037 -5.239032,6.334512" />
      <path d="M -4.704432,6.426615 Q -4.973799,6.384362 -5.239032,6.334512" />
      <path d="M -6.126089,4.779807 C -5.930881,4.77224 -5.741491,4.762316 -5.558058,4.750175" />
      <path d="M -5.239032,6.334512 Q -5.478498,5.560738 -5.558058,4.750175" />
      <path d="M -5.558058,4.750175 Q -5.809686,4.694809 -6.055925,4.632242" />
      <path d="M -11.323413,6.256842 C -9.61956,6.282379 -8.095546,6.175547 -6.790067,5.967108" />
      <path d="M -6.055925,4.632242 Q -6.392568,5.344216 -6.790067,5.967108" />
      <path d="M -11.947193,5.975312 C -10.210141,6.049756 -8.640958,5.98689 -7.280773,5.81634" />
      <path d="M -6.790067,5.967108 Q -7.038804,5.895211 -7.280773,5.81634" />
      <path d="M -7.973511,4.173189 C -7.795765,4.185289 -7.621032,4.195573 -7.4494,4.2041" />
      <path d="M -7.280773,5.81634 Q -7.450566,5.019149 -7.4494,4.2041" />
      <path d="M -7.4494,4.2041 Q -7.676069,4.121368 -7.894883,4.032192" />
      <path d="M -13.662762,5.02538 C -11.852762,5.251969 -10.172111,5.328499 -8.668615,5.280782" />
      <path d="M -7.894883,4.032192 Q -8.268462,4.703529 -8.668615,5.280782" />
      <path d="M -14.173053,4.678961 C -12.34803,4.957217 -10.638864,5.081929 -9.095338,5.077521" />
      <path d="M -8.668615,5.280782 Q -8.886538,5.182183 -9.095338,5.077521" />
      <path d="M -9.572465,3.380532 C -9.415698,3.406693 -9.260412,3.431502 -9.106661,3.454985" />
      <path d="M -9.095338,5.077521 Q -9.188506,4.265284 -9.106661,3.454985" />
      <path d="M -9.106661,3.454985 Q -9.299092,3.348273 -9.481523,3.236138" />
      <path d="M -15.513656,3.554163 C -13.67161,3.989713 -11.903128,4.263591 -10.263169,4.395734" />
      <path d="M -9.481523,3.236138 Q -9.876743,3.863488 -10.263169,4.395734" />
      <path d="M -15.889566,3.157039 C -14.051289,3.644899 -12.272113,3.969203 -10.608438,4.148302" />
      <path d="M -10.263169,4.395734 Q -10.441357,4.274472 -10.608438,4.148302" />
      <path d="M -10.856696,2.430804 C -10.724497,2.465982 -10.592919,2.50021 -10.461994,2.533498" />
      <path d="M -10.608438,4.148302 Q -10.621167,3.330007 -10.461994,2.533498" />
      <path d="M -10.461994,2.533498 Q -10.612309,2.407175 -10.750888,2.276673" />
      <path d="M -16.800318,1.903425 C -15.001639,2.547286 -13.217729,3.024423 -11.508447,3.3482" />
      <path d="M -10.750888,2.276673 Q -11.151568,2.858483 -11.508447,3.3482" />
      <path d="M -17.026457,1.471853 C -15.250186,2.166527 -13.47384,2.694268 -11.758127,3.066726" />
      <path d="M -11.508447,3.3482 Q -11.639604,3.209237 -11.758127,3.066726" />
      <path d="M -11.772916,1.362307 C -11.668411,1.401265 -11.564071,1.439617 -11.459911,1.477364" />
      <path d="M -11.758127,3.066726 Q -11.689896,2.251606 -11.459911,1.477364" />
      <path d="M -11.459911,1.477364 Q -11.561956,1.336602 -11.651009,1.193075" />
      <path d="M -17.470073,0.140746 C -15.7884,0.983743 -14.062094,1.661724 -12.353467,2.181064" />
      <path d="M -11.651009,1.193075 Q -12.040747,1.72966 -12.353467,2.181064" />
      <path d="M -17.537183,-0.307605 C -15.895638,0.582627 -14.194846,1.30932 -12.497336,1.877073" />
      <path d="M -12.353467,2.181064 Q -12.432224,2.030091 -12.497336,1.877073" />
      <path d="M -12.28274,0.220402 C -12.208373,0.257202 -12.133977,0.293675 -12.059557,0.329822" />
      <path d="M -12.497336,1.877073 Q -12.350938,1.074234 -12.059557,0.329822" />
      <path d="M -12.059557,0.329822 Q -12.109154,0.180384 -12.145037,0.029709" />
      <path d="M -17.4955,-1.66171 C -15.999681,-0.636906 -14.401655,0.231285 -12.763635,0.94211" />
      <path d="M -12.145037,0.029709 Q -12.507876,0.523233 -12.763635,0.94211" />
      <path d="M -17.400834,-2.108484 C -15.96122,-1.041957 -14.405613,-0.128942 -12.795802,0.628047" />
      <path d="M -12.763635,0.94211 Q -12.786767,0.785307 -12.795802,0.628047" />
      <path d="M -12.363875,-0.943702 C -12.321431,-0.916399 -12.278933,-0.889214 -12.236384,-0.862147" />
      <path d="M -12.795802,0.628047 Q -12.577231,-0.15391 -12.236384,-0.862147" />
      <path d="M -12.236384,-0.862147 Q -12.231502,-1.014144 -12.212744,-1.165799" />
      <path d="M -16.875559,-3.430149 C -15.626833,-2.24831 -14.22251,-1.208334 -12.722157,-0.317939" />
      <path d="M -12.212744,-1.165799 Q -12.53383,-0.711407 -12.722157,-0.317939" />
      <path d="M -16.622993,-3.857055 C -15.444248,-2.640713 -14.097512,-1.561635 -12.641306,-0.629217" />
      <path d="M -12.722157,-0.317939 Q -12.688718,-0.474152 -12.641306,-0.629217" />
      <path d="M -15.590025,-5.790649 C -15.559849,-5.751084 -15.529533,-5.711623 -15.499076,-5.672267" />
      <path d="M -12.641306,-0.629217 Q -12.46185,-1.109126 -12.242493,-1.557001" />
      <path d="M -15.63563,-5.092171 C -14.685119,-3.784498 -13.531993,-2.598192 -12.230732,-1.547497" />
      <path d="M -15.235503,-5.481733 C -14.365885,-4.148189 -13.283157,-2.930103 -12.040174,-1.843245" />
      <path d="M -12.230732,-1.547497 Q -12.14209,-1.696725 -12.040174,-1.843245" />
      <path d="M -14.136838,-7.293361 C -14.039961,-7.101463 -13.93952,-6.911322 -13.835623,-6.722972" />
      <path d="M -12.040174,-1.843245 Q -11.782824,-2.398043 -11.485711,-2.898583" />
      <path d="M -13.826476,-6.579734 C -13.213095,-5.182579 -12.358374,-3.88139 -11.309479,-2.696226" />
      <path d="M -13.29517,-6.916002 C -12.770281,-5.502668 -11.995886,-4.178323 -11.017014,-2.964337" />
      <path d="M -11.309479,-2.696226 Q -11.169264,-2.832359 -11.017014,-2.964337" />
      <path d="M -12.175787,-8.600719 C -11.7925,-7.166976 -11.199264,-5.800661 -10.428501,-4.517791" />
      <path d="M -11.017014,-2.964337 Q -10.653729,-3.62723 -10.262438,-4.194448" />
      <path d="M -11.522164,-7.831936 C -11.466294,-7.510115 -11.397054,-7.191595 -11.314859,-6.876651" />
      <path d="M -11.314859,-6.876651 C -11.027579,-5.775885 -10.582055,-4.718793 -9.996114,-3.717096" />
      <path d="M -10.88143,-8.101143 C -10.72276,-6.648698 -10.288403,-5.255191 -9.613716,-3.946593" />
      <path d="M -9.996114,-3.717096 Q -9.810066,-3.834562 -9.613716,-3.946593" />
      <path d="M -9.787158,-9.659201 C -9.724471,-8.086544 -9.395586,-6.563042 -8.831551,-5.112852" />
      <path d="M -9.613716,-3.946593 Q -9.219371,-4.580557 -8.831551,-5.112852" />
      <path d="M -9.124507,-9.882728 C -9.128045,-9.678142 -9.127015,-9.474255 -9.121478,-9.271124" />
      <path d="M -8.831551,-5.112852 Q -8.690845,-5.185432 -8.545531,-5.255095" />
      <path d="M -8.817032,-8.797511 C -8.938417,-7.343467 -8.771834,-5.924184 -8.344406,-4.568313" />
      <path d="M -8.349573,-4.584461 L -8.344406,-4.568313" />
      <path d="M -8.093103,-8.988636 C -8.307147,-7.539359 -8.23061,-6.116621 -7.887731,-4.749801" />
      <path d="M -8.344406,-4.568313 Q -8.120142,-4.662302 -7.887731,-4.749801" />
      <path d="M -7.06874,-10.425472 C -7.359078,-8.865841 -7.371851,-7.324251 -7.12728,-5.827795" />
      <path d="M -7.887731,-4.749801 Q -7.486705,-5.338256 -7.12728,-5.827795" />
      <path d="M -6.339685,-10.56937 C -6.699777,-9.095093 -6.807765,-7.629857 -6.678557,-6.197444" />
      <path d="M -7.12728,-5.827795 Q -6.895637,-5.905801 -6.657181,-5.977011" />
      <path d="M -5.82183,-9.43693 C -6.310768,-8.017806 -6.505746,-6.600148 -6.421977,-5.215028" />
      <path d="M -6.653458,-5.941519 Q -6.612729,-5.59316 -6.421977,-5.215028" />
      <path d="M -5.044343,-9.542148 C -5.622338,-8.138189 -5.906755,-6.727345 -5.909721,-5.341076" />
      <path d="M -6.421977,-5.215028 Q -6.168678,-5.281692 -5.909721,-5.341076" />
      <path d="M -4.131827,-10.868161 C -4.763302,-9.361273 -5.117212,-7.840665 -5.202116,-6.335073" />
      <path d="M -5.909721,-5.341076 C -5.652193,-5.702145 -5.409662,-6.035501 -5.202116,-6.335073" />
      <path d="M -3.366214,-10.926538 C -4.080659,-9.439125 -4.519354,-7.929985 -4.687829,-6.42806" />
      <path d="M -5.202116,-6.335073 Q -4.947097,-6.385286 -4.687829,-6.42806" />
      <path d="M -2.659181,-9.724014 C -3.495656,-8.380727 -4.044212,-7.005612 -4.307531,-5.630764" />
      <path d="M -4.687829,-6.42806 Q -4.574215,-6.054919 -4.307531,-5.630764" />
      <path d="M -1.859966,-9.739017 C -2.77825,-8.420672 -3.411976,-7.062361 -3.760665,-5.696213" />
      <path d="M -4.307531,-5.630764 Q -4.035567,-5.667374 -3.760665,-5.696213" />
      <path d="M -1.912226,-9.617604 C -2.445528,-8.630006 -2.853448,-7.625668 -3.134876,-6.613916" />
      <path d="M -3.760665,-5.696213 C -3.520422,-6.0288 -3.304936,-6.33595 -3.134876,-6.613916" />
      <path d="M -0.32583,-10.939611 C -1.346894,-9.551499 -2.106397,-8.110916 -2.59785,-6.64675" />
      <path d="M -3.134876,-6.613916 Q -2.867113,-6.634218 -2.59785,-6.64675" />
      <path d="M 0.541436,-9.647009 C -0.60833,-8.417369 -1.488007,-7.123974 -2.087633,-5.798502" />
      <path d="M -2.59785,-6.64675 Q -2.409167,-6.256312 -2.087633,-5.798502" />
      <path d="M 1.329659,-9.571184 C 0.522696,-8.780768 -0.168998,-7.959186 -0.741652,-7.115492" />
      <path d="M -0.741652,-7.115492 C -1.035455,-6.682632 -1.297923,-6.24395 -1.528547,-5.800671" />
      <path d="M -2.087633,-5.798502 Q -1.808139,-5.803559 -1.528547,-5.800671" />
      <path d="M -1.528547,-5.800671 Q -1.236781,-6.215325 -1.049081,-6.574669" />
      <path d="M 2.656994,-10.608053 C 1.371113,-9.351938 0.321896,-8.014845 -0.472414,-6.624246" />
      <path d="M -1.00851,-6.652844 Q -0.73981,-6.642411 -0.472414,-6.624246" />
      <path d="M 3.648987,-9.20907 C 2.233001,-8.126235 1.058218,-6.950389 0.146833,-5.711373" />
      <path d="M -0.472414,-6.624246 C -0.305176,-6.347588 -0.091867,-6.042103 0.146833,-5.711373" />
      <path d="M 4.393947,-9.04552 C 2.920264,-8.003758 1.678991,-6.862254 0.69525,-5.650174" />
      <path d="M 0.146833,-5.711373 Q 0.422415,-5.68467 0.69525,-5.650174" />
      <path d="M 5.460141,-9.945438 C 5.115009,-9.692743 4.780604,-9.434419 4.457282,-9.170766" />
      <path d="M 3.773213,-8.590399 C 2.969467,-7.880609 2.243413,-7.135823 1.601463,-6.36147" />
      <path d="M 1.351122,-6.406641 L 1.601463,-6.36147" />
      <path d="M 6.536248,-8.428124 C 4.912014,-7.519241 3.49022,-6.491965 2.304388,-5.372945" />
      <path d="M 1.601463,-6.36147 C 1.806713,-6.063499 2.047708,-5.73202 2.304388,-5.372945" />
      <path d="M 7.207448,-8.183545 C 5.54139,-7.32143 4.066754,-6.335323 2.819685,-5.250884" />
      <path d="M 2.304388,-5.372945 Q 2.564776,-5.315576 2.819685,-5.250884" />
      <path d="M 7.968849,-8.978893 C 7.752802,-8.858773 7.539488,-8.736477 7.328995,-8.612052" />
      <path d="M 9.085016,-7.336143 C 7.319028,-6.62124 5.708433,-5.767468 4.296702,-4.797074" />
      <path d="M 3.549788,-5.854163 Q 3.902161,-5.3733 4.296702,-4.797074" />
      <path d="M 9.654975,-7.02055 C 7.864753,-6.356193 6.217125,-5.548733 4.757782,-4.619147" />
      <path d="M 4.296702,-4.797074 Q 4.531235,-4.711387 4.757782,-4.619147" />
      <path d="M 10.080413,-7.74799 C 9.946894,-7.692238 9.814028,-7.635642 9.681837,-7.578208" />
      <path d="M 11.190942,-5.977835 C 9.355502,-5.468995 7.622042,-4.806561 6.042209,-4.007335" />
      <path d="M 5.379886,-5.001289 Q 5.709238,-4.539704 6.042209,-4.007335" />
      <path d="M 11.636327,-5.604146 C 9.795231,-5.147563 8.042066,-4.534687 6.430195,-3.780827" />
      <path d="M 6.042209,-4.007335 Q 6.241285,-3.896838 6.430195,-3.780827" />
      <path d="M 11.708384,-6.303121 C 11.645494,-6.284219 11.582676,-6.265119 11.519934,-6.245824" />
      <path d="M 12.76781,-4.408807 C 10.93806,-4.109679 9.152704,-3.648582 7.469447,-3.036061" />
      <path d="M 6.893802,-3.992044 Q 7.190491,-3.541062 7.469447,-3.036061" />
      <path d="M 13.070387,-3.992322 C 11.253793,-3.745022 9.466864,-3.3347 7.768455,-2.770245" />
      <path d="M 7.469447,-3.036061 Q 7.624917,-2.905277 7.768455,-2.770245" />
      <path d="M 13.751063,-2.693297 C 12.001913,-2.598943 10.237754,-2.340939 8.519986,-1.923015" />
      <path d="M 8.031619,-2.856246 Q 8.291083,-2.410464 8.519986,-1.923015" />
      <path d="M 13.898445,-2.251066 C 12.180723,-2.20599 10.433189,-1.997899 8.717775,-1.628774" />
      <path d="M 8.519986,-1.923015 Q 8.625485,-1.7773 8.717775,-1.628774" />
      <path d="M 8.749273,-1.635532 Q 8.969485,-1.190706 9.150817,-0.713766" />
      <path d="M 8.394225,-2.081578 A 10.255218749380472,5.770225514915591 -180.0 0,0 8.297389,-2.373331" />
      <path d="M -11.706302,-2.509302 A 10.255218749380472,5.770225514915591 -180.0 1,0 8.394225,-2.081578" />
      <path d="M 11.94916,5.39178 C 11.006128,5.695608 9.984062,5.925771 8.934948,6.048084" />
      <path d="M 13.396418,7.590034 C 11.793855,7.966985 10.079774,8.125422 8.349578,8.00045" />
      <path d="M 8.132175,9.083095 L 7.848215,9.034996" />
      <path d="M 11.800919,11.81677 C 10.056337,11.708106 8.308294,11.342363 6.672472,10.722662" />
      <path d="M 10.076302,14.198811 Q 9.547858,14.064144 9.023809,13.896406" />
      <path d="M 2.872647,11.799421 L 2.5108,11.135442" />
      <path d="M 4.55614,6.100357 C 4.556411,6.09905 4.546169,6.074593 4.525415,6.026987 C 4.492831,5.954535 4.43553,5.843032 4.362367,5.72562" />
      <path d="M 5.12864,4.937658 L 5.083935,4.889278" />
      <path d="M -16.653252,-3.971347 A 16.62077013859466,16.62077013859466 90.5583618998677 0,1 -15.400426,-6.106281" />
      <path d="M 11.936856,-6.106281 A 16.62077013859466,16.62077013859466 90.5583618998677 0,1 12.634655,-5.008114" />
      <path d="M 4.155003,6.668397 Q 4.268944,6.177454 4.336536,5.680957" />
      <path d="M 1.865002,6.537928 C 2.045209,5.955038 2.172806,5.36419 2.226607,4.768396" />
      <path d="M -11.593993,-8.126254 Q -11.476308,-7.495565 -11.314859,-6.876651" />
      <path d="M -8.349573,-4.584461 C -8.8234,-6.082159 -9.078425,-7.667068 -9.121478,-9.271124" />
      <path d="M -6.653458,-5.941519 L -6.678557,-6.197444" />
      <path d="M -1.759056,-9.884272 C -1.782771,-9.846242 -1.839288,-9.752767 -1.912226,-9.617604" />
      <path d="M -1.049081,-6.574669 C -0.889036,-6.888585 -0.7511,-7.102098 -0.739636,-7.118462" />
    </g>
  </g>
</svg>