<?xml version='1.0' encoding='utf-8'?>
<svg width="100.089999mm" height="36.7066mm" viewBox="-14.542877 -5.112654 28.018366 10.275342" version="1.1" xmlns="http://www.w3.org/2000/svg">
  <g transform="scale(1,-1)" stroke-linecap="round">
    <g fill="none" stroke="rgb(0,0,0)" stroke-width="0.025193855287929397" id="Visible">
      <line x1="-6.976317" y1="-0.150262" x2="-6.976317" y2="-0.12427" />
      <path d="M -6.976317,-0.12427 Q -6.971231,-0.051288 -6.971228,0.021953" />
      <path d="M -6.971228,0.021953 Q -6.971245,0.16056 -6.98941,0.298032" />
      <path d="M -6.971228,-0.081811 C -6.920264,0.036401 -6.776426,0.12561 -6.619441,0.173167" />
      <path d="M -6.98941,0.298032 L -6.991021,0.324632" />
      <path d="M -6.991021,0.324632 C -6.992547,0.477038 -6.829251,0.605091 -6.641228,0.665133 C -6.448974,0.727538 -6.246411,0.739301 -6.020068,0.718503" />
      <line x1="-6.020068" y1="0.639131" x2="-6.020068" y2="0.718503" />
      <path d="M -5.147643,0.99771 L -5.101388,1.071467" />
      <path d="M -6.020068,0.718503 C -5.640237,0.868823 -5.30437,1.232689 -5.101388,1.570425" />
      <line x1="-5.101388" y1="1.071467" x2="-5.101388" y2="1.570425" />
      <path d="M -5.101388,1.570425 Q -5.198204,1.789682 -5.321767,1.998601" />
      <path d="M -5.321767,1.998601 C -5.747351,2.09336 -6.284153,2.119892 -6.666984,1.9754" />
      <path d="M -6.666984,1.9754 C -6.804119,1.811067 -6.954767,1.685082 -7.143896,1.603586 C -7.327825,1.522872 -7.554525,1.512348 -7.67562,1.631272" />
      <path d="M -7.67562,1.631272 Q -7.837915,1.789935 -8.029447,1.921861" />
      <path d="M -8.056316,1.943241 C -7.969425,2.084865 -7.84718,2.202185 -7.687093,2.314232" />
      <path d="M -8.029447,1.921861 C -8.108481,1.976701 -8.14716,2.064531 -8.146553,2.158927" />
      <path d="M -8.146553,2.158927 C -8.146371,2.279956 -8.088402,2.40673 -8.00662,2.515763 C -7.924638,2.623892 -7.818129,2.723034 -7.687093,2.813189" />
      <line x1="-7.687093" y1="2.314232" x2="-7.687093" y2="2.813189" />
      <path d="M -7.687093,2.314232 Q -7.599763,2.525656 -7.601991,2.777778" />
      <path d="M -7.687093,2.813189 Q -7.599763,3.024613 -7.601991,3.276736" />
      <path d="M -7.601991,3.276736 C -7.602067,3.515363 -7.654513,3.76305 -7.732598,3.978554" />
      <path d="M -7.732598,3.978554 Q -7.979956,4.074263 -8.237791,4.146272" />
      <path d="M -8.237791,4.146272 C -8.616042,3.95248 -9.017266,3.64229 -9.170073,3.305521" />
      <line x1="-9.170073" y1="2.858543" x2="-9.170073" y2="3.305521" />
      <path d="M -9.170073,3.305521 Q -9.146755,3.182739 -9.146698,3.070565" />
      <path d="M -9.146698,3.070565 C -9.14676,2.923762 -9.176978,2.775738 -9.253861,2.651056 C -9.328809,2.527257 -9.458546,2.436464 -9.602502,2.444097" />
      <path d="M -9.602502,2.444097 Q -9.846719,2.456834 -10.089796,2.43275" />
      <path d="M -10.089796,2.43275 C -10.244606,2.417168 -10.388217,2.517016 -10.469517,2.651475 C -10.553209,2.787285 -10.585689,2.945683 -10.585874,3.106383" />
      <path d="M -10.585874,3.106383 Q -10.585875,3.186227 -10.574977,3.272808" />
      <line x1="-10.574977" y1="2.952359" x2="-10.574977" y2="3.272808" />
      <path d="M -10.574977,3.272808 C -10.748431,3.601979 -11.168297,3.89305 -11.55801,4.06896" />
      <path d="M -11.55801,4.06896 Q -11.811011,3.985056 -12.052082,3.877974" />
      <path d="M -12.142234,2.777921 C -12.142289,2.575728 -12.107953,2.376981 -12.025311,2.213215" />
      <path d="M -12.052082,3.877974 C -12.107212,3.691274 -12.142193,3.482349 -12.142234,3.276878" />
      <path d="M -12.142234,3.276878 C -12.142289,3.074686 -12.107953,2.875938 -12.025311,2.712173" />
      <line x1="-12.025311" y1="2.213215" x2="-12.025311" y2="2.712173" />
      <path d="M -12.025311,2.213215 C -11.851878,2.104591 -11.717971,1.987787 -11.622242,1.842873" />
      <path d="M -12.025311,2.712173 C -11.884671,2.625759 -11.769439,2.528417 -11.679617,2.420146 C -11.590087,2.311016 -11.525446,2.181466 -11.525277,2.058015" />
      <path d="M -11.525277,2.058015 C -11.524817,1.972063 -11.55879,1.891888 -11.628222,1.838063" />
      <path d="M -11.628222,1.838063 Q -11.811302,1.697413 -11.963532,1.531427" />
      <path d="M -11.963532,1.531427 C -12.077083,1.407039 -12.304108,1.406998 -12.492773,1.479036 C -12.686679,1.551613 -12.844916,1.670405 -12.992035,1.82812" />
      <path d="M -12.992035,1.82812 C -13.383268,1.954587 -13.917651,1.903112 -14.33675,1.788684" />
      <path d="M -14.33675,1.788684 Q -14.447189,1.574317 -14.53028,1.350871" />
      <line x1="-14.53028" y1="0.851913" x2="-14.53028" y2="1.350871" />
      <path d="M -14.53028,0.851913 C -14.306663,0.524111 -13.948735,0.176399 -13.560137,0.043972" />
      <path d="M -14.53028,1.350871 C -14.306663,1.023068 -13.948735,0.675357 -13.560137,0.54293" />
      <line x1="-13.560137" y1="0.043972" x2="-13.560137" y2="0.54293" />
      <path d="M -13.560137,0.043972 C -13.343943,0.074112 -13.149254,0.072948 -12.959612,0.025775 C -12.774239,-0.019797 -12.602556,-0.125968 -12.571228,-0.268932" />
      <path d="M -13.560137,0.54293 C -13.332162,0.574675 -13.125936,0.571893 -12.927817,0.516041 C -12.734056,0.46259 -12.563958,0.336646 -12.565757,0.181185" />
      <path d="M -12.565757,0.181185 L -12.56614,0.168176" />
      <path d="M -12.56614,0.168176 Q -12.571226,0.095194 -12.571228,0.021953" />
      <path d="M -12.571228,0.021953 Q -12.571212,-0.116654 -12.553047,-0.254126" />
      <line x1="-12.553047" y1="-0.30731" x2="-12.553047" y2="-0.254126" />
      <path d="M -12.553047,-0.254126 L -12.551436,-0.280726" />
      <path d="M -12.551436,-0.280726 C -12.54991,-0.433132 -12.713206,-0.561185 -12.901229,-0.621226 C -13.093483,-0.683632 -13.296046,-0.695395 -13.522389,-0.674596" />
      <path d="M -13.522389,-0.674596 C -13.90222,-0.824917 -14.238087,-1.188783 -14.441069,-1.526519" />
      <line x1="-14.441069" y1="-2.025476" x2="-14.441069" y2="-1.526519" />
      <path d="M -14.441069,-2.025476 Q -14.344252,-2.244734 -14.22069,-2.453652" />
      <path d="M -14.441069,-1.526519 Q -14.344252,-1.745776 -14.22069,-1.954694" />
      <line x1="-14.22069" y1="-2.453652" x2="-14.22069" y2="-1.954694" />
      <path d="M -14.22069,-2.453652 C -13.795105,-2.548411 -13.258304,-2.574943 -12.875472,-2.430452" />
      <path d="M -14.22069,-1.954694 C -13.795105,-2.049454 -13.258304,-2.075985 -12.875472,-1.931494" />
      <line x1="-12.875472" y1="-2.430452" x2="-12.875472" y2="-1.931494" />
      <path d="M -12.875472,-2.430452 C -12.738337,-2.266118 -12.587689,-2.140134 -12.398561,-2.058638 C -12.214632,-1.977924 -11.987932,-1.967399 -11.866837,-2.086324" />
      <path d="M -12.875472,-1.931494 C -12.738337,-1.767161 -12.587689,-1.641176 -12.398561,-1.55968 C -12.214632,-1.478966 -11.987932,-1.468441 -11.866837,-1.587366" />
      <line x1="-11.866837" y1="-2.086324" x2="-11.866837" y2="-1.587366" />
      <path d="M -11.866837,-2.086324 Q -11.704542,-2.244986 -11.51301,-2.376913" />
      <path d="M -11.866837,-1.587366 Q -11.704542,-1.746028 -11.51301,-1.877955" />
      <line x1="-11.51301" y1="-2.376913" x2="-11.51301" y2="-1.877955" />
      <path d="M -11.51301,-2.376913 L -11.486141,-2.398292" />
      <path d="M -11.51301,-1.877955 C -11.433976,-1.932795 -11.395297,-2.020625 -11.395904,-2.115021" />
      <path d="M -11.395904,-2.115021 C -11.396086,-2.23605 -11.454055,-2.362823 -11.535837,-2.471857 C -11.617819,-2.579986 -11.724327,-2.679128 -11.855364,-2.769283" />
      <path d="M -11.940466,-3.731788 C -11.94039,-3.970415 -11.887944,-4.218101 -11.809859,-4.433605" />
      <path d="M -11.855364,-2.769283 Q -11.942694,-2.980707 -11.940466,-3.23283" />
      <path d="M -11.940466,-3.23283 C -11.94039,-3.471457 -11.887944,-3.719144 -11.809859,-3.934648" />
      <line x1="-11.809859" y1="-4.433605" x2="-11.809859" y2="-3.934648" />
      <path d="M -11.809859,-4.433605 Q -11.562501,-4.529315 -11.304666,-4.601324" />
      <path d="M -11.809859,-3.934648 Q -11.562501,-4.030357 -11.304666,-4.102366" />
      <line x1="-11.304666" y1="-4.601324" x2="-11.304666" y2="-4.102366" />
      <path d="M -11.304666,-4.601324 C -10.926415,-4.407532 -10.525191,-4.097342 -10.372384,-3.760573" />
      <path d="M -11.304666,-4.102366 C -10.926415,-3.908574 -10.525191,-3.598384 -10.372384,-3.261615" />
      <line x1="-10.372384" y1="-3.760573" x2="-10.372384" y2="-3.261615" />
      <path d="M -10.372384,-3.313594 C -10.347414,-3.206461 -10.299526,-3.101874 -10.224656,-3.022686 C -10.150667,-2.943481 -10.048145,-2.893765 -9.939955,-2.899149" />
      <path d="M -10.372384,-3.261615 Q -10.395702,-3.138833 -10.395759,-3.026658" />
      <path d="M -10.395759,-3.026658 C -10.395697,-2.879855 -10.365478,-2.731831 -10.288596,-2.60715 C -10.213648,-2.48335 -10.083911,-2.392558 -9.939955,-2.400191" />
      <line x1="-9.939955" y1="-2.899149" x2="-9.939955" y2="-2.400191" />
      <path d="M -9.939955,-2.899149 Q -9.695737,-2.911885 -9.452661,-2.887802" />
      <path d="M -9.939955,-2.400191 Q -9.695737,-2.412928 -9.452661,-2.388844" />
      <line x1="-9.452661" y1="-2.887802" x2="-9.452661" y2="-2.388844" />
      <path d="M -9.452661,-2.887802 C -9.323603,-2.875053 -9.199693,-2.942413 -9.117251,-3.044665 C -9.033302,-3.147233 -8.986602,-3.277146 -8.96748,-3.407411" />
      <path d="M -9.452661,-2.388844 C -9.297851,-2.373261 -9.15424,-2.47311 -9.072939,-2.607569 C -8.989248,-2.743379 -8.956768,-2.901777 -8.956583,-3.062477" />
      <path d="M -8.956583,-3.062477 Q -8.956581,-3.14232 -8.96748,-3.228901" />
      <line x1="-8.96748" y1="-3.727859" x2="-8.96748" y2="-3.228901" />
      <path d="M -8.96748,-3.727859 C -8.794026,-4.057031 -8.37416,-4.348102 -7.984447,-4.524011" />
      <path d="M -8.96748,-3.228901 C -8.794026,-3.558073 -8.37416,-3.849144 -7.984447,-4.025054" />
      <line x1="-7.984447" y1="-4.524011" x2="-7.984447" y2="-4.025054" />
      <path d="M -7.984447,-4.524011 Q -7.731446,-4.440108 -7.490375,-4.333025" />
      <path d="M -7.984447,-4.025054 Q -7.731446,-3.94115 -7.490375,-3.834067" />
      <line x1="-7.490375" y1="-4.333025" x2="-7.490375" y2="-3.834067" />
      <path d="M -7.490375,-4.333025 C -7.435245,-4.146325 -7.400264,-3.937401 -7.400223,-3.73193" />
      <path d="M -7.490375,-3.834067 C -7.435245,-3.647368 -7.400264,-3.438443 -7.400223,-3.232972" />
      <path d="M -7.400223,-3.232972 C -7.400168,-3.03078 -7.434504,-2.832032 -7.517146,-2.668266" />
      <path d="M -7.920214,-2.297924 L -7.914235,-2.293114" />
      <path d="M -7.517146,-2.668266 C -7.657786,-2.581853 -7.773017,-2.48451 -7.86284,-2.37624 C -7.95237,-2.267109 -8.017011,-2.13756 -8.01718,-2.014109" />
      <path d="M -8.01718,-2.014109 C -8.01764,-1.928157 -7.983667,-1.847982 -7.914235,-1.794157" />
      <line x1="-7.914235" y1="-2.293114" x2="-7.914235" y2="-1.794157" />
      <path d="M -7.914235,-2.293114 Q -7.731155,-2.152465 -7.578925,-1.986479" />
      <path d="M -7.914235,-1.794157 Q -7.731155,-1.653507 -7.578925,-1.487521" />
      <line x1="-7.578925" y1="-1.986479" x2="-7.578925" y2="-1.487521" />
      <path d="M -7.578925,-1.986479 C -7.465373,-1.86209 -7.238349,-1.862049 -7.049684,-1.934088 C -6.855778,-2.006664 -6.697541,-2.125457 -6.550421,-2.283171" />
      <path d="M -7.578925,-1.487521 C -7.465373,-1.363132 -7.238349,-1.363092 -7.049684,-1.43513 C -6.855778,-1.507707 -6.697541,-1.626499 -6.550421,-1.784213" />
      <line x1="-6.550421" y1="-2.283171" x2="-6.550421" y2="-1.784213" />
      <path d="M -6.550421,-2.283171 C -6.159189,-2.409638 -5.624806,-2.358164 -5.205707,-2.243736" />
      <path d="M -6.550421,-1.784213 C -6.159189,-1.91068 -5.624806,-1.859206 -5.205707,-1.744778" />
      <line x1="-5.205707" y1="-2.243736" x2="-5.205707" y2="-1.744778" />
      <path d="M -5.205707,-2.243736 Q -5.095268,-2.029368 -5.012177,-1.805922" />
      <path d="M -5.205707,-1.744778 Q -5.095268,-1.530411 -5.012177,-1.306964" />
      <line x1="-5.012177" y1="-1.805922" x2="-5.012177" y2="-1.306964" />
      <path d="M -5.012177,-1.306964 C -5.235794,-0.979162 -5.593722,-0.631451 -5.98232,-0.499024" />
      <path d="M -5.98232,-0.499024 C -6.210295,-0.530769 -6.41652,-0.527987 -6.614639,-0.472135 C -6.8084,-0.418683 -6.978499,-0.292739 -6.9767,-0.137279" />
      <path d="M -6.9767,-0.137279 L -6.976317,-0.12427" />
      <path d="M 2.228126,-1.279012 Q 2.26228,-1.194671 2.290602,-1.108882" />
      <line x1="2.072624" y1="-1.152559" x2="2.072624" y2="-1.103047" />
      <path d="M 2.072624,-1.103047 Q 2.206419,-0.864721 2.290602,-0.609924" />
      <line x1="2.290602" y1="-1.108882" x2="2.290602" y2="-0.609924" />
      <path d="M 2.290602,-1.108882 C 2.322744,-1.031799 2.498506,-1.055461 2.569596,-1.074418" />
      <path d="M 2.290602,-0.609924 C 2.322744,-0.532841 2.498506,-0.556504 2.569596,-0.57546" />
      <line x1="2.569596" y1="-1.074418" x2="2.569596" y2="-0.57546" />
      <path d="M 2.569596,-1.074418 C 2.82581,-1.108453 3.192371,-1.025297 3.529471,-0.870989" />
      <path d="M 2.569596,-0.57546 C 2.833345,-0.610479 3.21284,-0.521491 3.558427,-0.358711 C 3.910194,-0.192728 4.229628,0.030481 4.551581,0.355464" />
      <line x1="4.551581" y1="-0.038663" x2="4.551581" y2="0.355464" />
      <path d="M 4.551581,0.355464 C 4.209956,0.664995 3.877151,0.873016 3.515608,1.022389 C 3.160432,1.168852 2.775971,1.240051 2.514772,1.192809" />
      <path d="M 2.514772,1.192809 C 2.44496,1.170571 2.270918,1.138763 2.234046,1.214239" />
      <path d="M 2.234046,1.214239 Q 2.134196,1.464751 1.985827,1.696506" />
      <path d="M 1.985827,1.696506 Q 1.978652,1.709775 1.978765,1.723647" />
      <path d="M 1.978765,1.723647 C 1.979129,1.791782 2.096956,1.865172 2.154984,1.891843" />
      <line x1="2.154984" y1="1.394019" x2="2.154984" y2="1.891843" />
      <path d="M 2.155402,1.393152 C 2.344764,1.513823 2.521298,1.759826 2.634926,2.039746 C 2.750762,2.321502 2.809151,2.63459 2.810091,2.979008" />
      <path d="M 2.154984,1.891843 C 2.344425,2.012369 2.52109,2.258396 2.634798,2.538392 C 2.750719,2.820228 2.80915,3.133419 2.810091,3.477966" />
      <path d="M 2.810091,3.477966 Q 2.810219,3.614776 2.796891,3.76466" />
      <path d="M 2.796891,3.76466 C 2.302769,3.774185 1.89771,3.717336 1.520182,3.601406 C 1.149532,3.48732 0.819583,3.302069 0.673434,3.108602" />
      <path d="M 0.673434,3.108602 C 0.642214,3.050097 0.5451,2.920952 0.457445,2.951727" />
      <path d="M 0.457445,2.951727 Q 0.18244,3.067678 -0.111569,3.140633" />
      <path d="M -0.111569,3.140633 C -0.158628,3.155074 -0.173149,3.205073 -0.17313,3.257527" />
      <path d="M -0.17313,3.257527 C -0.173118,3.304304 -0.161705,3.353141 -0.151337,3.382416" />
      <line x1="-0.151337" y1="3.169565" x2="-0.151337" y2="3.382416" />
      <path d="M -0.151337,3.382416 Q -0.142725,3.43228 -0.142738,3.488474" />
      <path d="M -0.142738,3.488474 C -0.142489,3.727071 -0.258923,4.029606 -0.444044,4.305507 C -0.632519,4.585546 -0.877235,4.840979 -1.22553,5.100057" />
      <path d="M -1.22553,5.100057 C -1.546357,4.834223 -1.769807,4.577001 -1.939409,4.29922 C -2.106095,4.025228 -2.2085,3.729183 -2.208382,3.489261" />
      <path d="M -2.208382,3.489261 Q -2.208413,3.405576 -2.191742,3.334905" />
      <line x1="-2.191742" y1="3.106366" x2="-2.191742" y2="3.334905" />
      <path d="M -2.191742,3.334905 C -2.178162,3.302807 -2.161746,3.246386 -2.161724,3.19497" />
      <path d="M -2.161724,3.19497 C -2.161709,3.1487 -2.17517,3.106494 -2.216471,3.09162" />
      <path d="M -2.216471,3.09162 Q -2.505536,3.005088 -2.772959,2.876506" />
      <path d="M -2.772959,2.876506 C -2.858581,2.841697 -2.963557,2.966135 -2.998358,3.023103" />
      <path d="M -2.998358,3.023103 C -3.156283,3.20949 -3.497234,3.379119 -3.874419,3.475792 C -4.258586,3.573985 -4.666583,3.611901 -5.159402,3.579396" />
      <path d="M -5.160699,2.986824 C -5.160133,2.58748 -5.089913,2.249915 -4.956002,1.938678 C -4.824124,1.632334 -4.617182,1.362041 -4.402376,1.240195" />
      <path d="M -5.159402,3.579396 L -5.160699,3.485782" />
      <path d="M -5.160699,3.485782 C -5.160133,3.086438 -5.089913,2.748873 -4.956002,2.437636 C -4.824124,2.131292 -4.617182,1.860999 -4.402376,1.739153" />
      <line x1="-4.402376" y1="1.240195" x2="-4.402376" y2="1.739153" />
      <path d="M -4.402376,1.240195 L -4.376861,1.228978" />
      <path d="M -4.402376,1.739153 C -4.341764,1.714818 -4.216276,1.645031 -4.215879,1.575871" />
      <path d="M -4.215879,1.575871 Q -4.215802,1.563811 -4.221358,1.55197" />
      <path d="M -4.221358,1.55197 Q -4.355154,1.313645 -4.439337,1.058848" />
      <path d="M -4.439337,1.058848 C -4.471479,0.981765 -4.647241,1.005427 -4.71833,1.024384" />
      <path d="M -4.71833,1.024384 C -4.982079,1.059402 -5.361574,0.970415 -5.707162,0.807635 C -6.058928,0.641651 -6.378362,0.418443 -6.700316,0.09346" />
      <line x1="-6.700316" y1="-0.405498" x2="-6.700316" y2="0.09346" />
      <path d="M -6.700316,-0.405498 L -6.630874,-0.467258" />
      <path d="M -5.058588,-1.241387 Q -4.834893,-1.272359 -4.663507,-1.242842" />
      <path d="M -6.700316,0.09346 C -6.35869,-0.216071 -6.025886,-0.424092 -5.664342,-0.573466 C -5.309166,-0.719928 -4.924705,-0.791127 -4.663507,-0.743885" />
      <line x1="-4.663507" y1="-1.242842" x2="-4.663507" y2="-0.743885" />
      <path d="M -4.663507,-1.242842 C -4.593695,-1.220605 -4.419652,-1.188797 -4.38278,-1.264273" />
      <path d="M -4.663507,-0.743885 C -4.593695,-0.721647 -4.419652,-0.689839 -4.38278,-0.765316" />
      <line x1="-4.38278" y1="-1.264273" x2="-4.38278" y2="-0.765316" />
      <path d="M -4.38278,-1.264273 Q -4.346751,-1.354727 -4.304136,-1.443186" />
      <path d="M -4.38278,-0.765316 Q -4.282931,-1.015827 -4.134561,-1.247583" />
      <line x1="-4.134561" y1="-1.304712" x2="-4.134561" y2="-1.247583" />
      <path d="M -4.134561,-1.247583 Q -4.127386,-1.260851 -4.1275,-1.274723" />
      <path d="M -4.1275,-1.274723 C -4.127863,-1.342858 -4.24569,-1.416248 -4.303719,-1.442919" />
      <path d="M -4.958826,-3.527999 Q -4.958953,-3.66481 -4.945625,-3.814694" />
      <path d="M -4.303719,-1.442919 C -4.493159,-1.563445 -4.669824,-1.809472 -4.783532,-2.089468 C -4.899453,-2.371304 -4.957884,-2.684495 -4.958826,-3.029042" />
      <path d="M -4.958826,-3.029042 Q -4.958953,-3.165852 -4.945625,-3.315736" />
      <line x1="-4.945625" y1="-3.814694" x2="-4.945625" y2="-3.315736" />
      <path d="M -4.945625,-3.814694 C -4.451504,-3.824219 -4.046445,-3.76737 -3.668916,-3.65144 C -3.298266,-3.537354 -2.968318,-3.352103 -2.822169,-3.158635" />
      <path d="M -4.945625,-3.315736 C -4.451504,-3.325261 -4.046445,-3.268412 -3.668916,-3.152482 C -3.298266,-3.038396 -2.968318,-2.853145 -2.822169,-2.659678" />
      <line x1="-2.822169" y1="-3.158635" x2="-2.822169" y2="-2.659678" />
      <path d="M -2.822169,-3.158635 C -2.790948,-3.100131 -2.693835,-2.970986 -2.606179,-3.001761" />
      <path d="M -2.822169,-2.659678 C -2.790948,-2.601173 -2.693835,-2.472028 -2.606179,-2.502803" />
      <line x1="-2.606179" y1="-3.001761" x2="-2.606179" y2="-2.502803" />
      <path d="M -2.606179,-3.001761 Q -2.331175,-3.117712 -2.037165,-3.190667" />
      <path d="M -2.606179,-2.502803 Q -2.331175,-2.618754 -2.037165,-2.691709" />
      <line x1="-2.037165" y1="-3.190667" x2="-2.037165" y2="-2.691709" />
      <path d="M -2.037165,-3.190667 Q -2.018346,-3.196622 -2.005997,-3.209298" />
      <path d="M -2.037165,-2.691709 C -1.990106,-2.70615 -1.975585,-2.756149 -1.975604,-2.808603" />
      <path d="M -1.975604,-2.808603 C -1.975617,-2.85538 -1.987029,-2.904217 -1.997397,-2.933492" />
      <path d="M -2.005997,-3.538507 C -2.006245,-3.777105 -1.889811,-4.079639 -1.70469,-4.355541 C -1.516215,-4.63558 -1.2715,-4.891013 -0.923204,-5.150091" />
      <path d="M -1.997397,-2.933492 Q -2.00601,-2.983356 -2.005997,-3.03955" />
      <path d="M -2.005997,-3.03955 C -2.006245,-3.278147 -1.889811,-3.580682 -1.70469,-3.856583 C -1.516215,-4.136623 -1.2715,-4.392055 -0.923204,-4.651133" />
      <line x1="-0.923204" y1="-5.150091" x2="-0.923204" y2="-4.651133" />
      <path d="M -0.923204,-5.150091 C -0.602377,-4.884257 -0.378927,-4.627035 -0.209326,-4.349254 C -0.042639,-4.075262 0.059765,-3.779217 0.059648,-3.539295" />
      <path d="M -0.923204,-4.651133 C -0.602377,-4.385299 -0.378927,-4.128077 -0.209326,-3.850296 C -0.042639,-3.576304 0.059765,-3.280259 0.059648,-3.040337" />
      <path d="M 0.059648,-3.040337 Q 0.059678,-2.956652 0.043008,-2.885981" />
      <path d="M 0.059648,-3.145082 L 0.067737,-3.141654" />
      <path d="M 0.043008,-2.885981 C 0.029428,-2.853883 0.013012,-2.797462 0.01299,-2.746046" />
      <path d="M 0.01299,-2.746046 C 0.012975,-2.699776 0.026436,-2.65757 0.067737,-2.642696" />
      <line x1="0.067737" y1="-3.141654" x2="0.067737" y2="-2.642696" />
      <path d="M 0.067737,-3.141654 Q 0.356802,-3.055121 0.624225,-2.92654" />
      <path d="M 0.067737,-2.642696 Q 0.356802,-2.556164 0.624225,-2.427582" />
      <line x1="0.624225" y1="-2.92654" x2="0.624225" y2="-2.427582" />
      <path d="M 0.624225,-2.92654 C 0.709847,-2.891731 0.814822,-3.016169 0.849623,-3.073137" />
      <path d="M 0.624225,-2.427582 C 0.709847,-2.392773 0.814822,-2.517211 0.849623,-2.574179" />
      <line x1="0.849623" y1="-3.073137" x2="0.849623" y2="-2.574179" />
      <path d="M 0.849623,-3.073137 C 1.007549,-3.259523 1.3485,-3.429153 1.725685,-3.525825 C 2.109852,-3.624019 2.517849,-3.661935 3.010667,-3.62943" />
      <path d="M 0.849623,-2.574179 C 1.007549,-2.760566 1.3485,-2.930195 1.725685,-3.026868 C 2.109852,-3.125061 2.517849,-3.162978 3.010667,-3.130472" />
      <line x1="3.010667" y1="-3.62943" x2="3.010667" y2="-3.130472" />
      <path d="M 3.010667,-3.62943 L 3.011965,-3.535816" />
      <path d="M 3.010667,-3.130472 L 3.011965,-3.036858" />
      <path d="M 3.011965,-3.036858 C 3.011399,-2.637514 2.941179,-2.299949 2.807268,-1.988712 C 2.67539,-1.682368 2.468447,-1.412075 2.253641,-1.290229" />
      <path d="M 2.253641,-1.290229 C 2.19303,-1.265894 2.067541,-1.196107 2.067145,-1.126948" />
      <path d="M 2.067145,-1.126948 Q 2.067068,-1.114888 2.072624,-1.103047" />
      <path d="M 4.828602,0.626043 Q 4.822245,0.534816 4.822242,0.443265" />
      <path d="M 4.822242,0.443265 Q 4.822262,0.270005 4.844968,0.098166" />
      <line x1="4.844968" y1="0.091417" x2="4.844968" y2="0.098166" />
      <path d="M 4.844968,0.098166 L 4.845072,0.094779" />
      <path d="M 4.845072,0.094779 C 4.844466,0.015264 4.675474,-0.020212 4.602431,-0.026201" />
      <path d="M 4.602431,-0.026201 C 4.373117,-0.073524 4.091487,-0.251008 3.862834,-0.474756 C 3.62997,-0.702795 3.443242,-0.964369 3.282584,-1.303971" />
      <line x1="3.282584" y1="-1.802929" x2="3.282584" y2="-1.303971" />
      <path d="M 3.282584,-1.802929 Q 3.361273,-1.973384 3.455047,-2.138009" />
      <path d="M 3.282584,-1.303971 Q 3.361273,-1.474426 3.455047,-1.639051" />
      <line x1="3.455047" y1="-2.138009" x2="3.455047" y2="-1.639051" />
      <path d="M 3.455047,-2.138009 C 3.853957,-2.261307 4.203292,-2.315662 4.554659,-2.317863 C 4.899528,-2.319913 5.240072,-2.256893 5.43391,-2.140644" />
      <path d="M 3.455047,-1.639051 C 3.853957,-1.762349 4.203292,-1.816705 4.554659,-1.818905 C 4.899528,-1.820955 5.240072,-1.757935 5.43391,-1.641686" />
      <line x1="5.43391" y1="-2.140644" x2="5.43391" y2="-1.641686" />
      <path d="M 5.43391,-2.140644 C 5.488588,-2.096946 5.635337,-2.00984 5.702731,-2.067342" />
      <path d="M 5.43391,-1.641686 C 5.488588,-1.597989 5.635337,-1.510882 5.702731,-1.568384" />
      <line x1="5.702731" y1="-2.067342" x2="5.702731" y2="-1.568384" />
      <path d="M 5.702731,-2.067342 Q 5.840072,-2.201657 5.994984,-2.3212" />
      <path d="M 5.702731,-1.568384 Q 5.9056,-1.766712 6.145014,-1.931621" />
      <line x1="6.145014" y1="-2.070531" x2="6.145014" y2="-1.931621" />
      <path d="M 6.145014,-1.931621 Q 6.171158,-1.953417 6.170267,-1.986629" />
      <path d="M 6.170267,-1.986629 C 6.170124,-2.049412 6.110382,-2.131042 6.074989,-2.168188" />
      <path d="M 5.913865,-3.312334 Q 5.914356,-3.566514 5.98086,-3.830975 Q 6.045271,-4.091549 6.184288,-4.379464" />
      <path d="M 6.074989,-2.168188 C 5.969193,-2.317191 5.91301,-2.560218 5.913865,-2.813376" />
      <path d="M 5.913865,-2.813376 Q 5.914356,-3.067556 5.98086,-3.332018 Q 6.045271,-3.592591 6.184288,-3.880507" />
      <line x1="6.184288" y1="-4.379464" x2="6.184288" y2="-3.880507" />
      <path d="M 6.184288,-4.379464 Q 6.37901,-4.451774 6.57964,-4.510717" />
      <path d="M 6.184288,-3.880507 Q 6.37901,-3.952816 6.57964,-4.011759" />
      <line x1="6.57964" y1="-4.510717" x2="6.57964" y2="-4.011759" />
      <path d="M 6.57964,-4.510717 C 6.962314,-4.35345 7.253682,-4.177814 7.503931,-3.964054 C 7.749463,-3.754168 7.938844,-3.500922 7.981057,-3.299938" />
      <path d="M 6.57964,-4.011759 C 6.962314,-3.854493 7.253682,-3.678856 7.503931,-3.465096 C 7.749463,-3.25521 7.938844,-3.001964 7.981057,-2.80098" />
      <line x1="7.981057" y1="-3.299938" x2="7.981057" y2="-2.80098" />
      <path d="M 7.981057,-3.299938 C 7.984067,-3.235532 8.01676,-3.084011 8.111333,-3.083373" />
      <path d="M 7.981057,-2.80098 C 7.984067,-2.736575 8.01676,-2.585054 8.111333,-2.584415" />
      <line x1="8.111333" y1="-3.083373" x2="8.111333" y2="-2.584415" />
      <path d="M 8.111333,-3.083373 Q 8.416605,-3.099294 8.720451,-3.06919" />
      <path d="M 8.111333,-2.584415 Q 8.416605,-2.600337 8.720451,-2.570232" />
      <line x1="8.720451" y1="-3.06919" x2="8.720451" y2="-2.570232" />
      <path d="M 8.720451,-3.06919 C 8.814926,-3.065426 8.856962,-3.215207 8.863958,-3.279379" />
      <path d="M 8.720451,-2.570232 C 8.814926,-2.566468 8.856962,-2.716249 8.863958,-2.780422" />
      <line x1="8.863958" y1="-3.279379" x2="8.863958" y2="-2.780422" />
      <path d="M 8.863958,-3.279379 C 8.918563,-3.478109 9.123363,-3.722177 9.381546,-3.920333 C 9.64468,-4.122139 9.94651,-4.283962 10.338377,-4.423193" />
      <path d="M 8.863958,-2.780422 C 8.918563,-2.979151 9.123363,-3.223219 9.381546,-3.421375 C 9.64468,-3.623181 9.94651,-3.785005 10.338377,-3.924236" />
      <line x1="10.338377" y1="-4.423193" x2="10.338377" y2="-3.924236" />
      <path d="M 10.338377,-4.423193 Q 10.535065,-4.354999 10.725025,-4.273732" />
      <path d="M 10.338377,-3.924236 Q 10.535065,-3.856041 10.725025,-3.774774" />
      <line x1="10.725025" y1="-4.273732" x2="10.725025" y2="-3.774774" />
      <path d="M 10.725025,-4.273732 C 10.86828,-3.925632 10.930974,-3.620828 10.93257,-3.314331" />
      <path d="M 10.725025,-3.774774 C 10.86828,-3.426674 10.930974,-3.12187 10.93257,-2.815374" />
      <path d="M 10.93257,-2.815374 C 10.933936,-2.51882 10.861217,-2.22658 10.728066,-2.05984" />
      <path d="M 10.728066,-2.05984 C 10.689276,-2.023316 10.621664,-1.940738 10.621494,-1.877242" />
      <path d="M 10.621494,-1.877242 Q 10.62079,-1.8477 10.643483,-1.826873" />
      <line x1="10.643483" y1="-1.950333" x2="10.643483" y2="-1.826873" />
      <path d="M 10.8087,-2.190397 Q 10.943592,-2.072372 11.062621,-1.942536" />
      <path d="M 10.643483,-1.826873 Q 10.872334,-1.651061 11.062621,-1.443578" />
      <line x1="11.062621" y1="-1.942536" x2="11.062621" y2="-1.443578" />
      <path d="M 11.062621,-1.942536 C 11.126355,-1.88198 11.278289,-1.962132 11.335596,-2.003221" />
      <path d="M 11.062621,-1.443578 C 11.126355,-1.383022 11.278289,-1.463174 11.335596,-1.504264" />
      <line x1="11.335596" y1="-2.003221" x2="11.335596" y2="-1.504264" />
      <path d="M 11.335596,-2.003221 C 11.536358,-2.110282 11.880315,-2.157363 12.22456,-2.139267 C 12.575284,-2.120718 12.920746,-2.050184 13.311441,-1.9085" />
      <path d="M 11.335596,-1.504264 C 11.536358,-1.611324 11.880315,-1.658406 12.22456,-1.64031 C 12.575284,-1.62176 12.920746,-1.551226 13.311441,-1.409542" />
      <line x1="13.311441" y1="-1.9085" x2="13.311441" y2="-1.409542" />
      <path d="M 13.311441,-1.9085 Q 13.394878,-1.739749 13.462893,-1.565878" />
      <path d="M 13.311441,-1.409542 Q 13.394878,-1.240791 13.462893,-1.06692" />
      <line x1="13.462893" y1="-1.565878" x2="13.462893" y2="-1.06692" />
      <path d="M 13.462893,-1.06692 C 13.281423,-0.735284 13.078757,-0.482778 12.832098,-0.265905 C 12.589911,-0.05312 12.29769,0.111002 12.065775,0.147585" />
      <path d="M 12.065775,0.147585 C 11.991458,0.150193 11.816618,0.178527 11.815881,0.260486" />
      <path d="M 11.815881,0.260486 Q 11.822238,0.351713 11.822242,0.443265" />
      <path d="M 11.822242,0.443265 Q 11.822221,0.616524 11.799515,0.788363" />
      <path d="M 11.822242,0.33986 C 11.871463,0.386839 11.985131,0.409064 12.042053,0.413772" />
      <path d="M 11.799515,0.788363 L 11.799411,0.79175" />
      <path d="M 11.799411,0.79175 C 11.800017,0.871265 11.969009,0.906742 12.042053,0.91273" />
      <line x1="12.042053" y1="0.413772" x2="12.042053" y2="0.91273" />
      <path d="M 12.042053,0.413772 C 12.271366,0.461095 12.552996,0.63858 12.781649,0.862328 C 13.014513,1.090366 13.201241,1.35194 13.3619,1.691542" />
      <path d="M 12.042053,0.91273 C 12.271366,0.960053 12.552996,1.137537 12.781649,1.361285 C 13.014513,1.589324 13.201241,1.850898 13.3619,2.1905" />
      <line x1="13.3619" y1="1.691542" x2="13.3619" y2="2.1905" />
      <path d="M 13.3619,2.1905 Q 13.28321,2.360956 13.189436,2.52558" />
      <path d="M 13.189436,2.52558 C 12.790526,2.648878 12.441191,2.703234 12.089824,2.705434 C 11.744955,2.707484 11.404411,2.644464 11.210573,2.528215" />
      <path d="M 11.210573,2.528215 C 11.155895,2.484518 11.009146,2.397411 10.941753,2.454914" />
      <path d="M 10.941753,2.454914 Q 10.738883,2.653241 10.499469,2.81815" />
      <path d="M 10.499469,2.81815 Q 10.473326,2.839946 10.474216,2.873158" />
      <path d="M 10.474216,2.873158 C 10.474359,2.935941 10.534101,3.017571 10.569494,3.054717" />
      <line x1="10.569494" y1="2.768644" x2="10.569494" y2="3.054717" />
      <path d="M 10.649499,2.708771 C 10.703795,2.848463 10.730777,3.02156 10.730618,3.200947" />
      <path d="M 10.569494,3.054717 C 10.675291,3.20372 10.731473,3.446747 10.730618,3.699905" />
      <path d="M 10.730618,3.699905 Q 10.730127,3.954085 10.663623,4.218547 Q 10.599212,4.47912 10.460195,4.767036" />
      <path d="M 10.460195,4.767036 Q 10.265473,4.839345 10.064843,4.898288" />
      <path d="M 10.064843,4.898288 C 9.682169,4.741022 9.390801,4.565386 9.140552,4.351625 C 8.89502,4.141739 8.705639,3.888493 8.663426,3.687509" />
      <path d="M 8.663426,3.687509 C 8.660416,3.623104 8.627723,3.471583 8.53315,3.470945" />
      <path d="M 8.53315,3.470945 Q 8.227878,3.486866 7.924033,3.456761" />
      <path d="M 7.924033,3.456761 C 7.829557,3.452997 7.787522,3.602778 7.780526,3.666951" />
      <path d="M 7.780526,3.666951 C 7.72592,3.86568 7.52112,4.109748 7.262937,4.307904 C 6.999803,4.509711 6.697974,4.671534 6.306106,4.810765" />
      <path d="M 6.306106,4.810765 Q 6.109418,4.74257 5.919458,4.661304" />
      <path d="M 5.711914,3.202945 C 5.711538,2.972631 5.753337,2.747261 5.835783,2.577969" />
      <path d="M 5.919458,4.661304 C 5.776204,4.313203 5.713509,4.008399 5.711914,3.701903" />
      <path d="M 5.711914,3.701903 C 5.710547,3.405349 5.783266,3.113109 5.916417,2.946369" />
      <line x1="5.916417" y1="2.646271" x2="5.916417" y2="2.946369" />
      <path d="M 5.916417,2.946369 C 5.955207,2.909845 6.022819,2.827267 6.022989,2.763771" />
      <path d="M 6.022989,2.763771 Q 6.023693,2.734229 6.001,2.713402" />
      <path d="M 6.001,2.713402 Q 5.77215,2.53759 5.581862,2.330107" />
      <path d="M 5.581862,2.330107 C 5.518128,2.269551 5.366194,2.349703 5.308887,2.390793" />
      <path d="M 5.308887,2.390793 C 5.108125,2.497853 4.764168,2.544935 4.419923,2.526839 C 4.0692,2.508289 3.723737,2.437755 3.333042,2.296071" />
      <path d="M 3.333042,2.296071 Q 3.249605,2.12732 3.181591,1.953449" />
      <line x1="3.181591" y1="1.454491" x2="3.181591" y2="1.953449" />
      <path d="M 3.181591,1.454491 Q 3.303865,1.230865 3.441099,1.05165" />
      <path d="M 4.551581,0.244851 L 4.578708,0.239986" />
      <path d="M 3.181591,1.953449 C 3.36306,1.621813 3.565727,1.369307 3.812385,1.152434 C 4.054572,0.939649 4.346793,0.775527 4.578708,0.738944" />
      <line x1="4.578708" y1="0.239986" x2="4.578708" y2="0.738944" />
      <path d="M 4.578708,0.239986 C 4.644851,0.237624 4.789492,0.21517 4.822242,0.152729" />
      <path d="M 4.578708,0.738944 C 4.653026,0.736336 4.827866,0.708002 4.828602,0.626043" />
      <path d="M -6.971228,-0.18612 L -6.971228,0.021953" />
      <path d="M -7.601991,2.777778 L -7.601991,3.276736" />
      <path d="M -12.142234,2.777921 L -12.142234,3.276878" />
      <path d="M -12.571228,-0.37324 L -12.571228,0.021953" />
      <path d="M -11.940466,-3.731788 L -11.940466,-3.23283" />
      <path d="M -7.400223,-3.73193 L -7.400223,-3.232972" />
      <path d="M 2.810091,2.979008 L 2.810091,3.477966" />
      <path d="M -0.142738,3.159264 L -0.142738,3.488474" />
      <path d="M -2.208382,3.095048 L -2.208382,3.489261" />
      <path d="M -5.160699,2.986824 L -5.160699,3.485782" />
      <path d="M -4.958826,-3.527999 L -4.958826,-3.029042" />
      <path d="M -2.005997,-3.538507 L -2.005997,-3.03955" />
      <path d="M 0.059648,-3.539295 L 0.059648,-3.040337" />
      <path d="M 3.011965,-3.535816 L 3.011965,-3.036858" />
      <path d="M 4.822242,0.047711 L 4.822242,0.443265" />
      <path d="M 5.913865,-3.312334 L 5.913865,-2.813376" />
      <path d="M 10.93257,-3.314331 L 10.93257,-2.815374" />
      <path d="M 11.822242,0.234843 L 11.822242,0.443265" />
      <path d="M 10.730618,3.200947 L 10.730618,3.699905" />
      <path d="M 5.711914,3.202945 L 5.711914,3.701903" />
    </g>
  </g>
</svg>