<?xml version='1.0' encoding='utf-8'?>
<svg width="100.09mm" height="87.655214mm" viewBox="-15.648541 -10.749586 28.0252 24.54346" version="1.1" xmlns="http://www.w3.org/2000/svg">
  <g transform="scale(1,-1)" stroke-linecap="round">
    <g fill="none" stroke="rgb(0,0,0)" stroke-width="0.0252" id="Visible">
      <path d="M 6.627207,4.513918 Q 6.491762,4.723235 6.328944,4.917693" />
      <path d="M 6.43045,4.791585 Q 6.474054,4.836249 6.52422,4.875851" />
      <path d="M 6.328944,4.917693 Q 6.288637,4.967808 6.288907,5.032121" />
      <path d="M 6.288907,5.032121 C 6.288847,5.139369 6.371111,5.256372 6.473602,5.34798 C 6.577887,5.438993 6.69844,5.515617 6.83526,5.577852" />
      <line x1="6.83526" y1="5.500724" x2="6.83526" y2="5.577852" />
      <path d="M 6.83526,5.577852 C 7.135356,5.849896 7.324902,6.338168 7.396377,6.746681" />
      <line x1="7.396377" y1="6.605822" x2="7.396377" y2="6.746681" />
      <path d="M 7.396377,6.746681 Q 7.177464,6.935634 6.939897,7.107229" />
      <path d="M 6.939897,7.107229 C 6.470801,7.012773 5.918627,6.810921 5.626876,6.532286" />
      <path d="M 5.626876,6.532286 C 5.550695,6.386717 5.458528,6.2564 5.327009,6.149962 C 5.199401,6.045107 5.023962,5.981802 4.900755,6.045738" />
      <path d="M 4.900755,6.045738 Q 4.661371,6.168956 4.406949,6.267573" />
      <path d="M 4.406949,6.267573 C 4.303815,6.307331 4.254781,6.416966 4.256186,6.534549" />
      <path d="M 4.256186,6.534549 Q 4.259512,6.671628 4.317004,6.80413 Q 4.371954,6.933218 4.460393,7.056311" />
      <line x1="4.460393" y1="7.048622" x2="4.460393" y2="7.056311" />
      <path d="M 4.460393,7.056311 Q 4.498003,7.193955 4.49736,7.353484" />
      <path d="M 4.49736,7.353484 C 4.497088,7.668274 4.396826,8.020039 4.264614,8.309059" />
      <path d="M 4.264614,8.309059 Q 3.964823,8.378863 3.659,8.425641" />
      <path d="M 3.659,8.425641 C 3.307842,8.14277 2.947377,7.731281 2.857227,7.364923" />
      <line x1="2.857227" y1="7.054954" x2="2.857227" y2="7.364923" />
      <path d="M 2.857227,7.364923 Q 2.867505,7.281946 2.867626,7.202882" />
      <path d="M 2.867626,7.202882 C 2.86753,7.077003 2.847126,6.946287 2.788852,6.831997 C 2.732221,6.718693 2.63018,6.630326 2.512168,6.632321" />
      <path d="M 2.512168,6.632321 Q 2.232988,6.636424 1.955134,6.612775" />
      <path d="M 1.955134,6.612775 C 1.818146,6.60068 1.694805,6.711803 1.630232,6.845755 C 1.563162,6.981927 1.541199,7.128931 1.540854,7.278872" />
      <path d="M 1.540854,7.278872 L 1.541385,7.31875" />
      <line x1="1.541385" y1="7.240124" x2="1.541385" y2="7.31875" />
      <path d="M 1.541385,7.31875 C 1.41661,7.677566 1.01812,8.062423 0.641169,8.319744" />
      <path d="M 0.641169,8.319744 Q 0.340829,8.251697 0.048696,8.161122" />
      <path d="M -0.099338,6.833483 Q -0.101123,6.585859 -0.026996,6.38397" />
      <path d="M 0.048696,8.161122 C -0.038657,7.911805 -0.099205,7.621376 -0.099338,7.348361" />
      <path d="M -0.099338,7.348361 Q -0.101123,7.100737 -0.026996,6.898847" />
      <line x1="-0.026996" y1="6.38397" x2="-0.026996" y2="6.898847" />
      <path d="M -0.026996,6.38397 Q 0.073504,6.266784 0.140782,6.141113" />
      <path d="M -0.026996,6.898847 C 0.044952,6.815159 0.10409,6.727951 0.150419,6.637221 C 0.196162,6.545824 0.228217,6.445606 0.22835,6.350708" />
      <path d="M 0.22835,6.350708 C 0.229299,6.249641 0.187992,6.157627 0.101465,6.116493" />
      <path d="M 0.101465,6.116493 Q -0.142704,6.00038 -0.36954,5.860803" />
      <path d="M -0.36954,5.860803 C -0.48624,5.788448 -0.667127,5.83925 -0.804305,5.934813 C -0.945531,6.031681 -1.049814,6.155104 -1.139617,6.294849" />
      <path d="M -1.139617,6.294849 C -1.456957,6.55211 -2.026527,6.714601 -2.503059,6.775874" />
      <path d="M -2.503059,6.775874 Q -2.723472,6.588208 -2.923639,6.38455" />
      <line x1="-2.923639" y1="5.869672" x2="-2.923639" y2="6.38455" />
      <path d="M -2.923639,5.869672 C -2.813456,5.467533 -2.577995,4.994175 -2.252967,4.744067" />
      <path d="M -2.923639,6.38455 C -2.813456,5.982411 -2.577995,5.509052 -2.252967,5.258945" />
      <line x1="-2.252967" y1="4.744067" x2="-2.252967" y2="5.258945" />
      <path d="M -2.252967,4.744067 C -2.077069,4.6764 -1.918912,4.593482 -1.793353,4.474128" />
      <path d="M -2.252967,5.258945 C -2.106301,5.20504 -1.975492,5.134517 -1.860537,5.047375 C -1.747605,4.959595 -1.655309,4.842886 -1.655491,4.734264" />
      <path d="M -1.655491,4.734264 Q -1.655326,4.680967 -1.685407,4.636468" />
      <path d="M -1.685407,4.636468 Q -1.829142,4.431253 -1.944178,4.213146" />
      <path d="M -1.944178,4.213146 C -2.003042,4.100464 -2.189325,4.066926 -2.363862,4.090887 C -2.542665,4.114243 -2.704964,4.176431 -2.864242,4.258962" />
      <path d="M -2.864242,4.258962 C -3.289114,4.345735 -3.87715,4.24232 -4.325576,4.091127" />
      <path d="M -4.325576,4.091127 Q -4.407003,3.834127 -4.461569,3.571957" />
      <line x1="-4.461569" y1="3.057079" x2="-4.461569" y2="3.571957" />
      <path d="M -4.461569,3.057079 C -4.1316,2.756044 -3.651597,2.44703 -3.224239,2.369748" />
      <path d="M -4.461569,3.571957 C -4.1316,3.270922 -3.651597,2.961908 -3.224239,2.884625" />
      <line x1="-3.224239" y1="2.369748" x2="-3.224239" y2="2.884625" />
      <path d="M -3.224239,2.369748 C -3.043091,2.385636 -2.869805,2.382795 -2.699707,2.341276 C -2.533206,2.301573 -2.380458,2.209748 -2.370368,2.090327" />
      <path d="M -3.224239,2.884625 C -3.039451,2.900822 -2.862123,2.897594 -2.68912,2.853438 C -2.519679,2.811366 -2.367878,2.713393 -2.369651,2.590301" />
      <path d="M -2.369651,2.590301 L -2.369658,2.588819" />
      <path d="M -2.369658,2.588819 L -2.370368,2.518064" />
      <path d="M -2.370368,2.518064 Q -2.370357,2.314137 -2.346857,2.111294" />
      <line x1="-2.346857" y1="2.078756" x2="-2.346857" y2="2.111294" />
      <path d="M -2.346857,2.111294 L -2.346002,2.095031" />
      <path d="M -2.346002,2.095031 C -2.34458,1.975279 -2.488053,1.873011 -2.650233,1.821756 C -2.815826,1.768436 -2.988293,1.753458 -3.170378,1.756602" />
      <path d="M -3.170378,1.756602 C -3.588939,1.649637 -4.037875,1.308026 -4.338041,0.984879" />
      <line x1="-4.338041" y1="0.470002" x2="-4.338041" y2="0.984879" />
      <path d="M -4.338041,0.470002 Q -4.258663,0.212531 -4.153007,-0.037904" />
      <path d="M -4.338041,0.984879 Q -4.258663,0.727409 -4.153007,0.476974" />
      <line x1="-4.153007" y1="-0.037904" x2="-4.153007" y2="0.476974" />
      <path d="M -4.153007,-0.037904 C -3.691666,-0.157173 -3.095739,-0.219042 -2.680561,-0.102792" />
      <path d="M -4.153007,0.476974 C -3.691666,0.357705 -3.095739,0.295835 -2.680561,0.412086" />
      <line x1="-2.680561" y1="-0.102792" x2="-2.680561" y2="0.412086" />
      <path d="M -2.680561,-0.102792 C -2.529683,-0.009378 -2.373857,0.063974 -2.197879,0.099778 C -2.02621,0.135888 -1.837352,0.115514 -1.767943,0.007333" />
      <path d="M -2.680561,0.412086 C -2.529683,0.5055 -2.373857,0.578851 -2.197879,0.614656 C -2.02621,0.650766 -1.837352,0.630391 -1.767943,0.522211" />
      <line x1="-1.767943" y1="0.007333" x2="-1.767943" y2="0.522211" />
      <path d="M -1.767943,0.007333 Q -1.675995,-0.13478 -1.571185,-0.270334" />
      <path d="M -1.767943,0.522211 Q -1.632497,0.312893 -1.46968,0.118435" />
      <line x1="-1.46968" y1="-0.135934" x2="-1.46968" y2="0.118435" />
      <path d="M -1.46968,0.118435 Q -1.429372,0.06832 -1.429643,0.004008" />
      <path d="M -1.429643,0.004008 C -1.429582,-0.10324 -1.511847,-0.220244 -1.614338,-0.311852 C -1.718622,-0.402864 -1.839175,-0.479488 -1.975996,-0.541724" />
      <path d="M -1.975996,-0.541724 C -2.276092,-0.813767 -2.465637,-1.302039 -2.537113,-1.710553" />
      <line x1="-2.537113" y1="-2.22543" x2="-2.537113" y2="-1.710553" />
      <path d="M -2.537113,-2.22543 Q -2.3182,-2.414383 -2.080632,-2.585978" />
      <path d="M -2.537113,-1.710553 Q -2.3182,-1.899505 -2.080632,-2.071101" />
      <line x1="-2.080632" y1="-2.585978" x2="-2.080632" y2="-2.071101" />
      <path d="M -2.080632,-2.585978 C -1.611536,-2.491523 -1.059362,-2.28967 -0.767611,-2.011036" />
      <path d="M -2.080632,-2.071101 C -1.611536,-1.976645 -1.059362,-1.774792 -0.767611,-1.496158" />
      <line x1="-0.767611" y1="-2.011036" x2="-0.767611" y2="-1.496158" />
      <path d="M -0.767611,-2.011036 C -0.691431,-1.865466 -0.599263,-1.735149 -0.467745,-1.628712 C -0.340136,-1.523857 -0.164698,-1.460552 -0.041491,-1.524487" />
      <path d="M -0.767611,-1.496158 C -0.691431,-1.350588 -0.599263,-1.220272 -0.467745,-1.113834 C -0.340136,-1.008979 -0.164698,-0.945674 -0.041491,-1.00961" />
      <line x1="-0.041491" y1="-1.524487" x2="-0.041491" y2="-1.00961" />
      <path d="M -0.041491,-1.524487 Q 0.197893,-1.647706 0.452315,-1.746322" />
      <path d="M -0.041491,-1.00961 Q 0.197893,-1.132828 0.452315,-1.231445" />
      <line x1="0.452315" y1="-1.746322" x2="0.452315" y2="-1.231445" />
      <path d="M 0.452315,-1.746322 Q 0.497199,-1.764327 0.529239,-1.79783" />
      <path d="M 0.452315,-1.231445 C 0.555449,-1.271203 0.604483,-1.380837 0.603078,-1.49842" />
      <path d="M 0.603078,-1.49842 Q 0.599752,-1.635499 0.542261,-1.768001 Q 0.487311,-1.89709 0.398871,-2.020182" />
      <path d="M 0.361904,-2.832234 C 0.362177,-3.147023 0.462439,-3.498788 0.594651,-3.787808" />
      <path d="M 0.398871,-2.020182 Q 0.361261,-2.157827 0.361904,-2.317356" />
      <path d="M 0.361904,-2.317356 C 0.362177,-2.632146 0.462439,-2.983911 0.594651,-3.272931" />
      <line x1="0.594651" y1="-3.787808" x2="0.594651" y2="-3.272931" />
      <path d="M 0.594651,-3.787808 Q 0.894442,-3.857613 1.200264,-3.90439" />
      <path d="M 0.594651,-3.272931 Q 0.894442,-3.342735 1.200264,-3.389512" />
      <line x1="1.200264" y1="-3.90439" x2="1.200264" y2="-3.389512" />
      <path d="M 1.200264,-3.90439 C 1.551422,-3.621519 1.911888,-3.21003 2.002038,-2.843672" />
      <path d="M 1.200264,-3.389512 C 1.551422,-3.106642 1.911888,-2.695153 2.002038,-2.328794" />
      <line x1="2.002038" y1="-2.843672" x2="2.002038" y2="-2.328794" />
      <path d="M 2.002038,-2.533703 C 2.01686,-2.432764 2.049826,-2.329984 2.10865,-2.247958 C 2.166556,-2.166089 2.252683,-2.109729 2.347097,-2.111071" />
      <path d="M 2.002038,-2.328794 Q 1.991759,-2.245818 1.991639,-2.166753" />
      <path d="M 1.991639,-2.166753 C 1.991735,-2.040875 2.012139,-1.910158 2.070412,-1.795869 C 2.127044,-1.682564 2.229084,-1.594198 2.347097,-1.596193" />
      <line x1="2.347097" y1="-2.111071" x2="2.347097" y2="-1.596193" />
      <path d="M 2.347097,-2.111071 Q 2.626276,-2.115173 2.904131,-2.091524" />
      <path d="M 2.347097,-1.596193 Q 2.626276,-1.600295 2.904131,-1.576647" />
      <line x1="2.904131" y1="-2.091524" x2="2.904131" y2="-1.576647" />
      <path d="M 2.904131,-2.091524 C 3.034953,-2.07999 3.154406,-2.181207 3.220172,-2.307476 C 3.288191,-2.435443 3.313692,-2.577339 3.317879,-2.718873" />
      <path d="M 2.904131,-1.576647 C 3.041118,-1.564552 3.16446,-1.675674 3.229032,-1.809627 C 3.296103,-1.945798 3.318066,-2.092802 3.318411,-2.242744" />
      <path d="M 3.318411,-2.242744 L 3.317879,-2.282621" />
      <line x1="3.317879" y1="-2.797499" x2="3.317879" y2="-2.282621" />
      <path d="M 3.317879,-2.797499 C 3.442655,-3.156316 3.841145,-3.541172 4.218096,-3.798494" />
      <path d="M 3.317879,-2.282621 C 3.442655,-2.641438 3.841145,-3.026295 4.218096,-3.283616" />
      <line x1="4.218096" y1="-3.798494" x2="4.218096" y2="-3.283616" />
      <path d="M 4.218096,-3.798494 Q 4.518436,-3.730446 4.810569,-3.639871" />
      <path d="M 4.218096,-3.283616 Q 4.518436,-3.215568 4.810569,-3.124993" />
      <line x1="4.810569" y1="-3.639871" x2="4.810569" y2="-3.124993" />
      <path d="M 4.810569,-3.639871 C 4.897921,-3.390555 4.958469,-3.100126 4.958603,-2.82711" />
      <path d="M 4.810569,-3.124993 C 4.897921,-2.875677 4.958469,-2.585248 4.958603,-2.312232" />
      <path d="M 4.958603,-2.312232 Q 4.960388,-2.064608 4.886261,-1.862719" />
      <path d="M 4.718482,-1.619862 Q 4.736441,-1.605633 4.7578,-1.595242" />
      <path d="M 4.886261,-1.862719 C 4.814313,-1.779031 4.755174,-1.691822 4.708846,-1.601093 C 4.663103,-1.509695 4.631047,-1.409478 4.630914,-1.31458" />
      <path d="M 4.630914,-1.31458 C 4.629965,-1.213513 4.671272,-1.121499 4.7578,-1.080364" />
      <line x1="4.7578" y1="-1.595242" x2="4.7578" y2="-1.080364" />
      <path d="M 4.7578,-1.595242 Q 5.001969,-1.47913 5.228805,-1.339552" />
      <path d="M 4.7578,-1.080364 Q 5.001969,-0.964252 5.228805,-0.824674" />
      <line x1="5.228805" y1="-1.339552" x2="5.228805" y2="-0.824674" />
      <path d="M 5.228805,-1.339552 C 5.345504,-1.267198 5.526391,-1.317999 5.663569,-1.413563 C 5.804795,-1.51043 5.909078,-1.633853 5.998882,-1.773598" />
      <path d="M 5.228805,-0.824674 C 5.345504,-0.75232 5.526391,-0.803122 5.663569,-0.898685 C 5.804795,-0.995552 5.909078,-1.118975 5.998882,-1.25872" />
      <line x1="5.998882" y1="-1.773598" x2="5.998882" y2="-1.25872" />
      <path d="M 5.998882,-1.773598 C 6.316221,-2.03086 6.885792,-2.19335 7.362324,-2.254623" />
      <path d="M 5.998882,-1.25872 C 6.316221,-1.515982 6.885792,-1.678472 7.362324,-1.739746" />
      <line x1="7.362324" y1="-2.254623" x2="7.362324" y2="-1.739746" />
      <path d="M 7.362324,-2.254623 Q 7.582737,-2.066957 7.782904,-1.863299" />
      <path d="M 7.362324,-1.739746 Q 7.582737,-1.55208 7.782904,-1.348422" />
      <line x1="7.782904" y1="-1.863299" x2="7.782904" y2="-1.348422" />
      <path d="M 7.782904,-1.348422 C 7.672721,-0.946283 7.437259,-0.472924 7.112232,-0.222816" />
      <path d="M 7.112232,-0.222816 C 6.965566,-0.168912 6.834756,-0.098389 6.719802,-0.011247 C 6.60687,0.076533 6.514574,0.193243 6.514756,0.301864" />
      <path d="M 6.514756,0.301864 Q 6.51459,0.355162 6.544672,0.39966" />
      <line x1="6.544672" y1="0.187914" x2="6.544672" y2="0.39966" />
      <path d="M 6.652618,0.047123 Q 6.733449,0.175378 6.803443,0.308105" />
      <path d="M 6.544672,0.39966 Q 6.688406,0.604875 6.803443,0.822982" />
      <line x1="6.803443" y1="0.308105" x2="6.803443" y2="0.822982" />
      <path d="M 6.803443,0.308105 C 6.862307,0.420786 7.04859,0.454325 7.223127,0.430363 C 7.40193,0.407008 7.564228,0.344819 7.723507,0.262289" />
      <path d="M 6.803443,0.822982 C 6.862307,0.935664 7.04859,0.969202 7.223127,0.945241 C 7.40193,0.921885 7.564228,0.859697 7.723507,0.777167" />
      <line x1="7.723507" y1="0.262289" x2="7.723507" y2="0.777167" />
      <path d="M 7.723507,0.262289 C 8.131194,0.178878 8.690829,0.27117 9.130688,0.412359" />
      <path d="M 7.723507,0.777167 C 8.148379,0.690393 8.736414,0.793809 9.184841,0.945001" />
      <line x1="9.184841" y1="0.802406" x2="9.184841" y2="0.945001" />
      <path d="M 9.300297,0.854977 L 9.320834,0.949294" />
      <path d="M 9.184841,0.945001 Q 9.266268,1.202001 9.320834,1.464172" />
      <line x1="9.320834" y1="0.949294" x2="9.320834" y2="1.464172" />
      <path d="M 9.320834,1.464172 C 8.990864,1.765207 8.510862,2.074221 8.083504,2.151503" />
      <path d="M 8.083504,2.151503 C 7.898716,2.135306 7.721387,2.138535 7.548385,2.18269 C 7.378943,2.224762 7.227142,2.322735 7.228916,2.445827" />
      <path d="M 7.228916,2.445827 L 7.228923,2.44731" />
      <line x1="7.228923" y1="2.444345" x2="7.228923" y2="2.44731" />
      <path d="M 7.228923,2.44731 L 7.229632,2.518064" />
      <path d="M 7.229632,2.518064 Q 7.229622,2.721992 7.206122,2.924835" />
      <path d="M 7.229632,2.512492 C 7.285307,2.60977 7.426585,2.680381 7.571777,2.71786 C 7.718422,2.754027 7.871043,2.769623 8.029643,2.764648" />
      <path d="M 7.206122,2.924835 L 7.205267,2.941097" />
      <path d="M 7.205267,2.941097 C 7.203844,3.060849 7.347318,3.163117 7.509497,3.214373 C 7.67509,3.267693 7.847557,3.28267 8.029643,3.279526" />
      <line x1="8.029643" y1="2.764648" x2="8.029643" y2="3.279526" />
      <path d="M 8.029643,2.764648 Q 8.098392,2.782161 8.168341,2.807921" />
      <path d="M 8.029643,3.279526 C 8.448203,3.386492 8.89714,3.728103 9.197305,4.051249" />
      <line x1="9.197305" y1="3.979765" x2="9.197305" y2="4.051249" />
      <path d="M 9.197305,4.051249 Q 9.117928,4.30872 9.012272,4.559155" />
      <path d="M 9.012272,4.559155 C 8.550931,4.678423 7.955004,4.740293 7.539826,4.624042" />
      <path d="M 7.539826,4.624042 C 7.388948,4.530628 7.233121,4.457277 7.057143,4.421472 C 6.885474,4.385362 6.696617,4.405737 6.627207,4.513918" />
      <path d="M -15.635941,-1.779582 A 14.0,12.001691139078046 0.0 0,1 12.364059,-1.779582" />
      <path d="M 12.352345,-0.773853 A 14.0,12.001691139078046 0.0 0,1 -15.635941,-1.264705" />
      <path d="M -15.635941,-1.264705 A 14.0,12.001691139078046 0.0 0,1 12.364059,-1.264705" />
      <path d="M 12.364059,-1.264705 A 14.0,12.001691139078046 0.0 0,1 12.352345,-0.773853" />
      <path d="M -12.553271,-0.110771 Q -12.597283,-0.416803 -12.617886,-0.724645" />
      <line x1="-12.801081" y1="0.08935" x2="-12.723754" y2="0.079972" />
      <path d="M -12.723754,0.079972 Q -12.655936,0.072598 -12.601896,0.023738 Q -12.551358,-0.028317 -12.551768,-0.089791" />
      <path d="M -12.551768,-0.089791 L -12.553271,-0.110771" />
      <path d="M -14.566505,1.009957 C -14.385866,0.867579 -14.228276,0.754734 -14.072667,0.653679 C -13.918295,0.553658 -13.764838,0.464937 -13.612296,0.387516 C -13.310039,0.232631 -12.990027,0.116831 -12.801081,0.08935" />
      <path d="M -14.45953,1.418349 Q -14.517423,1.215001 -14.566505,1.009957" />
      <path d="M -12.40446,1.603505 C -12.588971,1.647915 -12.936014,1.660524 -13.286498,1.631293 C -13.463008,1.617215 -13.64598,1.593257 -13.835415,1.559419 C -14.026485,1.5251 -14.225225,1.48085 -14.45953,1.418349" />
      <path d="M -12.080634,1.693585 C -12.094635,1.655578 -12.129869,1.616151 -12.17903,1.594918 C -12.227762,1.572969 -12.285666,1.571312 -12.329879,1.58364" />
      <line x1="-12.329879" y1="1.58364" x2="-12.40446" y2="1.603505" />
      <path d="M -11.832885,2.272205 Q -11.967791,1.986366 -12.080634,1.693585" />
      <line x1="-12.011831" y1="2.52049" x2="-11.93997" y2="2.494274" />
      <path d="M -11.93997,2.494274 C -11.874708,2.473415 -11.81566,2.405059 -11.818284,2.336512" />
      <path d="M -11.818284,2.336512 Q -11.81879,2.301279 -11.832885,2.272205" />
      <path d="M -13.439156,3.801434 C -13.307659,3.623828 -13.189508,3.479862 -13.069711,3.347725 C -12.950796,3.21686 -12.829354,3.097114 -12.705385,2.988485 C -12.460189,2.771815 -12.186042,2.588957 -12.011831,2.52049" />
      <path d="M -13.212528,4.172174 Q -13.329841,3.988601 -13.439156,3.801434" />
      <path d="M -11.171582,3.895051 C -11.336398,3.978886 -11.667809,4.068066 -12.015176,4.117595 C -12.189921,4.14316 -12.373892,4.160615 -12.567089,4.169962 C -12.762009,4.179206 -12.967337,4.180559 -13.212528,4.172174" />
      <path d="M -10.831594,3.910212 C -10.856592,3.876607 -10.902529,3.846341 -10.956426,3.836739 C -11.010123,3.82635 -11.066555,3.837597 -11.10554,3.859315" />
      <line x1="-11.10554" y1="3.859315" x2="-11.171582" y2="3.895051" />
      <path d="M -10.417593,4.414146 Q -10.634202,4.16798 -10.831594,3.910212" />
      <line x1="-10.515482" y1="4.693675" x2="-10.453984" y2="4.652409" />
      <path d="M -10.453984,4.652409 C -10.41082,4.62471 -10.376357,4.572125 -10.37726,4.517398" />
      <path d="M -10.37726,4.517398 Q -10.379425,4.456222 -10.417593,4.414146" />
      <path d="M -11.507438,6.247661 C -11.434043,6.046931 -11.363383,5.881656 -11.287562,5.727441 C -11.212209,5.574652 -11.131058,5.43204 -11.044109,5.299607 C -10.872684,5.035916 -10.663085,4.798463 -10.515482,4.693675" />
      <path d="M -11.1766,6.555486 Q -11.34534,6.404196 -11.507438,6.247661" />
      <path d="M -9.288865,5.834968 C -9.422755,5.952515 -9.715948,6.112189 -10.036525,6.237103 C -10.197598,6.300568 -10.370031,6.358247 -10.553822,6.410141 C -10.73931,6.462319 -10.937233,6.509183 -11.1766,6.555486" />
      <path d="M -8.955885,5.774177 C -8.990177,5.747263 -9.043686,5.728221 -9.098646,5.730905 C -9.15365,5.732785 -9.204763,5.756169 -9.235863,5.785797" />
      <line x1="-9.235863" y1="5.785797" x2="-9.288865" y2="5.834968" />
      <path d="M -8.403847,6.169084 Q -8.687395,5.979365 -8.955885,5.774177" />
      <line x1="-8.414007" y1="6.460807" x2="-8.367063" y2="6.407302" />
      <path d="M -8.367063,6.407302 Q -8.329052,6.365277 -8.3269,6.304243" />
      <path d="M -8.3269,6.304243 C -8.325991,6.249437 -8.360569,6.196768 -8.403847,6.169084" />
      <path d="M -8.902994,8.181934 C -8.892703,7.971758 -8.874349,7.796437 -8.847671,7.630654 C -8.821015,7.466352 -8.785686,7.310594 -8.741683,7.163382 C -8.65571,6.870641 -8.524944,6.594774 -8.414007,6.460807" />
      <path d="M -8.490493,8.405864 Q -8.699159,8.297169 -8.902994,8.181934" />
      <path d="M -6.884615,7.291054 C -6.978453,7.434303 -7.213448,7.653588 -7.485389,7.845374 C -7.621813,7.942415 -7.770955,8.036388 -7.932817,8.127292 C -8.096231,8.218847 -8.273261,8.308029 -8.490493,8.405864" />
      <path d="M -6.581334,7.158454 C -6.622584,7.140066 -6.680018,7.133545 -6.732294,7.148332 C -6.784857,7.162351 -6.827169,7.19628 -6.848264,7.231798" />
      <line x1="-6.848264" y1="7.231798" x2="-6.884615" y2="7.291054" />
      <path d="M -5.928879,7.41742 Q -6.260044,7.297079 -6.581334,7.158454" />
      <line x1="-5.850617" y1="7.701458" x2="-5.821427" y2="7.63936" />
      <path d="M -5.821427,7.63936 Q -5.807433,7.610374 -5.806932,7.575277" />
      <path d="M -5.806932,7.575277 C -5.804295,7.506662 -5.863494,7.438219 -5.928879,7.41742" />
      <path d="M -5.803313,9.472433 C -5.859435,9.257096 -5.89551,9.076552 -5.919791,8.903252 C -5.943617,8.731404 -5.95546,8.566296 -5.95532,8.407929" />
      <path d="M -5.95532,8.407929 C -5.956327,8.122758 -5.913875,7.847538 -5.850617,7.701458" />
      <path d="M -5.337259,9.597209 Q -5.571632,9.538516 -5.803313,9.472433" />
      <path d="M -4.122676,8.164079 C -4.170068,8.323267 -4.330851,8.58722 -4.535623,8.832809 C -4.6381,8.956812 -4.753789,9.080674 -4.88269,9.204395 C -5.012894,9.329087 -5.156967,9.454509 -5.337259,9.597209" />
      <path d="M -3.869762,7.968707 C -3.915158,7.960098 -3.972605,7.966542 -4.018635,7.992424 C -4.065174,8.017628 -4.095801,8.059788 -4.105453,8.098777" />
      <line x1="-4.105453" y1="8.098777" x2="-4.122676" y2="8.164079" />
      <path d="M -3.161354,8.074085 Q -3.517567,8.031322 -3.869762,7.968707" />
      <line x1="-3.000004" y1="8.331079" x2="-2.990557" y2="8.264621" />
      <path d="M -2.990557,8.264621 L -2.989089,8.243881" />
      <path d="M -2.989089,8.243881 Q -2.988673,8.182364 -3.039299,8.130271 Q -3.093443,8.081386 -3.161354,8.074085" />
      <path d="M -2.419631,10.031214 C -2.628494,9.688151 -2.755079,9.420203 -2.85304,9.142043 C -2.948444,8.870372 -3.003965,8.593036 -3.003599,8.407177" />
      <path d="M -3.003599,8.407177 Q -3.003587,8.365364 -3.000004,8.331079" />
      <path d="M -1.931787,10.048333 Q -2.175894,10.043641 -2.419631,10.031214" />
      <path d="M -1.19127,8.394548 L -1.191249,8.399391" />
      <path d="M -1.191249,8.399391 C -1.190434,8.565497 -1.266591,8.854977 -1.390077,9.136332 C -1.451555,9.27818 -1.525729,9.422818 -1.612599,9.570244 C -1.700431,9.718896 -1.801361,9.871362 -1.931787,10.048333" />
      <path d="M -1.005959,8.149718 C -1.051113,8.151472 -1.102964,8.169318 -1.139491,8.202789 C -1.176684,8.238935 -1.195022,8.278302 -1.194505,8.320889" />
      <path d="M -1.194505,8.320889 L -1.19435,8.32765" />
      <line x1="-1.19435" y1="8.32765" x2="-1.19127" y2="8.394548" />
      <path d="M -0.289875,8.094326 Q -0.646861,8.132055 -1.005959,8.149718" />
      <line x1="-0.056433" y1="8.306764" x2="-0.067372" y2="8.240474" />
      <path d="M -0.067372,8.240474 C -0.073276,8.200939 -0.09978,8.156775 -0.143761,8.128394 C -0.18717,8.099374 -0.24381,8.088926 -0.289875,8.094326" />
      <path d="M 1.017457,9.820197 C 0.851373,9.665343 0.719739,9.530246 0.601859,9.396848 C 0.485184,9.264511 0.38169,9.132958 0.291378,9.002189 C 0.110705,8.743075 -0.024376,8.46874 -0.056433,8.306764" />
      <path d="M 1.493847,9.728492 Q 1.256641,9.778121 1.017457,9.820197" />
      <path d="M 1.709832,7.966755 C 1.741933,8.065574 1.760934,8.222371 1.760697,8.398195" />
      <path d="M 1.760697,8.398195 C 1.76065,8.592374 1.739575,8.798196 1.697472,9.015659 C 1.654621,9.233366 1.593254,9.454361 1.493847,9.728492" />
      <path d="M 1.814911,7.689151 C 1.742425,7.705983 1.674154,7.7795 1.677654,7.851949" />
      <path d="M 1.677654,7.851949 Q 1.677905,7.879212 1.68666,7.90282" />
      <line x1="1.68666" y1="7.90282" x2="1.709832" y2="7.966755" />
      <path d="M 2.489872,7.476765 Q 2.156441,7.592415 1.814911,7.689151" />
      <line x1="2.779497" y1="7.630169" x2="2.748917" y2="7.568565" />
      <path d="M 2.748917,7.568565 C 2.731279,7.531687 2.692344,7.494908 2.641293,7.477252 C 2.590602,7.458853 2.532737,7.461328 2.489872,7.476765" />
      <path d="M 4.273721,8.853763 C 4.066543,8.741035 3.898607,8.639748 3.744469,8.53705 C 3.591815,8.43511 3.452131,8.331002 3.325415,8.224727 C 3.072668,8.01453 2.859365,7.779514 2.779497,7.630169" />
      <path d="M 4.706191,8.659482 Q 4.492052,8.760051 4.273721,8.853763" />
      <path d="M 4.382926,6.909853 C 4.469267,7.034686 4.562185,7.274153 4.621099,7.533024 C 4.681215,7.796193 4.712539,8.070364 4.712681,8.394648" />
      <path d="M 4.712681,8.394648 Q 4.712756,8.518259 4.706191,8.659482" />
      <path d="M 4.400612,6.618394 C 4.350603,6.644839 4.30906,6.702382 4.310367,6.761723" />
      <path d="M 4.310367,6.761723 Q 4.311849,6.814532 4.34124,6.853238" />
      <line x1="4.34124" y1="6.853238" x2="4.382926" y2="6.909853" />
      <path d="M 4.988452,6.263487 Q 4.701298,6.449177 4.400612,6.618394" />
      <line x1="5.314523" y1="6.347403" x2="5.266386" y2="6.294683" />
      <path d="M 5.266386,6.294683 C 5.238215,6.262976 5.189502,6.236088 5.134861,6.230361 C 5.080341,6.223836 5.025196,6.239065 4.988452,6.263487" />
      <path d="M 7.127251,7.197771 C 6.893099,7.134852 6.700305,7.074278 6.520413,7.009279 C 6.342184,6.944682 6.175827,6.875114 6.021344,6.800576 C 5.713748,6.653619 5.436758,6.473938 5.314523,6.347403" />
      <path d="M 7.486329,6.914156 Q 7.30985,7.05881 7.127251,7.197771" />
      <path d="M 6.645843,5.295869 C 6.782963,5.410648 6.969222,5.661992 7.114934,5.936811 C 7.188967,6.074893 7.25625,6.222713 7.316784,6.380271 C 7.377649,6.539282 7.432317,6.708955 7.486329,6.914156" />
      <path d="M 6.574931,5.010417 Q 6.527207,5.055029 6.52422,5.12451" />
      <path d="M 6.52422,5.12451 C 6.523614,5.17454 6.551791,5.222285 6.588485,5.250432" />
      <line x1="6.588485" y1="5.250432" x2="6.645843" y2="5.295869" />
      <path d="M 7.03559,4.537175 Q 6.814283,4.780251 6.574931,5.010417" />
      <line x1="7.375886" y1="4.545885" x2="7.313472" y2="4.505642" />
      <path d="M 7.313472,4.505642 C 7.276688,4.481265 7.221518,4.466102 7.167009,4.472694 C 7.112377,4.478487 7.063709,4.505433 7.03559,4.537175" />
      <path d="M 9.383584,4.965076 C 9.138414,4.956254 8.933902,4.940519 8.740516,4.917649 C 8.548856,4.894798 8.367165,4.864512 8.195441,4.826789 C 7.853958,4.753088 7.532159,4.640987 7.375886,4.545885" />
      <path d="M 9.6448,4.611454 Q 9.518007,4.790336 9.383584,4.965076" />
      <path d="M 8.344371,3.234793 C 8.511471,3.315237 8.767268,3.51669 8.990987,3.749815 C 9.104186,3.866766 9.213805,3.99462 9.319845,4.133378 C 9.426644,4.273467 9.530675,4.425229 9.6448,4.611454" />
      <path d="M 8.189693,2.974801 Q 8.169217,3.008669 8.168341,3.051883" />
      <path d="M 8.168341,3.051883 C 8.166407,3.116341 8.217044,3.179706 8.275249,3.20363" />
      <line x1="8.275249" y1="3.20363" x2="8.344371" y2="3.234793" />
      <path d="M 8.491778,2.415475 Q 8.3514,2.69937 8.189693,2.974801" />
      <line x1="8.823108" y1="2.348384" x2="8.750671" y2="2.323361" />
      <path d="M 8.750671,2.323361 C 8.707781,2.307976 8.649912,2.305571 8.599251,2.324032 C 8.54823,2.341749 8.509355,2.378576 8.491778,2.415475" />
      <path d="M 10.888955,2.307831 C 10.649475,2.353707 10.447181,2.383885 10.253479,2.404702 C 10.061452,2.425155 9.876808,2.436213 9.699546,2.437877 C 9.347448,2.442455 9.002768,2.405573 8.823108,2.348384" />
      <path d="M 11.034507,1.908301 Q 10.966041,2.10922 10.888955,2.307831" />
      <path d="M 9.362757,0.867083 C 9.548451,0.90771 9.856352,1.045544 10.142832,1.221087 C 10.287482,1.308937 10.431967,1.408113 10.576287,1.518615 C 10.721742,1.630235 10.868046,1.753743 11.034507,1.908301" />
      <path d="M 9.134855,0.650269 Q 9.130769,0.66687 9.130688,0.685087" />
      <path d="M 9.130688,0.685087 Q 9.13055,0.743952 9.176031,0.793798 Q 9.224213,0.841053 9.286582,0.852318" />
      <line x1="9.286582" y1="0.852318" x2="9.362757" y2="0.867083" />
      <path d="M 9.257778,0.042976 Q 9.207895,0.348345 9.134855,0.650269" />
      <line x1="9.557563" y1="-0.095343" x2="9.480039" y2="-0.103441" />
      <path d="M 9.480039,-0.103441 C 9.433966,-0.108785 9.377343,-0.098269 9.333981,-0.069197 C 9.290048,-0.040763 9.263616,0.003434 9.257778,0.042976" />
      <path d="M 11.540775,-0.592876 C 11.323305,-0.495428 11.137016,-0.421394 10.956199,-0.358309 C 10.776889,-0.295947 10.601875,-0.244297 10.431157,-0.203359 C 10.092437,-0.120816 9.748368,-0.079965 9.557563,-0.095343" />
      <path d="M 11.560743,-1.011087 Q 11.555271,-0.801823 11.540775,-0.592876" />
      <path d="M 9.6316,-1.645905 C 9.823232,-1.647863 10.162256,-1.583042 10.491973,-1.477043 C 10.658217,-1.424281 10.827722,-1.360542 11.000486,-1.285826 C 11.174684,-1.210283 11.353292,-1.123445 11.560743,-1.011087" />
      <path d="M 9.346004,-1.804765 C 9.348053,-1.764946 9.370183,-1.719045 9.411259,-1.687628 C 9.451703,-1.655615 9.507134,-1.641167 9.553563,-1.643265" />
      <line x1="9.553563" y1="-1.643265" x2="9.6316" y2="-1.645905" />
      <path d="M 9.28139,-2.418638 Q 9.325401,-2.112607 9.346004,-1.804765" />
      <line x1="9.529199" y1="-2.618759" x2="9.451872" y2="-2.609381" />
      <path d="M 9.451872,-2.609381 Q 9.384054,-2.602007 9.330014,-2.553148 Q 9.279476,-2.501093 9.279887,-2.439619" />
      <path d="M 9.279887,-2.439619 L 9.28139,-2.418638" />
      <path d="M 11.294623,-3.539367 C 11.113984,-3.396988 10.956394,-3.284144 10.800785,-3.183089 C 10.646413,-3.083068 10.492956,-2.994347 10.340414,-2.916925 C 10.038158,-2.76204 9.718145,-2.646241 9.529199,-2.618759" />
      <path d="M 11.187648,-3.947758 Q 11.245541,-3.744411 11.294623,-3.539367" />
      <path d="M 9.132578,-4.132915 C 9.31709,-4.177324 9.664132,-4.189934 10.014616,-4.160703 C 10.191126,-4.146624 10.374098,-4.122666 10.563534,-4.088828 C 10.754603,-4.05451 10.953343,-4.010259 11.187648,-3.947758" />
      <path d="M 8.808753,-4.222995 C 8.822753,-4.184988 8.857987,-4.145561 8.907148,-4.124328 C 8.95588,-4.102379 9.013784,-4.100722 9.057998,-4.11305" />
      <line x1="9.057998" y1="-4.11305" x2="9.132578" y2="-4.132915" />
      <path d="M 8.561003,-4.801614 Q 8.69591,-4.515776 8.808753,-4.222995" />
      <line x1="8.73995" y1="-5.049899" x2="8.668089" y2="-5.023684" />
      <path d="M 8.668089,-5.023684 C 8.602827,-5.002825 8.543779,-4.934468 8.546402,-4.865922" />
      <path d="M 8.546402,-4.865922 Q 8.546909,-4.830689 8.561003,-4.801614" />
      <path d="M 10.167275,-6.330843 C 10.035777,-6.153237 9.917626,-6.009272 9.797829,-5.877135 C 9.678915,-5.74627 9.557473,-5.626524 9.433503,-5.517895 C 9.188307,-5.301224 8.91416,-5.118367 8.73995,-5.049899" />
      <path d="M 9.940646,-6.701584 Q 10.05796,-6.51801 10.167275,-6.330843" />
      <path d="M 7.8997,-6.42446 C 8.064517,-6.508296 8.395927,-6.597476 8.743294,-6.647005 C 8.91804,-6.672569 9.102011,-6.690025 9.295207,-6.699371 C 9.490127,-6.708616 9.695455,-6.709969 9.940646,-6.701584" />
      <path d="M 7.559712,-6.439622 C 7.584711,-6.406016 7.630647,-6.37575 7.684544,-6.366149 C 7.738242,-6.35576 7.794673,-6.367007 7.833658,-6.388725" />
      <line x1="7.833658" y1="-6.388725" x2="7.8997" y2="-6.42446" />
      <path d="M 7.145712,-6.943556 Q 7.36232,-6.69739 7.559712,-6.439622" />
      <line x1="7.2436" y1="-7.223085" x2="7.182103" y2="-7.181818" />
      <path d="M 7.182103,-7.181818 C 7.138939,-7.15412 7.104475,-7.101534 7.105378,-7.046808" />
      <path d="M 7.105378,-7.046808 Q 7.107543,-6.985632 7.145712,-6.943556" />
      <path d="M 8.235557,-8.777071 C 8.162161,-8.57634 8.091501,-8.411066 8.01568,-8.256851 C 7.940327,-8.104061 7.859177,-7.96145 7.772228,-7.829017 C 7.600802,-7.565326 7.391204,-7.327873 7.2436,-7.223085" />
      <path d="M 7.904719,-9.084896 Q 8.073458,-8.933606 8.235557,-8.777071" />
      <path d="M 6.016984,-8.364377 C 6.150873,-8.481925 6.444066,-8.641598 6.764644,-8.766512 C 6.925717,-8.829977 7.098149,-8.887657 7.281941,-8.939551 C 7.467428,-8.991728 7.665351,-9.038592 7.904719,-9.084896" />
      <path d="M 5.684003,-8.303587 C 5.718296,-8.276673 5.771805,-8.257631 5.826764,-8.260315 C 5.881768,-8.262194 5.932881,-8.285579 5.963981,-8.315206" />
      <line x1="5.963981" y1="-8.315206" x2="6.016984" y2="-8.364377" />
      <path d="M 5.131965,-8.698493 Q 5.415513,-8.508775 5.684003,-8.303587" />
      <line x1="5.142125" y1="-8.990216" x2="5.095181" y2="-8.936711" />
      <path d="M 5.095181,-8.936711 Q 5.05717,-8.894686 5.055018,-8.833653" />
      <path d="M 5.055018,-8.833653 C 5.054109,-8.778846 5.088687,-8.726177 5.131965,-8.698493" />
      <path d="M 5.631113,-10.711343 C 5.620821,-10.501168 5.602467,-10.325847 5.575789,-10.160064 C 5.549133,-9.995761 5.513804,-9.840004 5.469801,-9.692791 C 5.383828,-9.40005 5.253062,-9.124183 5.142125,-8.990216" />
      <path d="M 5.218611,-10.935274 Q 5.427278,-10.826579 5.631113,-10.711343" />
      <path d="M 3.612733,-9.820463 C 3.706571,-9.963712 3.941567,-10.182998 4.213508,-10.374784 C 4.349931,-10.471825 4.499074,-10.565798 4.660935,-10.656702 C 4.824349,-10.748257 5.001379,-10.837438 5.218611,-10.935274" />
      <path d="M 3.309452,-9.687864 C 3.350702,-9.669476 3.408137,-9.662955 3.460413,-9.677741 C 3.512976,-9.691761 3.555287,-9.725689 3.576382,-9.761208" />
      <line x1="3.576382" y1="-9.761208" x2="3.612733" y2="-9.820463" />
      <path d="M 2.656997,-9.94683 Q 2.988162,-9.826489 3.309452,-9.687864" />
      <line x1="2.578735" y1="-10.230867" x2="2.549545" y2="-10.16877" />
      <path d="M 2.549545,-10.16877 Q 2.535552,-10.139783 2.53505,-10.104687" />
      <path d="M 2.53505,-10.104687 C 2.532414,-10.036072 2.591613,-9.967629 2.656997,-9.94683" />
      <path d="M 2.531431,-12.001843 C 2.587553,-11.786506 2.623628,-11.605962 2.647909,-11.432662 C 2.671736,-11.260814 2.683579,-11.095706 2.683438,-10.937339" />
      <path d="M 2.683438,-10.937339 C 2.684445,-10.652167 2.641994,-10.376947 2.578735,-10.230867" />
      <path d="M 2.065378,-12.126619 Q 2.29975,-12.067926 2.531431,-12.001843" />
      <path d="M 0.850794,-10.693488 C 0.898186,-10.852677 1.058969,-11.11663 1.263741,-11.362218 C 1.366218,-11.486222 1.481907,-11.610084 1.610808,-11.733804 C 1.741013,-11.858497 1.885085,-11.983919 2.065378,-12.126619" />
      <path d="M 0.59788,-10.498117 C 0.643276,-10.489507 0.700723,-10.495952 0.746754,-10.521833 C 0.793293,-10.547038 0.823919,-10.589198 0.833572,-10.628187" />
      <line x1="0.833572" y1="-10.628187" x2="0.850794" y2="-10.693488" />
      <path d="M -0.110528,-10.603494 Q 0.245685,-10.560731 0.59788,-10.498117" />
      <line x1="-0.271877" y1="-10.860489" x2="-0.281324" y2="-10.794031" />
      <path d="M -0.281324,-10.794031 L -0.282793,-10.77329" />
      <path d="M -0.282793,-10.77329 Q -0.283209,-10.711774 -0.232583,-10.659681 Q -0.178439,-10.610795 -0.110528,-10.603494" />
      <path d="M -0.85225,-12.560624 C -0.643388,-12.21756 -0.516802,-11.949612 -0.418842,-11.671453 C -0.323438,-11.399782 -0.267917,-11.122445 -0.268283,-10.936587" />
      <path d="M -0.268283,-10.936587 Q -0.268295,-10.894773 -0.271877,-10.860489" />
      <path d="M -1.340095,-12.577743 Q -1.095988,-12.573051 -0.85225,-12.560624" />
      <path d="M -2.080612,-10.923958 L -2.080633,-10.928801" />
      <path d="M -2.080633,-10.928801 C -2.081448,-11.094906 -2.005291,-11.384386 -1.881805,-11.665742 C -1.820327,-11.80759 -1.746153,-11.952227 -1.659282,-12.099653 C -1.571451,-12.248306 -1.470521,-12.400771 -1.340095,-12.577743" />
      <path d="M -2.265922,-10.679127 C -2.220769,-10.680882 -2.168918,-10.698727 -2.13239,-10.732198 C -2.095197,-10.768345 -2.076859,-10.807712 -2.077376,-10.850299" />
      <path d="M -2.077376,-10.850299 L -2.077532,-10.85706" />
      <line x1="-2.077532" y1="-10.85706" x2="-2.080612" y2="-10.923958" />
      <path d="M -2.982007,-10.623735 Q -2.625021,-10.661465 -2.265922,-10.679127" />
      <line x1="-3.215449" y1="-10.836174" x2="-3.204509" y2="-10.769884" />
      <path d="M -3.204509,-10.769884 C -3.198606,-10.730349 -3.172102,-10.686184 -3.128121,-10.657803 C -3.084712,-10.628783 -3.028072,-10.618336 -2.982007,-10.623735" />
      <path d="M -4.289339,-12.349607 C -4.123255,-12.194752 -3.991621,-12.059656 -3.87374,-11.926258 C -3.757065,-11.79392 -3.653572,-11.662367 -3.56326,-11.531599 C -3.382586,-11.272485 -3.247506,-10.99815 -3.215449,-10.836174" />
      <path d="M -4.765729,-12.257901 Q -4.528523,-12.307531 -4.289339,-12.349607" />
      <path d="M -4.981714,-10.496165 C -5.013815,-10.594984 -5.032816,-10.75178 -5.032579,-10.927604" />
      <path d="M -5.032579,-10.927604 C -5.032531,-11.121784 -5.011456,-11.327605 -4.969354,-11.545069 C -4.926503,-11.762775 -4.865136,-11.98377 -4.765729,-12.257901" />
      <path d="M -5.086793,-10.218561 C -5.014307,-10.235393 -4.946036,-10.30891 -4.949536,-10.381358" />
      <path d="M -4.949536,-10.381358 Q -4.949787,-10.408622 -4.958542,-10.43223" />
      <line x1="-4.958542" y1="-10.43223" x2="-4.981714" y2="-10.496165" />
      <path d="M -5.761754,-10.006174 Q -5.428323,-10.121825 -5.086793,-10.218561" />
      <line x1="-6.051379" y1="-10.159579" x2="-6.020799" y2="-10.097975" />
      <path d="M -6.020799,-10.097975 C -6.003161,-10.061097 -5.964225,-10.024318 -5.913175,-10.006662 C -5.862483,-9.988262 -5.804619,-9.990738 -5.761754,-10.006174" />
      <path d="M -7.545603,-11.383172 C -7.338425,-11.270444 -7.170489,-11.169158 -7.016351,-11.06646 C -6.863697,-10.964519 -6.724012,-10.860411 -6.597297,-10.754137 C -6.34455,-10.543939 -6.131247,-10.308923 -6.051379,-10.159579" />
      <path d="M -7.978073,-11.188892 Q -7.763934,-11.289461 -7.545603,-11.383172" />
      <path d="M -7.654807,-9.439263 C -7.741149,-9.564096 -7.834066,-9.803563 -7.892981,-10.062434 C -7.953097,-10.325603 -7.98442,-10.599774 -7.984562,-10.924057" />
      <path d="M -7.984562,-10.924057 Q -7.984638,-11.047669 -7.978073,-11.188892" />
      <path d="M -7.672493,-9.147804 C -7.622485,-9.174248 -7.580942,-9.231792 -7.582249,-9.291133" />
      <path d="M -7.582249,-9.291133 Q -7.583731,-9.343941 -7.613122,-9.382648" />
      <line x1="-7.613122" y1="-9.382648" x2="-7.654807" y2="-9.439263" />
      <path d="M -8.260334,-8.792896 Q -7.97318,-8.978587 -7.672493,-9.147804" />
      <line x1="-8.586405" y1="-8.876813" x2="-8.538267" y2="-8.824093" />
      <path d="M -8.538267,-8.824093 C -8.510096,-8.792385 -8.461384,-8.765498 -8.406742,-8.759771 C -8.352223,-8.753245 -8.297078,-8.768475 -8.260334,-8.792896" />
      <path d="M -10.399133,-9.727181 C -10.16498,-9.664262 -9.972187,-9.603687 -9.792295,-9.538689 C -9.614066,-9.474092 -9.447709,-9.404524 -9.293225,-9.329986 C -8.985629,-9.183029 -8.70864,-9.003348 -8.586405,-8.876813" />
      <path d="M -10.758211,-9.443565 Q -10.581732,-9.58822 -10.399133,-9.727181" />
      <path d="M -9.917725,-7.825279 C -10.054844,-7.940058 -10.241104,-8.191401 -10.386816,-8.466221 C -10.460849,-8.604303 -10.528132,-8.752123 -10.588666,-8.90968 C -10.649531,-9.068692 -10.704198,-9.238364 -10.758211,-9.443565" />
      <path d="M -9.846813,-7.539827 Q -9.799089,-7.584439 -9.796102,-7.65392" />
      <path d="M -9.796102,-7.65392 C -9.795496,-7.70395 -9.823673,-7.751695 -9.860367,-7.779842" />
      <line x1="-9.860367" y1="-7.779842" x2="-9.917725" y2="-7.825279" />
      <path d="M -10.307472,-7.066585 Q -10.086165,-7.30966 -9.846813,-7.539827" />
      <line x1="-10.647768" y1="-7.075294" x2="-10.585354" y2="-7.035051" />
      <path d="M -10.585354,-7.035051 C -10.54857,-7.010674 -10.493399,-6.995512 -10.438891,-7.002103 C -10.384259,-7.007896 -10.335591,-7.034843 -10.307472,-7.066585" />
      <path d="M -12.655466,-7.494486 C -12.410296,-7.485663 -12.205784,-7.469929 -12.012397,-7.447059 C -11.820738,-7.424208 -11.639047,-7.393921 -11.467323,-7.356199 C -11.12584,-7.282498 -10.80404,-7.170397 -10.647768,-7.075294" />
      <path d="M -12.916682,-7.140863 Q -12.789889,-7.319745 -12.655466,-7.494486" />
      <path d="M -11.616253,-5.764202 C -11.783353,-5.844646 -12.03915,-6.046099 -12.262869,-6.279224 C -12.376067,-6.396175 -12.485687,-6.52403 -12.591727,-6.662788 C -12.698526,-6.802877 -12.802556,-6.954638 -12.916682,-7.140863" />
      <path d="M -11.461575,-5.50421 Q -11.441099,-5.538079 -11.440223,-5.581292" />
      <path d="M -11.440223,-5.581292 C -11.438289,-5.645751 -11.488926,-5.709116 -11.547131,-5.73304" />
      <line x1="-11.547131" y1="-5.73304" x2="-11.616253" y2="-5.764202" />
      <path d="M -11.76366,-4.944884 Q -11.623281,-5.22878 -11.461575,-5.50421" />
      <line x1="-12.09499" y1="-4.877794" x2="-12.022553" y2="-4.85277" />
      <path d="M -12.022553,-4.85277 C -11.979662,-4.837385 -11.921794,-4.83498 -11.871133,-4.853441 C -11.820111,-4.871159 -11.781237,-4.907985 -11.76366,-4.944884" />
      <path d="M -14.160837,-4.837241 C -13.921357,-4.883117 -13.719063,-4.913295 -13.525361,-4.934112 C -13.333334,-4.954564 -13.148689,-4.965622 -12.971428,-4.967287 C -12.619329,-4.971864 -12.27465,-4.934982 -12.09499,-4.877794" />
      <path d="M -14.306388,-4.437711 Q -14.237923,-4.63863 -14.160837,-4.837241" />
      <path d="M -12.634638,-3.396492 C -12.820332,-3.43712 -13.128234,-3.574953 -13.414713,-3.750497 C -13.559364,-3.838347 -13.703849,-3.937523 -13.848169,-4.048025 C -13.993623,-4.159644 -14.139928,-4.283153 -14.306388,-4.437711" />
      <path d="M -12.406737,-3.179679 Q -12.402651,-3.196279 -12.402569,-3.214496" />
      <path d="M -12.402569,-3.214496 Q -12.402432,-3.273361 -12.447912,-3.323208 Q -12.496095,-3.370462 -12.558464,-3.381728" />
      <line x1="-12.558464" y1="-3.381728" x2="-12.634638" y2="-3.396492" />
      <path d="M -12.52966,-2.572386 Q -12.479777,-2.877755 -12.406737,-3.179679" />
      <line x1="-12.829445" y1="-2.434067" x2="-12.751921" y2="-2.425968" />
      <path d="M -12.751921,-2.425968 C -12.705847,-2.420624 -12.649224,-2.43114 -12.605863,-2.460213 C -12.56193,-2.488647 -12.535498,-2.532844 -12.52966,-2.572386" />
      <path d="M -14.812656,-1.936534 C -14.595187,-2.033981 -14.408897,-2.108016 -14.228081,-2.171101 C -14.048771,-2.233463 -13.873757,-2.285112 -13.703038,-2.32605 C -13.364319,-2.408594 -13.020249,-2.449445 -12.829445,-2.434067" />
      <path d="M -14.832625,-1.518323 Q -14.827152,-1.727587 -14.812656,-1.936534" />
      <path d="M -12.903481,-0.883505 C -13.095114,-0.881547 -13.434138,-0.946368 -13.763854,-1.052367 C -13.930099,-1.105129 -14.099604,-1.168868 -14.272368,-1.243583 C -14.446565,-1.319126 -14.625174,-1.405965 -14.832625,-1.518323" />
      <path d="M -12.617886,-0.724645 C -12.619935,-0.764463 -12.642065,-0.810364 -12.68314,-0.841781 C -12.723585,-0.873795 -12.779016,-0.888243 -12.825445,-0.886145" />
      <line x1="-12.825445" y1="-0.886145" x2="-12.903481" y2="-0.883505" />
      <line x1="11.540775" y1="-1.021877" x2="11.540775" y2="-0.592876" />
      <path d="M 11.452565,-1.068752 C 11.053814,-0.895332 10.729943,-0.788666 10.395881,-0.709885 C 10.069475,-0.632895 9.741486,-0.595404 9.557563,-0.61022" />
      <line x1="9.557563" y1="-0.61022" x2="9.557563" y2="-0.095343" />
      <line x1="9.557563" y1="-0.61022" x2="9.480039" y2="-0.618319" />
      <line x1="9.480039" y1="-0.618319" x2="9.480039" y2="-0.103441" />
      <path d="M 9.480039,-0.618319 C 9.433966,-0.623663 9.377343,-0.613147 9.333981,-0.584074 C 9.290048,-0.55564 9.263616,-0.511443 9.257778,-0.471901" />
      <path d="M 9.257778,-0.471901 Q 9.207895,-0.166533 9.134855,0.135391" />
      <line x1="9.134855" y1="0.135391" x2="9.134855" y2="0.650269" />
      <path d="M 9.134855,0.135391 Q 9.130769,0.151992 9.130688,0.170209" />
      <path d="M 10.89371,1.780679 L 10.888955,1.792954" />
      <line x1="10.888955" y1="1.792954" x2="10.888955" y2="2.307831" />
      <path d="M 10.888955,1.792954 C 10.651228,1.838495 10.450187,1.868556 10.257751,1.889366 C 10.066984,1.909815 9.883536,1.920998 9.707408,1.922915 C 9.357528,1.92795 9.014482,1.892304 8.8311,1.835972" />
      <line x1="8.823108" y1="1.840966" x2="8.823108" y2="2.348384" />
      <line x1="8.750671" y1="1.884761" x2="8.750671" y2="2.323361" />
      <path d="M 8.415007,2.05215 Q 8.308029,2.258369 8.189693,2.459923" />
      <line x1="8.189693" y1="2.459923" x2="8.189693" y2="2.974801" />
      <path d="M 8.189693,2.459923 Q 8.169217,2.493792 8.168341,2.537005" />
      <path d="M 9.468303,4.338648 L 9.383584,4.450198" />
      <line x1="9.383584" y1="4.450198" x2="9.383584" y2="4.965076" />
      <path d="M 9.383584,4.450198 Q 9.212307,4.444026 9.063546,4.433274" />
      <line x1="7.375886" y1="4.532621" x2="7.375886" y2="4.545885" />
      <line x1="7.313472" y1="4.503676" x2="7.313472" y2="4.505642" />
      <line x1="6.574931" y1="4.592659" x2="6.574931" y2="5.010417" />
      <line x1="7.127251" y1="6.966955" x2="7.127251" y2="7.197771" />
      <line x1="5.314523" y1="6.140207" x2="5.314523" y2="6.347403" />
      <line x1="5.266386" y1="6.106163" x2="5.266386" y2="6.294683" />
      <line x1="4.400612" y1="6.270199" x2="4.400612" y2="6.618394" />
      <line x1="4.706191" y1="8.149291" x2="4.706191" y2="8.659482" />
      <path d="M 4.705939,8.144723 Q 4.491923,8.245229 4.273721,8.338885" />
      <line x1="4.273721" y1="8.338885" x2="4.273721" y2="8.853763" />
      <path d="M 4.273721,8.338885 L 4.232674,8.316427" />
      <path d="M 2.857227,7.233961 Q 2.808075,7.168103 2.779497,7.115291" />
      <line x1="2.779497" y1="7.115291" x2="2.779497" y2="7.630169" />
      <line x1="2.779497" y1="7.115291" x2="2.748917" y2="7.053687" />
      <line x1="2.748917" y1="7.053687" x2="2.748917" y2="7.568565" />
      <path d="M 2.748917,7.053687 C 2.731279,7.01681 2.692344,6.98003 2.641293,6.962375 C 2.590602,6.943975 2.532737,6.94645 2.489872,6.961887" />
      <path d="M 2.489872,6.961887 Q 2.156441,7.077537 1.814911,7.174274" />
      <line x1="1.814911" y1="7.174274" x2="1.814911" y2="7.689151" />
      <path d="M 1.814911,7.174274 C 1.742425,7.191106 1.674154,7.264623 1.677654,7.337071" />
      <path d="M 1.747605,8.155137 C 1.732939,8.314169 1.705486,8.479151 1.665245,8.650083 C 1.624407,8.822428 1.570965,9.001124 1.493847,9.213614" />
      <line x1="1.493847" y1="9.213614" x2="1.493847" y2="9.728492" />
      <path d="M 1.493847,9.213614 Q 1.256641,9.263244 1.017457,9.30532" />
      <line x1="1.017457" y1="9.30532" x2="1.017457" y2="9.820197" />
      <path d="M 1.017457,9.30532 C 0.785749,9.089149 0.617415,8.908372 0.467816,8.723119 C 0.318888,8.537545 0.196214,8.35543 0.099792,8.176774" />
      <path d="M -0.035456,7.870865 Q -0.049142,7.827769 -0.056433,7.791886" />
      <line x1="-0.056433" y1="7.791886" x2="-0.056433" y2="8.306764" />
      <line x1="-0.056433" y1="7.791886" x2="-0.067372" y2="7.725596" />
      <line x1="-0.067372" y1="7.725596" x2="-0.067372" y2="8.240474" />
      <path d="M -0.067372,7.725596 C -0.073276,7.686062 -0.09978,7.641897 -0.143761,7.613516 C -0.18717,7.584496 -0.24381,7.574048 -0.289875,7.579448" />
      <path d="M -0.289875,7.579448 Q -0.646861,7.617178 -1.005959,7.63484" />
      <line x1="-1.005959" y1="7.63484" x2="-1.005959" y2="8.149718" />
      <path d="M -1.005959,7.63484 C -1.051113,7.636594 -1.102964,7.65444 -1.139491,7.687911 C -1.176684,7.724057 -1.195022,7.763424 -1.194505,7.806011" />
      <path d="M -1.194505,7.806011 L -1.19435,7.812772" />
      <line x1="-1.19435" y1="7.812772" x2="-1.19435" y2="8.314128" />
      <path d="M -1.194505,7.951068 C -1.210828,8.13543 -1.292341,8.409056 -1.413497,8.67419 C -1.537843,8.945692 -1.689919,9.204815 -1.931787,9.533455" />
      <line x1="-1.931787" y1="9.533455" x2="-1.931787" y2="10.048333" />
      <path d="M -1.931787,9.533455 Q -2.175894,9.528764 -2.419631,9.516337" />
      <line x1="-2.419631" y1="9.516337" x2="-2.419631" y2="10.031214" />
      <path d="M -2.419631,9.516337 C -2.597817,9.223792 -2.713696,8.989873 -2.806909,8.752197 C -2.8983,8.518294 -2.961832,8.282561 -2.989089,8.083043" />
      <path d="M -2.989089,7.729003 Q -2.988673,7.667487 -3.039299,7.615394 Q -3.093443,7.566508 -3.161354,7.559207" />
      <path d="M -3.161354,7.559207 Q -3.517567,7.516444 -3.869762,7.453829" />
      <line x1="-3.869762" y1="7.453829" x2="-3.869762" y2="7.968707" />
      <path d="M -3.869762,7.453829 C -3.915158,7.44522 -3.972605,7.451664 -4.018635,7.477546 C -4.065174,7.50275 -4.095801,7.544911 -4.105453,7.583899" />
      <line x1="-4.105453" y1="7.583899" x2="-4.105453" y2="8.098777" />
      <line x1="-4.105453" y1="7.583899" x2="-4.122676" y2="7.649201" />
      <line x1="-4.122676" y1="7.649201" x2="-4.122676" y2="8.164079" />
      <path d="M -4.122676,7.649201 C -4.170068,7.80839 -4.330851,8.072343 -4.535623,8.317931 C -4.6381,8.441935 -4.753789,8.565797 -4.88269,8.689517 C -5.012894,8.81421 -5.156967,8.939631 -5.337259,9.082332" />
      <line x1="-5.337259" y1="9.082332" x2="-5.337259" y2="9.597209" />
      <path d="M -5.337259,9.082332 Q -5.571632,9.023638 -5.803313,8.957555" />
      <line x1="-5.803313" y1="8.957555" x2="-5.803313" y2="9.472433" />
      <path d="M -5.803313,8.957555 C -5.884609,8.645089 -5.925728,8.3996 -5.945007,8.156314" />
      <path d="M -5.806932,7.060399 C -5.804295,6.991784 -5.863494,6.923342 -5.928879,6.902543" />
      <path d="M -5.928879,6.902543 Q -6.260044,6.782202 -6.581334,6.643577" />
      <line x1="-6.581334" y1="6.643577" x2="-6.581334" y2="7.158454" />
      <path d="M -6.581334,6.643577 C -6.622584,6.625188 -6.680018,6.618667 -6.732294,6.633454 C -6.784857,6.647474 -6.827169,6.681402 -6.848264,6.716921" />
      <line x1="-6.848264" y1="6.716921" x2="-6.848264" y2="7.231798" />
      <line x1="-6.848264" y1="6.716921" x2="-6.884615" y2="6.776176" />
      <line x1="-6.884615" y1="6.776176" x2="-6.884615" y2="7.291054" />
      <path d="M -6.884615,6.776176 C -6.978453,6.919425 -7.213448,7.13871 -7.485389,7.330496 C -7.621813,7.427537 -7.770955,7.52151 -7.932817,7.612415 C -8.096231,7.703969 -8.273261,7.793151 -8.490493,7.890987" />
      <line x1="-8.490493" y1="7.890987" x2="-8.490493" y2="8.405864" />
      <path d="M -8.490493,7.890987 Q -8.675756,7.794483 -8.857229,7.692812" />
      <path d="M -8.3269,5.789366 C -8.325991,5.734559 -8.360569,5.68189 -8.403847,5.654206" />
      <path d="M -8.403847,5.654206 Q -8.687395,5.464488 -8.955885,5.2593" />
      <line x1="-8.955885" y1="5.2593" x2="-8.955885" y2="5.774177" />
      <path d="M -8.955885,5.2593 C -8.990177,5.232386 -9.043686,5.213343 -9.098646,5.216027 C -9.15365,5.217907 -9.204763,5.241291 -9.235863,5.270919" />
      <line x1="-9.235863" y1="5.270919" x2="-9.235863" y2="5.785797" />
      <line x1="-9.235863" y1="5.270919" x2="-9.288865" y2="5.32009" />
      <line x1="-9.288865" y1="5.32009" x2="-9.288865" y2="5.834968" />
      <path d="M -9.288865,5.32009 C -9.422755,5.437637 -9.715948,5.597311 -10.036525,5.722225 C -10.197598,5.78569 -10.370031,5.84337 -10.553822,5.895263 C -10.73931,5.947441 -10.937233,5.994305 -11.1766,6.040608" />
      <line x1="-11.1766" y1="6.040608" x2="-11.1766" y2="6.555486" />
      <path d="M -11.1766,6.040608 L -11.357135,5.875469" />
      <path d="M -10.37726,4.002521 Q -10.379425,3.941344 -10.417593,3.899269" />
      <path d="M -10.417593,3.899269 Q -10.634202,3.653102 -10.831594,3.395335" />
      <line x1="-10.831594" y1="3.395335" x2="-10.831594" y2="3.910212" />
      <path d="M -10.831594,3.395335 C -10.856592,3.361729 -10.902529,3.331463 -10.956426,3.321861 C -11.010123,3.311473 -11.066555,3.32272 -11.10554,3.344438" />
      <line x1="-11.10554" y1="3.344438" x2="-11.10554" y2="3.859315" />
      <line x1="-11.10554" y1="3.344438" x2="-11.171582" y2="3.380173" />
      <line x1="-11.171582" y1="3.380173" x2="-11.171582" y2="3.895051" />
      <path d="M -11.171582,3.380173 C -11.336398,3.464008 -11.667809,3.553188 -12.015176,3.602718 C -12.189921,3.628282 -12.373892,3.645738 -12.567089,3.655084 C -12.762009,3.664328 -12.967337,3.665681 -13.212528,3.657297" />
      <line x1="-13.212528" y1="3.657297" x2="-13.212528" y2="4.172174" />
      <path d="M -13.212528,3.657297 L -13.264441,3.575261" />
      <path d="M -11.818284,1.821635 Q -11.81879,1.786402 -11.832885,1.757327" />
      <path d="M -11.832885,1.757327 Q -11.967791,1.471489 -12.080634,1.178707" />
      <line x1="-12.080634" y1="1.178707" x2="-12.080634" y2="1.693585" />
      <path d="M -12.080634,1.178707 C -12.094635,1.1407 -12.129869,1.101273 -12.17903,1.080041 C -12.227762,1.058092 -12.285666,1.056434 -12.329879,1.068763" />
      <line x1="-12.329879" y1="1.068763" x2="-12.329879" y2="1.58364" />
      <line x1="-12.329879" y1="1.068763" x2="-12.40446" y2="1.088627" />
      <line x1="-12.40446" y1="1.088627" x2="-12.40446" y2="1.603505" />
      <path d="M -12.40446,1.088627 C -12.587382,1.132653 -12.930473,1.145472 -13.277801,1.117108 C -13.45273,1.103442 -13.633922,1.080086 -13.821378,1.047039 C -14.010342,1.013546 -14.206635,0.97032 -14.436542,0.909579" />
      <line x1="-14.45953" y1="0.927016" x2="-14.45953" y2="1.418349" />
      <path d="M -12.551768,-0.604668 L -12.553271,-0.625649" />
      <path d="M -12.553271,-0.625649 Q -12.597283,-0.93168 -12.617886,-1.239522" />
      <line x1="-12.617886" y1="-1.239522" x2="-12.617886" y2="-0.724645" />
      <path d="M -12.617886,-1.239522 C -12.619935,-1.279341 -12.642065,-1.325242 -12.68314,-1.356659 C -12.723585,-1.388672 -12.779016,-1.403121 -12.825445,-1.401022" />
      <line x1="-12.825445" y1="-1.401022" x2="-12.825445" y2="-0.886145" />
      <line x1="-12.825445" y1="-1.401022" x2="-12.903481" y2="-1.398382" />
      <line x1="-12.903481" y1="-1.398382" x2="-12.903481" y2="-0.883505" />
      <path d="M -12.903481,-1.398382 C -13.086195,-1.396526 -13.404954,-1.455591 -13.719478,-1.553354 C -14.04108,-1.653268 -14.351264,-1.780342 -14.724447,-1.975535" />
      <path d="M -12.402569,-3.729374 Q -12.402432,-3.788239 -12.447912,-3.838085 Q -12.496095,-3.88534 -12.558464,-3.896606" />
      <line x1="-12.558464" y1="-3.896606" x2="-12.558464" y2="-3.381728" />
      <line x1="-12.558464" y1="-3.896606" x2="-12.634638" y2="-3.91137" />
      <line x1="-12.634638" y1="-3.91137" x2="-12.634638" y2="-3.396492" />
      <path d="M -12.634638,-3.91137 C -12.806222,-3.948934 -13.085014,-4.070454 -13.351402,-4.227561 C -13.623159,-4.387691 -13.8792,-4.572374 -14.165592,-4.824966" />
      <path d="M -11.440223,-6.09617 C -11.438289,-6.160628 -11.488926,-6.223994 -11.547131,-6.247917" />
      <line x1="-11.547131" y1="-6.247917" x2="-11.547131" y2="-5.73304" />
      <line x1="-11.547131" y1="-6.247917" x2="-11.616253" y2="-6.27908" />
      <line x1="-11.616253" y1="-6.27908" x2="-11.616253" y2="-5.764202" />
      <path d="M -11.616253,-6.27908 C -11.760153,-6.348423 -11.973562,-6.509752 -12.171186,-6.702254 C -12.372008,-6.897551 -12.556395,-7.115366 -12.740185,-7.382935" />
      <path d="M -9.796102,-8.168797 C -9.795496,-8.218827 -9.823673,-8.266573 -9.860367,-8.294719" />
      <line x1="-9.860367" y1="-8.294719" x2="-9.860367" y2="-7.779842" />
      <line x1="-9.860367" y1="-8.294719" x2="-9.917725" y2="-8.340156" />
      <line x1="-9.917725" y1="-8.340156" x2="-9.917725" y2="-7.825279" />
      <path d="M -9.917725,-8.340156 C -10.028181,-8.432754 -10.173979,-8.617377 -10.300585,-8.829066 C -10.428637,-9.041002 -10.539384,-9.279648 -10.632827,-9.545004" />
      <path d="M -7.582249,-9.806011 Q -7.583731,-9.858819 -7.613122,-9.897526" />
      <line x1="-7.613122" y1="-9.897526" x2="-7.613122" y2="-9.382648" />
      <line x1="-7.613122" y1="-9.897526" x2="-7.654807" y2="-9.954141" />
      <line x1="-7.654807" y1="-9.954141" x2="-7.654807" y2="-9.439263" />
      <path d="M -7.654807,-9.954141 C -7.72929,-10.062008 -7.809874,-10.257004 -7.867489,-10.47473 C -7.92633,-10.69398 -7.963108,-10.932073 -7.977821,-11.18901" />
      <path d="M -4.949536,-10.896236 Q -4.949787,-10.9235 -4.958542,-10.947107" />
      <line x1="-4.958542" y1="-10.947107" x2="-4.958542" y2="-10.43223" />
      <line x1="-4.958542" y1="-10.947107" x2="-4.981714" y2="-11.011042" />
      <line x1="-4.981714" y1="-11.011042" x2="-4.981714" y2="-10.496165" />
      <path d="M -4.981714,-11.011042 Q -5.006099,-11.086911 -5.019486,-11.199425" />
      <line x1="-2.077532" y1="-10.993621" x2="-2.077532" y2="-10.85706" />
      <line x1="-2.080612" y1="-10.933716" x2="-2.080612" y2="-10.923958" />
      <line x1="-0.271877" y1="-11.025823" x2="-0.271877" y2="-10.860489" />
      <line x1="-0.281324" y1="-11.11635" x2="-0.281324" y2="-10.794031" />
      <path d="M 2.673126,-11.200601 C 2.65757,-11.013696 2.622418,-10.84717 2.578735,-10.745745" />
      <line x1="2.578735" y1="-10.745745" x2="2.578735" y2="-10.230867" />
      <line x1="2.578735" y1="-10.745745" x2="2.549545" y2="-10.683647" />
      <line x1="2.549545" y1="-10.683647" x2="2.549545" y2="-10.16877" />
      <path d="M 2.549545,-10.683647 Q 2.535552,-10.654661 2.53505,-10.619564" />
      <path d="M 5.585347,-10.7371 C 5.546877,-10.476571 5.487548,-10.237182 5.407361,-10.018933 C 5.328545,-9.801885 5.227977,-9.608978 5.142125,-9.505094" />
      <line x1="5.142125" y1="-9.505094" x2="5.142125" y2="-8.990216" />
      <line x1="5.142125" y1="-9.505094" x2="5.095181" y2="-9.451589" />
      <line x1="5.095181" y1="-9.451589" x2="5.095181" y2="-8.936711" />
      <path d="M 5.095181,-9.451589 Q 5.05717,-9.409564 5.055018,-9.348531" />
      <path d="M 8.085253,-8.919757 C 7.964618,-8.650956 7.831334,-8.420184 7.680457,-8.210377 C 7.531728,-8.003112 7.364909,-7.824196 7.2436,-7.737963" />
      <line x1="7.2436" y1="-7.737963" x2="7.2436" y2="-7.223085" />
      <line x1="7.2436" y1="-7.737963" x2="7.182103" y2="-7.696696" />
      <line x1="7.182103" y1="-7.696696" x2="7.182103" y2="-7.181818" />
      <path d="M 7.182103,-7.696696 C 7.138939,-7.668997 7.104475,-7.616412 7.105378,-7.561685" />
      <path d="M 9.992559,-6.619549 C 9.77809,-6.354737 9.570748,-6.145379 9.347327,-5.959191 C 9.127694,-5.775896 8.893301,-5.625098 8.73995,-5.564777" />
      <line x1="8.73995" y1="-5.564777" x2="8.73995" y2="-5.049899" />
      <line x1="8.73995" y1="-5.564777" x2="8.668089" y2="-5.538562" />
      <line x1="8.668089" y1="-5.538562" x2="8.668089" y2="-5.023684" />
      <path d="M 8.668089,-5.538562 C 8.602827,-5.517702 8.543779,-5.449346 8.546402,-5.3808" />
      <path d="M 11.164661,-3.953867 C 10.848751,-3.7155 10.573638,-3.546821 10.283842,-3.403517 C 10.000013,-3.263058 9.705958,-3.159363 9.529199,-3.133637" />
      <line x1="9.529199" y1="-3.133637" x2="9.529199" y2="-2.618759" />
      <line x1="9.529199" y1="-3.133637" x2="9.451872" y2="-3.124259" />
      <line x1="9.451872" y1="-3.124259" x2="9.451872" y2="-2.609381" />
      <path d="M 9.451872,-3.124259 Q 9.384054,-3.116885 9.330014,-3.068026 Q 9.279476,-3.01597 9.279887,-2.954497" />
      <line x1="9.257778" y1="-0.471901" x2="9.257778" y2="0.042976" />
      <line x1="8.491778" y1="2.01923" x2="8.491778" y2="2.415475" />
      <line x1="7.03559" y1="4.417488" x2="7.03559" y2="4.537175" />
      <line x1="4.988452" y1="6.021274" x2="4.988452" y2="6.263487" />
      <line x1="2.489872" y1="6.961887" x2="2.489872" y2="7.476765" />
      <line x1="-0.289875" y1="7.579448" x2="-0.289875" y2="8.094326" />
      <line x1="-3.161354" y1="7.559207" x2="-3.161354" y2="8.074085" />
      <line x1="-5.928879" y1="6.902543" x2="-5.928879" y2="7.41742" />
      <line x1="-8.403847" y1="5.654206" x2="-8.403847" y2="6.169084" />
      <line x1="-10.417593" y1="3.899269" x2="-10.417593" y2="4.414146" />
      <line x1="-11.832885" y1="1.757327" x2="-11.832885" y2="2.272205" />
      <line x1="-12.553271" y1="-0.625649" x2="-12.553271" y2="-0.110771" />
      <path d="M 4.49736,7.133127 L 4.49736,7.353484" />
      <path d="M -0.099338,6.833483 L -0.099338,7.348361" />
      <path d="M -2.370368,2.008759 L -2.370368,2.518064" />
      <path d="M 0.361904,-2.832234 L 0.361904,-2.317356" />
      <path d="M 4.958603,-2.82711 L 4.958603,-2.312232" />
      <path d="M 7.229632,2.430924 L 7.229632,2.518064" />
      <line x1="12.364059" y1="-1.779582" x2="12.364059" y2="-1.264705" />
      <line x1="-15.635941" y1="-1.779582" x2="-15.635941" y2="-1.264705" />
      <path d="M 9.130688,0.170209 L 9.130688,0.685087" />
      <path d="M 8.168341,2.537005 L 8.168341,3.051883" />
      <path d="M 6.52422,4.665395 L 6.52422,5.12451" />
      <path d="M 4.310367,6.342605 L 4.310367,6.761723" />
      <path d="M 1.677654,7.337071 L 1.677654,7.851949" />
      <path d="M -1.194505,7.806011 L -1.194505,8.320889" />
      <path d="M -2.989089,7.729003 L -2.989089,8.243881" />
      <path d="M -5.806932,7.060399 L -5.806932,7.575277" />
      <path d="M -8.3269,5.789366 L -8.3269,6.304243" />
      <path d="M -10.37726,4.002521 L -10.37726,4.517398" />
      <path d="M -11.818284,1.821635 L -11.818284,2.336512" />
      <path d="M -12.551768,-0.604668 L -12.551768,-0.089791" />
      <path d="M -12.402569,-3.729374 L -12.402569,-3.214496" />
      <path d="M -11.440223,-6.09617 L -11.440223,-5.581292" />
      <path d="M -9.796102,-8.168797 L -9.796102,-7.65392" />
      <path d="M -7.582249,-9.806011 L -7.582249,-9.291133" />
      <path d="M -4.949536,-10.896236 L -4.949536,-10.381358" />
      <path d="M -2.077376,-10.995355 L -2.077376,-10.850299" />
      <path d="M -0.282793,-11.127331 L -0.282793,-10.77329" />
      <path d="M 2.53505,-10.619564 L 2.53505,-10.104687" />
      <path d="M 5.055018,-9.348531 L 5.055018,-8.833653" />
      <path d="M 7.105378,-7.561685 L 7.105378,-7.046808" />
      <path d="M 8.546402,-5.3808 L 8.546402,-4.865922" />
      <path d="M 9.279887,-2.954497 L 9.279887,-2.439619" />
    </g>
  </g>
</svg>