<?xml version='1.0' encoding='utf-8'?>
<svg width="100.09mm" height="87.720514mm" viewBox="-15.925624 -11.41774 29.0261 25.438949" version="1.1" xmlns="http://www.w3.org/2000/svg">
  <g transform="scale(1,-1)" stroke-linecap="round">
    <g fill="none" stroke="rgb(0,0,0)" stroke-width="0.0261" id="Visible">
      <path d="M 6.888115,4.702654 Q 6.754036,4.912951 6.592488,5.108497" />
      <path d="M 6.69332,4.981506 Q 6.737856,5.027165 6.789106,5.06738" />
      <path d="M 6.592488,5.108497 Q 6.552918,5.158294 6.553179,5.221917" />
      <path d="M 6.553179,5.221917 C 6.553111,5.330227 6.637294,5.448167 6.740867,5.53959 C 6.846344,5.63037 6.967088,5.706263 7.1031,5.767268" />
      <line x1="7.1031" y1="5.690652" x2="7.1031" y2="5.767268" />
      <path d="M 7.1031,5.767268 C 7.405701,6.038917 7.598123,6.528395 7.671827,6.935249" />
      <line x1="7.671827" y1="6.796795" x2="7.671827" y2="6.935249" />
      <path d="M 7.671827,6.935249 Q 7.454149,7.12555 7.217704,7.298556" />
      <path d="M 7.217704,7.298556 C 6.750247,7.206712 6.195183,7.007355 5.900956,6.729006" />
      <path d="M 5.900956,6.729006 C 5.824755,6.585401 5.732756,6.455695 5.600561,6.34907 C 5.47239,6.244028 5.29516,6.18007 5.171675,6.245175" />
      <path d="M 5.171675,6.245175 Q 4.933098,6.369736 4.679323,6.469729" />
      <path d="M 4.679323,6.469729 C 4.577352,6.509632 4.528903,6.618286 4.530294,6.734714" />
      <path d="M 4.530294,6.734714 Q 4.53387,6.873835 4.592731,7.007231 Q 4.6489,7.137035 4.737907,7.259454" />
      <line x1="4.737907" y1="7.252036" x2="4.737907" y2="7.259454" />
      <path d="M 4.737907,7.259454 Q 4.777557,7.401306 4.776852,7.566394" />
      <path d="M 4.776852,7.566394 C 4.776562,7.880204 4.678869,8.22897 4.550297,8.515118" />
      <path d="M 4.550297,8.515118 Q 4.250966,8.586471 3.945453,8.634789" />
      <path d="M 3.945453,8.634789 C 3.594107,8.354564 3.229497,7.943618 3.136777,7.576245" />
      <line x1="3.136777" y1="7.279614" x2="3.136777" y2="7.576245" />
      <path d="M 3.136777,7.576245 Q 3.146029,7.497126 3.146145,7.421393" />
      <path d="M 3.146145,7.421393 C 3.146034,7.295279 3.125941,7.163487 3.067237,7.047279 C 3.010262,6.932125 2.906595,6.841455 2.786948,6.844144" />
      <path d="M 2.786948,6.844144 Q 2.5078,6.849593 2.229796,6.82724" />
      <path d="M 2.229796,6.82724 C 2.093496,6.815758 1.971274,6.926668 1.90758,7.059806 C 1.841391,7.195079 1.820167,7.340717 1.819838,7.487011" />
      <path d="M 1.819838,7.487011 L 1.820656,7.536313" />
      <line x1="1.820656" y1="7.439418" x2="1.820656" y2="7.536313" />
      <path d="M 1.820656,7.536313 C 1.697967,7.89715 1.300485,8.284973 0.926978,8.543206" />
      <path d="M 0.926978,8.543206 Q 0.626199,8.476493 0.33348,8.387176" />
      <path d="M 0.180113,7.049313 Q 0.178411,6.808113 0.249562,6.610677" />
      <path d="M 0.33348,8.387176 C 0.243483,8.135096 0.180269,7.83949 0.180113,7.56191" />
      <path d="M 0.180113,7.56191 Q 0.178411,7.32071 0.249562,7.123274" />
      <line x1="0.249562" y1="6.610677" x2="0.249562" y2="7.123274" />
      <path d="M 0.249562,6.610677 Q 0.349012,6.493272 0.415911,6.366337" />
      <path d="M 0.249562,7.123274 C 0.319987,7.040319 0.378129,6.953556 0.423988,6.862987 C 0.469216,6.771731 0.501201,6.671226 0.501339,6.575722" />
      <path d="M 0.501339,6.575722 C 0.50233,6.47352 0.460535,6.380164 0.372921,6.339069" />
      <path d="M 0.372921,6.339069 Q 0.127998,6.223945 -0.099744,6.085235" />
      <path d="M -0.099744,6.085235 C -0.217569,6.012809 -0.399614,6.065867 -0.536101,6.162879 C -0.676732,6.261226 -0.779164,6.385033 -0.866979,6.523661" />
      <path d="M -0.866979,6.523661 C -1.183355,6.783483 -1.753423,6.948703 -2.227264,7.011987" />
      <path d="M -2.227264,7.011987 Q -2.448898,6.825083 -2.650389,6.622064" />
      <line x1="-2.650389" y1="6.109467" x2="-2.650389" y2="6.622064" />
      <path d="M -2.650389,6.109467 C -2.543422,5.708095 -2.311242,5.2315 -1.987064,4.978868" />
      <path d="M -2.650389,6.622064 C -2.543422,6.220692 -2.311242,5.744097 -1.987064,5.491465" />
      <line x1="-1.987064" y1="4.978868" x2="-1.987064" y2="5.491465" />
      <path d="M -1.987064,4.978868 C -1.81344,4.910925 -1.655788,4.827766 -1.530069,4.707128" />
      <path d="M -1.987064,5.491465 C -1.842679,5.437605 -1.713126,5.366974 -1.598405,5.279572 C -1.485787,5.191485 -1.392822,5.073819 -1.392998,4.964331" />
      <path d="M -1.392998,4.964331 Q -1.392828,4.910228 -1.423571,4.865283" />
      <path d="M -1.423571,4.865283 Q -1.568641,4.660434 -1.685098,4.442535" />
      <path d="M -1.685098,4.442535 C -1.744962,4.329228 -1.933514,4.297023 -2.108207,4.322442 C -2.287268,4.347238 -2.448072,4.410482 -2.604849,4.492838" />
      <path d="M -2.604849,4.492838 C -3.030139,4.582026 -3.620043,4.480371 -4.067254,4.33175" />
      <path d="M -4.067254,4.33175 Q -4.150355,4.074736 -4.206629,3.812413" />
      <line x1="-4.206629" y1="3.299816" x2="-4.206629" y2="3.812413" />
      <path d="M -4.206629,3.299816 C -3.880265,2.99814 -3.401659,2.685075 -2.973799,2.605464" />
      <path d="M -4.206629,3.812413 C -3.880265,3.510737 -3.401659,3.197672 -2.973799,3.118061" />
      <line x1="-2.973799" y1="2.605464" x2="-2.973799" y2="3.118061" />
      <path d="M -2.973799,2.605464 C -2.796225,2.620176 -2.625448,2.617181 -2.456239,2.576143 C -2.290695,2.536896 -2.13632,2.446354 -2.122405,2.327479" />
      <path d="M -2.973799,3.118061 C -2.791469,3.133152 -2.615345,3.129661 -2.4422,3.085136 C -2.272677,3.042764 -2.119336,2.944044 -2.121138,2.820261" />
      <path d="M -2.121138,2.820261 L -2.121159,2.817687" />
      <path d="M -2.121159,2.817687 L -2.122405,2.723793" />
      <path d="M -2.122405,2.723793 Q -2.122396,2.531075 -2.101472,2.339299" />
      <line x1="-2.101472" y1="2.308614" x2="-2.101472" y2="2.339299" />
      <path d="M -2.101472,2.339299 L -2.100713,2.32396" />
      <path d="M -2.100713,2.32396 C -2.099223,2.203061 -2.245295,2.100544 -2.408532,2.050179 C -2.575263,1.997681 -2.747245,1.984054 -2.927292,1.988" />
      <path d="M -2.927292,1.988 C -3.34754,1.882656 -3.799217,1.541366 -4.099967,1.220662" />
      <line x1="-4.099967" y1="0.708065" x2="-4.099967" y2="1.220662" />
      <path d="M -4.099967,0.708065 Q -4.022269,0.449808 -3.918247,0.19847" />
      <path d="M -4.099967,1.220662 Q -4.022269,0.962405 -3.918247,0.711067" />
      <line x1="-3.918247" y1="0.19847" x2="-3.918247" y2="0.711067" />
      <path d="M -3.918247,0.19847 C -3.459934,0.077324 -2.863144,0.011675 -2.446247,0.126415" />
      <path d="M -3.918247,0.711067 C -3.459934,0.589921 -2.863144,0.524272 -2.446247,0.639012" />
      <line x1="-2.446247" y1="0.126415" x2="-2.446247" y2="0.639012" />
      <path d="M -2.446247,0.126415 C -2.296631,0.218067 -2.141427,0.290899 -1.964852,0.326486 C -1.792684,0.362429 -1.601955,0.341731 -1.532925,0.232335" />
      <path d="M -2.446247,0.639012 C -2.296631,0.730664 -2.141427,0.803496 -1.964852,0.839083 C -1.792684,0.875026 -1.601955,0.854328 -1.532925,0.744932" />
      <line x1="-1.532925" y1="0.232335" x2="-1.532925" y2="0.744932" />
      <path d="M -1.532925,0.232335 Q -1.441972,0.08966 -1.338131,-0.046518" />
      <path d="M -1.532925,0.744932 Q -1.398846,0.534634 -1.237299,0.339088" />
      <line x1="-1.237299" y1="0.087384" x2="-1.237299" y2="0.339088" />
      <path d="M -1.237299,0.339088 Q -1.197729,0.289292 -1.197989,0.225668" />
      <path d="M -1.197989,0.225668 C -1.197921,0.117358 -1.282105,-0.000581 -1.385678,-0.092004 C -1.491155,-0.182784 -1.611899,-0.258677 -1.74791,-0.319683" />
      <path d="M -1.74791,-0.319683 C -2.050511,-0.591332 -2.242934,-1.080809 -2.316638,-1.487663" />
      <line x1="-2.316638" y1="-2.00026" x2="-2.316638" y2="-1.487663" />
      <path d="M -2.316638,-2.00026 Q -2.09896,-2.190561 -1.862515,-2.363567" />
      <path d="M -2.316638,-1.487663 Q -2.09896,-1.677964 -1.862515,-1.85097" />
      <line x1="-1.862515" y1="-2.363567" x2="-1.862515" y2="-1.85097" />
      <path d="M -1.862515,-2.363567 C -1.395058,-2.271723 -0.839993,-2.072366 -0.545766,-1.794017" />
      <path d="M -1.862515,-1.85097 C -1.395058,-1.759126 -0.839993,-1.559769 -0.545766,-1.281421" />
      <line x1="-0.545766" y1="-1.794017" x2="-0.545766" y2="-1.281421" />
      <path d="M -0.545766,-1.794017 C -0.469565,-1.650413 -0.377567,-1.520707 -0.245371,-1.414081 C -0.1172,-1.30904 0.060029,-1.245082 0.183515,-1.310186" />
      <path d="M -0.545766,-1.281421 C -0.469565,-1.137816 -0.377567,-1.00811 -0.245371,-0.901485 C -0.1172,-0.796443 0.060029,-0.732485 0.183515,-0.797589" />
      <line x1="0.183515" y1="-1.310186" x2="0.183515" y2="-0.797589" />
      <path d="M 0.183515,-1.310186 Q 0.422092,-1.434747 0.675867,-1.53474" />
      <path d="M 0.183515,-0.797589 Q 0.422092,-0.92215 0.675867,-1.022143" />
      <line x1="0.675867" y1="-1.53474" x2="0.675867" y2="-1.022143" />
      <path d="M 0.675867,-1.53474 Q 0.719706,-1.552581 0.751156,-1.585317" />
      <path d="M 0.675867,-1.022143 C 0.777837,-1.062046 0.826287,-1.1707 0.824895,-1.287128" />
      <path d="M 0.824895,-1.287128 Q 0.82132,-1.426249 0.762458,-1.559646 Q 0.70629,-1.689449 0.617282,-1.811869" />
      <path d="M 0.578337,-2.631405 C 0.578628,-2.945216 0.67632,-3.293981 0.804892,-3.580129" />
      <path d="M 0.617282,-1.811869 Q 0.577633,-1.95372 0.578337,-2.118808" />
      <path d="M 0.578337,-2.118808 C 0.578628,-2.432619 0.67632,-2.781384 0.804892,-3.067532" />
      <line x1="0.804892" y1="-3.580129" x2="0.804892" y2="-3.067532" />
      <path d="M 0.804892,-3.580129 Q 1.104223,-3.651482 1.409736,-3.699801" />
      <path d="M 0.804892,-3.067532 Q 1.104223,-3.138885 1.409736,-3.187204" />
      <line x1="1.409736" y1="-3.699801" x2="1.409736" y2="-3.187204" />
      <path d="M 1.409736,-3.699801 C 1.761083,-3.419575 2.125693,-3.00863 2.218412,-2.641257" />
      <path d="M 1.409736,-3.187204 C 1.761083,-2.906978 2.125693,-2.496033 2.218412,-2.12866" />
      <line x1="2.218412" y1="-2.641257" x2="2.218412" y2="-2.12866" />
      <path d="M 2.218412,-2.344625 C 2.23256,-2.241882 2.265034,-2.136242 2.32458,-2.05117 C 2.383126,-1.966297 2.471463,-1.907232 2.568241,-1.909155" />
      <path d="M 2.218412,-2.12866 Q 2.20916,-2.04954 2.209045,-1.973807" />
      <path d="M 2.209045,-1.973807 C 2.209156,-1.847694 2.229248,-1.715901 2.287953,-1.599694 C 2.344927,-1.48454 2.448594,-1.393869 2.568241,-1.396558" />
      <line x1="2.568241" y1="-1.909155" x2="2.568241" y2="-1.396558" />
      <path d="M 2.568241,-1.909155 Q 2.84739,-1.914604 3.125394,-1.892251" />
      <path d="M 2.568241,-1.396558 Q 2.84739,-1.402007 3.125394,-1.379654" />
      <line x1="3.125394" y1="-1.892251" x2="3.125394" y2="-1.379654" />
      <path d="M 3.125394,-1.892251 C 3.253975,-1.881449 3.371341,-1.979994 3.436516,-2.103549 C 3.503874,-2.228625 3.529541,-2.367892 3.534534,-2.504429" />
      <path d="M 3.125394,-1.379654 C 3.261693,-1.368173 3.383916,-1.479082 3.44761,-1.612221 C 3.513798,-1.747494 3.535023,-1.893131 3.535352,-2.039426" />
      <path d="M 3.535352,-2.039426 L 3.534534,-2.088728" />
      <line x1="3.534534" y1="-2.601324" x2="3.534534" y2="-2.088728" />
      <path d="M 3.534534,-2.601324 C 3.657222,-2.962162 4.054705,-3.349985 4.428211,-3.608218" />
      <path d="M 3.534534,-2.088728 C 3.657222,-2.449565 4.054705,-2.837388 4.428211,-3.095621" />
      <line x1="4.428211" y1="-3.608218" x2="4.428211" y2="-3.095621" />
      <path d="M 4.428211,-3.608218 Q 4.72899,-3.541504 5.021709,-3.452188" />
      <path d="M 4.428211,-3.095621 Q 4.72899,-3.028907 5.021709,-2.939591" />
      <line x1="5.021709" y1="-3.452188" x2="5.021709" y2="-2.939591" />
      <path d="M 5.021709,-3.452188 C 5.111707,-3.200107 5.17492,-2.904501 5.175077,-2.626922" />
      <path d="M 5.021709,-2.939591 C 5.111707,-2.68751 5.17492,-2.391904 5.175077,-2.114325" />
      <path d="M 5.175077,-2.114325 Q 5.176779,-1.873124 5.105628,-1.675688" />
      <path d="M 4.939279,-1.431349 Q 4.95873,-1.415394 4.982269,-1.40408" />
      <path d="M 5.105628,-1.675688 C 5.035202,-1.592733 4.97706,-1.505971 4.931202,-1.415401 C 4.885973,-1.324145 4.853989,-1.22364 4.853851,-1.128137" />
      <path d="M 4.853851,-1.128137 C 4.852859,-1.025934 4.894655,-0.932579 4.982269,-0.891483" />
      <line x1="4.982269" y1="-1.40408" x2="4.982269" y2="-0.891483" />
      <path d="M 4.982269,-1.40408 Q 5.227191,-1.288956 5.454933,-1.150247" />
      <path d="M 4.982269,-0.891483 Q 5.227191,-0.776359 5.454933,-0.63765" />
      <line x1="5.454933" y1="-1.150247" x2="5.454933" y2="-0.63765" />
      <path d="M 5.454933,-1.150247 C 5.572759,-1.077821 5.754804,-1.130878 5.89129,-1.22789 C 6.031921,-1.326237 6.134353,-1.450044 6.222169,-1.588673" />
      <path d="M 5.454933,-0.63765 C 5.572759,-0.565224 5.754804,-0.618281 5.89129,-0.715293 C 6.031921,-0.81364 6.134353,-0.937447 6.222169,-1.076076" />
      <line x1="6.222169" y1="-1.588673" x2="6.222169" y2="-1.076076" />
      <path d="M 6.222169,-1.588673 C 6.538544,-1.848495 7.108613,-2.013714 7.582454,-2.076999" />
      <path d="M 6.222169,-1.076076 C 6.538544,-1.335898 7.108613,-1.501117 7.582454,-1.564402" />
      <line x1="7.582454" y1="-2.076999" x2="7.582454" y2="-1.564402" />
      <path d="M 7.582454,-2.076999 Q 7.804087,-1.890094 8.005578,-1.687075" />
      <path d="M 7.582454,-1.564402 Q 7.804087,-1.377497 8.005578,-1.174478" />
      <line x1="8.005578" y1="-1.687075" x2="8.005578" y2="-1.174478" />
      <path d="M 8.005578,-1.174478 C 7.898612,-0.773106 7.666432,-0.296512 7.342254,-0.043879" />
      <path d="M 7.342254,-0.043879 C 7.197869,0.009981 7.068316,0.080612 6.953595,0.168013 C 6.840977,0.2561 6.748011,0.373766 6.748187,0.483255" />
      <path d="M 6.748187,0.483255 Q 6.748017,0.537357 6.778761,0.582302" />
      <line x1="6.778761" y1="0.367442" x2="6.778761" y2="0.582302" />
      <path d="M 6.885258,0.227861 Q 6.968342,0.357818 7.040287,0.492454" />
      <path d="M 6.778761,0.582302 Q 6.923831,0.787151 7.040287,1.00505" />
      <line x1="7.040287" y1="0.492454" x2="7.040287" y2="1.00505" />
      <path d="M 7.040287,0.492454 C 7.100152,0.60576 7.288704,0.637966 7.463397,0.612547 C 7.642457,0.58775 7.803261,0.524506 7.960039,0.442151" />
      <path d="M 7.040287,1.00505 C 7.100152,1.118357 7.288704,1.150563 7.463397,1.125144 C 7.642457,1.100347 7.803261,1.037103 7.960039,0.954748" />
      <line x1="7.960039" y1="0.442151" x2="7.960039" y2="0.954748" />
      <path d="M 7.960039,0.442151 C 8.367525,0.356528 8.928067,0.446766 9.366594,0.585205" />
      <path d="M 7.960039,0.954748 C 8.385328,0.86556 8.975233,0.967214 9.422444,1.115835" />
      <line x1="9.422444" y1="0.97385" x2="9.422444" y2="1.115835" />
      <path d="M 9.540066,1.025636 L 9.561818,1.122576" />
      <path d="M 9.422444,1.115835 Q 9.505545,1.37285 9.561818,1.635172" />
      <line x1="9.561818" y1="1.122576" x2="9.561818" y2="1.635172" />
      <path d="M 9.561818,1.635172 C 9.235455,1.936849 8.756848,2.249913 8.328989,2.329525" />
      <path d="M 8.328989,2.329525 C 8.146659,2.314434 7.970534,2.317925 7.79739,2.362449 C 7.627867,2.404822 7.474525,2.503542 7.476328,2.627324" />
      <path d="M 7.476328,2.627324 L 7.476349,2.629899" />
      <line x1="7.476349" y1="2.624752" x2="7.476349" y2="2.629899" />
      <path d="M 7.476349,2.629899 L 7.477595,2.723793" />
      <path d="M 7.477595,2.723793 Q 7.477585,2.916511 7.456661,3.108286" />
      <path d="M 7.477595,2.69252 C 7.531241,2.792195 7.675244,2.86433 7.822207,2.901778 C 7.97223,2.94014 8.122753,2.950554 8.282482,2.946989" />
      <path d="M 7.456661,3.108286 L 7.455902,3.123626" />
      <path d="M 7.455902,3.123626 C 7.454412,3.244524 7.600485,3.347042 7.763722,3.397407 C 7.930452,3.449905 8.102434,3.463531 8.282482,3.459586" />
      <line x1="8.282482" y1="2.946989" x2="8.282482" y2="3.459586" />
      <path d="M 8.282482,2.946989 Q 8.350463,2.963958 8.419691,2.989005" />
      <path d="M 8.282482,3.459586 C 8.702729,3.56493 9.154406,3.90622 9.455156,4.226923" />
      <line x1="9.455156" y1="4.155949" x2="9.455156" y2="4.226923" />
      <path d="M 9.455156,4.226923 Q 9.377459,4.485181 9.273437,4.736518" />
      <path d="M 9.273437,4.736518 C 8.815124,4.857665 8.218334,4.923314 7.801437,4.808573" />
      <path d="M 7.801437,4.808573 C 7.651821,4.716922 7.496617,4.64409 7.320041,4.608503 C 7.147874,4.57256 6.957145,4.593258 6.888115,4.702654" />
      <path d="M -15.912574,-1.558033 A 14.5,12.450125827204369 -1.9389958968379993e-16 1,1 13.087426,-1.558033" />
      <path d="M 13.078382,-0.605768 A 14.5,12.450125827204369 -1.9389958968379993e-16 0,1 -15.912574,-1.045436" />
      <path d="M -15.912574,-1.045436 A 14.5,12.450125827204369 -1.9389958968379993e-16 1,1 13.087426,-1.045436" />
      <path d="M 13.087426,-1.045436 A 14.5,12.450125827204369 -1.9389958968379993e-16 0,1 13.078382,-0.605768" />
      <line x1="9.743566" y1="-2.967796" x2="9.666301" y2="-2.958032" />
      <path d="M 11.375888,-3.798815 C 11.066266,-3.561917 10.792352,-3.39084 10.503771,-3.245383 C 10.220832,-3.10266 9.926844,-2.996103 9.743566,-2.967796" />
      <path d="M 8.866791,-5.372383 C 8.802014,-5.351252 8.743561,-5.283131 8.746132,-5.214747" />
      <line x1="8.938481" y1="-5.398984" x2="8.866791" y2="-5.372383" />
      <path d="M 10.183446,-6.460409 C 9.974001,-6.198442 9.76879,-5.987806 9.547456,-5.800429 C 9.329667,-5.615793 9.096604,-5.462895 8.938481,-5.398984" />
      <path d="M 7.36676,-7.526791 C 7.324047,-7.498994 7.290035,-7.446657 7.290914,-7.392159" />
      <line x1="7.427988" y1="-7.568418" x2="7.36676" y2="-7.526791" />
      <path d="M 8.261944,-8.756086 C 8.144521,-8.489776 8.013517,-8.258361 7.864708,-8.047772 C 7.71791,-7.839595 7.552588,-7.658904 7.427988,-7.568418" />
      <path d="M 5.268432,-9.274439 Q 5.23104,-9.23255 5.228938,-9.171985" />
      <line x1="5.315026" y1="-9.328254" x2="5.268432" y2="-9.274439" />
      <path d="M 5.750373,-10.565472 C 5.714038,-10.306749 5.656786,-10.067867 5.578615,-9.848824 C 5.501681,-9.631196 5.402713,-9.436742 5.315026,-9.328254" />
      <path d="M 2.714805,-10.496226 Q 2.701205,-10.467544 2.700724,-10.432933" />
      <line x1="2.743589" y1="-10.558562" x2="2.714805" y2="-10.496226" />
      <path d="M 2.83345,-10.994763 C 2.818499,-10.817461 2.78567,-10.659453 2.743589,-10.558562" />
      <path d="M -4.818471,-10.788001 Q -4.845438,-10.871545 -4.859534,-10.994199" />
      <line x1="-4.794883" y1="-10.724077" x2="-4.818471" y2="-10.788001" />
      <path d="M -4.785542,-10.672209 Q -4.785807,-10.700046 -4.794883,-10.724077" />
      <path d="M -7.484633,-9.716606 C -7.562124,-9.828624 -7.643782,-10.024886 -7.70241,-10.243083 C -7.762138,-10.462943 -7.799991,-10.700727 -7.81597,-10.956434" />
      <line x1="-7.44258" y1="-9.660102" x2="-7.484633" y2="-9.716606" />
      <path d="M -7.411107,-9.567631 Q -7.412631,-9.621083 -7.44258,-9.660102" />
      <path d="M -9.736994,-8.089218 C -9.851842,-8.185368 -9.998973,-8.370995 -10.126665,-8.58297 C -10.255733,-8.795446 -10.367366,-9.033465 -10.461564,-9.297028" />
      <line x1="-9.679341" y1="-8.043985" x2="-9.736994" y2="-8.089218" />
      <path d="M -9.614253,-7.917213 C -9.613629,-7.967648 -9.642215,-8.0158 -9.679341,-8.043985" />
      <path d="M -11.42206,-6.01674 C -11.571661,-6.088705 -11.786561,-6.250695 -11.98532,-6.443252 C -12.187143,-6.638471 -12.37248,-6.856326 -12.555931,-7.120842" />
      <line x1="-11.352737" y1="-5.98586" x2="-11.42206" y2="-6.01674" />
      <path d="M -11.244838,-5.833427 C -11.242862,-5.898275 -11.294052,-5.962081 -11.352737,-5.98586" />
      <path d="M -12.424996,-3.640409 C -12.60339,-3.6793 -12.883746,-3.801109 -13.151298,-3.958006 C -13.423982,-4.117767 -13.681142,-4.302424 -13.965301,-4.551025" />
      <line x1="-12.348726" y1="-3.625987" x2="-12.424996" y2="-3.640409" />
      <path d="M -12.191741,-3.45828 Q -12.191587,-3.517424 -12.237409,-3.567504 Q -12.285982,-3.614949 -12.348726,-3.625987" />
      <path d="M -12.677453,-1.122167 C -12.86748,-1.12001 -13.187983,-1.178991 -13.503721,-1.276287 C -13.826221,-1.375614 -14.137682,-1.502494 -14.507001,-1.693963" />
      <line x1="-12.599435" y1="-1.125186" x2="-12.677453" y2="-1.122167" />
      <path d="M -12.320569,-0.327929 L -12.322211,-0.349895" />
      <path d="M -12.322211,-0.349895 Q -12.368217,-0.656198 -12.390827,-0.964427" />
      <path d="M -12.390827,-0.964427 C -12.393135,-1.004299 -12.415564,-1.050166 -12.456844,-1.081435 C -12.497496,-1.113305 -12.55302,-1.12751 -12.599435,-1.125186" />
      <path d="M -12.162227,1.366371 C -12.352507,1.412479 -12.697391,1.425841 -13.045915,1.398287 C -13.22146,1.384977 -13.402866,1.362096 -13.590134,1.329645 C -13.778786,1.296802 -13.97426,1.254408 -14.201035,1.195346" />
      <line x1="-12.087778" y1="1.346117" x2="-12.162227" y2="1.366371" />
      <path d="M -11.571279,2.098682 Q -11.571807,2.062851 -11.586302,2.033383" />
      <path d="M -11.586302,2.033383 Q -11.72307,1.747741 -11.83782,1.45504" />
      <path d="M -11.83782,1.45504 C -11.852068,1.41704 -11.887558,1.377719 -11.936857,1.356689 C -11.985731,1.334939 -12.043645,1.333557 -12.087778,1.346117" />
      <path d="M -12.953538,3.94297 L -13.008593,3.85694" />
      <path d="M -10.914431,3.655616 C -11.085462,3.743019 -11.417536,3.833081 -11.765034,3.88382 C -11.939881,3.90994 -12.123451,3.928015 -12.315746,3.938044 C -12.509591,3.947998 -12.713185,3.950155 -12.953538,3.94297" />
      <line x1="-10.848623" y1="3.619507" x2="-10.914431" y2="3.655616" />
      <path d="M -10.116061,4.276094 Q -10.118277,4.214254 -10.15707,4.171913" />
      <path d="M -10.15707,4.171913 Q -10.37528,3.926398 -10.574349,3.66917" />
      <path d="M -10.574349,3.66917 C -10.599566,3.635631 -10.6457,3.605538 -10.699658,3.59618 C -10.753423,3.586033 -10.80978,3.597568 -10.848623,3.619507" />
      <path d="M -10.902107,6.320272 L -11.087091,6.152617" />
      <path d="M -9.019098,5.589559 C -9.157955,5.711992 -9.451566,5.872782 -9.77193,5.999017 C -9.932945,6.063103 -10.104812,6.121357 -10.287532,6.173777 C -10.471771,6.226471 -10.667778,6.273799 -10.902107,6.320272" />
      <line x1="-8.966417" y1="5.540057" x2="-9.019098" y2="5.589559" />
      <path d="M -8.054085,6.055919 C -8.053153,6.00071 -8.088185,5.947625 -8.131915,5.919956" />
      <path d="M -8.131915,5.919956 Q -8.416696,5.731299 -8.686519,5.527076" />
      <path d="M -8.686519,5.527076 C -8.720987,5.500284 -8.774619,5.481468 -8.82956,5.48442 C -8.884551,5.486566 -8.935511,5.510233 -8.966417,5.540057" />
      <path d="M -8.203979,8.160681 Q -8.391665,8.063988 -8.57552,7.962003" />
      <path d="M -6.605393,7.036406 C -6.702614,7.185525 -6.937753,7.406086 -7.209149,7.599213 C -7.34536,7.696898 -7.493812,7.791361 -7.654504,7.882601 C -7.816582,7.974442 -7.991644,8.063716 -8.203979,8.160681" />
      <line x1="-6.569429" y1="6.976883" x2="-6.605393" y2="7.036406" />
      <path d="M -5.525871,7.316867 C -5.523182,7.247872 -5.58298,7.178976 -5.648848,7.158386" />
      <path d="M -5.648848,7.158386 Q -5.980793,7.039445 -6.302981,6.902143" />
      <path d="M -6.302981,6.902143 C -6.34435,6.883923 -6.401827,6.877667 -6.454006,6.892728 C -6.506476,6.907022 -6.548566,6.941207 -6.569429,6.976883" />
      <path d="M -5.509888,9.216038 C -5.595119,8.89706 -5.638557,8.643679 -5.658597,8.391295" />
      <path d="M -5.043029,9.338775 Q -5.277781,9.281114 -5.509888,9.216038" />
      <path d="M -3.837807,7.897556 C -3.886765,8.0632 -4.047408,8.328499 -4.251341,8.575358 C -4.353466,8.699985 -4.468385,8.824219 -4.596099,8.948061 C -4.72497,9.072791 -4.867157,9.197927 -5.043029,9.338775" />
      <line x1="-3.82101" y1="7.832069" x2="-3.837807" y2="7.897556" />
      <path d="M -2.703714,7.973005 Q -2.703276,7.91122 -2.754252,7.858897 Q -2.808807,7.80983 -2.877086,7.802807" />
      <path d="M -2.877086,7.802807 Q -3.233573,7.761686 -3.58617,7.700663" />
      <path d="M -3.58617,7.700663 C -3.631622,7.692258 -3.689026,7.698988 -3.734887,7.725131 C -3.781261,7.750599 -3.811612,7.792972 -3.82101,7.832069" />
      <path d="M -2.122617,9.759466 C -2.302561,9.467914 -2.421484,9.231153 -2.517234,8.989876 C -2.611171,8.752347 -2.676775,8.511992 -2.703714,8.309983" />
      <path d="M -1.634669,9.77427 Q -1.878803,9.770743 -2.122617,9.759466" />
      <path d="M -0.908663,8.19517 C -0.926171,8.385629 -1.007537,8.658595 -1.127376,8.923129 C -1.250144,9.193549 -1.400792,9.452394 -1.634669,9.77427" />
      <path d="M 0.215636,7.943685 C 0.205782,7.902355 0.178834,7.867445 0.13479,7.838956 C 0.092038,7.812848 0.038432,7.804002 -0.00552,7.809303" />
      <path d="M -0.00552,7.809303 Q -0.362255,7.848805 -0.721232,7.868218" />
      <path d="M -0.721232,7.868218 C -0.766192,7.87019 -0.81769,7.888157 -0.853976,7.921612 C -0.890932,7.957721 -0.909161,7.997052 -0.908663,8.039604" />
      <path d="M -0.908663,8.039604 L -0.90846,8.047335" />
      <line x1="0.229303" y1="8.020956" x2="0.221901" y2="7.97777" />
      <path d="M 1.313042,9.531624 C 1.082594,9.318911 0.912475,9.138297 0.760911,8.952665 C 0.611283,8.768999 0.483457,8.580925 0.386596,8.403178" />
      <path d="M 0.239028,8.060435 L 0.229303,8.020956" />
      <path d="M 1.788827,9.437488 Q 1.551948,9.488334 1.313042,9.531624" />
      <path d="M 2.034387,8.390731 C 2.020023,8.549236 1.993266,8.713234 1.954114,8.882725 C 1.914455,9.053486 1.862619,9.230144 1.788827,9.437488" />
      <path d="M 3.029797,7.268132 C 3.011919,7.23128 2.972744,7.19463 2.92158,7.177191 C 2.870769,7.159006 2.812922,7.161763 2.770158,7.177429" />
      <path d="M 2.770158,7.177429 Q 2.437486,7.294862 2.096592,7.39339" />
      <path d="M 2.096592,7.39339 C 2.024591,7.410549 1.95696,7.483833 1.960395,7.556143" />
      <line x1="3.060779" y1="7.329686" x2="3.029797" y2="7.268132" />
      <path d="M 4.562955,8.548041 L 4.516752,8.523038" />
      <path d="M 3.136777,7.444696 Q 3.08954,7.381638 3.060779,7.329686" />
      <path d="M 4.990823,8.352965 Q 4.778973,8.453874 4.562955,8.548041" />
      <path d="M 9.647389,4.628701 Q 9.474136,4.623357 9.322796,4.613032" />
      <path d="M 9.730784,4.517374 L 9.647389,4.628701" />
      <path d="M 8.66609,2.22584 Q 8.559169,2.435797 8.440543,2.641015" />
      <path d="M 8.440543,2.641015 Q 8.420537,2.674629 8.419691,2.717361" />
      <path d="M 11.135415,1.960042 C 10.901536,2.006206 10.701544,2.037265 10.509403,2.059109 C 10.318766,2.080629 10.134895,2.092865 9.957791,2.095816 C 9.606055,2.102821 9.260599,2.068936 9.072298,2.01131" />
      <path d="M 11.140154,1.947556 L 11.135415,1.960042" />
      <path d="M 9.710803,-0.448274 C 9.664695,-0.453406 9.608142,-0.442601 9.564971,-0.413275 C 9.521223,-0.384585 9.49508,-0.340191 9.4895,-0.300559" />
      <path d="M 9.4895,-0.300559 Q 9.441608,0.00553 9.370537,0.308281" />
      <path d="M 9.370537,0.308281 Q 9.366669,0.324484 9.366594,0.342214" />
      <line x1="9.788378" y1="-0.440535" x2="9.710803" y2="-0.448274" />
      <path d="M 11.681854,-0.909506 C 11.29094,-0.736643 10.967526,-0.627398 10.634214,-0.54634 C 10.308137,-0.467016 9.979563,-0.426733 9.788378,-0.440535" />
      <path d="M 9.666301,-2.958032 Q 9.598852,-2.95036 9.545221,-2.901527 Q 9.495032,-2.849537 9.495421,-2.788137" />
      <path d="M 9.497064,-2.253573 Q 9.54307,-1.947271 9.56568,-1.639042" />
      <path d="M 9.56568,-1.639042 C 9.567988,-1.59917 9.590417,-1.553303 9.631697,-1.522033 C 9.672349,-1.490164 9.727873,-1.475958 9.774288,-1.478283" />
      <line x1="9.774288" y1="-1.478283" x2="9.852306" y2="-1.481301" />
      <path d="M 9.852306,-1.481301 C 10.05132,-1.483568 10.391349,-1.419 10.721839,-1.313755 C 10.888471,-1.261312 11.057973,-1.198155 11.230345,-1.124286 C 11.404016,-1.049686 11.58159,-0.964148 11.785558,-0.854738" />
      <path d="M 11.785558,-0.854738 Q 11.781449,-0.645118 11.768316,-0.435772" />
      <line x1="11.768316" y1="-0.863969" x2="11.768316" y2="-0.435772" />
      <path d="M 11.768316,-0.435772 C 11.555862,-0.338997 11.3717,-0.264434 11.192329,-0.200546 C 11.014314,-0.137307 10.840043,-0.084581 10.669515,-0.042367 C 10.331199,0.042585 9.98671,0.086385 9.788378,0.072062" />
      <line x1="9.788378" y1="-0.440535" x2="9.788378" y2="0.072062" />
      <line x1="9.788378" y1="0.072062" x2="9.710803" y2="0.064323" />
      <path d="M 9.710803,0.064323 C 9.664695,0.059191 9.608142,0.069996 9.564971,0.099322 C 9.521223,0.128012 9.49508,0.172405 9.4895,0.212038" />
      <path d="M 9.4895,0.212038 Q 9.441608,0.518127 9.370537,0.820878" />
      <path d="M 9.370537,0.820878 Q 9.366669,0.837081 9.366594,0.854811" />
      <path d="M 9.366594,0.854811 Q 9.36644,0.913956 9.412262,0.964035 Q 9.460835,1.01148 9.523579,1.022518" />
      <line x1="9.523579" y1="1.022518" x2="9.599849" y2="1.03694" />
      <path d="M 9.599849,1.03694 C 9.792765,1.078978 10.101745,1.21691 10.389249,1.392013 C 10.534395,1.4797 10.679084,1.578373 10.823316,1.688032 C 10.968583,1.798685 11.114322,1.920771 11.27836,2.07178" />
      <path d="M 11.27836,2.07178 Q 11.211205,2.273344 11.135415,2.472639" />
      <line x1="11.135415" y1="1.960042" x2="11.135415" y2="2.472639" />
      <path d="M 11.135415,2.472639 C 10.90103,2.518903 10.700666,2.549999 10.50815,2.571848 C 10.317139,2.593372 10.132912,2.605573 9.95547,2.608452 C 9.603074,2.615326 9.257121,2.581077 9.069865,2.523168" />
      <line x1="9.069865" y1="2.012852" x2="9.069865" y2="2.523168" />
      <line x1="9.069865" y1="2.523168" x2="8.997265" y2="2.498452" />
      <path d="M 8.997265,2.498452 C 8.954275,2.483249 8.896392,2.481118 8.845852,2.499851 C 8.794947,2.517841 8.756313,2.554912 8.738977,2.591954" />
      <path d="M 8.738977,2.591954 Q 8.600452,2.876971 8.440543,3.153612" />
      <path d="M 8.440543,3.153612 Q 8.420537,3.187226 8.419691,3.229958" />
      <path d="M 8.419691,3.229958 C 8.417715,3.294806 8.468905,3.358612 8.52759,3.382392" />
      <line x1="8.52759" y1="3.382392" x2="8.596913" y2="3.413272" />
      <path d="M 8.596913,3.413272 C 8.770584,3.496748 9.027459,3.698646 9.252384,3.931674 C 9.482994,4.170748 9.682992,4.42593 9.906296,4.785865" />
      <path d="M 9.906296,4.785865 Q 9.780671,4.965637 9.647389,5.141298" />
      <line x1="9.647389" y1="4.628701" x2="9.647389" y2="5.141298" />
      <path d="M 9.647389,5.141298 C 9.407045,5.133898 9.204136,5.119408 9.011593,5.09773 C 8.820602,5.076072 8.638975,5.046917 8.466712,5.010265 C 8.124251,4.938592 7.80041,4.828629 7.63699,4.731079" />
      <line x1="7.63699" y1="4.717835" x2="7.63699" y2="4.731079" />
      <line x1="7.63699" y1="4.731079" x2="7.574315" y2="4.691072" />
      <path d="M 7.574315,4.691072 C 7.537372,4.666833 7.482104,4.651911 7.427639,4.658775 C 7.373046,4.664839 7.324554,4.692061 7.296643,4.723988" />
      <path d="M 7.296643,4.723988 Q 7.076924,4.968509 6.839076,5.200187" />
      <path d="M 6.839076,5.200187 Q 6.792032,5.244723 6.789106,5.313744" />
      <path d="M 6.789106,5.313744 C 6.788482,5.364179 6.817068,5.412331 6.854194,5.440516" />
      <line x1="6.854194" y1="5.440516" x2="6.911847" y2="5.485749" />
      <path d="M 6.911847,5.485749 C 7.054438,5.604976 7.241702,5.857079 7.388721,6.132153 C 7.539407,6.414329 7.655671,6.705261 7.76287,7.102556" />
      <path d="M 7.76287,7.102556 Q 7.587336,7.248286 7.405646,7.388342" />
      <line x1="7.405646" y1="7.155979" x2="7.405646" y2="7.388342" />
      <path d="M 7.405646,7.388342 C 7.175722,7.327782 6.984094,7.268693 6.804646,7.204966 C 6.626692,7.141602 6.460042,7.073077 6.304697,6.999392 C 5.99551,6.854056 5.715849,6.675873 5.587403,6.54533" />
      <line x1="5.587403" y1="6.338836" x2="5.587403" y2="6.54533" />
      <line x1="5.587403" y1="6.54533" x2="5.538922" y2="6.492758" />
      <path d="M 5.538922,6.492758 C 5.510545,6.461136 5.461658,6.43444 5.40698,6.428966 C 5.352419,6.422691 5.297374,6.43821 5.26079,6.462846" />
      <path d="M 5.26079,6.462846 Q 4.974851,6.650207 4.675272,6.821134" />
      <path d="M 4.675272,6.821134 C 4.62573,6.847731 4.584684,6.905031 4.58596,6.964162" />
      <path d="M 4.58596,6.964162 Q 4.587484,7.017615 4.617432,7.056633" />
      <line x1="4.617432" y1="7.056633" x2="4.659486" y2="7.113138" />
      <path d="M 4.659486,7.113138 C 4.750772,7.244892 4.84604,7.490765 4.906111,7.754858 C 4.967383,8.02337 4.998914,8.302136 4.999079,8.63184" />
      <path d="M 4.999079,8.63184 Q 4.999127,8.74137 4.994152,8.863975" />
      <line x1="4.994152" y1="8.414677" x2="4.994152" y2="8.863975" />
      <path d="M 4.994152,8.863975 Q 4.780672,8.96573 4.562955,9.060637" />
      <line x1="4.562955" y1="8.548041" x2="4.562955" y2="9.060637" />
      <path d="M 4.562955,9.060637 C 4.35912,8.951046 4.191834,8.851385 4.03771,8.74995 C 3.884919,8.649198 3.744603,8.545974 3.616762,8.440277 C 3.361919,8.231183 3.145498,7.996922 3.060779,7.842283" />
      <line x1="3.060779" y1="7.329686" x2="3.060779" y2="7.842283" />
      <line x1="3.060779" y1="7.842283" x2="3.029797" y2="7.780729" />
      <path d="M 3.029797,7.780729 C 3.011919,7.743877 2.972744,7.707227 2.92158,7.689788 C 2.870769,7.671603 2.812922,7.67436 2.770158,7.690026" />
      <path d="M 2.770158,7.690026 Q 2.437486,7.807459 2.096592,7.905987" />
      <path d="M 2.096592,7.905987 C 2.024591,7.923146 1.95696,7.99643 1.960395,8.06874" />
      <path d="M 1.960395,8.06874 Q 1.96066,8.096578 1.969736,8.120608" />
      <line x1="1.969736" y1="8.120608" x2="1.993324" y2="8.184533" />
      <path d="M 1.993324,8.184533 C 2.027545,8.289345 2.047359,8.452329 2.047116,8.633469" />
      <path d="M 2.047116,8.633469 C 2.046992,8.827647 2.026384,9.032531 1.98529,9.248123 C 1.9436,9.463912 1.883837,9.68291 1.788827,9.950085" />
      <line x1="1.788827" y1="9.437488" x2="1.788827" y2="9.950085" />
      <path d="M 1.788827,9.950085 Q 1.551948,10.000931 1.313042,10.044221" />
      <line x1="1.313042" y1="9.531624" x2="1.313042" y2="10.044221" />
      <path d="M 1.313042,10.044221 C 1.149187,9.893065 1.017642,9.759624 0.899346,9.627395 C 0.782131,9.496121 0.677711,9.365232 0.586087,9.234727 C 0.402955,8.976124 0.264522,8.70175 0.229303,8.533553" />
      <line x1="0.229303" y1="8.020956" x2="0.229303" y2="8.533553" />
      <line x1="0.229303" y1="8.533553" x2="0.217932" y2="8.467211" />
      <path d="M 0.217932,8.467211 C 0.211771,8.427642 0.184979,8.383535 0.140814,8.35532 C 0.097216,8.326463 0.040509,8.31627 -0.00552,8.3219" />
      <path d="M -0.00552,8.3219 Q -0.362255,8.361401 -0.721232,8.380815" />
      <path d="M -0.721232,8.380815 C -0.766192,8.382787 -0.81769,8.400754 -0.853976,8.434209 C -0.890932,8.470318 -0.909161,8.509649 -0.908663,8.552201" />
      <path d="M -0.908663,8.552201 L -0.90846,8.559932" />
      <line x1="-0.90846" y1="8.559932" x2="-0.904944" y2="8.626921" />
      <path d="M -0.904944,8.626921 L -0.904909,8.633455" />
      <path d="M -0.904909,8.633455 C -0.904176,8.806518 -0.980062,9.096936 -1.102426,9.379008 C -1.228025,9.668215 -1.384825,9.942974 -1.634669,10.286867" />
      <line x1="-1.634669" y1="9.77427" x2="-1.634669" y2="10.286867" />
      <path d="M -1.634669,10.286867 Q -1.878803,10.28334 -2.122617,10.272063" />
      <line x1="-2.122617" y1="9.759466" x2="-2.122617" y2="10.272063" />
      <path d="M -2.122617,10.272063 C -2.331389,9.933665 -2.461063,9.664117 -2.561516,9.384333 C -2.659497,9.110773 -2.717426,8.831071 -2.717062,8.641999" />
      <path d="M -2.717062,8.641999 Q -2.717056,8.604076 -2.714064,8.57203" />
      <line x1="-2.714064" y1="8.57203" x2="-2.70505" y2="8.505422" />
      <path d="M -2.70505,8.505422 L -2.703714,8.485602" />
      <path d="M -2.703714,8.485602 Q -2.703276,8.423817 -2.754252,8.371494 Q -2.808807,8.322427 -2.877086,8.315404" />
      <path d="M -2.877086,8.315404 Q -3.233573,8.274283 -3.58617,8.21326" />
      <path d="M -3.58617,8.21326 C -3.631622,8.204855 -3.689026,8.211585 -3.734887,8.237728 C -3.781261,8.263196 -3.811612,8.305569 -3.82101,8.344666" />
      <line x1="-3.82101" y1="8.344666" x2="-3.837807" y2="8.410153" />
      <line x1="-3.837807" y1="7.897556" x2="-3.837807" y2="8.410153" />
      <path d="M -3.837807,8.410153 C -3.886765,8.575797 -4.047408,8.841096 -4.251341,9.087955 C -4.353466,9.212582 -4.468385,9.336816 -4.596099,9.460658 C -4.72497,9.585388 -4.867157,9.710524 -5.043029,9.851372" />
      <line x1="-5.043029" y1="9.338775" x2="-5.043029" y2="9.851372" />
      <path d="M -5.043029,9.851372 Q -5.277781,9.793711 -5.509888,9.728635" />
      <line x1="-5.509888" y1="9.216038" x2="-5.509888" y2="9.728635" />
      <path d="M -5.509888,9.728635 C -5.568121,9.51108 -5.605872,9.327209 -5.631392,9.149845 C -5.656496,8.973764 -5.669002,8.804214 -5.668911,8.641193" />
      <path d="M -5.668911,8.641193 C -5.669759,8.36616 -5.630433,8.102239 -5.568737,7.955093" />
      <line x1="-5.568737" y1="7.955093" x2="-5.539952" y2="7.892758" />
      <path d="M -5.539952,7.892758 Q -5.526352,7.864075 -5.525871,7.829464" />
      <path d="M -5.525871,7.829464 C -5.523182,7.760469 -5.58298,7.691573 -5.648848,7.670983" />
      <path d="M -5.648848,7.670983 Q -5.980793,7.552042 -6.302981,7.41474" />
      <path d="M -6.302981,7.41474 C -6.34435,7.39652 -6.401827,7.390264 -6.454006,7.405325 C -6.506476,7.419619 -6.548566,7.453804 -6.569429,7.48948" />
      <line x1="-6.569429" y1="7.48948" x2="-6.605393" y2="7.549003" />
      <line x1="-6.605393" y1="7.036406" x2="-6.605393" y2="7.549003" />
      <path d="M -6.605393,7.549003 C -6.702614,7.698122 -6.937753,7.918682 -7.209149,8.11181 C -7.34536,8.209495 -7.493812,8.303958 -7.654504,8.395198 C -7.816582,8.487039 -7.991644,8.576313 -8.203979,8.673278" />
      <line x1="-8.203979" y1="8.160681" x2="-8.203979" y2="8.673278" />
      <path d="M -8.203979,8.673278 Q -8.413351,8.565412 -8.617934,8.450973" />
      <path d="M -8.617934,8.450973 C -8.6006,8.043427 -8.55083,7.738827 -8.465327,7.437209 C -8.381853,7.143162 -8.253785,6.865102 -8.140173,6.724785" />
      <line x1="-8.140173" y1="6.724785" x2="-8.093579" y2="6.67097" />
      <path d="M -8.093579,6.67097 Q -8.056187,6.629081 -8.054085,6.568516" />
      <path d="M -8.054085,6.568516 C -8.053153,6.513307 -8.088185,6.460222 -8.131915,6.432553" />
      <path d="M -8.131915,6.432553 Q -8.416696,6.243896 -8.686519,6.039673" />
      <path d="M -8.686519,6.039673 C -8.720987,6.012881 -8.774619,5.994065 -8.82956,5.997017 C -8.884551,5.999163 -8.935511,6.02283 -8.966417,6.052654" />
      <line x1="-8.966417" y1="6.052654" x2="-9.019098" y2="6.102156" />
      <line x1="-9.019098" y1="5.589559" x2="-9.019098" y2="6.102156" />
      <path d="M -9.019098,6.102156 C -9.157955,6.224589 -9.451566,6.385379 -9.77193,6.511614 C -9.932945,6.5757 -10.104812,6.633954 -10.287532,6.686374 C -10.471771,6.739068 -10.667778,6.786395 -10.902107,6.832869" />
      <line x1="-10.902107" y1="6.320272" x2="-10.902107" y2="6.832869" />
      <path d="M -10.902107,6.832869 Q -11.07183,6.682151 -11.234946,6.526146" />
      <path d="M -11.234946,6.526146 C -11.095355,6.136339 -10.955465,5.853179 -10.781957,5.580839 C -10.612692,5.315362 -10.405172,5.075237 -10.253135,4.964949" />
      <line x1="-10.253135" y1="4.964949" x2="-10.191908" y2="4.923323" />
      <path d="M -10.191908,4.923323 C -10.149194,4.895525 -10.115182,4.843188 -10.116061,4.788691" />
      <path d="M -10.116061,4.788691 Q -10.118277,4.726851 -10.15707,4.68451" />
      <path d="M -10.15707,4.68451 Q -10.37528,4.438994 -10.574349,4.181767" />
      <path d="M -10.574349,4.181767 C -10.599566,4.148228 -10.6457,4.118135 -10.699658,4.108777 C -10.753423,4.09863 -10.80978,4.110165 -10.848623,4.132104" />
      <line x1="-10.848623" y1="4.132104" x2="-10.914431" y2="4.168213" />
      <line x1="-10.914431" y1="3.655616" x2="-10.914431" y2="4.168213" />
      <path d="M -10.914431,4.168213 C -11.085462,4.255616 -11.417536,4.345678 -11.765034,4.396417 C -11.939881,4.422537 -12.123451,4.440612 -12.315746,4.450641 C -12.509591,4.460595 -12.713185,4.462752 -12.953538,4.455567" />
      <line x1="-12.953538" y1="3.94297" x2="-12.953538" y2="4.455567" />
      <path d="M -12.953538,4.455567 Q -13.072047,4.272266 -13.18258,4.085328" />
      <path d="M -13.18258,4.085328 C -13.054944,3.91031 -12.938875,3.766673 -12.820739,3.634338 C -12.703399,3.503147 -12.583179,3.382668 -12.46008,3.272899 C -12.216559,3.054084 -11.943728,2.868258 -11.763628,2.795516" />
      <line x1="-11.763628" y1="2.795516" x2="-11.691938" y2="2.768914" />
      <path d="M -11.691938,2.768914 C -11.627161,2.747784 -11.568708,2.679662 -11.571279,2.611279" />
      <path d="M -11.571279,2.611279 Q -11.571807,2.575448 -11.586302,2.54598" />
      <path d="M -11.586302,2.54598 Q -11.72307,2.260338 -11.83782,1.967636" />
      <path d="M -11.83782,1.967636 C -11.852068,1.929636 -11.887558,1.890316 -11.936857,1.869286 C -11.985731,1.847536 -12.043645,1.846154 -12.087778,1.858714" />
      <line x1="-12.087778" y1="1.858714" x2="-12.162227" y2="1.878968" />
      <line x1="-12.162227" y1="1.366371" x2="-12.162227" y2="1.878968" />
      <path d="M -12.162227,1.878968 C -12.353777,1.925384 -12.701683,1.938581 -13.052635,1.910367 C -13.229398,1.896741 -13.412162,1.873405 -13.600927,1.840358 C -13.791167,1.806895 -13.988475,1.763734 -14.218472,1.70338" />
      <line x1="-14.218472" y1="1.208746" x2="-14.218472" y2="1.70338" />
      <path d="M -14.218472,1.70338 Q -14.27769,1.49999 -14.328108,1.294858" />
      <path d="M -14.328108,1.294858 C -14.152065,1.154167 -13.996653,1.041218 -13.842652,0.939646 C -13.689765,0.839002 -13.537325,0.749344 -13.385333,0.670672 C -13.084152,0.51343 -12.764603,0.394568 -12.568713,0.364327" />
      <line x1="-12.568713" y1="0.364327" x2="-12.491448" y2="0.354564" />
      <path d="M -12.491448,0.354564 Q -12.423999,0.346891 -12.370368,0.298058 Q -12.320179,0.246068 -12.320569,0.184668" />
      <path d="M -12.320569,0.184668 L -12.322211,0.162702" />
      <path d="M -12.322211,0.162702 Q -12.368217,-0.143601 -12.390827,-0.45183" />
      <path d="M -12.390827,-0.45183 C -12.393135,-0.491702 -12.415564,-0.537569 -12.456844,-0.568838 C -12.497496,-0.600708 -12.55302,-0.614913 -12.599435,-0.612589" />
      <line x1="-12.599435" y1="-0.612589" x2="-12.677453" y2="-0.60957" />
      <line x1="-12.677453" y1="-1.122167" x2="-12.677453" y2="-0.60957" />
      <path d="M -12.677453,-0.60957 C -12.876467,-0.607304 -13.216497,-0.671872 -13.546986,-0.777117 C -13.713618,-0.82956 -13.88312,-0.892717 -14.055492,-0.966586 C -14.229163,-1.041186 -14.406737,-1.126724 -14.610705,-1.236133" />
      <path d="M -14.610705,-1.236133 Q -14.606596,-1.445754 -14.593463,-1.6551" />
      <path d="M -14.593463,-1.6551 C -14.381009,-1.751875 -14.196847,-1.826438 -14.017476,-1.890326 C -13.839461,-1.953565 -13.66519,-2.006291 -13.494663,-2.048505 C -13.156346,-2.133457 -12.811857,-2.177256 -12.613525,-2.162934" />
      <line x1="-12.613525" y1="-2.162934" x2="-12.53595" y2="-2.155194" />
      <path d="M -12.53595,-2.155194 C -12.489842,-2.150063 -12.433289,-2.160867 -12.390118,-2.190194 C -12.34637,-2.218884 -12.320227,-2.263277 -12.314647,-2.302909" />
      <path d="M -12.314647,-2.302909 Q -12.266755,-2.608999 -12.195684,-2.91175" />
      <path d="M -12.195684,-2.91175 Q -12.191816,-2.927953 -12.191741,-2.945683" />
      <path d="M -12.191741,-2.945683 Q -12.191587,-3.004827 -12.237409,-3.054907 Q -12.285982,-3.102352 -12.348726,-3.11339" />
      <line x1="-12.348726" y1="-3.11339" x2="-12.424996" y2="-3.127812" />
      <line x1="-12.424996" y1="-3.640409" x2="-12.424996" y2="-3.127812" />
      <path d="M -12.424996,-3.127812 C -12.617912,-3.16985 -12.926892,-3.307782 -13.214396,-3.482885 C -13.359542,-3.570572 -13.504231,-3.669245 -13.648463,-3.778904 C -13.79373,-3.889557 -13.939469,-4.011643 -14.103507,-4.162652" />
      <path d="M -14.103507,-4.162652 Q -14.036352,-4.364216 -13.960562,-4.563511" />
      <path d="M -13.960562,-4.563511 C -13.726177,-4.609774 -13.525814,-4.64087 -13.333297,-4.66272 C -13.142286,-4.684244 -12.958059,-4.696445 -12.780618,-4.699324 C -12.428221,-4.706198 -12.082268,-4.671949 -11.895012,-4.61404" />
      <line x1="-11.895012" y1="-4.61404" x2="-11.822413" y2="-4.589324" />
      <path d="M -11.822413,-4.589324 C -11.779423,-4.574121 -11.721539,-4.57199 -11.670999,-4.590723 C -11.620094,-4.608713 -11.581461,-4.645784 -11.564124,-4.682826" />
      <path d="M -11.564124,-4.682826 Q -11.425599,-4.967843 -11.26569,-5.244484" />
      <path d="M -11.26569,-5.244484 Q -11.245684,-5.278098 -11.244838,-5.32083" />
      <path d="M -11.244838,-5.32083 C -11.242862,-5.385678 -11.294052,-5.449484 -11.352737,-5.473263" />
      <line x1="-11.352737" y1="-5.473263" x2="-11.42206" y2="-5.504144" />
      <line x1="-11.42206" y1="-6.01674" x2="-11.42206" y2="-5.504144" />
      <path d="M -11.42206,-5.504144 C -11.595731,-5.58762 -11.852606,-5.789517 -12.077531,-6.022546 C -12.308141,-6.26162 -12.508139,-6.516801 -12.731443,-6.876736" />
      <path d="M -12.731443,-6.876736 Q -12.605818,-7.056509 -12.472536,-7.23217" />
      <path d="M -12.472536,-7.23217 C -12.232192,-7.22477 -12.029283,-7.21028 -11.83674,-7.188602 C -11.645749,-7.166944 -11.464122,-7.137789 -11.291859,-7.101137 C -10.949398,-7.029464 -10.625557,-6.919501 -10.462137,-6.821951" />
      <line x1="-10.462137" y1="-6.821951" x2="-10.399462" y2="-6.781944" />
      <path d="M -10.399462,-6.781944 C -10.362519,-6.757705 -10.307251,-6.742783 -10.252786,-6.749646 C -10.198193,-6.755711 -10.149701,-6.782933 -10.12179,-6.81486" />
      <path d="M -10.12179,-6.81486 Q -9.902071,-7.059381 -9.664223,-7.291059" />
      <path d="M -9.664223,-7.291059 Q -9.617179,-7.335594 -9.614253,-7.404616" />
      <path d="M -9.614253,-7.404616 C -9.613629,-7.455051 -9.642215,-7.503203 -9.679341,-7.531388" />
      <line x1="-9.679341" y1="-7.531388" x2="-9.736994" y2="-7.576621" />
      <line x1="-9.736994" y1="-8.089218" x2="-9.736994" y2="-7.576621" />
      <path d="M -9.736994,-7.576621 C -9.879585,-7.695848 -10.066849,-7.947951 -10.213868,-8.223025 C -10.364554,-8.505201 -10.480818,-8.796133 -10.588017,-9.193428" />
      <path d="M -10.588017,-9.193428 Q -10.412483,-9.339157 -10.230793,-9.479214" />
      <path d="M -10.230793,-9.479214 C -10.000869,-9.418654 -9.809241,-9.359565 -9.629794,-9.295837 C -9.451839,-9.232473 -9.285189,-9.163949 -9.129844,-9.090264 C -8.820657,-8.944928 -8.540996,-8.766745 -8.41255,-8.636202" />
      <line x1="-8.41255" y1="-8.636202" x2="-8.364069" y2="-8.58363" />
      <path d="M -8.364069,-8.58363 C -8.335692,-8.552007 -8.286805,-8.525311 -8.232127,-8.519837 C -8.177566,-8.513563 -8.122521,-8.529081 -8.085937,-8.553718" />
      <path d="M -8.085937,-8.553718 Q -7.799998,-8.741079 -7.500419,-8.912006" />
      <path d="M -7.500419,-8.912006 C -7.450877,-8.938603 -7.409831,-8.995903 -7.411107,-9.055034" />
      <path d="M -7.411107,-9.055034 Q -7.412631,-9.108486 -7.44258,-9.147505" />
      <line x1="-7.44258" y1="-9.147505" x2="-7.484633" y2="-9.20401" />
      <line x1="-7.484633" y1="-9.716606" x2="-7.484633" y2="-9.20401" />
      <path d="M -7.484633,-9.20401 C -7.57592,-9.335764 -7.671187,-9.581637 -7.731258,-9.84573 C -7.792531,-10.114241 -7.824061,-10.393008 -7.824227,-10.722712" />
      <path d="M -7.824227,-10.722712 Q -7.824274,-10.832242 -7.819299,-10.954847" />
      <path d="M -7.819299,-10.954847 Q -7.605819,-11.056602 -7.388102,-11.151509" />
      <path d="M -7.388102,-11.151509 C -7.184267,-11.041918 -7.016981,-10.942257 -6.862857,-10.840822 C -6.710066,-10.74007 -6.56975,-10.636846 -6.441909,-10.531149 C -6.187066,-10.322055 -5.970645,-10.087794 -5.885926,-9.933155" />
      <line x1="-5.885926" y1="-9.933155" x2="-5.854944" y2="-9.871601" />
      <path d="M -5.854944,-9.871601 C -5.837066,-9.834749 -5.797891,-9.798099 -5.746727,-9.78066 C -5.695916,-9.762475 -5.638069,-9.765232 -5.595305,-9.780898" />
      <path d="M -5.595305,-9.780898 Q -5.262633,-9.898331 -4.921739,-9.996858" />
      <path d="M -4.921739,-9.996858 C -4.849738,-10.014018 -4.782107,-10.087302 -4.785542,-10.159612" />
      <path d="M -4.785542,-10.159612 Q -4.785807,-10.18745 -4.794883,-10.21148" />
      <line x1="-4.794883" y1="-10.21148" x2="-4.818471" y2="-10.275405" />
      <line x1="-4.818471" y1="-10.788001" x2="-4.818471" y2="-10.275405" />
      <path d="M -4.818471,-10.275405 C -4.852692,-10.380217 -4.872506,-10.543201 -4.872263,-10.724341" />
      <path d="M -4.872263,-10.724341 C -4.872139,-10.918518 -4.851531,-11.123403 -4.810437,-11.338994 C -4.768747,-11.554784 -4.708984,-11.773782 -4.613974,-12.040956" />
      <path d="M -4.613974,-12.040956 Q -4.377095,-12.091803 -4.138189,-12.135093" />
      <path d="M -4.138189,-12.135093 C -3.974334,-11.983937 -3.842789,-11.850496 -3.724493,-11.718266 C -3.607278,-11.586993 -3.502858,-11.456104 -3.411234,-11.325599 C -3.228102,-11.066996 -3.089669,-10.792622 -3.05445,-10.624425" />
      <line x1="-3.05445" y1="-10.624425" x2="-3.043079" y2="-10.558083" />
      <path d="M -3.043079,-10.558083 C -3.036918,-10.518514 -3.010126,-10.474407 -2.965961,-10.446192 C -2.922364,-10.417334 -2.865656,-10.407142 -2.819627,-10.412771" />
      <path d="M -2.819627,-10.412771 Q -2.462892,-10.452273 -2.103915,-10.471687" />
      <path d="M -2.103915,-10.471687 C -2.058955,-10.473659 -2.007458,-10.491626 -1.971171,-10.525081 C -1.934215,-10.56119 -1.915986,-10.600521 -1.916484,-10.643073" />
      <path d="M -1.916484,-10.643073 L -1.916687,-10.650804" />
      <line x1="-1.916687" y1="-10.650804" x2="-1.920203" y2="-10.717792" />
      <line x1="-1.920203" y1="-10.730979" x2="-1.920203" y2="-10.717792" />
      <path d="M -1.920203,-10.717792 L -1.920238,-10.724327" />
      <path d="M -1.920238,-10.724327 C -1.920971,-10.897389 -1.845085,-11.187808 -1.722721,-11.46988 C -1.597122,-11.759087 -1.440322,-12.033846 -1.190478,-12.377739" />
      <path d="M -1.190478,-12.377739 Q -0.946345,-12.374211 -0.70253,-12.362934" />
      <path d="M -0.70253,-12.362934 C -0.493758,-12.024537 -0.364084,-11.754989 -0.263631,-11.475205 C -0.16565,-11.201645 -0.107721,-10.921943 -0.108085,-10.732871" />
      <path d="M -0.108085,-10.732871 Q -0.108091,-10.694948 -0.111083,-10.662902" />
      <line x1="-0.111083" y1="-10.81335" x2="-0.111083" y2="-10.662902" />
      <line x1="-0.111083" y1="-10.662902" x2="-0.120097" y2="-10.596294" />
      <path d="M -0.120097,-10.596294 L -0.121433,-10.576473" />
      <path d="M -0.121433,-10.576473 Q -0.121871,-10.514689 -0.070895,-10.462365 Q -0.01634,-10.413298 0.051939,-10.406276" />
      <path d="M 0.051939,-10.406276 Q 0.408426,-10.365155 0.761023,-10.304131" />
      <path d="M 0.761023,-10.304131 C 0.806475,-10.295726 0.863879,-10.302457 0.90974,-10.3286 C 0.956114,-10.354067 0.986465,-10.396441 0.995863,-10.435538" />
      <line x1="0.995863" y1="-10.435538" x2="1.012659" y2="-10.501025" />
      <path d="M 1.012659,-10.501025 C 1.061618,-10.666668 1.222261,-10.931968 1.426194,-11.178827 C 1.528319,-11.303454 1.643238,-11.427688 1.770952,-11.55153 C 1.899823,-11.67626 2.04201,-11.801396 2.217882,-11.942244" />
      <path d="M 2.217882,-11.942244 Q 2.452633,-11.884583 2.684741,-11.819507" />
      <path d="M 2.684741,-11.819507 C 2.742974,-11.601952 2.780725,-11.418081 2.806245,-11.240716 C 2.831349,-11.064636 2.843855,-10.895086 2.843764,-10.732065" />
      <path d="M 2.843764,-10.732065 C 2.844612,-10.457032 2.805286,-10.193111 2.743589,-10.045965" />
      <line x1="2.743589" y1="-10.558562" x2="2.743589" y2="-10.045965" />
      <line x1="2.743589" y1="-10.045965" x2="2.714805" y2="-9.983629" />
      <path d="M 2.714805,-9.983629 Q 2.701205,-9.954947 2.700724,-9.920336" />
      <path d="M 2.700724,-9.920336 C 2.698035,-9.851341 2.757833,-9.782445 2.823701,-9.761855" />
      <path d="M 2.823701,-9.761855 Q 3.155645,-9.642913 3.477834,-9.505611" />
      <path d="M 3.477834,-9.505611 C 3.519203,-9.487392 3.57668,-9.481136 3.628859,-9.496197 C 3.681329,-9.510491 3.723419,-9.544676 3.744282,-9.580352" />
      <line x1="3.744282" y1="-9.580352" x2="3.780246" y2="-9.639875" />
      <path d="M 3.780246,-9.639875 C 3.877467,-9.788994 4.112606,-10.009554 4.384002,-10.202682 C 4.520213,-10.300367 4.668665,-10.39483 4.829357,-10.48607 C 4.991435,-10.577911 5.166497,-10.667185 5.378832,-10.76415" />
      <path d="M 5.378832,-10.76415 Q 5.588204,-10.656284 5.792787,-10.541845" />
      <path d="M 5.792787,-10.541845 C 5.775453,-10.134298 5.725683,-9.829699 5.64018,-9.528081 C 5.556706,-9.234034 5.428638,-8.955974 5.315026,-8.815657" />
      <line x1="5.315026" y1="-9.328254" x2="5.315026" y2="-8.815657" />
      <line x1="5.315026" y1="-8.815657" x2="5.268432" y2="-8.761842" />
      <path d="M 5.268432,-8.761842 Q 5.23104,-8.719953 5.228938,-8.659388" />
      <path d="M 5.228938,-8.659388 C 5.228006,-8.604179 5.263038,-8.551093 5.306768,-8.523425" />
      <path d="M 5.306768,-8.523425 Q 5.591549,-8.334768 5.861372,-8.130544" />
      <path d="M 5.861372,-8.130544 C 5.89584,-8.103752 5.949472,-8.084937 6.004413,-8.087889 C 6.059404,-8.090035 6.110364,-8.113702 6.14127,-8.143526" />
      <line x1="6.14127" y1="-8.143526" x2="6.193951" y2="-8.193028" />
      <path d="M 6.193951,-8.193028 C 6.332808,-8.315461 6.626419,-8.476251 6.946783,-8.602486 C 7.107798,-8.666572 7.279665,-8.724825 7.462385,-8.777246 C 7.646624,-8.829939 7.842631,-8.877267 8.07696,-8.923741" />
      <path d="M 8.07696,-8.923741 Q 8.246683,-8.773022 8.409799,-8.617018" />
      <path d="M 8.409799,-8.617018 C 8.270208,-8.227211 8.130318,-7.944051 7.95681,-7.671711 C 7.787545,-7.406234 7.580025,-7.166109 7.427988,-7.055821" />
      <line x1="7.427988" y1="-7.568418" x2="7.427988" y2="-7.055821" />
      <line x1="7.427988" y1="-7.055821" x2="7.36676" y2="-7.014194" />
      <path d="M 7.36676,-7.014194 C 7.324047,-6.986397 7.290035,-6.93406 7.290914,-6.879562" />
      <path d="M 7.290914,-6.879562 Q 7.29313,-6.817723 7.331923,-6.775382" />
      <path d="M 7.331923,-6.775382 Q 7.550133,-6.529866 7.749202,-6.272639" />
      <path d="M 7.749202,-6.272639 C 7.774419,-6.2391 7.820553,-6.209007 7.874511,-6.199649 C 7.928276,-6.189501 7.984633,-6.201037 8.023476,-6.222976" />
      <line x1="8.023476" y1="-6.222976" x2="8.089284" y2="-6.259085" />
      <path d="M 8.089284,-6.259085 C 8.260315,-6.346487 8.592388,-6.436549 8.939887,-6.487289 C 9.114734,-6.513409 9.298304,-6.531483 9.490599,-6.541512 C 9.684444,-6.551467 9.888038,-6.553623 10.128391,-6.546439" />
      <path d="M 10.128391,-6.546439 Q 10.2469,-6.363138 10.357433,-6.1762" />
      <path d="M 10.357433,-6.1762 C 10.229797,-6.001182 10.113728,-5.857544 9.995592,-5.725209 C 9.878252,-5.594019 9.758032,-5.473539 9.634933,-5.363771 C 9.391412,-5.144956 9.118581,-4.95913 8.938481,-4.886387" />
      <line x1="8.938481" y1="-5.398984" x2="8.938481" y2="-4.886387" />
      <line x1="8.938481" y1="-4.886387" x2="8.866791" y2="-4.859786" />
      <path d="M 8.866791,-4.859786 C 8.802014,-4.838655 8.743561,-4.770534 8.746132,-4.702151" />
      <path d="M 8.746132,-4.702151 Q 8.74666,-4.66632 8.761155,-4.636852" />
      <path d="M 8.761155,-4.636852 Q 8.897923,-4.35121 9.012673,-4.058508" />
      <path d="M 9.012673,-4.058508 C 9.026921,-4.020508 9.062411,-3.981188 9.11171,-3.960158 C 9.160584,-3.938408 9.218498,-3.937026 9.262631,-3.949586" />
      <line x1="9.262631" y1="-3.949586" x2="9.33708" y2="-3.96984" />
      <path d="M 9.33708,-3.96984 C 9.52863,-4.016256 9.876536,-4.029453 10.227488,-4.001238 C 10.404251,-3.987613 10.587015,-3.964276 10.77578,-3.93123 C 10.96602,-3.897767 11.163328,-3.854606 11.393325,-3.794252" />
      <path d="M 11.393325,-3.794252 Q 11.452543,-3.590861 11.502961,-3.385729" />
      <path d="M 11.502961,-3.385729 C 11.326918,-3.245039 11.171506,-3.13209 11.017505,-3.030518 C 10.864618,-2.929874 10.712178,-2.840216 10.560186,-2.761544 C 10.259005,-2.604302 9.939456,-2.48544 9.743566,-2.455199" />
      <line x1="9.743566" y1="-2.967796" x2="9.743566" y2="-2.455199" />
      <line x1="9.743566" y1="-2.455199" x2="9.666301" y2="-2.445435" />
      <path d="M 9.666301,-2.445435 Q 9.598852,-2.437763 9.545221,-2.38893 Q 9.495032,-2.33694 9.495421,-2.27554" />
      <path d="M 9.495421,-2.27554 L 9.497064,-2.253573" />
      <line x1="9.710803" y1="-0.448274" x2="9.710803" y2="0.064323" />
      <line x1="9.4895" y1="-0.300559" x2="9.4895" y2="0.212038" />
      <line x1="9.370537" y1="0.308281" x2="9.370537" y2="0.820878" />
      <line x1="8.997265" y1="2.057452" x2="8.997265" y2="2.498452" />
      <line x1="8.738977" y1="2.193906" x2="8.738977" y2="2.591954" />
      <line x1="8.440543" y1="2.641015" x2="8.440543" y2="3.153612" />
      <line x1="7.574315" y1="4.689106" x2="7.574315" y2="4.691072" />
      <line x1="7.296643" y1="4.604246" x2="7.296643" y2="4.723988" />
      <line x1="6.839076" y1="4.777708" x2="6.839076" y2="5.200187" />
      <line x1="5.538922" y1="6.304735" x2="5.538922" y2="6.492758" />
      <line x1="5.26079" y1="6.220089" x2="5.26079" y2="6.462846" />
      <line x1="4.675272" y1="6.471406" x2="4.675272" y2="6.821134" />
      <line x1="3.029797" y1="7.268132" x2="3.029797" y2="7.780729" />
      <line x1="2.770158" y1="7.177429" x2="2.770158" y2="7.690026" />
      <line x1="2.096592" y1="7.39339" x2="2.096592" y2="7.905987" />
      <line x1="0.217932" y1="7.956476" x2="0.217932" y2="8.467211" />
      <line x1="-0.00552" y1="7.809303" x2="-0.00552" y2="8.3219" />
      <line x1="-0.721232" y1="7.868218" x2="-0.721232" y2="8.380815" />
      <line x1="-2.877086" y1="7.802807" x2="-2.877086" y2="8.315404" />
      <line x1="-3.58617" y1="7.700663" x2="-3.58617" y2="8.21326" />
      <line x1="-3.82101" y1="7.832069" x2="-3.82101" y2="8.344666" />
      <line x1="-5.648848" y1="7.158386" x2="-5.648848" y2="7.670983" />
      <line x1="-6.302981" y1="6.902143" x2="-6.302981" y2="7.41474" />
      <line x1="-6.569429" y1="6.976883" x2="-6.569429" y2="7.48948" />
      <line x1="-8.131915" y1="5.919956" x2="-8.131915" y2="6.432553" />
      <line x1="-8.686519" y1="5.527076" x2="-8.686519" y2="6.039673" />
      <line x1="-8.966417" y1="5.540057" x2="-8.966417" y2="6.052654" />
      <line x1="-10.15707" y1="4.171913" x2="-10.15707" y2="4.68451" />
      <line x1="-10.574349" y1="3.66917" x2="-10.574349" y2="4.181767" />
      <line x1="-10.848623" y1="3.619507" x2="-10.848623" y2="4.132104" />
      <line x1="-11.586302" y1="2.033383" x2="-11.586302" y2="2.54598" />
      <line x1="-11.83782" y1="1.45504" x2="-11.83782" y2="1.967636" />
      <line x1="-12.087778" y1="1.346117" x2="-12.087778" y2="1.858714" />
      <line x1="-12.322211" y1="-0.349895" x2="-12.322211" y2="0.162702" />
      <line x1="-12.390827" y1="-0.964427" x2="-12.390827" y2="-0.45183" />
      <line x1="-12.599435" y1="-1.125186" x2="-12.599435" y2="-0.612589" />
      <line x1="-12.348726" y1="-3.625987" x2="-12.348726" y2="-3.11339" />
      <line x1="-11.352737" y1="-5.98586" x2="-11.352737" y2="-5.473263" />
      <line x1="-9.679341" y1="-8.043985" x2="-9.679341" y2="-7.531388" />
      <line x1="-7.44258" y1="-9.660102" x2="-7.44258" y2="-9.147505" />
      <line x1="-4.794883" y1="-10.724077" x2="-4.794883" y2="-10.21148" />
      <line x1="-1.916687" y1="-10.796448" x2="-1.916687" y2="-10.650804" />
      <line x1="-0.120097" y1="-10.903219" x2="-0.120097" y2="-10.596294" />
      <line x1="2.714805" y1="-10.496226" x2="2.714805" y2="-9.983629" />
      <line x1="5.268432" y1="-9.274439" x2="5.268432" y2="-8.761842" />
      <line x1="7.36676" y1="-7.526791" x2="7.36676" y2="-7.014194" />
      <line x1="8.866791" y1="-5.372383" x2="8.866791" y2="-4.859786" />
      <line x1="9.666301" y1="-2.958032" x2="9.666301" y2="-2.445435" />
      <path d="M 4.776852,7.339813 L 4.776852,7.566394" />
      <path d="M 0.180113,7.049313 L 0.180113,7.56191" />
      <path d="M -2.122405,2.242469 L -2.122405,2.723793" />
      <path d="M 0.578337,-2.631405 L 0.578337,-2.118808" />
      <path d="M 5.175077,-2.626922 L 5.175077,-2.114325" />
      <path d="M 7.477595,2.607509 L 7.477595,2.723793" />
      <line x1="13.087426" y1="-1.558033" x2="13.087426" y2="-1.045436" />
      <line x1="-15.912574" y1="-1.558033" x2="-15.912574" y2="-1.045436" />
      <path d="M 9.366594,0.342214 L 9.366594,0.854811" />
      <path d="M 8.419691,2.717361 L 8.419691,3.229958" />
      <path d="M 6.789106,4.850609 L 6.789106,5.313744" />
      <path d="M 4.58596,6.54159 L 4.58596,6.964162" />
      <path d="M 1.960395,7.556143 L 1.960395,8.06874" />
      <path d="M -0.908663,8.039604 L -0.908663,8.552201" />
      <path d="M -2.703714,7.973005 L -2.703714,8.485602" />
      <path d="M -5.525871,7.316867 L -5.525871,7.829464" />
      <path d="M -8.054085,6.055919 L -8.054085,6.568516" />
      <path d="M -10.116061,4.276094 L -10.116061,4.788691" />
      <path d="M -11.571279,2.098682 L -11.571279,2.611279" />
      <path d="M -12.320569,-0.327929 L -12.320569,0.184668" />
      <path d="M -12.191741,-3.45828 L -12.191741,-2.945683" />
      <path d="M -11.244838,-5.833427 L -11.244838,-5.32083" />
      <path d="M -9.614253,-7.917213 L -9.614253,-7.404616" />
      <path d="M -7.411107,-9.567631 L -7.411107,-9.055034" />
      <path d="M -4.785542,-10.672209 L -4.785542,-10.159612" />
      <path d="M -1.916484,-10.798639 L -1.916484,-10.643073" />
      <path d="M -0.121433,-10.913452 L -0.121433,-10.576473" />
      <path d="M 2.700724,-10.432933 L 2.700724,-9.920336" />
      <path d="M 5.228938,-9.171985 L 5.228938,-8.659388" />
      <path d="M 7.290914,-7.392159 L 7.290914,-6.879562" />
      <path d="M 8.746132,-5.214747 L 8.746132,-4.702151" />
      <path d="M 9.495421,-2.788137 L 9.495421,-2.27554" />
    </g>
  </g>
</svg>