<?xml version='1.0' encoding='utf-8'?>
<svg width="100.089998mm" height="36.706595mm" viewBox="-14.542893 -5.112653 28.018367 10.275341" version="1.1" xmlns="http://www.w3.org/2000/svg">
  <g transform="scale(1,-1)" stroke-linecap="round">
    <g fill="none" stroke="rgb(0,0,0)" stroke-width="0.0251938562483653" id="Visible">
      <path d="M -7.91425,-2.293117 Q -7.731169,-2.152468 -7.578939,-1.986482" />
      <path d="M -7.578939,-1.986482 C -7.464771,-1.861291 -7.235708,-1.862286 -7.047056,-1.935058 C -6.853015,-2.008363 -6.696204,-2.126992 -6.550436,-2.283174" />
      <path d="M -6.550436,-2.283174 C -6.362704,-2.34611 -6.112756,-2.365762 -5.879131,-2.353384 C -5.644521,-2.339468 -5.420051,-2.302919 -5.205722,-2.243738" />
      <path d="M -5.205722,-2.243738 Q -5.095283,-2.029371 -5.012192,-1.805924" />
      <line x1="-7.91425" y1="-2.293117" x2="-7.91425" y2="-1.79416" />
      <path d="M -7.91425,-1.79416 Q -7.731169,-1.65351 -7.578939,-1.487524" />
      <line x1="-7.578939" y1="-1.986482" x2="-7.578939" y2="-1.487524" />
      <path d="M -9.939969,-2.899152 Q -9.695752,-2.911889 -9.452675,-2.887805" />
      <path d="M -9.452675,-2.887805 C -9.323285,-2.874972 -9.199016,-2.942854 -9.116674,-3.045393 C -9.032791,-3.148252 -8.986483,-3.278045 -8.967494,-3.407382" />
      <path d="M -8.967494,-3.727863 C -8.886099,-3.887407 -8.725393,-4.05447 -8.550096,-4.188882 C -8.372847,-4.322811 -8.184302,-4.434521 -7.984461,-4.524015" />
      <path d="M -7.984461,-4.524015 Q -7.73146,-4.440111 -7.490389,-4.333028" />
      <path d="M -7.92023,-2.297927 L -7.91425,-2.293117" />
      <path d="M -7.490389,-4.333028 Q -7.403937,-4.045677 -7.400188,-3.734875" />
      <path d="M -7.578939,-1.487524 C -7.464771,-1.362333 -7.235708,-1.363328 -7.047056,-1.4361 C -6.853015,-1.509405 -6.696204,-1.628034 -6.550436,-1.784216" />
      <line x1="-6.550436" y1="-2.283174" x2="-6.550436" y2="-1.784216" />
      <path d="M -6.550436,-1.784216 C -6.362704,-1.847152 -6.112756,-1.866804 -5.879131,-1.854426 C -5.644521,-1.84051 -5.420051,-1.803961 -5.205722,-1.74478" />
      <line x1="-5.205722" y1="-2.243738" x2="-5.205722" y2="-1.74478" />
      <path d="M -6.971244,-0.081791 C -6.920154,0.036695 -6.775769,0.125872 -6.619215,0.17324" />
      <path d="M -5.147949,0.997755 L -5.101404,1.071465" />
      <path d="M -5.205722,-1.74478 Q -5.095283,-1.530413 -5.012192,-1.306966" />
      <line x1="-5.012192" y1="-1.805924" x2="-5.012192" y2="-1.306966" />
      <path d="M -5.982335,-0.499026 C -6.208162,-0.530421 -6.413201,-0.528315 -6.611933,-0.472925 C -6.806197,-0.420017 -6.978569,-0.293736 -6.976718,-0.137327" />
      <path d="M -6.976718,-0.137327 L -6.976332,-0.124273" />
      <line x1="-6.976332" y1="-0.150357" x2="-6.976332" y2="-0.124273" />
      <path d="M -5.012192,-1.306966 C -5.12604,-1.138834 -5.264882,-0.981671 -5.428717,-0.835476 C -5.593005,-0.690995 -5.794131,-0.560896 -5.982335,-0.499026" />
      <path d="M -7.51716,-2.668269 C -7.656739,-2.5826 -7.771586,-2.485729 -7.861703,-2.377655 C -7.951474,-2.268655 -8.017015,-2.138456 -8.017195,-2.01409" />
      <path d="M -8.017195,-2.01409 C -8.017663,-1.928176 -7.983685,-1.847953 -7.91425,-1.79416" />
      <line x1="-8.444819" y1="-1.275271" x2="-7.91425" y2="-1.79416" />
      <path d="M -7.774878,-0.082495 C -7.789829,-0.303146 -7.856456,-0.529979 -7.972963,-0.736626 C -8.088758,-0.943574 -8.253656,-1.128953 -8.444819,-1.275271" />
      <line x1="-6.976332" y1="-0.124273" x2="-7.774878" y2="-0.082495" />
      <line x1="-9.939969" y1="-2.899152" x2="-9.939969" y2="-2.400195" />
      <path d="M -9.939969,-2.400195 Q -9.695752,-2.412931 -9.452675,-2.388848" />
      <line x1="-9.452675" y1="-2.887805" x2="-9.452675" y2="-2.388848" />
      <path d="M -11.866852,-2.086328 Q -11.704556,-2.24499 -11.513025,-2.376917" />
      <path d="M -11.513025,-2.376917 L -11.486151,-2.398293" />
      <path d="M -11.940355,-3.734117 C -11.939529,-3.980571 -11.888503,-4.211787 -11.809873,-4.43361" />
      <path d="M -11.809873,-4.43361 Q -11.562514,-4.529319 -11.304679,-4.601328" />
      <path d="M -10.372397,-3.313583 C -10.347546,-3.206971 -10.299867,-3.102398 -10.225007,-3.023049 C -10.151048,-2.943681 -10.04832,-2.893725 -9.939969,-2.899152" />
      <path d="M -11.304679,-4.601328 C -11.110672,-4.502664 -10.929321,-4.38234 -10.760626,-4.240356 C -10.593911,-4.09798 -10.443789,-3.923678 -10.372397,-3.760577" />
      <path d="M -9.452675,-2.388848 C -9.297219,-2.373129 -9.153093,-2.474079 -9.072086,-2.608972 C -8.988623,-2.74524 -8.956792,-2.903211 -8.956599,-3.062406" />
      <path d="M -8.956599,-3.062406 Q -8.956605,-3.142347 -8.967494,-3.228905" />
      <line x1="-8.967494" y1="-3.727863" x2="-8.967494" y2="-3.228905" />
      <path d="M -8.967494,-3.228905 C -8.886099,-3.388449 -8.725393,-3.555512 -8.550096,-3.689925 C -8.372847,-3.823853 -8.184302,-3.935564 -7.984461,-4.025057" />
      <line x1="-7.984461" y1="-4.524015" x2="-7.984461" y2="-4.025057" />
      <path d="M -7.984461,-4.025057 Q -7.73146,-3.941153 -7.490389,-3.83407" />
      <line x1="-7.490389" y1="-4.333028" x2="-7.490389" y2="-3.83407" />
      <path d="M -7.490389,-3.83407 Q -7.403937,-3.546719 -7.400188,-3.235917" />
      <path d="M -7.400188,-3.235917 C -7.399575,-3.036018 -7.435875,-2.824822 -7.51716,-2.668269" />
      <path d="M -8.056336,1.943234 C -7.968905,2.08568 -7.846491,2.202619 -7.68711,2.314228" />
      <path d="M -7.68711,2.314228 C -7.628455,2.44575 -7.601806,2.614277 -7.602132,2.7801" />
      <path d="M -12.025327,2.21321 C -11.852707,2.105036 -11.718607,1.988654 -11.622257,1.842868" />
      <path d="M -12.142299,2.780858 C -12.142912,2.580959 -12.106612,2.369763 -12.025327,2.21321" />
      <path d="M -14.441084,-2.025482 Q -14.344267,-2.244739 -14.220704,-2.453657" />
      <path d="M -12.875487,-2.430456 C -12.739607,-2.267716 -12.590373,-2.141961 -12.401154,-2.059731 C -12.217284,-1.978285 -11.988613,-1.966631 -11.866852,-2.086328" />
      <path d="M -14.220704,-2.453657 C -14.003017,-2.502779 -13.776606,-2.528828 -13.541473,-2.531806 C -13.307418,-2.533294 -13.059048,-2.502038 -12.875487,-2.430456" />
      <path d="M -13.560153,0.043967 C -13.345916,0.073788 -13.152358,0.073194 -12.962246,0.026438 C -12.776518,-0.018659 -12.602778,-0.124998 -12.571244,-0.268895" />
      <path d="M -14.530296,0.851907 C -14.416447,0.683775 -14.277605,0.526612 -14.11377,0.380417 C -13.949482,0.235936 -13.748356,0.105837 -13.560153,0.043967" />
      <path d="M -6.976332,-0.124273 Q -6.971246,-0.051291 -6.971244,0.021949" />
      <path d="M -6.971244,0.021949 Q -6.97126,0.160557 -6.989425,0.298029" />
      <path d="M -6.989425,0.298029 L -6.991042,0.324664" />
      <path d="M -6.991042,0.324664 C -6.99261,0.478021 -6.827118,0.606466 -6.638603,0.666006 C -6.445749,0.727991 -6.244315,0.739055 -6.020083,0.7185" />
      <line x1="-6.020083" y1="0.639131" x2="-6.020083" y2="0.7185" />
      <path d="M -6.020083,0.7185 C -5.835985,0.789039 -5.643211,0.928311 -5.488113,1.080228 C -5.333573,1.233837 -5.20467,1.397235 -5.101404,1.570423" />
      <line x1="-5.101404" y1="1.071465" x2="-5.101404" y2="1.570423" />
      <path d="M -5.101404,1.570423 Q -5.19822,1.78968 -5.321783,1.998598" />
      <path d="M -6.667001,1.975397 C -6.80288,1.812657 -6.952115,1.686902 -7.141333,1.604673 C -7.325204,1.523226 -7.553875,1.511572 -7.675636,1.631269" />
      <path d="M -5.321783,1.998598 C -5.53947,2.04772 -5.765881,2.073769 -6.001015,2.076747 C -6.23507,2.078235 -6.483439,2.046979 -6.667001,1.975397" />
      <line x1="-9.939969" y1="-2.400195" x2="-9.891762" y2="-1.708153" />
      <path d="M -8.444819,-1.275271 C -8.635427,-1.422134 -8.867619,-1.541699 -9.118612,-1.616426 C -9.369347,-1.691801 -9.637203,-1.721835 -9.891762,-1.708153" />
      <path d="M -8.274381,1.171464 C -8.104916,1.006278 -7.96695,0.805054 -7.880722,0.587537 C -7.793747,0.370244 -7.759091,0.138113 -7.774878,-0.082495" />
      <path d="M -9.650725,1.752052 C -9.396116,1.739096 -9.134374,1.681355 -8.895923,1.580387 C -8.657126,1.480035 -8.443218,1.337131 -8.274381,1.171464" />
      <path d="M -9.891762,-1.708153 C -10.146372,-1.695197 -10.408113,-1.637456 -10.646564,-1.536488 C -10.885361,-1.436137 -11.099269,-1.293232 -11.268107,-1.127565" />
      <path d="M -11.097668,1.31917 C -10.90706,1.466033 -10.674868,1.585598 -10.423875,1.660325 C -10.17314,1.7357 -9.905284,1.765734 -9.650725,1.752052" />
      <path d="M -11.268107,-1.127565 C -11.437571,-0.962379 -11.575538,-0.761155 -11.661765,-0.543638 C -11.74874,-0.326345 -11.783397,-0.094214 -11.767609,0.126394" />
      <path d="M -11.767609,0.126394 C -11.752659,0.347045 -11.686031,0.573877 -11.569525,0.780525 C -11.453729,0.987473 -11.288832,1.172852 -11.097668,1.31917" />
      <line x1="-7.675636" y1="1.631269" x2="-8.274381" y2="1.171464" />
      <line x1="-10.372397" y1="-3.760577" x2="-10.372397" y2="-3.261619" />
      <path d="M -10.372397,-3.261619 Q -10.395693,-3.138984 -10.395775,-3.026605" />
      <path d="M -10.395775,-3.026605 C -10.395709,-2.88105 -10.366007,-2.733315 -10.289291,-2.608257 C -10.214559,-2.484094 -10.084423,-2.392473 -9.939969,-2.400195" />
      <line x1="-11.866852" y1="-2.086328" x2="-11.866852" y2="-1.58737" />
      <path d="M -11.866852,-1.58737 Q -11.704556,-1.746033 -11.513025,-1.877959" />
      <line x1="-11.513025" y1="-2.376917" x2="-11.513025" y2="-1.877959" />
      <path d="M -11.513025,-1.877959 C -11.433981,-1.932767 -11.395301,-2.020663 -11.395919,-2.115006" />
      <path d="M -11.395919,-2.115006 C -11.396111,-2.236932 -11.454882,-2.364329 -11.536884,-2.473247 C -11.619135,-2.581197 -11.725299,-2.679877 -11.855378,-2.769287" />
      <path d="M -11.855378,-2.769287 C -11.914033,-2.900809 -11.940682,-3.069336 -11.940355,-3.235159" />
      <path d="M -11.940355,-3.235159 C -11.939529,-3.481613 -11.888503,-3.712829 -11.809873,-3.934652" />
      <line x1="-11.809873" y1="-4.43361" x2="-11.809873" y2="-3.934652" />
      <path d="M -11.809873,-3.934652 Q -11.562514,-4.030361 -11.304679,-4.10237" />
      <line x1="-11.304679" y1="-4.601328" x2="-11.304679" y2="-4.10237" />
      <path d="M -11.304679,-4.10237 C -11.110672,-4.003706 -10.929321,-3.883382 -10.760626,-3.741398 C -10.593911,-3.599022 -10.443789,-3.424721 -10.372397,-3.261619" />
      <path d="M -7.675636,1.631269 Q -7.837931,1.789932 -8.029463,1.921858" />
      <path d="M -8.029463,1.921858 C -8.108506,1.976666 -8.147186,2.064562 -8.146569,2.158905" />
      <path d="M -8.146569,2.158905 C -8.146376,2.280831 -8.087605,2.408228 -8.005604,2.517146 C -7.923353,2.625095 -7.817188,2.723776 -7.68711,2.813186" />
      <line x1="-7.68711" y1="2.314228" x2="-7.68711" y2="2.813186" />
      <path d="M -7.68711,2.813186 C -7.628455,2.944708 -7.601806,3.113235 -7.602132,3.279058" />
      <path d="M -7.602132,3.279058 C -7.602958,3.525512 -7.653984,3.756728 -7.732615,3.978551" />
      <path d="M -7.732615,3.978551 Q -7.979973,4.07426 -8.237808,4.146269" />
      <line x1="-9.17009" y1="2.858524" x2="-9.17009" y2="3.305518" />
      <path d="M -9.17009,3.305518 Q -9.146794,3.182883 -9.146712,3.070503" />
      <path d="M -9.146712,3.070503 C -9.146779,2.924949 -9.176481,2.777214 -9.253196,2.652156 C -9.327929,2.527993 -9.458064,2.436372 -9.602518,2.444093" />
      <path d="M -8.237808,4.146269 C -8.431816,4.047605 -8.613167,3.927281 -8.781861,3.785297 C -8.948577,3.642921 -9.098698,3.468619 -9.17009,3.305518" />
      <path d="M -9.602518,2.444093 Q -9.846736,2.45683 -10.089812,2.432747" />
      <path d="M -10.089812,2.432747 C -10.245268,2.417028 -10.389395,2.517978 -10.470401,2.652871 C -10.553864,2.789139 -10.585695,2.947109 -10.585888,3.106304" />
      <path d="M -10.585888,3.106304 Q -10.585882,3.186245 -10.574993,3.272804" />
      <line x1="-10.574993" y1="2.952323" x2="-10.574993" y2="3.272804" />
      <path d="M -10.574993,3.272804 C -10.656388,3.432348 -10.817094,3.599411 -10.992391,3.733824 C -11.16964,3.867752 -11.358185,3.979463 -11.558027,4.068956" />
      <path d="M -11.558027,4.068956 Q -11.811028,3.985052 -12.052099,3.877969" />
      <line x1="-12.025327" y1="2.21321" x2="-12.025327" y2="2.712168" />
      <path d="M -12.025327,2.712168 C -11.885749,2.626499 -11.770901,2.529627 -11.680785,2.421554 C -11.591013,2.312554 -11.525472,2.182355 -11.525292,2.057989" />
      <path d="M -11.525292,2.057989 C -11.524825,1.972075 -11.558802,1.891852 -11.628238,1.838059" />
      <path d="M -12.052099,3.877969 Q -12.138551,3.590618 -12.142299,3.279816" />
      <path d="M -12.142299,3.279816 C -12.142912,3.079917 -12.106612,2.868721 -12.025327,2.712168" />
      <path d="M -12.566155,0.168171 Q -12.571241,0.09519 -12.571244,0.021949" />
      <path d="M -12.571244,0.021949 Q -12.571227,-0.116658 -12.553062,-0.25413" />
      <line x1="-12.553062" y1="-0.307387" x2="-12.553062" y2="-0.25413" />
      <path d="M -12.553062,-0.25413 L -12.551445,-0.280766" />
      <path d="M -12.551445,-0.280766 C -12.549877,-0.434122 -12.715369,-0.562567 -12.903884,-0.622107 C -13.096738,-0.684092 -13.298172,-0.695156 -13.522404,-0.674601" />
      <path d="M -13.522404,-0.674601 C -13.706502,-0.74514 -13.899276,-0.884412 -14.054375,-1.036329 C -14.208915,-1.189938 -14.337818,-1.353336 -14.441084,-1.526524" />
      <line x1="-14.441084" y1="-2.025482" x2="-14.441084" y2="-1.526524" />
      <path d="M -14.441084,-1.526524 Q -14.344267,-1.745781 -14.220704,-1.9547" />
      <line x1="-14.220704" y1="-2.453657" x2="-14.220704" y2="-1.9547" />
      <line x1="-12.875487" y1="-2.430456" x2="-12.875487" y2="-1.931499" />
      <path d="M -12.875487,-1.931499 C -12.739607,-1.768758 -12.590373,-1.643003 -12.401154,-1.560774 C -12.217284,-1.479327 -11.988613,-1.467673 -11.866852,-1.58737" />
      <path d="M -14.220704,-1.9547 C -14.003017,-2.003821 -13.776606,-2.02987 -13.541473,-2.032848 C -13.307418,-2.034336 -13.059048,-2.00308 -12.875487,-1.931499" />
      <path d="M -11.628238,1.838059 Q -11.811318,1.697409 -11.963548,1.531423" />
      <path d="M -11.963548,1.531423 C -12.077716,1.406232 -12.30678,1.407227 -12.495432,1.479999 C -12.689472,1.553304 -12.846284,1.671933 -12.992051,1.828115" />
      <path d="M -12.992051,1.828115 C -13.179783,1.891051 -13.429731,1.910703 -13.663356,1.898325 C -13.897966,1.884409 -14.122436,1.84786 -14.336766,1.788679" />
      <path d="M -14.336766,1.788679 Q -14.447204,1.574312 -14.530296,1.350865" />
      <line x1="-14.530296" y1="0.851907" x2="-14.530296" y2="1.350865" />
      <line x1="-13.560153" y1="0.043967" x2="-13.560153" y2="0.542925" />
      <path d="M -13.560153,0.542925 C -13.334326,0.574319 -13.129286,0.572214 -12.930554,0.516824 C -12.73629,0.463916 -12.563918,0.337635 -12.565769,0.181226" />
      <path d="M -12.565769,0.181226 L -12.566155,0.168171" />
      <path d="M -14.530296,1.350865 C -14.416447,1.182733 -14.277605,1.025569 -14.11377,0.879374 C -13.949482,0.734894 -13.748356,0.604795 -13.560153,0.542925" />
      <line x1="-11.866852" y1="-1.58737" x2="-11.268107" y2="-1.127565" />
      <line x1="-9.602518" y1="2.444093" x2="-9.650725" y2="1.752052" />
      <line x1="-11.628238" y1="1.838059" x2="-11.097668" y2="1.31917" />
      <line x1="-12.566155" y1="0.168171" x2="-11.767609" y2="0.126394" />
      <path d="M 2.228108,-1.279019 Q 2.262264,-1.194675 2.290588,-1.108881" />
      <path d="M 2.290588,-1.108881 C 2.322931,-1.031658 2.498989,-1.055573 2.569581,-1.074417" />
      <path d="M 2.569581,-1.074417 C 2.834642,-1.110144 3.211948,-1.01735 3.529422,-0.870906" />
      <line x1="2.072609" y1="-1.152548" x2="2.072609" y2="-1.103046" />
      <path d="M 2.072609,-1.103046 Q 2.206404,-0.86472 2.290588,-0.609924" />
      <line x1="2.290588" y1="-1.108881" x2="2.290588" y2="-0.609924" />
      <path d="M 0.067723,-3.141654 Q 0.356788,-3.055122 0.624211,-2.92654" />
      <path d="M 0.624211,-2.92654 C 0.71009,-2.891755 0.815069,-3.016554 0.849609,-3.073137" />
      <path d="M 0.849609,-3.073137 C 1.030872,-3.288328 1.447167,-3.469198 1.838969,-3.553031 C 2.037496,-3.596196 2.232933,-3.623039 2.42528,-3.63356 C 2.61812,-3.644824 2.806661,-3.642735 3.010654,-3.629429" />
      <path d="M 3.010654,-3.629429 L 3.011835,-3.537259" />
      <path d="M 2.290588,-0.609924 C 2.322931,-0.5327 2.498989,-0.556615 2.569581,-0.57546" />
      <line x1="2.569581" y1="-1.074417" x2="2.569581" y2="-0.57546" />
      <path d="M 2.569581,-0.57546 C 2.719397,-0.594979 2.908559,-0.575118 3.1002,-0.525405 C 3.292414,-0.475917 3.48541,-0.398505 3.660724,-0.308519 C 4.016119,-0.124154 4.28795,0.090604 4.551566,0.355465" />
      <line x1="4.551566" y1="-0.038714" x2="4.551566" y2="0.355465" />
      <path d="M 2.155385,1.393154 C 2.367031,1.527456 2.554916,1.814704 2.66067,2.105968 C 2.769419,2.40141 2.809844,2.692173 2.810046,2.976493" />
      <path d="M 4.551566,0.355465 C 4.271918,0.607675 3.987172,0.809474 3.620867,0.977032 C 3.44023,1.058731 3.242715,1.12705 3.047712,1.16752 C 2.853267,1.208243 2.663147,1.219272 2.514757,1.192809" />
      <path d="M 2.514757,1.192809 C 2.445435,1.170706 2.271113,1.138632 2.23403,1.21424" />
      <path d="M 2.253627,-1.290229 C 2.193363,-1.266055 2.067635,-1.196303 2.067126,-1.126935" />
      <path d="M 2.067126,-1.126935 Q 2.067049,-1.11488 2.072609,-1.103046" />
      <line x1="0.723898" y1="-0.534115" x2="2.072609" y2="-1.103046" />
      <path d="M 0.816139,0.790049 C 0.899761,0.581235 0.93837,0.349573 0.921983,0.120017 C 0.906385,-0.109581 0.8359,-0.335536 0.723898,-0.534115" />
      <line x1="2.23403" y1="1.21424" x2="0.816139" y2="0.790049" />
      <line x1="0.067723" y1="-3.141654" x2="0.067723" y2="-2.642697" />
      <path d="M 0.067723,-2.642697 Q 0.356788,-2.556164 0.624211,-2.427583" />
      <line x1="0.624211" y1="-2.92654" x2="0.624211" y2="-2.427583" />
      <path d="M -2.606193,-3.001762 Q -2.331189,-3.117713 -2.037179,-3.190668" />
      <path d="M -2.037179,-3.190668 Q -2.018299,-3.196635 -2.005936,-3.209373" />
      <path d="M -2.005936,-3.539027 C -2.007102,-3.814644 -1.849585,-4.162182 -1.648471,-4.436259 C -1.443131,-4.717286 -1.209983,-4.935796 -0.923217,-5.150092" />
      <path d="M -0.923217,-5.150092 C -0.657925,-4.929272 -0.444426,-4.707653 -0.259724,-4.428956 C -0.078755,-4.156662 0.060382,-3.817692 0.059604,-3.540173" />
      <path d="M 0.059604,-3.145093 L 0.067723,-3.141654" />
      <path d="M 0.624211,-2.427583 C 0.71009,-2.392797 0.815069,-2.517596 0.849609,-2.574179" />
      <line x1="0.849609" y1="-3.073137" x2="0.849609" y2="-2.574179" />
      <path d="M 0.849609,-2.574179 C 1.030872,-2.78937 1.447167,-2.97024 1.838969,-3.054073 C 2.037496,-3.097238 2.232933,-3.124081 2.42528,-3.134602 C 2.61812,-3.145866 2.806661,-3.143777 3.010654,-3.130472" />
      <line x1="3.010654" y1="-3.629429" x2="3.010654" y2="-3.130472" />
      <path d="M 3.010654,-3.130472 L 3.011835,-3.038302" />
      <path d="M 3.011835,-3.038302 C 3.01128,-2.712432 2.967553,-2.402914 2.843067,-2.076224 C 2.722808,-1.756271 2.499392,-1.428833 2.253627,-1.290229" />
      <path d="M -5.1606,2.988266 C -5.160045,2.662397 -5.116318,2.352878 -4.991832,2.026189 C -4.871573,1.706236 -4.648157,1.378798 -4.402392,1.240193" />
      <path d="M -4.402392,1.240193 L -4.376873,1.228984" />
      <path d="M -4.382795,-1.264275 Q -4.346766,-1.35473 -4.30415,-1.443189" />
      <path d="M -4.958811,-3.525486 Q -4.958747,-3.665931 -4.945639,-3.814696" />
      <path d="M -4.945639,-3.814696 C -4.741117,-3.818489 -4.552718,-3.811802 -4.360854,-3.791579 C -4.169437,-3.772122 -3.975945,-3.736222 -3.780379,-3.683881 C -3.394337,-3.581935 -2.98985,-3.381953 -2.822183,-3.158637" />
      <path d="M -2.822183,-3.158637 C -2.791199,-3.100528 -2.694104,-2.971024 -2.606193,-3.001762" />
      <path d="M -6.700331,-0.4055 L -6.630643,-0.467336" />
      <path d="M -5.05888,-1.241451 Q -4.837271,-1.272264 -4.663522,-1.242844" />
      <path d="M -4.663522,-1.242844 C -4.5942,-1.220742 -4.419877,-1.188668 -4.382795,-1.264275" />
      <path d="M 2.23403,1.21424 Q 2.134181,1.464751 1.985811,1.696507" />
      <path d="M 1.985811,1.696507 Q 1.978632,1.709766 1.978747,1.723631" />
      <path d="M 1.978747,1.723631 C 1.979212,1.791976 2.097262,1.865343 2.154968,1.891843" />
      <line x1="2.154968" y1="1.394019" x2="2.154968" y2="1.891843" />
      <path d="M 2.154968,1.891843 C 2.366698,2.025986 2.554731,2.313278 2.660561,2.604634 C 2.769392,2.900169 2.809844,3.191039 2.810046,3.475451" />
      <path d="M 2.810046,3.475451 Q 2.809982,3.615895 2.796874,3.764661" />
      <path d="M 2.796874,3.764661 C 2.592352,3.768454 2.403953,3.761766 2.212089,3.741544 C 2.020672,3.722086 1.82718,3.686187 1.631614,3.633846 C 1.245572,3.5319 0.841085,3.331918 0.673418,3.108601" />
      <path d="M 0.673418,3.108601 C 0.642434,3.050492 0.545339,2.920988 0.457428,2.951727" />
      <line x1="0.067723" y1="-2.642697" x2="-0.421751" y2="-1.413915" />
      <path d="M 0.723898,-0.534115 C 0.612651,-0.733012 0.450931,-0.920481 0.252042,-1.07276 C 0.053677,-1.225552 -0.180527,-1.342132 -0.421751,-1.413915" />
      <path d="M -0.199062,1.782899 C 0.030445,1.686489 0.246766,1.546338 0.42248,1.373975 C 0.598787,1.202067 0.733309,0.999099 0.816139,0.790049" />
      <path d="M -1.727014,1.862837 C -1.245314,2.012887 -0.656435,1.982079 -0.199062,1.782899" />
      <path d="M -0.421751,-1.413915 C -0.903451,-1.563965 -1.49233,-1.533157 -1.949703,-1.333976" />
      <path d="M -2.872663,0.983037 C -2.761416,1.181934 -2.599696,1.369403 -2.400807,1.521682 C -2.202442,1.674474 -1.968238,1.791054 -1.727014,1.862837" />
      <path d="M -1.949703,-1.333976 C -2.17921,-1.237567 -2.395531,-1.097416 -2.571245,-0.925053 C -2.747552,-0.753145 -2.882074,-0.550177 -2.964904,-0.341127" />
      <path d="M -2.964904,-0.341127 C -3.048526,-0.132313 -3.087135,0.099349 -3.070748,0.328905 C -3.05515,0.558503 -2.984664,0.784458 -2.872663,0.983037" />
      <line x1="0.457428" y1="2.951727" x2="-0.199062" y2="1.782899" />
      <path d="M 0.042994,-2.885981 C 0.029443,-2.854013 0.013008,-2.797597 0.012981,-2.746084" />
      <path d="M 0.012981,-2.746084 C 0.012968,-2.699866 0.02638,-2.657569 0.067723,-2.642697" />
      <line x1="-2.606193" y1="-3.001762" x2="-2.606193" y2="-2.502805" />
      <path d="M -2.606193,-2.502805 Q -2.331189,-2.618755 -2.037179,-2.69171" />
      <line x1="-2.037179" y1="-3.190668" x2="-2.037179" y2="-2.69171" />
      <path d="M -2.037179,-2.69171 C -1.990065,-2.706156 -1.975605,-2.756274 -1.97562,-2.808656" />
      <path d="M -1.97562,-2.808656 C -1.975636,-2.855505 -1.98706,-2.904332 -1.997411,-2.933493" />
      <path d="M -1.997411,-2.933493 Q -2.005946,-2.983796 -2.005936,-3.040069" />
      <path d="M -2.005936,-3.040069 C -2.007102,-3.315686 -1.849585,-3.663225 -1.648471,-3.937301 C -1.443131,-4.218328 -1.209983,-4.436838 -0.923217,-4.651134" />
      <line x1="-0.923217" y1="-5.150092" x2="-0.923217" y2="-4.651134" />
      <path d="M -0.923217,-4.651134 C -0.657925,-4.430314 -0.444426,-4.208696 -0.259724,-3.929999 C -0.078755,-3.657704 0.060382,-3.318734 0.059604,-3.041215" />
      <path d="M 0.059604,-3.041215 Q 0.059632,-2.95745 0.042994,-2.885981" />
      <path d="M 0.457428,2.951727 Q 0.182424,3.067677 -0.111586,3.140633" />
      <path d="M -0.111586,3.140633 C -0.1587,3.155078 -0.17316,3.205197 -0.173144,3.257578" />
      <path d="M -0.173144,3.257578 C -0.173129,3.304427 -0.161705,3.353254 -0.151354,3.382416" />
      <line x1="-0.151354" y1="3.16957" x2="-0.151354" y2="3.382416" />
      <path d="M -0.151354,3.382416 Q -0.142819,3.432718 -0.142829,3.488991" />
      <path d="M -0.142829,3.488991 C -0.141663,3.764608 -0.29918,4.112147 -0.500294,4.386224 C -0.705634,4.66725 -0.938782,4.88576 -1.225547,5.100056" />
      <path d="M -1.225547,5.100056 C -1.49084,4.879236 -1.704339,4.657618 -1.889041,4.378921 C -2.07001,4.106627 -2.209147,3.767656 -2.208369,3.490138" />
      <path d="M -2.208369,3.490138 Q -2.208397,3.406372 -2.191759,3.334904" />
      <line x1="-2.191759" y1="3.106361" x2="-2.191759" y2="3.334904" />
      <path d="M -2.191759,3.334904 C -2.178208,3.302936 -2.161773,3.246519 -2.161746,3.195006" />
      <path d="M -2.161746,3.195006 C -2.161733,3.148788 -2.175145,3.106492 -2.216488,3.091619" />
      <path d="M -2.216488,3.091619 Q -2.505553,3.005086 -2.772976,2.876505" />
      <path d="M -2.772976,2.876505 C -2.858855,2.84172 -2.963834,2.966518 -2.998374,3.023101" />
      <path d="M -2.998374,3.023101 C -3.179637,3.238293 -3.595932,3.419163 -3.987734,3.502996 C -4.186261,3.54616 -4.381698,3.573003 -4.574045,3.583524 C -4.766885,3.594789 -4.955426,3.592699 -5.159418,3.579394" />
      <path d="M -5.159418,3.579394 L -5.1606,3.487224" />
      <path d="M -5.1606,3.487224 C -5.160045,3.161354 -5.116318,2.851836 -4.991832,2.525147 C -4.871573,2.205194 -4.648157,1.877756 -4.402392,1.739151" />
      <line x1="-4.402392" y1="1.240193" x2="-4.402392" y2="1.739151" />
      <path d="M -4.402392,1.739151 C -4.342128,1.714977 -4.2164,1.645225 -4.215891,1.575857" />
      <path d="M -4.215891,1.575857 Q -4.215814,1.563802 -4.221374,1.551969" />
      <line x1="-4.382795" y1="-1.264275" x2="-4.382795" y2="-0.765317" />
      <path d="M -4.382795,-0.765317 Q -4.282945,-1.015829 -4.134575,-1.247584" />
      <line x1="-4.134575" y1="-1.304699" x2="-4.134575" y2="-1.247584" />
      <path d="M -4.134575,-1.247584 Q -4.127397,-1.260844 -4.127512,-1.274709" />
      <path d="M -4.127512,-1.274709 C -4.127977,-1.343054 -4.246027,-1.416421 -4.303733,-1.442921" />
      <path d="M -4.303733,-1.442921 C -4.515462,-1.577064 -4.703496,-1.864356 -4.809326,-2.155712 C -4.918157,-2.451246 -4.958609,-2.742117 -4.958811,-3.026528" />
      <path d="M -4.958811,-3.026528 Q -4.958747,-3.166973 -4.945639,-3.315739" />
      <line x1="-4.945639" y1="-3.814696" x2="-4.945639" y2="-3.315739" />
      <path d="M -4.945639,-3.315739 C -4.741117,-3.319532 -4.552718,-3.312844 -4.360854,-3.292621 C -4.169437,-3.273164 -3.975945,-3.237265 -3.780379,-3.184923 C -3.394337,-3.082978 -2.98985,-2.882995 -2.822183,-2.659679" />
      <line x1="-2.822183" y1="-3.158637" x2="-2.822183" y2="-2.659679" />
      <path d="M -2.822183,-2.659679 C -2.791199,-2.60157 -2.694104,-2.472066 -2.606193,-2.502805" />
      <path d="M -4.221374,1.551969 Q -4.355169,1.313643 -4.439352,1.058846" />
      <path d="M -4.439352,1.058846 C -4.471696,0.981622 -4.647754,1.005537 -4.718346,1.024382" />
      <path d="M -4.718346,1.024382 C -4.868162,1.043901 -5.057324,1.02404 -5.248965,0.974327 C -5.441179,0.92484 -5.634175,0.847428 -5.809489,0.757441 C -6.164884,0.573077 -6.436715,0.358318 -6.700331,0.093457" />
      <line x1="-6.700331" y1="-0.4055" x2="-6.700331" y2="0.093457" />
      <path d="M -6.700331,0.093457 C -6.420683,-0.158753 -6.135937,-0.360551 -5.769632,-0.52811 C -5.588994,-0.609808 -5.39148,-0.678127 -5.196477,-0.718598 C -5.002032,-0.759321 -4.811912,-0.77035 -4.663522,-0.743887" />
      <line x1="-4.663522" y1="-1.242844" x2="-4.663522" y2="-0.743887" />
      <path d="M -4.663522,-0.743887 C -4.5942,-0.721784 -4.419877,-0.68971 -4.382795,-0.765317" />
      <line x1="-2.606193" y1="-2.502805" x2="-1.949703" y2="-1.333976" />
      <line x1="-2.216488" y1="3.091619" x2="-1.727014" y2="1.862837" />
      <line x1="-4.221374" y1="1.551969" x2="-2.872663" y2="0.983037" />
      <line x1="-4.382795" y1="-0.765317" x2="-2.964904" y2="-0.341127" />
      <path d="M 4.578693,0.239987 C 4.644442,0.237663 4.78926,0.215314 4.822226,0.152737" />
      <path d="M 3.181574,1.454492 Q 3.298121,1.239906 3.441041,1.051583" />
      <path d="M 4.551566,0.244889 L 4.578693,0.239987" />
      <path d="M 6.000984,2.713403 Q 5.772133,2.537591 5.581846,2.330108" />
      <path d="M 5.711978,3.202775 C 5.711341,2.983322 5.750383,2.752304 5.835769,2.577971" />
      <path d="M 5.581846,2.330108 C 5.517872,2.269491 5.365762,2.349971 5.308871,2.390794" />
      <path d="M 5.308871,2.390794 C 5.080811,2.513033 4.677799,2.551025 4.326598,2.520789 C 3.966223,2.490866 3.657234,2.413009 3.333026,2.296072" />
      <path d="M 3.282569,-1.802928 Q 3.361259,-1.973384 3.455032,-2.138008" />
      <path d="M 5.433895,-2.140642 C 5.488175,-2.097231 5.635078,-2.009788 5.702716,-2.067341" />
      <path d="M 3.455032,-2.138008 C 3.786018,-2.239689 4.099386,-2.303054 4.461095,-2.316162 C 4.813663,-2.330011 5.213739,-2.273318 5.433895,-2.140642" />
      <path d="M 3.333026,2.296072 Q 3.249589,2.127321 3.181574,1.95345" />
      <line x1="3.181574" y1="1.454492" x2="3.181574" y2="1.95345" />
      <line x1="4.578693" y1="0.239987" x2="4.578693" y2="0.738945" />
      <path d="M 4.578693,0.738945 C 4.652495,0.736379 4.827718,0.708189 4.828587,0.626044" />
      <path d="M 3.181574,1.95345 C 3.332652,1.678723 3.502535,1.441887 3.747607,1.210963 C 3.98561,0.985118 4.314765,0.78004 4.578693,0.738945" />
      <line x1="5.916401" y1="2.646272" x2="5.916401" y2="2.94637" />
      <path d="M 5.916401,2.94637 C 5.955022,2.910042 6.022752,2.827444 6.022966,2.76375" />
      <path d="M 6.022966,2.76375 Q 6.023677,2.734219 6.000984,2.713403" />
      <line x1="6.995802" y1="1.740488" x2="6.000984" y2="2.713403" />
      <path d="M 6.325861,0.547711 C 6.340811,0.768362 6.407439,0.995195 6.523945,1.201842 C 6.639741,1.40879 6.804638,1.594169 6.995802,1.740488" />
      <line x1="4.828587" y1="0.626044" x2="6.325861" y2="0.547711" />
      <path d="M 8.533133,3.470947 Q 8.227861,3.486868 7.924016,3.456763" />
      <path d="M 10.649495,2.708765 C 10.705156,2.851286 10.730818,3.026744 10.730551,3.200178" />
      <path d="M 7.924016,3.456763 C 7.82932,3.453103 7.787428,3.603224 7.780509,3.666953" />
      <path d="M 7.780509,3.666953 C 7.718985,3.893143 7.465011,4.166973 7.192004,4.360807 C 6.912765,4.560485 6.630751,4.69478 6.306089,4.810766" />
      <path d="M 6.306089,4.810766 Q 6.109401,4.742572 5.919441,4.661305" />
      <path d="M 5.919441,4.661305 Q 5.82226,4.427594 5.769077,4.195397 Q 5.713944,3.959128 5.711978,3.701733" />
      <path d="M 5.711978,3.701733 C 5.709854,3.421289 5.778415,3.118434 5.916401,2.94637" />
      <path d="M 5.702716,-2.067341 Q 5.840052,-2.20165 5.994957,-2.321189" />
      <path d="M 5.913902,-3.31156 C 5.915988,-3.50516 5.941362,-3.690195 5.990024,-3.866665 C 6.037272,-4.042775 6.100707,-4.205991 6.184275,-4.379463" />
      <path d="M 6.184275,-4.379463 Q 6.378996,-4.451772 6.579626,-4.510715" />
      <path d="M 7.981043,-3.299936 C 7.984004,-3.235977 8.016533,-3.084123 8.111319,-3.083371" />
      <path d="M 6.579626,-4.510715 C 6.896633,-4.379787 7.169919,-4.232562 7.436381,-4.020176 C 7.696984,-3.813917 7.933623,-3.528663 7.981043,-3.299936" />
      <path d="M 8.111319,-3.083371 Q 8.416591,-3.099292 8.720436,-3.069187" />
      <path d="M 8.720436,-3.069187 C 8.815132,-3.065527 8.857024,-3.215648 8.863944,-3.279377" />
      <path d="M 8.863944,-3.279377 C 8.925468,-3.505567 9.179441,-3.779397 9.452449,-3.973231 C 9.731687,-4.17291 10.013701,-4.307204 10.338363,-4.423191" />
      <path d="M 10.338363,-4.423191 Q 10.535052,-4.354996 10.725012,-4.273729" />
      <path d="M 10.725012,-4.273729 Q 10.822192,-4.040018 10.875375,-3.807821 Q 10.930508,-3.571553 10.932474,-3.314157" />
      <path d="M 11.822226,0.339856 C 11.87164,0.386947 11.985395,0.409115 12.042037,0.413776" />
      <path d="M 12.042037,0.413776 C 12.303038,0.467094 12.61901,0.687194 12.842675,0.92379 C 13.073084,1.165785 13.228047,1.410186 13.361883,1.691546" />
      <path d="M 10.808684,-2.190396 Q 10.943577,-2.072369 11.062607,-1.942533" />
      <path d="M 11.062607,-1.942533 C 11.126581,-1.881915 11.278691,-1.962395 11.335582,-2.003218" />
      <path d="M 11.335582,-2.003218 C 11.563641,-2.125457 11.966654,-2.16345 12.317854,-2.133213 C 12.678229,-2.10329 12.987218,-2.025434 13.311426,-1.908496" />
      <path d="M 13.311426,-1.908496 Q 13.394864,-1.739745 13.462878,-1.565874" />
      <path d="M 4.828587,0.626044 Q 4.82223,0.534817 4.822226,0.443267" />
      <path d="M 4.822226,0.443267 Q 4.822247,0.270007 4.844953,0.098167" />
      <line x1="4.844953" y1="0.091359" x2="4.844953" y2="0.098167" />
      <path d="M 4.844953,0.098167 L 4.845059,0.09475" />
      <path d="M 4.845059,0.09475 C 4.844274,0.01507 4.674954,-0.020277 4.602415,-0.0262" />
      <path d="M 4.602415,-0.0262 C 4.341415,-0.079518 4.025442,-0.299618 3.801777,-0.536214 C 3.571368,-0.778209 3.416406,-1.02261 3.282569,-1.303971" />
      <line x1="3.282569" y1="-1.802928" x2="3.282569" y2="-1.303971" />
      <path d="M 3.282569,-1.303971 Q 3.361259,-1.474426 3.455032,-1.63905" />
      <line x1="3.455032" y1="-2.138008" x2="3.455032" y2="-1.63905" />
      <line x1="5.433895" y1="-2.140642" x2="5.433895" y2="-1.641685" />
      <path d="M 5.433895,-1.641685 C 5.488175,-1.598273 5.635078,-1.51083 5.702716,-1.568383" />
      <line x1="5.702716" y1="-2.067341" x2="5.702716" y2="-1.568383" />
      <path d="M 3.455032,-1.63905 C 3.786018,-1.740731 4.099386,-1.804096 4.461095,-1.817205 C 4.813663,-1.831054 5.213739,-1.77436 5.433895,-1.641685" />
      <line x1="8.533133" y1="3.470947" x2="8.442744" y2="2.17337" />
      <path d="M 6.995802,1.740488 C 7.18641,1.88735 7.418602,2.006915 7.669595,2.081643 C 7.920329,2.157017 8.188185,2.187051 8.442744,2.17337" />
      <path d="M 6.825363,-0.706247 C 6.655899,-0.541062 6.517932,-0.339838 6.431705,-0.122321 C 6.34473,0.094972 6.310073,0.327104 6.325861,0.547711" />
      <path d="M 8.201708,-1.286836 C 7.947098,-1.27388 7.685357,-1.216138 7.446906,-1.115171 C 7.208109,-1.014819 6.9942,-0.871915 6.825363,-0.706247" />
      <path d="M 8.442744,2.17337 C 8.697354,2.160413 8.959096,2.102672 9.197547,2.001704 C 9.436343,1.901353 9.650252,1.758449 9.819089,1.592781" />
      <path d="M 9.64865,-0.853954 C 9.458043,-1.000816 9.225851,-1.120382 8.974858,-1.195109 C 8.724123,-1.270484 8.456267,-1.300518 8.201708,-1.286836" />
      <path d="M 9.819089,1.592781 C 9.988554,1.427595 10.12652,1.226371 10.212748,1.008855 C 10.299723,0.791561 10.334379,0.55943 10.318592,0.338822" />
      <path d="M 10.318592,0.338822 C 10.303641,0.118171 10.237014,-0.108661 10.120507,-0.315309 C 10.004711,-0.522257 9.839814,-0.707635 9.64865,-0.853954" />
      <line x1="5.702716" y1="-1.568383" x2="6.825363" y2="-0.706247" />
      <path d="M 8.663409,3.687512 C 8.660448,3.623553 8.627919,3.471699 8.533133,3.470947" />
      <path d="M 10.941736,2.454917 Q 10.738867,2.653244 10.499452,2.818153" />
      <path d="M 10.499452,2.818153 Q 10.473308,2.839939 10.474207,2.873142" />
      <path d="M 10.474207,2.873142 C 10.474387,2.936115 10.53423,3.017766 10.569478,3.05472" />
      <line x1="10.569478" y1="2.768647" x2="10.569478" y2="3.05472" />
      <path d="M 10.569478,3.05472 C 10.678044,3.207322 10.731852,3.456128 10.730551,3.699136" />
      <path d="M 10.730551,3.699136 C 10.728464,3.892736 10.70309,4.077771 10.654429,4.254241 C 10.60718,4.430351 10.543745,4.593566 10.460178,4.767039" />
      <path d="M 10.460178,4.767039 Q 10.265456,4.839348 10.064826,4.898291" />
      <path d="M 10.064826,4.898291 C 9.747819,4.767363 9.474533,4.620138 9.208071,4.407752 C 8.947468,4.201493 8.710829,3.916238 8.663409,3.687512" />
      <path d="M 5.702716,-1.568383 Q 5.905586,-1.766711 6.145,-1.931619" />
      <line x1="6.145" y1="-2.070529" x2="6.145" y2="-1.931619" />
      <path d="M 6.145,-1.931619 Q 6.171144,-1.953406 6.170246,-1.986608" />
      <path d="M 6.170246,-1.986608 C 6.170065,-2.049582 6.110223,-2.131232 6.074975,-2.168186" />
      <path d="M 6.074975,-2.168186 C 5.966408,-2.320788 5.9126,-2.569594 5.913902,-2.812603" />
      <path d="M 5.913902,-2.812603 C 5.915988,-3.006203 5.941362,-3.191238 5.990024,-3.367707 C 6.037272,-3.543818 6.100707,-3.707033 6.184275,-3.880505" />
      <line x1="6.184275" y1="-4.379463" x2="6.184275" y2="-3.880505" />
      <path d="M 6.184275,-3.880505 Q 6.378996,-3.952814 6.579626,-4.011757" />
      <line x1="6.579626" y1="-4.510715" x2="6.579626" y2="-4.011757" />
      <line x1="7.981043" y1="-3.299936" x2="7.981043" y2="-2.800978" />
      <path d="M 7.981043,-2.800978 C 7.984004,-2.737019 8.016533,-2.585165 8.111319,-2.584413" />
      <line x1="8.111319" y1="-3.083371" x2="8.111319" y2="-2.584413" />
      <path d="M 6.579626,-4.011757 C 6.896633,-3.880829 7.169919,-3.733604 7.436381,-3.521219 C 7.696984,-3.314959 7.933623,-3.029705 7.981043,-2.800978" />
      <path d="M 8.111319,-2.584413 Q 8.416591,-2.600334 8.720436,-2.57023" />
      <line x1="8.720436" y1="-3.069187" x2="8.720436" y2="-2.57023" />
      <path d="M 8.720436,-2.57023 C 8.815132,-2.56657 8.857024,-2.71669 8.863944,-2.780419" />
      <line x1="8.863944" y1="-3.279377" x2="8.863944" y2="-2.780419" />
      <path d="M 8.863944,-2.780419 C 8.925468,-3.006609 9.179441,-3.280439 9.452449,-3.474273 C 9.731687,-3.673952 10.013701,-3.808246 10.338363,-3.924233" />
      <line x1="10.338363" y1="-4.423191" x2="10.338363" y2="-3.924233" />
      <path d="M 10.338363,-3.924233 Q 10.535052,-3.856038 10.725012,-3.774771" />
      <line x1="10.725012" y1="-4.273729" x2="10.725012" y2="-3.774771" />
      <path d="M 10.728051,-2.059837 C 10.68943,-2.023508 10.6217,-1.94091 10.621486,-1.877217" />
      <path d="M 10.621486,-1.877217 Q 10.620775,-1.847685 10.643469,-1.82687" />
      <line x1="10.643469" y1="-1.950322" x2="10.643469" y2="-1.82687" />
      <path d="M 10.725012,-3.774771 Q 10.822192,-3.54106 10.875375,-3.308863 Q 10.930508,-3.072595 10.932474,-2.815199" />
      <path d="M 10.932474,-2.815199 C 10.934598,-2.534755 10.866038,-2.231901 10.728051,-2.059837" />
      <path d="M 11.815866,0.260489 Q 11.822223,0.351716 11.822226,0.443267" />
      <path d="M 11.822226,0.443267 Q 11.822206,0.616526 11.799499,0.788366" />
      <path d="M 11.799499,0.788366 L 11.799394,0.791783" />
      <path d="M 11.799394,0.791783 C 11.800178,0.871464 11.969498,0.90681 12.042037,0.912733" />
      <line x1="12.042037" y1="0.413776" x2="12.042037" y2="0.912733" />
      <path d="M 12.042037,0.912733 C 12.303038,0.966052 12.61901,1.186152 12.842675,1.422747 C 13.073084,1.664743 13.228047,1.909143 13.361883,2.190504" />
      <line x1="13.361883" y1="1.691546" x2="13.361883" y2="2.190504" />
      <path d="M 13.361883,2.190504 Q 13.283194,2.360959 13.18942,2.525584" />
      <path d="M 11.210557,2.528218 C 11.156278,2.484807 11.009374,2.397364 10.941736,2.454917" />
      <path d="M 13.18942,2.525584 C 12.858434,2.627265 12.545067,2.69063 12.183357,2.703738 C 11.83079,2.717587 11.430713,2.660894 11.210557,2.528218" />
      <path d="M 10.643469,-1.82687 Q 10.872319,-1.651057 11.062607,-1.443575" />
      <line x1="11.062607" y1="-1.942533" x2="11.062607" y2="-1.443575" />
      <path d="M 11.062607,-1.443575 C 11.126581,-1.382957 11.278691,-1.463438 11.335582,-1.50426" />
      <line x1="11.335582" y1="-2.003218" x2="11.335582" y2="-1.50426" />
      <path d="M 11.335582,-1.50426 C 11.563641,-1.626499 11.966654,-1.664492 12.317854,-1.634255 C 12.678229,-1.604333 12.987218,-1.526476 13.311426,-1.409538" />
      <line x1="13.311426" y1="-1.908496" x2="13.311426" y2="-1.409538" />
      <path d="M 13.311426,-1.409538 Q 13.394864,-1.240787 13.462878,-1.066916" />
      <line x1="13.462878" y1="-1.565874" x2="13.462878" y2="-1.066916" />
      <path d="M 12.06576,0.147589 C 11.991958,0.150155 11.816734,0.178345 11.815866,0.260489" />
      <path d="M 13.462878,-1.066916 C 13.3118,-0.79219 13.141917,-0.555353 12.896846,-0.32443 C 12.658842,-0.098584 12.329688,0.106493 12.06576,0.147589" />
      <line x1="10.941736" y1="2.454917" x2="9.819089" y2="1.592781" />
      <line x1="8.111319" y1="-2.584413" x2="8.201708" y2="-1.286836" />
      <line x1="10.643469" y1="-1.82687" x2="9.64865" y2="-0.853954" />
      <line x1="11.815866" y1="0.260489" x2="10.318592" y2="0.338822" />
      <path d="M -7.400188,-3.734875 L -7.400188,-3.235917" />
      <path d="M -6.971244,-0.186164 L -6.971244,0.021949" />
      <path d="M -11.940355,-3.734117 L -11.940355,-3.235159" />
      <path d="M -7.602132,2.7801 L -7.602132,3.279058" />
      <path d="M -12.142299,2.780858 L -12.142299,3.279816" />
      <path d="M -12.571244,-0.373267 L -12.571244,0.021949" />
      <path d="M 3.011835,-3.537259 L 3.011835,-3.038302" />
      <path d="M 2.810046,2.976493 L 2.810046,3.475451" />
      <path d="M -2.005936,-3.539027 L -2.005936,-3.040069" />
      <path d="M 0.059604,-3.540173 L 0.059604,-3.041215" />
      <path d="M -0.142829,3.159337 L -0.142829,3.488991" />
      <path d="M -2.208369,3.095058 L -2.208369,3.490138" />
      <path d="M -5.1606,2.988266 L -5.1606,3.487224" />
      <path d="M -4.958811,-3.525486 L -4.958811,-3.026528" />
      <path d="M 5.711978,3.202775 L 5.711978,3.701733" />
      <path d="M 4.822226,0.047719 L 4.822226,0.443267" />
      <path d="M 10.730551,3.200178 L 10.730551,3.699136" />
      <path d="M 5.913902,-3.31156 L 5.913902,-2.812603" />
      <path d="M 10.932474,-3.314157 L 10.932474,-2.815199" />
      <path d="M 11.822226,0.234839 L 11.822226,0.443267" />
    </g>
  </g>
</svg>