<?xml version='1.0' encoding='utf-8'?>
<svg width="100.090001mm" height="84.117824mm" viewBox="-17.792286 -15.087774 31.668878 26.615217" version="1.1" xmlns="http://www.w3.org/2000/svg">
  <g transform="scale(1,-1)" stroke-linecap="round">
    <g fill="none" stroke="rgb(0,0,0)" stroke-width="0.02847636112242781" id="Visible">
      <path d="M 6.398744,4.173207 Q 6.535925,4.144245 6.667685,4.136163" />
      <path d="M 8.329782,4.712759 L 8.329742,4.712738" />
      <path d="M 6.776659,4.025745 C 6.808395,3.954665 6.827095,3.865052 6.836067,3.778662" />
      <path d="M 7.539463,3.654952 L 7.539332,3.654926" />
      <path d="M 6.912928,3.242581 C 6.982021,3.021484 7.081865,2.801643 7.175499,2.626474" />
      <path d="M 7.606371,2.591296 Q 7.400196,2.604814 7.175499,2.626474" />
      <path d="M 7.439636,2.690684 Q 7.311666,2.649425 7.175499,2.626474" />
      <path d="M 7.656883,2.662078 Q 7.550216,2.675777 7.439636,2.690684" />
      <path d="M 7.439636,2.690684 C 7.527668,3.001953 7.579825,3.412767 7.531086,3.71615" />
      <path d="M 8.176675,3.714941 Q 7.865752,3.712844 7.531086,3.71615" />
      <path d="M 7.531086,3.71615 C 7.49155,3.828587 7.463404,3.945015 7.446648,4.065434 C 7.431322,4.184329 7.440513,4.306276 7.489161,4.335859" />
      <path d="M 7.844356,4.361059 Q 7.669475,4.34814 7.489161,4.335859" />
      <path d="M 7.489161,4.335859 Q 7.588532,4.400127 7.675399,4.483553" />
      <path d="M 7.741052,4.486567 L 7.675399,4.483553" />
      <path d="M 7.675399,4.483553 Q 7.686345,4.494124 7.699508,4.49646" />
      <path d="M 7.778533,4.455376 C 7.820189,4.410856 7.858916,4.340174 7.890171,4.266117" />
      <path d="M 8.519232,4.026227 L 8.519201,4.026228" />
      <path d="M 8.092167,3.82797 Q 8.179243,3.70325 8.272089,3.605501" />
      <path d="M 11.616981,2.700804 C 10.770302,2.907661 9.691979,3.214593 8.418077,3.466629" />
      <path d="M 11.616981,2.700804 Q 11.795455,2.769047 11.960158,2.862754" />
      <path d="M 8.557271,3.722279 Q 8.494245,3.587261 8.418077,3.466629" />
      <path d="M 11.960158,2.862754 C 11.038639,3.127757 9.889593,3.465059 8.557271,3.722279" />
      <path d="M 11.960158,2.862754 C 12.044813,3.328536 12.069036,3.930442 11.970301,4.35329" />
      <path d="M 8.557271,3.722279 C 8.528079,4.064525 8.442529,4.479336 8.32418,4.724503" />
      <path d="M 11.970301,4.35329 C 10.920205,4.48328 9.692372,4.648532 8.32418,4.724503" />
      <path d="M 11.970301,4.35329 Q 11.906637,4.505148 11.859348,4.666325" />
      <path d="M 8.32418,4.724503 C 8.26847,4.798198 8.217066,4.885685 8.169968,4.986965 C 8.124272,5.087774 8.090742,5.211582 8.1083,5.278632" />
      <path d="M 8.601641,5.288931 Q 8.357571,5.285586 8.1083,5.278632" />
      <path d="M 8.1083,5.278632 Q 8.143234,5.418909 8.161932,5.57149" />
      <path d="M 8.310119,5.576591 L 8.161932,5.57149" />
      <path d="M 8.225635,5.629638 C 8.262021,5.621267 8.30519,5.58543 8.345181,5.540546" />
      <path d="M 8.583782,5.297736 Q 8.662385,5.258079 8.732346,5.252175" />
      <path d="M 8.732346,5.252175 L 8.734837,5.251946" />
      <path d="M 13.148601,4.27082 Q 12.173515,4.604856 11.072629,4.866489" />
      <path d="M 11.072629,4.866489 Q 10.001868,5.120779 8.839039,5.26087" />
      <path d="M 13.148601,4.27082 Q 13.231851,4.470888 13.295322,4.689303" />
      <path d="M 8.815995,5.639457 Q 8.8348,5.446859 8.839039,5.26087" />
      <path d="M 13.295322,4.689303 C 11.943474,5.134744 10.424364,5.490359 8.815995,5.639457" />
      <path d="M 13.295322,4.689303 C 13.218524,5.172536 13.058067,5.746291 12.875246,6.064439" />
      <path d="M 8.815995,5.639457 C 8.699181,5.933634 8.524777,6.256362 8.387691,6.388755" />
      <path d="M 12.875246,6.064439 C 11.478452,6.298618 9.962265,6.436798 8.387691,6.388755" />
      <path d="M 12.875246,6.064439 C 12.795349,6.156418 12.717113,6.259918 12.643797,6.396551 C 12.571834,6.529301 12.512,6.700552 12.525046,6.805778" />
      <path d="M 8.387691,6.388755 C 8.338585,6.408524 8.285045,6.447899 8.22707,6.506879 C 8.17002,6.566527 8.108656,6.662451 8.090262,6.748911" />
      <path d="M 12.525046,6.805778 C 11.123181,6.904643 9.628522,6.910871 8.090262,6.748911" />
      <path d="M 12.525046,6.805778 Q 12.541621,6.950485 12.547927,7.101834" />
      <path d="M 8.090262,6.748911 Q 8.0514,6.92761 7.996918,7.108461" />
      <path d="M 10.237766,7.292125 Q 9.130631,7.258073 7.996918,7.108461" />
      <path d="M 7.996918,7.108461 C 7.96693,7.206832 7.998249,7.258929 8.044118,7.262351" />
      <path d="M 8.044118,7.262351 Q 8.060723,7.264301 8.079176,7.260466" />
      <path d="M 13.157196,7.0032 C 13.268621,6.983379 13.367026,7.014314 13.435228,7.069993" />
      <path d="M 8.214075,7.225752 C 8.289934,7.25922 8.326705,7.390157 8.325591,7.528431" />
      <path d="M 13.435228,7.069993 C 11.783661,7.45056 10.052112,7.6254 8.325591,7.528431" />
      <path d="M 13.435228,7.069993 Q 13.400947,7.348277 13.346179,7.632876" />
      <path d="M 8.146482,7.928514 Q 8.24208,7.729942 8.325591,7.528431" />
      <path d="M 13.346179,7.632876 C 11.643678,7.975205 9.882498,8.091687 8.146482,7.928514" />
      <path d="M 13.346179,7.632876 C 13.159658,8.022181 12.894602,8.435599 12.704088,8.579725" />
      <path d="M 8.146482,7.928514 C 7.995126,8.108453 7.80453,8.267692 7.704601,8.262972" />
      <path d="M 12.704088,8.579725 Q 12.234718,8.609677 11.763253,8.618055" />
      <path d="M 11.763253,8.618055 C 10.408675,8.641958 9.044911,8.530004 7.704601,8.262972" />
      <path d="M 12.704088,8.579725 C 12.639802,8.592782 12.56914,8.622629 12.486279,8.693467 C 12.405473,8.761581 12.312725,8.884049 12.27473,9.00951" />
      <path d="M 7.667834,8.228167 Q 7.656192,8.221501 7.642179,8.218407" />
      <path d="M 7.642179,8.218407 C 7.594913,8.20469 7.506407,8.242652 7.439882,8.352735" />
      <path d="M 12.27473,9.00951 C 10.657409,8.977107 9.030159,8.767428 7.439882,8.352735" />
      <path d="M 12.27473,9.00951 Q 12.195291,9.268259 12.094645,9.526365" />
      <path d="M 7.439882,8.352735 Q 7.337635,8.521974 7.224573,8.682636" />
      <path d="M 12.094645,9.526365 C 10.446599,9.440417 8.808722,9.164578 7.224573,8.682636" />
      <path d="M 12.094645,9.526365 C 12.048112,9.644517 12.061142,9.733331 12.101495,9.769014" />
      <path d="M 7.224573,8.682636 C 7.169382,8.760546 7.147255,8.851118 7.151841,8.908661 C 7.157782,8.96591 7.176504,9.004312 7.208005,9.023866" />
      <path d="M 12.288733,9.771816 Q 10.588646,9.755166 8.937561,9.442399" />
      <path d="M 8.937561,9.442399 Q 8.061036,9.275841 7.208005,9.023866" />
      <path d="M 12.303033,9.777563 C 12.416821,9.834216 12.440055,10.092922 12.400062,10.348285" />
      <path d="M 7.208005,9.023866 C 7.230796,9.146779 7.136781,9.423629 7.015309,9.661721" />
      <path d="M 12.400062,10.348285 C 10.536144,10.409305 8.719132,10.178204 7.015309,9.661721" />
      <path d="M 12.400062,10.348285 Q 12.257435,10.630221 12.099103,10.904745" />
      <path d="M 6.728128,9.976098 Q 6.874903,9.824759 7.015309,9.661721" />
      <path d="M 12.099103,10.904745 C 10.219581,10.888042 8.409186,10.572019 6.728128,9.976098" />
      <path d="M 12.099103,10.904745 C 11.902261,11.095974 11.667834,11.248871 11.536585,11.234165" />
      <path d="M 6.728128,9.976098 Q 6.631911,9.999661 6.553595,9.970607" />
      <path d="M 6.553595,9.970607 Q 6.5276,9.960229 6.507166,9.942463" />
      <path d="M 11.211519,11.193437 Q 11.184181,11.221247 11.158652,11.256976" />
      <path d="M 6.474464,9.71924 Q 6.474166,9.650892 6.434081,9.627238" />
      <path d="M 6.434081,9.627238 Q 6.396765,9.608892 6.331427,9.660361" />
      <path d="M 11.158652,11.256976 Q 10.536466,11.136742 9.929033,10.978962" />
      <path d="M 6.474558,9.728598 L 6.331427,9.660361" />
      <path d="M 11.158652,11.256976 Q 10.995947,11.485796 10.820105,11.699051" />
      <path d="M 6.331427,9.660361 Q 6.193194,9.774792 6.051846,9.872216" />
      <path d="M 10.820105,11.699051 C 9.127362,11.290986 7.532092,10.670856 6.051846,9.872216" />
      <path d="M 10.820105,11.699051 C 10.734455,11.802206 10.686913,11.939127 10.679564,12.03401 C 10.67116,12.131917 10.69098,12.196074 10.721853,12.244796" />
      <path d="M 6.051846,9.872216 C 5.983433,9.918762 5.91642,10.019541 5.878644,10.105188 C 5.841687,10.191664 5.819841,10.267797 5.813107,10.333588" />
      <path d="M 10.721853,12.244796 C 8.95767,11.838707 7.314409,11.185777 5.813107,10.333588" />
      <path d="M 10.721853,12.244796 C 10.720316,12.455765 10.534346,12.876276 10.320473,13.227282" />
      <path d="M 5.813107,10.333588 C 5.729775,10.538923 5.489992,10.85082 5.259283,11.089126" />
      <path d="M 10.320473,13.227282 C 8.461089,12.788211 6.76643,12.050931 5.259283,11.089126" />
      <path d="M 10.320473,13.227282 Q 10.107717,13.437324 9.888247,13.628216" />
      <path d="M 4.940979,11.233561 Q 5.099604,11.170006 5.259283,11.089126" />
      <path d="M 9.888247,13.628216 Q 9.172629,13.419104 8.494228,13.153308" />
      <path d="M 8.494228,13.153308 C 7.206443,12.649409 6.020211,11.998227 4.940979,11.233561" />
      <path d="M 9.888247,13.628216 Q 9.8445,13.625602 9.803049,13.612746" />
      <path d="M 4.914434,11.105627 Q 4.905437,11.016082 4.923288,10.906422" />
      <path d="M 5.355124,10.986425 L 5.354974,10.986317" />
      <path d="M 5.079691,10.543998 C 5.109102,10.482542 5.129747,10.420603 5.128118,10.375717" />
      <path d="M 5.108559,10.327907 Q 5.092012,10.315235 5.061908,10.321412" />
      <path d="M 5.127907,10.371943 L 5.061908,10.321412" />
      <path d="M 5.061908,10.321412 Q 4.924727,10.350374 4.792967,10.358455" />
      <path d="M 5.061087,10.580702 L 4.792967,10.358455" />
      <path d="M 8.928624,13.317308 C 8.853567,13.404822 8.791902,13.510671 8.748735,13.604139 C 8.706612,13.697447 8.675657,13.784698 8.655869,13.865892" />
      <path d="M 4.792967,10.358455 C 4.729822,10.361256 4.629976,10.441808 4.553187,10.528674 C 4.47639,10.617228 4.412482,10.706423 4.361465,10.79626" />
      <path d="M 8.655869,13.865892 C 7.040301,13.010402 5.616879,11.958003 4.361465,10.79626" />
      <path d="M 8.655869,13.865892 C 8.499806,14.174329 8.113604,14.611324 7.753686,14.935558" />
      <path d="M 4.361465,10.79626 C 4.175179,11.017861 3.827948,11.266166 3.528039,11.428176" />
      <path d="M 7.753686,14.935558 C 6.114505,13.949852 4.71723,12.741786 3.528039,11.428176" />
      <path d="M 7.753686,14.935558 Q 7.527809,15.017426 7.306007,15.073536" />
      <path d="M 3.263902,11.363966 Q 3.391872,11.405225 3.528039,11.428176" />
      <path d="M 7.306007,15.073536 C 5.723837,13.998611 4.391118,12.721784 3.263902,11.363966" />
      <path d="M 3.351201,11.145388 Q 3.414649,11.003663 3.502836,10.859839" />
      <path d="M 3.83889,10.473576 C 3.89617,10.411978 3.948197,10.343605 3.975985,10.281721" />
      <path d="M 3.98324,10.169196 L 3.981615,10.167287" />
      <path d="M 3.988986,10.178295 L 3.971491,10.15876" />
      <path d="M 3.971491,10.15876 Q 3.872121,10.094492 3.785254,10.011065" />
      <path d="M 3.987472,10.251692 L 3.785254,10.011065" />
      <path d="M 3.785254,10.011065 C 3.744451,9.969462 3.632625,10.004774 3.530625,10.065647 C 3.427721,10.128574 3.331528,10.202661 3.242046,10.287908" />
      <path d="M 3.579466,10.744859 Q 3.407818,10.516343 3.242046,10.287908" />
      <path d="M 6.401898,14.417411 C 6.105689,14.650799 5.725681,14.86737 5.38747,15.015382" />
      <path d="M 3.242046,10.287908 C 2.983559,10.455264 2.59599,10.558374 2.285461,10.588021" />
      <path d="M 5.38747,15.015382 C 4.125158,13.582965 3.120615,12.065655 2.285461,10.588021" />
      <path d="M 5.38747,15.015382 Q 5.208995,14.94714 5.044293,14.853433" />
      <path d="M 2.146266,10.332372 Q 2.177491,10.399269 2.211997,10.462725" />
      <path d="M 2.211997,10.462725 Q 2.247085,10.527249 2.285461,10.588021" />
      <path d="M 5.044293,14.853433 C 3.991483,13.531903 3.138057,12.165476 2.416718,10.839161" />
      <path d="M 2.344979,10.0939 Q 2.476932,9.945563 2.624463,9.813457" />
      <path d="M 3.27178,10.260798 L 3.271745,10.260742" />
      <path d="M 3.084532,9.526844 C 3.159503,9.484614 3.234179,9.431155 3.287966,9.371194" />
      <path d="M 3.352353,9.215987 Q 3.317418,9.075709 3.298721,8.923129" />
      <path d="M 4.447774,10.661877 L 4.447745,10.661835" />
      <path d="M 3.28663,8.888624 C 3.252697,8.835181 3.154593,8.82708 3.056434,8.84435 C 2.957243,8.863164 2.856697,8.896629 2.754798,8.944746" />
      <path d="M 3.07403,9.532681 Q 2.911544,9.23497 2.754798,8.944746" />
      <path d="M 4.003577,13.444731 Q 3.928145,13.446784 3.85585,13.445366" />
      <path d="M 2.754798,8.944746 C 2.474209,9.001878 2.124222,8.917098 1.864498,8.79378" />
      <path d="M 3.85585,13.445366 Q 3.642267,13.017762 3.446132,12.597722" />
      <path d="M 2.362894,10.074029 Q 2.100803,9.413547 1.864498,8.79378" />
      <path d="M 1.887543,8.415193 Q 1.868738,8.607791 1.864498,8.79378" />
      <path d="M 2.053354,8.870519 L 2.053335,8.870466" />
      <path d="M 2.165441,8.232871 Q 2.343576,8.125283 2.523524,8.047649" />
      <path d="M 3.257919,8.861167 L 3.257899,8.861125" />
      <path d="M 3.018747,7.957478 Q 3.139716,7.946121 3.248217,7.888222" />
      <path d="M 3.37039,7.745708 Q 3.409253,7.567009 3.463734,7.386158" />
      <path d="M 3.417899,7.234769 Q 3.347021,7.17232 3.243012,7.148964 Q 3.143432,7.125768 3.030278,7.126673" />
      <path d="M 3.351529,7.793123 Q 3.190828,7.448936 3.030278,7.126673" />
      <path d="M 3.030278,7.126673 C 2.860226,7.07231 2.68876,6.926773 2.54783,6.759133" />
      <path d="M 2.817862,7.956263 Q 2.598932,7.18468 2.377947,6.526219" />
      <path d="M 2.557056,6.126136 Q 2.461458,6.324708 2.377947,6.526219" />
      <path d="M 2.848366,7.036278 L 2.848362,7.036266" />
      <path d="M 2.860523,6.06106 Q 3.050208,6.030601 3.22704,6.035554" />
      <path d="M 3.498076,6.081734 C 3.580065,6.148442 3.665109,6.199812 3.764564,6.222405 C 3.861462,6.245344 3.972366,6.225175 4.020771,6.141884" />
      <path d="M 4.020771,6.141884 Q 4.123017,5.972645 4.23608,5.811983" />
      <path d="M 4.259104,5.630479 Q 4.236271,5.553019 4.185926,5.488778" />
      <path d="M 4.185926,5.488778 L 4.145209,5.441259" />
      <path d="M 4.265372,5.742373 Q 4.134065,5.521775 3.994671,5.32084" />
      <path d="M 3.961425,5.275973 C 3.863726,5.132707 3.791164,4.922911 3.742981,4.708926" />
      <path d="M 4.245324,5.797454 L 4.234544,5.759824" />
      <path d="M 3.97541,4.078552 Q 3.828635,4.229891 3.688229,4.392929" />
      <path d="M 3.97541,4.078552 C 4.225953,4.135087 4.502893,4.251493 4.677014,4.422655" />
      <path d="M 4.677014,4.422655 Q 4.714651,4.459678 4.744733,4.499748" />
      <path d="M 4.745417,4.5004 L 4.744733,4.499748" />
      <path d="M 4.744733,4.499748 C 4.790817,4.620797 4.846946,4.72953 4.929826,4.80464" />
      <path d="M 5.129225,4.834258 Q 5.267459,4.719826 5.408807,4.622402" />
      <path d="M 5.488459,4.455864 C 5.497748,4.37493 5.486203,4.287373 5.465315,4.208794" />
      <path d="M 5.362039,3.698422 Q 5.363014,3.498799 5.39005,3.291994" />
      <path d="M 6.196739,3.531828 L 6.196525,3.531565" />
      <path d="M 5.762559,2.82109 Q 5.603934,2.884644 5.444255,2.965524" />
      <path d="M 5.819735,2.838671 L 5.762559,2.82109" />
      <path d="M 5.762559,2.82109 C 5.966007,3.030633 6.167825,3.34244 6.220918,3.633884" />
      <path d="M 6.385454,3.683269 L 6.220918,3.633884" />
      <path d="M 6.220918,3.633884 C 6.216813,3.747926 6.224525,3.856362 6.244051,3.959193 C 6.264549,4.060515 6.306437,4.154257 6.364049,4.171756" />
      <path d="M 7.675399,4.483553 C 7.878185,4.677726 8.027145,4.95131 8.1083,5.278632" />
      <path d="M 8.161932,5.57149 C 8.205834,5.92704 8.181173,6.332187 8.090262,6.748911" />
      <path d="M 7.996918,7.108461 C 7.870173,7.53012 7.678499,7.958271 7.439882,8.352735" />
      <path d="M 7.224573,8.682636 C 6.961142,9.05742 6.653813,9.393853 6.331427,9.660361" />
      <path d="M 6.051846,9.872216 C 5.722314,10.099703 5.38168,10.25427 5.061908,10.321412" />
      <path d="M 4.792967,10.358455 C 4.485634,10.37769 4.202966,10.308975 3.971491,10.15876" />
      <path d="M 3.785254,10.011065 C 3.582467,9.816893 3.433507,9.543309 3.352353,9.215987" />
      <path d="M 3.298721,8.923129 C 3.254818,8.567579 3.27948,8.162431 3.37039,7.745708" />
      <path d="M 3.463734,7.386158 C 3.59048,6.964499 3.782154,6.536348 4.020771,6.141884" />
      <path d="M 4.23608,5.811983 C 4.499511,5.437198 4.80684,5.100766 5.129225,4.834258" />
      <path d="M 5.408807,4.622402 C 5.738339,4.394915 6.078973,4.240348 6.398744,4.173207" />
      <path d="M 6.667685,4.136163 C 6.973712,4.116674 7.258943,4.186012 7.489161,4.335859" />
      <path d="M 6.841212,3.548446 C 6.846912,3.649965 6.842018,3.750381 6.826532,3.849695 C 6.81534,3.92095 6.795986,3.985362 6.768471,4.042932 C 6.74192,4.096247 6.705378,4.134656 6.667685,4.136163" />
      <path d="M 7.489161,4.335859 C 7.428943,4.296569 7.432104,4.13429 7.455875,4.003159 C 7.473878,3.904294 7.498949,3.808624 7.531086,3.71615" />
      <path d="M 7.531086,3.71615 C 7.579973,3.386334 7.526197,3.00588 7.439636,2.690684" />
      <path d="M 7.175499,2.626474 C 7.038153,2.887236 6.891449,3.218936 6.841212,3.548446" />
      <path d="M 7.960631,4.056797 C 7.934973,4.154229 7.90245,4.243815 7.863059,4.325556 C 7.810903,4.434351 7.728303,4.533969 7.675399,4.483553" />
      <path d="M 8.1083,5.278632 C 8.087245,5.19329 8.140647,5.040484 8.194566,4.935121 C 8.235335,4.855659 8.27854,4.785453 8.32418,4.724503" />
      <path d="M 8.32418,4.724503 C 8.415061,4.532727 8.479854,4.271379 8.520587,4.017601 C 8.536364,3.918325 8.548592,3.819884 8.557271,3.722279" />
      <path d="M 8.418077,3.466629 C 8.268792,3.594788 8.087391,3.788716 7.960631,4.056797" />
      <path d="M 8.447879,5.399959 C 8.404161,5.470928 8.358864,5.529249 8.311988,5.574922 C 8.249841,5.635815 8.173454,5.664027 8.161932,5.57149" />
      <path d="M 8.090262,6.748911 C 8.10103,6.69786 8.127775,6.641284 8.158179,6.594921 C 8.190568,6.546688 8.223462,6.507472 8.256859,6.477271 C 8.303597,6.435093 8.347208,6.405588 8.387691,6.388755" />
      <path d="M 8.387691,6.388755 C 8.493809,6.284058 8.609658,6.089488 8.70788,5.885302 C 8.74629,5.805211 8.782328,5.723263 8.815995,5.639457" />
      <path d="M 8.839039,5.26087 C 8.739831,5.234878 8.596353,5.253027 8.447879,5.399959" />
      <path d="M 8.172399,7.218033 C 8.128756,7.247254 8.088966,7.262253 8.053029,7.263028 C 8.005379,7.264256 7.963955,7.218315 7.996918,7.108461" />
      <path d="M 7.439882,8.352735 C 7.502031,8.250078 7.580777,8.212421 7.626062,8.216393 C 7.660375,8.219387 7.686554,8.234914 7.704601,8.262972" />
      <path d="M 7.704601,8.262972 C 7.782514,8.264686 7.901641,8.179304 8.014681,8.069918 C 8.059072,8.026776 8.103005,7.979641 8.146482,7.928514" />
      <path d="M 8.325591,7.528431 Q 8.325725,7.451153 8.312028,7.386271" />
      <path d="M 8.256028,7.258051 Q 8.223478,7.217934 8.172399,7.218033" />
      <path d="M 7.208005,9.023866 Q 7.179314,9.004217 7.163435,8.965026" />
      <path d="M 7.157052,8.838267 C 7.165635,8.791708 7.188462,8.733359 7.224573,8.682636" />
      <path d="M 6.331427,9.660361 C 6.415324,9.591081 6.462383,9.628245 6.471198,9.68649 C 6.478018,9.730442 6.473599,9.783264 6.457943,9.844958" />
      <path d="M 6.457943,9.844958 Q 6.467784,9.910005 6.506955,9.942277" />
      <path d="M 6.507166,9.942463 C 6.561444,9.989112 6.642366,9.995862 6.728128,9.976098" />
      <path d="M 7.015309,9.661721 Q 7.072821,9.547687 7.117004,9.436602" />
      <path d="M 7.196765,9.183663 Q 7.217854,9.087086 7.208005,9.023866" />
      <path d="M 5.813107,10.333588 Q 5.820516,10.271061 5.843326,10.197491" />
      <path d="M 5.927703,10.012887 C 5.961437,9.95784 6.007077,9.902536 6.051846,9.872216" />
      <path d="M 5.061908,10.321412 C 5.10584,10.311484 5.127084,10.336442 5.128118,10.375717" />
      <path d="M 5.079691,10.543998 Q 5.040228,10.625126 4.981759,10.710822" />
      <path d="M 4.981759,10.710822 Q 4.937654,10.814931 4.923288,10.906422" />
      <path d="M 4.914434,11.105627 Q 4.921171,11.178127 4.940979,11.233561" />
      <path d="M 5.259283,11.089126 Q 5.369068,10.974879 5.469948,10.853546" />
      <path d="M 5.689793,10.558598 Q 5.769352,10.437532 5.813107,10.333588" />
      <path d="M 4.361465,10.79626 C 4.403694,10.722593 4.454438,10.648821 4.513695,10.574943 C 4.556266,10.521923 4.603332,10.473614 4.654892,10.430017 C 4.703726,10.389651 4.755598,10.360151 4.792967,10.358455" />
      <path d="M 3.971491,10.15876 C 4.031597,10.197984 3.96674,10.324412 3.884554,10.421596 C 3.822718,10.49499 3.751731,10.563977 3.671591,10.628556" />
      <path d="M 3.671591,10.628556 Q 3.575932,10.739655 3.502836,10.859839" />
      <path d="M 3.351201,11.145388 Q 3.299302,11.259977 3.263902,11.363966" />
      <path d="M 3.528039,11.428176 Q 3.670987,11.350315 3.81219,11.257437" />
      <path d="M 4.138912,11.014445 Q 4.266102,10.907421 4.361465,10.79626" />
      <path d="M 3.242046,10.287908 C 3.315632,10.218329 3.394006,10.155387 3.477168,10.099082 C 3.587813,10.024276 3.732232,9.960582 3.785254,10.011065" />
      <path d="M 3.352353,9.215987 C 3.363083,9.255867 3.340191,9.308489 3.300653,9.35635 C 3.257814,9.406581 3.206217,9.451009 3.145863,9.489634 C 3.061262,9.543625 2.97214,9.587147 2.878497,9.620203" />
      <path d="M 2.878497,9.620203 Q 2.747185,9.702871 2.624463,9.813457" />
      <path d="M 2.344979,10.0939 Q 2.237694,10.21368 2.146266,10.332372" />
      <path d="M 2.285461,10.588021 Q 2.433579,10.5734 2.587926,10.540054" />
      <path d="M 2.959681,10.429062 Q 3.110899,10.370847 3.242046,10.287908" />
      <path d="M 2.754798,8.944746 Q 2.859827,8.895976 2.963459,8.865738" />
      <path d="M 3.180351,8.837911 C 3.242869,8.843536 3.293368,8.87139 3.298721,8.923129" />
      <path d="M 3.37039,7.745708 C 3.358895,7.802419 3.308703,7.85412 3.248412,7.888111" />
      <path d="M 3.018747,7.957478 Q 2.91632,7.967909 2.814986,7.955951" />
      <path d="M 2.814986,7.955951 Q 2.673471,7.982382 2.523524,8.047649" />
      <path d="M 2.165441,8.232871 Q 2.020832,8.31957 1.887543,8.415193" />
      <path d="M 1.864498,8.79378 Q 1.988409,8.852311 2.125208,8.89363" />
      <path d="M 2.468081,8.959307 Q 2.613283,8.971586 2.754798,8.944746" />
      <path d="M 3.030278,7.126673 Q 3.156099,7.125124 3.267249,7.155423" />
      <path d="M 3.270241,7.156298 L 3.27112,7.156559" />
      <path d="M 3.27346,7.15726 L 3.274898,7.157696" />
      <path d="M 3.276669,7.15824 C 3.338208,7.175893 3.389059,7.205292 3.429222,7.246439 C 3.463482,7.283864 3.480024,7.334411 3.463734,7.386158" />
      <path d="M 4.020771,6.141884 Q 3.980009,6.205559 3.906864,6.223232" />
      <path d="M 3.498076,6.081734 Q 3.374534,6.039184 3.22704,6.035554" />
      <path d="M 2.860523,6.06106 Q 2.706743,6.085228 2.557056,6.126136" />
      <path d="M 2.377947,6.526219 C 2.496356,6.712686 2.645093,6.890035 2.81741,7.014894 C 2.884892,7.064322 2.955848,7.101582 3.030278,7.126673" />
      <path d="M 3.994671,5.32084 C 4.068054,5.365316 4.131383,5.420733 4.184658,5.487092 C 4.222813,5.534779 4.249063,5.588526 4.263408,5.648333 C 4.275725,5.705032 4.268974,5.766381 4.23608,5.811983" />
      <path d="M 5.129225,4.834258 C 5.045217,4.903472 4.936462,4.830456 4.869231,4.738265 C 4.818579,4.668842 4.77708,4.589336 4.744733,4.499748" />
      <path d="M 4.744733,4.499748 C 4.567253,4.273585 4.26287,4.146555 3.97541,4.078552" />
      <path d="M 3.688229,4.392929 C 3.718774,4.636029 3.774756,4.887553 3.866502,5.100292 C 3.902235,5.184147 3.944958,5.257663 3.994671,5.32084" />
      <path d="M 5.38957,4.011118 C 5.431521,4.093253 5.461712,4.181163 5.480144,4.274847 C 5.493284,4.342108 5.495122,4.409081 5.485658,4.475768 C 5.475717,4.538283 5.449536,4.595189 5.408807,4.622402" />
      <path d="M 6.398744,4.173207 C 6.315484,4.190489 6.259292,4.057414 6.238718,3.931105 C 6.223259,3.835914 6.217325,3.73684 6.220918,3.633884" />
      <path d="M 6.220918,3.633884 C 6.158707,3.319882 5.96579,3.034943 5.762559,2.82109" />
      <path d="M 5.444255,2.965524 C 5.394603,3.20933 5.35967,3.477419 5.362253,3.730327 C 5.362938,3.829788 5.372044,3.923384 5.38957,4.011118" />
      <path d="M 11.859371,4.666319 L 11.864699,4.647977" />
      <path d="M 12.02949,3.900583 Q 12.043517,3.610181 12.019288,3.32208" />
      <path d="M 12.575408,6.54524 Q 12.642239,6.381173 12.727348,6.25697" />
      <path d="M 13.04256,5.689995 Q 13.13537,5.43226 13.202468,5.150876" />
      <path d="M 12.400095,8.78248 Q 12.492422,8.674924 12.573828,8.630312" />
      <path d="M 12.905791,8.367083 Q 13.034245,8.200456 13.156201,7.990438" />
      <path d="M 13.435228,7.069993 Q 13.380558,7.025685 13.309773,7.007617" />
      <path d="M 12.101553,9.769015 C 12.064242,9.736035 12.045323,9.652082 12.094645,9.526365" />
      <path d="M 11.655827,11.214521 C 11.789761,11.165729 11.946366,11.050996 12.099103,10.904745" />
      <path d="M 12.400062,10.348285 C 12.426488,10.16989 12.425744,10.006974 12.386956,9.891729 C 12.36738,9.829841 12.334639,9.78987 12.288733,9.771816" />
      <path d="M 10.721853,12.244796 C 10.697202,12.209536 10.682636,12.160945 10.678156,12.099024 C 10.67445,12.050431 10.682488,11.991108 10.70227,11.921057 C 10.722847,11.851459 10.763596,11.766819 10.820105,11.699051" />
      <path d="M 10.320473,13.227282 C 10.462896,12.990728 10.58324,12.74991 10.657474,12.536469 C 10.69546,12.426423 10.720839,12.323547 10.721853,12.244796" />
      <path d="M 8.655869,13.865892 C 8.675092,13.786009 8.705767,13.699416 8.747895,13.606116 C 8.79066,13.5141 8.849616,13.410075 8.928512,13.317267" />
      <path d="M 7.753686,14.935558 C 7.994767,14.716331 8.225569,14.474699 8.413979,14.232483 C 8.511114,14.107184 8.596993,13.981138 8.655869,13.865892" />
      <path d="M 5.38747,15.015382 C 5.736344,14.860549 6.094568,14.658612 6.401777,14.417318" />
      <path d="M 3.85585,13.445366 L 4.003454,13.444551" />
      <path d="M 13.394874,-2.791689 Q 13.659732,-2.150709 13.862099,-1.472137" />
      <path d="M 8.56998,-2.061503 Q 8.782899,-1.620258 8.957472,-1.147436" />
      <path d="M 13.862099,-1.472137 C 12.268734,-1.502538 10.616895,-1.395099 8.957472,-1.147436" />
      <path d="M 13.846275,-1.023557 Q 13.864371,-1.247735 13.862099,-1.472137" />
      <path d="M 9.033019,-0.836592 Q 9.002303,-0.99255 8.957472,-1.147436" />
      <path d="M 13.846275,-1.023557 C 12.295923,-1.098515 10.674585,-1.037468 9.033019,-0.836592" />
      <path d="M 9.033019,-0.836592 Q 8.850529,-1.214484 8.554737,-1.641923" />
      <path d="M 8.541883,-1.659944 Q 8.527576,-1.679604 8.520688,-1.681253" />
      <path d="M 8.520688,-1.681253 Q 8.518977,-1.680978 8.519282,-1.676711" />
      <path d="M 8.526242,-1.678234 L 8.519282,-1.676711" />
      <path d="M 8.519282,-1.676711 Q 8.532712,-1.543618 8.535313,-1.410321" />
      <path d="M 8.689333,-1.440175 L 8.535313,-1.410321" />
      <path d="M 8.535313,-1.410321 C 8.536147,-1.391393 8.563879,-1.33164 8.574825,-1.308108" />
      <path d="M 8.752701,-1.340593 L 8.574825,-1.308108" />
      <path d="M 13.202943,-1.046751 Q 13.415694,-0.383352 13.556049,0.309335" />
      <path d="M 8.574825,-1.308108 C 8.780672,-0.867754 8.95419,-0.388426 9.089483,0.101667" />
      <path d="M 13.556049,0.309335 C 12.157913,0.10899 10.652527,0.03707 9.089483,0.101667" />
      <path d="M 13.378911,0.746954 Q 13.477415,0.5294 13.556049,0.309335" />
      <path d="M 9.051477,0.414644 Q 9.077586,0.258425 9.089483,0.101667" />
      <path d="M 13.378911,0.746954 C 12.038965,0.5078 10.580172,0.393867 9.051477,0.414644" />
      <path d="M 8.883477,0.147531 Q 8.779611,-0.010986 8.663061,-0.178301" />
      <path d="M 8.470726,-0.45085 C 8.46073,-0.464972 8.437722,-0.49564 8.427617,-0.494507" />
      <path d="M 8.427617,-0.494507 Q 8.424823,-0.494253 8.423595,-0.49033" />
      <path d="M 8.435109,-0.491702 L 8.423595,-0.49033" />
      <path d="M 8.423595,-0.49033 Q 8.388793,-0.35845 8.34331,-0.22759" />
      <path d="M 8.6115,-0.252097 L 8.34331,-0.22759" />
      <path d="M 8.34331,-0.22759 C 8.337583,-0.208939 8.360793,-0.146293 8.370119,-0.121609" />
      <path d="M 8.685183,-0.146412 L 8.370119,-0.121609" />
      <path d="M 12.3774,0.594377 Q 12.538234,1.296074 12.614344,2.019924" />
      <path d="M 8.370119,-0.121609 C 8.54542,0.340397 8.677918,0.83711 8.768702,1.340047" />
      <path d="M 12.614344,2.019924 C 11.468679,1.675068 10.171376,1.443929 8.768702,1.340047" />
      <path d="M 12.283145,2.428665 Q 12.458024,2.226641 12.614344,2.019924" />
      <path d="M 8.6187,1.642342 Q 8.700564,1.492257 8.768702,1.340047" />
      <path d="M 12.283145,2.428665 C 11.208463,2.052338 9.971937,1.785286 8.6187,1.642342" />
      <path d="M 8.419431,1.35436 Q 8.298638,1.18308 8.169103,1.001786" />
      <path d="M 7.959255,0.706395 C 7.948478,0.691005 7.923304,0.657295 7.908814,0.657438" />
      <path d="M 7.908814,0.657438 L 7.902378,0.661006" />
      <path d="M 7.918244,0.660774 L 7.902378,0.661006" />
      <path d="M 7.902378,0.661006 Q 7.820768,0.786272 7.729063,0.909339" />
      <path d="M 8.108796,0.91717 Q 7.921268,0.911311 7.729063,0.909339" />
      <path d="M 7.729063,0.909339 C 7.71701,0.92698 7.734747,0.991952 7.742072,1.017582" />
      <path d="M 8.192008,1.033917 Q 7.9704,1.023005 7.742072,1.017582" />
      <path d="M 10.961312,2.040731 Q 11.018836,2.439324 11.046776,2.844594" />
      <path d="M 7.742072,1.017582 C 7.879649,1.497363 7.965704,2.006491 8.008262,2.517003" />
      <path d="M 10.021517,3.105723 Q 9.107031,2.750225 8.008262,2.517003" />
      <path d="M 7.752404,2.796242 Q 7.886673,2.658435 8.008262,2.517003" />
      <path d="M 9.2721,3.284416 Q 8.571917,3.003579 7.752404,2.796242" />
      <path d="M 7.530023,2.484299 Q 7.397249,2.298615 7.260032,2.102166" />
      <path d="M 7.041263,1.782432 C 7.030261,1.765882 7.004376,1.729541 6.986007,1.727482" />
      <path d="M 6.986007,1.727482 Q 6.980995,1.726862 6.976969,1.73016" />
      <path d="M 6.997812,1.732433 L 6.976969,1.73016" />
      <path d="M 6.976969,1.73016 Q 6.851893,1.843684 6.71772,1.95392" />
      <path d="M 7.213696,2.035447 Q 6.974152,1.990112 6.71772,1.95392" />
      <path d="M 6.71772,1.95392 C 6.699835,1.96986 6.711372,2.036495 6.716397,2.062827" />
      <path d="M 7.3104,2.174223 Q 7.025965,2.111856 6.716397,2.062827" />
      <path d="M 6.716397,2.062827 C 6.810618,2.555775 6.846705,3.071843 6.839295,3.584351" />
      <path d="M 6.842598,3.585683 L 6.839295,3.584351" />
      <path d="M 6.488056,3.829101 Q 6.669232,3.709215 6.839295,3.584351" />
      <path d="M 6.794325,3.980602 Q 6.64574,3.902837 6.488056,3.829101" />
      <path d="M 6.251665,3.491086 Q 5.999998,3.129993 5.754334,2.73321" />
      <path d="M 6.835989,3.184124 L 6.83598,3.184119" />
      <path d="M 5.754334,2.73321 C 5.743797,2.715899 5.719173,2.678288 5.698077,2.67225" />
      <path d="M 5.698077,2.67225 Q 5.691261,2.670202 5.685255,2.673362" />
      <path d="M 5.713898,2.681556 L 5.685255,2.673362" />
      <path d="M 5.685255,2.673362 Q 5.521833,2.770496 5.350686,2.863387" />
      <path d="M 5.524884,2.925755 Q 5.440216,2.893686 5.350686,2.863387" />
      <path d="M 5.350686,2.863387 C 5.327699,2.877005 5.332566,2.944572 5.335083,2.971332" />
      <path d="M 5.435507,3.009093 L 5.335083,2.971332" />
      <path d="M 5.335083,2.971332 C 5.382091,3.472304 5.366734,3.989549 5.30966,4.498394" />
      <path d="M 5.436815,4.596504 L 5.30966,4.498394" />
      <path d="M 4.877419,4.698635 Q 5.098086,4.601577 5.30966,4.498394" />
      <path d="M 5.049963,4.861684 Q 4.967966,4.778949 4.877419,4.698635" />
      <path d="M 4.877419,4.698635 C 4.630099,4.330806 4.377645,3.937628 4.151155,3.519804" />
      <path d="M 4.151155,3.519804 C 4.142254,3.503255 4.122558,3.469275 4.101961,3.456122" />
      <path d="M 4.101961,3.456122 Q 4.090808,3.448646 4.080118,3.451995" />
      <path d="M 4.129214,3.484274 L 4.080118,3.451995" />
      <path d="M 4.684925,4.408006 L 4.666994,4.412946" />
      <path d="M 4.080118,3.451995 Q 3.885041,3.528764 3.683926,3.600506" />
      <path d="M 4.064647,4.100977 Q 3.974487,3.831829 3.683926,3.600506" />
      <path d="M 3.683926,3.600506 C 3.65678,3.611276 3.654776,3.679006 3.654683,3.705904" />
      <path d="M 3.96627,4.087993 Q 3.865846,3.886165 3.654683,3.705904" />
      <path d="M 3.654683,3.705904 C 3.652554,4.209425 3.586381,4.722039 3.481978,5.22171" />
      <path d="M 3.736307,6.215253 Q 3.74911,5.697414 3.481978,5.22171" />
      <path d="M 2.986433,5.369245 Q 3.237555,5.298989 3.481978,5.22171" />
      <path d="M 3.111273,6.035877 Q 3.113014,5.694011 2.986433,5.369245" />
      <path d="M 2.475223,6.301551 Q 2.177828,5.726272 1.936231,5.118869" />
      <path d="M 2.986433,5.369245 C 2.74186,4.973472 2.500998,4.552269 2.297359,4.11001" />
      <path d="M 1.936231,5.118869 C 2.295795,4.770801 2.41246,4.424952 2.297359,4.11001" />
      <path d="M 1.936231,5.118869 C 1.922533,5.083777 1.884956,4.996788 1.839797,5.001905" />
      <path d="M 2.297359,4.11001 C 2.286552,4.086357 2.257272,4.027941 2.227274,4.034184" />
      <path d="M 1.839797,5.001905 C 2.207377,4.668353 2.332928,4.336225 2.227274,4.034184" />
      <path d="M 1.839797,5.001905 L 1.634064,5.031166" />
      <path d="M 2.227274,4.034184 Q 2.008527,4.087443 1.785678,4.135101" />
      <path d="M 1.72738,4.477671 Q 1.803918,4.302575 1.785678,4.135101" />
      <path d="M 1.785678,4.135101 C 1.755484,4.142613 1.746692,4.20973 1.743993,4.236469" />
      <path d="M 1.711404,4.499844 L 1.711416,4.499808" />
      <path d="M 1.741691,4.359187 L 1.741828,4.357952" />
      <path d="M 1.741828,4.357952 Q 1.748555,4.29669 1.743993,4.236469" />
      <path d="M 1.743993,4.236469 C 1.692813,4.736962 1.578534,5.239324 1.431077,5.724688" />
      <path d="M 0.515688,7.313167 Q 1.159252,6.700033 1.354024,6.085791" />
      <path d="M 1.354024,6.085791 Q 1.412128,5.904111 1.431077,5.724688" />
      <path d="M -0.280421,7.372356 Q 0.118977,7.348402 0.515688,7.313167" />
      <path d="M 0.892514,5.813476 Q 1.163811,5.772898 1.431077,5.724688" />
      <path d="M -0.280421,7.372356 C 0.362164,6.862046 0.751845,6.332408 0.892514,5.813476" />
      <path d="M -0.280421,7.372356 Q -0.588411,6.746846 -0.840576,6.08518" />
      <path d="M 0.892514,5.813476 C 0.660701,5.390639 0.441292,4.943289 0.268842,4.479664" />
      <path d="M -0.450681,5.085217 Q 0.062434,4.785915 0.268842,4.479664" />
      <path d="M 0.268842,4.479664 C 0.259695,4.454878 0.234488,4.393366 0.202577,4.396093" />
      <path d="M -0.400345,4.898702 Q 0.016299,4.649753 0.202577,4.396093" />
      <path d="M 0.202577,4.396093 Q -0.030883,4.423663 -0.266343,4.445284" />
      <path d="M -0.298945,4.476828 L -0.266343,4.445284" />
      <path d="M -0.266343,4.445284 Q -0.276177,4.446676 -0.283998,4.454656" />
      <path d="M -0.283998,4.454656 C -0.304202,4.474725 -0.31462,4.520334 -0.318765,4.541306" />
      <path d="M -0.318765,4.541306 C -0.4169,5.033317 -0.574606,5.520228 -0.759081,5.986734" />
      <path d="M -2.682772,7.413928 C -1.795278,6.968686 -1.15277,6.482942 -0.759081,5.986734" />
      <path d="M -3.483913,7.382378 Q -3.084059,7.40383 -2.682772,7.413928" />
      <path d="M -1.318612,6.013141 Q -1.038247,6.003902 -0.759081,5.986734" />
      <path d="M -3.483913,7.382378 C -2.51894,6.963393 -1.79504,6.497016 -1.318612,6.013141" />
      <path d="M -3.483913,7.382378 Q -3.672446,6.915303 -3.829026,6.432465" />
      <path d="M -1.318612,6.013141 C -1.528174,5.56523 -1.717147,5.09468 -1.851349,4.613634" />
      <path d="M -2.543582,4.904188 Q -2.148275,4.76484 -1.851349,4.613634" />
      <path d="M -1.851349,4.613634 C -1.858462,4.587924 -1.878565,4.523839 -1.911081,4.522905" />
      <path d="M -2.49521,4.757938 Q -2.167496,4.644706 -1.911081,4.522905" />
      <path d="M -1.911081,4.522905 Q -2.149697,4.523657 -2.388127,4.518357" />
      <path d="M -2.406703,4.525686 L -2.388127,4.518357" />
      <path d="M -2.388127,4.518357 L -2.397522,4.520219" />
      <path d="M -2.397522,4.520219 C -2.424732,4.531106 -2.442392,4.584872 -2.449139,4.607935" />
      <path d="M -2.449139,4.607935 C -2.590212,5.086356 -2.78489,5.553248 -2.998829,5.997122" />
      <path d="M -5.852067,7.152942 C -4.670646,6.825233 -3.714909,6.430285 -2.998829,5.997122" />
      <path d="M -6.62544,7.031946 Q -6.2415,7.097923 -5.852067,7.152942" />
      <path d="M -3.556422,5.960065 Q -3.278466,5.982544 -2.998829,5.997122" />
      <path d="M -6.62544,7.031946 C -5.377587,6.738668 -4.349102,6.371844 -3.556422,5.960065" />
      <path d="M -6.62544,7.031946 Q -6.753227,6.621705 -6.855097,6.202697" />
      <path d="M -3.556422,5.960065 C -3.735154,5.490096 -3.885954,5.000243 -3.976414,4.506435" />
      <path d="M -4.644098,4.642032 Q -4.289179,4.57924 -3.976414,4.506435" />
      <path d="M -3.976414,4.506435 C -3.981201,4.480049 -3.995376,4.414016 -4.027167,4.409429" />
      <path d="M -4.592353,4.515991 Q -4.294594,4.466326 -4.027167,4.409429" />
      <path d="M -4.027167,4.409429 Q -4.261169,4.383332 -4.492809,4.351327" />
      <path d="M -5.975856,4.537391 L -5.975853,4.537391" />
      <path d="M -4.506328,4.353664 L -4.492809,4.351327" />
      <path d="M -4.492809,4.351327 L -4.499527,4.351541" />
      <path d="M -4.499527,4.351541 C -4.528159,4.356629 -4.551121,4.41075 -4.559913,4.433628" />
      <path d="M -4.559913,4.433628 C -4.738148,4.893909 -4.961827,5.337035 -5.196472,5.755424" />
      <path d="M -8.862444,6.540894 C -7.435464,6.361366 -6.205627,6.090578 -5.196472,5.755424" />
      <path d="M -9.576388,6.335404 Q -9.224081,6.443208 -8.862444,6.540894" />
      <path d="M -5.729298,5.656422 Q -5.465133,5.709699 -5.196472,5.755424" />
      <path d="M -9.576388,6.335404 C -8.096742,6.197074 -6.80578,5.962015 -5.729298,5.656422" />
      <path d="M -9.576388,6.335404 Q -9.661712,5.941238 -9.722183,5.542018" />
      <path d="M -5.729298,5.656422 C -5.869883,5.168312 -5.976337,4.663846 -6.019351,4.162455" />
      <path d="M -6.650533,4.201321 Q -6.324582,4.185832 -6.019351,4.162455" />
      <path d="M -6.019351,4.162455 C -6.021616,4.135668 -6.029283,4.068395 -6.059047,4.06031" />
      <path d="M -6.594036,4.086765 Q -6.3191,4.076386 -6.059047,4.06031" />
      <path d="M -6.059047,4.06031 Q -6.278856,4.008433 -6.494222,3.951034" />
      <path d="M -7.890265,3.960078 L -7.89026,3.960078" />
      <path d="M -6.505759,3.951425 L -6.494222,3.951034" />
      <path d="M -6.494222,3.951034 L -6.49989,3.950472" />
      <path d="M -6.49989,3.950472 C -6.527552,3.951549 -6.554317,4.003548 -6.564671,4.02552" />
      <path d="M -6.564671,4.02552 C -6.772771,4.463854 -7.016294,4.880439 -7.262038,5.271538" />
      <path d="M -11.59066,5.602841 C -9.976541,5.596076 -8.522952,5.477731 -7.262038,5.271538" />
      <path d="M -12.215945,5.321271 Q -11.909695,5.466487 -11.59066,5.602841" />
      <path d="M -7.748284,5.114643 Q -7.508723,5.196536 -7.262038,5.271538" />
      <path d="M -12.215945,5.321271 C -10.565083,5.360782 -9.064495,5.284309 -7.748284,5.114643" />
      <path d="M -12.215945,5.321271 Q -12.264007,4.919484 -12.285694,4.515553" />
      <path d="M -7.748284,5.114643 C -7.844966,4.613054 -7.902716,4.099259 -7.896522,3.595777" />
      <path d="M -8.475708,3.566792 Q -8.180847,3.584298 -7.896522,3.595777" />
      <path d="M -7.896522,3.595777 C -7.896173,3.568881 -7.897018,3.501124 -7.923537,3.489843" />
      <path d="M -8.41472,3.460023 Q -8.165348,3.477109 -7.923537,3.489843" />
      <path d="M -7.923537,3.489843 Q -8.120153,3.414308 -8.310428,3.333866" />
      <path d="M -9.561526,3.214992 L -9.561522,3.214993" />
      <path d="M -8.310428,3.333866 L -8.31563,3.332684" />
      <path d="M -8.31563,3.332684 C -8.34084,3.3309 -8.369934,3.379614 -8.381338,3.400321" />
      <path d="M -8.381338,3.400321 C -8.610783,3.813799 -8.86418,4.202154 -9.110963,4.565272" />
      <path d="M -13.92502,4.377188 C -12.189844,4.560693 -10.572015,4.616833 -9.110963,4.565272" />
      <path d="M -14.436048,4.031065 Q -14.188392,4.207747 -13.92502,4.377188" />
      <path d="M -9.530722,4.356908 Q -9.325573,4.464064 -9.110963,4.565272" />
      <path d="M -14.436048,4.031065 C -12.681556,4.264031 -11.032777,4.366471 -9.530722,4.356908" />
      <path d="M -14.436048,4.031065 Q -14.445363,3.604818 -14.424895,3.179677" />
      <path d="M -9.530722,4.356908 C -9.579543,3.847054 -9.586223,3.329598 -9.531077,2.829601" />
      <path d="M -10.042793,2.75266 Q -9.784379,2.793343 -9.531077,2.829601" />
      <path d="M -9.531077,2.829601 C -9.528127,2.802892 -9.522116,2.735429 -9.544304,2.72138" />
      <path d="M -9.978382,2.651815 Q -9.759512,2.688196 -9.544304,2.72138" />
      <path d="M -9.544304,2.72138 Q -9.709678,2.625282 -9.867072,2.525088" />
      <path d="M -10.929806,2.322259 L -10.929804,2.322259" />
      <path d="M -9.877375,2.523269 L -9.867072,2.525088" />
      <path d="M -9.867072,2.525088 L -9.871951,2.523269" />
      <path d="M -9.871951,2.523269 C -9.893686,2.519565 -9.923623,2.564385 -9.93554,2.583626" />
      <path d="M -9.93554,2.583626 Q -10.182496,2.975713 -10.432854,3.33202" />
      <path d="M -15.769956,2.914112 C -13.984762,3.297607 -12.268926,3.543129 -10.667552,3.665543" />
      <path d="M -16.145804,2.517607 Q -15.966882,2.718522 -15.769956,2.914112" />
      <path d="M -11.003638,3.414239 Q -10.841301,3.542272 -10.667552,3.665543" />
      <path d="M -16.145804,2.517607 C -14.359512,2.951722 -12.630042,3.246077 -11.003638,3.414239" />
      <path d="M -16.145804,2.517607 Q -16.110455,2.052906 -16.040298,1.593845" />
      <path d="M -11.003638,3.414239 C -11.002599,2.90167 -10.957938,2.386373 -10.856095,1.895293" />
      <path d="M -11.286386,1.787974 L -10.856095,1.895293" />
      <path d="M -10.856095,1.895293 C -10.850666,1.869061 -10.838045,1.802656 -10.854993,1.786384" />
      <path d="M -11.220131,1.691784 L -10.854993,1.786384" />
      <path d="M -10.854993,1.786384 Q -10.982354,1.673656 -11.100424,1.557813" />
      <path d="M -11.110175,1.55511 L -11.100424,1.557813" />
      <path d="M -11.100424,1.557813 L -11.104864,1.555305" />
      <path d="M -11.104864,1.555305 C -11.122443,1.550558 -11.151764,1.591198 -11.163647,1.60887" />
      <path d="M -11.381535,1.924442 Q -11.517846,2.118283 -11.648973,2.301451" />
      <path d="M -17.049935,1.273512 C -15.287809,1.858528 -13.544213,2.300578 -11.868078,2.609183" />
      <path d="M -17.275217,0.842857 Q -17.172354,1.059781 -17.049935,1.273512" />
      <path d="M -12.106732,2.32523 Q -11.993851,2.468897 -11.868078,2.609183" />
      <path d="M -17.275217,0.842857 C -15.530255,1.477581 -13.7909,1.968997 -12.106732,2.32523" />
      <path d="M -17.275217,0.842857 Q -17.185621,0.32619 -17.054818,-0.177819" />
      <path d="M -12.106732,2.32523 C -12.055876,1.815609 -11.9617,1.308198 -11.817331,0.831106" />
      <path d="M -12.154509,0.71149 L -11.817331,0.831106" />
      <path d="M -11.817331,0.831106 C -11.809646,0.805619 -11.79093,0.740994 -11.801945,0.723134" />
      <path d="M -12.088377,0.618677 L -11.801945,0.723134" />
      <path d="M -11.801945,0.723134 Q -11.88608,0.59839 -11.959991,0.471642" />
      <path d="M -11.968748,0.468261 L -11.959991,0.471642" />
      <path d="M -11.959991,0.471642 L -11.963683,0.468415" />
      <path d="M -11.963683,0.468415 C -11.97674,0.463492 -12.004069,0.499885 -12.01538,0.51596" />
      <path d="M -12.222866,0.807373 Q -12.350574,0.986215 -12.468846,1.155215" />
      <path d="M -17.712556,-0.477444 C -16.045639,0.302372 -14.345665,0.940048 -12.66339,1.439442" />
      <path d="M -17.778048,-0.924618 Q -17.755454,-0.700567 -17.712556,-0.477444" />
      <path d="M -12.794842,1.134463 Q -12.73604,1.287884 -12.66339,1.439442" />
      <path d="M -17.778048,-0.924618 C -16.145855,-0.098042 -14.467824,0.587513 -12.794842,1.134463" />
      <path d="M -17.778048,-0.924618 Q -17.620768,-1.508517 -17.415074,-2.068303" />
      <path d="M -12.794842,1.134463 C -12.69625,0.633332 -12.556416,0.139216 -12.375432,-0.319393" />
      <path d="M -12.610331,-0.430808 L -12.375432,-0.319393" />
      <path d="M -12.375432,-0.319393 C -12.365804,-0.343897 -12.341761,-0.406093 -12.346392,-0.424842" />
      <path d="M -12.546663,-0.521984 L -12.346392,-0.424842" />
      <path d="M -12.346392,-0.424842 Q -12.383855,-0.556494 -12.410582,-0.688959" />
      <path d="M -12.417644,-0.692573 L -12.410582,-0.688959" />
      <path d="M -12.410582,-0.688959 L -12.413047,-0.692865" />
      <path d="M -12.413047,-0.692865 C -12.421528,-0.697098 -12.445632,-0.664866 -12.45587,-0.650361" />
      <path d="M -12.644457,-0.381443 Q -12.758333,-0.216325 -12.858909,-0.059757" />
      <path d="M -17.73069,-2.267074 C -16.227226,-1.307152 -14.640472,-0.482759 -13.020929,0.204209" />
      <path d="M -17.633711,-2.712459 Q -17.692312,-2.490454 -17.73069,-2.267074" />
      <path d="M -13.039797,-0.10931 Q -13.037481,0.047583 -13.020929,0.204209" />
      <path d="M -17.633711,-2.712459 C -16.18111,-1.710638 -14.633102,-0.841815 -13.039797,-0.10931" />
      <path d="M -17.633711,-2.712459 Q -17.390046,-3.383865 -17.091542,-4.011577" />
      <path d="M -13.039797,-0.10931 C -12.897507,-0.596756 -12.717739,-1.072717 -12.507549,-1.509104" />
      <path d="M -12.633103,-1.586805 L -12.507549,-1.509104" />
      <path d="M -12.507549,-1.509104 C -12.496372,-1.532425 -12.467986,-1.591643 -12.466043,-1.610545" />
      <path d="M -12.574769,-1.679176 L -12.466043,-1.610545" />
      <path d="M -12.466043,-1.610545 Q -12.455302,-1.743714 -12.43375,-1.876474" />
      <path d="M -12.438183,-1.87943 L -12.43375,-1.876474" />
      <path d="M -12.438578,-1.879105 Q -12.445335,-1.872899 -12.454577,-1.860162" />
      <path d="M -16.547491,-5.077952 L -16.54749,-5.07795" />
      <path d="M -16.975564,-4.363356 Q -17.049174,-4.190828 -17.103595,-4.02211" />
      <path d="M -12.629049,-1.593335 Q -12.806491,-1.309137 -12.926058,-1.045947" />
      <path d="M -17.103595,-4.02211 C -15.825136,-2.904148 -14.416564,-1.909594 -12.926058,-1.045947" />
      <path d="M -16.848115,-4.447472 Q -16.985512,-4.236601 -17.103595,-4.02211" />
      <path d="M -12.831569,-1.355169 Q -12.885833,-1.201228 -12.926058,-1.045947" />
      <path d="M -16.848115,-4.447472 C -15.634575,-3.29419 -14.279965,-2.260471 -12.831569,-1.355169" />
      <path d="M -16.848115,-4.447472 C -16.556094,-5.094655 -16.225121,-5.716073 -15.881592,-6.275233" />
      <path d="M -12.831569,-1.355169 Q -12.645232,-1.839658 -12.420174,-2.289392" />
      <path d="M -15.881592,-6.275233 L -15.760641,-6.131835" />
      <path d="M -15.881592,-6.275233 C -15.863337,-6.305134 -15.815952,-6.380954 -15.79711,-6.405808" />
      <path d="M -15.79711,-6.405808 L -15.707068,-6.296844" />
      <path d="M -15.79711,-6.405808 Q -15.663462,-6.581242 -15.515697,-6.753106" />
      <path d="M -15.515697,-6.753106 L -15.511394,-6.747448" />
      <path d="M -15.515697,-6.753106 Q -15.509153,-6.760572 -15.508319,-6.758958" />
      <path d="M -15.508319,-6.758958 L -15.508219,-6.756817" />
      <path d="M -15.517886,-6.73295 Q -15.524083,-6.720037 -15.528951,-6.710434" />
      <path d="M -15.528951,-6.710434 Q -15.610256,-6.549334 -15.671567,-6.392047" />
      <path d="M -15.795869,-6.001202 Q -15.83656,-5.835168 -15.856944,-5.670699" />
      <path d="M -15.856944,-5.670699 C -14.85583,-4.423237 -13.683107,-3.282041 -12.382659,-2.259843" />
      <path d="M -15.453423,-6.058624 Q -15.663991,-5.867521 -15.856944,-5.670699" />
      <path d="M -12.178682,-2.55211 Q -12.287306,-2.407422 -12.382659,-2.259843" />
      <path d="M -15.453423,-6.058624 C -14.528627,-4.783865 -13.422873,-3.610375 -12.178682,-2.55211" />
      <path d="M -15.453423,-6.058624 C -15.127059,-6.670678 -14.772388,-7.253144 -14.423689,-7.772979" />
      <path d="M -12.178682,-2.55211 Q -11.913984,-3.111252 -11.61349,-3.610575" />
      <path d="M -14.423689,-7.772979 Q -14.223104,-7.422402 -14.008067,-7.079436" />
      <path d="M -14.423689,-7.772979 C -14.405165,-7.800792 -14.356569,-7.871159 -14.329552,-7.893407" />
      <path d="M -14.329552,-7.893407 Q -14.19406,-7.651603 -14.051735,-7.413324" />
      <path d="M -14.329552,-7.893407 Q -14.135426,-8.050221 -13.928758,-8.201949" />
      <path d="M -13.928758,-8.201949 L -13.916047,-8.176837" />
      <path d="M -13.928758,-8.201949 Q -13.915873,-8.210785 -13.913414,-8.204329" />
      <path d="M -13.914916,-8.181132 L -13.921451,-8.159616" />
      <path d="M -13.921451,-8.159616 Q -13.973868,-8.006703 -14.004488,-7.85521" />
      <path d="M -14.050156,-7.472859 Q -14.056264,-7.309483 -14.041775,-7.145349" />
      <path d="M -14.041775,-7.145349 C -13.358993,-5.802226 -12.47013,-4.543914 -11.412981,-3.387782" />
      <path d="M -13.506734,-7.479955 Q -13.781851,-7.316443 -14.041775,-7.145349" />
      <path d="M -11.107866,-3.651128 Q -11.266402,-3.521617 -11.412981,-3.387782" />
      <path d="M -13.506734,-7.479955 C -12.908542,-6.118676 -12.096915,-4.836262 -11.107866,-3.651128" />
      <path d="M -13.506734,-7.479955 C -13.159388,-8.053736 -12.795539,-8.595384 -12.455946,-9.076118" />
      <path d="M -11.107866,-3.651128 C -10.875332,-4.072876 -10.624901,-4.473432 -10.381709,-4.830352" />
      <path d="M -12.455946,-9.076118 C -11.963081,-7.584956 -11.260789,-6.163795 -10.381709,-4.830352" />
      <path d="M -12.455946,-9.076118 C -12.437912,-9.101853 -12.390093,-9.166743 -12.356008,-9.18552" />
      <path d="M -10.381709,-4.830352 Q -10.36942,-4.848986 -10.346648,-4.878522" />
      <path d="M -12.356008,-9.18552 C -11.938894,-7.887749 -11.364925,-6.641759 -10.655062,-5.459031" />
      <path d="M -12.356008,-9.18552 Q -12.109351,-9.317293 -11.852241,-9.442675" />
      <path d="M -11.852241,-9.442675 Q -11.827578,-9.452291 -11.824509,-9.433313" />
      <path d="M -11.824509,-9.433313 Q -11.821423,-9.41442 -11.824672,-9.39836" />
      <path d="M -11.824672,-9.39836 Q -11.846443,-9.249092 -11.845187,-9.098697" />
      <path d="M -11.809896,-8.718077 Q -11.792849,-8.619751 -11.768438,-8.520421" />
      <path d="M -11.768438,-8.520421 L -11.732402,-8.385688" />
      <path d="M -11.732402,-8.385688 Q -11.682978,-8.179932 -11.626921,-7.975928" />
      <path d="M -11.626921,-7.975928 C -11.282628,-6.722836 -10.751849,-5.520193 -10.056721,-4.383587" />
      <path d="M -11.087745,-8.653276 Q -11.416149,-8.52405 -11.732402,-8.385688" />
      <path d="M -9.662961,-4.60723 Q -9.864918,-4.498198 -10.056721,-4.383587" />
      <path d="M -11.087745,-8.653276 C -10.840648,-7.243977 -10.356374,-5.887943 -9.662961,-4.60723" />
      <path d="M -11.087745,-8.653276 C -10.733638,-9.187208 -10.375506,-9.68784 -10.058923,-10.131297" />
      <path d="M -9.662961,-4.60723 C -9.418073,-5.001857 -9.163685,-5.373734 -8.929203,-5.703517" />
      <path d="M -10.058923,-10.131297 C -9.904038,-8.603337 -9.519214,-7.120419 -8.929203,-5.703517" />
      <path d="M -10.058923,-10.131297 C -10.042116,-10.155054 -9.997032,-10.214666 -9.957276,-10.229248" />
      <path d="M -8.929203,-5.703517 C -8.916752,-5.721175 -8.883649,-5.765651 -8.858784,-5.778126" />
      <path d="M -9.957276,-10.229248 C -9.812496,-8.694389 -9.43819,-7.203706 -8.858784,-5.778126" />
      <path d="M -9.957276,-10.229248 Q -9.668186,-10.330586 -9.37116,-10.424488" />
      <path d="M -8.858784,-5.778126 Q -8.726368,-5.84236 -8.590174,-5.904095" />
      <path d="M -9.37116,-10.424488 Q -9.320898,-9.30099 -9.108998,-8.208462" />
      <path d="M -9.37116,-10.424488 C -9.331025,-10.436518 -9.325578,-10.393738 -9.324457,-10.375954" />
      <path d="M -9.324457,-10.375954 L -9.313695,-10.142408" />
      <path d="M -9.313695,-10.142408 L -9.312045,-10.112369" />
      <path d="M -9.324457,-10.375954 Q -9.314493,-10.227352 -9.281374,-10.075" />
      <path d="M -9.164683,-9.680081 Q -9.103028,-9.513055 -9.023371,-9.340935" />
      <path d="M -9.023371,-9.340935 C -9.0466,-7.942203 -8.82817,-6.575161 -8.388472,-5.26295" />
      <path d="M -8.388472,-5.26295 L -8.369405,-5.206488" />
      <path d="M -8.295489,-9.53055 Q -8.663735,-9.4409 -9.023371,-9.340935" />
      <path d="M -7.90312,-5.381273 Q -8.140231,-5.297185 -8.369405,-5.206488" />
      <path d="M -8.295489,-9.53055 C -8.409603,-8.113696 -8.27251,-6.722364 -7.90312,-5.381273" />
      <path d="M -8.295489,-9.53055 C -7.949118,-10.024688 -7.611367,-10.485789 -7.330754,-10.895319" />
      <path d="M -7.90312,-5.381273 C -7.655905,-5.747944 -7.407974,-6.091285 -7.191801,-6.395467" />
      <path d="M -7.330754,-10.895319 C -7.52019,-9.369322 -7.468589,-7.861611 -7.191801,-6.395467" />
      <path d="M -7.330754,-10.895319 C -7.315863,-10.917275 -7.27536,-10.972025 -7.231558,-10.981861" />
      <path d="M -7.191801,-6.395467 C -7.180326,-6.411765 -7.149451,-6.452607 -7.120876,-6.462046" />
      <path d="M -7.231558,-10.981861 C -7.4298,-9.450038 -7.387728,-7.935701 -7.120876,-6.462046" />
      <path d="M -7.231558,-10.981861 Q -6.911872,-11.048614 -6.58709,-11.107192" />
      <path d="M -7.120876,-6.462046 Q -6.912897,-6.527395 -6.699822,-6.587403" />
      <path d="M -6.58709,-11.107192 C -6.861577,-9.581367 -6.894674,-8.066916 -6.699822,-6.587403" />
      <path d="M -6.58709,-11.107192 C -6.543046,-11.11444 -6.527987,-11.070495 -6.523166,-11.052373" />
      <path d="M -6.699822,-6.587403 C -6.674484,-6.594154 -6.667228,-6.571679 -6.664894,-6.557752" />
      <path d="M -6.523166,-11.052373 C -6.79918,-9.581662 -6.847819,-8.12092 -6.681102,-6.691719" />
      <path d="M -6.681102,-6.691719 L -6.676882,-6.655935" />
      <path d="M -6.523166,-11.052373 C -6.431894,-10.715163 -6.25135,-10.354857 -6.025589,-9.971983" />
      <path d="M -6.664175,-6.552553 L -6.66251,-6.538767" />
      <path d="M -6.66251,-6.538767 C -6.63377,-6.311077 -6.544187,-6.07313 -6.420112,-5.822798" />
      <path d="M -6.025589,-9.971983 C -6.408247,-8.576255 -6.535909,-7.184521 -6.420112,-5.822798" />
      <path d="M -5.244283,-10.075862 Q -5.637294,-10.029458 -6.025589,-9.971983" />
      <path d="M -5.900392,-5.941568 Q -6.162948,-5.885865 -6.420112,-5.822798" />
      <path d="M -5.244283,-10.075862 C -5.714936,-8.692229 -5.930636,-7.305361 -5.900392,-5.941568" />
      <path d="M -5.244283,-10.075862 C -4.919829,-10.531891 -4.616284,-10.95656 -4.38313,-11.336904" />
      <path d="M -5.900392,-5.941568 C -5.660971,-6.280593 -5.429648,-6.596709 -5.240634,-6.877872" />
      <path d="M -4.38313,-11.336904 C -4.909132,-9.85155 -5.192867,-8.357026 -5.240634,-6.877872" />
      <path d="M -4.38313,-11.336904 C -4.370765,-11.357312 -4.336501,-11.407814 -4.290448,-11.412545" />
      <path d="M -5.240634,-6.877872 C -5.230605,-6.892949 -5.203221,-6.930481 -5.172107,-6.936529" />
      <path d="M -4.290448,-11.412545 C -4.823595,-9.922272 -5.115479,-8.422127 -5.172107,-6.936529" />
      <path d="M -4.290448,-11.412545 Q -3.953252,-11.441982 -3.614011,-11.462837" />
      <path d="M -5.172107,-6.936529 Q -4.944838,-6.977152 -4.714502,-7.01197" />
      <path d="M -3.614011,-11.462837 C -4.219681,-9.987013 -4.585237,-8.495209 -4.714502,-7.01197" />
      <path d="M -3.614011,-11.462837 C -3.567861,-11.464961 -3.543807,-11.418794 -3.535482,-11.399925" />
      <path d="M -4.714502,-7.01197 C -4.683241,-7.016205 -4.671173,-6.985177 -4.667205,-6.972408" />
      <path d="M -3.535482,-11.399925 C -4.152363,-9.932678 -4.528416,-8.448607 -4.667205,-6.972408" />
      <path d="M -3.535482,-11.399925 C -3.378305,-11.048601 -3.137844,-10.664378 -2.861786,-10.252996" />
      <path d="M -4.667205,-6.972408 C -4.592163,-6.734778 -4.455469,-6.479334 -4.288647,-6.207282" />
      <path d="M -2.861786,-10.252996 C -3.587875,-8.920255 -4.063054,-7.562768 -4.288647,-6.207282" />
      <path d="M -2.059043,-10.266887 Q -2.46073,-10.265629 -2.861786,-10.252996" />
      <path d="M -3.736768,-6.265176 Q -4.014022,-6.24014 -4.288647,-6.207282" />
      <path d="M -2.059043,-10.266887 C -2.866967,-8.955888 -3.426629,-7.613069 -3.736768,-6.265176" />
      <path d="M -2.059043,-10.266887 Q -1.801894,-10.638118 -1.592915,-10.977734" />
      <path d="M -1.592915,-10.977734 Q -1.446666,-11.216688 -1.336728,-11.437974" />
      <path d="M -3.736768,-6.265176 C -3.514943,-6.577998 -3.309699,-6.869313 -3.155582,-7.130983" />
      <path d="M -1.681104,-10.835747 L -1.681181,-10.835604" />
      <path d="M -1.86874,-10.482894 L -1.905278,-10.41184" />
      <path d="M -1.905278,-10.41184 Q -2.73385,-8.789419 -3.155582,-7.130983" />
      <path d="M -1.336728,-11.437974 L -1.329166,-11.452002" />
      <path d="M -1.329166,-11.452002 C -1.316166,-11.473769 -1.291596,-11.504146 -1.254353,-11.50367" />
      <path d="M -3.155582,-7.130983 C -3.14741,-7.145026 -3.124638,-7.179709 -3.092258,-7.18215" />
      <path d="M -1.254353,-11.50367 C -2.100579,-10.091758 -2.714469,-8.643069 -3.092258,-7.18215" />
      <path d="M -1.254353,-11.50367 Q -0.913453,-11.494584 -0.573642,-11.476863" />
      <path d="M -3.092258,-7.18215 Q -2.855003,-7.196384 -2.616837,-7.204587" />
      <path d="M -0.573642,-11.476863 C -1.485699,-10.08726 -2.168747,-8.655026 -2.616837,-7.204587" />
      <path d="M -0.573642,-11.476863 C -0.527275,-11.473731 -0.49521,-11.424376 -0.483723,-11.404382" />
      <path d="M -2.616837,-7.204587 C -2.584413,-7.205204 -2.566196,-7.172455 -2.559827,-7.159099" />
      <path d="M -0.483723,-11.404382 C -1.407251,-10.024644 -2.101367,-8.601368 -2.559827,-7.159099" />
      <path d="M -0.483723,-11.404382 C -0.267075,-11.031821 0.023459,-10.617433 0.338511,-10.17247" />
      <path d="M -2.559827,-7.159099 C -2.439606,-6.910375 -2.262505,-6.637105 -2.062272,-6.344202" />
      <path d="M 0.338511,-10.17247 C -0.701281,-8.940047 -1.504525,-7.655186 -2.062272,-6.344202" />
      <path d="M 1.129828,-10.095804 Q 0.73591,-10.139744 0.338511,-10.17247" />
      <path d="M -1.500829,-6.338849 Q -1.781429,-6.345503 -2.062272,-6.344202" />
      <path d="M 1.129828,-10.095804 Q 0.124054,-9.008069 -0.625912,-7.864535" />
      <path d="M -0.625912,-7.864535 Q -1.120384,-7.110748 -1.500829,-6.338849" />
      <path d="M 1.129828,-10.095804 C 1.372041,-10.486777 1.571798,-10.853664 1.683732,-11.19439" />
      <path d="M -1.500829,-6.338849 C -1.321236,-6.60494 -1.162363,-6.854669 -1.050117,-7.084994" />
      <path d="M 1.683732,-11.19439 Q 1.687742,-11.210743 1.703777,-11.232302" />
      <path d="M 1.703777,-11.232302 Q 1.719554,-11.253456 1.752427,-11.251504" />
      <path d="M -1.01223,-7.161972 Q -0.998624,-7.186138 -0.96648,-7.188852" />
      <path d="M 1.752427,-11.251504 L 1.67114,-11.157004" />
      <path d="M -0.576225,-7.939785 Q -0.782295,-7.566288 -0.96648,-7.188852" />
      <path d="M 1.752427,-11.251504 Q 2.083075,-11.204268 2.409545,-11.148696" />
      <path d="M -0.96648,-7.188852 Q -0.728953,-7.176114 -0.492705,-7.157366" />
      <path d="M 2.409545,-11.148696 C 1.22844,-9.878004 0.255864,-8.539825 -0.492705,-7.157366" />
      <path d="M 2.409545,-11.148696 C 2.45423,-11.140391 2.492993,-11.087013 2.507172,-11.065561" />
      <path d="M -0.492705,-7.157366 C -0.460446,-7.154309 -0.436827,-7.119183 -0.428317,-7.104982" />
      <path d="M 2.507172,-11.065561 C 1.314807,-9.806025 0.331046,-8.478068 -0.428317,-7.104982" />
      <path d="M 2.507172,-11.065561 C 2.774421,-10.66551 3.103133,-10.215943 3.444282,-9.733702" />
      <path d="M -0.428317,-7.104982 C -0.26784,-6.840312 -0.057582,-6.545036 0.167866,-6.22795" />
      <path d="M 3.444282,-9.733702 C 2.133355,-8.634821 1.034932,-7.457993 0.167866,-6.22795" />
      <path d="M 4.191775,-9.569617 Q 3.821754,-9.656956 3.444282,-9.733702" />
      <path d="M 0.715888,-6.15957 Q 0.443429,-6.197643 0.167866,-6.22795" />
      <path d="M 4.191775,-9.569617 C 2.820993,-8.508746 1.655288,-7.364008 0.715888,-6.15957" />
      <path d="M 4.191775,-9.569617 Q 4.278766,-9.741189 4.349031,-9.907272" />
      <path d="M 4.492852,-10.315318 Q 4.535082,-10.467967 4.554593,-10.616125" />
      <path d="M 4.554593,-10.616125 C 4.556038,-10.627553 4.559974,-10.649003 4.573366,-10.660482" />
      <path d="M 4.573366,-10.660482 Q 4.584511,-10.671253 4.606795,-10.66637" />
      <path d="M 4.606795,-10.66637 L 4.555536,-10.622477" />
      <path d="M 4.606795,-10.66637 Q 4.913655,-10.582918 5.213417,-10.491771" />
      <path d="M 1.342716,-6.91624 L 1.57093,-6.872242" />
      <path d="M 5.213417,-10.491771 Q 4.713021,-10.090549 4.243607,-9.674545" />
      <path d="M 3.701695,-9.179627 Q 2.522425,-8.069504 1.57093,-6.872242" />
      <path d="M 5.213417,-10.491771 C 5.254592,-10.478589 5.298465,-10.420516 5.314755,-10.397332" />
      <path d="M 1.57093,-6.872242 C 1.601704,-6.865604 1.629758,-6.827543 1.640061,-6.812273" />
      <path d="M 5.314755,-10.397332 C 3.902369,-9.28577 2.669237,-8.083753 1.640061,-6.812273" />
      <path d="M 5.314755,-10.397332 C 5.621665,-9.964665 5.975098,-9.476345 6.328376,-8.954655" />
      <path d="M 1.640061,-6.812273 C 1.834225,-6.527456 2.06903,-6.206897 2.310464,-5.863287" />
      <path d="M 6.328376,-8.954655 C 4.799984,-8.017073 3.451352,-6.97926 2.310464,-5.863287" />
      <path d="M 7.001443,-8.709869 Q 6.670467,-8.837031 6.328376,-8.954655" />
      <path d="M 2.822628,-5.734679 Q 2.569466,-5.802612 2.310464,-5.863287" />
      <path d="M 7.001443,-8.709869 C 5.428117,-7.81625 4.025144,-6.817437 2.822628,-5.734679" />
      <path d="M 7.001443,-8.709869 Q 7.060278,-8.879256 7.099457,-9.044898" />
      <path d="M 7.159371,-9.427561 Q 7.17043,-9.57817 7.158321,-9.726853" />
      <path d="M 7.158321,-9.726853 C 7.157258,-9.739562 7.156271,-9.764598 7.168833,-9.772797" />
      <path d="M 7.168833,-9.772797 Q 7.176294,-9.778302 7.191893,-9.772226" />
      <path d="M 7.191893,-9.772226 L 7.158334,-9.75043" />
      <path d="M 7.191893,-9.772226 Q 7.462401,-9.655974 7.723184,-9.532982" />
      <path d="M 7.723184,-9.532982 Q 7.419635,-9.347683 7.123369,-9.157031" />
      <path d="M 7.723184,-9.532982 C 7.759162,-9.515417 7.806349,-9.452172 7.824085,-9.427055" />
      <path d="M 3.523296,-6.337459 Q 3.548854,-6.310905 3.560628,-6.292955" />
      <path d="M 7.824085,-9.427055 Q 7.446526,-9.201211 7.080094,-8.967141" />
      <path d="M 4.419977,-7.036931 Q 3.977712,-6.671765 3.560628,-6.292955" />
      <path d="M 7.824085,-9.427055 C 8.15809,-8.957977 8.521773,-8.428919 8.872718,-7.867222" />
      <path d="M 3.560628,-6.292955 C 3.780528,-5.984616 4.03027,-5.63653 4.277803,-5.265142" />
      <path d="M 8.872718,-7.867222 C 7.189434,-7.112094 5.645805,-6.238587 4.277803,-5.265142" />
      <path d="M 9.443804,-7.551757 Q 9.165423,-7.713536 8.872718,-7.867222" />
      <path d="M 4.733142,-5.081571 Q 4.50964,-5.176583 4.277803,-5.265142" />
      <path d="M 9.443804,-7.551757 C 7.732346,-6.844744 6.149542,-6.01555 4.733142,-5.081571" />
      <path d="M 9.443804,-7.551757 Q 9.468895,-7.716576 9.473471,-7.879925" />
      <path d="M 9.452658,-8.259978 Q 9.43168,-8.411149 9.388318,-8.562981" />
      <path d="M 9.388318,-8.562981 L 9.383219,-8.584356" />
      <path d="M 9.384283,-8.607534 L 9.386694,-8.609647" />
      <path d="M 9.386694,-8.609647 Q 9.391158,-8.612258 9.401887,-8.605676" />
      <path d="M 9.401887,-8.605676 L 9.38197,-8.59583" />
      <path d="M 9.401887,-8.605676 Q 9.624969,-8.461384 9.836096,-8.311583" />
      <path d="M 9.836096,-8.311583 L 9.466368,-8.137297" />
      <path d="M 9.836096,-8.311583 C 9.865404,-8.29031 9.913974,-8.221624 9.932428,-8.194452" />
      <path d="M 9.932428,-8.194452 Q 9.701946,-8.090063 9.474042,-7.982588" />
      <path d="M 9.932428,-8.194452 C 10.279854,-7.686662 10.638899,-7.116547 10.973143,-6.515925" />
      <path d="M 5.329285,-5.46242 C 5.544384,-5.155132 5.771188,-4.815719 5.989342,-4.458004" />
      <path d="M 10.973143,-6.515925 C 9.20388,-5.956932 7.528451,-5.266297 5.989342,-4.458004" />
      <path d="M 11.418867,-6.142696 Q 11.204478,-6.332468 10.973143,-6.515925" />
      <path d="M 6.369213,-4.226984 Q 6.184522,-4.345186 5.989342,-4.458004" />
      <path d="M 11.418867,-6.142696 C 9.639345,-5.634002 7.941509,-4.991179 6.369213,-4.226984" />
      <path d="M 11.418867,-6.142696 Q 11.409116,-6.306643 11.37888,-6.47145" />
      <path d="M 11.278283,-6.858402 Q 11.226129,-7.013726 11.153289,-7.172159" />
      <path d="M 11.153289,-7.172159 L 11.143595,-7.19425" />
      <path d="M 11.136375,-7.217886 L 11.137468,-7.220212" />
      <path d="M 11.137468,-7.220212 Q 11.139406,-7.221199 11.146299,-7.21448" />
      <path d="M 11.146299,-7.21448 L 11.137498,-7.211237" />
      <path d="M 11.146299,-7.21448 Q 11.312821,-7.048055 11.465649,-6.877578" />
      <path d="M 11.465649,-6.877578 L 11.291734,-6.817446" />
      <path d="M 11.465649,-6.877578 C 11.487087,-6.853422 11.535051,-6.779252 11.553469,-6.749985" />
      <path d="M 11.553469,-6.749985 L 11.333101,-6.67588" />
      <path d="M 11.553469,-6.749985 C 11.900092,-6.202767 12.2398,-5.592956 12.543658,-4.956084" />
      <path d="M 6.806768,-4.435019 Q 7.099948,-3.982932 7.375008,-3.474915" />
      <path d="M 12.543658,-4.956084 C 10.76085,-4.598882 9.022214,-4.102197 7.375008,-3.474915" />
      <path d="M 12.845773,-4.540371 Q 12.704153,-4.750368 12.543658,-4.956084" />
      <path d="M 7.66386,-3.205906 Q 7.525542,-3.342457 7.375008,-3.474915" />
      <path d="M 12.845773,-4.540371 C 11.07104,-4.233592 9.327683,-3.786259 7.66386,-3.205906" />
      <path d="M 12.845773,-4.540371 Q 12.801579,-4.707382 12.737769,-4.877532" />
      <path d="M 12.561313,-5.280602 Q 12.485537,-5.432594 12.393982,-5.589191" />
      <path d="M 12.233743,-5.57348 L 12.233741,-5.57348" />
      <path d="M 12.63039,-5.135899 C 12.958367,-4.554596 13.261437,-3.914106 13.519967,-3.251561" />
      <path d="M 7.901014,-3.287545 Q 8.154942,-2.842827 8.378074,-2.356125" />
      <path d="M 13.519967,-3.251561 C 11.796603,-3.093541 10.065939,-2.793944 8.378074,-2.356125" />
      <path d="M 13.666103,-2.810383 Q 13.603051,-3.032007 13.519967,-3.251561" />
      <path d="M 8.564081,-2.06014 Q 8.477797,-2.20945 8.378074,-2.356125" />
      <path d="M 13.666103,-2.810383 C 11.968818,-2.700846 10.251313,-2.450122 8.564081,-2.06014" />
      <path d="M 8.535313,-1.410321 Q 8.544228,-0.947871 8.423595,-0.49033" />
      <path d="M 8.34331,-0.22759 Q 8.185407,0.226397 7.902378,0.661006" />
      <path d="M 7.729063,0.909339 Q 7.410808,1.336276 6.976969,1.73016" />
      <path d="M 6.71772,1.95392 Q 6.252141,2.336327 5.685255,2.673362" />
      <path d="M 5.350686,2.863387 Q 4.756844,3.185609 4.080118,3.451995" />
      <path d="M 3.683926,3.600506 Q 2.986134,3.849352 2.227274,4.034184" />
      <path d="M 1.785678,4.135101 Q 1.012503,4.300382 0.202577,4.396093" />
      <path d="M -0.266343,4.445284 Q -1.083247,4.520234 -1.911081,4.522905" />
      <path d="M -2.388127,4.518357 Q -3.215316,4.499908 -4.027167,4.409429" />
      <path d="M -4.492809,4.351327 Q -5.296418,4.240234 -6.059047,4.06031" />
      <path d="M -6.494222,3.951034 Q -7.24135,3.751845 -7.923537,3.489843" />
      <path d="M -8.310428,3.333866 Q -8.970489,3.054735 -9.544304,2.72138" />
      <path d="M -9.867072,2.525088 Q -10.413042,2.177444 -10.854993,1.786384" />
      <path d="M -11.100424,1.557813 Q -11.509952,1.155888 -11.801945,0.723134" />
      <path d="M -11.959991,0.471642 Q -12.21631,0.03189 -12.346392,-0.424842" />
      <path d="M -12.410582,-0.688959 Q -12.503198,-1.148533 -12.466043,-1.610545" />
      <path d="M -12.43375,-1.876474 Q -12.39488,-2.11589 -12.32107,-2.352825" />
      <path d="M 8.380315,-2.352825 Q 8.484948,-2.016818 8.519282,-1.676711" />
      <path d="M 8.519282,-1.676711 C 8.517976,-1.694056 8.544243,-1.657345 8.554737,-1.641923" />
      <path d="M 8.554737,-1.641923 Q 8.852132,-1.211821 9.033019,-0.836592" />
      <path d="M 8.957472,-1.147436 Q 8.783369,-1.619142 8.569986,-2.061504" />
      <path d="M 8.574825,-1.308108 C 8.563838,-1.331741 8.536199,-1.391255 8.535313,-1.410321" />
      <path d="M 8.423595,-0.49033 C 8.428875,-0.507449 8.458895,-0.467541 8.470726,-0.45085" />
      <path d="M 8.470726,-0.45085 Q 8.807718,0.015291 9.051477,0.414644" />
      <path d="M 9.089483,0.101667 C 8.954589,-0.386548 8.78257,-0.863433 8.574825,-1.308108" />
      <path d="M 8.370119,-0.121609 C 8.360764,-0.146398 8.337616,-0.208797 8.34331,-0.22759" />
      <path d="M 7.902378,0.661006 C 7.914027,0.644849 7.946571,0.688311 7.959255,0.706395" />
      <path d="M 7.959255,0.706395 Q 8.322048,1.21229 8.6187,1.642342" />
      <path d="M 8.768702,1.340047 C 8.678131,0.839023 8.546994,0.344916 8.370119,-0.121609" />
      <path d="M 7.742072,1.017582 C 7.734732,0.991844 7.717023,0.927124 7.729063,0.909339" />
      <path d="M 6.976969,1.73016 C 6.99451,1.715661 7.028246,1.762889 7.041263,1.782432" />
      <path d="M 7.041263,1.782432 C 7.287435,2.149665 7.530461,2.483452 7.752404,2.796242" />
      <path d="M 8.008262,2.517003 C 7.965722,2.008417 7.880836,1.502038 7.742072,1.017582" />
      <path d="M 6.716397,2.062827 C 6.711371,2.036386 6.699827,1.970005 6.71772,1.95392" />
      <path d="M 5.685255,2.673362 C 5.70797,2.661149 5.741517,2.712199 5.754334,2.73321" />
      <path d="M 5.754334,2.73321 C 5.996755,3.1282 6.249007,3.490123 6.488056,3.829101" />
      <path d="M 6.839295,3.584351 C 6.846527,3.073759 6.811369,2.560561 6.716397,2.062827" />
      <path d="M 5.335083,2.971332 C 5.332578,2.944464 5.327671,2.877148 5.350686,2.863387" />
      <path d="M 4.080118,3.451995 C 4.107077,3.442604 4.139061,3.497378 4.151155,3.519804" />
      <path d="M 4.151155,3.519804 C 4.379899,3.94156 4.631051,4.332081 4.877419,4.698635" />
      <path d="M 5.30966,4.498394 C 5.366368,3.991435 5.382375,3.477148 5.335083,2.971332" />
      <path d="M 3.654683,3.705904 C 3.654802,3.6789 3.656733,3.611415 3.683926,3.600506" />
      <path d="M 2.227274,4.034184 C 2.257373,4.028034 2.286484,4.086278 2.297359,4.11001" />
      <path d="M 2.297359,4.11001 C 2.503062,4.556446 2.742831,4.974856 2.986433,5.369245" />
      <path d="M 3.481978,5.22171 C 3.585841,4.723873 3.652359,4.214275 3.654683,3.705904" />
      <path d="M 1.743993,4.236469 C 1.74673,4.209628 1.75542,4.142746 1.785678,4.135101" />
      <path d="M 0.202577,4.396093 C 0.234584,4.393471 0.259631,4.454792 0.268842,4.479664" />
      <path d="M 0.268842,4.479664 C 0.443082,4.947685 0.661652,5.392133 0.892514,5.813476" />
      <path d="M 1.431077,5.724688 C 1.577843,5.241089 1.692148,4.741763 1.743993,4.236469" />
      <path d="M -0.318765,4.541306 C -0.313521,4.514918 -0.298428,4.449387 -0.266343,4.445284" />
      <path d="M -1.911081,4.522905 C -1.878477,4.523954 -1.858518,4.587832 -1.851349,4.613634" />
      <path d="M -1.851349,4.613634 C -1.715705,5.099259 -1.527283,5.566828 -1.318612,6.013141" />
      <path d="M -0.759081,5.986734 C -0.575421,5.521906 -0.418008,5.038017 -0.318765,4.541306" />
      <path d="M -2.449139,4.607935 C -2.441603,4.582273 -2.420725,4.518785 -2.388127,4.518357" />
      <path d="M -4.027167,4.409429 C -3.9953,4.414141 -3.981248,4.47995 -3.976414,4.506435" />
      <path d="M -3.976414,4.506435 C -3.884918,5.004964 -3.734358,5.491789 -3.556422,5.960065" />
      <path d="M -2.998829,5.997122 C -2.785794,5.554829 -2.591718,5.090908 -2.449139,4.607935" />
      <path d="M -4.559913,4.433628 C -4.550394,4.408934 -4.524586,4.348099 -4.492809,4.351327" />
      <path d="M -6.059047,4.06031 C -6.029222,4.068527 -6.021652,4.135565 -6.019351,4.162455" />
      <path d="M -6.019351,4.162455 C -5.97575,4.668658 -5.869215,5.170089 -5.729298,5.656422" />
      <path d="M -5.196472,5.755424 C -4.962784,5.33851 -4.73999,4.898271 -4.559913,4.433628" />
      <path d="M -6.564671,4.02552 C -6.553558,4.001999 -6.523876,3.944316 -6.494222,3.951034" />
      <path d="M -7.923537,3.489843 C -7.896974,3.501263 -7.896196,3.568775 -7.896522,3.595777" />
      <path d="M -7.896522,3.595777 C -7.902602,4.104112 -7.844454,4.614898 -7.748284,5.114643" />
      <path d="M -7.262038,5.271538 C -7.017264,4.881805 -6.774874,4.467992 -6.564671,4.02552" />
      <path d="M -8.381338,3.400321 C -8.369087,3.378127 -8.336746,3.323968 -8.310428,3.333866" />
      <path d="M -9.544304,2.72138 C -9.522092,2.735571 -9.528137,2.802784 -9.531077,2.829601" />
      <path d="M -9.531077,2.829601 C -9.586588,3.334437 -9.579207,3.848946 -9.530722,4.356908" />
      <path d="M -9.110963,4.565272 C -8.865124,4.203411 -8.613061,3.817687 -8.381338,3.400321" />
      <path d="M -9.93554,2.583626 C -9.922651,2.56286 -9.888976,2.512451 -9.867072,2.525088" />
      <path d="M -10.854993,1.786384 C -10.838041,1.8028 -10.850662,1.868952 -10.856095,1.895293" />
      <path d="M -10.856095,1.895293 C -10.958765,2.391143 -11.002454,2.90359 -11.003638,3.414239" />
      <path d="M -10.667552,3.665543 C -10.430713,3.331101 -10.179296,2.97398 -9.93554,2.583626" />
      <path d="M -11.163647,1.60887 C -11.150649,1.589575 -11.117018,1.542989 -11.100424,1.557813" />
      <path d="M -11.801945,0.723134 C -11.790946,0.741137 -11.809628,0.805511 -11.817331,0.831106" />
      <path d="M -11.817331,0.831106 C -11.962956,1.312851 -12.055926,1.817534 -12.106732,2.32523" />
      <path d="M -11.868078,2.609183 C -11.649934,2.300589 -11.409457,1.971412 -11.163647,1.60887" />
      <path d="M -12.01538,0.51596 C -12.002805,0.498117 -11.970595,0.455272 -11.959991,0.471642" />
      <path d="M -12.346392,-0.424842 C -12.341797,-0.405952 -12.365773,-0.344002 -12.375432,-0.319393" />
      <path d="M -12.375432,-0.319393 C -12.55805,0.143704 -12.696495,0.63524 -12.794842,1.134463" />
      <path d="M -12.66339,1.439442 Q -12.374848,1.014969 -12.01538,0.51596" />
      <path d="M -12.45587,-0.650361 C -12.444232,-0.666827 -12.414762,-0.706169 -12.410582,-0.688959" />
      <path d="M -12.466043,-1.610545 C -12.46804,-1.591507 -12.496329,-1.532526 -12.507549,-1.509104" />
      <path d="M -12.507549,-1.509104 C -12.719684,-1.068432 -12.897936,-0.594887 -13.039797,-0.10931" />
      <path d="M -13.020929,0.204209 Q -12.787123,-0.19059 -12.45587,-0.650361" />
      <path d="M -12.467082,-1.842341 C -12.456859,-1.857566 -12.431334,-1.893783 -12.43375,-1.876474" />
      <path d="M -12.420176,-2.289393 Q -12.645776,-1.838428 -12.831569,-1.355169" />
      <path d="M -12.926058,-1.045947 Q -12.75656,-1.417835 -12.467082,-1.842341" />
      <path d="M -11.613477,-3.61056 Q -11.915196,-3.109038 -12.178682,-2.55211" />
      <path d="M -10.346651,-4.878528 Q -10.369367,-4.849046 -10.381709,-4.830352" />
      <path d="M -10.381709,-4.830352 C -10.627265,-4.469903 -10.876182,-4.071231 -11.107866,-3.651128" />
      <path d="M -8.858784,-5.778126 C -8.883748,-5.765552 -8.916683,-5.721248 -8.929203,-5.703517" />
      <path d="M -8.929203,-5.703517 C -9.166,-5.370471 -9.419,-5.000312 -9.662961,-4.60723" />
      <path d="M -7.120876,-6.462046 C -7.149552,-6.45252 -7.180258,-6.411831 -7.191801,-6.395467" />
      <path d="M -7.191801,-6.395467 C -7.410145,-6.088276 -7.656871,-5.746507 -7.90312,-5.381273" />
      <path d="M -6.664901,-6.557812 C -6.667282,-6.571762 -6.674453,-6.594106 -6.699822,-6.587403" />
      <path d="M -5.172107,-6.936529 C -5.20332,-6.930405 -5.23054,-6.893007 -5.240634,-6.877872" />
      <path d="M -5.240634,-6.877872 C -5.431585,-6.593933 -5.661936,-6.279266 -5.900392,-5.941568" />
      <path d="M -6.420112,-5.822798 C -6.546073,-6.077216 -6.636951,-6.318473 -6.664175,-6.552553" />
      <path d="M -4.667205,-6.972408 C -4.671217,-6.985217 -4.683169,-7.016157 -4.714502,-7.01197" />
      <path d="M -3.092258,-7.18215 C -3.124731,-7.179644 -3.14735,-7.145077 -3.155582,-7.130983" />
      <path d="M -3.155582,-7.130983 C -3.311323,-6.86674 -3.515868,-6.576778 -3.736768,-6.265176" />
      <path d="M -4.288647,-6.207282 C -4.454712,-6.47829 -4.591272,-6.732468 -4.667205,-6.972408" />
      <path d="M -2.559827,-7.159099 C -2.56625,-7.172501 -2.584328,-7.205147 -2.616837,-7.204587" />
      <path d="M -0.96648,-7.188852 Q -0.998684,-7.1861 -1.012228,-7.161976" />
      <path d="M -2.062272,-6.344202 C -2.261642,-6.63597 -2.438293,-6.907941 -2.559827,-7.159099" />
      <path d="M -0.428317,-7.104982 C -0.436888,-7.119236 -0.460352,-7.154241 -0.492705,-7.157366" />
      <path d="M 0.167866,-6.22795 C -0.056647,-6.543799 -0.266157,-6.837708 -0.428317,-7.104982" />
      <path d="M 1.640061,-6.812273 C 1.629692,-6.827603 1.601804,-6.865526 1.57093,-6.872242" />
      <path d="M 2.310464,-5.863287 C 2.069999,-6.205551 1.836207,-6.524643 1.640061,-6.812273" />
      <path d="M 3.560628,-6.292955 Q 3.548806,-6.310958 3.523299,-6.337462" />
      <path d="M 4.277803,-5.265142 C 4.031232,-5.635074 3.78273,-5.981565 3.560628,-6.292955" />
      <path d="M 5.989342,-4.458004 Q 5.658713,-4.995508 5.329269,-5.46241" />
      <path d="M 7.375008,-3.474915 Q 7.101028,-3.981148 6.806755,-4.435013" />
      <path d="M 8.378074,-2.356125 Q 8.15565,-2.841462 7.901012,-3.287544" />
      <path d="M -16.214957,-5.791654 Q -16.027527,-6.103336 -15.79711,-6.405808" />
      <path d="M -15.515697,-6.753106 Q -15.002911,-7.34932 -14.329552,-7.893407" />
      <path d="M -13.928758,-8.201949 Q -13.211634,-8.728294 -12.356008,-9.18552" />
      <path d="M -11.852241,-9.442675 Q -10.960139,-9.877601 -9.957276,-10.229248" />
      <path d="M -9.37116,-10.424488 Q -8.340603,-10.750189 -7.231558,-10.981861" />
      <path d="M -6.58709,-11.107192 Q -5.460268,-11.310334 -4.290448,-11.412545" />
      <path d="M -3.614011,-11.462837 Q -2.437057,-11.535103 -1.254353,-11.50367" />
      <path d="M -0.573642,-11.476863 Q 0.60526,-11.415295 1.752427,-11.251504" />
      <path d="M 2.409545,-11.148696 Q 3.54213,-10.955815 4.606795,-10.66637" />
      <path d="M 5.213417,-10.491771 Q 6.253317,-10.175473 7.191893,-9.772226" />
      <path d="M 7.723184,-9.532982 Q 8.627825,-9.106216 9.401887,-8.605676" />
      <path d="M 9.836096,-8.311583 Q 10.568442,-7.791822 11.146299,-7.21448" />
      <path d="M 11.465649,-6.877578 Q 11.938247,-6.350282 12.274453,-5.791237" />
      <path d="M 13.862099,-1.472137 Q 13.660352,-2.148932 13.394886,-2.79169" />
      <path d="M 13.556049,0.309335 Q 13.416151,-0.381563 13.202955,-1.046751" />
      <path d="M 12.614344,2.019924 Q 12.538566,1.298083 12.377408,0.594378" />
      <path d="M 11.046779,2.844594 Q 11.019003,2.440522 10.96131,2.040731" />
      <path d="M 1.839797,5.001905 C 1.885236,4.997082 1.922347,5.083536 1.936231,5.118869" />
      <path d="M 1.936231,5.118869 Q 2.179782,5.730566 2.475224,6.301549" />
      <path d="M -0.840577,6.08518 Q -0.587632,6.748645 -0.280421,7.372356" />
      <path d="M -3.82903,6.432467 Q -3.672246,6.915828 -3.483913,7.382378" />
      <path d="M -6.855102,6.202698 Q -6.753128,6.621979 -6.62544,7.031946" />
      <path d="M -9.722188,5.542018 Q -9.661639,5.941449 -9.576388,6.335404" />
      <path d="M -12.285701,4.515553 Q -12.263945,4.919703 -12.215945,5.321271" />
      <path d="M -14.424905,3.179676 Q -14.445316,3.605096 -14.436048,4.031065" />
      <path d="M -16.040314,1.59384 Q -16.110446,2.053305 -16.145804,2.517607" />
      <path d="M -17.05484,-0.177829 Q -17.185702,0.326811 -17.275217,0.842857" />
      <path d="M -17.415095,-2.068316 Q -17.621056,-1.50749 -17.778048,-0.924618" />
      <path d="M -17.091549,-4.011584 Q -17.390797,-3.382051 -17.633711,-2.712459" />
      <path d="M -15.79711,-6.405808 C -15.816183,-6.380604 -15.863168,-6.305395 -15.881592,-6.275233" />
      <path d="M -15.881592,-6.275233 C -16.228983,-5.70957 -16.557283,-5.091707 -16.848115,-4.447472" />
      <path d="M -17.103595,-4.02211 Q -17.011543,-4.307496 -16.863315,-4.606714" />
      <path d="M -15.528951,-6.710434 C -15.51927,-6.729806 -15.496201,-6.7755 -15.515697,-6.753106" />
      <path d="M -14.329552,-7.893407 C -14.35683,-7.870836 -14.404979,-7.801032 -14.423689,-7.772979" />
      <path d="M -14.423689,-7.772979 C -14.776368,-7.247087 -15.128449,-6.667875 -15.453423,-6.058624" />
      <path d="M -15.856944,-5.670699 C -15.814692,-6.008154 -15.711906,-6.347706 -15.528951,-6.710434" />
      <path d="M -13.921451,-8.159616 C -13.915192,-8.178082 -13.901104,-8.221665 -13.928758,-8.201949" />
      <path d="M -12.356008,-9.18552 C -12.390374,-9.166451 -12.437716,-9.102072 -12.455946,-9.076118" />
      <path d="M -12.455946,-9.076118 C -12.799474,-8.589776 -13.160922,-8.0511 -13.506734,-7.479955" />
      <path d="M -14.041775,-7.145349 C -14.070835,-7.482055 -14.039936,-7.814012 -13.921451,-8.159616" />
      <path d="M -11.824672,-9.39836 C -11.822092,-9.416325 -11.817562,-9.45885 -11.852241,-9.442675" />
      <path d="M -9.957276,-10.229248 C -9.997322,-10.214407 -10.041919,-10.15525 -10.058923,-10.131297" />
      <path d="M -10.058923,-10.131297 C -10.379235,-9.682668 -10.735252,-9.18475 -11.087745,-8.653276" />
      <path d="M -11.732402,-8.385688 C -11.831584,-8.729679 -11.873837,-9.062281 -11.824672,-9.39836" />
      <path d="M -9.324457,-10.375954 C -9.325662,-10.39384 -9.330875,-10.436404 -9.37116,-10.424488" />
      <path d="M -7.231558,-10.981861 C -7.275646,-10.971798 -7.315672,-10.917449 -7.330754,-10.895319" />
      <path d="M -7.330754,-10.895319 C -7.614737,-10.48102 -7.950748,-10.022415 -8.295489,-9.53055" />
      <path d="M -9.023371,-9.340935 C -9.188614,-9.699947 -9.302288,-10.041408 -9.324457,-10.375954" />
      <path d="M -6.523166,-11.052373 C -6.528105,-11.070608 -6.542848,-11.114306 -6.58709,-11.107192" />
      <path d="M -4.290448,-11.412545 C -4.336772,-11.407619 -4.370588,-11.357465 -4.38313,-11.336904" />
      <path d="M -4.38313,-11.336904 C -4.619159,-10.952146 -4.921407,-10.529801 -5.244283,-10.075862" />
      <path d="M -6.025589,-9.971983 C -6.250128,-10.353138 -6.430571,-10.711307 -6.523166,-11.052373" />
      <path d="M -3.535482,-11.399925 C -3.543955,-11.418922 -3.567624,-11.464802 -3.614011,-11.462837" />
      <path d="M -1.254353,-11.50367 C -1.301017,-11.504026 -1.327239,-11.457282 -1.336728,-11.437974" />
      <path d="M -1.336728,-11.437974 C -1.515138,-11.07676 -1.77125,-10.686134 -2.059043,-10.266887" />
      <path d="M -2.861786,-10.252996 C -3.136429,-10.66251 -3.376252,-11.044554 -3.535482,-11.399925" />
      <path d="M -0.483723,-11.404382 C -0.495382,-11.424523 -0.527008,-11.473544 -0.573642,-11.476863" />
      <path d="M 1.752427,-11.251504 C 1.707334,-11.257073 1.68978,-11.212816 1.683732,-11.19439" />
      <path d="M 1.683732,-11.19439 C 1.570244,-10.849758 1.370755,-10.485015 1.129828,-10.095804" />
      <path d="M 0.338511,-10.17247 C 0.025008,-10.615396 -0.264377,-11.027504 -0.483723,-11.404382" />
      <path d="M 2.507172,-11.065561 C 2.492805,-11.08718 2.454516,-11.140173 2.409545,-11.148696" />
      <path d="M 4.606795,-10.66637 C 4.565119,-10.676869 4.556951,-10.634073 4.554593,-10.616125" />
      <path d="M 4.554593,-10.616125 C 4.510674,-10.280435 4.375973,-9.934677 4.191775,-9.569617" />
      <path d="M 3.444282,-9.733702 C 3.104754,-10.213726 2.777654,-10.660856 2.507172,-11.065561" />
      <path d="M 5.314755,-10.397332 C 5.298268,-10.420705 5.254884,-10.478337 5.213417,-10.491771" />
      <path d="M 7.191893,-9.772226 C 7.15534,-9.787169 7.156893,-9.744749 7.158321,-9.726853" />
      <path d="M 7.158321,-9.726853 C 7.185768,-9.392099 7.121371,-9.057652 7.001443,-8.709869" />
      <path d="M 6.328376,-8.954655 C 5.976724,-9.473944 5.6253,-9.95962 5.314755,-10.397332" />
      <path d="M 7.824085,-9.427055 C 7.806152,-9.452383 7.75945,-9.515133 7.723184,-9.532982" />
      <path d="M 9.401887,-8.605676 C 9.371953,-8.624396 9.383163,-8.581251 9.388318,-8.562981" />
      <path d="M 9.388318,-8.562981 C 9.486008,-8.221119 9.494551,-7.889844 9.443804,-7.551757" />
      <path d="M 8.872718,-7.867222 C 8.523338,-8.426337 8.161978,-8.952506 7.824085,-9.427055" />
      <path d="M 9.932428,-8.194452 C 9.913784,-8.221857 9.865675,-8.289994 9.836096,-8.311583" />
      <path d="M 11.146299,-7.21448 C 11.12421,-7.236155 11.144618,-7.191214 11.153289,-7.172159" />
      <path d="M 11.153289,-7.172159 C 11.317223,-6.815434 11.398357,-6.479065 11.418867,-6.142696" />
      <path d="M 10.973143,-6.515925 C 10.640339,-7.113793 10.283837,-7.680743 9.932428,-8.194452" />
      <path d="M 11.553469,-6.749985 C 11.534877,-6.779506 11.48733,-6.853077 11.465649,-6.877578" />
      <path d="M 12.401167,-5.576837 C 12.613545,-5.211335 12.757607,-4.872642 12.845773,-4.540371" />
      <path d="M 12.543658,-4.956084 C 12.241055,-5.59005 11.904006,-6.1964 11.553469,-6.749985" />
      <path d="M 13.519967,-3.251561 C 13.262425,-3.91115 12.961958,-4.547967 12.630416,-5.135842" />
      <path d="M 8.401979,4.526467 L 8.401868,4.526462" />
      <path d="M 8.814248,5.643839 L 8.81423,5.643839" />
      <path d="M 8.732346,5.252175 C 9.533479,5.175552 10.320219,5.043062 11.072629,4.866489" />
      <path d="M 8.0462,7.262613 L 8.044118,7.262351" />
      <path d="M 13.157196,7.0032 C 13.00927,7.029664 12.860702,7.05439 12.71149,7.077379 C 11.245462,7.303091 9.719073,7.360594 8.188088,7.218613" />
      <path d="M 7.775937,8.24667 L 7.775731,8.246627" />
      <path d="M 11.536585,11.234165 C 11.406354,11.217628 11.276123,11.201092 11.145892,11.184555 C 9.5796,10.970453 8.026457,10.564874 6.557591,9.972218" />
      <path d="M 9.803049,13.612746 Q 9.143367,13.406957 8.494228,13.153308" />
      <path d="M 5.109441,10.328573 L 5.108559,10.327907" />
      <path d="M 4.44252,10.669378 L 4.442479,10.669334" />
      <path d="M 2.211997,10.462725 L 2.416718,10.839161" />
      <path d="M 4.449779,10.659039 L 4.449752,10.659" />
      <path d="M 4.189039,5.492852 L 4.185926,5.488778" />
      <path d="M 3.965529,5.282008 C 4.093055,5.468021 4.187607,5.650857 4.221751,5.729895 C 4.233051,5.756067 4.238477,5.768987 4.238031,5.768653" />
      <path d="M 4.677014,4.422655 L 4.727198,4.472689" />
      <path d="M 8.126651,5.102663 L 8.126645,5.102658" />
      <path d="M 6.36515,4.172098 L 6.364049,4.171756" />
      <path d="M 6.834647,3.144664 L 6.834642,3.144661" />
      <path d="M 3.967758,5.285295 Q 3.895491,5.757684 3.783417,6.226047" />
      <path d="M 1.717527,4.456491 L 1.717539,4.456458" />
      <path d="M 1.741691,4.359187 C 1.676799,4.93697 1.536512,5.514917 1.354024,6.085791" />
      <path d="M -0.284247,4.454902 L -0.283998,4.454656" />
      <path d="M -5.97597,4.5366 L -5.975967,4.5366" />
      <path d="M -4.499696,4.35157 L -4.499527,4.351541" />
      <path d="M -7.890299,3.959323 L -7.890294,3.959324" />
      <path d="M -6.500035,3.950477 L -6.49989,3.950472" />
      <path d="M -9.561485,3.214156 L -9.56148,3.214157" />
      <path d="M -8.315764,3.332674 L -8.31563,3.332684" />
      <path d="M -10.929664,2.321242 L -10.929662,2.321242" />
      <path d="M -9.872076,2.523247 L -9.871951,2.523269" />
      <path d="M -11.104977,1.555274 L -11.104864,1.555305" />
      <path d="M -11.963778,0.468378 L -11.963683,0.468415" />
      <path d="M -12.413116,-0.692901 L -12.413047,-0.692865" />
      <path d="M -16.518363,-5.135626 L -16.518357,-5.13562" />
      <path d="M -12.434363,-1.880922 L -12.434327,-1.880897" />
      <path d="M -15.508319,-6.758958 L -15.508282,-6.758909" />
      <path d="M -11.768438,-8.520421 Q -11.701431,-8.247102 -11.626921,-7.975928" />
      <path d="M -9.312576,-10.121934 L -9.313695,-10.142408" />
      <path d="M -9.312045,-10.112369 C -9.220436,-8.459267 -8.911024,-6.819469 -8.388472,-5.26295" />
      <path d="M -6.676882,-6.655935 L -6.66251,-6.538767" />
      <path d="M -1.592915,-10.977734 C -1.648425,-10.886879 -1.752898,-10.707336 -1.86874,-10.482894" />
      <path d="M -1.682094,-10.834181 L -1.68217,-10.834041" />
      <path d="M -0.616649,-7.878637 C -0.62568,-7.864776 -0.646422,-7.830892 -0.678874,-7.776986 C -0.7649,-7.633518 -0.906515,-7.380625 -1.050117,-7.084994" />
      <path d="M 1.703777,-11.232302 L 1.70329,-11.231738" />
      <path d="M 4.573366,-10.660482 L 4.573136,-10.660286" />
      <path d="M 12.206729,-5.624543 L 12.206722,-5.624541" />
      <path d="M -16.214956,-5.791655 Q -16.563235,-5.212451 -16.863315,-4.606714" />
      <path d="M 12.27445,-5.791241 L 12.40117,-5.576831" />
    </g>
  </g>
</svg>