<?xml version='1.0' encoding='utf-8'?>
<svg width="100.09mm" height="85.537915mm" viewBox="-17.550725 -15.683714 31.666698 27.062677" version="1.1" xmlns="http://www.w3.org/2000/svg">
  <g transform="scale(1,-1)" stroke-linecap="round">
    <g fill="none" stroke="rgb(0,0,0)" stroke-width="0.028474401371257462" id="Visible">
      <path d="M 11.875237,3.307315 Q 12.053301,3.37409 12.217623,3.466341" />
      <path d="M 12.217623,3.466341 C 12.276135,3.795153 12.305063,4.151885 12.288029,4.502406 C 12.280956,4.659913 12.261431,4.811142 12.229452,4.956094" />
      <path d="M 12.229452,4.956094 Q 12.152394,5.138735 12.099626,5.343174" />
      <path d="M 13.403322,4.861504 Q 13.486381,5.060334 13.549705,5.27759" />
      <path d="M 13.549705,5.27759 C 13.4945,5.618873 13.410681,5.967497 13.298971,6.278978 C 13.249071,6.419436 13.193516,6.544883 13.132307,6.655319" />
      <path d="M 13.132307,6.655319 C 13.077719,6.717307 13.023862,6.789305 12.970737,6.871314 C 12.926205,6.939799 12.885302,7.017106 12.848031,7.103237 C 12.80591,7.202155 12.77391,7.319553 12.783798,7.398825" />
      <path d="M 12.783798,7.398825 Q 12.8017,7.554852 12.807592,7.718628" />
      <path d="M 13.397521,7.590802 C 13.516224,7.56377 13.614541,7.591659 13.689287,7.64949" />
      <path d="M 13.689287,7.64949 Q 13.655085,7.9271 13.600443,8.211146" />
      <path d="M 13.600443,8.211146 C 13.468218,8.486214 13.316943,8.746615 13.16261,8.948479 C 13.093162,9.040026 13.026139,9.111713 12.961542,9.163541" />
      <path d="M 12.961542,9.163541 C 12.918087,9.171629 12.870173,9.191959 12.8178,9.22453 C 12.773992,9.25157 12.727589,9.292164 12.678592,9.346312 C 12.622613,9.409151 12.562497,9.502499 12.534058,9.597067" />
      <path d="M 12.534058,9.597067 Q 12.454802,9.85552 12.354388,10.11348" />
      <path d="M 12.354388,10.11348 C 12.301512,10.24917 12.32705,10.332775 12.369298,10.361473" />
      <path d="M 12.547145,10.354613 C 12.639122,10.38656 12.672507,10.525048 12.675024,10.682881 C 12.675731,10.757917 12.669559,10.838368 12.656507,10.924235" />
      <path d="M 12.656507,10.924235 Q 12.51421,11.206239 12.356243,11.480966" />
      <path d="M 12.356243,11.480966 C 12.306626,11.529414 12.25723,11.573668 12.208055,11.613728 C 12.060073,11.733561 11.909218,11.821715 11.801828,11.817534" />
      <path d="M 11.462049,11.792932 Q 11.440641,11.816496 11.420554,11.844934" />
      <path d="M 11.420554,11.844934 Q 11.258225,12.074136 11.082788,12.287916" />
      <path d="M 11.082788,12.287916 C 11.033513,12.347323 10.995536,12.42026 10.973735,12.483222 C 10.954661,12.539827 10.9439,12.589879 10.941452,12.633376 C 10.935373,12.724818 10.95452,12.785362 10.983879,12.830395" />
      <path d="M 10.983879,12.830395 C 10.979293,12.989724 10.887964,13.229598 10.769553,13.468153 C 10.71336,13.580722 10.650747,13.694096 10.581716,13.808275" />
      <path d="M 10.581716,13.808275 Q 10.369451,14.01911 10.150487,14.210904" />
      <path d="M 10.150487,14.210904 Q 10.1127,14.209097 10.078065,14.200253" />
      <path d="M 9.17072,13.944002 C 9.077462,14.064055 9.016151,14.189936 8.97485,14.296528 C 8.953084,14.353821 8.935688,14.408501 8.922662,14.460567" />
      <path d="M 8.922662,14.460567 C 8.801869,14.692427 8.587917,14.956376 8.358256,15.19889 C 8.249911,15.312825 8.137443,15.422806 8.020851,15.528832" />
      <path d="M 8.020851,15.528832 Q 7.795495,15.612005 7.574205,15.669476" />
      <path d="M 6.649833,15.043436 C 6.347846,15.277244 5.99933,15.473204 5.660095,15.624885" />
      <path d="M 5.660095,15.624885 Q 5.482032,15.558111 5.31771,15.465859" />
      <path d="M 4.264584,14.069641 L 4.13201,14.070697" />
      <path d="M 8.17099,3.289218 C 8.065822,3.306613 7.957004,3.325352 7.844505,3.345133" />
      <path d="M 7.720126,3.298428 Q 7.783467,3.319532 7.844505,3.345133" />
      <path d="M 7.59134,3.260788 Q 7.656791,3.277329 7.720126,3.298428" />
      <path d="M 8.06669,3.204653 C 7.917627,3.218925 7.759246,3.238039 7.59134,3.260788" />
      <path d="M 8.588655,4.356494 C 8.369744,4.361019 8.139833,4.369118 7.898757,4.378939" />
      <path d="M 7.844505,3.345133 C 7.918064,3.665876 7.957503,4.051366 7.898757,4.378939" />
      <path d="M 8.198103,5.01457 C 8.079662,5.008926 7.958944,5.003649 7.835931,4.998547" />
      <path d="M 7.898757,4.378939 C 7.868913,4.458265 7.843874,4.540677 7.823638,4.626177 C 7.807628,4.693637 7.797965,4.760709 7.79465,4.827393 C 7.791455,4.903796 7.803395,4.974445 7.835931,4.998547" />
      <path d="M 8.084494,5.163983 C 8.059574,5.163537 8.034571,5.163087 8.009485,5.162632" />
      <path d="M 7.835931,4.998547 Q 7.929237,5.071249 8.009485,5.162632" />
      <path d="M 8.009485,5.162632 Q 8.023888,5.179042 8.042861,5.179181" />
      <path d="M 8.042861,5.179181 C 8.088956,5.179152 8.143056,5.113444 8.185296,5.038137 C 8.230984,4.954299 8.268901,4.860717 8.299047,4.757391" />
      <path d="M 11.875237,3.307315 C 11.095409,3.535211 10.044258,3.901892 8.756308,4.20719" />
      <path d="M 8.299047,4.757391 C 8.430476,4.498485 8.610559,4.320636 8.756308,4.20719" />
      <path d="M 12.217623,3.466341 C 11.357286,3.763266 10.229574,4.166096 8.879006,4.478202" />
      <path d="M 8.756308,4.20719 Q 8.82438,4.335815 8.879006,4.478202" />
      <path d="M 12.229452,4.956094 C 11.222556,5.120686 10.007626,5.344429 8.61951,5.465221" />
      <path d="M 8.879006,4.478202 C 8.848319,4.730932 8.793868,4.997974 8.715719,5.231026 C 8.686773,5.31782 8.654703,5.395886 8.61951,5.465221" />
      <path d="M 9.385792,5.989457 C 9.063165,5.999587 8.731466,6.00562 8.39108,6.00549" />
      <path d="M 8.61951,5.465221 C 8.579392,5.515572 8.540489,5.573274 8.502801,5.638329 C 8.473035,5.689629 8.446624,5.745955 8.423568,5.807308 C 8.397493,5.878075 8.381213,5.955877 8.39108,6.00549" />
      <path d="M 8.590237,6.309506 C 8.536662,6.309321 8.482905,6.308965 8.428967,6.308431" />
      <path d="M 8.39108,6.00549 Q 8.418197,6.151253 8.428967,6.308431" />
      <path d="M 8.428967,6.308431 Q 8.435851,6.376177 8.47839,6.374695" />
      <path d="M 8.47839,6.374695 C 8.548746,6.370016 8.634142,6.272383 8.706895,6.163934" />
      <path d="M 13.403322,4.861504 C 12.937715,5.051869 12.442061,5.234612 11.920494,5.401415" />
      <path d="M 11.920494,5.401415 C 11.040201,5.682942 10.086094,5.919058 9.078056,6.069769" />
      <path d="M 8.706895,6.163934 C 8.78811,6.087597 8.867861,6.057271 8.936162,6.048796" />
      <path d="M 8.936162,6.048796 Q 9.017604,6.040383 9.078056,6.069769" />
      <path d="M 13.549705,5.27759 C 12.217536,5.80874 10.685088,6.251354 9.03741,6.454832" />
      <path d="M 9.078056,6.069769 Q 9.064959,6.259442 9.03741,6.454832" />
      <path d="M 13.132307,6.655319 C 11.742892,6.965084 10.211379,7.175906 8.600736,7.169641" />
      <path d="M 9.03741,6.454832 C 8.945621,6.666051 8.835126,6.873303 8.722398,7.028986 C 8.68048,7.08712 8.639926,7.134006 8.600736,7.169641" />
      <path d="M 12.783798,7.398825 C 11.383635,7.564717 9.873952,7.633847 8.302558,7.505989" />
      <path d="M 8.600736,7.169641 C 8.566754,7.180823 8.529872,7.201535 8.49009,7.231777 C 8.458695,7.255588 8.426414,7.28829 8.393247,7.329885 C 8.355219,7.378349 8.318061,7.444192 8.302558,7.505989" />
      <path d="M 11.027493,7.975104 C 10.105316,8.003161 9.157427,7.973443 8.194627,7.866613" />
      <path d="M 8.302558,7.505989 Q 8.256221,7.685757 8.194627,7.866613" />
      <path d="M 8.452006,8.008297 C 8.418617,8.006098 8.385215,8.003798 8.351801,8.001397" />
      <path d="M 8.194627,7.866613 C 8.156024,7.980875 8.196062,8.031763 8.242645,8.033905" />
      <path d="M 8.242645,8.033905 Q 8.291583,8.036682 8.351801,8.001397" />
      <path d="M 13.689287,7.64949 C 12.017464,8.142348 10.247057,8.404582 8.470372,8.34945" />
      <path d="M 8.351801,8.001397 C 8.453474,8.016987 8.482532,8.179338 8.470372,8.34945" />
      <path d="M 13.600443,8.211146 C 11.869324,8.66873 10.064753,8.870593 8.277274,8.745385" />
      <path d="M 8.470372,8.34945 Q 8.379616,8.549347 8.277274,8.745385" />
      <path d="M 12.961542,9.163541 C 12.75933,9.187522 12.556664,9.208268 12.35365,9.225694" />
      <path d="M 12.35365,9.225694 C 10.889649,9.351359 9.407507,9.304376 7.946528,9.052875" />
      <path d="M 7.946528,9.052875 C 7.914475,9.047357 7.882433,9.041741 7.850401,9.036026" />
      <path d="M 8.277274,8.745385 C 8.165073,8.867874 8.045304,8.969799 7.944461,9.015869 C 7.907576,9.032927 7.875737,9.039564 7.848945,9.035781" />
      <path d="M 7.848945,9.035781 L 7.847466,9.035502" />
      <path d="M 12.534058,9.597067 C 10.884833,9.645968 9.223604,9.493007 7.594084,9.097987" />
      <path d="M 7.847466,9.035502 Q 7.82587,8.988839 7.779487,8.977103" />
      <path d="M 7.779487,8.977103 C 7.737781,8.966462 7.660441,8.995979 7.594084,9.097987" />
      <path d="M 12.354388,10.11348 C 10.66763,10.108883 8.992822,9.88622 7.369254,9.419665" />
      <path d="M 7.594084,9.097987 Q 7.486709,9.26359 7.369254,9.419665" />
      <path d="M 12.547145,10.354613 C 11.599574,10.395837 10.658643,10.362174 9.732102,10.251095" />
      <path d="M 9.732102,10.251095 C 8.918184,10.153518 8.11537,9.996202 7.328912,9.777431" />
      <path d="M 7.369254,9.419665 C 7.302201,9.508606 7.280723,9.609995 7.285445,9.668577 C 7.289992,9.719172 7.304481,9.755457 7.328912,9.777431" />
      <path d="M 12.656507,10.924235 C 10.728204,11.100759 8.852285,10.936427 7.096084,10.435392" />
      <path d="M 7.328912,9.777431 C 7.331476,9.815173 7.326377,9.860855 7.313616,9.914477 C 7.278035,10.065827 7.19566,10.254254 7.096084,10.435392" />
      <path d="M 12.356243,11.480966 C 10.405952,11.576904 8.534787,11.321991 6.802274,10.73611" />
      <path d="M 7.096084,10.435392 Q 6.951987,10.591952 6.802274,10.73611" />
      <path d="M 6.802274,10.73611 Q 6.731676,10.745063 6.673566,10.723699" />
      <path d="M 6.673566,10.723699 C 6.614767,10.700813 6.565303,10.653348 6.561538,10.562847" />
      <path d="M 11.420554,11.844934 C 11.121214,11.801406 10.82464,11.75063 10.530907,11.692723" />
      <path d="M 6.587178,10.416302 C 6.543195,10.396018 6.4993,10.375554 6.455493,10.354908" />
      <path d="M 6.561538,10.562847 C 6.591828,10.45958 6.604028,10.356786 6.549613,10.326983" />
      <path d="M 6.549613,10.326983 Q 6.516381,10.310391 6.455493,10.354908" />
      <path d="M 11.082788,12.287916 C 9.327292,11.947325 7.689038,11.356558 6.174009,10.551447" />
      <path d="M 6.455493,10.354908 Q 6.315851,10.461974 6.174009,10.551447" />
      <path d="M 10.983879,12.830395 C 9.145667,12.500456 7.451764,11.877808 5.912312,11.016151" />
      <path d="M 6.174009,10.551447 C 6.093139,10.602304 6.018152,10.720208 5.97862,10.808929 C 5.944729,10.885936 5.922626,10.95501 5.912312,11.016151" />
      <path d="M 10.581716,13.808275 C 8.629547,13.455693 6.872762,12.746892 5.323433,11.768671" />
      <path d="M 5.912312,11.016151 C 5.884865,11.075024 5.848696,11.137805 5.803806,11.204493 C 5.677233,11.393209 5.502921,11.592524 5.323433,11.768671" />
      <path d="M 10.150487,14.210904 C 9.777643,14.122686 9.412874,14.021476 9.056181,13.907986" />
      <path d="M 9.056181,13.907986 C 7.565562,13.433712 6.215993,12.74497 5.007636,11.893594" />
      <path d="M 5.323433,11.768671 Q 5.164605,11.839943 5.007636,11.893594" />
      <path d="M 5.007636,11.893594 C 4.980617,11.763603 4.981308,11.570763 5.087514,11.342426" />
      <path d="M 5.251554,10.985821 C 5.231627,10.970568 5.211732,10.955282 5.191871,10.939963" />
      <path d="M 5.087514,11.342426 C 5.135679,11.276695 5.175442,11.212215 5.206805,11.148986 C 5.247008,11.066679 5.271099,10.9781 5.233205,10.947538" />
      <path d="M 5.233205,10.947538 Q 5.218354,10.9361 5.191871,10.939963" />
      <path d="M 5.192015,11.178064 C 5.10369,11.105545 5.016074,11.032416 4.929154,10.9587" />
      <path d="M 5.191871,10.939963 Q 5.057378,10.959803 4.929154,10.9587" />
      <path d="M 8.922662,14.460567 C 7.537851,13.791667 6.30794,12.963681 5.207709,12.032186" />
      <path d="M 5.000037,11.853812 C 4.82387,11.700317 4.651085,11.544181 4.481576,11.385642" />
      <path d="M 4.929154,10.9587 C 4.856154,10.957855 4.740294,11.056338 4.659789,11.147166 C 4.590208,11.226263 4.530804,11.305755 4.481576,11.385642" />
      <path d="M 8.020851,15.528832 C 6.283826,14.576148 4.8389,13.350864 3.627397,11.992034" />
      <path d="M 4.481576,11.385642 C 4.265345,11.621854 3.932356,11.83834 3.627397,11.992034" />
      <path d="M 7.574205,15.669476 C 5.895908,14.616719 4.519662,13.314839 3.374233,11.90769" />
      <path d="M 3.627397,11.992034 Q 3.496397,11.958921 3.374233,11.90769" />
      <path d="M 3.374233,11.90769 C 3.465034,11.682685 3.605458,11.401964 3.82036,11.165351" />
      <path d="M 4.154516,10.710931 C 4.150276,10.706083 4.146038,10.701235 4.141803,10.696386" />
      <path d="M 3.82036,11.165351 C 3.892456,11.110637 3.958253,11.051966 4.017751,10.989336 C 4.110125,10.892554 4.195127,10.759374 4.148876,10.702985" />
      <path d="M 4.148876,10.702985 L 4.141803,10.696386" />
      <path d="M 4.159595,10.766467 C 4.095276,10.688488 4.031501,10.610425 3.968249,10.532301" />
      <path d="M 4.141803,10.696386 Q 4.048497,10.623684 3.968249,10.532301" />
      <path d="M 3.749381,11.247195 C 3.637515,11.093888 3.527792,10.940403 3.42007,10.786899" />
      <path d="M 3.968249,10.532301 C 3.922694,10.47999 3.789549,10.528319 3.682332,10.59266 C 3.589372,10.648963 3.501951,10.713709 3.42007,10.786899" />
      <path d="M 5.660095,15.624885 C 4.345587,14.190288 3.335525,12.647607 2.511151,11.135369" />
      <path d="M 2.511151,11.135369 C 2.494838,11.105445 2.478598,11.075532 2.462429,11.045632" />
      <path d="M 3.42007,10.786899 C 3.132465,10.954833 2.772557,11.027936 2.462429,11.045632" />
      <path d="M 5.31771,15.465859 C 4.334233,14.270075 3.541241,13.025844 2.87409,11.801343" />
      <path d="M 2.462429,11.045632 Q 2.394358,10.917007 2.339732,10.77462" />
      <path d="M 2.339732,10.77462 C 2.49056,10.591871 2.673111,10.399447 2.872625,10.23709 C 2.946659,10.176558 3.02232,10.123885 3.099607,10.079069" />
      <path d="M 3.099607,10.079069 C 3.181978,10.05333 3.261638,10.019369 3.338588,9.977184 C 3.399327,9.943926 3.454112,9.904127 3.502943,9.857788 C 3.558427,9.804151 3.596946,9.739304 3.586654,9.689443" />
      <path d="M 3.586654,9.689443 Q 3.559537,9.543679 3.548767,9.386502" />
      <path d="M 3.321719,9.986431 C 3.216388,9.781822 3.113372,9.579702 3.012222,9.380356" />
      <path d="M 3.548767,9.386502 Q 3.547342,9.364635 3.536757,9.347363" />
      <path d="M 3.536757,9.347363 C 3.500928,9.289944 3.402408,9.281354 3.308157,9.293988 C 3.210394,9.308722 3.111749,9.337511 3.012222,9.380356" />
      <path d="M 4.13201,14.070697 C 4.011044,13.827516 3.895162,13.585914 3.783902,13.346183" />
      <path d="M 2.605085,10.480952 C 2.440396,10.034722 2.286898,9.601268 2.140682,9.183053" />
      <path d="M 3.012222,9.380356 C 2.709385,9.422825 2.394902,9.318924 2.140682,9.183053" />
      <path d="M 2.140682,9.183053 Q 2.153779,8.99338 2.181327,8.797991" />
      <path d="M 2.181327,8.797991 C 2.393258,8.656752 2.631852,8.524118 2.865946,8.43913 C 2.952952,8.407258 3.037097,8.385765 3.118381,8.374649" />
      <path d="M 3.118381,8.374649 C 3.194616,8.388079 3.272255,8.391108 3.351299,8.383736 C 3.413668,8.377967 3.474323,8.361792 3.533264,8.335211 C 3.600701,8.303877 3.660098,8.250989 3.675176,8.188944" />
      <path d="M 3.675176,8.188944 Q 3.721513,8.009176 3.783107,7.82832" />
      <path d="M 3.663639,8.219929 C 3.564732,7.98649 3.466315,7.760734 3.367316,7.542893" />
      <path d="M 3.783107,7.82832 Q 3.803355,7.764327 3.772073,7.709727" />
      <path d="M 3.772073,7.709727 Q 3.725981,7.636236 3.637526,7.599129 Q 3.51347,7.547421 3.367316,7.542893" />
      <path d="M 3.134928,8.377228 C 3.005085,7.845012 2.879618,7.353109 2.748366,6.903372" />
      <path d="M 3.367316,7.542893 C 3.300325,7.515948 3.236653,7.478441 3.1763,7.430371 C 3.004925,7.294945 2.860887,7.102423 2.748366,6.903372" />
      <path d="M 2.748366,6.903372 Q 2.839122,6.703475 2.941464,6.507437" />
      <path d="M 2.941464,6.507437 C 3.173806,6.45493 3.421675,6.427622 3.643883,6.452246 C 3.726588,6.461094 3.802511,6.479941 3.871651,6.508788" />
      <path d="M 3.871651,6.508788 C 3.926984,6.561086 3.987259,6.603475 4.052477,6.635955 C 4.103914,6.661638 4.157988,6.675635 4.214699,6.677946 C 4.27996,6.679606 4.347299,6.654584 4.38365,6.596946" />
      <path d="M 4.38365,6.596946 Q 4.491025,6.431343 4.608479,6.275268" />
      <path d="M 4.641093,6.201663 C 4.560521,6.049297 4.47713,5.904425 4.390204,5.766859" />
      <path d="M 4.608479,6.275268 C 4.643617,6.22972 4.652065,6.166139 4.64099,6.106942 C 4.628111,6.045235 4.603417,5.989341 4.566906,5.939259" />
      <path d="M 4.566906,5.939259 Q 4.492866,5.837745 4.390204,5.766859" />
      <path d="M 4.595064,6.293169 C 4.579065,6.218164 4.562686,6.144782 4.545875,6.073004" />
      <path d="M 4.390204,5.766859 L 4.363422,5.726764" />
      <path d="M 4.363422,5.726764 C 4.218298,5.484774 4.152019,5.13718 4.122653,4.81743" />
      <path d="M 4.122653,4.81743 Q 4.266751,4.66087 4.416463,4.516712" />
      <path d="M 5.158092,4.981969 C 5.157921,4.981794 5.15775,4.981618 5.157579,4.981443" />
      <path d="M 4.416463,4.516712 C 4.660386,4.587963 4.909697,4.707041 5.084704,4.890135" />
      <path d="M 5.084704,4.890135 Q 5.125135,4.933139 5.157579,4.981443" />
      <path d="M 5.157579,4.981443 C 5.198997,5.107527 5.252692,5.226481 5.336397,5.306762" />
      <path d="M 5.336397,5.306762 C 5.391411,5.359608 5.464664,5.385524 5.522241,5.340024" />
      <path d="M 5.522241,5.340024 Q 5.661883,5.232958 5.803725,5.143486" />
      <path d="M 5.803725,5.143486 C 5.884714,5.092698 5.904047,4.942376 5.889007,4.821868 C 5.875628,4.717325 5.848227,4.619416 5.806805,4.528139" />
      <path d="M 5.806805,4.528139 C 5.793718,4.445655 5.787931,4.358435 5.789443,4.266479 C 5.793121,4.006179 5.837643,3.731261 5.895305,3.484151" />
      <path d="M 6.23853,3.367361 C 6.229444,3.364601 6.220301,3.36189 6.211101,3.359228" />
      <path d="M 5.895305,3.484151 Q 6.054133,3.412879 6.211101,3.359228" />
      <path d="M 6.851766,4.268074 C 6.780406,4.244462 6.70704,4.222433 6.631602,4.201864" />
      <path d="M 6.211101,3.359228 C 6.402481,3.584958 6.581653,3.882567 6.631602,4.201864" />
      <path d="M 6.631602,4.201864 C 6.625691,4.292207 6.626685,4.380428 6.634583,4.466527 C 6.646576,4.590879 6.683884,4.728805 6.757579,4.75305" />
      <path d="M 6.757579,4.75305 Q 6.771365,4.757198 6.785863,4.75497" />
      <path d="M 6.785863,4.75497 Q 6.920356,4.73513 7.04858,4.736233" />
      <path d="M 7.04858,4.736233 C 7.1217,4.737147 7.181905,4.606246 7.207839,4.48363 C 7.230148,4.376998 7.240049,4.268671 7.237541,4.158648" />
      <path d="M 7.237541,4.158648 C 7.297596,3.831464 7.45076,3.510232 7.59134,3.260788" />
      <path d="M 7.34282,5.34718 A 2.8637893902790688,1.7027633835025329 -59.77946097009659 0,0 4.844501,10.469836 A 2.8637893902790688,1.7027633835025329 -59.77946097009659 0,0 7.34282,5.34718" />
      <path d="M 14.099364,-0.675748 Q 14.095887,-0.562768 14.08732,-0.449884" />
      <path d="M 13.435808,-0.500042 Q 13.65811,0.182579 13.802807,0.892982" />
      <path d="M 13.802807,0.892982 Q 13.725117,1.114735 13.627545,1.333986" />
      <path d="M 12.615565,1.131774 Q 12.788609,1.86423 12.868436,2.617139" />
      <path d="M 12.868436,2.617139 Q 12.713003,2.825552 12.53899,3.029264" />
      <path d="M 11.206328,2.559366 Q 11.277118,3.016645 11.308433,3.47982" />
      <path d="M 2.776246,6.999831 Q 2.465878,6.407582 2.210925,5.770601" />
      <path d="M 2.210925,5.770601 C 2.197011,5.73519 2.159703,5.647904 2.113983,5.652834" />
      <path d="M 2.113983,5.652834 L 2.094786,5.655685" />
      <path d="M 0.792501,7.964737 Q 0.395942,8.00076 -0.003353,8.025424" />
      <path d="M -0.003353,8.025424 Q -0.279535,7.465642 -0.513511,6.873403" />
      <path d="M -2.405518,8.070531 Q -2.806847,8.060901 -3.206792,8.039834" />
      <path d="M -3.206792,8.039834 Q -3.383325,7.603819 -3.532703,7.152906" />
      <path d="M -5.575922,7.811938 Q -5.965591,7.757049 -6.349812,7.691114" />
      <path d="M -6.349812,7.691114 Q -6.471678,7.301304 -6.570502,6.902932" />
      <path d="M -8.588915,7.199545 Q -8.950969,7.101644 -9.303737,6.99354" />
      <path d="M -9.303737,6.99354 Q -9.38609,6.614931 -9.445768,6.231153" />
      <path d="M -11.321143,6.258423 Q -11.640761,6.121518 -11.947633,5.975672" />
      <path d="M -11.947633,5.975672 Q -11.994553,5.58668 -12.01695,5.195166" />
      <path d="M -13.660749,5.027103 Q -13.924846,4.856799 -14.173258,4.67918" />
      <path d="M -14.173258,4.67918 Q -14.182744,4.263776 -14.164072,3.848803" />
      <path d="M -15.51195,3.555993 Q -15.709713,3.359263 -15.889496,3.157143" />
      <path d="M -15.889496,3.157143 Q -15.855278,2.701497 -15.787596,2.250429" />
      <path d="M -16.798957,1.905323 Q -16.92229,1.690219 -17.026083,1.471875" />
      <path d="M -17.026083,1.471875 Q -16.938186,0.962192 -16.809914,0.463589" />
      <path d="M -17.469079,0.142669 Q -17.512934,-0.082 -17.536488,-0.307631" />
      <path d="M -17.536488,-0.307631 Q -17.380872,-0.88734 -17.176679,-1.445208" />
      <path d="M -17.494883,-1.659803 Q -17.457463,-1.884841 -17.399813,-2.108521" />
      <path d="M -17.399813,-2.108521 Q -17.156725,-2.779901 -16.856756,-3.410766" />
      <path d="M -16.652567,-3.97028 Q -16.788464,-3.693284 -16.875311,-3.428302" />
      <path d="M -16.875311,-3.428302 Q -16.758148,-3.644494 -16.621656,-3.857066" />
      <path d="M -16.621656,-3.857066 C -16.33148,-4.500346 -16.003767,-5.11716 -15.656711,-5.681586" />
      <path d="M -15.656711,-5.681586 C -15.63825,-5.711781 -15.590893,-5.78754 -15.57178,-5.81313" />
      <path d="M -15.57178,-5.81313 Q -15.43888,-5.990012 -15.291847,-6.163316" />
      <path d="M -15.291847,-6.163316 Q -15.285253,-6.170921 -15.284512,-6.169295" />
      <path d="M -15.284512,-6.169295 C -15.282529,-6.166237 -15.298018,-6.135767 -15.305661,-6.120737" />
      <path d="M -15.305661,-6.120737 C -15.489152,-5.760925 -15.592669,-5.42457 -15.635729,-5.090424" />
      <path d="M -15.635729,-5.090424 Q -15.44362,-5.28892 -15.233873,-5.481681" />
      <path d="M -15.233873,-5.481681 C -14.909426,-6.089794 -14.557774,-6.667736 -14.205241,-7.192133" />
      <path d="M -14.205241,-7.192133 C -14.186492,-7.220199 -14.137987,-7.290473 -14.110604,-7.313403" />
      <path d="M -14.110604,-7.313403 Q -13.917144,-7.471611 -13.71112,-7.624714" />
      <path d="M -13.71112,-7.624714 Q -13.697922,-7.633833 -13.69572,-7.627015" />
      <path d="M -13.69572,-7.627015 C -13.692092,-7.618747 -13.699895,-7.595045 -13.704267,-7.582533" />
      <path d="M -13.704267,-7.582533 C -13.823384,-7.240035 -13.85509,-6.911418 -13.826886,-6.578122" />
      <path d="M -13.826886,-6.578122 Q -13.567696,-6.750796 -13.29328,-6.915854" />
      <path d="M -13.29328,-6.915854 C -12.947846,-7.485637 -12.586651,-8.022792 -12.243073,-8.507359" />
      <path d="M -12.243073,-8.507359 C -12.224805,-8.533307 -12.177136,-8.598078 -12.142606,-8.617466" />
      <path d="M -12.142606,-8.617466 Q -11.896506,-8.750523 -11.639925,-8.877157" />
      <path d="M -11.639925,-8.877157 Q -11.614003,-8.887111 -11.611884,-8.866295" />
      <path d="M -11.611884,-8.866295 Q -11.60962,-8.848091 -11.612685,-8.833026" />
      <path d="M -11.612685,-8.833026 Q -11.662816,-8.479027 -11.592844,-8.122456" />
      <path d="M -11.592844,-8.122456 Q -11.565617,-7.977605 -11.522835,-7.830489" />
      <path d="M -11.522835,-7.830489 Q -11.207176,-7.970271 -10.879326,-8.100869" />
      <path d="M -10.879326,-8.100869 C -10.527047,-8.630731 -10.171096,-9.126852 -9.850539,-9.573419" />
      <path d="M -9.850539,-9.573419 C -9.833499,-9.597347 -9.78862,-9.656822 -9.748355,-9.67193" />
      <path d="M -9.748355,-9.67193 Q -9.45969,-9.77439 -9.163057,-9.86937" />
      <path d="M -9.163057,-9.86937 C -9.122573,-9.881503 -9.117668,-9.838821 -9.116546,-9.821019" />
      <path d="M -9.116546,-9.821019 C -9.095119,-9.489817 -8.982303,-9.151821 -8.817906,-8.796253" />
      <path d="M -8.817906,-8.796253 Q -8.458699,-8.897422 -8.090839,-8.988212" />
      <path d="M -8.090839,-8.988212 C -7.746136,-9.478194 -7.410002,-9.934716 -7.125591,-10.346668" />
      <path d="M -7.125591,-10.346668 C -7.110476,-10.368756 -7.070223,-10.42336 -7.025872,-10.433627" />
      <path d="M -7.025872,-10.433627 Q -6.706461,-10.501293 -6.38192,-10.560732" />
      <path d="M -6.38192,-10.560732 C -6.33743,-10.568003 -6.32291,-10.524209 -6.318042,-10.506064" />
      <path d="M -6.318042,-10.506064 C -6.226199,-10.168381 -6.046589,-9.813653 -5.822837,-9.435877" />
      <path d="M -5.822837,-9.435877 Q -5.43479,-9.494289 -5.041978,-9.541556" />
      <path d="M -5.041978,-9.541556 C -4.718964,-9.993332 -4.416409,-10.413309 -4.179787,-10.795449" />
      <path d="M -4.179787,-10.795449 C -4.167217,-10.815953 -4.133238,-10.86631 -4.086616,-10.871371" />
      <path d="M -4.086616,-10.871371 Q -3.749535,-10.901475 -3.410374,-10.922938" />
      <path d="M -3.410374,-10.922938 C -3.363699,-10.924992 -3.340158,-10.879021 -3.331744,-10.860116" />
      <path d="M -3.331744,-10.860116 C -3.173245,-10.508109 -2.934193,-10.129426 -2.660248,-9.723172" />
      <path d="M -2.660248,-9.723172 Q -2.259247,-9.736437 -1.857566,-9.738245" />
      <path d="M -1.857566,-9.738245 C -1.569465,-10.155055 -1.312875,-10.543039 -1.133729,-10.901389" />
      <path d="M -1.133729,-10.901389 Q -1.129754,-10.909977 -1.121604,-10.922572" />
      <path d="M -1.121604,-10.922572 C -1.107765,-10.943171 -1.084671,-10.967566 -1.050921,-10.967242" />
      <path d="M -1.050921,-10.967242 Q -0.709971,-10.958551 -0.370073,-10.941159" />
      <path d="M -0.370073,-10.941159 C -0.323124,-10.937857 -0.291527,-10.888731 -0.27991,-10.86868" />
      <path d="M -0.27991,-10.86868 C -0.061245,-10.495092 0.227461,-10.086212 0.540385,-9.646379" />
      <path d="M 0.540385,-9.646379 Q 0.937923,-9.613953 1.332028,-9.570228" />
      <path d="M 1.332028,-9.570228 C 1.573421,-9.956741 1.773541,-10.318594 1.887877,-10.660152" />
      <path d="M 1.887877,-10.660152 Q 1.892123,-10.677955 1.910185,-10.70049" />
      <path d="M 1.910185,-10.70049 Q 1.92582,-10.719372 1.956932,-10.717315" />
      <path d="M 1.956932,-10.717315 Q 2.287793,-10.670184 2.614511,-10.61465" />
      <path d="M 2.614511,-10.61465 C 2.659811,-10.60607 2.698173,-10.55294 2.712516,-10.531404" />
      <path d="M 2.712516,-10.531404 C 2.982395,-10.129863 3.308937,-9.68578 3.648028,-9.20864" />
      <path d="M 3.648028,-9.20864 Q 4.025827,-9.131851 4.396222,-9.044383" />
      <path d="M 4.396222,-9.044383 C 4.581024,-9.40651 4.716481,-9.749162 4.761326,-10.081612" />
      <path d="M 4.761326,-10.081612 C 4.762801,-10.0934 4.766951,-10.115608 4.781206,-10.126824" />
      <path d="M 4.781206,-10.126824 Q 4.792261,-10.136591 4.813801,-10.131822" />
      <path d="M 4.813801,-10.131822 Q 5.121028,-10.04818 5.42119,-9.956778" />
      <path d="M 5.42119,-9.956778 C 5.462987,-9.943214 5.506541,-9.885398 5.523024,-9.862098" />
      <path d="M 5.523024,-9.862098 C 5.833069,-9.427375 6.184077,-8.944523 6.535452,-8.427877" />
      <path d="M 6.535452,-8.427877 Q 6.878047,-8.309868 7.209567,-8.182238" />
      <path d="M 7.209567,-8.182238 C 7.330212,-8.526889 7.395461,-8.858056 7.368978,-9.189456" />
      <path d="M 7.368978,-9.189456 C 7.367862,-9.202401 7.366892,-9.227811 7.37997,-9.235671" />
      <path d="M 7.37997,-9.235671 Q 7.387418,-9.240711 7.402725,-9.234732" />
      <path d="M 7.402725,-9.234732 Q 7.673739,-9.118005 7.935058,-8.994476" />
      <path d="M 7.935058,-8.994476 C 7.97164,-8.976427 8.018604,-8.913432 8.036551,-8.888162" />
      <path d="M 8.036551,-8.888162 C 8.374069,-8.416387 8.735172,-7.89279 9.084448,-7.336054" />
      <path d="M 9.084448,-7.336054 Q 9.377811,-7.181657 9.656884,-7.01909" />
      <path d="M 9.656884,-7.01909 C 9.708434,-7.353888 9.700802,-7.681759 9.604077,-8.020208" />
      <path d="M 9.604077,-8.020208 C 9.60004,-8.034201 9.592704,-8.062377 9.602559,-8.066923" />
      <path d="M 9.602559,-8.066923 Q 9.607045,-8.069323 9.617713,-8.062774" />
      <path d="M 9.617713,-8.062774 Q 9.84142,-7.91774 10.053196,-7.767141" />
      <path d="M 10.053196,-7.767141 C 10.083067,-7.74529 10.131518,-7.676835 10.150194,-7.64947" />
      <path d="M 10.150194,-7.64947 C 10.501366,-7.138289 10.857782,-6.573638 11.190657,-5.97787" />
      <path d="M 11.190657,-5.97787 Q 11.422779,-5.793407 11.63798,-5.602558" />
      <path d="M 11.63798,-5.602558 C 11.618324,-5.935532 11.538125,-6.268428 11.375116,-6.621738" />
      <path d="M 11.375116,-6.621738 C 11.368136,-6.636882 11.354036,-6.667938 11.359181,-6.66978" />
      <path d="M 11.359181,-6.66978 Q 11.361136,-6.67069 11.368084,-6.663926" />
      <path d="M 11.368084,-6.663926 Q 11.535325,-6.496523 11.688888,-6.32502" />
      <path d="M 11.688888,-6.32502 C 11.710824,-6.300205 11.758778,-6.226234 11.77742,-6.196733" />
      <path d="M 11.77742,-6.196733 C 12.127869,-5.645408 12.465006,-5.041073 12.767853,-4.40893" />
      <path d="M 12.767853,-4.40893 Q 12.92923,-4.201952 13.071749,-3.990636" />
      <path d="M 13.071749,-3.990636 C 12.984974,-4.317491 12.843073,-4.650625 12.633702,-5.010256" />
      <path d="M 12.862327,-4.570519 C 13.193488,-3.985155 13.493814,-3.350763 13.751465,-2.693467" />
      <path d="M 13.751465,-2.693467 Q 13.83549,-2.472447 13.899492,-2.249314" />
      <path d="M 13.623866,-2.240708 Q 13.89541,-1.58904 14.101222,-0.901711" />
      <path d="M 14.101222,-0.901711 Q 14.10284,-0.788729 14.099364,-0.675748" />
      <path d="M -15.399604,-6.105474 A 14.667671033984679,8.25303262989855 1.2023031532402664e-16 0,1 11.937615,-6.105474" />
      <path d="M 14.08732,-0.449884 C 12.538896,-0.591789 10.902374,-0.577429 9.240229,-0.40166" />
      <path d="M 9.199315,-0.557962 L 9.240229,-0.40166" />
      <path d="M 9.151369,-0.713631 L 9.199315,-0.557962" />
      <path d="M 14.101222,-0.901711 C 12.504174,-0.998713 10.833364,-0.937139 9.151369,-0.713631" />
      <path d="M 9.240229,-0.40166 Q 9.067444,-0.771085 8.77578,-1.194241" />
      <path d="M 8.748194,-1.22992 C 8.745956,-1.229473 8.743718,-1.229025 8.74148,-1.228577" />
      <path d="M 8.77578,-1.194241 C 8.76713,-1.20698 8.747898,-1.234177 8.742614,-1.233236" />
      <path d="M 8.742614,-1.233236 Q 8.740958,-1.233012 8.74148,-1.228577" />
      <path d="M 8.91388,-0.985871 C 8.865617,-0.977584 8.817301,-0.969145 8.768935,-0.960555" />
      <path d="M 8.74148,-1.228577 Q 8.760616,-1.094741 8.768935,-0.960555" />
      <path d="M 8.976996,-0.885384 C 8.921472,-0.876499 8.865876,-0.867414 8.810211,-0.858127" />
      <path d="M 8.768935,-0.960555 C 8.770622,-0.941238 8.799022,-0.881641 8.810211,-0.858127" />
      <path d="M 13.802807,0.892982 C 12.423313,0.625669 10.914286,0.5053 9.336927,0.542315" />
      <path d="M 8.810211,-0.858127 C 9.020934,-0.417109 9.197215,0.056669 9.336927,0.542315" />
      <path d="M 13.627545,1.333986 C 12.311744,1.028196 10.853195,0.865463 9.312358,0.857965" />
      <path d="M 9.336927,0.542315 Q 9.331757,0.700315 9.312358,0.857965" />
      <path d="M 9.312358,0.857965 Q 9.07573,0.465114 8.742933,0.006228" />
      <path d="M 8.708343,-0.033863 C 8.704468,-0.033481 8.700592,-0.033099 8.696716,-0.032715" />
      <path d="M 8.742933,0.006228 C 8.733007,-0.007738 8.710457,-0.037891 8.700628,-0.037042" />
      <path d="M 8.700628,-0.037042 Q 8.697805,-0.036852 8.696716,-0.032715" />
      <path d="M 8.890738,0.214634 C 8.803494,0.220156 8.715817,0.226254 8.627722,0.23293" />
      <path d="M 8.696716,-0.032715 Q 8.66758,0.100549 8.627722,0.23293" />
      <path d="M 8.965307,0.321858 C 8.862946,0.326896 8.759972,0.332728 8.656412,0.339361" />
      <path d="M 8.627722,0.23293 C 8.622777,0.252061 8.646803,0.314657 8.656412,0.339361" />
      <path d="M 12.868436,2.617139 C 11.762973,2.207642 10.47751,1.927378 9.069362,1.793569" />
      <path d="M 8.656412,0.339361 C 8.837212,0.802782 8.973383,1.294437 9.069362,1.793569" />
      <path d="M 12.53899,3.029264 C 11.509681,2.589292 10.288818,2.273249 8.932371,2.099975" />
      <path d="M 9.069362,1.793569 Q 9.007773,1.94775 8.932371,2.099975" />
      <path d="M 8.932371,2.099975 Q 8.641586,1.676947 8.281282,1.178403" />
      <path d="M 8.241497,1.133754 C 8.236014,1.133699 8.230529,1.133647 8.225041,1.133598" />
      <path d="M 8.281282,1.178403 C 8.270548,1.163195 8.24583,1.13013 8.231582,1.129875" />
      <path d="M 8.231582,1.129875 Q 8.227611,1.129756 8.225041,1.133598" />
      <path d="M 8.442624,1.404196 C 8.317724,1.396629 8.190969,1.390551 8.062423,1.385991" />
      <path d="M 8.225041,1.133598 Q 8.148825,1.260833 8.062423,1.385991" />
      <path d="M 8.528382,1.52391 C 8.380685,1.512124 8.230305,1.502443 8.077351,1.494917" />
      <path d="M 8.062423,1.385991 C 8.051047,1.404187 8.069716,1.469227 8.077351,1.494917" />
      <path d="M 10.500957,3.729854 C 9.876034,3.428625 9.157021,3.17924 8.35963,2.988905" />
      <path d="M 8.077351,1.494917 C 8.220826,1.976892 8.311312,2.481516 8.35963,2.988905" />
      <path d="M 9.832796,3.926295 C 9.325706,3.671527 8.750372,3.452414 8.115824,3.273522" />
      <path d="M 8.35963,2.988905 Q 8.244143,3.132953 8.115824,3.273522" />
      <path d="M 8.115824,3.273522 C 7.896667,2.965566 7.655567,2.636772 7.409727,2.274295" />
      <path d="M 7.367936,2.225727 C 7.360556,2.224682 7.353165,2.223644 7.345764,2.222612" />
      <path d="M 7.409727,2.274295 C 7.398755,2.257971 7.373366,2.222481 7.355235,2.219835" />
      <path d="M 7.355235,2.219835 Q 7.349916,2.219 7.345764,2.222612" />
      <path d="M 7.603573,2.55522 C 7.441542,2.516866 7.272315,2.482204 7.09618,2.451419" />
      <path d="M 7.345764,2.222612 Q 7.225589,2.33861 7.09618,2.451419" />
      <path d="M 7.706932,2.701764 C 7.51426,2.649387 7.310687,2.60243 7.096736,2.561232" />
      <path d="M 7.09618,2.451419 C 7.07884,2.467973 7.091387,2.534798 7.096736,2.561232" />
      <path d="M 7.251796,4.086052 C 7.2468,4.083826 7.241796,4.081604 7.236787,4.079384" />
      <path d="M 7.096736,2.561232 C 7.197011,3.057153 7.238108,3.569306 7.236787,4.079384" />
      <path d="M 7.204221,4.499184 C 7.105251,4.441358 7.002532,4.38513 6.896147,4.33056" />
      <path d="M 7.236787,4.079384 Q 7.072129,4.207403 6.896147,4.33056" />
      <path d="M 6.896147,4.33056 C 6.658778,3.996484 6.407248,3.639503 6.16395,3.249038" />
      <path d="M 6.126402,3.200298 C 6.115944,3.19676 6.105439,3.193241 6.094884,3.189743" />
      <path d="M 6.16395,3.249038 C 6.153476,3.232068 6.12953,3.195761 6.108786,3.188799" />
      <path d="M 6.108786,3.188799 Q 6.101328,3.186179 6.094884,3.189743" />
      <path d="M 5.948033,3.460953 C 5.890331,3.435072 5.830494,3.409944 5.768551,3.385598" />
      <path d="M 6.094884,3.189743 Q 5.93567,3.289755 5.768551,3.385598" />
      <path d="M 5.880322,3.54993 C 5.839496,3.53113 5.797623,3.5127 5.754712,3.49465" />
      <path d="M 5.768551,3.385598 C 5.745957,3.399866 5.751868,3.467748 5.754712,3.49465" />
      <path d="M 5.844447,5.103178 C 5.812683,5.075322 5.780133,5.047715 5.746801,5.020363" />
      <path d="M 5.754712,3.49465 C 5.807683,3.99934 5.797708,4.513274 5.746801,5.020363" />
      <path d="M 5.45344,5.363555 C 5.412074,5.317742 5.368679,5.272487 5.323275,5.227816" />
      <path d="M 5.746801,5.020363 Q 5.539714,5.127112 5.323275,5.227816" />
      <path d="M 5.09424,4.900364 C 5.09416,4.89504 5.09403,4.889722 5.093851,4.884411" />
      <path d="M 5.323275,5.227816 C 5.07741,4.866089 4.825747,4.480317 4.594953,4.062725" />
      <path d="M 4.998841,4.809532 C 4.99931,4.784246 4.998582,4.759121 4.996665,4.734167" />
      <path d="M 4.582051,4.040844 C 4.563194,4.025538 4.543713,4.010388 4.523612,3.995397" />
      <path d="M 4.594953,4.062725 C 4.586397,4.047072 4.568233,4.016065 4.548855,4.00164" />
      <path d="M 4.548855,4.00164 Q 4.535931,3.991475 4.523612,3.995397" />
      <path d="M 4.401227,4.531429 C 4.350619,4.397221 4.261063,4.269499 4.13389,4.150281" />
      <path d="M 4.523612,3.995397 Q 4.331877,4.075328 4.13389,4.150281" />
      <path d="M 4.33979,4.59172 C 4.289748,4.474897 4.211624,4.362897 4.106223,4.256958" />
      <path d="M 4.13389,4.150281 C 4.106966,4.161716 4.106,4.22988 4.106223,4.256958" />
      <path d="M 4.127714,6.664633 C 4.147218,6.356669 4.087144,6.05776 3.950674,5.773318" />
      <path d="M 4.106223,4.256958 C 4.109721,4.764879 4.049082,5.274773 3.950674,5.773318" />
      <path d="M 3.540394,6.444327 C 3.540975,6.268945 3.514528,6.096655 3.461599,5.928554" />
      <path d="M 3.950674,5.773318 Q 3.709636,5.854426 3.461599,5.928554" />
      <path d="M 2.210925,5.770601 C 2.671424,5.397179 2.851882,5.022069 2.766971,4.682046" />
      <path d="M 3.461599,5.928554 C 3.217306,5.538782 2.975813,5.124792 2.766971,4.682046" />
      <path d="M 2.113983,5.652834 C 2.582311,5.294444 2.771645,4.933438 2.696275,4.60659" />
      <path d="M 2.766971,4.682046 C 2.755923,4.658404 2.726266,4.599961 2.696275,4.60659" />
      <path d="M 2.204023,4.979141 C 2.241183,4.88936 2.259478,4.800805 2.25912,4.714162" />
      <path d="M 2.696275,4.60659 Q 2.479868,4.663169 2.25912,4.714162" />
      <path d="M 2.215972,4.864091 C 2.216041,4.863356 2.21611,4.862621 2.216177,4.861886" />
      <path d="M 2.216177,4.861886 C 2.217551,4.846858 2.218411,4.831877 2.218757,4.816947" />
      <path d="M 2.25912,4.714162 C 2.228969,4.722331 2.221165,4.789994 2.218757,4.816947" />
      <path d="M 0.792501,7.964737 C 1.367917,7.49228 1.724981,7.006149 1.869498,6.530818" />
      <path d="M 1.869498,6.530818 C 1.892229,6.456054 1.909701,6.381557 1.921938,6.307423" />
      <path d="M 2.218757,4.816947 C 2.172638,5.322429 2.063819,5.822626 1.921938,6.307423" />
      <path d="M -0.003353,8.025424 C 0.748816,7.4989 1.210431,6.945739 1.387339,6.404087" />
      <path d="M 1.921938,6.307423 Q 1.656817,6.35957 1.387339,6.404087" />
      <path d="M 0.055273,5.652637 C 0.379686,5.465719 0.612699,5.272953 0.754842,5.081643" />
      <path d="M 1.387339,6.404087 C 1.154618,5.987021 0.933181,5.546543 0.754842,5.081643" />
      <path d="M 0.100808,5.472659 C 0.364751,5.316827 0.560276,5.15712 0.687685,4.9983" />
      <path d="M 0.754842,5.081643 C 0.745416,5.05683 0.719747,4.995221 0.687685,4.9983" />
      <path d="M 0.19093,5.081898 C 0.201194,5.072655 0.211215,5.063407 0.220995,5.054156" />
      <path d="M 0.687685,4.9983 Q 0.455467,5.029209 0.220995,5.054156" />
      <path d="M 0.220995,5.054156 Q 0.212014,5.055521 0.204788,5.062503" />
      <path d="M 0.204788,5.062503 C 0.183802,5.082373 0.17362,5.129985 0.169588,5.15169" />
      <path d="M -2.405518,8.070531 C -1.407459,7.618972 -0.689851,7.116319 -0.256349,6.600812" />
      <path d="M 0.169588,5.15169 C 0.075741,5.649164 -0.076804,6.134406 -0.256349,6.600812" />
      <path d="M -3.206792,8.039834 C -2.131493,7.617874 -1.33182,7.136881 -0.814587,6.634945" />
      <path d="M -0.256349,6.600812 Q -0.534699,6.621863 -0.814587,6.634945" />
      <path d="M -2.044049,5.529788 C -1.783893,5.439131 -1.555433,5.343735 -1.359058,5.245159" />
      <path d="M -0.814587,6.634945 C -1.026208,6.192455 -1.218522,5.728304 -1.359058,5.245159" />
      <path d="M -1.998148,5.38547 C -1.782309,5.3115 -1.589485,5.234185 -1.419925,5.15449" />
      <path d="M -1.359058,5.245159 C -1.366475,5.219382 -1.387106,5.155124 -1.419925,5.15449" />
      <path d="M -1.914854,5.163351 C -1.908896,5.161018 -1.90296,5.158682 -1.897046,5.156343" />
      <path d="M -1.419925,5.15449 Q -1.658448,5.158465 -1.897046,5.156343" />
      <path d="M -1.897046,5.156343 L -1.906064,5.158181" />
      <path d="M -1.906064,5.158181 C -1.933645,5.169284 -1.950791,5.224026 -1.957391,5.247483" />
      <path d="M -5.575922,7.811938 C -4.286585,7.491259 -3.254229,7.088735 -2.495008,6.641473" />
      <path d="M -1.957391,5.247483 C -2.095124,5.731706 -2.28515,6.197348 -2.495008,6.641473" />
      <path d="M -6.349812,7.691114 C -4.995406,7.408176 -3.890412,7.036163 -3.054031,6.611679" />
      <path d="M -2.495008,6.641473 Q -2.775191,6.630565 -3.054031,6.611679" />
      <path d="M -4.154261,5.301676 C -3.917919,5.259987 -3.695796,5.214563 -3.488184,5.165898" />
      <path d="M -3.054031,6.611679 C -3.235888,6.146675 -3.391206,5.662633 -3.488184,5.165898" />
      <path d="M -4.104041,5.175939 C -3.905802,5.142785 -3.717819,5.106959 -3.540271,5.068765" />
      <path d="M -3.488184,5.165898 C -3.493289,5.139404 -3.508037,5.073122 -3.540271,5.068765" />
      <path d="M -4.021402,5.018843 C -4.017025,5.018077 -4.012654,5.017309 -4.008288,5.01654" />
      <path d="M -3.540271,5.068765 Q -3.775334,5.045643 -4.008288,5.01654" />
      <path d="M -4.008288,5.01654 L -4.014815,5.016796" />
      <path d="M -4.014815,5.016796 C -4.043903,5.022156 -4.066416,5.077172 -4.075101,5.100404" />
      <path d="M -8.588915,7.199545 C -7.061086,7.040058 -5.756246,6.771263 -4.702388,6.427741" />
      <path d="M -4.075101,5.100404 C -4.251082,5.566678 -4.470809,6.008874 -4.702388,6.427741" />
      <path d="M -9.303737,6.99354 C -7.725673,6.878391 -6.360598,6.647711 -5.239309,6.33524" />
      <path d="M -4.702388,6.427741 Q -4.972934,6.385322 -5.239309,6.33524" />
      <path d="M -6.178431,4.886837 C -5.960164,4.876451 -5.749081,4.863142 -5.545372,4.847105" />
      <path d="M -5.239309,6.33524 C -5.383957,5.851554 -5.49592,5.352218 -5.545372,4.847105" />
      <path d="M -6.122957,4.772059 C -5.938943,4.764978 -5.7601,4.755798 -5.586545,4.744637" />
      <path d="M -5.545372,4.847105 C -5.547955,4.820172 -5.556216,4.752573 -5.586545,4.744637" />
      <path d="M -6.037528,4.640877 C -6.033783,4.640743 -6.030039,4.640607 -6.026298,4.640471" />
      <path d="M -5.586545,4.744637 Q -5.808524,4.695363 -6.026298,4.640471" />
      <path d="M -6.026298,4.640471 L -6.031824,4.639964" />
      <path d="M -6.031824,4.639964 C -6.060062,4.641242 -6.086536,4.694154 -6.096844,4.716476" />
      <path d="M -11.321143,6.258423 C -9.617372,6.283841 -8.093468,6.176901 -6.78812,5.968367" />
      <path d="M -6.096844,4.716476 C -6.303867,5.160835 -6.5443,5.576701 -6.78812,5.968367" />
      <path d="M -11.947633,5.975672 C -10.210517,6.05021 -8.641248,5.987426 -7.280956,5.816946" />
      <path d="M -6.78812,5.968367 Q -7.037951,5.896173 -7.280956,5.816946" />
      <path d="M -8.030079,4.272839 C -7.831757,4.284723 -7.637157,4.29436 -7.446398,4.301832" />
      <path d="M -7.280956,5.816946 C -7.382473,5.319175 -7.446498,4.809769 -7.446398,4.301832" />
      <path d="M -7.969747,4.16568 C -7.802122,4.177178 -7.637173,4.187059 -7.474972,4.195373" />
      <path d="M -7.446398,4.301832 C -7.446354,4.274754 -7.447791,4.2066 -7.474972,4.195373" />
      <path d="M -7.878945,4.042743 C -7.875448,4.043007 -7.871952,4.043269 -7.868457,4.043531" />
      <path d="M -7.474972,4.195373 Q -7.674779,4.121966 -7.868457,4.043531" />
      <path d="M -7.868457,4.043531 L -7.873547,4.042415" />
      <path d="M -7.873547,4.042415 C -7.899426,4.040724 -7.928421,4.090362 -7.939848,4.111415" />
      <path d="M -13.660749,5.027103 C -11.850788,5.253568 -10.17021,5.329981 -8.666811,5.282158" />
      <path d="M -7.939848,4.111415 C -8.169438,4.530792 -8.420733,4.918523 -8.666811,5.282158" />
      <path d="M -14.173258,4.67918 C -12.348209,4.957537 -10.638991,5.082341 -9.095388,5.078015" />
      <path d="M -8.666811,5.282158 Q -8.885701,5.183145 -9.095388,5.078015" />
      <path d="M -9.631794,3.474002 C -9.457154,3.501793 -9.284344,3.527915 -9.113435,3.552403" />
      <path d="M -9.095388,5.078015 C -9.149618,4.571333 -9.163083,4.057493 -9.113435,3.552403" />
      <path d="M -9.567709,3.372744 C -9.419891,3.397512 -9.273387,3.421078 -9.128241,3.443462" />
      <path d="M -9.113435,3.552403 C -9.110766,3.52548 -9.105318,3.457555 -9.128241,3.443462" />
      <path d="M -9.469462,3.248371 C -9.46609,3.248968 -9.462719,3.249564 -9.459348,3.25016" />
      <path d="M -9.128241,3.443462 Q -9.297695,3.348926 -9.459348,3.25016" />
      <path d="M -9.459348,3.25016 L -9.464153,3.248415" />
      <path d="M -9.464153,3.248415 C -9.48661,3.244687 -9.51665,3.290417 -9.528661,3.309993" />
      <path d="M -15.51195,3.555993 C -13.6699,3.991419 -11.90145,4.265177 -10.26155,4.397206" />
      <path d="M -9.528661,3.309993 C -9.771418,3.702343 -10.023287,4.061285 -10.26155,4.397206" />
      <path d="M -15.889496,3.157143 C -14.051231,3.645107 -12.272039,3.96951 -10.60832,4.1487" />
      <path d="M -10.26155,4.397206 Q -10.440537,4.275428 -10.60832,4.1487" />
      <path d="M -10.917008,2.518983 C -10.769969,2.556987 -10.623698,2.593822 -10.478234,2.629498" />
      <path d="M -10.60832,4.1487 C -10.613043,3.638644 -10.575397,3.126189 -10.478234,2.629498" />
      <path d="M -10.850743,2.422435 C -10.726159,2.455693 -10.602125,2.488108 -10.478664,2.519685" />
      <path d="M -10.478234,2.629498 C -10.473049,2.603025 -10.460941,2.536105 -10.478664,2.519685" />
      <path d="M -10.743491,2.290142 C -10.740273,2.291042 -10.737056,2.29194 -10.733839,2.292838" />
      <path d="M -10.478664,2.519685 Q -10.61083,2.407892 -10.733839,2.292838" />
      <path d="M -10.733839,2.292838 L -10.73826,2.290405" />
      <path d="M -10.73826,2.290405 C -10.756576,2.285523 -10.786192,2.32703 -10.798236,2.34502" />
      <path d="M -16.798957,1.905323 C -15.000231,2.549065 -13.216309,3.026082 -11.507047,3.349743" />
      <path d="M -10.798236,2.34502 C -11.044223,2.709406 -11.286354,3.040082 -11.507047,3.349743" />
      <path d="M -17.026083,1.471875 C -15.249861,2.166651 -13.473536,2.694493 -11.757813,3.067047" />
      <path d="M -11.507047,3.349743 Q -11.638802,3.210185 -11.757813,3.067047" />
      <path d="M -11.832219,1.44616 C -11.716241,1.488485 -11.600468,1.530065 -11.48492,1.570903" />
      <path d="M -11.757813,3.067047 C -11.712835,2.559295 -11.62562,2.053984 -11.48492,1.570903" />
      <path d="M -11.76571,1.353106 C -11.667311,1.389897 -11.569056,1.426149 -11.470958,1.461864" />
      <path d="M -11.48492,1.570903 C -11.477431,1.545155 -11.459158,1.479973 -11.470958,1.461864" />
      <path d="M -11.648533,1.207332 C -11.645606,1.208475 -11.642679,1.209617 -11.639753,1.210759" />
      <path d="M -11.470958,1.461864 Q -11.560423,1.33739 -11.639753,1.210759" />
      <path d="M -11.639753,1.210759 L -11.643499,1.207597" />
      <path d="M -11.643499,1.207597 C -11.657271,1.20244 -11.685063,1.239635 -11.696597,1.256004" />
      <path d="M -17.469079,0.142669 C -15.787317,0.985558 -14.060959,1.663425 -12.352311,2.182651" />
      <path d="M -11.696597,1.256004 Q -12.058248,1.757351 -12.352311,2.182651" />
      <path d="M -17.536488,-0.307631 C -15.895026,0.582698 -14.194292,1.309489 -12.496808,1.877339" />
      <path d="M -12.352311,2.182651 Q -12.431441,2.031026 -12.496808,1.877339" />
      <path d="M -12.338849,0.301274 C -12.25669,0.341231 -12.174497,0.380792 -12.092279,0.419956" />
      <path d="M -12.496808,1.877339 C -12.40397,1.377472 -12.270756,0.884774 -12.092279,0.419956" />
      <path d="M -12.274386,0.210039 C -12.204448,0.24475 -12.134483,0.279172 -12.064496,0.313306" />
      <path d="M -12.092279,0.419956 C -12.082793,0.395178 -12.059103,0.332398 -12.064496,0.313306" />
      <path d="M -12.147239,0.044467 C -12.144826,0.045719 -12.142414,0.04697 -12.140001,0.048222" />
      <path d="M -12.064496,0.313306 Q -12.107598,0.181246 -12.140001,0.048222" />
      <path d="M -12.140001,0.048222 L -12.142611,0.044354" />
      <path d="M -12.142611,0.044354 C -12.151754,0.039808 -12.176454,0.072757 -12.186966,0.087527" />
      <path d="M -17.494883,-1.659803 C -15.998937,-0.635094 -14.400818,0.232993 -12.762737,0.943712" />
      <path d="M -12.186966,0.087527 Q -12.522084,0.549007 -12.762737,0.943712" />
      <path d="M -17.399813,-2.108521 C -15.960315,-1.041906 -14.404799,-0.1288 -12.795048,0.628283" />
      <path d="M -12.762737,0.943712 Q -12.786003,0.786228 -12.795048,0.628283" />
      <path d="M -12.414329,-0.863668 C -12.368097,-0.834381 -12.321802,-0.805233 -12.275446,-0.776224" />
      <path d="M -12.795048,0.628283 C -12.658153,0.141561 -12.484393,-0.333574 -12.275446,-0.776224" />
      <path d="M -12.354692,-0.955824 C -12.314835,-0.930102 -12.27493,-0.904483 -12.234979,-0.878969" />
      <path d="M -12.275446,-0.776224 C -12.264351,-0.799824 -12.236214,-0.859639 -12.234979,-0.878969" />
      <path d="M -12.218896,-1.150429 C -12.217298,-1.149345 -12.2157,-1.148262 -12.214103,-1.147179" />
      <path d="M -12.234979,-0.878969 Q -12.229953,-1.013207 -12.214103,-1.147179" />
      <path d="M -12.214103,-1.147179 L -12.214934,-1.151615" />
      <path d="M -12.214934,-1.151615 C -12.219691,-1.154668 -12.240233,-1.125805 -12.249266,-1.112573" />
      <path d="M -16.875311,-3.428302 C -15.626425,-2.246539 -14.221974,-1.206652 -12.721522,-0.316354" />
      <path d="M -12.249266,-1.112573 Q -12.544133,-0.687139 -12.721522,-0.316354" />
      <path d="M -16.621656,-3.857066 C -15.443054,-2.64065 -14.096439,-1.56149 -12.640325,-0.628985" />
      <path d="M -12.721522,-0.316354 Q -12.687971,-0.473249 -12.640325,-0.628985" />
      <path d="M -15.656711,-5.681586 C -15.618723,-5.632448 -15.580514,-5.583475 -15.542087,-5.534665" />
      <path d="M -12.640325,-0.628985 Q -12.461255,-1.107671 -12.242052,-1.555408" />
      <path d="M -15.57178,-5.81313 C -15.543765,-5.776204 -15.515628,-5.739368 -15.487368,-5.702622" />
      <path d="M -15.291847,-6.163316 C -15.29052,-6.161417 -15.289192,-6.159517 -15.287865,-6.157618" />
      <path d="M -15.635729,-5.090424 C -14.685033,-3.782806 -13.531747,-2.596571 -12.230354,-1.545957" />
      <path d="M -15.233873,-5.481681 C -14.364419,-4.14808 -13.281836,-2.929926 -12.038973,-1.842992" />
      <path d="M -12.230354,-1.545957 Q -12.141359,-1.69584 -12.038973,-1.842992" />
      <path d="M -14.205241,-7.192133 C -14.030068,-6.850191 -13.843444,-6.513925 -13.645983,-6.183524" />
      <path d="M -12.038973,-1.842992 Q -11.782164,-2.396928 -11.485463,-2.896946" />
      <path d="M -14.110604,-7.313403 C -14.02222,-7.13706 -13.930824,-6.962194 -13.836498,-6.788829" />
      <path d="M -13.71112,-7.624714 C -13.707157,-7.615842 -13.703186,-7.606974 -13.699208,-7.598109" />
      <path d="M -13.826886,-6.578122 C -13.2133,-5.180999 -12.358396,-3.879859 -11.30934,-2.694758" />
      <path d="M -13.29328,-6.915854 C -12.76857,-5.502481 -11.99434,-4.178085 -11.015611,-2.964037" />
      <path d="M -11.30934,-2.694758 Q -11.168545,-2.831494 -11.015611,-2.964037" />
      <path d="M -12.243073,-8.507359 C -11.823826,-6.968959 -11.160097,-5.50952 -10.292755,-4.149202" />
      <path d="M -11.015611,-2.964037 C -10.78617,-3.386086 -10.538585,-3.786837 -10.292755,-4.149202" />
      <path d="M -12.142606,-8.617466 C -11.790116,-7.281881 -11.255305,-6.00445 -10.564259,-4.798144" />
      <path d="M -10.292755,-4.149202 Q -10.281921,-4.165583 -10.262103,-4.192165" />
      <path d="M -11.639925,-8.877157 C -11.633237,-8.845673 -11.626447,-8.814219 -11.619554,-8.782794" />
      <path d="M -11.522835,-7.830489 C -11.471098,-7.532726 -11.407914,-7.237789 -11.333614,-6.945897" />
      <path d="M -11.333614,-6.945897 C -11.046946,-5.819698 -10.594806,-4.738813 -9.996189,-3.715726" />
      <path d="M -10.879326,-8.100869 C -10.720842,-6.648406 -10.286662,-5.254867 -9.612135,-3.946223" />
      <path d="M -9.996189,-3.715726 Q -9.809358,-3.833715 -9.612135,-3.946223" />
      <path d="M -9.850539,-9.573419 C -9.782933,-8.007162 -9.448358,-6.490602 -8.87811,-5.048029" />
      <path d="M -9.612135,-3.946223 C -9.369272,-4.341249 -9.116378,-4.713363 -8.87811,-5.048029" />
      <path d="M -9.748355,-9.67193 C -9.690899,-8.099165 -9.366998,-6.575107 -8.807544,-5.123964" />
      <path d="M -8.87811,-5.048029 C -8.865491,-5.065903 -8.832168,-5.110878 -8.807544,-5.123964" />
      <path d="M -9.163057,-9.86937 C -9.174883,-9.021619 -9.108329,-8.18602 -8.967863,-7.366482" />
      <path d="M -8.807544,-5.123964 Q -8.678202,-5.190283 -8.544996,-5.254146" />
      <path d="M -9.116546,-9.821019 C -9.121238,-9.591051 -9.120085,-9.361969 -9.113176,-9.133851" />
      <path d="M -9.113176,-9.133851 C -9.112655,-9.116633 -9.112101,-9.099421 -9.111514,-9.082214" />
      <path d="M -8.817906,-8.796253 C -8.93881,-7.345345 -8.773005,-5.929069 -8.347437,-4.575884" />
      <path d="M -8.347437,-4.575884 C -8.346512,-4.572943 -8.345586,-4.570002 -8.344659,-4.567061" />
      <path d="M -8.090839,-8.988212 C -8.305068,-7.538939 -8.228714,-6.116189 -7.886005,-4.74934" />
      <path d="M -8.344659,-4.567061 Q -8.119441,-4.661474 -7.886005,-4.74934" />
      <path d="M -7.125591,-10.346668 C -7.412394,-8.792953 -7.42067,-7.257723 -7.170861,-5.768228" />
      <path d="M -7.886005,-4.74934 C -7.639662,-5.116375 -7.391812,-5.459838 -7.170861,-5.768228" />
      <path d="M -7.025872,-10.433627 C -7.32137,-8.874481 -7.339221,-7.332912 -7.099476,-5.836041" />
      <path d="M -7.170861,-5.768228 C -7.159168,-5.784711 -7.127964,-5.825993 -7.099476,-5.836041" />
      <path d="M -6.38192,-10.560732 C -6.755356,-9.010135 -6.850188,-7.470006 -6.683906,-5.967946" />
      <path d="M -7.099476,-5.836041 Q -6.894353,-5.904648 -6.683906,-5.967946" />
      <path d="M -6.318042,-10.506064 C -6.687985,-9.021647 -6.799036,-7.546089 -6.666538,-6.104185" />
      <path d="M -6.666538,-6.104185 C -6.664795,-6.085225 -6.663011,-6.066271 -6.661185,-6.047323" />
      <path d="M -6.683906,-5.967946 C -6.659497,-5.974867 -6.652689,-5.954131 -6.650493,-5.940219" />
      <path d="M -5.822837,-9.435877 C -6.311566,-8.016712 -6.506336,-6.599034 -6.422364,-5.21391" />
      <path d="M -6.649715,-5.933643 L -6.648101,-5.91721" />
      <path d="M -6.648101,-5.91721 C -6.624223,-5.690931 -6.540286,-5.458496 -6.422364,-5.21391" />
      <path d="M -5.041978,-9.541556 C -5.620151,-8.137621 -5.904748,-6.726786 -5.907888,-5.340509" />
      <path d="M -6.422364,-5.21391 Q -6.16798,-5.280881 -5.907888,-5.340509" />
      <path d="M -4.179787,-10.795449 C -4.809257,-9.294161 -5.160046,-7.779476 -5.240904,-6.280314" />
      <path d="M -5.907888,-5.340509 C -5.668151,-5.679731 -5.435492,-5.9957 -5.240904,-6.280314" />
      <path d="M -4.086616,-10.871371 C -4.72297,-9.365544 -5.081844,-7.84553 -5.171622,-6.340078" />
      <path d="M -5.240904,-6.280314 C -5.230614,-6.295539 -5.202808,-6.333445 -5.171622,-6.340078" />
      <path d="M -3.410374,-10.922938 C -4.120012,-9.434312 -4.553775,-7.924428 -4.717368,-6.422214" />
      <path d="M -5.171622,-6.340078 Q -4.946152,-6.384048 -4.717368,-6.422214" />
      <path d="M -3.331744,-10.860116 C -4.053116,-9.3804 -4.49782,-7.878418 -4.671247,-6.383316" />
      <path d="M -4.717368,-6.422214 C -4.68606,-6.426881 -4.674939,-6.396013 -4.671247,-6.383316" />
      <path d="M -2.660248,-9.723172 C -3.496529,-8.379822 -4.044886,-7.004664 -4.308005,-5.62979" />
      <path d="M -4.671247,-6.383316 C -4.600903,-6.146607 -4.469546,-5.896454 -4.308005,-5.62979" />
      <path d="M -1.857566,-9.738245 C -1.866817,-9.724966 -1.876039,-9.711684 -1.885232,-9.698398" />
      <path d="M -1.885232,-9.698398 C -2.788753,-8.392581 -3.413422,-7.047903 -3.758768,-5.695526" />
      <path d="M -4.308005,-5.62979 Q -4.034868,-5.666578 -3.758768,-5.695526" />
      <path d="M -1.968914,-9.517365 C -1.985622,-9.486298 -2.002205,-9.455215 -2.018662,-9.424115" />
      <path d="M -2.018662,-9.424115 C -2.51689,-8.482585 -2.900061,-7.526255 -3.16725,-6.563323" />
      <path d="M -3.758768,-5.695526 C -3.535452,-6.008253 -3.32751,-6.299012 -3.16725,-6.563323" />
      <path d="M -1.050921,-10.967242 C -2.002078,-9.552249 -2.687282,-8.091975 -3.102907,-6.615441" />
      <path d="M -3.16725,-6.563323 C -3.158785,-6.577475 -3.135516,-6.612458 -3.102907,-6.615441" />
      <path d="M -0.370073,-10.941159 C -1.386861,-9.551316 -2.141796,-8.109446 -2.628568,-6.644445" />
      <path d="M -3.102907,-6.615441 Q -2.866323,-6.632974 -2.628568,-6.644445" />
      <path d="M -0.27991,-10.86868 C -1.308581,-9.489097 -2.074969,-8.056411 -2.572404,-6.599694" />
      <path d="M -2.628568,-6.644445 C -2.595918,-6.645453 -2.57854,-6.612954 -2.572404,-6.599694" />
      <path d="M 0.540385,-9.646379 C -0.609211,-8.416656 -1.488705,-7.123196 -2.088143,-5.797676" />
      <path d="M -2.572404,-6.599694 C -2.456017,-6.352301 -2.283848,-6.084781 -2.088143,-5.797676" />
      <path d="M 1.332028,-9.570228 C 0.502018,-8.757372 -0.20608,-7.911546 -0.788161,-7.042597" />
      <path d="M -0.788161,-7.042597 C -1.062441,-6.633142 -1.308741,-6.218552 -1.526631,-5.799857" />
      <path d="M -2.088143,-5.797676 Q -1.807436,-5.802774 -1.526631,-5.799857" />
      <path d="M -1.526631,-5.799857 C -1.347299,-6.061563 -1.187054,-6.306953 -1.069623,-6.535595" />
      <path d="M 1.956932,-10.717315 C 1.931003,-10.690047 1.905182,-10.662746 1.87947,-10.635412" />
      <path d="M -0.684334,-7.195409 C -0.786532,-7.014707 -0.884441,-6.83317 -0.978027,-6.650856" />
      <path d="M -1.02236,-6.626437 Q -1.008135,-6.648449 -0.978027,-6.650856" />
      <path d="M 2.614511,-10.61465 C 1.332202,-9.356356 0.287,-8.017486 -0.503021,-6.62554" />
      <path d="M -0.978027,-6.650856 Q -0.740013,-6.641233 -0.503021,-6.62554" />
      <path d="M 2.712516,-10.531404 C 1.418661,-9.284711 0.361965,-7.956338 -0.439114,-6.57392" />
      <path d="M -0.503021,-6.62554 C -0.470366,-6.622811 -0.447442,-6.588006 -0.439114,-6.57392" />
      <path d="M 3.648028,-9.20864 C 2.232181,-8.125706 1.057556,-6.949778 0.146342,-5.710695" />
      <path d="M -0.439114,-6.57392 C -0.281449,-6.310846 -0.075515,-6.021691 0.146342,-5.710695" />
      <path d="M 4.396222,-9.044383 C 2.922426,-8.0027 1.681023,-6.861262 0.697139,-5.649232" />
      <path d="M 0.146342,-5.710695 Q 0.423126,-5.683894 0.697139,-5.649232" />
      <path d="M 4.813801,-10.131822 C 4.796847,-10.118551 4.779922,-10.105267 4.763025,-10.09197" />
      <path d="M 5.42119,-9.956778 C 5.101777,-9.721947 4.791611,-9.482291 4.490975,-9.238052" />
      <path d="M 3.4315,-8.322072 C 2.750631,-7.694862 2.129476,-7.041732 1.572252,-6.366274" />
      <path d="M 1.353064,-6.405628 L 1.572252,-6.366274" />
      <path d="M 5.523024,-9.862098 C 4.016956,-8.77561 2.713212,-7.582296 1.641286,-6.307047" />
      <path d="M 1.572252,-6.366274 C 1.603575,-6.359884 1.631107,-6.322193 1.641286,-6.307047" />
      <path d="M 6.535452,-8.427877 C 4.91132,-7.518884 3.489654,-6.49151 2.303967,-5.372406" />
      <path d="M 1.641286,-6.307047 C 1.833775,-6.023938 2.065042,-5.709768 2.303967,-5.372406" />
      <path d="M 7.209567,-8.182238 C 5.543429,-7.320215 4.068691,-6.334189 2.821501,-5.249816" />
      <path d="M 2.303967,-5.372406 Q 2.565498,-5.314804 2.821501,-5.249816" />
      <path d="M 7.402725,-9.234732 C 7.391543,-9.228093 7.38037,-9.221447 7.369206,-9.214796" />
      <path d="M 7.935058,-8.994476 C 7.733431,-8.881913 7.534201,-8.767454 7.337439,-8.651139" />
      <path d="M 8.036551,-8.888162 C 7.78643,-8.751443 7.539937,-8.611817 7.29721,-8.469357" />
      <path d="M 4.321708,-6.429051 C 4.069102,-6.226407 3.822992,-6.020014 3.583625,-5.810002" />
      <path d="M 3.549355,-5.851238 Q 3.572794,-5.826413 3.583625,-5.810002" />
      <path d="M 9.084448,-7.336054 C 7.318521,-6.621032 5.708018,-5.767152 4.296401,-4.796661" />
      <path d="M 3.583625,-5.810002 C 3.803057,-5.503323 4.050189,-5.161781 4.296401,-4.796661" />
      <path d="M 9.656884,-7.01909 C 7.866617,-6.354835 6.218919,-5.547468 4.759484,-4.617962" />
      <path d="M 4.296401,-4.796661 Q 4.531971,-4.710616 4.759484,-4.617962" />
      <path d="M 9.617713,-8.062774 C 9.611024,-8.059775 9.604337,-8.056775 9.597651,-8.053773" />
      <path d="M 10.053196,-7.767141 C 9.928283,-7.714749 9.803945,-7.661619 9.680201,-7.607755" />
      <path d="M 10.150194,-7.64947 C 9.995266,-7.58612 9.841207,-7.521637 9.688051,-7.456031" />
      <path d="M 11.190657,-5.97787 C 9.355235,-5.46891 7.621827,-4.806361 6.042073,-4.007029" />
      <path d="M 5.381541,-5.00002 C 5.597457,-4.694377 5.823444,-4.360055 6.042073,-4.007029" />
      <path d="M 11.63798,-5.602558 C 9.796877,-5.146082 8.043677,-4.533307 6.431745,-3.779537" />
      <path d="M 6.042073,-4.007029 Q 6.242037,-3.896064 6.431745,-3.779537" />
      <path d="M 11.368084,-6.663926 C 11.365108,-6.662952 11.362132,-6.661978 11.359156,-6.661003" />
      <path d="M 11.688888,-6.32502 C 11.630002,-6.307225 11.571181,-6.289258 11.512426,-6.271118" />
      <path d="M 11.77742,-6.196733 C 11.702711,-6.174907 11.628102,-6.152804 11.553599,-6.130424" />
      <path d="M 12.767853,-4.40893 C 10.938077,-4.109684 9.152732,-3.648471 7.469514,-3.035839" />
      <path d="M 6.895107,-3.990612 Q 7.191445,-3.53999 7.469514,-3.035839" />
      <path d="M 13.071749,-3.990636 C 11.255185,-3.743443 9.468259,-3.333225 7.769823,-2.768868" />
      <path d="M 7.469514,-3.035839 Q 7.625687,-2.904496 7.769823,-2.768868" />
      <path d="M 13.751465,-2.693467 C 12.002246,-2.599003 10.238055,-2.340886 8.520286,-1.922851" />
      <path d="M 8.032781,-2.854786 Q 8.292099,-2.409205 8.520286,-1.922851" />
      <path d="M 13.899492,-2.249314 C 12.181837,-2.204341 10.434342,-1.996356 8.718937,-1.627331" />
      <path d="M 8.520286,-1.922851 Q 8.626273,-1.776508 8.718937,-1.627331" />
      <path d="M 8.750362,-1.634072 Q 8.970439,-1.189366 9.151369,-0.713631" />
      <path d="M 8.395003,-2.080758 A 10.255218749380472,5.770285873557099 180.0 0,0 8.298196,-2.372424" />
      <path d="M -11.705472,-2.508536 A 10.255218749380472,5.770285873557099 180.0 1,0 8.395003,-2.080758" />
      <path d="M 11.920494,5.401415 C 10.985316,5.701078 9.973854,5.927694 8.936162,6.048796" />
      <path d="M 13.397521,7.590802 C 11.826222,7.960466 10.147905,8.120038 8.452006,8.008297" />
      <path d="M 7.946528,9.052875 C 7.913835,9.047246 7.877711,9.040907 7.848945,9.035781" />
      <path d="M 11.801828,11.817534 C 10.057306,11.708931 8.308965,11.343122 6.673566,10.723699" />
      <path d="M 10.078065,14.200253 Q 9.565109,14.069667 9.056181,13.907986" />
      <path d="M 2.87409,11.801343 L 2.511151,11.135369" />
      <path d="M 4.556273,6.099435 C 4.556488,6.098086 4.546542,6.074336 4.526435,6.028184 C 4.494073,5.956103 4.436727,5.844378 4.363422,5.726764" />
      <path d="M 5.129287,4.938382 L 5.084704,4.890135" />
      <path d="M -16.652567,-3.97028 A 16.62077013859466,16.62077013859466 90.55811285627657 0,1 -15.399604,-6.105474" />
      <path d="M 11.937615,-6.105474 A 16.62077013859466,16.62077013859466 90.55811285627657 0,1 12.633702,-5.010256" />
      <path d="M 4.155771,6.671418 Q 4.269724,6.178767 4.337407,5.68178" />
      <path d="M 1.869498,6.530818 C 2.036803,5.979889 2.162896,5.421257 2.215972,4.864091" />
      <path d="M -11.592844,-8.122456 Q -11.48214,-7.529315 -11.333614,-6.945897" />
      <path d="M -8.347437,-4.575884 C -8.803828,-6.023591 -9.060196,-7.549389 -9.111514,-9.082214" />
      <path d="M -6.648101,-5.91721 L -6.661185,-6.047323" />
      <path d="M -1.968914,-9.517365 C -1.878157,-9.686376 -1.800873,-9.815236 -1.764875,-9.872988" />
      <path d="M -1.069623,-6.535595 C -0.967959,-6.734036 -0.873183,-6.899535 -0.813457,-6.998421 C -0.791008,-7.035482 -0.775017,-7.061455 -0.765485,-7.076342" />
    </g>
  </g>
</svg>