<?xml version='1.0' encoding='utf-8'?>
<svg width="100.089998mm" height="36.706595mm" viewBox="-14.542893 -5.112653 28.018367 10.275341" version="1.1" xmlns="http://www.w3.org/2000/svg">
  <g transform="scale(1,-1)" stroke-linecap="round">
    <g fill="none" stroke="rgb(0,0,0)" stroke-width="0.0251938562483653" id="Visible">
      <path d="M -7.91425,-2.293117 Q -7.731169,-2.152468 -7.578939,-1.986482" />
      <path d="M -7.578939,-1.986482 C -7.464771,-1.861291 -7.235708,-1.862286 -7.047056,-1.935058 C -6.853015,-2.008363 -6.696204,-2.126992 -6.550436,-2.283174" />
      <path d="M -6.550436,-2.283174 C -6.362704,-2.34611 -6.112756,-2.365762 -5.879131,-2.353384 C -5.644521,-2.339468 -5.420051,-2.302919 -5.205722,-2.243738" />
      <path d="M -5.205722,-2.243738 Q -5.095283,-2.029371 -5.012192,-1.805924" />
      <line x1="-7.91425" y1="-2.293117" x2="-7.91425" y2="-1.79416" />
      <path d="M -7.91425,-1.79416 Q -7.731169,-1.65351 -7.578939,-1.487524" />
      <line x1="-7.578939" y1="-1.986482" x2="-7.578939" y2="-1.487524" />
      <path d="M -9.939969,-2.899152 Q -9.695752,-2.911889 -9.452675,-2.887805" />
      <path d="M -9.452675,-2.887805 C -9.323285,-2.874972 -9.199016,-2.942854 -9.116674,-3.045393 C -9.032791,-3.148252 -8.986483,-3.278045 -8.967494,-3.407382" />
      <path d="M -8.967494,-3.727863 C -8.886099,-3.887407 -8.725393,-4.05447 -8.550096,-4.188882 C -8.372847,-4.322811 -8.184302,-4.434521 -7.984461,-4.524015" />
      <path d="M -7.984461,-4.524015 Q -7.73146,-4.440111 -7.490389,-4.333028" />
      <path d="M -7.92023,-2.297927 L -7.91425,-2.293117" />
      <path d="M -7.490389,-4.333028 Q -7.403937,-4.045677 -7.400188,-3.734875" />
      <path d="M -7.578939,-1.487524 C -7.464771,-1.362333 -7.235708,-1.363328 -7.047056,-1.4361 C -6.853015,-1.509405 -6.696204,-1.628034 -6.550436,-1.784216" />
      <line x1="-6.550436" y1="-2.283174" x2="-6.550436" y2="-1.784216" />
      <path d="M -6.550436,-1.784216 C -6.362704,-1.847152 -6.112756,-1.866804 -5.879131,-1.854426 C -5.644521,-1.84051 -5.420051,-1.803961 -5.205722,-1.74478" />
      <line x1="-5.205722" y1="-2.243738" x2="-5.205722" y2="-1.74478" />
      <path d="M -6.971244,-0.081791 C -6.920154,0.036695 -6.775769,0.125872 -6.619215,0.17324" />
      <path d="M -5.147949,0.997755 L -5.101404,1.071465" />
      <path d="M -5.205722,-1.74478 Q -5.095283,-1.530413 -5.012192,-1.306966" />
      <line x1="-5.012192" y1="-1.805924" x2="-5.012192" y2="-1.306966" />
      <path d="M -5.982335,-0.499026 C -6.208162,-0.530421 -6.413201,-0.528315 -6.611933,-0.472925 C -6.806197,-0.420017 -6.978569,-0.293736 -6.976718,-0.137327" />
      <path d="M -6.976718,-0.137327 L -6.976332,-0.124273" />
      <line x1="-6.976332" y1="-0.150357" x2="-6.976332" y2="-0.124273" />
      <path d="M -5.012192,-1.306966 C -5.12604,-1.138834 -5.264882,-0.981671 -5.428717,-0.835476 C -5.593005,-0.690995 -5.794131,-0.560896 -5.982335,-0.499026" />
      <path d="M -7.51716,-2.668269 C -7.656739,-2.5826 -7.771586,-2.485729 -7.861703,-2.377655 C -7.951474,-2.268655 -8.017015,-2.138456 -8.017195,-2.01409" />
      <path d="M -8.017195,-2.01409 C -8.017663,-1.928176 -7.983685,-1.847953 -7.91425,-1.79416" />
      <line x1="-8.444819" y1="-1.275271" x2="-7.91425" y2="-1.79416" />
      <path d="M -7.774878,-0.082495 C -7.789829,-0.303146 -7.856456,-0.529979 -7.972963,-0.736626 C -8.088758,-0.943574 -8.253656,-1.128953 -8.444819,-1.275271" />
      <line x1="-6.976332" y1="-0.124273" x2="-7.774878" y2="-0.082495" />
      <line x1="-9.939969" y1="-2.899152" x2="-9.939969" y2="-2.400195" />
      <path d="M -9.939969,-2.400195 Q -9.695752,-2.412931 -9.452675,-2.388848" />
      <line x1="-9.452675" y1="-2.887805" x2="-9.452675" y2="-2.388848" />
      <path d="M -11.866852,-2.086328 Q -11.704556,-2.24499 -11.513025,-2.376917" />
      <path d="M -11.513025,-2.376917 L -11.486151,-2.398293" />
      <path d="M -11.940355,-3.734117 C -11.939529,-3.980571 -11.888503,-4.211787 -11.809873,-4.43361" />
      <path d="M -11.809873,-4.43361 Q -11.562514,-4.529319 -11.304679,-4.601328" />
      <path d="M -10.372397,-3.313583 C -10.347546,-3.206971 -10.299867,-3.102398 -10.225007,-3.023049 C -10.151048,-2.943681 -10.04832,-2.893725 -9.939969,-2.899152" />
      <path d="M -11.304679,-4.601328 C -11.110672,-4.502664 -10.929321,-4.38234 -10.760626,-4.240356 C -10.593911,-4.09798 -10.443789,-3.923678 -10.372397,-3.760577" />
      <path d="M -9.452675,-2.388848 C -9.297219,-2.373129 -9.153093,-2.474079 -9.072086,-2.608972 C -8.988623,-2.74524 -8.956792,-2.903211 -8.956599,-3.062406" />
      <path d="M -8.956599,-3.062406 Q -8.956605,-3.142347 -8.967494,-3.228905" />
      <line x1="-8.967494" y1="-3.727863" x2="-8.967494" y2="-3.228905" />
      <path d="M -8.967494,-3.228905 C -8.886099,-3.388449 -8.725393,-3.555512 -8.550096,-3.689925 C -8.372847,-3.823853 -8.184302,-3.935564 -7.984461,-4.025057" />
      <line x1="-7.984461" y1="-4.524015" x2="-7.984461" y2="-4.025057" />
      <path d="M -7.984461,-4.025057 Q -7.73146,-3.941153 -7.490389,-3.83407" />
      <line x1="-7.490389" y1="-4.333028" x2="-7.490389" y2="-3.83407" />
      <path d="M -7.490389,-3.83407 Q -7.403937,-3.546719 -7.400188,-3.235917" />
      <path d="M -7.400188,-3.235917 C -7.399575,-3.036018 -7.435875,-2.824822 -7.51716,-2.668269" />
      <path d="M -8.056336,1.943234 C -7.968905,2.08568 -7.846491,2.202619 -7.68711,2.314228" />
      <path d="M -7.68711,2.314228 C -7.628455,2.44575 -7.601806,2.614277 -7.602132,2.7801" />
      <path d="M -12.025327,2.21321 C -11.852707,2.105036 -11.718607,1.988654 -11.622257,1.842868" />
      <path d="M -12.142299,2.780858 C -12.142912,2.580959 -12.106612,2.369763 -12.025327,2.21321" />
      <path d="M -14.441084,-2.025482 Q -14.344267,-2.244739 -14.220704,-2.453657" />
      <path d="M -12.875487,-2.430456 C -12.739607,-2.267716 -12.590373,-2.141961 -12.401154,-2.059731 C -12.217284,-1.978285 -11.988613,-1.966631 -11.866852,-2.086328" />
      <path d="M -14.220704,-2.453657 C -14.003017,-2.502779 -13.776606,-2.528828 -13.541473,-2.531806 C -13.307418,-2.533294 -13.059048,-2.502038 -12.875487,-2.430456" />
      <path d="M -13.560153,0.043967 C -13.345916,0.073788 -13.152358,0.073194 -12.962246,0.026438 C -12.776518,-0.018659 -12.602778,-0.124998 -12.571244,-0.268895" />
      <path d="M -14.530296,0.851907 C -14.416447,0.683775 -14.277605,0.526612 -14.11377,0.380417 C -13.949482,0.235936 -13.748356,0.105837 -13.560153,0.043967" />
      <path d="M -6.976332,-0.124273 Q -6.971246,-0.051291 -6.971244,0.021949" />
      <path d="M -6.971244,0.021949 Q -6.97126,0.160557 -6.989425,0.298029" />
      <path d="M -6.989425,0.298029 L -6.991042,0.324664" />
      <path d="M -6.991042,0.324664 C -6.99261,0.478021 -6.827118,0.606466 -6.638603,0.666006 C -6.445749,0.727991 -6.244315,0.739055 -6.020083,0.7185" />
      <line x1="-6.020083" y1="0.639131" x2="-6.020083" y2="0.7185" />
      <path d="M -6.020083,0.7185 C -5.835985,0.789039 -5.643211,0.928311 -5.488113,1.080228 C -5.333573,1.233837 -5.20467,1.397235 -5.101404,1.570423" />
      <line x1="-5.101404" y1="1.071465" x2="-5.101404" y2="1.570423" />
      <path d="M -5.101404,1.570423 Q -5.19822,1.78968 -5.321783,1.998598" />
      <path d="M -6.667001,1.975397 C -6.80288,1.812657 -6.952115,1.686902 -7.141333,1.604673 C -7.325204,1.523226 -7.553875,1.511572 -7.675636,1.631269" />
      <path d="M -5.321783,1.998598 C -5.53947,2.04772 -5.765881,2.073769 -6.001015,2.076747 C -6.23507,2.078235 -6.483439,2.046979 -6.667001,1.975397" />
      <line x1="-9.939969" y1="-2.400195" x2="-9.891762" y2="-1.708153" />
      <path d="M -8.444819,-1.275271 C -8.635427,-1.422134 -8.867619,-1.541699 -9.118612,-1.616426 C -9.369347,-1.691801 -9.637203,-1.721835 -9.891762,-1.708153" />
      <path d="M -8.274381,1.171464 C -8.104916,1.006278 -7.96695,0.805054 -7.880722,0.587537 C -7.793747,0.370244 -7.759091,0.138113 -7.774878,-0.082495" />
      <path d="M -9.650725,1.752052 C -9.396116,1.739096 -9.134374,1.681355 -8.895923,1.580387 C -8.657126,1.480035 -8.443218,1.337131 -8.274381,1.171464" />
      <path d="M -9.891762,-1.708153 C -10.146372,-1.695197 -10.408113,-1.637456 -10.646564,-1.536488 C -10.885361,-1.436137 -11.099269,-1.293232 -11.268107,-1.127565" />
      <path d="M -11.097668,1.31917 C -10.90706,1.466033 -10.674868,1.585598 -10.423875,1.660325 C -10.17314,1.7357 -9.905284,1.765734 -9.650725,1.752052" />
      <path d="M -11.268107,-1.127565 C -11.437571,-0.962379 -11.575538,-0.761155 -11.661765,-0.543638 C -11.74874,-0.326345 -11.783397,-0.094214 -11.767609,0.126394" />
      <path d="M -11.767609,0.126394 C -11.752659,0.347045 -11.686031,0.573877 -11.569525,0.780525 C -11.453729,0.987473 -11.288832,1.172852 -11.097668,1.31917" />
      <line x1="-7.675636" y1="1.631269" x2="-8.274381" y2="1.171464" />
      <line x1="-10.372397" y1="-3.760577" x2="-10.372397" y2="-3.261619" />
      <path d="M -10.372397,-3.261619 Q -10.395693,-3.138984 -10.395775,-3.026605" />
      <path d="M -10.395775,-3.026605 C -10.395709,-2.88105 -10.366007,-2.733315 -10.289291,-2.608257 C -10.214559,-2.484094 -10.084423,-2.392473 -9.939969,-2.400195" />
      <line x1="-11.866852" y1="-2.086328" x2="-11.866852" y2="-1.58737" />
      <path d="M -11.866852,-1.58737 Q -11.704556,-1.746033 -11.513025,-1.877959" />
      <line x1="-11.513025" y1="-2.376917" x2="-11.513025" y2="-1.877959" />
      <path d="M -11.513025,-1.877959 C -11.433981,-1.932767 -11.395301,-2.020663 -11.395919,-2.115006" />
      <path d="M -11.395919,-2.115006 C -11.396111,-2.236932 -11.454882,-2.364329 -11.536884,-2.473247 C -11.619135,-2.581197 -11.725299,-2.679877 -11.855378,-2.769287" />
      <path d="M -11.855378,-2.769287 C -11.914033,-2.900809 -11.940682,-3.069336 -11.940355,-3.235159" />
      <path d="M -11.940355,-3.235159 C -11.939529,-3.481613 -11.888503,-3.712829 -11.809873,-3.934652" />
      <line x1="-11.809873" y1="-4.43361" x2="-11.809873" y2="-3.934652" />
      <path d="M -11.809873,-3.934652 Q -11.562514,-4.030361 -11.304679,-4.10237" />
      <line x1="-11.304679" y1="-4.601328" x2="-11.304679" y2="-4.10237" />
      <path d="M -11.304679,-4.10237 C -11.110672,-4.003706 -10.929321,-3.883382 -10.760626,-3.741398 C -10.593911,-3.599022 -10.443789,-3.424721 -10.372397,-3.261619" />
      <path d="M -7.675636,1.631269 Q -7.837931,1.789932 -8.029463,1.921858" />
      <path d="M -8.029463,1.921858 C -8.108506,1.976666 -8.147186,2.064562 -8.146569,2.158905" />
      <path d="M -8.146569,2.158905 C -8.146376,2.280831 -8.087605,2.408228 -8.005604,2.517146 C -7.923353,2.625095 -7.817188,2.723776 -7.68711,2.813186" />
      <line x1="-7.68711" y1="2.314228" x2="-7.68711" y2="2.813186" />
      <path d="M -7.68711,2.813186 C -7.628455,2.944708 -7.601806,3.113235 -7.602132,3.279058" />
      <path d="M -7.602132,3.279058 C -7.602958,3.525512 -7.653984,3.756728 -7.732615,3.978551" />
      <path d="M -7.732615,3.978551 Q -7.979973,4.07426 -8.237808,4.146269" />
      <line x1="-9.17009" y1="2.858524" x2="-9.17009" y2="3.305518" />
      <path d="M -9.17009,3.305518 Q -9.146794,3.182883 -9.146712,3.070503" />
      <path d="M -9.146712,3.070503 C -9.146779,2.924949 -9.176481,2.777214 -9.253196,2.652156 C -9.327929,2.527993 -9.458064,2.436372 -9.602518,2.444093" />
      <path d="M -8.237808,4.146269 C -8.431816,4.047605 -8.613167,3.927281 -8.781861,3.785297 C -8.948577,3.642921 -9.098698,3.468619 -9.17009,3.305518" />
      <path d="M -9.602518,2.444093 Q -9.846736,2.45683 -10.089812,2.432747" />
      <path d="M -10.089812,2.432747 C -10.245268,2.417028 -10.389395,2.517978 -10.470401,2.652871 C -10.553864,2.789139 -10.585695,2.947109 -10.585888,3.106304" />
      <path d="M -10.585888,3.106304 Q -10.585882,3.186245 -10.574993,3.272804" />
      <line x1="-10.574993" y1="2.952323" x2="-10.574993" y2="3.272804" />
      <path d="M -10.574993,3.272804 C -10.656388,3.432348 -10.817094,3.599411 -10.992391,3.733824 C -11.16964,3.867752 -11.358185,3.979463 -11.558027,4.068956" />
      <path d="M -11.558027,4.068956 Q -11.811028,3.985052 -12.052099,3.877969" />
      <line x1="-12.025327" y1="2.21321" x2="-12.025327" y2="2.712168" />
      <path d="M -12.025327,2.712168 C -11.885749,2.626499 -11.770901,2.529627 -11.680785,2.421554 C -11.591013,2.312554 -11.525472,2.182355 -11.525292,2.057989" />
      <path d="M -11.525292,2.057989 C -11.524825,1.972075 -11.558802,1.891852 -11.628238,1.838059" />
      <path d="M -12.052099,3.877969 Q -12.138551,3.590618 -12.142299,3.279816" />
      <path d="M -12.142299,3.279816 C -12.142912,3.079917 -12.106612,2.868721 -12.025327,2.712168" />
      <path d="M -12.566155,0.168171 Q -12.571241,0.09519 -12.571244,0.021949" />
      <path d="M -12.571244,0.021949 Q -12.571227,-0.116658 -12.553062,-0.25413" />
      <line x1="-12.553062" y1="-0.307387" x2="-12.553062" y2="-0.25413" />
      <path d="M -12.553062,-0.25413 L -12.551445,-0.280766" />
      <path d="M -12.551445,-0.280766 C -12.549877,-0.434122 -12.715369,-0.562567 -12.903884,-0.622107 C -13.096738,-0.684092 -13.298172,-0.695156 -13.522404,-0.674601" />
      <path d="M -13.522404,-0.674601 C -13.706502,-0.74514 -13.899276,-0.884412 -14.054375,-1.036329 C -14.208915,-1.189938 -14.337818,-1.353336 -14.441084,-1.526524" />
      <line x1="-14.441084" y1="-2.025482" x2="-14.441084" y2="-1.526524" />
      <path d="M -14.441084,-1.526524 Q -14.344267,-1.745781 -14.220704,-1.9547" />
      <line x1="-14.220704" y1="-2.453657" x2="-14.220704" y2="-1.9547" />
      <line x1="-12.875487" y1="-2.430456" x2="-12.875487" y2="-1.931499" />
      <path d="M -12.875487,-1.931499 C -12.739607,-1.768758 -12.590373,-1.643003 -12.401154,-1.560774 C -12.217284,-1.479327 -11.988613,-1.467673 -11.866852,-1.58737" />
      <path d="M -14.220704,-1.9547 C -14.003017,-2.003821 -13.776606,-2.02987 -13.541473,-2.032848 C -13.307418,-2.034336 -13.059048,-2.00308 -12.875487,-1.931499" />
      <path d="M -11.628238,1.838059 Q -11.811318,1.697409 -11.963548,1.531423" />
      <path d="M -11.963548,1.531423 C -12.077716,1.406232 -12.30678,1.407227 -12.495432,1.479999 C -12.689472,1.553304 -12.846284,1.671933 -12.992051,1.828115" />
      <path d="M -12.992051,1.828115 C -13.179783,1.891051 -13.429731,1.910703 -13.663356,1.898325 C -13.897966,1.884409 -14.122436,1.84786 -14.336766,1.788679" />
      <path d="M -14.336766,1.788679 Q -14.447204,1.574312 -14.530296,1.350865" />
      <line x1="-14.530296" y1="0.851907" x2="-14.530296" y2="1.350865" />
      <line x1="-13.560153" y1="0.043967" x2="-13.560153" y2="0.542925" />
      <path d="M -13.560153,0.542925 C -13.334326,0.574319 -13.129286,0.572214 -12.930554,0.516824 C -12.73629,0.463916 -12.563918,0.337635 -12.565769,0.181226" />
      <path d="M -12.565769,0.181226 L -12.566155,0.168171" />
      <path d="M -14.530296,1.350865 C -14.416447,1.182733 -14.277605,1.025569 -14.11377,0.879374 C -13.949482,0.734894 -13.748356,0.604795 -13.560153,0.542925" />
      <line x1="-11.866852" y1="-1.58737" x2="-11.268107" y2="-1.127565" />
      <line x1="-9.602518" y1="2.444093" x2="-9.650725" y2="1.752052" />
      <line x1="-11.628238" y1="1.838059" x2="-11.097668" y2="1.31917" />
      <line x1="-12.566155" y1="0.168171" x2="-11.767609" y2="0.126394" />
      <path d="M 2.228108,-1.279019 Q 2.262264,-1.194675 2.290588,-1.108881" />
      <path d="M 2.290588,-1.108881 C 2.322931,-1.031658 2.498989,-1.055573 2.569581,-1.074417" />
      <path d="M 2.569581,-1.074417 C 2.834642,-1.110144 3.211948,-1.01735 3.529422,-0.870906" />
      <line x1="2.072609" y1="-1.152548" x2="2.072609" y2="-1.103046" />
      <path d="M 2.072609,-1.103046 Q 2.206404,-0.86472 2.290588,-0.609924" />
      <line x1="2.290588" y1="-1.108881" x2="2.290588" y2="-0.609924" />
      <path d="M 0.067723,-3.141654 Q 0.356788,-3.055122 0.624211,-2.92654" />
      <path d="M 0.624211,-2.92654 C 0.71009,-2.891755 0.815069,-3.016554 0.849609,-3.073137" />
      <path d="M 0.849609,-3.073137 C 1.030872,-3.288328 1.447167,-3.469198 1.838969,-3.553031 C 2.037496,-3.596196 2.232933,-3.623039 2.42528,-3.63356 C 2.61812,-3.644824 2.806661,-3.642735 3.010654,-3.629429" />
      <path d="M 3.010654,-3.629429 L 3.011835,-3.537259" />
      <path d="M 2.290588,-0.609924 C 2.322931,-0.5327 2.498989,-0.556615 2.569581,-0.57546" />
      <line x1="2.569581" y1="-1.074417" x2="2.569581" y2="-0.57546" />
      <path d="M 2.569581,-0.57546 C 2.719397,-0.594979 2.908559,-0.575118 3.1002,-0.525405 C 3.292414,-0.475917 3.48541,-0.398505 3.660724,-0.308519 C 4.016119,-0.124154 4.28795,0.090604 4.551566,0.355465" />
      <line x1="4.551566" y1="-0.038714" x2="4.551566" y2="0.355465" />
      <path d="M 2.155385,1.393154 C 2.367031,1.527456 2.554916,1.814704 2.66067,2.105968 C 2.769419,2.40141 2.809844,2.692173 2.810046,2.976493" />
      <path d="M 4.551566,0.355465 C 4.271918,0.607675 3.987172,0.809474 3.620867,0.977032 C 3.44023,1.058731 3.242715,1.12705 3.047712,1.16752 C 2.853267,1.208243 2.663147,1.219272 2.514757,1.192809" />
      <path d="M 2.514757,1.192809 C 2.445435,1.170706 2.271113,1.138632 2.23403,1.21424" />
      <path d="M 2.253627,-1.290229 C 2.193363,-1.266055 2.067635,-1.196303 2.067126,-1.126935" />
      <path d="M 2.067126,-1.126935 Q 2.067049,-1.11488 2.072609,-1.103046" />
      <line x1="0.723898" y1="-0.534115" x2="2.072609" y2="-1.103046" />
      <path d="M 0.816139,0.790049 C 0.899761,0.581235 0.93837,0.349573 0.921983,0.120017 C 0.906385,-0.109581 0.8359,-0.335536 0.723898,-0.534115" />
      <line x1="2.23403" y1="1.21424" x2="0.816139" y2="0.790049" />
      <line x1="0.067723" y1="-3.141654" x2="0.067723" y2="-2.642697" />
      <path d="M 0.067723,-2.642697 Q 0.356788,-2.556164 0.624211,-2.427583" />
      <line x1="0.624211" y1="-2.92654" x2="0.624211" y2="-2.427583" />
      <path d="M -2.606193,-3.001762 Q -2.331189,-3.117713 -2.037179,-3.190668" />
      <path d="M -2.037179,-3.190668 Q -2.018299,-3.196635 -2.005936,-3.209373" />
      <path d="M -2.005936,-3.539027 C -2.007102,-3.814644 -1.849585,-4.162182 -1.648471,-4.436259 C -1.443131,-4.717286 -1.209983,-4.935796 -0.923217,-5.150092" />
      <path d="M -0.923217,-5.150092 C -0.657925,-4.929272 -0.444426,-4.707653 -0.259724,-4.428956 C -0.078755,-4.156662 0.060382,-3.817692 0.059604,-3.540173" />
      <path d="M 0.059604,-3.145093 L 0.067723,-3.141654" />
      <path d="M 0.624211,-2.427583 C 0.71009,-2.392797 0.815069,-2.517596 0.849609,-2.574179" />
      <line x1="0.849609" y1="-3.073137" x2="0.849609" y2="-2.574179" />
      <path d="M 0.849609,-2.574179 C 1.030872,-2.78937 1.447167,-2.97024 1.838969,-3.054073 C 2.037496,-3.097238 2.232933,-3.124081 2.42528,-3.134602 C 2.61812,-3.145866 2.806661,-3.143777 3.010654,-3.130472" />
      <line x1="3.010654" y1="-3.629429" x2="3.010654" y2="-3.130472" />
      <path d="M 3.010654,-3.130472 L 3.011835,-3.038302" />
      <path d="M 3.011835,-3.038302 C 3.01128,-2.712432 2.967553,-2.402914 2.843067,-2.076224 C 2.722808,-1.756271 2.499392,-1.428833 2.253627,-1.290229" />
      <path d="M -5.1606,2.988266 C -5.160045,2.662397 -5.116318,2.352878 -4.991832,2.026189 C -4.871573,1.706236 -4.648157,1.378798 -4.402392,1.240193" />
      <path d="M -4.402392,1.240193 L -4.376873,1.228984" />
      <path d="M -4.382795,-1.264275 Q -4.346766,-1.35473 -4.30415,-1.443189" />
      <path d="M -4.958811,-3.525486 Q -4.958747,-3.665931 -4.945639,-3.814696" />
      <path d="M -4.945639,-3.814696 C -4.741117,-3.818489 -4.552718,-3.811802 -4.360854,-3.791579 C -4.169437,-3.772122 -3.975945,-3.736222 -3.780379,-3.683881 C -3.394337,-3.581935 -2.98985,-3.381953 -2.822183,-3.158637" />
      <path d="M -2.822183,-3.158637 C -2.791199,-3.100528 -2.694104,-2.971024 -2.606193,-3.001762" />
      <path d="M -6.700331,-0.4055 L -6.630643,-0.467336" />
      <path d="M -5.05888,-1.241451 Q -4.837271,-1.272264 -4.663522,-1.242844" />
      <path d="M -4.663522,-1.242844 C -4.5942,-1.220742 -4.419877,-1.188668 -4.382795,-1.264275" />
      <path d="M 2.23403,1.21424 Q 2.134181,1.464751 1.985811,1.696507" />
      <path d="M 1.985811,1.696507 Q 1.978632,1.709766 1.978747,1.723631" />
      <path d="M 1.978747,1.723631 C 1.979212,1.791976 2.097262,1.865343 2.154968,1.891843" />
      <line x1="2.154968" y1="1.394019" x2="2.154968" y2="1.891843" />
      <path d="M 2.154968,1.891843 C 2.366698,2.025986 2.554731,2.313278 2.660561,2.604634 C 2.769392,2.900169 2.809844,3.191039 2.810046,3.475451" />
      <path d="M 2.810046,3.475451 Q 2.809982,3.615895 2.796874,3.764661" />
      <path d="M 2.796874,3.764661 C 2.592352,3.768454 2.403953,3.761766 2.212089,3.741544 C 2.020672,3.722086 1.82718,3.686187 1.631614,3.633846 C 1.245572,3.5319 0.841085,3.331918 0.673418,3.108601" />
      <path d="M 0.673418,3.108601 C 0.642434,3.050492 0.545339,2.920988 0.457428,2.951727" />
      <line x1="0.067723" y1="-2.642697" x2="-0.421751" y2="-1.413915" />
      <path d="M 0.723898,-0.534115 C 0.612651,-0.733012 0.450931,-0.920481 0.252042,-1.07276 C 0.053677,-1.225552 -0.180527,-1.342132 -0.421751,-1.413915" />
      <path d="M -0.199062,1.782899 C 0.030445,1.686489 0.246766,1.546338 0.42248,1.373975 C 0.598787,1.202067 0.733309,0.999099 0.816139,0.790049" />
      <path d="M -1.727014,1.862837 C -1.245314,2.012887 -0.656435,1.982079 -0.199062,1.782899" />
      <path d="M -0.421751,-1.413915 C -0.903451,-1.563965 -1.49233,-1.533157 -1.949703,-1.333976" />
      <path d="M -2.872663,0.983037 C -2.761416,1.181934 -2.599696,1.369403 -2.400807,1.521682 C -2.202442,1.674474 -1.968238,1.791054 -1.727014,1.862837" />
      <path d="M -1.949703,-1.333976 C -2.17921,-1.237567 -2.395531,-1.097416 -2.571245,-0.925053 C -2.747552,-0.753145 -2.882074,-0.550177 -2.964904,-0.341127" />
      <path d="M -2.964904,-0.341127 C -3.048526,-0.132313 -3.087135,0.099349 -3.070748,0.328905 C -3.05515,0.558503 -2.984664,0.784458 -2.872663,0.983037" />
      <line x1="0.457428" y1="2.951727" x2="-0.199062" y2="1.782899" />
      <path d="M 0.042994,-2.885981 C 0.029443,-2.854013 0.013008,-2.797597 0.012981,-2.746084" />
      <path d="M 0.012981,-2.746084 C 0.012968,-2.699866 0.02638,-2.657569 0.067723,-2.642697" />
      <line x1="-2.606193" y1="-3.001762" x2="-2.606193" y2="-2.502805" />
      <path d="M -2.606193,-2.502805 Q -2.331189,-2.618755 -2.037179,-2.69171" />
      <line x1="-2.037179" y1="-3.190668" x2="-2.037179" y2="-2.69171" />
      <path d="M -2.037179,-2.69171 C -1.990065,-2.706156 -1.975605,-2.756274 -1.97562,-2.808656" />
      <path d="M -1.97562,-2.808656 C -1.975636,-2.855505 -1.98706,-2.904332 -1.997411,-2.933493" />
      <path d="M -1.997411,-2.933493 Q -2.005946,-2.983796 -2.005936,-3.040069" />
      <path d="M -2.005936,-3.040069 C -2.007102,-3.315686 -1.849585,-3.663225 -1.648471,-3.937301 C -1.443131,-4.218328 -1.209983,-4.436838 -0.923217,-4.651134" />
      <line x1="-0.923217" y1="-5.150092" x2="-0.923217" y2="-4.651134" />
      <path d="M -0.923217,-4.651134 C -0.657925,-4.430314 -0.444426,-4.208696 -0.259724,-3.929999 C -0.078755,-3.657704 0.060382,-3.318734 0.059604,-3.041215" />
      <path d="M 0.059604,-3.041215 Q 0.059632,-2.95745 0.042994,-2.885981" />
      <path d="M 0.457428,2.951727 Q 0.182424,3.067677 -0.111586,3.140633" />
      <path d="M -0.111586,3.140633 C -0.1587,3.155078 -0.17316,3.205197 -0.173144,3.257578" />
      <path d="M -0.173144,3.257578 C -0.173129,3.304427 -0.161705,3.353254 -0.151354,3.382416" />
      <line x1="-0.151354" y1="3.16957" x2="-0.151354" y2="3.382416" />
      <path d="M -0.151354,3.382416 Q -0.142819,3.432718 -0.142829,3.488991" />
      <path d="M -0.142829,3.488991 C -0.141663,3.764608 -0.29918,4.112147 -0.500294,4.386224 C -0.705634,4.66725 -0.938782,4.88576 -1.225547,5.100056" />
      <path d="M -1.225547,5.100056 C -1.49084,4.879236 -1.704339,4.657618 -1.889041,4.378921 C -2.07001,4.106627 -2.209147,3.767656 -2.208369,3.490138" />
      <path d="M -2.208369,3.490138 Q -2.208397,3.406372 -2.191759,3.334904" />
      <line x1="-2.191759" y1="3.106361" x2="-2.191759" y2="3.334904" />
      <path d="M -2.191759,3.334904 C -2.178208,3.302936 -2.161773,3.246519 -2.161746,3.195006" />
      <path d="M -2.161746,3.195006 C -2.161733,3.148788 -2.175145,3.106492 -2.216488,3.091619" />
      <path d="M -2.216488,3.091619 Q -2.505553,3.005086 -2.772976,2.876505" />
      <path d="M -2.772976,2.876505 C -2.858855,2.84172 -2.963834,2.966518 -2.998374,3.023101" />
      <path d="M -2.998374,3.023101 C -3.179637,3.238293 -3.595932,3.419163 -3.987734,3.502996 C -4.186261,3.54616 -4.381698,3.573003 -4.574045,3.583524 C -4.766885,3.594789 -4.955426,3.592699 -5.159418,3.579394" />
      <path d="M -5.159418,3.579394 L -5.1606,3.487224" />
      <path d="M -5.1606,3.487224 C -5.160045,3.161354 -5.116318,2.851836 -4.991832,2.525147 C -4.871573,2.205194 -4.648157,1.877756 -4.402392,1.739151" />
      <line x1="-4.402392" y1="1.240193" x2="-4.402392" y2="1.739151" />
      <path d="M -4.402392,1.739151 C -4.342128,1.714977 -4.2164,1.645225 -4.215891,1.575857" />
      <path d="M -4.215891,1.575857 Q -4.215814,1.563802 -4.221374,1.551969" />
      <line x1="-4.382795" y1="-1.264275" x2="-4.382795" y2="-0.765317" />
      <path d="M -4.382795,-0.765317 Q -4.282945,-1.015829 -4.134575,-1.247584" />
      <line x1="-4.134575" y1="-1.304699" x2="-4.134575" y2="-1.247584" />
      <path d="M -4.134575,-1.247584 Q -4.127397,-1.260844 -4.127512,-1.274709" />
      <path d="M -4.127512,-1.274709 C -4.127977,-1.343054 -4.246027,-1.416421 -4.303733,-1.442921" />
      <path d="M -4.303733,-1.442921 C -4.515462,-1.577064 -4.703496,-1.864356 -4.809326,-2.155712 C -4.918157,-2.451246 -4.958609,-2.742117 -4.958811,-3.026528" />
      <path d="M -4.958811,-3.026528 Q -4.958747,-3.166973 -4.945639,-3.315739" />
      <line x1="-4.945639" y1="-3.814696" x2="-4.945639" y2="-3.315739" />
      <path d="M -4.945639,-3.315739 C -4.741117,-3.319532 -4.552718,-3.312844 -4.360854,-3.292621 C -4.169437,-3.273164 -3.975945,-3.237265 -3.780379,-3.184923 C -3.394337,-3.082978 -2.98985,-2.882995 -2.822183,-2.659679" />
      <line x1="-2.822183" y1="-3.158637" x2="-2.822183" y2="-2.659679" />
      <path d="M -2.822183,-2.659679 C -2.791199,-2.60157 -2.694104,-2.472066 -2.606193,-2.502805" />
      <path d="M -4.221374,1.551969 Q -4.355169,1.313643 -4.439352,1.058846" />
      <path d="M -4.439352,1.058846 C -4.471696,0.981622 -4.647754,1.005537 -4.718346,1.024382" />
      <path d="M -4.718346,1.024382 C -4.868162,1.043901 -5.057324,1.02404 -5.248965,0.974327 C -5.441179,0.92484 -5.634175,0.847428 -5.809489,0.757441 C -6.164884,0.573077 -6.436715,0.358318 -6.700331,0.093457" />
      <line x1="-6.700331" y1="-0.4055" x2="-6.700331" y2="0.093457" />
      <path d="M -6.700331,0.093457 C -6.420683,-0.158753 -6.135937,-0.360551 -5.769632,-0.52811 C -5.588994,-0.609808 -5.39148,-0.678127 -5.196477,-0.718598 C -5.002032,-0.759321 -4.811912,-0.77035 -4.663522,-0.743887" />
      <line x1="-4.663522" y1="-1.242844" x2="-4.663522" y2="-0.743887" />
      <path d="M -4.663522,-0.743887 C -4.5942,-0.721784 -4.419877,-0.68971 -4.382795,-0.765317" />
      <line x1="-2.606193" y1="-2.502805" x2="-1.949703" y2="-1.333976" />
      <line x1="-2.216488" y1="3.091619" x2="-1.727014" y2="1.862837" />
      <line x1="-4.221374" y1="1.551969" x2="-2.872663" y2="0.983037" />
      <line x1="-4.382795" y1="-0.765317" x2="-2.964904" y2="-0.341127" />
      <path d="M 4.578693,0.239987 C 4.644442,0.237663 4.78926,0.215314 4.822226,0.152737" />
      <path d="M 3.181574,1.454492 Q 3.298121,1.239906 3.441041,1.051583" />
      <path d="M 4.551566,0.244889 L 4.578693,0.239987" />
      <path d="M 6.000984,2.713403 Q 5.772133,2.537591 5.581846,2.330108" />
      <path d="M 5.711978,3.202775 C 5.711341,2.983322 5.750383,2.752304 5.835769,2.577971" />
      <path d="M 5.581846,2.330108 C 5.517872,2.269491 5.365762,2.349971 5.308871,2.390794" />
      <path d="M 5.308871,2.390794 C 5.080811,2.513033 4.677799,2.551025 4.326598,2.520789 C 3.966223,2.490866 3.657234,2.413009 3.333026,2.296072" />
      <path d="M 3.282569,-1.802928 Q 3.361259,-1.973384 3.455032,-2.138008" />
      <path d="M 5.433895,-2.140642 C 5.488175,-2.097231 5.635078,-2.009788 5.702716,-2.067341" />
      <path d="M 3.455032,-2.138008 C 3.786018,-2.239689 4.099386,-2.303054 4.461095,-2.316162 C 4.813663,-2.330011 5.213739,-2.273318 5.433895,-2.140642" />
      <path d="M 3.333026,2.296072 Q 3.249589,2.127321 3.181574,1.95345" />
      <line x1="3.181574" y1="1.454492" x2="3.181574" y2="1.95345" />
      <line x1="4.578693" y1="0.239987" x2="4.578693" y2="0.738945" />
      <path d="M 4.578693,0.738945 C 4.652495,0.736379 4.827718,0.708189 4.828587,0.626044" />
      <path d="M 3.181574,1.95345 C 3.332652,1.678723 3.502535,1.441887 3.747607,1.210963 C 3.98561,0.985118 4.314765,0.78004 4.578693,0.738945" />
      <line x1="5.916401" y1="2.646272" x2="5.916401" y2="2.94637" />
      <path d="M 5.916401,2.94637 C 5.955022,2.910042 6.022752,2.827444 6.022966,2.76375" />
      <path d="M 6.022966,2.76375 Q 6.023677,2.734219 6.000984,2.713403" />
      <line x1="6.995802" y1="1.740488" x2="6.000984" y2="2.713403" />
      <path d="M 6.325861,0.547711 C 6.340811,0.768362 6.407439,0.995195 6.523945,1.201842 C 6.639741,1.40879 6.804638,1.594169 6.995802,1.740488" />
      <line x1="4.828587" y1="0.626044" x2="6.325861" y2="0.547711" />
      <path d="M 8.533133,3.470947 Q 8.227861,3.486868 7.924016,3.456763" />
      <path d="M 10.649495,2.708765 C 10.705156,2.851286 10.730818,3.026744 10.730551,3.200178" />
      <path d="M 7.924016,3.456763 C 7.82932,3.453103 7.787428,3.603224 7.780509,3.666953" />
      <path d="M 7.780509,3.666953 C 7.718985,3.893143 7.465011,4.166973 7.192004,4.360807 C 6.912765,4.560485 6.630751,4.69478 6.306089,4.810766" />
      <path d="M 6.306089,4.810766 Q 6.109401,4.742572 5.919441,4.661305" />
      <path d="M 5.919441,4.661305 Q 5.82226,4.427594 5.769077,4.195397 Q 5.713944,3.959128 5.711978,3.701733" />
      <path d="M 5.711978,3.701733 C 5.709854,3.421289 5.778415,3.118434 5.916401,2.94637" />
      <path d="M 5.702716,-2.067341 Q 5.840052,-2.20165 5.994957,-2.321189" />
      <path d="M 5.913902,-3.31156 C 5.915988,-3.50516 5.941362,-3.690195 5.990024,-3.866665 C 6.037272,-4.042775 6.100707,-4.205991 6.184275,-4.379463" />
      <path d="M 6.184275,-4.379463 Q 6.378996,-4.451772 6.579626,-4.510715" />
      <path d="M 7.981043,-3.299936 C 7.984004,-3.235977 8.016533,-3.084123 8.111319,-3.083371" />
      <path d="M 6.579626,-4.510715 C 6.896633,-4.379787 7.169919,-4.232562 7.436381,-4.020176 C 7.696984,-3.813917 7.933623,-3.528663 7.981043,-3.299936" />
      <path d="M 8.111319,-3.083371 Q 8.416591,-3.099292 8.720436,-3.069187" />
      <path d="M 8.720436,-3.069187 C 8.815132,-3.065527 8.857024,-3.215648 8.863944,-3.279377" />
      <path d="M 8.863944,-3.279377 C 8.925468,-3.505567 9.179441,-3.779397 9.452449,-3.973231 C 9.731687,-4.17291 10.013701,-4.307204 10.338363,-4.423191" />
      <path d="M 10.338363,-4.423191 Q 10.535052,-4.354996 10.725012,-4.273729" />
      <path d="M 10.725012,-4.273729 Q 10.822192,-4.040018 10.875375,-3.807821 Q 10.930508,-3.571553 10.932474,-3.314157" />
      <path d="M 11.822226,0.339856 C 11.87164,0.386947 11.985395,0.409115 12.042037,0.413776" />
      <path d="M 12.042037,0.413776 C 12.303038,0.467094 12.61901,0.687194 12.842675,0.92379 C 13.073084,1.165785 13.228047,1.410186 13.361883,1.691546" />
      <path d="M 10.808684,-2.190396 Q 10.943577,-2.072369 11.062607,-1.942533" />
      <path d="M 11.062607,-1.942533 C 11.126581,-1.881915 11.278691,-1.962395 11.335582,-2.003218" />
      <path d="M 11.335582,-2.003218 C 11.563641,-2.125457 11.966654,-2.16345 12.317854,-2.133213 C 12.678229,-2.10329 12.987218,-2.025434 13.311426,-1.908496" />
      <path d="M 13.311426,-1.908496 Q 13.394864,-1.739745 13.462878,-1.565874" />
      <path d="M 4.828587,0.626044 Q 4.82223,0.534817 4.822226,0.443267" />
      <path d="M 4.822226,0.443267 Q 4.822247,0.270007 4.844953,0.098167" />
      <line x1="4.844953" y1="0.091359" x2="4.844953" y2="0.098167" />
      <path d="M 4.844953,0.098167 L 4.845059,0.09475" />
      <path d="M 4.845059,0.09475 C 4.844274,0.01507 4.674954,-0.020277 4.602415,-0.0262" />
      <path d="M 4.602415,-0.0262 C 4.341415,-0.079518 4.025442,-0.299618 3.801777,-0.536214 C 3.571368,-0.778209 3.416406,-1.02261 3.282569,-1.303971" />
      <line x1="3.282569" y1="-1.802928" x2="3.282569" y2="-1.303971" />
      <path d="M 3.282569,-1.303971 Q 3.361259,-1.474426 3.455032,-1.63905" />
      <line x1="3.455032" y1="-2.138008" x2="3.455032" y2="-1.63905" />
      <line x1="5.433895" y1="-2.140642" x2="5.433895" y2="-1.641685" />
      <path d="M 5.433895,-1.641685 C 5.488175,-1.598273 5.635078,-1.51083 5.702716,-1.568383" />
      <line x1="5.702716" y1="-2.067341" x2="5.702716" y2="-1.568383" />
      <path d="M 3.455032,-1.63905 C 3.786018,-1.740731 4.099386,-1.804096 4.461095,-1.817205 C 4.813663,-1.831054 5.213739,-1.77436 5.433895,-1.641685" />
      <line x1="8.533133" y1="3.470947" x2="8.442744" y2="2.17337" />
      <path d="M 6.995802,1.740488 C 7.18641,1.88735 7.418602,2.006915 7.669595,2.081643 C 7.920329,2.157017 8.188185,2.187051 8.442744,2.17337" />
      <path d="M 6.825363,-0.706247 C 6.655899,-0.541062 6.517932,-0.339838 6.431705,-0.122321 C 6.34473,0.094972 6.310073,0.327104 6.325861,0.547711" />
      <path d="M 8.201708,-1.286836 C 7.947098,-1.27388 7.685357,-1.216138 7.446906,-1.115171 C 7.208109,-1.014819 6.9942,-0.871915 6.825363,-0.706247" />
      <path d="M 8.442744,2.17337 C 8.697354,2.160413 8.959096,2.102672 9.197547,2.001704 C 9.436343,1.901353 9.650252,1.758449 9.819089,1.592781" />
      <path d="M 9.64865,-0.853954 C 9.458043,-1.000816 9.225851,-1.120382 8.974858,-1.195109 C 8.724123,-1.270484 8.456267,-1.300518 8.201708,-1.286836" />
      <path d="M 9.819089,1.592781 C 9.988554,1.427595 10.12652,1.226371 10.212748,1.008855 C 10.299723,0.791561 10.334379,0.55943 10.318592,0.338822" />
      <path d="M 10.318592,0.338822 C 10.303641,0.118171 10.237014,-0.108661 10.120507,-0.315309 C 10.004711,-0.522257 9.839814,-0.707635 9.64865,-0.853954" />
      <line x1="5.702716" y1="-1.568383" x2="6.825363" y2="-0.706247" />
      <path d="M 8.663409,3.687512 C 8.660448,3.623553 8.627919,3.471699 8.533133,3.470947" />
      <path d="M 10.941736,2.454917 Q 10.738867,2.653244 10.499452,2.818153" />
      <path d="M 10.499452,2.818153 Q 10.473308,2.839939 10.474207,2.873142" />
      <path d="M 10.474207,2.873142 C 10.474387,2.936115 10.53423,3.017766 10.569478,3.05472" />
      <line x1="10.569478" y1="2.768647" x2="10.569478" y2="3.05472" />
      <path d="M 10.569478,3.05472 C 10.678044,3.207322 10.731852,3.456128 10.730551,3.699136" />
      <path d="M 10.730551,3.699136 C 10.728464,3.892736 10.70309,4.077771 10.654429,4.254241 C 10.60718,4.430351 10.543745,4.593566 10.460178,4.767039" />
      <path d="M 10.460178,4.767039 Q 10.265456,4.839348 10.064826,4.898291" />
      <path d="M 10.064826,4.898291 C 9.747819,4.767363 9.474533,4.620138 9.208071,4.407752 C 8.947468,4.201493 8.710829,3.916238 8.663409,3.687512" />
      <path d="M 5.702716,-1.568383 Q 5.905586,-1.766711 6.145,-1.931619" />
      <line x1="6.145" y1="-2.070529" x2="6.145" y2="-1.931619" />
      <path d="M 6.145,-1.931619 Q 6.171144,-1.953406 6.170246,-1.986608" />
      <path d="M 6.170246,-1.986608 C 6.170065,-2.049582 6.110223,-2.131232 6.074975,-2.168186" />
      <path d="M 6.074975,-2.168186 C 5.966408,-2.320788 5.9126,-2.569594 5.913902,-2.812603" />
      <path d="M 5.913902,-2.812603 C 5.915988,-3.006203 5.941362,-3.191238 5.990024,-3.367707 C 6.037272,-3.543818 6.100707,-3.707033 6.184275,-3.880505" />
      <line x1="6.184275" y1="-4.379463" x2="6.184275" y2="-3.880505" />
      <path d="M 6.184275,-3.880505 Q 6.378996,-3.952814 6.579626,-4.011757" />
      <line x1="6.579626" y1="-4.510715" x2="6.579626" y2="-4.011757" />
      <line x1="7.981043" y1="-3.299936" x2="7.981043" y2="-2.800978" />
      <path d="M 7.981043,-2.800978 C 7.984004,-2.737019 8.016533,-2.585165 8.111319,-2.584413" />
      <line x1="8.111319" y1="-3.083371" x2="8.111319" y2="-2.584413" />
      <path d="M 6.579626,-4.011757 C 6.896633,-3.880829 7.169919,-3.733604 7.436381,-3.521219 C 7.696984,-3.314959 7.933623,-3.029705 7.981043,-2.800978" />
      <path d="M 8.111319,-2.584413 Q 8.416591,-2.600334 8.720436,-2.57023" />
      <line x1="8.720436" y1="-3.069187" x2="8.720436" y2="-2.57023" />
      <path d="M 8.720436,-2.57023 C 8.815132,-2.56657 8.857024,-2.71669 8.863944,-2.780419" />
      <line x1="8.863944" y1="-3.279377" x2="8.863944" y2="-2.780419" />
      <path d="M 8.863944,-2.780419 C 8.925468,-3.006609 9.179441,-3.280439 9.452449,-3.474273 C 9.731687,-3.673952 10.013701,-3.808246 10.338363,-3.924233" />
      <line x1="10.338363" y1="-4.423191" x2="10.338363" y2="-3.924233" />
      <path d="M 10.338363,-3.924233 Q 10.535052,-3.856038 10.725012,-3.774771" />
      <line x1="10.725012" y1="-4.273729" x2="10.725012" y2="-3.774771" />
      <path d="M 10.728051,-2.059837 C 10.68943,-2.023508 10.6217,-1.94091 10.621486,-1.877217" />
      <path d="M 10.621486,-1.877217 Q 10.620775,-1.847685 10.643469,-1.82687" />
      <line x1="10.643469" y1="-1.950322" x2="10.643469" y2="-1.82687" />
      <path d="M 10.725012,-3.774771 Q 10.822192,-3.54106 10.875375,-3.308863 Q 10.930508,-3.072595 10.932474,-2.815199" />
      <path d="M 10.932474,-2.815199 C 10.934598,-2.534755 10.866038,-2.231901 10.728051,-2.059837" />
      <path d="M 11.815866,0.260489 Q 11.822223,0.351716 11.822226,0.443267" />
      <path d="M 11.822226,0.443267 Q 11.822206,0.616526 11.799499,0.788366" />
      <path d="M 11.799499,0.788366 L 11.799394,0.791783" />
      <path d="M 11.799394,0.791783 C 11.800178,0.871464 11.969498,0.90681 12.042037,0.912733" />
      <line x1="12.042037" y1="0.413776" x2="12.042037" y2="0.912733" />
      <path d="M 12.042037,0.912733 C 12.303038,0.966052 12.61901,1.186152 12.842675,1.422747 C 13.073084,1.664743 13.228047,1.909143 13.361883,2.190504" />
      <line x1="13.361883" y1="1.691546" x2="13.361883" y2="2.190504" />
      <path d="M 13.361883,2.190504 Q 13.283194,2.360959 13.18942,2.525584" />
      <path d="M 11.210557,2.528218 C 11.156278,2.484807 11.009374,2.397364 10.941736,2.454917" />
      <path d="M 13.18942,2.525584 C 12.858434,2.627265 12.545067,2.69063 12.183357,2.703738 C 11.83079,2.717587 11.430713,2.660894 11.210557,2.528218" />
      <path d="M 10.643469,-1.82687 Q 10.872319,-1.651057 11.062607,-1.443575" />
      <line x1="11.062607" y1="-1.942533" x2="11.062607" y2="-1.443575" />
      <path d="M 11.062607,-1.443575 C 11.126581,-1.382957 11.278691,-1.463438 11.335582,-1.50426" />
      <line x1="11.335582" y1="-2.003218" x2="11.335582" y2="-1.50426" />
      <path d="M 11.335582,-1.50426 C 11.563641,-1.626499 11.966654,-1.664492 12.317854,-1.634255 C 12.678229,-1.604333 12.987218,-1.526476 13.311426,-1.409538" />
      <line x1="13.311426" y1="-1.908496" x2="13.311426" y2="-1.409538" />
      <path d="M 13.311426,-1.409538 Q 13.394864,-1.240787 13.462878,-1.066916" />
      <line x1="13.462878" y1="-1.565874" x2="13.462878" y2="-1.066916" />
      <path d="M 12.06576,0.147589 C 11.991958,0.150155 11.816734,0.178345 11.815866,0.260489" />
      <path d="M 13.462878,-1.066916 C 13.3118,-0.79219 13.141917,-0.555353 12.896846,-0.32443 C 12.658842,-0.098584 12.329688,0.106493 12.06576,0.147589" />
      <line x1="10.941736" y1="2.454917" x2="9.819089" y2="1.592781" />
      <line x1="8.111319" y1="-2.584413" x2="8.201708" y2="-1.286836" />
      <line x1="10.643469" y1="-1.82687" x2="9.64865" y2="-0.853954" />
      <line x1="11.815866" y1="0.260489" x2="10.318592" y2="0.338822" />
      <path d="M -7.400188,-3.734875 L -7.400188,-3.235917" />
      <path d="M -6.971244,-0.186164 L -6.971244,0.021949" />
      <path d="M -11.940355,-3.734117 L -11.940355,-3.235159" />
      <path d="M -7.602132,2.7801 L -7.602132,3.279058" />
      <path d="M -12.142299,2.780858 L -12.142299,3.279816" />
      <path d="M -12.571244,-0.373267 L -12.571244,0.021949" />
      <path d="M 3.011835,-3.537259 L 3.011835,-3.038302" />
      <path d="M 2.810046,2.976493 L 2.810046,3.475451" />
      <path d="M -2.005936,-3.539027 L -2.005936,-3.040069" />
      <path d="M 0.059604,-3.540173 L 0.059604,-3.041215" />
      <path d="M -0.142829,3.159337 L -0.142829,3.488991" />
      <path d="M -2.208369,3.095058 L -2.208369,3.490138" />
      <path d="M -5.1606,2.988266 L -5.1606,3.487224" />
      <path d="M -4.958811,-3.525486 L -4.958811,-3.026528" />
      <path d="M 5.711978,3.202775 L 5.711978,3.701733" />
      <path d="M 4.822226,0.047719 L 4.822226,0.443267" />
      <path d="M 10.730551,3.200178 L 10.730551,3.699136" />
      <path d="M 5.913902,-3.31156 L 5.913902,-2.812603" />
      <path d="M 10.932474,-3.314157 L 10.932474,-2.815199" />
      <path d="M 11.822226,0.234839 L 11.822226,0.443267" />
    </g>
    <g fill="none" stroke="rgb(99,99,99)" stroke-width="0.0251938562483653" id="Hidden" stroke-dasharray="0.00064 0.075902">
      <line x1="-8.444819" y1="-1.774229" x2="-7.91425" y2="-2.293117" />
      <path d="M -7.774878,-0.581453 C -7.789829,-0.802104 -7.856456,-1.028936 -7.972963,-1.235584 C -8.088758,-1.442532 -8.253656,-1.62791 -8.444819,-1.774229" />
      <line x1="-6.976332" y1="-0.62323" x2="-7.774878" y2="-0.581453" />
      <path d="M -5.982335,-0.997984 C -6.208162,-1.029378 -6.413201,-1.027273 -6.611933,-0.971883 C -6.806197,-0.918975 -6.978569,-0.792694 -6.976718,-0.636285" />
      <path d="M -6.976718,-0.636285 L -6.976332,-0.62323" />
      <path d="M -5.012192,-1.805924 C -5.12604,-1.637792 -5.264882,-1.480628 -5.428717,-1.334433 C -5.593005,-1.189953 -5.794131,-1.059854 -5.982335,-0.997984" />
      <line x1="-9.939969" y1="-2.899152" x2="-9.891762" y2="-2.207111" />
      <path d="M -8.967494,-3.407382 Q -8.956484,-3.483051 -8.956599,-3.561363" />
      <path d="M -8.956599,-3.561363 Q -8.956605,-3.641304 -8.967494,-3.727863" />
      <path d="M -8.444819,-1.774229 C -8.635427,-1.921092 -8.867619,-2.040657 -9.118612,-2.115384 C -9.369347,-2.190759 -9.637203,-2.220793 -9.891762,-2.207111" />
      <path d="M -7.51716,-3.167227 C -7.656739,-3.081558 -7.771586,-2.984686 -7.861703,-2.876613 C -7.951474,-2.767613 -8.017015,-2.637414 -8.017195,-2.513048" />
      <path d="M -8.017195,-2.513048 Q -8.018141,-2.38321 -7.92023,-2.297927" />
      <path d="M -7.400188,-3.734875 C -7.399575,-3.534976 -7.435875,-3.32378 -7.51716,-3.167227" />
      <path d="M -8.274381,0.672506 C -8.104916,0.50732 -7.96695,0.306096 -7.880722,0.088579 C -7.793747,-0.128714 -7.759091,-0.360845 -7.774878,-0.581453" />
      <path d="M -9.650725,1.253095 C -9.396116,1.240138 -9.134374,1.182397 -8.895923,1.081429 C -8.657126,0.981078 -8.443218,0.838173 -8.274381,0.672506" />
      <path d="M -9.891762,-2.207111 C -10.146372,-2.194155 -10.408113,-2.136414 -10.646564,-2.035446 C -10.885361,-1.935094 -11.099269,-1.79219 -11.268107,-1.626523" />
      <path d="M -11.097668,0.820212 C -10.90706,0.967075 -10.674868,1.08664 -10.423875,1.161367 C -10.17314,1.236742 -9.905284,1.266776 -9.650725,1.253095" />
      <path d="M -11.268107,-1.626523 C -11.437571,-1.461337 -11.575538,-1.260113 -11.661765,-1.042596 C -11.74874,-0.825303 -11.783397,-0.593172 -11.767609,-0.372564" />
      <path d="M -11.767609,-0.372564 C -11.752659,-0.151913 -11.686031,0.07492 -11.569525,0.281567 C -11.453729,0.488515 -11.288832,0.673894 -11.097668,0.820212" />
      <path d="M -6.976332,-0.62323 Q -6.971246,-0.550249 -6.971244,-0.477008" />
      <path d="M -6.971244,-0.477008 Q -6.97126,-0.338401 -6.989425,-0.200929" />
      <path d="M -6.989425,-0.200929 L -6.991042,-0.174293" />
      <path d="M -6.991042,-0.174293 Q -6.990878,-0.12677 -6.971244,-0.081791" />
      <path d="M -6.619215,0.17324 C -6.431425,0.229654 -6.237046,0.239455 -6.020083,0.219542" />
      <path d="M -6.020083,0.219542 C -5.849378,0.28496 -5.670212,0.41 -5.522039,0.548921 C -5.373824,0.690014 -5.249128,0.839625 -5.147949,0.997755" />
      <line x1="-7.675636" y1="1.132312" x2="-8.274381" y2="0.672506" />
      <path d="M -5.101404,1.071465 Q -5.19822,1.290722 -5.321783,1.499641" />
      <path d="M -6.667001,1.47644 C -6.80288,1.313699 -6.952115,1.187944 -7.141333,1.105715 C -7.325204,1.024268 -7.553875,1.012614 -7.675636,1.132312" />
      <path d="M -5.321783,1.499641 C -5.53947,1.548762 -5.765881,1.574812 -6.001015,1.577789 C -6.23507,1.579277 -6.483439,1.548021 -6.667001,1.47644" />
      <line x1="-5.982335" y1="-0.997984" x2="-5.982335" y2="-0.499026" />
      <line x1="-6.976332" y1="-0.62323" x2="-6.976332" y2="-0.150357" />
      <line x1="-7.51716" y1="-3.167227" x2="-7.51716" y2="-2.668269" />
      <line x1="-11.866852" y1="-2.086328" x2="-11.268107" y2="-1.626523" />
      <path d="M -11.486151,-2.398293 Q -11.39482,-2.48508 -11.395919,-2.613964" />
      <path d="M -11.395919,-2.613964 C -11.396111,-2.73589 -11.454882,-2.863287 -11.536884,-2.972205 C -11.619135,-3.080154 -11.725299,-3.178835 -11.855378,-3.268245" />
      <path d="M -11.855378,-3.268245 C -11.914033,-3.399767 -11.940682,-3.568293 -11.940355,-3.734117" />
      <path d="M -10.372397,-3.760577 Q -10.395693,-3.637942 -10.395775,-3.525562" />
      <path d="M -10.395775,-3.525562 Q -10.396222,-3.417758 -10.372397,-3.313583" />
      <path d="M -7.675636,1.132312 Q -7.837931,1.290974 -8.029463,1.4229" />
      <path d="M -8.029463,1.4229 C -8.108506,1.477708 -8.147186,1.565604 -8.146569,1.659947" />
      <path d="M -8.146569,1.659947 C -8.146557,1.754473 -8.110596,1.853584 -8.056336,1.943234" />
      <path d="M -7.602132,2.7801 C -7.602958,3.026554 -7.653984,3.25777 -7.732615,3.479593" />
      <line x1="-9.602518" y1="1.945136" x2="-9.650725" y2="1.253095" />
      <path d="M -7.732615,3.479593 Q -7.979973,3.575302 -8.237808,3.647311" />
      <path d="M -9.17009,2.80656 Q -9.146794,2.683925 -9.146712,2.571546" />
      <path d="M -9.146712,2.571546 C -9.146779,2.425991 -9.176481,2.278256 -9.253196,2.153198 C -9.327929,2.029035 -9.458064,1.937414 -9.602518,1.945136" />
      <path d="M -8.237808,3.647311 C -8.431816,3.548647 -8.613167,3.428323 -8.781861,3.286339 C -8.948577,3.143963 -9.098698,2.969662 -9.17009,2.80656" />
      <path d="M -9.602518,1.945136 Q -9.846736,1.957872 -10.089812,1.933789" />
      <path d="M -10.089812,1.933789 C -10.245268,1.918071 -10.389395,2.01902 -10.470401,2.153913 C -10.553864,2.290181 -10.585695,2.448152 -10.585888,2.607347" />
      <path d="M -10.585888,2.607347 Q -10.585882,2.687288 -10.574993,2.773846" />
      <path d="M -10.574993,2.773846 C -10.656388,2.93339 -10.817094,3.100454 -10.992391,3.234866 C -11.16964,3.368794 -11.358185,3.480505 -11.558027,3.569998" />
      <line x1="-11.628238" y1="1.339101" x2="-11.097668" y2="0.820212" />
      <path d="M -11.558027,3.569998 Q -11.811028,3.486094 -12.052099,3.379011" />
      <path d="M -11.622257,1.842868 C -11.56411,1.75356 -11.52528,1.653856 -11.525292,1.559032" />
      <path d="M -11.525292,1.559032 C -11.524825,1.473117 -11.558802,1.392895 -11.628238,1.339101" />
      <path d="M -12.052099,3.379011 Q -12.138551,3.09166 -12.142299,2.780858" />
      <path d="M -12.566155,-0.330786 Q -12.571241,-0.403768 -12.571244,-0.477008" />
      <path d="M -12.571244,-0.477008 Q -12.571227,-0.615616 -12.553062,-0.753088" />
      <line x1="-12.566155" y1="-0.330786" x2="-11.767609" y2="-0.372564" />
      <path d="M -12.553062,-0.753088 L -12.551445,-0.779723" />
      <path d="M -12.551445,-0.779723 C -12.549877,-0.93308 -12.715369,-1.061525 -12.903884,-1.121065 C -13.096738,-1.18305 -13.298172,-1.194114 -13.522404,-1.173559" />
      <path d="M -13.522404,-1.173559 C -13.706502,-1.244098 -13.899276,-1.38337 -14.054375,-1.535287 C -14.208915,-1.688895 -14.337818,-1.852294 -14.441084,-2.025482" />
      <path d="M -11.628238,1.339101 Q -11.811318,1.198451 -11.963548,1.032465" />
      <path d="M -11.963548,1.032465 C -12.077716,0.907274 -12.30678,0.908269 -12.495432,0.981041 C -12.689472,1.054346 -12.846284,1.172975 -12.992051,1.329157" />
      <path d="M -12.992051,1.329157 C -13.179783,1.392093 -13.429731,1.411745 -13.663356,1.399367 C -13.897966,1.385451 -14.122436,1.348902 -14.336766,1.289721" />
      <path d="M -14.336766,1.289721 Q -14.447204,1.075354 -14.530296,0.851907" />
      <path d="M -12.571244,-0.268895 Q -12.565785,-0.293015 -12.565769,-0.317732" />
      <path d="M -12.565769,-0.317732 L -12.566155,-0.330786" />
      <line x1="-6.989425" y1="-0.200929" x2="-6.989425" y2="0.298029" />
      <line x1="-6.020083" y1="0.219542" x2="-6.020083" y2="0.639131" />
      <line x1="-5.321783" y1="1.499641" x2="-5.321783" y2="1.998598" />
      <line x1="-6.667001" y1="1.47644" x2="-6.667001" y2="1.975397" />
      <line x1="-7.675636" y1="1.132312" x2="-7.675636" y2="1.631269" />
      <line x1="-11.855378" y1="-3.268245" x2="-11.855378" y2="-2.769287" />
      <line x1="-8.029463" y1="1.4229" x2="-8.029463" y2="1.921858" />
      <line x1="-7.732615" y1="3.479593" x2="-7.732615" y2="3.978551" />
      <line x1="-8.237808" y1="3.647311" x2="-8.237808" y2="4.146269" />
      <line x1="-9.17009" y1="2.80656" x2="-9.17009" y2="2.858524" />
      <line x1="-9.602518" y1="1.945136" x2="-9.602518" y2="2.444093" />
      <line x1="-10.089812" y1="1.933789" x2="-10.089812" y2="2.432747" />
      <line x1="-10.574993" y1="2.773846" x2="-10.574993" y2="2.952323" />
      <line x1="-11.558027" y1="3.569998" x2="-11.558027" y2="4.068956" />
      <line x1="-12.052099" y1="3.379011" x2="-12.052099" y2="3.877969" />
      <line x1="-11.628238" y1="1.339101" x2="-11.628238" y2="1.838059" />
      <line x1="-12.566155" y1="-0.330786" x2="-12.566155" y2="0.168171" />
      <line x1="-12.553062" y1="-0.753088" x2="-12.553062" y2="-0.307387" />
      <line x1="-13.522404" y1="-1.173559" x2="-13.522404" y2="-0.674601" />
      <line x1="-11.963548" y1="1.032465" x2="-11.963548" y2="1.531423" />
      <line x1="-12.992051" y1="1.329157" x2="-12.992051" y2="1.828115" />
      <line x1="-14.336766" y1="1.289721" x2="-14.336766" y2="1.788679" />
      <path d="M 2.072609,-1.602004 Q 2.161051,-1.444539 2.228108,-1.279019" />
      <line x1="0.723898" y1="-1.033072" x2="2.072609" y2="-1.602004" />
      <path d="M 0.816139,0.291091 C 0.899761,0.082278 0.93837,-0.149385 0.921983,-0.378941 C 0.906385,-0.608539 0.8359,-0.834493 0.723898,-1.033072" />
      <path d="M 3.529422,-0.870906 C 3.735009,-0.775875 3.920944,-0.667231 4.087226,-0.544975 C 4.254255,-0.423526 4.402005,-0.29416 4.551566,-0.143493" />
      <line x1="2.23403" y1="0.715282" x2="0.816139" y2="0.291091" />
      <path d="M 4.551566,-0.143493 C 4.271918,0.108717 3.987172,0.310516 3.620867,0.478075 C 3.44023,0.559773 3.242715,0.628092 3.047712,0.668563 C 2.853267,0.709285 2.663147,0.720314 2.514757,0.693851" />
      <path d="M 2.514757,0.693851 C 2.445435,0.671748 2.271113,0.639675 2.23403,0.715282" />
      <line x1="2.072609" y1="-1.602004" x2="2.072609" y2="-1.152548" />
      <line x1="0.067723" y1="-3.141654" x2="-0.421751" y2="-1.912872" />
      <path d="M 0.723898,-1.033072 C 0.612651,-1.231969 0.450931,-1.419438 0.252042,-1.571717 C 0.053677,-1.724509 -0.180527,-1.84109 -0.421751,-1.912872" />
      <path d="M 3.011835,-3.537259 C 3.01128,-3.21139 2.967553,-2.901872 2.843067,-2.575182 C 2.722808,-2.255229 2.499392,-1.927791 2.253627,-1.789186" />
      <path d="M 2.253627,-1.789186 C 2.193363,-1.765013 2.067635,-1.695261 2.067126,-1.625892" />
      <path d="M 2.067126,-1.625892 Q 2.067049,-1.613838 2.072609,-1.602004" />
      <path d="M -0.199062,1.283941 C 0.030445,1.187531 0.246766,1.04738 0.42248,0.875018 C 0.598787,0.703109 0.733309,0.500142 0.816139,0.291091" />
      <path d="M -1.727014,1.363879 C -1.245314,1.51393 -0.656435,1.483121 -0.199062,1.283941" />
      <path d="M -0.421751,-1.912872 C -0.903451,-2.062923 -1.49233,-2.032114 -1.949703,-1.832934" />
      <path d="M -2.872663,0.484079 C -2.761416,0.682976 -2.599696,0.870445 -2.400807,1.022724 C -2.202442,1.175516 -1.968238,1.292096 -1.727014,1.363879" />
      <path d="M -1.949703,-1.832934 C -2.17921,-1.736524 -2.395531,-1.596374 -2.571245,-1.424011 C -2.747552,-1.252103 -2.882074,-1.049135 -2.964904,-0.840084" />
      <path d="M -2.964904,-0.840084 C -3.048526,-0.631271 -3.087135,-0.399609 -3.070748,-0.170052 C -3.05515,0.059545 -2.984664,0.2855 -2.872663,0.484079" />
      <line x1="4.551566" y1="-0.143493" x2="4.551566" y2="-0.038714" />
      <path d="M 2.23403,0.715282 Q 2.134181,0.965793 1.985811,1.197549" />
      <path d="M 1.985811,1.197549 Q 1.978632,1.210808 1.978747,1.224673" />
      <path d="M 1.978747,1.224673 C 1.979212,1.293019 2.097262,1.366386 2.154968,1.392885" />
      <path d="M 2.154968,1.392885 L 2.155385,1.393154" />
      <path d="M 2.810046,2.976493 Q 2.809982,3.116938 2.796874,3.265703" />
      <line x1="0.457428" y1="2.452769" x2="-0.199062" y2="1.283941" />
      <path d="M 2.796874,3.265703 C 2.592352,3.269496 2.403953,3.262808 2.212089,3.242586 C 2.020672,3.223128 1.82718,3.187229 1.631614,3.134888 C 1.245572,3.032942 0.841085,2.83296 0.673418,2.609644" />
      <path d="M 0.673418,2.609644 C 0.642434,2.551534 0.545339,2.422031 0.457428,2.452769" />
      <line x1="2.514757" y1="0.693851" x2="2.514757" y2="1.192809" />
      <line x1="2.23403" y1="0.715282" x2="2.23403" y2="1.21424" />
      <line x1="2.253627" y1="-1.789186" x2="2.253627" y2="-1.290229" />
      <line x1="-2.606193" y1="-3.001762" x2="-1.949703" y2="-1.832934" />
      <path d="M -2.005936,-3.209373 Q -1.973823,-3.246876 -1.97562,-3.307614" />
      <path d="M -1.97562,-3.307614 C -1.975636,-3.354463 -1.98706,-3.40329 -1.997411,-3.432451" />
      <path d="M -1.997411,-3.432451 Q -2.005946,-3.482754 -2.005936,-3.539027" />
      <path d="M 0.059604,-3.540173 Q 0.059632,-3.456408 0.042994,-3.384939" />
      <path d="M 0.042994,-3.384939 C 0.029443,-3.352971 0.013008,-3.296555 0.012981,-3.245041" />
      <path d="M 0.012981,-3.245041 C 0.012973,-3.201991 0.024595,-3.162359 0.059604,-3.145093" />
      <path d="M 0.457428,2.452769 Q 0.182424,2.56872 -0.111586,2.641675" />
      <path d="M -0.111586,2.641675 C -0.1587,2.65612 -0.17316,2.706239 -0.173144,2.75862" />
      <path d="M -0.173144,2.75862 C -0.173129,2.80547 -0.161705,2.854297 -0.151354,2.883458" />
      <path d="M -0.151354,2.883458 Q -0.142819,2.933761 -0.142829,2.990033" />
      <path d="M -0.142829,2.990033 C -0.141663,3.26565 -0.29918,3.613189 -0.500294,3.887266 C -0.705634,4.168292 -0.938782,4.386803 -1.225547,4.601098" />
      <line x1="-2.216488" y1="2.592661" x2="-1.727014" y2="1.363879" />
      <path d="M -1.225547,4.601098 C -1.49084,4.380278 -1.704339,4.15866 -1.889041,3.879963 C -2.07001,3.607669 -2.209147,3.268699 -2.208369,2.99118" />
      <path d="M -2.208369,2.99118 Q -2.208397,2.907414 -2.191759,2.835946" />
      <path d="M -2.191759,2.835946 C -2.178208,2.803978 -2.161773,2.747561 -2.161746,2.696048" />
      <path d="M -2.161746,2.696048 C -2.161733,2.64983 -2.175145,2.607534 -2.216488,2.592661" />
      <path d="M -2.216488,2.592661 Q -2.505553,2.506128 -2.772976,2.377547" />
      <path d="M -2.772976,2.377547 C -2.858855,2.342762 -2.963834,2.46756 -2.998374,2.524144" />
      <path d="M -2.998374,2.524144 C -3.179637,2.739335 -3.595932,2.920205 -3.987734,3.004038 C -4.186261,3.047203 -4.381698,3.074045 -4.574045,3.084567 C -4.766885,3.095831 -4.955426,3.093742 -5.159418,3.080436" />
      <line x1="-4.221374" y1="1.053011" x2="-2.872663" y2="0.484079" />
      <path d="M -5.159418,3.080436 L -5.1606,2.988266" />
      <path d="M -4.376873,1.228984 C -4.312727,1.19858 -4.216191,1.137495 -4.215891,1.076899" />
      <path d="M -4.215891,1.076899 Q -4.215814,1.064844 -4.221374,1.053011" />
      <path d="M -4.30415,-1.443189 Q -4.22902,-1.599085 -4.134575,-1.746542" />
      <line x1="-4.382795" y1="-1.264275" x2="-2.964904" y2="-0.840084" />
      <path d="M -4.134575,-1.746542 Q -4.127397,-1.759802 -4.127512,-1.773666" />
      <path d="M -4.127512,-1.773666 C -4.127977,-1.842012 -4.246027,-1.915379 -4.303733,-1.941878" />
      <path d="M -4.303733,-1.941878 C -4.515462,-2.076022 -4.703496,-2.363314 -4.809326,-2.654669 C -4.918157,-2.950204 -4.958609,-3.241075 -4.958811,-3.525486" />
      <path d="M -4.221374,1.053011 Q -4.355169,0.814685 -4.439352,0.559888" />
      <path d="M -4.439352,0.559888 C -4.471696,0.482664 -4.647754,0.506579 -4.718346,0.525424" />
      <path d="M -4.718346,0.525424 C -4.868162,0.544943 -5.057324,0.525082 -5.248965,0.475369 C -5.441179,0.425882 -5.634175,0.34847 -5.809489,0.258483 C -6.164884,0.074119 -6.436715,-0.14064 -6.700331,-0.4055" />
      <path d="M -6.630643,-0.467336 C -6.415324,-0.654053 -6.193827,-0.811591 -5.927983,-0.950256 C -5.665951,-1.086887 -5.353706,-1.200848 -5.05888,-1.241451" />
      <line x1="1.985811" y1="1.197549" x2="1.985811" y2="1.696507" />
      <line x1="2.154968" y1="1.392885" x2="2.154968" y2="1.394019" />
      <line x1="2.796874" y1="3.265703" x2="2.796874" y2="3.764661" />
      <line x1="0.673418" y1="2.609644" x2="0.673418" y2="3.108601" />
      <line x1="0.457428" y1="2.452769" x2="0.457428" y2="2.951727" />
      <line x1="0.042994" y1="-3.384939" x2="0.042994" y2="-2.885981" />
      <line x1="-1.997411" y1="-3.432451" x2="-1.997411" y2="-2.933493" />
      <line x1="-0.111586" y1="2.641675" x2="-0.111586" y2="3.140633" />
      <line x1="-0.151354" y1="2.883458" x2="-0.151354" y2="3.16957" />
      <line x1="-1.225547" y1="4.601098" x2="-1.225547" y2="5.100056" />
      <line x1="-2.191759" y1="2.835946" x2="-2.191759" y2="3.106361" />
      <line x1="-2.216488" y1="2.592661" x2="-2.216488" y2="3.091619" />
      <line x1="-2.772976" y1="2.377547" x2="-2.772976" y2="2.876505" />
      <line x1="-2.998374" y1="2.524144" x2="-2.998374" y2="3.023101" />
      <line x1="-5.159418" y1="3.080436" x2="-5.159418" y2="3.579394" />
      <line x1="-4.221374" y1="1.053011" x2="-4.221374" y2="1.551969" />
      <line x1="-4.134575" y1="-1.746542" x2="-4.134575" y2="-1.304699" />
      <line x1="-4.303733" y1="-1.941878" x2="-4.303733" y2="-1.442921" />
      <line x1="-4.439352" y1="0.559888" x2="-4.439352" y2="1.058846" />
      <line x1="-4.718346" y1="0.525424" x2="-4.718346" y2="1.024382" />
      <path d="M 6.000984,2.214445 Q 5.772133,2.038633 5.581846,1.831151" />
      <line x1="6.995802" y1="1.24153" x2="6.000984" y2="2.214445" />
      <path d="M 5.581846,1.831151 C 5.517872,1.770533 5.365762,1.851014 5.308871,1.891836" />
      <path d="M 6.325861,0.048753 C 6.340811,0.269405 6.407439,0.496237 6.523945,0.702885 C 6.639741,0.909832 6.804638,1.095211 6.995802,1.24153" />
      <path d="M 5.308871,1.891836 C 5.080811,2.014075 4.677799,2.052068 4.326598,2.021831 C 3.966223,1.991908 3.657234,1.914052 3.333026,1.797114" />
      <line x1="4.828587" y1="0.127087" x2="6.325861" y2="0.048753" />
      <path d="M 3.333026,1.797114 Q 3.249589,1.628363 3.181574,1.454492" />
      <path d="M 4.822226,0.152737 Q 4.828477,0.140881 4.828587,0.127087" />
      <path d="M 3.441041,1.051583 C 3.574578,0.876339 3.738946,0.703259 3.935815,0.552789 C 4.130426,0.403229 4.358946,0.282324 4.551566,0.244889" />
      <line x1="6.000984" y1="2.214445" x2="6.000984" y2="2.713403" />
      <line x1="5.581846" y1="1.831151" x2="5.581846" y2="2.330108" />
      <path d="M 8.533133,2.971989 Q 8.227861,2.98791 7.924016,2.957805" />
      <line x1="8.533133" y1="2.971989" x2="8.442744" y2="1.674412" />
      <path d="M 7.924016,2.957805 C 7.82932,2.954146 7.787428,3.104266 7.780509,3.167995" />
      <path d="M 6.995802,1.24153 C 7.18641,1.388392 7.418602,1.507958 7.669595,1.582685 C 7.920329,1.65806 8.188185,1.688094 8.442744,1.674412" />
      <path d="M 7.780509,3.167995 C 7.718985,3.394185 7.465011,3.668015 7.192004,3.861849 C 6.912765,4.061528 6.630751,4.195822 6.306089,4.311809" />
      <path d="M 6.306089,4.311809 Q 6.109401,4.243614 5.919441,4.162347" />
      <path d="M 5.916401,2.447412 C 5.955022,2.411084 6.022752,2.328486 6.022966,2.264793" />
      <path d="M 6.022966,2.264793 Q 6.023677,2.235261 6.000984,2.214445" />
      <path d="M 5.919441,4.162347 Q 5.82226,3.928636 5.769077,3.696439 Q 5.713944,3.460171 5.711978,3.202775" />
      <path d="M 5.835769,2.577971 Q 5.871636,2.504258 5.916401,2.447412" />
      <line x1="5.308871" y1="1.891836" x2="5.308871" y2="2.390794" />
      <path d="M 6.825363,-1.205205 C 6.655899,-1.040019 6.517932,-0.838796 6.431705,-0.621279 C 6.34473,-0.403985 6.310073,-0.171854 6.325861,0.048753" />
      <path d="M 8.201708,-1.785794 C 7.947098,-1.772837 7.685357,-1.715096 7.446906,-1.614129 C 7.208109,-1.513777 6.9942,-1.370873 6.825363,-1.205205" />
      <path d="M 8.442744,1.674412 C 8.697354,1.661455 8.959096,1.603714 9.197547,1.502747 C 9.436343,1.402395 9.650252,1.259491 9.819089,1.093823" />
      <path d="M 9.64865,-1.352912 C 9.458043,-1.499774 9.225851,-1.61934 8.974858,-1.694067 C 8.724123,-1.769442 8.456267,-1.799476 8.201708,-1.785794" />
      <path d="M 9.819089,1.093823 C 9.988554,0.928637 10.12652,0.727414 10.212748,0.509897 C 10.299723,0.292603 10.334379,0.060472 10.318592,-0.160135" />
      <path d="M 10.318592,-0.160135 C 10.303641,-0.380787 10.237014,-0.607619 10.120507,-0.814267 C 10.004711,-1.021214 9.839814,-1.206593 9.64865,-1.352912" />
      <line x1="3.333026" y1="1.797114" x2="3.333026" y2="2.296072" />
      <path d="M 4.828587,0.127087 Q 4.82223,0.035859 4.822226,-0.055691" />
      <path d="M 4.822226,-0.055691 Q 4.822247,-0.228951 4.844953,-0.40079" />
      <path d="M 4.844953,-0.40079 L 4.845059,-0.404208" />
      <path d="M 4.845059,-0.404208 C 4.844274,-0.483888 4.674954,-0.519235 4.602415,-0.525158" />
      <path d="M 4.602415,-0.525158 C 4.341415,-0.578476 4.025442,-0.798576 3.801777,-1.035171 C 3.571368,-1.277167 3.416406,-1.521568 3.282569,-1.802928" />
      <line x1="5.702716" y1="-2.067341" x2="6.825363" y2="-1.205205" />
      <line x1="4.828587" y1="0.127087" x2="4.828587" y2="0.626044" />
      <line x1="5.916401" y1="2.447412" x2="5.916401" y2="2.646272" />
      <line x1="8.533133" y1="2.971989" x2="8.533133" y2="3.470947" />
      <line x1="7.924016" y1="2.957805" x2="7.924016" y2="3.456763" />
      <path d="M 10.941736,1.955959 Q 10.738867,2.154287 10.499452,2.319195" />
      <line x1="10.941736" y1="1.955959" x2="9.819089" y2="1.093823" />
      <path d="M 10.499452,2.319195 Q 10.473308,2.340982 10.474207,2.374184" />
      <path d="M 10.474207,2.374184 C 10.474387,2.437158 10.53423,2.518808 10.569478,2.555762" />
      <path d="M 10.569478,2.555762 Q 10.615829,2.62207 10.649495,2.708765" />
      <path d="M 10.730551,3.200178 C 10.728464,3.393778 10.70309,3.578813 10.654429,3.755283 C 10.60718,3.931394 10.543745,4.094609 10.460178,4.268081" />
      <path d="M 10.460178,4.268081 Q 10.265456,4.34039 10.064826,4.399333" />
      <path d="M 8.663409,3.188554 C 8.660448,3.124595 8.627919,2.972741 8.533133,2.971989" />
      <path d="M 10.064826,4.399333 C 9.747819,4.268405 9.474533,4.12118 9.208071,3.908795 C 8.947468,3.702535 8.710829,3.417281 8.663409,3.188554" />
      <line x1="7.780509" y1="3.167995" x2="7.780509" y2="3.666953" />
      <line x1="6.306089" y1="4.311809" x2="6.306089" y2="4.810766" />
      <line x1="5.919441" y1="4.162347" x2="5.919441" y2="4.661305" />
      <path d="M 5.994957,-2.321189 Q 6.068273,-2.37775 6.145,-2.430577" />
      <path d="M 6.145,-2.430577 Q 6.171144,-2.452364 6.170246,-2.485566" />
      <path d="M 6.170246,-2.485566 C 6.170065,-2.548539 6.110223,-2.63019 6.074975,-2.667144" />
      <path d="M 6.074975,-2.667144 C 5.966408,-2.819746 5.9126,-3.068552 5.913902,-3.31156" />
      <line x1="8.111319" y1="-3.083371" x2="8.201708" y2="-1.785794" />
      <line x1="10.643469" y1="-2.325827" x2="9.64865" y2="-1.352912" />
      <path d="M 10.728051,-2.558794 C 10.68943,-2.522466 10.6217,-2.439868 10.621486,-2.376174" />
      <path d="M 10.621486,-2.376174 Q 10.620775,-2.346643 10.643469,-2.325827" />
      <path d="M 10.932474,-3.314157 C 10.934598,-3.033713 10.866038,-2.730858 10.728051,-2.558794" />
      <path d="M 11.815866,-0.238469 Q 11.822223,-0.147241 11.822226,-0.055691" />
      <path d="M 11.822226,-0.055691 Q 11.822206,0.117569 11.799499,0.289409" />
      <line x1="11.815866" y1="-0.238469" x2="10.318592" y2="-0.160135" />
      <path d="M 11.799499,0.289409 L 11.799394,0.292826" />
      <path d="M 11.799394,0.292826 Q 11.800178,0.319498 11.822226,0.339856" />
      <path d="M 13.361883,1.691546 Q 13.283194,1.862002 13.18942,2.026626" />
      <path d="M 11.210557,2.029261 C 11.156278,1.985849 11.009374,1.898406 10.941736,1.955959" />
      <path d="M 13.18942,2.026626 C 12.858434,2.128307 12.545067,2.191672 12.183357,2.20478 C 11.83079,2.218629 11.430713,2.161936 11.210557,2.029261" />
      <path d="M 10.643469,-2.325827 Q 10.728542,-2.260498 10.808684,-2.190396" />
      <path d="M 12.06576,-0.351369 C 11.991958,-0.348803 11.816734,-0.320613 11.815866,-0.238469" />
      <path d="M 13.462878,-1.565874 C 13.3118,-1.291147 13.141917,-1.054311 12.896846,-0.823387 C 12.658842,-0.597542 12.329688,-0.392464 12.06576,-0.351369" />
      <line x1="4.844953" y1="-0.40079" x2="4.844953" y2="0.091359" />
      <line x1="4.602415" y1="-0.525158" x2="4.602415" y2="-0.0262" />
      <line x1="8.663409" y1="3.188554" x2="8.663409" y2="3.687512" />
      <line x1="10.941736" y1="1.955959" x2="10.941736" y2="2.454917" />
      <line x1="10.499452" y1="2.319195" x2="10.499452" y2="2.818153" />
      <line x1="10.569478" y1="2.555762" x2="10.569478" y2="2.768647" />
      <line x1="10.460178" y1="4.268081" x2="10.460178" y2="4.767039" />
      <line x1="10.064826" y1="4.399333" x2="10.064826" y2="4.898291" />
      <line x1="6.145" y1="-2.430577" x2="6.145" y2="-2.070529" />
      <line x1="6.074975" y1="-2.667144" x2="6.074975" y2="-2.168186" />
      <line x1="10.728051" y1="-2.558794" x2="10.728051" y2="-2.059837" />
      <line x1="10.643469" y1="-2.325827" x2="10.643469" y2="-1.950322" />
      <line x1="11.815866" y1="-0.238469" x2="11.815866" y2="0.260489" />
      <line x1="11.799499" y1="0.289409" x2="11.799499" y2="0.788366" />
      <line x1="13.18942" y1="2.026626" x2="13.18942" y2="2.525584" />
      <line x1="11.210557" y1="2.029261" x2="11.210557" y2="2.528218" />
      <line x1="12.06576" y1="-0.351369" x2="12.06576" y2="0.147589" />
      <path d="M -6.976718,-0.636285 L -6.976718,-0.137327" />
      <path d="M -8.017195,-2.513048 L -8.017195,-2.01409" />
      <path d="M -8.956599,-3.561363 L -8.956599,-3.062406" />
      <path d="M -6.971244,-0.477008 L -6.971244,-0.186164" />
      <path d="M -6.991042,-0.174293 L -6.991042,0.324664" />
      <path d="M -10.395775,-3.525562 L -10.395775,-3.026605" />
      <path d="M -11.395919,-2.613964 L -11.395919,-2.115006" />
      <path d="M -8.146569,1.659947 L -8.146569,2.158905" />
      <path d="M -9.146712,2.571546 L -9.146712,3.070503" />
      <path d="M -10.585888,2.607347 L -10.585888,3.106304" />
      <path d="M -11.525292,1.559032 L -11.525292,2.057989" />
      <path d="M -12.571244,-0.477008 L -12.571244,-0.373267" />
      <path d="M -12.551445,-0.779723 L -12.551445,-0.280766" />
      <path d="M -12.565769,-0.317732 L -12.565769,0.181226" />
      <path d="M 2.067126,-1.625892 L 2.067126,-1.126935" />
      <path d="M 1.978747,1.224673 L 1.978747,1.723631" />
      <path d="M 0.012981,-3.245041 L 0.012981,-2.746084" />
      <path d="M -1.97562,-3.307614 L -1.97562,-2.808656" />
      <path d="M -0.173144,2.75862 L -0.173144,3.257578" />
      <path d="M -0.142829,2.990033 L -0.142829,3.159337" />
      <path d="M -2.208369,2.99118 L -2.208369,3.095058" />
      <path d="M -2.161746,2.696048 L -2.161746,3.195006" />
      <path d="M -4.215891,1.076899 L -4.215891,1.575857" />
      <path d="M -4.127512,-1.773666 L -4.127512,-1.274709" />
      <path d="M 6.022966,2.264793 L 6.022966,2.76375" />
      <path d="M 4.822226,-0.055691 L 4.822226,0.047719" />
      <path d="M 4.845059,-0.404208 L 4.845059,0.09475" />
      <path d="M 10.474207,2.374184 L 10.474207,2.873142" />
      <path d="M 6.170246,-2.485566 L 6.170246,-1.986608" />
      <path d="M 10.621486,-2.376174 L 10.621486,-1.877217" />
      <path d="M 11.822226,-0.055691 L 11.822226,0.234839" />
      <path d="M 11.799394,0.292826 L 11.799394,0.791783" />
    </g>
  </g>
</svg>