<?xml version='1.0' encoding='utf-8'?>
<svg width="100.090001mm" height="36.706602mm" viewBox="-14.542865 -5.112654 28.018366 10.275342" version="1.1" xmlns="http://www.w3.org/2000/svg">
  <g transform="scale(1,-1)" stroke-linecap="round">
    <g fill="none" stroke="rgb(0,0,0)" stroke-width="0.02519385456253235" id="Visible">
      <path d="M -7.914224,-2.293112 Q -7.731144,-2.152462 -7.578914,-1.986476" />
      <line x1="-7.914224" y1="-2.293112" x2="-7.914224" y2="-1.794154" />
      <path d="M -7.914224,-1.794154 Q -7.731144,-1.653505 -7.578914,-1.487519" />
      <line x1="-7.578914" y1="-1.986476" x2="-7.578914" y2="-1.487519" />
      <path d="M -7.578914,-1.986476 C -7.466188,-1.862932 -7.240821,-1.861848 -7.052277,-1.933127 C -6.858562,-2.00497 -6.699346,-2.123602 -6.550411,-2.283169" />
      <path d="M -7.578914,-1.487519 C -7.466188,-1.363974 -7.240821,-1.36289 -7.052277,-1.434169 C -6.858562,-1.506012 -6.699346,-1.624644 -6.550411,-1.784211" />
      <line x1="-6.550411" y1="-2.283169" x2="-6.550411" y2="-1.784211" />
      <path d="M -6.550411,-2.283169 C -6.159972,-2.409379 -5.626243,-2.358532 -5.205696,-2.243734" />
      <path d="M -6.550411,-1.784211 C -6.159972,-1.910422 -5.626243,-1.859575 -5.205696,-1.744776" />
      <line x1="-5.205696" y1="-2.243734" x2="-5.205696" y2="-1.744776" />
      <path d="M -5.205696,-2.243734 Q -5.095257,-2.029367 -5.012166,-1.80592" />
      <path d="M -5.205696,-1.744776 Q -5.095257,-1.530409 -5.012166,-1.306963" />
      <line x1="-5.012166" y1="-1.80592" x2="-5.012166" y2="-1.306963" />
      <path d="M -5.012166,-1.306963 C -5.236575,-0.978047 -5.5945,-0.631181 -5.982308,-0.499022" />
      <path d="M -5.982308,-0.499022 C -6.212987,-0.531084 -6.419803,-0.527646 -6.617235,-0.471386 C -6.810345,-0.417468 -6.97845,-0.291711 -6.976694,-0.137345" />
      <path d="M -6.976694,-0.137345 L -6.976305,-0.124268" />
      <line x1="-6.976305" y1="-0.150399" x2="-6.976305" y2="-0.124268" />
      <path d="M -6.976305,-0.124268 Q -6.97122,-0.051285 -6.971217,0.021956" />
      <path d="M -6.971217,0.021956 Q -6.971233,0.160563 -6.989398,0.298034" />
      <path d="M -6.971217,-0.081824 C -6.920341,0.036085 -6.777016,0.125363 -6.619786,0.173076" />
      <path d="M -6.989398,0.298034 L -6.991018,0.324668" />
      <path d="M -6.991018,0.324668 C -6.992507,0.476015 -6.831154,0.603831 -6.643768,0.664295 C -6.452188,0.727071 -6.249063,0.739489 -6.020056,0.718504" />
      <line x1="-6.020056" y1="0.638948" x2="-6.020056" y2="0.718504" />
      <path d="M -5.147615,0.997739 L -5.101376,1.071469" />
      <path d="M -6.020056,0.718504 C -5.640996,0.86852 -5.30508,1.231542 -5.101376,1.570426" />
      <line x1="-5.101376" y1="1.071469" x2="-5.101376" y2="1.570426" />
      <path d="M -5.101376,1.570426 Q -5.198192,1.789684 -5.321755,1.998602" />
      <path d="M -5.321755,1.998602 C -5.748808,2.093664 -6.284918,2.1196 -6.666972,1.975402" />
      <path d="M -6.666972,1.975402 C -6.805806,1.809134 -6.957441,1.683264 -7.146425,1.60251 C -7.330281,1.522559 -7.555389,1.513154 -7.675608,1.631275" />
      <path d="M -7.675608,1.631275 Q -7.837903,1.789937 -8.029434,1.921864" />
      <path d="M -8.056322,1.943248 C -7.969999,2.083981 -7.848191,2.201405 -7.687081,2.314234" />
      <path d="M -8.029434,1.921864 C -8.10841,1.976621 -8.147121,2.06446 -8.146519,2.158962" />
      <path d="M -8.146519,2.158962 C -8.146342,2.279175 -8.089181,2.405289 -8.007697,2.514327 C -7.926134,2.62246 -7.819262,2.722081 -7.687081,2.813191" />
      <line x1="-7.687081" y1="2.314234" x2="-7.687081" y2="2.813191" />
      <path d="M -7.687081,2.314234 Q -7.599778,2.525574 -7.601978,2.777834" />
      <path d="M -7.687081,2.813191 Q -7.599778,3.024532 -7.601978,3.276791" />
      <path d="M -7.601978,3.276791 C -7.602047,3.51498 -7.654342,3.762599 -7.732585,3.978556" />
      <path d="M -7.732585,3.978556 Q -7.979943,4.074266 -8.237778,4.146275" />
      <path d="M -8.237778,4.146275 C -8.617314,3.951796 -9.017563,3.641609 -9.170061,3.305524" />
      <line x1="-9.170061" y1="2.858471" x2="-9.170061" y2="3.305524" />
      <path d="M -9.170061,3.305524 Q -9.146734,3.182291 -9.146704,3.07039" />
      <path d="M -9.146704,3.07039 C -9.146765,2.922406 -9.177451,2.774302 -9.254519,2.649986 C -9.329681,2.526553 -9.459203,2.43647 -9.602489,2.4441" />
      <path d="M -9.602489,2.4441 Q -9.846707,2.456837 -10.089783,2.432753" />
      <path d="M -10.089783,2.432753 C -10.243781,2.41722 -10.387109,2.516131 -10.468679,2.650149 C -10.552602,2.785517 -10.585652,2.944075 -10.585835,3.106317" />
      <path d="M -10.585835,3.106317 Q -10.585845,3.18603 -10.574964,3.272811" />
      <line x1="-10.574964" y1="2.952376" x2="-10.574964" y2="3.272811" />
      <path d="M -10.574964,3.272811 C -10.748067,3.601314 -11.166958,3.892428 -11.557997,4.068963" />
      <path d="M -11.557997,4.068963 Q -11.810998,3.985059 -12.052069,3.877977" />
      <path d="M -12.142225,2.777956 C -12.142277,2.575563 -12.107878,2.376924 -12.025298,2.213218" />
      <path d="M -12.052069,3.877977 C -12.107295,3.690935 -12.142188,3.482048 -12.142225,3.276913" />
      <path d="M -12.142225,3.276913 C -12.142277,3.074521 -12.107878,2.875881 -12.025298,2.712176" />
      <line x1="-12.025298" y1="2.213218" x2="-12.025298" y2="2.712176" />
      <path d="M -12.025298,2.213218 C -11.850704,2.103801 -11.717299,1.986869 -11.622215,1.842886" />
      <path d="M -12.025298,2.712176 C -11.883394,2.624812 -11.76776,2.526984 -11.678396,2.41869 C -11.589195,2.30954 -11.525452,2.180655 -11.525288,2.05803" />
      <path d="M -11.525288,2.05803 C -11.524831,1.971994 -11.558825,1.891813 -11.62821,1.838066" />
      <path d="M -11.62821,1.838066 Q -11.81129,1.697416 -11.96352,1.53143" />
      <path d="M -11.96352,1.53143 C -12.076246,1.407886 -12.301613,1.406802 -12.490157,1.478081 C -12.683872,1.549924 -12.843088,1.668556 -12.992023,1.828123" />
      <path d="M -12.992023,1.828123 C -13.382462,1.954333 -13.916191,1.903486 -14.336738,1.788688" />
      <path d="M -14.336738,1.788688 Q -14.447177,1.574321 -14.530268,1.350874" />
      <line x1="-14.530268" y1="0.851917" x2="-14.530268" y2="1.350874" />
      <path d="M -14.530268,0.851917 C -14.305859,0.523001 -13.947934,0.176135 -13.560126,0.043976" />
      <path d="M -14.530268,1.350874 C -14.305859,1.021959 -13.947934,0.675093 -13.560126,0.542934" />
      <line x1="-13.560126" y1="0.043976" x2="-13.560126" y2="0.542934" />
      <path d="M -13.560126,0.043976 C -13.341446,0.074405 -13.146152,0.072684 -12.957082,0.025146 C -12.772234,-0.02083 -12.60239,-0.126915 -12.571217,-0.268891" />
      <path d="M -13.560126,0.542934 C -13.329447,0.574996 -13.122631,0.571558 -12.925199,0.515297 C -12.732089,0.46138 -12.563984,0.335623 -12.56574,0.181257" />
      <path d="M -12.56574,0.181257 L -12.566129,0.16818" />
      <path d="M -12.566129,0.16818 Q -12.571214,0.095197 -12.571217,0.021956" />
      <path d="M -12.571217,0.021956 Q -12.571201,-0.116651 -12.553036,-0.254122" />
      <line x1="-12.553036" y1="-0.307382" x2="-12.553036" y2="-0.254122" />
      <path d="M -12.553036,-0.254122 L -12.551416,-0.280757" />
      <path d="M -12.551416,-0.280757 C -12.549927,-0.432103 -12.71128,-0.559919 -12.898666,-0.620384 C -13.090246,-0.683159 -13.293371,-0.695578 -13.522378,-0.674593" />
      <path d="M -13.522378,-0.674593 C -13.901438,-0.824608 -14.237354,-1.18763 -14.441058,-1.526515" />
      <line x1="-14.441058" y1="-2.025472" x2="-14.441058" y2="-1.526515" />
      <path d="M -14.441058,-2.025472 Q -14.344242,-2.24473 -14.220679,-2.453648" />
      <path d="M -14.441058,-1.526515 Q -14.344242,-1.745772 -14.220679,-1.95469" />
      <line x1="-14.220679" y1="-2.453648" x2="-14.220679" y2="-1.95469" />
      <path d="M -14.220679,-2.453648 C -13.793626,-2.54871 -13.257516,-2.574646 -12.875462,-2.430448" />
      <path d="M -14.220679,-1.95469 C -13.793626,-2.049752 -13.257516,-2.075688 -12.875462,-1.93149" />
      <line x1="-12.875462" y1="-2.430448" x2="-12.875462" y2="-1.93149" />
      <path d="M -12.875462,-2.430448 C -12.736628,-2.26418 -12.584993,-2.13831 -12.396009,-2.057556 C -12.212153,-1.977605 -11.987045,-1.9682 -11.866826,-2.086321" />
      <path d="M -12.875462,-1.93149 C -12.736628,-1.765222 -12.584993,-1.639353 -12.396009,-1.558598 C -12.212153,-1.478647 -11.987045,-1.469242 -11.866826,-1.587363" />
      <line x1="-11.866826" y1="-2.086321" x2="-11.866826" y2="-1.587363" />
      <path d="M -11.866826,-2.086321 Q -11.704531,-2.244983 -11.512999,-2.37691" />
      <path d="M -11.866826,-1.587363 Q -11.704531,-1.746025 -11.512999,-1.877952" />
      <line x1="-11.512999" y1="-2.37691" x2="-11.512999" y2="-1.877952" />
      <path d="M -11.512999,-2.37691 L -11.486112,-2.398294" />
      <path d="M -11.512999,-1.877952 C -11.434023,-1.932709 -11.395313,-2.020548 -11.395915,-2.11505" />
      <path d="M -11.395915,-2.11505 C -11.396092,-2.235263 -11.453253,-2.361378 -11.534737,-2.470415 C -11.6163,-2.578548 -11.723172,-2.678169 -11.855353,-2.76928" />
      <path d="M -11.940456,-3.731837 C -11.940387,-3.970026 -11.888091,-4.217645 -11.809849,-4.433602" />
      <path d="M -11.855353,-2.76928 Q -11.942656,-2.98062 -11.940456,-3.23288" />
      <path d="M -11.940456,-3.23288 C -11.940387,-3.471068 -11.888091,-3.718687 -11.809849,-3.934644" />
      <line x1="-11.809849" y1="-4.433602" x2="-11.809849" y2="-3.934644" />
      <path d="M -11.809849,-4.433602 Q -11.562491,-4.529312 -11.304656,-4.601321" />
      <path d="M -11.809849,-3.934644 Q -11.562491,-4.030354 -11.304656,-4.102363" />
      <line x1="-11.304656" y1="-4.601321" x2="-11.304656" y2="-4.102363" />
      <path d="M -11.304656,-4.601321 C -10.92512,-4.406842 -10.524871,-4.096655 -10.372373,-3.76057" />
      <path d="M -11.304656,-4.102363 C -10.92512,-3.907884 -10.524871,-3.597697 -10.372373,-3.261612" />
      <line x1="-10.372373" y1="-3.76057" x2="-10.372373" y2="-3.261612" />
      <path d="M -10.372373,-3.313517 C -10.347301,-3.205955 -10.299206,-3.101388 -10.224284,-3.02233 C -10.150237,-2.94326 -10.04783,-2.893745 -9.939944,-2.899146" />
      <path d="M -10.372373,-3.261612 Q -10.3957,-3.138379 -10.39573,-3.026478" />
      <path d="M -10.39573,-3.026478 C -10.395669,-2.878495 -10.364983,-2.73039 -10.287914,-2.606075 C -10.212753,-2.482642 -10.083231,-2.392558 -9.939944,-2.400188" />
      <line x1="-9.939944" y1="-2.899146" x2="-9.939944" y2="-2.400188" />
      <path d="M -9.939944,-2.899146 Q -9.695727,-2.911883 -9.452651,-2.887799" />
      <path d="M -9.939944,-2.400188 Q -9.695727,-2.412925 -9.452651,-2.388841" />
      <line x1="-9.452651" y1="-2.887799" x2="-9.452651" y2="-2.388841" />
      <path d="M -9.452651,-2.887799 C -9.324065,-2.875064 -9.200338,-2.942011 -9.117777,-3.044025 C -9.033727,-3.146362 -8.986689,-3.276306 -8.96747,-3.407422" />
      <path d="M -9.452651,-2.388841 C -9.298653,-2.373308 -9.155325,-2.472219 -9.073755,-2.606237 C -8.989832,-2.741606 -8.956782,-2.900163 -8.956599,-3.062405" />
      <path d="M -8.956599,-3.062405 Q -8.956589,-3.142118 -8.96747,-3.228899" />
      <line x1="-8.96747" y1="-3.727857" x2="-8.96747" y2="-3.228899" />
      <path d="M -8.96747,-3.727857 C -8.794367,-4.05636 -8.375476,-4.347474 -7.984437,-4.524009" />
      <path d="M -8.96747,-3.228899 C -8.794367,-3.557402 -8.375476,-3.848516 -7.984437,-4.025051" />
      <line x1="-7.984437" y1="-4.524009" x2="-7.984437" y2="-4.025051" />
      <path d="M -7.984437,-4.524009 Q -7.731436,-4.440105 -7.490365,-4.333023" />
      <path d="M -7.984437,-4.025051 Q -7.731436,-3.941148 -7.490365,-3.834065" />
      <line x1="-7.490365" y1="-4.333023" x2="-7.490365" y2="-3.834065" />
      <path d="M -7.490365,-4.333023 C -7.435139,-4.145981 -7.400246,-3.937094 -7.400209,-3.731959" />
      <path d="M -7.490365,-3.834065 C -7.435139,-3.647023 -7.400246,-3.438136 -7.400209,-3.233002" />
      <path d="M -7.400209,-3.233002 C -7.400157,-3.030609 -7.434556,-2.83197 -7.517136,-2.668264" />
      <path d="M -7.920219,-2.297932 L -7.914224,-2.293112" />
      <path d="M -7.517136,-2.668264 C -7.65904,-2.580901 -7.774674,-2.483072 -7.864037,-2.374778 C -7.953238,-2.265628 -8.016982,-2.136743 -8.017146,-2.014118" />
      <path d="M -8.017146,-2.014118 C -8.017603,-1.928082 -7.983609,-1.847901 -7.914224,-1.794154" />
      <path d="M 2.228138,-1.27901 Q 2.262292,-1.194671 2.290614,-1.108882" />
      <line x1="2.072635" y1="-1.152554" x2="2.072635" y2="-1.103047" />
      <path d="M 2.072635,-1.103047 Q 2.20643,-0.864721 2.290614,-0.609924" />
      <line x1="2.290614" y1="-1.108882" x2="2.290614" y2="-0.609924" />
      <path d="M 2.290614,-1.108882 C 2.322668,-1.031905 2.498125,-1.055368 2.569607,-1.074418" />
      <path d="M 2.290614,-0.609924 C 2.322668,-0.532947 2.498125,-0.55641 2.569607,-0.57546" />
      <line x1="2.569607" y1="-1.074418" x2="2.569607" y2="-0.57546" />
      <path d="M 2.569607,-1.074418 C 2.831263,-1.107077 3.19005,-1.026249 3.529564,-0.870981" />
      <path d="M 2.569607,-0.57546 C 2.837121,-0.608838 3.205516,-0.523699 3.551943,-0.361741 C 3.902833,-0.197337 4.232629,0.031793 4.551593,0.355463" />
      <line x1="4.551593" y1="-0.039042" x2="4.551593" y2="0.355463" />
      <path d="M 4.551593,0.355463 C 4.213034,0.663823 3.869517,0.877274 3.508946,1.025112 C 3.152983,1.170715 2.779844,1.238587 2.514784,1.192808" />
      <path d="M 2.514784,1.192808 C 2.444585,1.170459 2.270835,1.138865 2.234058,1.214239" />
      <path d="M 2.234058,1.214239 Q 2.134208,1.464751 1.985839,1.696506" />
      <path d="M 1.985839,1.696506 Q 1.978669,1.709778 1.978783,1.723651" />
      <path d="M 1.978783,1.723651 C 1.979101,1.791659 2.096687,1.865033 2.154996,1.891842" />
      <line x1="2.154996" y1="1.394018" x2="2.154996" y2="1.891842" />
      <path d="M 2.155412,1.393155 C 2.346284,1.517081 2.518897,1.755997 2.632986,2.034718 C 2.749556,2.316141 2.808665,2.631521 2.810312,2.980859" />
      <path d="M 2.154996,1.891842 C 2.345957,2.015643 2.518692,2.254578 2.632859,2.533369 C 2.749512,2.814868 2.808663,3.13035 2.810312,3.479816" />
      <path d="M 2.810312,3.479816 Q 2.810434,3.616899 2.796904,3.76466" />
      <path d="M 2.796904,3.76466 C 2.305906,3.775235 1.888841,3.715662 1.513254,3.599242 C 1.142748,3.484066 0.823521,3.3034 0.673447,3.108602" />
      <path d="M 0.673447,3.108602 C 0.642044,3.049781 0.544963,2.920967 0.457457,2.951727" />
      <path d="M 0.457457,2.951727 Q 0.182453,3.067678 -0.111557,3.140633" />
      <path d="M -0.111557,3.140633 C -0.15859,3.155082 -0.17314,3.205024 -0.173121,3.257521" />
      <path d="M -0.173121,3.257521 C -0.17311,3.304226 -0.16172,3.353038 -0.151325,3.382416" />
      <line x1="-0.151325" y1="3.16957" x2="-0.151325" y2="3.382416" />
      <path d="M -0.151325,3.382416 Q -0.143112,3.432632 -0.143129,3.48825" />
      <path d="M -0.143129,3.48825 C -0.143003,3.726252 -0.25508,4.021894 -0.440015,4.29937 C -0.627471,4.579816 -0.878578,4.843338 -1.225517,5.100057" />
      <path d="M -1.225517,5.100057 C -1.54481,4.836858 -1.773755,4.572014 -1.942575,4.2938 C -2.109211,4.018294 -2.208033,3.728532 -2.207992,3.490273" />
      <path d="M -2.207992,3.490273 Q -2.208033,3.406862 -2.19173,3.334906" />
      <line x1="-2.19173" y1="3.106374" x2="-2.19173" y2="3.334906" />
      <path d="M -2.19173,3.334906 C -2.178109,3.302691 -2.161728,3.246302 -2.161708,3.19497" />
      <path d="M -2.161708,3.19497 C -2.161693,3.14867 -2.175176,3.106503 -2.216459,3.091621" />
      <path d="M -2.216459,3.091621 Q -2.505524,3.005088 -2.772947,2.876507" />
      <path d="M -2.772947,2.876507 C -2.85842,2.841719 -2.963343,2.965829 -2.998345,3.023104" />
      <path d="M -2.998345,3.023104 C -3.160272,3.210637 -3.490234,3.376187 -3.867342,3.473954 C -4.249601,3.572728 -4.669755,3.612807 -5.159389,3.579398" />
      <path d="M -5.160867,2.983035 C -5.160415,2.585085 -5.086924,2.239677 -4.952714,1.931087 C -4.81989,1.626099 -4.618325,1.365129 -4.402364,1.240196" />
      <path d="M -5.159389,3.579398 L -5.160867,3.481993" />
      <path d="M -5.160867,3.481993 C -5.160415,3.084043 -5.086924,2.738635 -4.952714,2.430045 C -4.81989,2.125057 -4.618325,1.864086 -4.402364,1.739154" />
      <line x1="-4.402364" y1="1.240196" x2="-4.402364" y2="1.739154" />
      <path d="M -4.402364,1.240196 L -4.376849,1.228977" />
      <path d="M -4.402364,1.739154 C -4.341454,1.71469 -4.216219,1.644908 -4.215872,1.575874" />
      <path d="M -4.215872,1.575874 Q -4.215796,1.563814 -4.221346,1.551972" />
      <path d="M -4.221346,1.551972 Q -4.355142,1.313646 -4.439325,1.058849" />
      <path d="M -4.439325,1.058849 C -4.471379,0.981872 -4.646836,1.005335 -4.718318,1.024385" />
      <path d="M -4.718318,1.024385 C -4.985832,1.057763 -5.354228,0.972624 -5.700654,0.810666 C -6.051545,0.646262 -6.381341,0.417132 -6.700304,0.093462" />
      <line x1="-6.700304" y1="-0.405496" x2="-6.700304" y2="0.093462" />
      <path d="M -6.700304,-0.405496 L -6.631208,-0.467162" />
      <path d="M -5.058596,-1.241361 Q -4.837611,-1.271721 -4.663496,-1.242841" />
      <path d="M -6.700304,0.093462 C -6.361745,-0.214898 -6.018228,-0.428349 -5.657657,-0.576187 C -5.301695,-0.72179 -4.928555,-0.789662 -4.663496,-0.743883" />
      <line x1="-4.663496" y1="-1.242841" x2="-4.663496" y2="-0.743883" />
      <path d="M -4.663496,-1.242841 C -4.593297,-1.220492 -4.419547,-1.188897 -4.382769,-1.264272" />
      <path d="M -4.663496,-0.743883 C -4.593297,-0.721534 -4.419547,-0.68994 -4.382769,-0.765314" />
      <line x1="-4.382769" y1="-1.264272" x2="-4.382769" y2="-0.765314" />
      <path d="M -4.382769,-1.264272 Q -4.346739,-1.354727 -4.304123,-1.443188" />
      <path d="M -4.382769,-0.765314 Q -4.28292,-1.015826 -4.13455,-1.247581" />
      <line x1="-4.13455" y1="-1.304709" x2="-4.13455" y2="-1.247581" />
      <path d="M -4.13455,-1.247581 Q -4.127381,-1.260853 -4.127494,-1.274726" />
      <path d="M -4.127494,-1.274726 C -4.127812,-1.342734 -4.245399,-1.416108 -4.303708,-1.442917" />
      <path d="M -4.959023,-3.529849 Q -4.959145,-3.666931 -4.945615,-3.814693" />
      <path d="M -4.303708,-1.442917 C -4.494668,-1.566718 -4.667404,-1.805653 -4.781571,-2.084444 C -4.898223,-2.365943 -4.957374,-2.681425 -4.959023,-3.030891" />
      <path d="M -4.959023,-3.030891 Q -4.959145,-3.167974 -4.945615,-3.315735" />
      <line x1="-4.945615" y1="-3.814693" x2="-4.945615" y2="-3.315735" />
      <path d="M -4.945615,-3.814693 C -4.454617,-3.825268 -4.037552,-3.765694 -3.661965,-3.649274 C -3.29146,-3.534099 -2.972232,-3.353433 -2.822158,-3.158634" />
      <path d="M -4.945615,-3.315735 C -4.454617,-3.32631 -4.037552,-3.266737 -3.661965,-3.150317 C -3.29146,-3.035141 -2.972232,-2.854475 -2.822158,-2.659677" />
      <line x1="-2.822158" y1="-3.158634" x2="-2.822158" y2="-2.659677" />
      <path d="M -2.822158,-3.158634 C -2.790755,-3.099813 -2.693674,-2.970999 -2.606168,-3.00176" />
      <path d="M -2.822158,-2.659677 C -2.790755,-2.600856 -2.693674,-2.472042 -2.606168,-2.502802" />
      <line x1="-2.606168" y1="-3.00176" x2="-2.606168" y2="-2.502802" />
      <path d="M -2.606168,-3.00176 Q -2.331164,-3.117711 -2.037154,-3.190666" />
      <path d="M -2.606168,-2.502802 Q -2.331164,-2.618753 -2.037154,-2.691708" />
      <line x1="-2.037154" y1="-3.190666" x2="-2.037154" y2="-2.691708" />
      <path d="M -2.037154,-3.190666 Q -2.018033,-3.19673 -2.005583,-3.209713" />
      <path d="M -2.037154,-2.691708 C -1.990121,-2.706157 -1.975571,-2.756099 -1.97559,-2.808596" />
      <path d="M -1.97559,-2.808596 C -1.975602,-2.855301 -1.986991,-2.904113 -1.997386,-2.933492" />
      <path d="M -2.005583,-3.538283 C -2.005708,-3.776285 -1.893631,-4.071926 -1.708696,-4.349402 C -1.52124,-4.629849 -1.270134,-4.893371 -0.923194,-5.15009" />
      <path d="M -1.997386,-2.933492 Q -2.005599,-2.983707 -2.005583,-3.039325" />
      <path d="M -2.005583,-3.039325 C -2.005708,-3.277327 -1.893631,-3.572969 -1.708696,-3.850445 C -1.52124,-4.130891 -1.270134,-4.394413 -0.923194,-4.651132" />
      <line x1="-0.923194" y1="-5.15009" x2="-0.923194" y2="-4.651132" />
      <path d="M -0.923194,-5.15009 C -0.603901,-4.886891 -0.374956,-4.622047 -0.206137,-4.343832 C -0.039501,-4.068327 0.059322,-3.778565 0.05928,-3.540306" />
      <path d="M -0.923194,-4.651132 C -0.603901,-4.387933 -0.374956,-4.123089 -0.206137,-3.844875 C -0.039501,-3.569369 0.059322,-3.279607 0.05928,-3.041348" />
      <path d="M 0.05928,-3.041348 Q 0.059321,-2.957937 0.043018,-2.885981" />
      <path d="M 0.05928,-3.145272 L 0.067748,-3.141654" />
      <path d="M 0.043018,-2.885981 C 0.029398,-2.853766 0.013016,-2.797377 0.012997,-2.746045" />
      <path d="M 0.012997,-2.746045 C 0.012982,-2.699745 0.026465,-2.657578 0.067748,-2.642696" />
      <line x1="0.067748" y1="-3.141654" x2="0.067748" y2="-2.642696" />
      <path d="M 0.067748,-3.141654 Q 0.356813,-3.055121 0.624235,-2.92654" />
      <path d="M 0.067748,-2.642696 Q 0.356813,-2.556163 0.624235,-2.427582" />
      <line x1="0.624235" y1="-2.92654" x2="0.624235" y2="-2.427582" />
      <path d="M 0.624235,-2.92654 C 0.709709,-2.891752 0.814632,-3.015862 0.849634,-3.073137" />
      <path d="M 0.624235,-2.427582 C 0.709709,-2.392794 0.814632,-2.516904 0.849634,-2.574179" />
      <line x1="0.849634" y1="-3.073137" x2="0.849634" y2="-2.574179" />
      <path d="M 0.849634,-3.073137 C 1.011561,-3.26067 1.341523,-3.42622 1.71863,-3.523987 C 2.10089,-3.622761 2.521044,-3.66284 3.010678,-3.62943" />
      <path d="M 0.849634,-2.574179 C 1.011561,-2.761712 1.341523,-2.927262 1.71863,-3.025029 C 2.10089,-3.123803 2.521044,-3.163882 3.010678,-3.130473" />
      <line x1="3.010678" y1="-3.62943" x2="3.010678" y2="-3.130473" />
      <path d="M 3.010678,-3.62943 L 3.012156,-3.532026" />
      <path d="M 3.010678,-3.130473 L 3.012156,-3.033068" />
      <path d="M 3.012156,-3.033068 C 3.011704,-2.635118 2.938213,-2.28971 2.804003,-1.98112 C 2.671178,-1.676132 2.469613,-1.415162 2.253652,-1.290229" />
      <path d="M 2.253652,-1.290229 C 2.192742,-1.265765 2.067508,-1.195983 2.067161,-1.126949" />
      <path d="M 2.067161,-1.126949 Q 2.067085,-1.114889 2.072635,-1.103047" />
      <path d="M 6.001012,2.7134 Q 5.772162,2.537588 5.581874,2.330106" />
      <path d="M 5.581874,2.330106 C 5.518269,2.269619 5.366528,2.349485 5.308899,2.390792" />
      <path d="M 5.308899,2.390792 C 5.100574,2.498504 4.771557,2.544348 4.426407,2.527139 C 4.07746,2.50956 3.71581,2.436535 3.333055,2.296071" />
      <path d="M 3.333055,2.296071 Q 3.249617,2.12732 3.181603,1.953448" />
      <line x1="3.181603" y1="1.454491" x2="3.181603" y2="1.953448" />
      <path d="M 3.181603,1.454491 Q 3.300842,1.234458 3.441096,1.051717" />
      <path d="M 4.551593,0.245087 L 4.57872,0.239985" />
      <path d="M 3.181603,1.953448 C 3.358106,1.627317 3.570896,1.363585 3.81698,1.148462 C 4.060524,0.935814 4.340675,0.779421 4.57872,0.738943" />
      <line x1="4.57872" y1="0.239985" x2="4.57872" y2="0.738943" />
      <path d="M 4.57872,0.239985 C 4.645194,0.237603 4.789618,0.215069 4.822253,0.152717" />
      <path d="M 4.57872,0.738943 C 4.653444,0.73631 4.827919,0.707876 4.828614,0.626042" />
      <path d="M 4.828614,0.626042 Q 4.822257,0.534814 4.822253,0.443263" />
      <path d="M 4.822253,0.443263 Q 4.822274,0.270004 4.84498,0.098165" />
      <line x1="4.84498" y1="0.091462" x2="4.84498" y2="0.098165" />
      <path d="M 4.84498,0.098165 L 4.845082,0.094801" />
      <path d="M 4.845082,0.094801 C 4.844554,0.015394 4.675886,-0.020171 4.602442,-0.026202" />
      <path d="M 4.602442,-0.026202 C 4.367248,-0.077699 4.097193,-0.246903 3.867176,-0.470578 C 3.634776,-0.696843 3.438635,-0.970097 3.282595,-1.303972" />
      <line x1="3.282595" y1="-1.802929" x2="3.282595" y2="-1.303972" />
      <path d="M 3.282595,-1.802929 Q 3.361284,-1.973385 3.455058,-2.138009" />
      <path d="M 3.282595,-1.303972 Q 3.361284,-1.474427 3.455058,-1.639052" />
      <line x1="3.455058" y1="-2.138009" x2="3.455058" y2="-1.639052" />
      <path d="M 3.455058,-2.138009 C 3.845965,-2.260459 4.211617,-2.316548 4.56115,-2.317864 C 4.906868,-2.318985 5.23257,-2.257896 5.433921,-2.140645" />
      <path d="M 3.455058,-1.639052 C 3.845965,-1.761501 4.211617,-1.817591 4.56115,-1.818906 C 4.906868,-1.820028 5.23257,-1.758939 5.433921,-1.641687" />
      <line x1="5.433921" y1="-2.140645" x2="5.433921" y2="-1.641687" />
      <path d="M 5.433921,-2.140645 C 5.488907,-2.096716 5.63548,-2.009903 5.702742,-2.067343" />
      <path d="M 5.433921,-1.641687 C 5.488907,-1.597758 5.63548,-1.510946 5.702742,-1.568386" />
      <line x1="5.702742" y1="-2.067343" x2="5.702742" y2="-1.568386" />
      <path d="M 5.702742,-2.067343 Q 5.840234,-2.201806 5.995335,-2.321463" />
      <path d="M 5.702742,-1.568386 Q 5.905611,-1.766714 6.145025,-1.931622" />
      <line x1="6.145025" y1="-2.070538" x2="6.145025" y2="-1.931622" />
      <path d="M 6.145025,-1.931622 Q 6.171165,-1.953426 6.170277,-1.986644" />
      <path d="M 6.170277,-1.986644 C 6.170152,-2.049304 6.110538,-2.130879 6.075,-2.168189" />
      <path d="M 5.913719,-3.31007 C 5.915261,-3.646892 6.000609,-4.003449 6.184298,-4.379466" />
      <path d="M 6.075,-2.168189 C 5.967941,-2.323671 5.913258,-2.558415 5.913719,-2.811113" />
      <path d="M 5.913719,-2.811113 C 5.915261,-3.147934 6.000609,-3.504492 6.184298,-3.880508" />
      <line x1="6.184298" y1="-4.379466" x2="6.184298" y2="-3.880508" />
      <path d="M 6.184298,-4.379466 Q 6.37902,-4.451775 6.57965,-4.510718" />
      <path d="M 6.184298,-3.880508 Q 6.37902,-3.952817 6.57965,-4.01176" />
      <line x1="6.57965" y1="-4.510718" x2="6.57965" y2="-4.01176" />
      <path d="M 6.57965,-4.510718 C 6.955973,-4.357756 7.260294,-4.173346 7.508524,-3.960084 C 7.753899,-3.749022 7.934361,-3.506236 7.981068,-3.29994" />
      <path d="M 6.57965,-4.01176 C 6.955973,-3.858798 7.260294,-3.674389 7.508524,-3.461126 C 7.753899,-3.250064 7.934361,-3.007278 7.981068,-2.800982" />
      <line x1="7.981068" y1="-3.29994" x2="7.981068" y2="-2.800982" />
      <path d="M 7.981068,-3.29994 C 7.984106,-3.235181 8.016916,-3.083977 8.111344,-3.083375" />
      <path d="M 7.981068,-2.800982 C 7.984106,-2.736224 8.016916,-2.585019 8.111344,-2.584417" />
      <line x1="8.111344" y1="-3.083375" x2="8.111344" y2="-2.584417" />
      <path d="M 8.111344,-3.083375 Q 8.416616,-3.099296 8.720461,-3.069192" />
      <path d="M 8.111344,-2.584417 Q 8.416616,-2.600338 8.720461,-2.570234" />
      <line x1="8.720461" y1="-3.069192" x2="8.720461" y2="-2.570234" />
      <path d="M 8.720461,-3.069192 C 8.81479,-3.065398 8.856922,-3.214858 8.863968,-3.279381" />
      <path d="M 8.720461,-2.570234 C 8.81479,-2.56644 8.856922,-2.7159 8.863968,-2.780424" />
      <line x1="8.863968" y1="-3.279381" x2="8.863968" y2="-2.780424" />
      <path d="M 8.863968,-3.279381 C 8.923391,-3.483206 9.118636,-3.717244 9.376734,-3.916582 C 9.637821,-4.117986 9.953129,-4.287967 10.338387,-4.423196" />
      <path d="M 8.863968,-2.780424 C 8.923391,-2.984248 9.118636,-3.218286 9.376734,-3.417625 C 9.637821,-3.619028 9.953129,-3.789009 10.338387,-3.924238" />
      <line x1="10.338387" y1="-4.423196" x2="10.338387" y2="-3.924238" />
      <path d="M 10.338387,-4.423196 Q 10.535075,-4.355001 10.725036,-4.273735" />
      <path d="M 10.338387,-3.924238 Q 10.535075,-3.856043 10.725036,-3.774777" />
      <line x1="10.725036" y1="-4.273735" x2="10.725036" y2="-3.774777" />
      <path d="M 10.725036,-4.273735 C 10.866892,-3.933611 10.931599,-3.615458 10.932573,-3.311494" />
      <path d="M 10.725036,-3.774777 C 10.866892,-3.434653 10.931599,-3.1165 10.932573,-2.812536" />
      <path d="M 10.932573,-2.812536 C 10.933305,-2.514332 10.862813,-2.233612 10.728077,-2.059842" />
      <path d="M 10.728077,-2.059842 C 10.689124,-2.023153 10.621656,-1.94063 10.621507,-1.877258" />
      <path d="M 10.621507,-1.877258 Q 10.620805,-1.847711 10.643494,-1.826875" />
      <line x1="10.643494" y1="-1.950342" x2="10.643494" y2="-1.826875" />
      <path d="M 10.808353,-2.190713 Q 10.943444,-2.072547 11.062632,-1.942538" />
      <path d="M 10.643494,-1.826875 Q 10.872345,-1.651063 11.062632,-1.44358" />
      <line x1="11.062632" y1="-1.942538" x2="11.062632" y2="-1.44358" />
      <path d="M 11.062632,-1.942538 C 11.126238,-1.882051 11.277978,-1.961917 11.335607,-2.003224" />
      <path d="M 11.062632,-1.44358 C 11.126238,-1.383093 11.277978,-1.462959 11.335607,-1.504266" />
      <line x1="11.335607" y1="-2.003224" x2="11.335607" y2="-1.504266" />
      <path d="M 11.335607,-2.003224 C 11.543932,-2.110936 11.87295,-2.15678 12.218099,-2.139572 C 12.567046,-2.121992 12.928696,-2.048967 13.311452,-1.908503" />
      <path d="M 11.335607,-1.504266 C 11.543932,-1.611978 11.87295,-1.657822 12.218099,-1.640614 C 12.567046,-1.623034 12.928696,-1.550009 13.311452,-1.409545" />
      <line x1="13.311452" y1="-1.908503" x2="13.311452" y2="-1.409545" />
      <path d="M 13.311452,-1.908503 Q 13.394889,-1.739752 13.462904,-1.565881" />
      <path d="M 13.311452,-1.409545 Q 13.394889,-1.240794 13.462904,-1.066923" />
      <line x1="13.462904" y1="-1.565881" x2="13.462904" y2="-1.066923" />
      <path d="M 13.462904,-1.066923 C 13.286401,-0.740792 13.073611,-0.477059 12.827527,-0.261936 C 12.583982,-0.049288 12.303832,0.107105 12.065787,0.147582" />
      <path d="M 12.065787,0.147582 C 11.991062,0.150215 11.816587,0.178649 11.815893,0.260483" />
      <path d="M 11.815893,0.260483 Q 11.82225,0.351711 11.822253,0.443263" />
      <path d="M 11.822253,0.443263 Q 11.822233,0.616521 11.799527,0.78836" />
      <path d="M 11.822253,0.339856 C 11.871357,0.386761 11.98489,0.409032 12.042064,0.413769" />
      <path d="M 11.799527,0.78836 L 11.799425,0.791725" />
      <path d="M 11.799425,0.791725 C 11.799952,0.871132 11.96862,0.906696 12.042064,0.912727" />
      <line x1="12.042064" y1="0.413769" x2="12.042064" y2="0.912727" />
      <path d="M 12.042064,0.413769 C 12.277258,0.465266 12.547314,0.634471 12.777331,0.858146 C 13.00973,1.08441 13.205871,1.357665 13.361912,1.691539" />
      <path d="M 12.042064,0.912727 C 12.277258,0.964224 12.547314,1.133429 12.777331,1.357104 C 13.00973,1.583368 13.205871,1.856622 13.361912,2.190497" />
      <line x1="13.361912" y1="1.691539" x2="13.361912" y2="2.190497" />
      <path d="M 13.361912,2.190497 Q 13.283222,2.360953 13.189449,2.525577" />
      <path d="M 13.189449,2.525577 C 12.798541,2.648026 12.432889,2.704116 12.083356,2.705431 C 11.737638,2.706553 11.411936,2.645464 11.210586,2.528213" />
      <path d="M 11.210586,2.528213 C 11.155599,2.484283 11.009027,2.397471 10.941765,2.454911" />
      <path d="M 10.941765,2.454911 Q 10.738895,2.653239 10.499481,2.818147" />
      <path d="M 10.499481,2.818147 Q 10.473342,2.839951 10.474229,2.87317" />
      <path d="M 10.474229,2.87317 C 10.474355,2.93583 10.533969,3.017404 10.569507,3.054715" />
      <line x1="10.569507" y1="2.768641" x2="10.569507" y2="3.054715" />
      <path d="M 10.649171,2.709031 C 10.703846,2.848798 10.730872,3.018809 10.730787,3.19868" />
      <path d="M 10.569507,3.054715 C 10.676566,3.210196 10.731248,3.44494 10.730787,3.697638" />
      <path d="M 10.730787,3.697638 C 10.729245,4.034459 10.643898,4.391017 10.460208,4.767033" />
      <path d="M 10.460208,4.767033 Q 10.265486,4.839343 10.064856,4.898286" />
      <path d="M 10.064856,4.898286 C 9.688533,4.745323 9.384213,4.560914 9.135982,4.347651 C 8.890608,4.136589 8.710146,3.893804 8.663439,3.687507" />
      <path d="M 8.663439,3.687507 C 8.660401,3.622749 8.627591,3.471544 8.533163,3.470943" />
      <path d="M 8.533163,3.470943 Q 8.22789,3.486864 7.924045,3.456759" />
      <path d="M 7.924045,3.456759 C 7.829716,3.452966 7.787584,3.602426 7.780538,3.666949" />
      <path d="M 7.780538,3.666949 C 7.721116,3.870774 7.525871,4.104811 7.267772,4.30415 C 7.006686,4.505553 6.691378,4.675535 6.30612,4.810763" />
      <path d="M 6.30612,4.810763 Q 6.109431,4.742569 5.919471,4.661302" />
      <path d="M 5.711934,3.200104 C 5.711734,2.96785 5.753361,2.74762 5.836154,2.57828" />
      <path d="M 5.919471,4.661302 C 5.777614,4.321178 5.712908,4.003025 5.711934,3.699062" />
      <path d="M 5.711934,3.699062 C 5.711201,3.400857 5.781693,3.120138 5.91643,2.946368" />
      <line x1="5.91643" y1="2.646269" x2="5.91643" y2="2.946368" />
      <path d="M 5.91643,2.946368 C 5.955383,2.909678 6.022851,2.827155 6.023,2.763784" />
      <path d="M 6.023,2.763784 Q 6.023701,2.734236 6.001012,2.7134" />
      <path d="M -6.971217,-0.186155 L -6.971217,0.021956" />
      <path d="M -7.601978,2.777834 L -7.601978,3.276791" />
      <path d="M -12.142225,2.777956 L -12.142225,3.276913" />
      <path d="M -12.571217,-0.373222 L -12.571217,0.021956" />
      <path d="M -11.940456,-3.731837 L -11.940456,-3.23288" />
      <path d="M -7.400209,-3.731959 L -7.400209,-3.233002" />
      <path d="M 2.810312,2.980859 L 2.810312,3.479816" />
      <path d="M -0.143129,3.15968 L -0.143129,3.48825" />
      <path d="M -2.207992,3.09524 L -2.207992,3.490273" />
      <path d="M -5.160867,2.983035 L -5.160867,3.481993" />
      <path d="M -4.959023,-3.529849 L -4.959023,-3.030891" />
      <path d="M -2.005583,-3.538283 L -2.005583,-3.039325" />
      <path d="M 0.05928,-3.540306 L 0.05928,-3.041348" />
      <path d="M 3.012156,-3.532026 L 3.012156,-3.033068" />
      <path d="M 4.822253,0.047712 L 4.822253,0.443263" />
      <path d="M 5.913719,-3.31007 L 5.913719,-2.811113" />
      <path d="M 10.932573,-3.311494 L 10.932573,-2.812536" />
      <path d="M 11.822253,0.234851 L 11.822253,0.443263" />
      <path d="M 10.730787,3.19868 L 10.730787,3.697638" />
      <path d="M 5.711934,3.200104 L 5.711934,3.699062" />
    </g>
  </g>
</svg>