<?xml version='1.0' encoding='utf-8'?>
<svg width="59.662035mm" height="100.09mm" viewBox="-35.04076 -54.40525 70.08152 117.569898" version="1.1" xmlns="http://www.w3.org/2000/svg">
  <g transform="scale(1,-1)" stroke-linecap="round">
    <g fill="none" stroke="rgb(0,0,0)" stroke-width="0.10571776200956477" id="Visible">
      <path d="M 0.435959,-15.91028 Q -0.19163,-15.897725 -0.818897,-15.921313" />
      <path d="M -0.818897,-15.921313 C -1.169681,-15.915574 -1.314355,-15.266023 -1.342118,-14.969899" />
      <path d="M -1.342118,-14.969899 C -1.412827,-14.469172 -1.629644,-13.884305 -1.914234,-13.315678 C -2.199573,-12.745478 -2.550489,-12.19113 -2.912289,-11.706034" />
      <path d="M -2.912289,-11.706034 Q -3.623515,-11.785518 -4.329255,-11.903663" />
      <path d="M -4.964282,-15.075707 Q -4.964661,-15.355022 -4.930122,-15.60131" />
      <path d="M -4.329255,-11.903663 C -4.507363,-12.376803 -4.664213,-12.89342 -4.778738,-13.417009 C -4.893028,-13.939716 -4.96428,-14.469694 -4.964282,-14.944726" />
      <path d="M -4.964282,-14.944726 Q -4.964661,-15.224042 -4.930122,-15.470329" />
      <line x1="-4.930122" y1="-15.60131" x2="-4.930122" y2="-15.470329" />
      <path d="M -4.930122,-15.60131 C -4.913118,-15.691409 -4.897573,-15.81403 -4.893425,-15.9449" />
      <path d="M -4.930122,-15.470329 C -4.910266,-15.575567 -4.892375,-15.72521 -4.892357,-15.880488" />
      <path d="M -4.892357,-15.880488 C -4.892087,-16.161506 -4.952159,-16.464527 -5.168248,-16.527931" />
      <path d="M -5.168248,-16.527931 Q -5.777731,-16.676835 -6.377466,-16.86057" />
      <path d="M -6.377466,-16.86057 C -6.717796,-16.945034 -7.027117,-16.354737 -7.131242,-16.075828" />
      <path d="M -7.131242,-16.075828 C -7.330266,-15.610306 -7.692386,-15.101 -8.115729,-14.624772 C -8.540206,-14.147215 -9.023887,-13.701798 -9.500003,-13.326066" />
      <path d="M -9.500003,-13.326066 Q -10.166244,-13.585334 -10.817092,-13.880539" />
      <path d="M -10.868436,-15.078701 C -10.869084,-15.986838 -10.75231,-16.943529 -10.466342,-17.61083" />
      <path d="M -10.817092,-13.880539 Q -10.867607,-14.3983 -10.868436,-14.947721" />
      <path d="M -10.868436,-14.947721 C -10.869084,-15.855857 -10.75231,-16.812548 -10.466342,-17.479849" />
      <line x1="-10.466342" y1="-17.61083" x2="-10.466342" y2="-17.479849" />
      <path d="M -10.466342,-17.61083 C -10.391079,-17.766697 -10.289774,-18.036969 -10.27224,-18.277719" />
      <path d="M -10.466342,-17.479849 C -10.383953,-17.650488 -10.270008,-17.959019 -10.269705,-18.214704" />
      <path d="M -10.269705,-18.214704 C -10.269633,-18.364897 -10.30991,-18.495683 -10.420248,-18.562515" />
      <path d="M -10.420248,-18.562515 Q -10.970089,-18.862733 -11.501421,-19.194092" />
      <path d="M -11.501421,-19.194092 C -11.808104,-19.363003 -12.260993,-18.872189 -12.434385,-18.6295" />
      <path d="M -12.434385,-18.6295 C -12.74816,-18.230908 -13.230904,-17.831872 -13.76415,-17.480497 C -14.298838,-17.128129 -14.882323,-16.821996 -15.440307,-16.581232" />
      <path d="M -15.440307,-16.581232 Q -16.01616,-17.002617 -16.567762,-17.454763" />
      <line x1="-16.567762" y1="-17.585744" x2="-16.567762" y2="-17.454763" />
      <path d="M -16.567762,-17.585744 C -16.466939,-18.180707 -16.308295,-18.815997 -16.092605,-19.415519 C -15.877536,-20.013413 -15.603616,-20.574241 -15.289298,-20.972413" />
      <path d="M -16.567762,-17.454763 C -16.466939,-18.049726 -16.308295,-18.685017 -16.092605,-19.284538 C -15.877536,-19.882432 -15.603616,-20.44326 -15.289298,-20.841432" />
      <line x1="-15.289298" y1="-20.972413" x2="-15.289298" y2="-20.841432" />
      <path d="M -15.289298,-20.972413 C -15.149788,-21.133891 -14.925183,-21.454909 -14.888789,-21.723119" />
      <path d="M -15.289298,-20.841432 C -15.137828,-21.016709 -14.884928,-21.381727 -14.884022,-21.660608" />
      <path d="M -14.884022,-21.660608 Q -14.881651,-21.78692 -14.962125,-21.875379" />
      <path d="M -14.962125,-21.875379 Q -15.414854,-22.30645 -15.841574,-22.762853" />
      <path d="M -15.841574,-22.762853 C -16.093709,-23.0047 -16.659302,-22.646816 -16.890144,-22.456888" />
      <path d="M -16.890144,-22.456888 C -17.297287,-22.152388 -17.867758,-21.890817 -18.474567,-21.688239 C -19.083029,-21.485073 -19.726553,-21.339087 -20.328379,-21.2497" />
      <path d="M -20.328379,-21.2497 Q -20.774601,-21.804484 -21.189367,-22.38276" />
      <line x1="-21.189367" y1="-22.51374" x2="-21.189367" y2="-22.38276" />
      <path d="M -21.189367,-22.51374 C -20.936654,-23.06256 -20.61756,-23.635497 -20.252704,-24.159247 C -19.888873,-24.681584 -19.477872,-25.153017 -19.070314,-25.456971" />
      <path d="M -21.189367,-22.38276 C -20.936654,-22.93158 -20.61756,-23.504517 -20.252704,-24.028266 C -19.888873,-24.550603 -19.477872,-25.022036 -19.070314,-25.32599" />
      <line x1="-19.070314" y1="-25.456971" x2="-19.070314" y2="-25.32599" />
      <path d="M -19.070314,-25.456971 C -18.871622,-25.591881 -18.514319,-25.895777 -18.458366,-26.172455" />
      <path d="M -19.070314,-25.32599 C -18.855499,-25.471734 -18.453094,-25.817202 -18.451424,-26.109273" />
      <path d="M -18.451424,-26.109273 Q -18.450841,-26.178339 -18.484359,-26.240757" />
      <path d="M -18.484359,-26.240757 Q -18.809122,-26.773306 -19.102149,-27.323649" />
      <path d="M -19.102149,-27.323649 C -19.282555,-27.62195 -19.922308,-27.421386 -20.194868,-27.29716" />
      <path d="M -20.194868,-27.29716 C -20.667634,-27.107505 -21.286954,-27.001223 -21.925973,-26.961249 C -22.566742,-26.92113 -23.226451,-26.94524 -23.831107,-27.013321" />
      <path d="M -23.831107,-27.013321 Q -24.117287,-27.663697 -24.366951,-28.328693" />
      <line x1="-24.366951" y1="-28.459674" x2="-24.366951" y2="-28.328693" />
      <path d="M -24.366951,-28.459674 C -23.979569,-28.924949 -23.521773,-29.396488 -23.032614,-29.808773 C -22.544815,-30.219957 -22.024742,-30.569868 -21.551719,-30.758889" />
      <path d="M -24.366951,-28.328693 C -23.979569,-28.793969 -23.521773,-29.265507 -23.032614,-29.677792 C -22.544815,-30.088976 -22.024742,-30.438887 -21.551719,-30.627909" />
      <line x1="-21.551719" y1="-30.758889" x2="-21.551719" y2="-30.627909" />
      <path d="M -21.551719,-30.758889 C -21.304203,-30.845222 -20.819275,-31.078865 -20.747636,-31.363631" />
      <path d="M -21.551719,-30.627909 C -21.285643,-30.720522 -20.741901,-30.985597 -20.73943,-31.298986" />
      <path d="M -20.73943,-31.298986 Q -20.739371,-31.329881 -20.746913,-31.361156" />
      <path d="M -20.746913,-31.361156 Q -20.921579,-31.958889 -21.060944,-32.565667" />
      <path d="M -21.060944,-32.565667 C -21.157326,-32.900094 -21.827641,-32.870518 -22.123346,-32.820462" />
      <path d="M -22.123346,-32.820462 C -22.629515,-32.758575 -23.255479,-32.814826 -23.88316,-32.940179 C -24.512569,-33.065842 -25.143504,-33.258405 -25.709783,-33.479314" />
      <path d="M -25.709783,-33.479314 Q -25.81642,-34.180959 -25.883968,-34.887357" />
      <line x1="-25.883968" y1="-35.018338" x2="-25.883968" y2="-34.887357" />
      <path d="M -25.883968,-35.018338 C -25.388317,-35.368362 -24.823016,-35.706368 -24.24289,-35.979092 C -23.664366,-36.2511 -23.070663,-36.455643 -22.56441,-36.516852" />
      <path d="M -25.883968,-34.887357 C -25.388317,-35.237381 -24.823016,-35.575387 -24.24289,-35.848111 C -23.664366,-36.12012 -23.070663,-36.324663 -22.56441,-36.385871" />
      <line x1="-22.56441" y1="-36.516852" x2="-22.56441" y2="-36.385871" />
      <path d="M -22.56441,-36.516852 C -22.272507,-36.538699 -21.640747,-36.664228 -21.597485,-36.993037" />
      <path d="M -22.56441,-36.385871 C -22.265268,-36.408138 -21.607609,-36.540023 -21.5956,-36.887629" />
      <path d="M -21.6,-37.450813 Q -21.599999,-37.811236 -21.587767,-38.171406" />
      <path d="M -21.5956,-36.887629 Q -21.6,-37.103688 -21.6,-37.319833" />
      <path d="M -21.6,-37.319833 Q -21.599998,-37.725938 -21.584471,-38.131674" />
      <path d="M -21.584471,-38.131674 C -21.590261,-38.479437 -22.245456,-38.622864 -22.544153,-38.650388" />
      <path d="M -22.544153,-38.650388 C -23.049232,-38.720488 -23.639181,-38.935437 -24.212749,-39.217575 C -24.787905,-39.500456 -25.34707,-39.848348 -25.836381,-40.207032" />
      <line x1="-25.836381" y1="-40.338013" x2="-25.836381" y2="-40.207032" />
      <path d="M -25.836381,-40.338013 Q -25.756207,-41.043112 -25.637035,-41.742772" />
      <path d="M -25.836381,-40.207032 Q -25.756207,-40.912131 -25.637035,-41.611791" />
      <line x1="-25.637035" y1="-41.742772" x2="-25.637035" y2="-41.611791" />
      <path d="M -25.637035,-41.742772 C -25.066893,-41.95369 -24.432612,-42.135129 -23.801054,-42.249706 C -23.171229,-42.364003 -22.544357,-42.409238 -22.039374,-42.338462" />
      <path d="M -25.637035,-41.611791 C -25.066893,-41.822709 -24.432612,-42.004148 -23.801054,-42.118725 C -23.171229,-42.233022 -22.544357,-42.278257 -22.039374,-42.207481" />
      <line x1="-22.039374" y1="-42.338462" x2="-22.039374" y2="-42.207481" />
      <path d="M -22.039374,-42.338462 C -21.744612,-42.283214 -21.074931,-42.241857 -20.972582,-42.574537" />
      <path d="M -22.039374,-42.207481 C -21.744612,-42.152233 -21.074931,-42.110876 -20.972582,-42.443556" />
      <line x1="-20.972582" y1="-42.574537" x2="-20.972582" y2="-42.443556" />
      <path d="M -20.972582,-42.574537 Q -20.822384,-43.178769 -20.637052,-43.773337" />
      <path d="M -20.972582,-42.443556 Q -20.822384,-43.047788 -20.637052,-43.642356" />
      <line x1="-20.637052" y1="-43.773337" x2="-20.637052" y2="-43.642356" />
      <path d="M -20.637052,-43.773337 L -20.636531,-43.775356" />
      <path d="M -20.637052,-43.642356 Q -20.628342,-43.675877 -20.628416,-43.709105" />
      <path d="M -20.628416,-43.709105 C -20.630833,-44.020596 -21.165535,-44.292823 -21.428614,-44.389639" />
      <path d="M -21.428614,-44.389639 C -21.898182,-44.586948 -22.411913,-44.945948 -22.892279,-45.365643 C -23.373986,-45.786464 -23.823274,-46.265978 -24.202272,-46.737992" />
      <line x1="-24.202272" y1="-46.868973" x2="-24.202272" y2="-46.737992" />
      <path d="M -24.202272,-46.868973 Q -23.94075,-47.529474 -23.64298,-48.174716" />
      <path d="M -24.202272,-46.737992 Q -23.94075,-47.398493 -23.64298,-48.043735" />
      <line x1="-23.64298" y1="-48.174716" x2="-23.64298" y2="-48.043735" />
      <path d="M -23.64298,-48.174716 C -23.037201,-48.232155 -22.377165,-48.244661 -21.737214,-48.193283 C -21.099011,-48.142079 -20.48169,-48.024925 -20.012392,-47.826987" />
      <path d="M -23.64298,-48.043735 C -23.037201,-48.101174 -22.377165,-48.113681 -21.737214,-48.062302 C -21.099011,-48.011098 -20.48169,-47.893944 -20.012392,-47.696006" />
      <line x1="-20.012392" y1="-47.826987" x2="-20.012392" y2="-47.696006" />
      <path d="M -20.012392,-47.826987 C -19.742096,-47.697988 -19.106032,-47.486208 -18.920318,-47.78129" />
      <path d="M -20.012392,-47.696006 C -19.742096,-47.567008 -19.106032,-47.355227 -18.920318,-47.650309" />
      <line x1="-18.920318" y1="-47.78129" x2="-18.920318" y2="-47.650309" />
      <path d="M -18.920318,-47.78129 Q -18.617491,-48.326394 -18.283252,-48.853149" />
      <path d="M -18.920318,-47.650309 Q -18.617491,-48.195414 -18.283252,-48.722168" />
      <line x1="-18.283252" y1="-48.853149" x2="-18.283252" y2="-48.722168" />
      <path d="M -18.283252,-48.853149 Q -18.263158,-48.888505 -18.254737,-48.926515" />
      <path d="M -18.283252,-48.722168 Q -18.24727,-48.78652 -18.247921,-48.858634" />
      <path d="M -18.247921,-48.858634 C -18.249536,-49.149674 -18.641903,-49.498518 -18.852751,-49.647094" />
      <path d="M -18.852751,-49.647094 C -19.254807,-49.958166 -19.65731,-50.436751 -20.011739,-50.965403 C -20.367169,-51.495485 -20.675962,-52.073943 -20.918818,-52.62712" />
      <line x1="-20.918818" y1="-52.7581" x2="-20.918818" y2="-52.62712" />
      <path d="M -20.918818,-52.7581 Q -20.493772,-53.328992 -20.037696,-53.875843" />
      <path d="M -20.918818,-52.62712 Q -20.493772,-53.198012 -20.037696,-53.744862" />
      <line x1="-20.037696" y1="-53.875843" x2="-20.037696" y2="-53.744862" />
      <path d="M -20.037696,-53.875843 C -19.437563,-53.775889 -18.796751,-53.618611 -18.19202,-53.404779 C -17.58893,-53.191563 -17.023229,-52.920003 -16.621597,-52.608393" />
      <path d="M -20.037696,-53.744862 C -19.437563,-53.644908 -18.796751,-53.48763 -18.19202,-53.273798 C -17.58893,-53.060583 -17.023229,-52.789022 -16.621597,-52.477412" />
      <line x1="-16.621597" y1="-52.608393" x2="-16.621597" y2="-52.477412" />
      <path d="M -16.621597,-52.608393 C -16.394189,-52.414435 -15.835087,-52.046663 -15.578665,-52.284039" />
      <path d="M -16.621597,-52.477412 C -16.394189,-52.283454 -15.835087,-51.915682 -15.578665,-52.153058" />
      <line x1="-15.578665" y1="-52.284039" x2="-15.578665" y2="-52.153058" />
      <path d="M -15.578665,-52.284039 Q -15.143848,-52.732867 -14.683479,-53.15591" />
      <path d="M -15.578665,-52.153058 Q -15.143848,-52.601886 -14.683479,-53.02493" />
      <line x1="-14.683479" y1="-53.15591" x2="-14.683479" y2="-53.02493" />
      <path d="M -14.683479,-53.15591 Q -14.619135,-53.222735 -14.606079,-53.314958" />
      <path d="M -14.683479,-53.02493 Q -14.598898,-53.114971 -14.601473,-53.246487" />
      <path d="M -14.601473,-53.246487 C -14.602331,-53.524444 -14.845221,-53.888259 -14.992103,-54.064467" />
      <path d="M -14.992103,-54.064467 C -15.299249,-54.468102 -15.563093,-55.033658 -15.767431,-55.635239 C -15.972363,-56.238459 -16.119617,-56.876439 -16.209781,-57.473081" />
      <line x1="-16.209781" y1="-57.604062" x2="-16.209781" y2="-57.473081" />
      <path d="M -16.209781,-57.604062 Q -15.650176,-58.046439 -15.066875,-58.457632" />
      <path d="M -16.209781,-57.473081 Q -15.650176,-57.915458 -15.066875,-58.326651" />
      <line x1="-15.066875" y1="-58.457632" x2="-15.066875" y2="-58.326651" />
      <path d="M -15.066875,-58.457632 C -14.513286,-58.207096 -13.93537,-57.890752 -13.407069,-57.529038 C -12.880193,-57.168342 -12.404664,-56.760881 -12.098068,-56.356835" />
      <path d="M -15.066875,-58.326651 C -14.513286,-58.076115 -13.93537,-57.759771 -13.407069,-57.398057 C -12.880193,-57.037361 -12.404664,-56.629901 -12.098068,-56.225854" />
      <line x1="-12.098068" y1="-56.356835" x2="-12.098068" y2="-56.225854" />
      <path d="M -12.098068,-56.356835 C -11.929045,-56.111135 -11.485008,-55.612436 -11.175352,-55.775927" />
      <path d="M -12.098068,-56.225854 C -11.929045,-55.980155 -11.485008,-55.481455 -11.175352,-55.644947" />
      <line x1="-11.175352" y1="-55.775927" x2="-11.175352" y2="-55.644947" />
      <path d="M -11.175352,-55.775927 Q -10.638176,-56.097893 -10.08305,-56.388396" />
      <path d="M -11.175352,-55.644947 Q -10.638176,-55.966912 -10.08305,-56.257415" />
      <line x1="-10.08305" y1="-56.388396" x2="-10.08305" y2="-56.257415" />
      <path d="M -10.08305,-56.388396 C -9.983505,-56.446318 -9.938815,-56.556218 -9.928575,-56.685972" />
      <path d="M -10.08305,-56.257415 C -9.967695,-56.324529 -9.926092,-56.461361 -9.926171,-56.618075" />
      <path d="M -9.926171,-56.618075 C -9.926443,-56.870744 -10.032033,-57.172106 -10.109769,-57.34072" />
      <path d="M -10.468229,-59.818248 C -10.468189,-60.247909 -10.442237,-60.673916 -10.396074,-61.076613" />
      <path d="M -10.109769,-57.34072 C -10.364407,-57.965095 -10.468758,-58.839578 -10.468229,-59.687268" />
      <path d="M -10.468229,-59.687268 C -10.468189,-60.116929 -10.442237,-60.542935 -10.396074,-60.945632" />
      <line x1="-10.396074" y1="-61.076613" x2="-10.396074" y2="-60.945632" />
      <path d="M -10.396074,-61.076613 Q -9.740047,-61.360328 -9.069272,-61.607841" />
      <path d="M -10.396074,-60.945632 Q -9.740047,-61.229347 -9.069272,-61.47686" />
      <line x1="-9.069272" y1="-61.607841" x2="-9.069272" y2="-61.47686" />
      <path d="M -9.069272,-61.607841 C -8.599953,-61.223797 -8.124317,-60.769945 -7.708449,-60.285 C -7.293692,-59.801403 -6.940741,-59.285811 -6.750076,-58.816863" />
      <path d="M -9.069272,-61.47686 C -8.599953,-61.092816 -8.124317,-60.638964 -7.708449,-60.154019 C -7.293692,-59.670422 -6.940741,-59.15483 -6.750076,-58.685882" />
      <line x1="-6.750076" y1="-58.816863" x2="-6.750076" y2="-58.685882" />
      <path d="M -6.750076,-58.816863 C -6.650957,-58.536166 -6.352244,-57.940523 -6.010457,-58.01899" />
      <path d="M -6.750076,-58.685882 C -6.650957,-58.405185 -6.352244,-57.809543 -6.010457,-57.888009" />
      <line x1="-6.010457" y1="-58.01899" x2="-6.010457" y2="-57.888009" />
      <path d="M -6.010457,-58.01899 Q -5.40753,-58.192151 -4.795479,-58.330316" />
      <path d="M -6.010457,-57.888009 Q -5.40753,-58.06117 -4.795479,-58.199335" />
      <line x1="-4.795479" y1="-58.330316" x2="-4.795479" y2="-58.199335" />
      <path d="M -4.795479,-58.330316 C -4.585404,-58.387909 -4.517191,-58.672486 -4.508735,-58.945196" />
      <path d="M -4.795479,-58.199335 C -4.568721,-58.261638 -4.507428,-58.587625 -4.507721,-58.878771" />
      <path d="M -4.507721,-58.878771 C -4.507733,-59.020673 -4.521927,-59.155411 -4.53847,-59.252584" />
      <path d="M -4.563965,-59.827502 C -4.56397,-60.309323 -4.485664,-60.852452 -4.361053,-61.388442 C -4.236174,-61.925414 -4.06584,-62.455547 -3.873892,-62.939105" />
      <path d="M -4.53847,-59.252584 Q -4.564207,-59.462447 -4.563965,-59.696521" />
      <path d="M -4.563965,-59.696521 C -4.56397,-60.178343 -4.485664,-60.721471 -4.361053,-61.257461 C -4.236174,-61.794434 -4.06584,-62.324566 -3.873892,-62.808124" />
      <line x1="-3.873892" y1="-62.939105" x2="-3.873892" y2="-62.808124" />
      <path d="M -3.873892,-62.939105 Q -3.16615,-63.044823 -2.453613,-63.111788" />
      <path d="M -3.873892,-62.808124 Q -3.16615,-62.913842 -2.453613,-62.980808" />
      <line x1="-2.453613" y1="-63.111788" x2="-2.453613" y2="-62.980808" />
      <path d="M -2.453613,-63.111788 C -2.100548,-62.620408 -1.759604,-62.059977 -1.484511,-61.484849 C -1.210138,-60.911308 -1.003818,-60.322721 -0.942078,-59.820829" />
      <path d="M -2.453613,-62.980808 C -2.100548,-62.489427 -1.759604,-61.928996 -1.484511,-61.353868 C -1.210138,-60.780328 -1.003818,-60.19174 -0.942078,-59.689849" />
      <line x1="-0.942078" y1="-59.820829" x2="-0.942078" y2="-59.689849" />
      <path d="M -0.942078,-59.820829 C -0.919617,-59.524264 -0.786586,-58.872271 -0.435959,-58.860365" />
      <path d="M -0.942078,-59.689849 C -0.919617,-59.393283 -0.786586,-58.741291 -0.435959,-58.729385" />
      <line x1="-0.435959" y1="-58.860365" x2="-0.435959" y2="-58.729385" />
      <path d="M -0.435959,-58.860365 Q 0.19163,-58.872921 0.818897,-58.849333" />
      <path d="M -0.435959,-58.729385 Q 0.19163,-58.741941 0.818897,-58.718352" />
      <line x1="0.818897" y1="-58.849333" x2="0.818897" y2="-58.718352" />
      <path d="M 0.818897,-58.849333 C 1.169681,-58.855072 1.314355,-59.504623 1.342118,-59.800747" />
      <path d="M 0.818897,-58.718352 C 1.169681,-58.724091 1.314355,-59.373642 1.342118,-59.669766" />
      <line x1="1.342118" y1="-59.800747" x2="1.342118" y2="-59.669766" />
      <path d="M 1.342118,-59.800747 C 1.412827,-60.301474 1.629644,-60.886341 1.914234,-61.454967 C 2.199573,-62.025168 2.550489,-62.579516 2.912289,-63.064611" />
      <path d="M 1.342118,-59.669766 C 1.412827,-60.170493 1.629644,-60.75536 1.914234,-61.323987 C 2.199573,-61.894187 2.550489,-62.448535 2.912289,-62.933631" />
      <line x1="2.912289" y1="-63.064611" x2="2.912289" y2="-62.933631" />
      <path d="M 2.912289,-63.064611 Q 3.623515,-62.985128 4.329255,-62.866983" />
      <path d="M 2.912289,-62.933631 Q 3.623515,-62.854147 4.329255,-62.736002" />
      <line x1="4.329255" y1="-62.866983" x2="4.329255" y2="-62.736002" />
      <path d="M 4.329255,-62.866983 C 4.507363,-62.393842 4.664213,-61.877225 4.778738,-61.353636 C 4.893028,-60.83093 4.96428,-60.300952 4.964282,-59.825919" />
      <path d="M 4.329255,-62.736002 C 4.507363,-62.262862 4.664213,-61.746245 4.778738,-61.222656 C 4.893028,-60.699949 4.96428,-60.169971 4.964282,-59.694939" />
      <path d="M 4.964282,-59.694939 Q 4.964661,-59.415623 4.930122,-59.169336" />
      <path d="M 4.893425,-58.825746 C 4.902015,-58.564673 4.968641,-58.301182 5.168248,-58.242715" />
      <path d="M 4.930122,-59.169336 C 4.910266,-59.064098 4.892375,-58.914455 4.892357,-58.759177" />
      <path d="M 4.892357,-58.759177 C 4.892087,-58.47816 4.952159,-58.175138 5.168248,-58.111734" />
      <line x1="5.168248" y1="-58.242715" x2="5.168248" y2="-58.111734" />
      <path d="M 5.168248,-58.242715 Q 5.777731,-58.09381 6.377466,-57.910076" />
      <path d="M 5.168248,-58.111734 Q 5.777731,-57.96283 6.377466,-57.779095" />
      <line x1="6.377466" y1="-57.910076" x2="6.377466" y2="-57.779095" />
      <path d="M 6.377466,-57.910076 C 6.717796,-57.825612 7.027117,-58.415908 7.131242,-58.694818" />
      <path d="M 6.377466,-57.779095 C 6.717796,-57.694631 7.027117,-58.284928 7.131242,-58.563838" />
      <line x1="7.131242" y1="-58.694818" x2="7.131242" y2="-58.563838" />
      <path d="M 7.131242,-58.694818 C 7.330266,-59.16034 7.692386,-59.669646 8.115729,-60.145874 C 8.540206,-60.62343 9.023887,-61.068848 9.500003,-61.44458" />
      <path d="M 7.131242,-58.563838 C 7.330266,-59.02936 7.692386,-59.538665 8.115729,-60.014893 C 8.540206,-60.49245 9.023887,-60.937867 9.500003,-61.3136" />
      <line x1="9.500003" y1="-61.44458" x2="9.500003" y2="-61.3136" />
      <path d="M 9.500003,-61.44458 Q 10.166244,-61.185312 10.817092,-60.890107" />
      <path d="M 9.500003,-61.3136 Q 10.166244,-61.054331 10.817092,-60.759126" />
      <line x1="10.817092" y1="-60.890107" x2="10.817092" y2="-60.759126" />
      <path d="M 10.817092,-60.890107 Q 10.867607,-60.372346 10.868436,-59.822925" />
      <path d="M 10.817092,-60.759126 Q 10.867607,-60.241366 10.868436,-59.691945" />
      <path d="M 10.868436,-59.691945 C 10.869084,-58.783808 10.75231,-57.827117 10.466342,-57.159816" />
      <path d="M 10.27224,-56.492927 C 10.282523,-56.36972 10.325689,-56.265414 10.420248,-56.208131" />
      <path d="M 10.466342,-57.159816 C 10.383953,-56.989177 10.270008,-56.680646 10.269705,-56.424961" />
      <path d="M 10.269705,-56.424961 C 10.269633,-56.274768 10.30991,-56.143982 10.420248,-56.07715" />
      <line x1="10.420248" y1="-56.208131" x2="10.420248" y2="-56.07715" />
      <path d="M 10.420248,-56.208131 Q 10.970089,-55.907913 11.501421,-55.576554" />
      <path d="M 10.420248,-56.07715 Q 10.970089,-55.776933 11.501421,-55.445573" />
      <line x1="11.501421" y1="-55.576554" x2="11.501421" y2="-55.445573" />
      <path d="M 11.501421,-55.576554 C 11.808104,-55.407643 12.260993,-55.898457 12.434385,-56.141146" />
      <path d="M 11.501421,-55.445573 C 11.808104,-55.276662 12.260993,-55.767476 12.434385,-56.010165" />
      <line x1="12.434385" y1="-56.141146" x2="12.434385" y2="-56.010165" />
      <path d="M 12.434385,-56.141146 C 12.74816,-56.539738 13.230904,-56.938773 13.76415,-57.290149 C 14.298838,-57.642517 14.882323,-57.94865 15.440307,-58.189414" />
      <path d="M 12.434385,-56.010165 C 12.74816,-56.408758 13.230904,-56.807793 13.76415,-57.159169 C 14.298838,-57.511536 14.882323,-57.817669 15.440307,-58.058433" />
      <line x1="15.440307" y1="-58.189414" x2="15.440307" y2="-58.058433" />
      <path d="M 15.440307,-58.189414 Q 16.01616,-57.768029 16.567762,-57.315882" />
      <path d="M 15.440307,-58.058433 Q 16.01616,-57.637049 16.567762,-57.184902" />
      <line x1="16.567762" y1="-57.315882" x2="16.567762" y2="-57.184902" />
      <path d="M 16.567762,-57.184902 C 16.466939,-56.589939 16.308295,-55.954648 16.092605,-55.355127 C 15.877536,-54.757233 15.603616,-54.196405 15.289298,-53.798233" />
      <path d="M 14.888789,-53.047527 Q 14.901714,-52.960097 14.962125,-52.895267" />
      <path d="M 15.289298,-53.798233 C 15.137828,-53.622956 14.884928,-53.257938 14.884022,-52.979057" />
      <path d="M 14.884022,-52.979057 Q 14.881651,-52.852745 14.962125,-52.764286" />
      <line x1="14.962125" y1="-52.895267" x2="14.962125" y2="-52.764286" />
      <path d="M 14.962125,-52.895267 Q 15.414854,-52.464195 15.841574,-52.007793" />
      <path d="M 14.962125,-52.764286 Q 15.414854,-52.333215 15.841574,-51.876812" />
      <line x1="15.841574" y1="-52.007793" x2="15.841574" y2="-51.876812" />
      <path d="M 15.841574,-52.007793 C 16.093709,-51.765946 16.659302,-52.123829 16.890144,-52.313758" />
      <path d="M 15.841574,-51.876812 C 16.093709,-51.634965 16.659302,-51.992849 16.890144,-52.182777" />
      <line x1="16.890144" y1="-52.313758" x2="16.890144" y2="-52.182777" />
      <path d="M 16.890144,-52.313758 C 17.297287,-52.618258 17.867758,-52.879829 18.474567,-53.082407 C 19.083029,-53.285573 19.726553,-53.431559 20.328379,-53.520945" />
      <path d="M 16.890144,-52.182777 C 17.297287,-52.487277 17.867758,-52.748848 18.474567,-52.951426 C 19.083029,-53.154592 19.726553,-53.300578 20.328379,-53.389965" />
      <line x1="20.328379" y1="-53.520945" x2="20.328379" y2="-53.389965" />
      <path d="M 20.328379,-53.520945 Q 20.774601,-52.966162 21.189367,-52.387886" />
      <path d="M 20.328379,-53.389965 Q 20.774601,-52.835181 21.189367,-52.256905" />
      <line x1="21.189367" y1="-52.387886" x2="21.189367" y2="-52.256905" />
      <path d="M 21.189367,-52.256905 C 20.936654,-51.708086 20.61756,-51.135148 20.252704,-50.611399 C 19.888873,-50.089062 19.477872,-49.617629 19.070314,-49.313675" />
      <path d="M 18.458366,-48.59819 Q 18.466308,-48.562976 18.484359,-48.529889" />
      <path d="M 19.070314,-49.313675 C 18.855499,-49.167931 18.453094,-48.822463 18.451424,-48.530392" />
      <path d="M 18.451424,-48.530392 Q 18.450841,-48.461327 18.484359,-48.398908" />
      <line x1="18.484359" y1="-48.529889" x2="18.484359" y2="-48.398908" />
      <path d="M 18.484359,-48.529889 Q 18.809122,-47.99734 19.102149,-47.446997" />
      <path d="M 18.484359,-48.398908 Q 18.809122,-47.86636 19.102149,-47.316017" />
      <line x1="19.102149" y1="-47.446997" x2="19.102149" y2="-47.316017" />
      <path d="M 19.102149,-47.446997 C 19.282555,-47.148696 19.922308,-47.34926 20.194868,-47.473485" />
      <path d="M 19.102149,-47.316017 C 19.282555,-47.017715 19.922308,-47.218279 20.194868,-47.342505" />
      <line x1="20.194868" y1="-47.473485" x2="20.194868" y2="-47.342505" />
      <path d="M 20.194868,-47.473485 C 20.667634,-47.663141 21.286954,-47.769423 21.925973,-47.809397 C 22.566742,-47.849515 23.226451,-47.825406 23.831107,-47.757324" />
      <path d="M 20.194868,-47.342505 C 20.667634,-47.53216 21.286954,-47.638442 21.925973,-47.678416 C 22.566742,-47.718535 23.226451,-47.694425 23.831107,-47.626344" />
      <line x1="23.831107" y1="-47.757324" x2="23.831107" y2="-47.626344" />
      <path d="M 23.831107,-47.757324 Q 24.117287,-47.106949 24.366951,-46.441953" />
      <path d="M 23.831107,-47.626344 Q 24.117287,-46.975968 24.366951,-46.310972" />
      <line x1="24.366951" y1="-46.441953" x2="24.366951" y2="-46.310972" />
      <path d="M 24.366951,-46.310972 C 23.979569,-45.845697 23.521773,-45.374158 23.032614,-44.961873 C 22.544815,-44.550689 22.024742,-44.200778 21.551719,-44.011756" />
      <path d="M 21.551719,-44.011756 C 21.285643,-43.919143 20.741901,-43.654068 20.73943,-43.34068" />
      <path d="M 20.73943,-43.34068 Q 20.739371,-43.309784 20.746913,-43.278509" />
      <line x1="20.746913" y1="-43.404001" x2="20.746913" y2="-43.278509" />
      <path d="M 20.747636,-43.407015 Q 20.921868,-42.810499 21.060944,-42.204979" />
      <path d="M 20.746913,-43.278509 Q 20.921579,-42.680776 21.060944,-42.073998" />
      <line x1="21.060944" y1="-42.204979" x2="21.060944" y2="-42.073998" />
      <path d="M 21.060944,-42.204979 C 21.157326,-41.870552 21.827641,-41.900128 22.123346,-41.950184" />
      <path d="M 21.060944,-42.073998 C 21.157326,-41.739571 21.827641,-41.769147 22.123346,-41.819203" />
      <line x1="22.123346" y1="-41.950184" x2="22.123346" y2="-41.819203" />
      <path d="M 22.123346,-41.950184 C 22.629515,-42.01207 23.255479,-41.95582 23.88316,-41.830467 C 24.512569,-41.704804 25.143504,-41.512241 25.709783,-41.291332" />
      <path d="M 22.123346,-41.819203 C 22.629515,-41.88109 23.255479,-41.824839 23.88316,-41.699486 C 24.512569,-41.573823 25.143504,-41.381261 25.709783,-41.160351" />
      <line x1="25.709783" y1="-41.291332" x2="25.709783" y2="-41.160351" />
      <path d="M 25.709783,-41.291332 Q 25.81642,-40.589686 25.883968,-39.883288" />
      <path d="M 25.709783,-41.160351 Q 25.81642,-40.458706 25.883968,-39.752308" />
      <line x1="25.883968" y1="-39.883288" x2="25.883968" y2="-39.752308" />
      <path d="M 25.883968,-39.752308 C 25.388317,-39.402284 24.823016,-39.064278 24.24289,-38.791554 C 23.664366,-38.519545 23.070663,-38.315003 22.56441,-38.253794" />
      <path d="M 22.56441,-38.253794 C 22.265268,-38.231527 21.607609,-38.099642 21.5956,-37.752036" />
      <path d="M 21.597485,-37.777609 L 21.6,-37.450813" />
      <path d="M 21.5956,-37.752036 Q 21.6,-37.535977 21.6,-37.319833" />
      <path d="M 21.6,-37.319833 Q 21.599998,-36.913727 21.584471,-36.507991" />
      <path d="M 21.587767,-36.59924 C 21.641682,-36.279788 22.25677,-36.146915 22.544153,-36.120258" />
      <path d="M 21.584471,-36.507991 C 21.590261,-36.160229 22.245456,-36.016801 22.544153,-35.989277" />
      <line x1="22.544153" y1="-36.120258" x2="22.544153" y2="-35.989277" />
      <path d="M 22.544153,-36.120258 C 23.049232,-36.050158 23.639181,-35.835209 24.212749,-35.553071 C 24.787905,-35.27019 25.34707,-34.922297 25.836381,-34.563614" />
      <path d="M 22.544153,-35.989277 C 23.049232,-35.919177 23.639181,-35.704228 24.212749,-35.42209 C 24.787905,-35.139209 25.34707,-34.791317 25.836381,-34.432633" />
      <line x1="25.836381" y1="-34.563614" x2="25.836381" y2="-34.432633" />
      <path d="M 25.836381,-34.432633 Q 25.756207,-33.727534 25.637035,-33.027874" />
      <path d="M 25.637035,-33.027874 C 25.066893,-32.816956 24.432612,-32.635517 23.801054,-32.52094 C 23.171229,-32.406643 22.544357,-32.361408 22.039374,-32.432184" />
      <path d="M 22.039374,-32.432184 C 21.744612,-32.487432 21.074931,-32.528789 20.972582,-32.196109" />
      <path d="M 20.972582,-32.196109 Q 20.822384,-31.591877 20.637052,-30.997309" />
      <path d="M 20.636531,-30.99529 C 20.707136,-30.71122 21.183945,-30.471222 21.428614,-30.381007" />
      <path d="M 20.637052,-30.997309 Q 20.628342,-30.963788 20.628416,-30.93056" />
      <path d="M 20.628416,-30.93056 C 20.630833,-30.619069 21.165535,-30.346842 21.428614,-30.250026" />
      <line x1="21.428614" y1="-30.381007" x2="21.428614" y2="-30.250026" />
      <path d="M 21.428614,-30.381007 C 21.898182,-30.183698 22.411913,-29.824698 22.892279,-29.405002 C 23.373986,-28.984182 23.823274,-28.504668 24.202272,-28.032654" />
      <path d="M 21.428614,-30.250026 C 21.898182,-30.052717 22.411913,-29.693717 22.892279,-29.274022 C 23.373986,-28.853201 23.823274,-28.373687 24.202272,-27.901673" />
      <line x1="24.202272" y1="-28.032654" x2="24.202272" y2="-27.901673" />
      <path d="M 24.202272,-27.901673 Q 23.94075,-27.241172 23.64298,-26.59593" />
      <path d="M 23.64298,-26.59593 C 23.037201,-26.538491 22.377165,-26.525985 21.737214,-26.577363 C 21.099011,-26.628567 20.48169,-26.745721 20.012392,-26.943659" />
      <path d="M 20.012392,-26.943659 C 19.742096,-27.072657 19.106032,-27.284438 18.920318,-26.989356" />
      <path d="M 18.920318,-26.989356 Q 18.617491,-26.444252 18.283252,-25.917497" />
      <path d="M 18.254737,-25.844131 C 18.309443,-25.567877 18.65779,-25.261034 18.852751,-25.123552" />
      <path d="M 18.283252,-25.917497 Q 18.24727,-25.853145 18.247921,-25.781031" />
      <path d="M 18.247921,-25.781031 C 18.249536,-25.489991 18.641903,-25.141147 18.852751,-24.992571" />
      <line x1="18.852751" y1="-25.123552" x2="18.852751" y2="-24.992571" />
      <path d="M 18.852751,-25.123552 C 19.254807,-24.81248 19.65731,-24.333895 20.011739,-23.805243 C 20.367169,-23.275161 20.675962,-22.696703 20.918818,-22.143526" />
      <path d="M 18.852751,-24.992571 C 19.254807,-24.681499 19.65731,-24.202914 20.011739,-23.674262 C 20.367169,-23.14418 20.675962,-22.565722 20.918818,-22.012545" />
      <line x1="20.918818" y1="-22.143526" x2="20.918818" y2="-22.012545" />
      <path d="M 20.918818,-22.012545 Q 20.493772,-21.441653 20.037696,-20.894803" />
      <path d="M 20.037696,-20.894803 C 19.437563,-20.994757 18.796751,-21.152035 18.19202,-21.365867 C 17.58893,-21.579082 17.023229,-21.850643 16.621597,-22.162253" />
      <path d="M 16.621597,-22.162253 C 16.394189,-22.356211 15.835087,-22.723983 15.578665,-22.486607" />
      <path d="M 15.578665,-22.486607 Q 15.143848,-22.037779 14.683479,-21.614736" />
      <path d="M 14.606079,-21.455688 C 14.641117,-21.188418 14.85686,-20.868459 14.992103,-20.706179" />
      <path d="M 14.683479,-21.614736 Q 14.598898,-21.524694 14.601473,-21.393178" />
      <path d="M 14.601473,-21.393178 C 14.602331,-21.115221 14.845221,-20.751406 14.992103,-20.575198" />
      <line x1="14.992103" y1="-20.706179" x2="14.992103" y2="-20.575198" />
      <path d="M 14.992103,-20.706179 C 15.299249,-20.302543 15.563093,-19.736988 15.767431,-19.135406 C 15.972363,-18.532187 16.119617,-17.894207 16.209781,-17.297565" />
      <path d="M 14.992103,-20.575198 C 15.299249,-20.171563 15.563093,-19.606007 15.767431,-19.004426 C 15.972363,-18.401206 16.119617,-17.763226 16.209781,-17.166584" />
      <line x1="16.209781" y1="-17.297565" x2="16.209781" y2="-17.166584" />
      <path d="M 16.209781,-17.166584 Q 15.650176,-16.724207 15.066875,-16.313014" />
      <path d="M 15.066875,-16.313014 C 14.513286,-16.56355 13.93537,-16.879894 13.407069,-17.241608 C 12.880193,-17.602304 12.404664,-18.009764 12.098068,-18.413811" />
      <path d="M 12.098068,-18.413811 C 11.929045,-18.65951 11.485008,-19.15821 11.175352,-18.994718" />
      <path d="M 11.175352,-18.994718 Q 10.638176,-18.672753 10.08305,-18.38225" />
      <path d="M 9.928575,-18.084674 C 9.944979,-17.847504 10.038839,-17.58376 10.109769,-17.429925" />
      <path d="M 10.08305,-18.38225 C 9.967695,-18.315137 9.926092,-18.178304 9.926171,-18.02159" />
      <path d="M 9.926171,-18.02159 C 9.926443,-17.768921 10.032033,-17.467559 10.109769,-17.298945" />
      <line x1="10.109769" y1="-17.429925" x2="10.109769" y2="-17.298945" />
      <path d="M 10.109769,-17.429925 C 10.364407,-16.805551 10.468758,-15.931068 10.468229,-15.083378" />
      <path d="M 10.109769,-17.298945 C 10.364407,-16.67457 10.468758,-15.800087 10.468229,-14.952398" />
      <path d="M 10.468229,-14.952398 C 10.468189,-14.522736 10.442237,-14.09673 10.396074,-13.694033" />
      <path d="M 10.396074,-13.694033 Q 9.740047,-13.410318 9.069272,-13.162805" />
      <path d="M 9.069272,-13.162805 C 8.599953,-13.546849 8.124317,-14.000701 7.708449,-14.485646 C 7.293692,-14.969243 6.940741,-15.484835 6.750076,-15.953783" />
      <path d="M 6.750076,-15.953783 C 6.650957,-16.23448 6.352244,-16.830122 6.010457,-16.751656" />
      <path d="M 6.010457,-16.751656 Q 5.40753,-16.578495 4.795479,-16.44033" />
      <path d="M 4.508735,-15.82545 Q 4.515799,-15.645396 4.53847,-15.518062" />
      <path d="M 4.795479,-16.44033 C 4.568721,-16.378027 4.507428,-16.05204 4.507721,-15.760894" />
      <path d="M 4.507721,-15.760894 C 4.507733,-15.618992 4.521927,-15.484254 4.53847,-15.387082" />
      <line x1="4.53847" y1="-15.518062" x2="4.53847" y2="-15.387082" />
      <path d="M 4.53847,-15.518062 Q 4.564207,-15.308199 4.563965,-15.074125" />
      <path d="M 4.53847,-15.387082 Q 4.564207,-15.177218 4.563965,-14.943144" />
      <path d="M 4.563965,-14.943144 C 4.56397,-14.461323 4.485664,-13.918194 4.361053,-13.382204 C 4.236174,-12.845231 4.06584,-12.315099 3.873892,-11.831541" />
      <path d="M 3.873892,-11.831541 Q 3.16615,-11.725823 2.453613,-11.658857" />
      <path d="M 2.453613,-11.658857 C 2.100548,-12.150238 1.759604,-12.710669 1.484511,-13.285797 C 1.210138,-13.859337 1.003818,-14.447925 0.942078,-14.949816" />
      <path d="M 0.942078,-14.949816 C 0.919617,-15.246382 0.786586,-15.898374 0.435959,-15.91028" />
      <path d="M -3.551647,-10.513717 Q -2.909364,-10.588124 -2.264484,-10.635568" />
      <line x1="-3.551647" y1="-10.513717" x2="-3.551647" y2="-10.382737" />
      <path d="M -3.551647,-10.382737 Q -2.909364,-10.457143 -2.264484,-10.504587" />
      <line x1="-2.264484" y1="-10.635568" x2="-2.264484" y2="-10.504587" />
      <path d="M -2.264484,-10.635568 C -2.015496,-10.663892 -1.941463,-11.148539 -1.928384,-11.356152" />
      <path d="M -2.264484,-10.504587 C -2.015496,-10.532911 -1.941463,-11.017558 -1.928384,-11.225172" />
      <line x1="-1.928384" y1="-11.356152" x2="-1.928384" y2="-11.225172" />
      <path d="M -1.928384,-11.356152 C -1.880667,-11.942867 -1.72712,-12.592649 -1.51497,-13.23201 C -1.302608,-13.872231 -1.032675,-14.50196 -0.745625,-15.072968" />
      <path d="M -1.928384,-11.225172 C -1.880667,-11.811887 -1.72712,-12.461668 -1.51497,-13.101029 C -1.302608,-13.74125 -1.032675,-14.370979 -0.745625,-14.941987" />
      <line x1="-0.745625" y1="-15.072968" x2="-0.745625" y2="-14.941987" />
      <path d="M -0.745625,-15.072968 Q -0.0,-15.088717 0.745625,-15.072968" />
      <path d="M -0.745625,-14.941987 Q -0.0,-14.957736 0.745625,-14.941987" />
      <line x1="0.745625" y1="-15.072968" x2="0.745625" y2="-14.941987" />
      <path d="M 0.745625,-15.072968 Q 0.899236,-14.767767 1.043484,-14.443825" />
      <path d="M 1.524455,-13.203282 C 1.731692,-12.573247 1.881381,-11.934069 1.928384,-11.356152" />
      <path d="M 0.745625,-14.941987 C 1.032675,-14.370979 1.302608,-13.74125 1.51497,-13.101029 C 1.72712,-12.461668 1.880667,-11.811887 1.928384,-11.225172" />
      <line x1="1.928384" y1="-11.356152" x2="1.928384" y2="-11.225172" />
      <path d="M 1.928384,-11.356152 C 1.941463,-11.148539 2.015496,-10.663892 2.264484,-10.635568" />
      <path d="M 1.928384,-11.225172 C 1.941463,-11.017558 2.015496,-10.532911 2.264484,-10.504587" />
      <line x1="2.264484" y1="-10.635568" x2="2.264484" y2="-10.504587" />
      <path d="M 2.264484,-10.635568 Q 2.909364,-10.588124 3.551647,-10.513717" />
      <path d="M 2.264484,-10.504587 Q 2.909364,-10.457143 3.551647,-10.382737" />
      <line x1="3.551647" y1="-10.513717" x2="3.551647" y2="-10.382737" />
      <path d="M 3.551647,-10.513717 C 3.801542,-10.494814 3.966755,-10.956813 4.01923,-11.158221" />
      <path d="M 3.551647,-10.382737 C 3.801542,-10.363833 3.966755,-10.825832 4.01923,-11.02724" />
      <line x1="4.01923" y1="-11.158221" x2="4.01923" y2="-11.02724" />
      <path d="M 4.01923,-11.158221 C 4.178086,-11.725381 4.452899,-12.334611 4.783267,-12.922614 C 5.114007,-13.511422 5.499274,-14.079126 5.89014,-14.585958" />
      <path d="M 4.01923,-11.02724 C 4.178086,-11.5944 4.452899,-12.20363 4.783267,-12.791633 C 5.114007,-13.380441 5.499274,-13.948145 5.89014,-14.454978" />
      <line x1="5.89014" y1="-14.585958" x2="5.89014" y2="-14.454978" />
      <path d="M 5.89014,-14.585958 Q 6.625297,-14.461528 7.354441,-14.306169" />
      <path d="M 5.89014,-14.454978 Q 6.625297,-14.330547 7.354441,-14.175188" />
      <line x1="7.354441" y1="-14.306169" x2="7.354441" y2="-14.175188" />
      <path d="M 7.354441,-14.306169 C 7.633994,-13.313194 7.842193,-12.165774 7.842551,-11.132794" />
      <path d="M 7.354441,-14.175188 C 7.633994,-13.182214 7.842193,-12.034793 7.842551,-11.001813" />
      <path d="M 7.842551,-11.001813 Q 7.842968,-10.638207 7.806302,-10.30363" />
      <path d="M 7.792099,-10.127448 C 7.799744,-9.925667 7.847561,-9.709972 7.998771,-9.663989" />
      <path d="M 7.806302,-10.30363 Q 7.792553,-10.205524 7.790893,-10.060722" />
      <path d="M 7.790893,-10.060722 C 7.790778,-9.842457 7.831348,-9.584064 7.998771,-9.533008" />
      <line x1="7.998771" y1="-9.663989" x2="7.998771" y2="-9.533008" />
      <path d="M 7.998771,-9.663989 Q 8.622941,-9.496409 9.239413,-9.302842" />
      <path d="M 7.998771,-9.533008 Q 8.622941,-9.365429 9.239413,-9.171861" />
      <line x1="9.239413" y1="-9.302842" x2="9.239413" y2="-9.171861" />
      <path d="M 9.239413,-9.302842 C 9.481183,-9.237395 9.731604,-9.660047 9.821579,-9.84797" />
      <path d="M 9.239413,-9.171861 C 9.481183,-9.106414 9.731604,-9.529066 9.821579,-9.716989" />
      <line x1="9.821579" y1="-9.84797" x2="9.821579" y2="-9.716989" />
      <path d="M 9.821579,-9.84797 C 10.085832,-10.375076 10.471979,-10.921736 10.908624,-11.437129 C 11.345788,-11.953242 11.832465,-12.438403 12.313019,-12.862742" />
      <path d="M 9.821579,-9.716989 C 10.085832,-10.244095 10.471979,-10.790755 10.908624,-11.306148 C 11.345788,-11.822262 11.832465,-12.307422 12.313019,-12.731761" />
      <line x1="12.313019" y1="-12.862742" x2="12.313019" y2="-12.731761" />
      <path d="M 12.313019,-12.862742 Q 13.011138,-12.60263 13.697448,-12.313275" />
      <path d="M 12.313019,-12.731761 Q 13.011138,-12.471649 13.697448,-12.182294" />
      <line x1="13.697448" y1="-12.313275" x2="13.697448" y2="-12.182294" />
      <path d="M 13.697448,-12.313275 Q 13.745629,-11.738342 13.74666,-11.13087" />
      <path d="M 13.697448,-12.182294 Q 13.745629,-11.607361 13.74666,-10.99989" />
      <path d="M 13.74666,-10.99989 C 13.747033,-10.059918 13.648421,-9.084496 13.402079,-8.295922" />
      <path d="M 13.316585,-7.883551 C 13.325652,-7.772275 13.361577,-7.677336 13.443961,-7.634096" />
      <path d="M 13.402079,-8.295922 C 13.365172,-8.184567 13.314232,-7.988981 13.314147,-7.815176" />
      <path d="M 13.314147,-7.815176 C 13.314099,-7.67776 13.346464,-7.554297 13.443961,-7.503115" />
      <line x1="13.443961" y1="-7.634096" x2="13.443961" y2="-7.503115" />
      <path d="M 13.443961,-7.634096 Q 14.024861,-7.352438 14.593242,-7.046705" />
      <path d="M 13.443961,-7.503115 Q 14.024861,-7.221457 14.593242,-6.915724" />
      <line x1="14.593242" y1="-7.046705" x2="14.593242" y2="-6.915724" />
      <path d="M 14.593242,-7.046705 C 14.81815,-6.937079 15.144727,-7.30511 15.26895,-7.472755" />
      <path d="M 14.593242,-6.915724 C 14.81815,-6.806099 15.144727,-7.174129 15.26895,-7.341775" />
      <line x1="15.26895" y1="-7.472755" x2="15.26895" y2="-7.341775" />
      <path d="M 15.26895,-7.472755 C 15.629051,-7.940756 16.112574,-8.405088 16.639715,-8.829244 C 17.167502,-9.25401 17.738,-9.639092 18.290875,-9.9656" />
      <path d="M 15.26895,-7.341775 C 15.629051,-7.809775 16.112574,-8.274108 16.639715,-8.698263 C 17.167502,-9.123029 17.738,-9.508111 18.290875,-9.83462" />
      <line x1="18.290875" y1="-9.9656" x2="18.290875" y2="-9.83462" />
      <path d="M 18.290875,-9.9656 Q 18.926723,-9.579207 19.545394,-9.166316" />
      <path d="M 18.290875,-9.83462 Q 18.926723,-9.448226 19.545394,-9.035335" />
      <line x1="19.545394" y1="-9.166316" x2="19.545394" y2="-9.035335" />
      <path d="M 19.545394,-9.035335 C 19.475483,-8.401118 19.359149,-7.726677 19.188662,-7.074267 C 19.018466,-6.422693 18.793287,-5.793763 18.51347,-5.274612" />
      <path d="M 18.326567,-4.763755 Q 18.338742,-4.673557 18.403252,-4.619254" />
      <path d="M 18.51347,-5.274612 C 18.441647,-5.146637 18.322437,-4.892286 18.32214,-4.694346" />
      <path d="M 18.32214,-4.694346 C 18.322123,-4.609162 18.344638,-4.535007 18.403252,-4.488274" />
      <line x1="18.403252" y1="-4.619254" x2="18.403252" y2="-4.488274" />
      <path d="M 18.403252,-4.619254 Q 18.919887,-4.233697 19.419633,-3.826849" />
      <path d="M 18.403252,-4.488274 Q 18.919887,-4.102716 19.419633,-3.695868" />
      <line x1="19.419633" y1="-3.826849" x2="19.419633" y2="-3.695868" />
      <path d="M 19.419633,-3.826849 C 19.61955,-3.677008 20.010481,-3.977115 20.164462,-4.118424" />
      <path d="M 19.419633,-3.695868 C 19.61955,-3.546027 20.010481,-3.846134 20.164462,-3.987443" />
      <line x1="20.164462" y1="-4.118424" x2="20.164462" y2="-3.987443" />
      <path d="M 20.164462,-4.118424 C 20.607394,-4.510405 21.170819,-4.875627 21.769403,-5.193215 C 22.368739,-5.51128 23.002437,-5.782367 23.60765,-5.999244" />
      <path d="M 20.164462,-3.987443 C 20.607394,-4.379424 21.170819,-4.744646 21.769403,-5.062234 C 22.368739,-5.3803 23.002437,-5.651386 23.60765,-5.868263" />
      <line x1="23.60765" y1="-5.999244" x2="23.60765" y2="-5.868263" />
      <path d="M 23.60765,-5.999244 Q 24.158247,-5.500535 24.686918,-4.979029" />
      <path d="M 23.60765,-5.868263 Q 24.158247,-5.369554 24.686918,-4.848048" />
      <line x1="24.686918" y1="-4.979029" x2="24.686918" y2="-4.848048" />
      <path d="M 24.686918,-4.848048 C 24.497201,-4.23841 24.254222,-3.597984 23.962273,-2.98935 C 23.67077,-2.381483 23.3296,-1.806167 22.955736,-1.348897" />
      <path d="M 22.656245,-0.810536 Q 22.666819,-0.764828 22.697401,-0.728429" />
      <path d="M 22.955736,-1.348897 C 22.848496,-1.222203 22.650031,-0.947086 22.649428,-0.740814" />
      <path d="M 22.649428,-0.740814 Q 22.648051,-0.657929 22.697401,-0.597448" />
      <line x1="22.697401" y1="-0.728429" x2="22.697401" y2="-0.597448" />
      <path d="M 22.697401,-0.728429 Q 23.131099,-0.252908 23.544148,0.240351" />
      <path d="M 22.697401,-0.597448 Q 23.131099,-0.121927 23.544148,0.371331" />
      <line x1="23.544148" y1="0.240351" x2="23.544148" y2="0.371331" />
      <path d="M 23.544148,0.240351 C 23.711848,0.424993 24.153004,0.203656 24.331177,0.093791" />
      <path d="M 23.544148,0.371331 C 23.711848,0.555974 24.153004,0.334637 24.331177,0.224771" />
      <line x1="24.331177" y1="0.093791" x2="24.331177" y2="0.224771" />
      <path d="M 24.331177,0.093791 C 24.840933,-0.208003 25.463895,-0.460915 26.112288,-0.660457 C 26.761511,-0.860327 27.435506,-1.007619 28.071183,-1.107027" />
      <path d="M 24.331177,0.224771 C 24.840933,-0.077023 25.463895,-0.329935 26.112288,-0.529476 C 26.761511,-0.729346 27.435506,-0.876639 28.071183,-0.976046" />
      <line x1="28.071183" y1="-1.107027" x2="28.071183" y2="-0.976046" />
      <path d="M 28.071183,-1.107027 Q 28.516628,-0.514027 28.936193,0.097245" />
      <path d="M 28.071183,-0.976046 Q 28.516628,-0.383046 28.936193,0.228225" />
      <line x1="28.936193" y1="0.097245" x2="28.936193" y2="0.228225" />
      <path d="M 28.936193,0.228225 C 28.633527,0.791252 28.272684,1.374517 27.869825,1.917376 C 27.467551,2.459566 27.022721,2.960474 26.568322,3.339337" />
      <path d="M 26.568322,3.339337 C 26.427833,3.452446 26.147222,3.718299 26.146258,3.930528" />
      <path d="M 26.146258,3.930528 Q 26.145784,3.982846 26.171207,4.028737" />
      <line x1="26.171207" y1="3.897756" x2="26.171207" y2="4.028737" />
      <path d="M 26.171207,3.897756 Q 26.506292,4.446055 26.817717,5.007896" />
      <path d="M 26.171207,4.028737 Q 26.506292,4.577035 26.817717,5.138877" />
      <line x1="26.817717" y1="5.007896" x2="26.817717" y2="5.138877" />
      <path d="M 26.817717,5.007896 C 26.947138,5.220666 27.422574,5.086099 27.618501,5.011647" />
      <path d="M 26.817717,5.138877 C 26.947138,5.351646 27.422574,5.217079 27.618501,5.142628" />
      <line x1="27.618501" y1="5.011647" x2="27.618501" y2="5.142628" />
      <path d="M 27.618501,5.011647 C 28.176655,4.810948 28.83664,4.679487 29.511407,4.605203 C 30.187052,4.530753 30.876985,4.512578 31.520151,4.534233" />
      <path d="M 27.618501,5.142628 C 28.176655,4.941929 28.83664,4.810468 29.511407,4.736184 C 30.187052,4.661734 30.876985,4.643559 31.520151,4.665214" />
      <line x1="31.520151" y1="4.534233" x2="31.520151" y2="4.665214" />
      <path d="M 31.520151,4.534233 Q 31.844345,5.200092 32.139638,5.879036" />
      <path d="M 31.520151,4.665214 Q 31.844345,5.331073 32.139638,6.010017" />
      <line x1="32.139638" y1="5.879036" x2="32.139638" y2="6.010017" />
      <path d="M 32.139638,6.010017 C 31.734962,6.506082 31.269297,7.011105 30.770089,7.46857 C 30.271583,7.925486 29.73917,8.333883 29.22066,8.620644" />
      <path d="M 29.22066,8.620644 C 29.050866,8.710741 28.690668,8.942083 28.689319,9.162811" />
      <path d="M 28.689319,9.162811 Q 28.689209,9.193281 28.699118,9.223079" />
      <line x1="28.699118" y1="9.098575" x2="28.699118" y2="9.223079" />
      <path d="M 28.700202,9.095005 Q 28.92396,9.694833 29.122023,10.303475" />
      <path d="M 28.699118,9.223079 Q 28.92348,9.824338 29.122023,10.434456" />
      <line x1="29.122023" y1="10.303475" x2="29.122023" y2="10.434456" />
      <path d="M 29.122023,10.303475 C 29.208489,10.536682 29.701021,10.493748 29.907619,10.457403" />
      <path d="M 29.122023,10.434456 C 29.208489,10.667663 29.701021,10.624729 29.907619,10.588383" />
      <line x1="29.907619" y1="10.457403" x2="29.907619" y2="10.588383" />
      <path d="M 29.907619,10.457403 C 30.494,10.365052 31.167153,10.359793 31.843907,10.413452 C 32.521554,10.467112 33.202489,10.578712 33.829898,10.720647" />
      <path d="M 29.907619,10.588383 C 30.494,10.496032 31.167153,10.490774 31.843907,10.544433 C 32.521554,10.598093 33.202489,10.709692 33.829898,10.851627" />
      <line x1="33.829898" y1="10.720647" x2="33.829898" y2="10.851627" />
      <path d="M 33.829898,10.720647 Q 34.021124,11.435298 34.181473,12.157376" />
      <path d="M 33.829898,10.851627 Q 34.021124,11.566279 34.181473,12.288356" />
      <line x1="34.181473" y1="12.157376" x2="34.181473" y2="12.288356" />
      <path d="M 34.181473,12.288356 C 33.689414,12.699532 33.135757,13.10806 32.558242,13.463596 C 31.981521,13.818725 31.380768,14.11985 30.816887,14.304146" />
      <path d="M 30.816887,14.304146 C 30.623054,14.363733 30.189854,14.538636 30.188118,14.773117" />
      <path d="M 30.188118,14.773117 L 30.189767,14.797841" />
      <line x1="30.189767" y1="14.748329" x2="30.189767" y2="14.797841" />
      <path d="M 30.197554,14.713755 Q 30.298208,15.322951 30.373783,15.935692" />
      <path d="M 30.189767,14.797841 Q 30.295297,15.43033 30.373783,16.066673" />
      <line x1="30.373783" y1="15.935692" x2="30.373783" y2="16.066673" />
      <path d="M 30.373783,15.935692 C 30.414168,16.180907 30.905996,16.231159 31.115799,16.234232" />
      <path d="M 30.373783,16.066673 C 30.414168,16.311888 30.905996,16.36214 31.115799,16.365213" />
      <line x1="31.115799" y1="16.234232" x2="31.115799" y2="16.365213" />
      <path d="M 31.115799,16.234232 C 31.709212,16.253567 32.371204,16.374701 33.025485,16.554364 C 33.680643,16.734195 34.327968,16.971535 34.916944,17.22862" />
      <path d="M 31.115799,16.365213 C 31.709212,16.384548 32.371204,16.505682 33.025485,16.685345 C 33.680643,16.865176 34.327968,17.102516 34.916944,17.359601" />
      <line x1="34.916944" y1="17.22862" x2="34.916944" y2="17.359601" />
      <path d="M 34.916944,17.22862 Q 34.968291,17.966235 34.987901,18.705349" />
      <path d="M 34.916944,17.359601 Q 34.968291,18.097216 34.987901,18.836329" />
      <line x1="34.987901" y1="18.705349" x2="34.987901" y2="18.836329" />
      <path d="M 34.987901,18.836329 C 34.426242,19.147754 33.804604,19.445021 33.169656,19.685778 C 32.535564,19.926285 31.888184,20.109255 31.299311,20.184424" />
      <path d="M 31.299311,20.184424 C 31.090753,20.207254 30.605971,20.303627 30.58928,20.551537" />
      <path d="M 30.58928,20.551537 Q 30.572163,21.192395 30.527756,21.831965" />
      <path d="M 30.533139,21.752926 C 30.588178,21.969598 31.008363,22.093823 31.199372,22.133346" />
      <path d="M 30.527756,21.831965 L 30.527628,21.83889" />
      <path d="M 30.527628,21.83889 C 30.529552,22.083029 30.995816,22.222312 31.199372,22.264327" />
      <line x1="31.199372" y1="22.133346" x2="31.199372" y2="22.264327" />
      <path d="M 31.199372,22.133346 C 31.778371,22.263669 32.405276,22.506818 33.013436,22.80599 C 33.622425,23.105493 34.212746,23.459995 34.742002,23.822939" />
      <path d="M 31.199372,22.264327 C 31.778371,22.39465 32.405276,22.637798 33.013436,22.936971 C 33.622425,23.236473 34.212746,23.590976 34.742002,23.95392" />
      <line x1="34.742002" y1="23.822939" x2="34.742002" y2="23.95392" />
      <path d="M 34.742002,23.95392 Q 34.651613,24.687838 34.529775,25.417274" />
      <path d="M 34.529775,25.417274 C 33.918816,25.617692 33.251665,25.792955 32.582231,25.910232 C 31.913686,26.027423 31.243077,26.085625 30.650497,26.048951" />
      <path d="M 30.650497,26.048951 C 30.441349,26.032239 29.94693,26.035915 29.883216,26.276214" />
      <path d="M 29.883216,26.276214 Q 29.744072,26.902279 29.578376,27.521959" />
      <path d="M 29.584493,27.499044 C 29.65143,27.699564 29.990225,27.873009 30.155319,27.941536" />
      <path d="M 29.578376,27.521959 Q 29.573466,27.543213 29.573504,27.564357" />
      <path d="M 29.573504,27.564357 C 29.575047,27.791151 29.972778,27.996841 30.155319,28.072517" />
      <line x1="30.155319" y1="27.941536" x2="30.155319" y2="28.072517" />
      <path d="M 30.155319,27.941536 C 30.698977,28.178136 31.268136,28.534511 31.808196,28.94238 C 32.349006,29.35073 32.860985,29.809583 33.311392,30.265267" />
      <path d="M 30.155319,28.072517 C 30.698977,28.309117 31.268136,28.665492 31.808196,29.073361 C 32.349006,29.48171 32.860985,29.940563 33.311392,30.396247" />
      <line x1="33.311392" y1="30.265267" x2="33.311392" y2="30.396247" />
      <path d="M 33.311392,30.396247 Q 33.082535,31.099944 32.823652,31.793339" />
      <path d="M 32.823652,31.793339 C 32.185475,31.875506 31.496923,31.922431 30.8172,31.911989 C 30.138365,31.901629 29.468765,31.832959 28.893894,31.685767" />
      <path d="M 28.893894,31.685767 C 28.691716,31.630117 28.20553,31.540963 28.097096,31.764965" />
      <path d="M 28.097096,31.764965 Q 27.840952,32.35361 27.559956,32.931003" />
      <path d="M 27.553583,32.947231 C 27.610424,33.146057 27.881608,33.3567 28.021374,33.448878" />
      <path d="M 27.559956,32.931003 Q 27.543245,32.96903 27.543491,33.009713" />
      <path d="M 27.543491,33.009713 C 27.544645,33.225687 27.865648,33.477211 28.021374,33.579859" />
      <line x1="28.021374" y1="33.448878" x2="28.021374" y2="33.579859" />
      <path d="M 28.021374,33.448878 C 28.510041,33.783204 29.000885,34.239925 29.453324,34.74175 C 29.906409,35.244187 30.321543,35.790806 30.676823,36.322761" />
      <path d="M 28.021374,33.579859 C 28.510041,33.914185 29.000885,34.370906 29.453324,34.872731 C 29.906409,35.375168 30.321543,35.921787 30.676823,36.453742" />
      <line x1="30.676823" y1="36.322761" x2="30.676823" y2="36.453742" />
      <path d="M 30.676823,36.453742 Q 30.317768,37.101784 29.931198,37.734076" />
      <path d="M 29.931198,37.734076 C 29.288868,37.695023 28.603801,37.611913 27.938355,37.474129 C 27.273765,37.336594 26.629374,37.143533 26.09299,36.891144" />
      <path d="M 26.09299,36.891144 C 25.905089,36.798566 25.444709,36.619805 25.295472,36.819414" />
      <path d="M 25.295472,36.819414 Q 24.931588,37.349364 24.545448,37.863602" />
      <path d="M 24.518083,37.921598 C 24.561526,38.118887 24.763599,38.347948 24.874664,38.456323" />
      <path d="M 24.545448,37.863602 Q 24.509233,37.916971 24.510066,37.983038" />
      <path d="M 24.510066,37.983038 C 24.510844,38.192186 24.750404,38.466077 24.874664,38.587304" />
      <line x1="24.874664" y1="38.456323" x2="24.874664" y2="38.587304" />
      <path d="M 24.874664,38.456323 C 25.290679,38.876291 25.685466,39.416851 26.033933,39.994495 C 26.382917,40.57286 26.686201,41.187489 26.933513,41.776488" />
      <path d="M 24.874664,38.587304 C 25.290679,39.007272 25.685466,39.547832 26.033933,40.125475 C 26.382917,40.703841 26.686201,41.318469 26.933513,41.907469" />
      <line x1="26.933513" y1="41.776488" x2="26.933513" y2="41.907469" />
      <path d="M 26.933513,41.907469 Q 26.457238,42.476434 25.956952,43.024771" />
      <path d="M 25.956952,43.024771 C 25.333684,42.86591 24.676863,42.655769 24.049745,42.395623 C 23.42342,42.135882 22.827528,41.825409 22.349018,41.476944" />
      <path d="M 22.349018,41.476944 C 22.182185,41.350785 21.764249,41.088877 21.579605,41.25688" />
      <path d="M 21.579605,41.25688 Q 21.121131,41.708981 20.643803,42.141478" />
      <path d="M 20.586354,42.251645 C 20.615649,42.443154 20.749092,42.667942 20.828918,42.782888" />
      <path d="M 20.643803,42.141478 Q 20.578562,42.208812 20.580755,42.312954" />
      <path d="M 20.580755,42.312954 C 20.581195,42.515865 20.739251,42.784747 20.828918,42.913869" />
      <line x1="20.828918" y1="42.782888" x2="20.828918" y2="42.913869" />
      <path d="M 20.828918,42.782888 C 21.157245,43.27332 21.441707,43.878182 21.673607,44.510766 C 21.905877,45.144157 22.086351,45.80458 22.216755,46.429337" />
      <path d="M 20.828918,42.913869 C 21.157245,43.404301 21.441707,44.009163 21.673607,44.641747 C 21.905877,45.275137 22.086351,45.935561 22.216755,46.560318" />
      <line x1="22.216755" y1="46.429337" x2="22.216755" y2="46.560318" />
      <path d="M 22.216755,46.560318 Q 21.640474,47.029641 21.044554,47.474206" />
      <path d="M 21.044554,47.474206 C 20.462876,47.201277 19.858039,46.8717 19.291914,46.498595 C 18.726491,46.126036 18.200636,45.709373 17.797293,45.277426" />
      <path d="M 17.797293,45.277426 C 17.657559,45.122246 17.297173,44.786657 17.083794,44.916981" />
      <path d="M 17.083794,44.916981 Q 16.547302,45.274892 15.996038,45.610017" />
      <path d="M 15.896445,45.798882 C 15.912664,45.972695 15.982669,46.164202 16.030361,46.272201" />
      <path d="M 15.996038,45.610017 C 15.920379,45.659385 15.893059,45.753219 15.893088,45.860899" />
      <path d="M 15.893088,45.860899 C 15.893264,46.050302 15.976291,46.280714 16.030361,46.403182" />
      <line x1="16.030361" y1="46.272201" x2="16.030361" y2="46.403182" />
      <path d="M 16.030361,46.272201 C 16.259133,46.815371 16.42299,47.462673 16.529941,48.127335 C 16.637101,48.792858 16.688242,49.475207 16.697026,50.11314" />
      <path d="M 16.030361,46.403182 C 16.259133,46.946351 16.42299,47.593654 16.529941,48.258316 C 16.637101,48.923838 16.688242,49.606188 16.697026,50.244121" />
      <line x1="16.697026" y1="50.11314" x2="16.697026" y2="50.244121" />
      <path d="M 16.697026,50.244121 Q 16.041568,50.596841 15.371551,50.921565" />
      <path d="M 15.371551,50.921565 C 14.852485,50.544433 14.321494,50.107333 13.836823,49.634753 C 13.352739,49.162842 12.915926,48.655046 12.602329,48.15523" />
      <path d="M 12.602329,48.15523 C 12.494743,47.976637 12.204931,47.579497 11.970531,47.667432" />
      <path d="M 11.970531,47.667432 Q 11.37541,47.918217 10.770134,48.143858" />
      <path d="M 10.608116,48.480239 C 10.614102,48.602283 10.634593,48.719993 10.652425,48.798148" />
      <path d="M 10.770134,48.143858 C 10.643516,48.195777 10.606334,48.367694 10.60641,48.543555" />
      <path d="M 10.60641,48.543555 C 10.606438,48.688505 10.631317,48.836587 10.652425,48.929128" />
      <line x1="10.652425" y1="48.798148" x2="10.652425" y2="48.929128" />
      <path d="M 10.652425,48.798148 C 10.751756,49.271517 10.794799,49.806178 10.794732,50.354626" />
      <path d="M 10.652425,48.929128 C 10.751756,49.402498 10.794799,49.937159 10.794732,50.485607" />
      <path d="M 10.794732,50.485607 C 10.79462,51.273295 10.707103,52.086047 10.573824,52.825738" />
      <path d="M 10.573824,52.825738 Q 9.862877,53.049106 9.14298,53.242252" />
      <path d="M 9.14298,53.242252 C 8.705288,52.774548 8.267333,52.245721 7.881634,51.690748 C 7.496383,51.13654 7.1644,50.555966 6.951883,50.006345" />
      <path d="M 6.951883,50.006345 C 6.880334,49.810794 6.671572,49.366456 6.424621,49.408823" />
      <path d="M 6.424621,49.408823 Q 5.792381,49.54342 5.154969,49.65142" />
      <path d="M 5.154969,49.65142 C 4.929921,49.698362 4.888456,50.116132 4.888597,50.343777" />
      <path d="M 4.888597,50.343777 Q 4.888621,50.374535 4.889483,50.400415" />
      <line x1="4.889483" y1="50.284804" x2="4.889483" y2="50.400415" />
      <path d="M 4.889483,50.269435 L 4.890056,50.347928" />
      <path d="M 4.889483,50.400415 L 4.890056,50.478908" />
      <path d="M 4.890056,50.478908 C 4.890131,51.060736 4.796872,51.708501 4.647771,52.350323 C 4.498541,52.992952 4.294357,53.62953 4.068455,54.21186" />
      <path d="M 4.068455,54.21186 Q 3.327717,54.297804 2.583958,54.352391" />
      <path d="M 2.583958,54.352391 C 2.243458,53.81102 1.914368,53.20958 1.641582,52.592271 C 1.369089,51.975797 1.153935,51.343428 1.050178,50.763866" />
      <path d="M 1.050178,50.763866 C 1.017252,50.558425 0.897085,50.082949 0.646509,50.078217" />
      <path d="M 0.646509,50.078217 Q 0.0,50.09176 -0.646509,50.078217" />
      <path d="M -0.646509,50.078217 C -0.897085,50.082949 -1.017252,50.558425 -1.050178,50.763866" />
      <path d="M -1.050178,50.763866 C -1.153935,51.343428 -1.369089,51.975797 -1.641582,52.592271 C -1.914368,53.20958 -2.243458,53.81102 -2.583958,54.352391" />
      <path d="M -2.583958,54.352391 Q -3.327717,54.297804 -4.068455,54.21186" />
      <path d="M -4.890056,50.347928 L -4.889483,50.269435" />
      <path d="M -4.068455,54.21186 C -4.294357,53.62953 -4.498541,52.992952 -4.647771,52.350323 C -4.796872,51.708501 -4.890131,51.060736 -4.890056,50.478908" />
      <path d="M -4.890056,50.478908 L -4.889483,50.400415" />
      <line x1="-4.889483" y1="50.284804" x2="-4.889483" y2="50.400415" />
      <path d="M -4.889483,50.400415 Q -4.888621,50.374535 -4.888597,50.343777" />
      <path d="M -4.888597,50.343777 C -4.888456,50.116132 -4.929921,49.698362 -5.154969,49.65142" />
      <path d="M -5.154969,49.65142 Q -5.792381,49.54342 -6.424621,49.408823" />
      <path d="M -6.424621,49.408823 C -6.671572,49.366456 -6.880334,49.810794 -6.951883,50.006345" />
      <path d="M -6.951883,50.006345 C -7.1644,50.555966 -7.496383,51.13654 -7.881634,51.690748 C -8.267333,52.245721 -8.705288,52.774548 -9.14298,53.242252" />
      <path d="M -9.14298,53.242252 Q -9.862877,53.049106 -10.573824,52.825738" />
      <path d="M -10.794732,50.354626 C -10.794799,49.806178 -10.751756,49.271517 -10.652425,48.798148" />
      <path d="M -10.573824,52.825738 C -10.707103,52.086047 -10.79462,51.273295 -10.794732,50.485607" />
      <path d="M -10.794732,50.485607 C -10.794799,49.937159 -10.751756,49.402498 -10.652425,48.929128" />
      <line x1="-10.652425" y1="48.798148" x2="-10.652425" y2="48.929128" />
      <path d="M -10.652425,48.798148 C -10.634593,48.719993 -10.614102,48.602283 -10.608116,48.480239" />
      <path d="M -10.652425,48.929128 C -10.631317,48.836587 -10.606438,48.688505 -10.60641,48.543555" />
      <path d="M -10.60641,48.543555 C -10.606334,48.367694 -10.643516,48.195777 -10.770134,48.143858" />
      <path d="M -10.770134,48.143858 Q -11.37541,47.918217 -11.970531,47.667432" />
      <path d="M -11.970531,47.667432 C -12.204931,47.579497 -12.494743,47.976637 -12.602329,48.15523" />
      <path d="M -12.602329,48.15523 C -12.915926,48.655046 -13.352739,49.162842 -13.836823,49.634753 C -14.321494,50.107333 -14.852485,50.544433 -15.371551,50.921565" />
      <path d="M -15.371551,50.921565 Q -16.041568,50.596841 -16.697026,50.244121" />
      <line x1="-16.697026" y1="50.11314" x2="-16.697026" y2="50.244121" />
      <path d="M -16.697026,50.11314 C -16.688242,49.475207 -16.637101,48.792858 -16.529941,48.127335 C -16.42299,47.462673 -16.259133,46.815371 -16.030361,46.272201" />
      <path d="M -16.697026,50.244121 C -16.688242,49.606188 -16.637101,48.923838 -16.529941,48.258316 C -16.42299,47.593654 -16.259133,46.946351 -16.030361,46.403182" />
      <line x1="-16.030361" y1="46.272201" x2="-16.030361" y2="46.403182" />
      <path d="M -16.030361,46.272201 C -15.982669,46.164202 -15.912664,45.972695 -15.896445,45.798882" />
      <path d="M -16.030361,46.403182 C -15.976291,46.280714 -15.893264,46.050302 -15.893088,45.860899" />
      <path d="M -15.893088,45.860899 C -15.893059,45.753219 -15.920379,45.659385 -15.996038,45.610017" />
      <path d="M -15.996038,45.610017 Q -16.547302,45.274892 -17.083794,44.916981" />
      <path d="M -17.083794,44.916981 C -17.297173,44.786657 -17.657559,45.122246 -17.797293,45.277426" />
      <path d="M -17.797293,45.277426 C -18.200636,45.709373 -18.726491,46.126036 -19.291914,46.498595 C -19.858039,46.8717 -20.462876,47.201277 -21.044554,47.474206" />
      <path d="M -21.044554,47.474206 Q -21.640474,47.029641 -22.216755,46.560318" />
      <line x1="-22.216755" y1="46.429337" x2="-22.216755" y2="46.560318" />
      <path d="M -22.216755,46.429337 C -22.086351,45.80458 -21.905877,45.144157 -21.673607,44.510766 C -21.441707,43.878182 -21.157245,43.27332 -20.828918,42.782888" />
      <path d="M -22.216755,46.560318 C -22.086351,45.935561 -21.905877,45.275137 -21.673607,44.641747 C -21.441707,44.009163 -21.157245,43.404301 -20.828918,42.913869" />
      <line x1="-20.828918" y1="42.782888" x2="-20.828918" y2="42.913869" />
      <path d="M -20.828918,42.782888 C -20.749092,42.667942 -20.615649,42.443154 -20.586354,42.251645" />
      <path d="M -20.828918,42.913869 C -20.739251,42.784747 -20.581195,42.515865 -20.580755,42.312954" />
      <path d="M -20.580755,42.312954 Q -20.578562,42.208812 -20.643803,42.141478" />
      <path d="M -20.643803,42.141478 Q -21.121131,41.708981 -21.579605,41.25688" />
      <path d="M -21.579605,41.25688 C -21.764249,41.088877 -22.182185,41.350785 -22.349018,41.476944" />
      <path d="M -22.349018,41.476944 C -22.827528,41.825409 -23.42342,42.135882 -24.049745,42.395623 C -24.676863,42.655769 -25.333684,42.86591 -25.956952,43.024771" />
      <path d="M -25.956952,43.024771 Q -26.457238,42.476434 -26.933513,41.907469" />
      <line x1="-26.933513" y1="41.776488" x2="-26.933513" y2="41.907469" />
      <path d="M -26.933513,41.776488 C -26.686201,41.187489 -26.382917,40.57286 -26.033933,39.994495 C -25.685466,39.416851 -25.290679,38.876291 -24.874664,38.456323" />
      <path d="M -26.933513,41.907469 C -26.686201,41.318469 -26.382917,40.703841 -26.033933,40.125475 C -25.685466,39.547832 -25.290679,39.007272 -24.874664,38.587304" />
      <line x1="-24.874664" y1="38.456323" x2="-24.874664" y2="38.587304" />
      <path d="M -24.874664,38.456323 C -24.763599,38.347948 -24.561526,38.118887 -24.518083,37.921598" />
      <path d="M -24.874664,38.587304 C -24.750404,38.466077 -24.510844,38.192186 -24.510066,37.983038" />
      <path d="M -24.510066,37.983038 Q -24.509233,37.916971 -24.545448,37.863602" />
      <path d="M -24.545448,37.863602 Q -24.931588,37.349364 -25.295472,36.819414" />
      <path d="M -25.295472,36.819414 C -25.444709,36.619805 -25.905089,36.798566 -26.09299,36.891144" />
      <path d="M -26.09299,36.891144 C -26.629374,37.143533 -27.273765,37.336594 -27.938355,37.474129 C -28.603801,37.611913 -29.288868,37.695023 -29.931198,37.734076" />
      <path d="M -29.931198,37.734076 Q -30.317768,37.101784 -30.676823,36.453742" />
      <line x1="-30.676823" y1="36.322761" x2="-30.676823" y2="36.453742" />
      <path d="M -30.676823,36.322761 C -30.321543,35.790806 -29.906409,35.244187 -29.453324,34.74175 C -29.000885,34.239925 -28.510041,33.783204 -28.021374,33.448878" />
      <path d="M -30.676823,36.453742 C -30.321543,35.921787 -29.906409,35.375168 -29.453324,34.872731 C -29.000885,34.370906 -28.510041,33.914185 -28.021374,33.579859" />
      <line x1="-28.021374" y1="33.448878" x2="-28.021374" y2="33.579859" />
      <path d="M -28.021374,33.448878 C -27.881608,33.3567 -27.610424,33.146057 -27.553583,32.947231" />
      <path d="M -28.021374,33.579859 C -27.865648,33.477211 -27.544645,33.225687 -27.543491,33.009713" />
      <path d="M -27.543491,33.009713 Q -27.543245,32.96903 -27.559956,32.931003" />
      <path d="M -27.559956,32.931003 Q -27.840952,32.35361 -28.097096,31.764965" />
      <path d="M -28.097096,31.764965 C -28.20553,31.540963 -28.691716,31.630117 -28.893894,31.685767" />
      <path d="M -28.893894,31.685767 C -29.468765,31.832959 -30.138365,31.901629 -30.8172,31.911989 C -31.496923,31.922431 -32.185475,31.875506 -32.823652,31.793339" />
      <path d="M -32.823652,31.793339 Q -33.082535,31.099944 -33.311392,30.396247" />
      <line x1="-33.311392" y1="30.265267" x2="-33.311392" y2="30.396247" />
      <path d="M -33.311392,30.265267 C -32.860985,29.809583 -32.349006,29.35073 -31.808196,28.94238 C -31.268136,28.534511 -30.698977,28.178136 -30.155319,27.941536" />
      <path d="M -33.311392,30.396247 C -32.860985,29.940563 -32.349006,29.48171 -31.808196,29.073361 C -31.268136,28.665492 -30.698977,28.309117 -30.155319,28.072517" />
      <line x1="-30.155319" y1="27.941536" x2="-30.155319" y2="28.072517" />
      <path d="M -30.155319,27.941536 C -29.990225,27.873009 -29.65143,27.699564 -29.584493,27.499044" />
      <path d="M -30.155319,28.072517 C -29.972778,27.996841 -29.575047,27.791151 -29.573504,27.564357" />
      <path d="M -29.573504,27.564357 Q -29.573466,27.543213 -29.578376,27.521959" />
      <path d="M -29.578376,27.521959 Q -29.744072,26.902279 -29.883216,26.276214" />
      <path d="M -29.883216,26.276214 C -29.94693,26.035915 -30.441349,26.032239 -30.650497,26.048951" />
      <path d="M -30.650497,26.048951 C -31.243077,26.085625 -31.913686,26.027423 -32.582231,25.910232 C -33.251665,25.792955 -33.918816,25.617692 -34.529775,25.417274" />
      <path d="M -34.529775,25.417274 Q -34.651613,24.687838 -34.742002,23.95392" />
      <line x1="-34.742002" y1="23.822939" x2="-34.742002" y2="23.95392" />
      <path d="M -34.742002,23.822939 C -34.212746,23.459995 -33.622425,23.105493 -33.013436,22.80599 C -32.405276,22.506818 -31.778371,22.263669 -31.199372,22.133346" />
      <path d="M -34.742002,23.95392 C -34.212746,23.590976 -33.622425,23.236473 -33.013436,22.936971 C -32.405276,22.637798 -31.778371,22.39465 -31.199372,22.264327" />
      <line x1="-31.199372" y1="22.133346" x2="-31.199372" y2="22.264327" />
      <path d="M -31.199372,22.133346 C -31.008363,22.093823 -30.588178,21.969598 -30.533139,21.752926" />
      <path d="M -31.199372,22.264327 C -30.995816,22.222312 -30.529552,22.083029 -30.527628,21.83889" />
      <path d="M -30.527628,21.83889 L -30.527756,21.831965" />
      <path d="M -30.527756,21.831965 Q -30.572163,21.192395 -30.58928,20.551537" />
      <path d="M -30.58928,20.551537 C -30.605971,20.303627 -31.090753,20.207254 -31.299311,20.184424" />
      <path d="M -31.299311,20.184424 C -31.888184,20.109255 -32.535564,19.926285 -33.169656,19.685778 C -33.804604,19.445021 -34.426242,19.147754 -34.987901,18.836329" />
      <line x1="-34.987901" y1="18.705349" x2="-34.987901" y2="18.836329" />
      <path d="M -34.987901,18.705349 Q -34.968291,17.966235 -34.916944,17.22862" />
      <path d="M -34.987901,18.836329 Q -34.968291,18.097216 -34.916944,17.359601" />
      <line x1="-34.916944" y1="17.22862" x2="-34.916944" y2="17.359601" />
      <path d="M -34.916944,17.22862 C -34.327968,16.971535 -33.680643,16.734195 -33.025485,16.554364 C -32.371204,16.374701 -31.709212,16.253567 -31.115799,16.234232" />
      <path d="M -34.916944,17.359601 C -34.327968,17.102516 -33.680643,16.865176 -33.025485,16.685345 C -32.371204,16.505682 -31.709212,16.384548 -31.115799,16.365213" />
      <line x1="-31.115799" y1="16.234232" x2="-31.115799" y2="16.365213" />
      <path d="M -31.115799,16.234232 C -30.905996,16.231159 -30.414168,16.180907 -30.373783,15.935692" />
      <path d="M -31.115799,16.365213 C -30.905996,16.36214 -30.414168,16.311888 -30.373783,16.066673" />
      <line x1="-30.373783" y1="15.935692" x2="-30.373783" y2="16.066673" />
      <path d="M -30.373783,15.935692 Q -30.298208,15.322951 -30.197554,14.713755" />
      <path d="M -30.373783,16.066673 Q -30.295297,15.43033 -30.189767,14.797841" />
      <line x1="-30.189767" y1="14.748329" x2="-30.189767" y2="14.797841" />
      <path d="M -30.189767,14.797841 L -30.188118,14.773117" />
      <path d="M -30.188118,14.773117 C -30.189854,14.538636 -30.623054,14.363733 -30.816887,14.304146" />
      <path d="M -30.816887,14.304146 C -31.380768,14.11985 -31.981521,13.818725 -32.558242,13.463596 C -33.135757,13.10806 -33.689414,12.699532 -34.181473,12.288356" />
      <line x1="-34.181473" y1="12.157376" x2="-34.181473" y2="12.288356" />
      <path d="M -34.181473,12.157376 Q -34.021124,11.435298 -33.829898,10.720647" />
      <path d="M -34.181473,12.288356 Q -34.021124,11.566279 -33.829898,10.851627" />
      <line x1="-33.829898" y1="10.720647" x2="-33.829898" y2="10.851627" />
      <path d="M -33.829898,10.720647 C -33.202489,10.578712 -32.521554,10.467112 -31.843907,10.413452 C -31.167153,10.359793 -30.494,10.365052 -29.907619,10.457403" />
      <path d="M -33.829898,10.851627 C -33.202489,10.709692 -32.521554,10.598093 -31.843907,10.544433 C -31.167153,10.490774 -30.494,10.496032 -29.907619,10.588383" />
      <line x1="-29.907619" y1="10.457403" x2="-29.907619" y2="10.588383" />
      <path d="M -29.907619,10.457403 C -29.701021,10.493748 -29.208489,10.536682 -29.122023,10.303475" />
      <path d="M -29.907619,10.588383 C -29.701021,10.624729 -29.208489,10.667663 -29.122023,10.434456" />
      <line x1="-29.122023" y1="10.303475" x2="-29.122023" y2="10.434456" />
      <path d="M -29.122023,10.303475 Q -28.92396,9.694833 -28.700202,9.095005" />
      <path d="M -29.122023,10.434456 Q -28.92348,9.824338 -28.699118,9.223079" />
      <line x1="-28.699118" y1="9.098575" x2="-28.699118" y2="9.223079" />
      <path d="M -28.699118,9.223079 Q -28.689209,9.193281 -28.689319,9.162811" />
      <path d="M -28.689319,9.162811 C -28.690668,8.942083 -29.050866,8.710741 -29.22066,8.620644" />
      <path d="M -29.22066,8.620644 C -29.73917,8.333883 -30.271583,7.925486 -30.770089,7.46857 C -31.269297,7.011105 -31.734962,6.506082 -32.139638,6.010017" />
      <line x1="-32.139638" y1="5.879036" x2="-32.139638" y2="6.010017" />
      <path d="M -32.139638,5.879036 Q -31.844345,5.200092 -31.520151,4.534233" />
      <path d="M -32.139638,6.010017 Q -31.844345,5.331073 -31.520151,4.665214" />
      <line x1="-31.520151" y1="4.534233" x2="-31.520151" y2="4.665214" />
      <path d="M -31.520151,4.534233 C -30.876985,4.512578 -30.187052,4.530753 -29.511407,4.605203 C -28.83664,4.679487 -28.176655,4.810948 -27.618501,5.011647" />
      <path d="M -31.520151,4.665214 C -30.876985,4.643559 -30.187052,4.661734 -29.511407,4.736184 C -28.83664,4.810468 -28.176655,4.941929 -27.618501,5.142628" />
      <line x1="-27.618501" y1="5.011647" x2="-27.618501" y2="5.142628" />
      <path d="M -27.618501,5.011647 C -27.422574,5.086099 -26.947138,5.220666 -26.817717,5.007896" />
      <path d="M -27.618501,5.142628 C -27.422574,5.217079 -26.947138,5.351646 -26.817717,5.138877" />
      <line x1="-26.817717" y1="5.007896" x2="-26.817717" y2="5.138877" />
      <path d="M -26.817717,5.007896 Q -26.506292,4.446055 -26.171207,3.897756" />
      <path d="M -26.817717,5.138877 Q -26.506292,4.577035 -26.171207,4.028737" />
      <line x1="-26.171207" y1="3.897756" x2="-26.171207" y2="4.028737" />
      <path d="M -26.171207,3.897756 Q -26.161239,3.88013 -26.155388,3.8614" />
      <path d="M -26.171207,4.028737 Q -26.145784,3.982846 -26.146258,3.930528" />
      <path d="M -26.146258,3.930528 C -26.147222,3.718299 -26.427833,3.452446 -26.568322,3.339337" />
      <path d="M -26.568322,3.339337 C -27.022721,2.960474 -27.467551,2.459566 -27.869825,1.917376 C -28.272684,1.374517 -28.633527,0.791252 -28.936193,0.228225" />
      <line x1="-28.936193" y1="0.097245" x2="-28.936193" y2="0.228225" />
      <path d="M -28.936193,0.097245 Q -28.516628,-0.514027 -28.071183,-1.107027" />
      <path d="M -28.936193,0.228225 Q -28.516628,-0.383046 -28.071183,-0.976046" />
      <line x1="-28.071183" y1="-1.107027" x2="-28.071183" y2="-0.976046" />
      <path d="M -28.071183,-1.107027 C -27.435506,-1.007619 -26.761511,-0.860327 -26.112288,-0.660457 C -25.463895,-0.460915 -24.840933,-0.208003 -24.331177,0.093791" />
      <path d="M -28.071183,-0.976046 C -27.435506,-0.876639 -26.761511,-0.729346 -26.112288,-0.529476 C -25.463895,-0.329935 -24.840933,-0.077023 -24.331177,0.224771" />
      <line x1="-24.331177" y1="0.093791" x2="-24.331177" y2="0.224771" />
      <path d="M -24.331177,0.093791 C -24.153004,0.203656 -23.711848,0.424993 -23.544148,0.240351" />
      <path d="M -24.331177,0.224771 C -24.153004,0.334637 -23.711848,0.555974 -23.544148,0.371331" />
      <line x1="-23.544148" y1="0.240351" x2="-23.544148" y2="0.371331" />
      <path d="M -23.544148,0.240351 Q -23.131099,-0.252908 -22.697401,-0.728429" />
      <path d="M -23.544148,0.371331 Q -23.131099,-0.121927 -22.697401,-0.597448" />
      <line x1="-22.697401" y1="-0.728429" x2="-22.697401" y2="-0.597448" />
      <path d="M -22.697401,-0.728429 Q -22.666819,-0.764828 -22.656245,-0.810536" />
      <path d="M -22.697401,-0.597448 Q -22.648051,-0.657929 -22.649428,-0.740814" />
      <path d="M -22.649428,-0.740814 C -22.650031,-0.947086 -22.848496,-1.222203 -22.955736,-1.348897" />
      <path d="M -22.955736,-1.348897 C -23.3296,-1.806167 -23.67077,-2.381483 -23.962273,-2.98935 C -24.254222,-3.597984 -24.497201,-4.23841 -24.686918,-4.848048" />
      <line x1="-24.686918" y1="-4.979029" x2="-24.686918" y2="-4.848048" />
      <path d="M -24.686918,-4.979029 Q -24.158247,-5.500535 -23.60765,-5.999244" />
      <path d="M -24.686918,-4.848048 Q -24.158247,-5.369554 -23.60765,-5.868263" />
      <line x1="-23.60765" y1="-5.999244" x2="-23.60765" y2="-5.868263" />
      <path d="M -23.60765,-5.999244 C -23.002437,-5.782367 -22.368739,-5.51128 -21.769403,-5.193215 C -21.170819,-4.875627 -20.607394,-4.510405 -20.164462,-4.118424" />
      <path d="M -23.60765,-5.868263 C -23.002437,-5.651386 -22.368739,-5.3803 -21.769403,-5.062234 C -21.170819,-4.744646 -20.607394,-4.379424 -20.164462,-3.987443" />
      <line x1="-20.164462" y1="-4.118424" x2="-20.164462" y2="-3.987443" />
      <path d="M -20.164462,-4.118424 C -20.010481,-3.977115 -19.61955,-3.677008 -19.419633,-3.826849" />
      <path d="M -20.164462,-3.987443 C -20.010481,-3.846134 -19.61955,-3.546027 -19.419633,-3.695868" />
      <line x1="-19.419633" y1="-3.826849" x2="-19.419633" y2="-3.695868" />
      <path d="M -19.419633,-3.826849 Q -18.919887,-4.233697 -18.403252,-4.619254" />
      <path d="M -19.419633,-3.695868 Q -18.919887,-4.102716 -18.403252,-4.488274" />
      <line x1="-18.403252" y1="-4.619254" x2="-18.403252" y2="-4.488274" />
      <path d="M -18.403252,-4.619254 Q -18.338742,-4.673557 -18.326567,-4.763755" />
      <path d="M -18.403252,-4.488274 C -18.344638,-4.535007 -18.322123,-4.609162 -18.32214,-4.694346" />
      <path d="M -18.32214,-4.694346 C -18.322437,-4.892286 -18.441647,-5.146637 -18.51347,-5.274612" />
      <path d="M -18.51347,-5.274612 C -18.793287,-5.793763 -19.018466,-6.422693 -19.188662,-7.074267 C -19.359149,-7.726677 -19.475483,-8.401118 -19.545394,-9.035335" />
      <line x1="-19.545394" y1="-9.166316" x2="-19.545394" y2="-9.035335" />
      <path d="M -19.545394,-9.166316 Q -18.926723,-9.579207 -18.290875,-9.9656" />
      <path d="M -19.545394,-9.035335 Q -18.926723,-9.448226 -18.290875,-9.83462" />
      <line x1="-18.290875" y1="-9.9656" x2="-18.290875" y2="-9.83462" />
      <path d="M -18.290875,-9.9656 C -17.738,-9.639092 -17.167502,-9.25401 -16.639715,-8.829244 C -16.112574,-8.405088 -15.629051,-7.940756 -15.26895,-7.472755" />
      <path d="M -18.290875,-9.83462 C -17.738,-9.508111 -17.167502,-9.123029 -16.639715,-8.698263 C -16.112574,-8.274108 -15.629051,-7.809775 -15.26895,-7.341775" />
      <line x1="-15.26895" y1="-7.472755" x2="-15.26895" y2="-7.341775" />
      <path d="M -15.26895,-7.472755 C -15.144727,-7.30511 -14.81815,-6.937079 -14.593242,-7.046705" />
      <path d="M -15.26895,-7.341775 C -15.144727,-7.174129 -14.81815,-6.806099 -14.593242,-6.915724" />
      <line x1="-14.593242" y1="-7.046705" x2="-14.593242" y2="-6.915724" />
      <path d="M -14.593242,-7.046705 Q -14.024861,-7.352438 -13.443961,-7.634096" />
      <path d="M -14.593242,-6.915724 Q -14.024861,-7.221457 -13.443961,-7.503115" />
      <line x1="-13.443961" y1="-7.634096" x2="-13.443961" y2="-7.503115" />
      <path d="M -13.443961,-7.634096 C -13.361577,-7.677336 -13.325652,-7.772275 -13.316585,-7.883551" />
      <path d="M -13.443961,-7.503115 C -13.346464,-7.554297 -13.314099,-7.67776 -13.314147,-7.815176" />
      <path d="M -13.314147,-7.815176 C -13.314232,-7.988981 -13.365172,-8.184567 -13.402079,-8.295922" />
      <path d="M -13.74666,-11.13087 Q -13.745629,-11.738342 -13.697448,-12.313275" />
      <path d="M -13.402079,-8.295922 C -13.648421,-9.084496 -13.747033,-10.059918 -13.74666,-10.99989" />
      <path d="M -13.74666,-10.99989 Q -13.745629,-11.607361 -13.697448,-12.182294" />
      <line x1="-13.697448" y1="-12.313275" x2="-13.697448" y2="-12.182294" />
      <path d="M -13.697448,-12.313275 Q -13.011138,-12.60263 -12.313019,-12.862742" />
      <path d="M -13.697448,-12.182294 Q -13.011138,-12.471649 -12.313019,-12.731761" />
      <line x1="-12.313019" y1="-12.862742" x2="-12.313019" y2="-12.731761" />
      <path d="M -12.313019,-12.862742 C -11.832465,-12.438403 -11.345788,-11.953242 -10.908624,-11.437129 C -10.471979,-10.921736 -10.085832,-10.375076 -9.821579,-9.84797" />
      <path d="M -12.313019,-12.731761 C -11.832465,-12.307422 -11.345788,-11.822262 -10.908624,-11.306148 C -10.471979,-10.790755 -10.085832,-10.244095 -9.821579,-9.716989" />
      <line x1="-9.821579" y1="-9.84797" x2="-9.821579" y2="-9.716989" />
      <path d="M -9.821579,-9.84797 C -9.731604,-9.660047 -9.481183,-9.237395 -9.239413,-9.302842" />
      <path d="M -9.821579,-9.716989 C -9.731604,-9.529066 -9.481183,-9.106414 -9.239413,-9.171861" />
      <line x1="-9.239413" y1="-9.302842" x2="-9.239413" y2="-9.171861" />
      <path d="M -9.239413,-9.302842 Q -8.622941,-9.496409 -7.998771,-9.663989" />
      <path d="M -9.239413,-9.171861 Q -8.622941,-9.365429 -7.998771,-9.533008" />
      <line x1="-7.998771" y1="-9.663989" x2="-7.998771" y2="-9.533008" />
      <path d="M -7.998771,-9.663989 C -7.847561,-9.709972 -7.799744,-9.925667 -7.792099,-10.127448" />
      <path d="M -7.998771,-9.533008 C -7.831348,-9.584064 -7.790778,-9.842457 -7.790893,-10.060722" />
      <path d="M -7.790893,-10.060722 Q -7.792553,-10.205524 -7.806302,-10.30363" />
      <path d="M -7.842551,-11.132794 C -7.842193,-12.165774 -7.633994,-13.313194 -7.354441,-14.306169" />
      <path d="M -7.806302,-10.30363 Q -7.842968,-10.638207 -7.842551,-11.001813" />
      <path d="M -7.842551,-11.001813 C -7.842193,-12.034793 -7.633994,-13.182214 -7.354441,-14.175188" />
      <line x1="-7.354441" y1="-14.306169" x2="-7.354441" y2="-14.175188" />
      <path d="M -7.354441,-14.306169 Q -6.625297,-14.461528 -5.89014,-14.585958" />
      <path d="M -7.354441,-14.175188 Q -6.625297,-14.330547 -5.89014,-14.454978" />
      <line x1="-5.89014" y1="-14.585958" x2="-5.89014" y2="-14.454978" />
      <path d="M -5.89014,-14.585958 C -5.378105,-13.922074 -4.873743,-13.150726 -4.492822,-12.369443" />
      <path d="M -4.278243,-11.895175 Q -4.121071,-11.518877 -4.01923,-11.158221" />
      <path d="M -5.89014,-14.454978 C -5.499274,-13.948145 -5.114007,-13.380441 -4.783267,-12.791633 C -4.452899,-12.20363 -4.178086,-11.5944 -4.01923,-11.02724" />
      <line x1="-4.01923" y1="-11.158221" x2="-4.01923" y2="-11.02724" />
      <path d="M -4.01923,-11.158221 C -3.966755,-10.956813 -3.801542,-10.494814 -3.551647,-10.513717" />
      <path d="M -4.01923,-11.02724 C -3.966755,-10.825832 -3.801542,-10.363833 -3.551647,-10.382737" />
      <path d="M -4.964282,-15.075707 L -4.964282,-14.944726" />
      <path d="M -10.868436,-15.078701 L -10.868436,-14.947721" />
      <path d="M -21.6,-37.450813 L -21.6,-37.319833" />
      <path d="M -10.468229,-59.818248 L -10.468229,-59.687268" />
      <path d="M -4.563965,-59.827502 L -4.563965,-59.696521" />
      <path d="M 4.964282,-59.825919 L 4.964282,-59.694939" />
      <path d="M 10.868436,-59.822925 L 10.868436,-59.691945" />
      <path d="M 21.6,-37.450813 L 21.6,-37.319833" />
      <path d="M 10.468229,-15.083378 L 10.468229,-14.952398" />
      <path d="M 4.563965,-15.074125 L 4.563965,-14.943144" />
      <path d="M 7.842551,-11.132794 L 7.842551,-11.001813" />
      <path d="M 13.74666,-11.13087 L 13.74666,-10.99989" />
      <path d="M 10.794732,50.354626 L 10.794732,50.485607" />
      <path d="M 4.890056,50.347928 L 4.890056,50.478908" />
      <path d="M -4.890056,50.347928 L -4.890056,50.478908" />
      <path d="M -10.794732,50.354626 L -10.794732,50.485607" />
      <path d="M -13.74666,-11.13087 L -13.74666,-10.99989" />
      <path d="M -7.842551,-11.132794 L -7.842551,-11.001813" />
    </g>
  </g>
</svg>